<svg xmlns="http://www.w3.org/2000/svg" width="70" height="70" viewBox="0 0 70 70">
  <g id="img21" transform="translate(-208 -5207)">
    <rect id="Image_Place_Holder" data-name="Image Place Holder" width="70" height="70" transform="translate(208 5207)" fill="#ff9a1a"/>
    <g id="Group_1179392" data-name="Group 1179392" transform="translate(220.855 5219.855)">
      <g id="Group_1179390" data-name="Group 1179390" transform="translate(1.682 1.682)">
        <g id="Group_1179376" data-name="Group 1179376" transform="translate(6.821)">
          <path id="Path_1003121" data-name="Path 1003121" d="M42.012,3.364V13.6l-.027.027L37.237,18.37h-3.41A3.417,3.417,0,0,0,31.1,19.734H21.549V36.1H36.555v2.728H18.821V18.37A6.823,6.823,0,0,0,12,11.549V9.387a1.342,1.342,0,0,1,.123-.566h5.334a1.368,1.368,0,0,0,1.364-1.364V2.123A1.342,1.342,0,0,1,19.387,2h21.26a1.368,1.368,0,0,1,1.364,1.364Z" transform="translate(-12 -2)" fill="#e6e9ed"/>
        </g>
        <g id="Group_1179377" data-name="Group 1179377" transform="translate(16.37 17.734)">
          <path id="Path_1003122" data-name="Path 1003122" d="M39.13,39.459a3.717,3.717,0,0,1-.825-.907,3.844,3.844,0,0,1-.546-1.16h-.007l-2.885,2.885-.682.273L31.661,41.56a1.147,1.147,0,0,1-1.548-1.282,1.166,1.166,0,0,1,.061-.2l1.282-3.206.682-.682,4.092-4.092a1.368,1.368,0,0,1-1.364-1.364v-.682A3.37,3.37,0,0,1,35.549,28H26V44.37H41.006V40.96Z" transform="translate(-26 -28)" fill="#ffeaa7"/>
        </g>
        <g id="Group_1179378" data-name="Group 1179378" transform="translate(16.37 2.728)">
          <path id="Path_1003123" data-name="Path 1003123" d="M26,6H43.734V8.728H26Z" transform="translate(-26 -6)" fill="#ff826e"/>
        </g>
        <g id="Group_1179379" data-name="Group 1179379" transform="translate(6.944 0.123)">
          <path id="Path_1003124" data-name="Path 1003124" d="M18.878,2.18V7.514a1.368,1.368,0,0,1-1.364,1.364H12.18a1.375,1.375,0,0,1,.28-.4L18.476,2.46A1.375,1.375,0,0,1,18.878,2.18Z" transform="translate(-12.18 -2.18)" fill="#b4dd7f"/>
        </g>
        <g id="Group_1179380" data-name="Group 1179380" transform="translate(21.827 20.462)">
          <path id="Path_1003125" data-name="Path 1003125" d="M40.139,32v5.539a3.873,3.873,0,0,0,.164,1.125H40.3L37.41,41.549,34,38.139l.682-.682,4.092-4.092A1.374,1.374,0,0,0,40.139,32Z" transform="translate(-34 -32)" fill="#ff826e"/>
        </g>
        <g id="Group_1179381" data-name="Group 1179381" transform="translate(29.241 10.913)">
          <path id="Path_1003126" data-name="Path 1003126" d="M52.462,18.682a2.412,2.412,0,0,1,3.383,3.438L51.861,26.1l-5.539,5.539v-3.41a2.041,2.041,0,0,0-.6-1.446,2.086,2.086,0,0,0-.853-.512l2.817-2.817,4.747-4.747Z" transform="translate(-44.87 -18)" fill="#ff826e"/>
        </g>
        <g id="Group_1179382" data-name="Group 1179382" transform="translate(20.462 26.601)">
          <path id="Path_1003127" data-name="Path 1003127" d="M36.775,44.41l-.682.273-2.524,1.009A1.147,1.147,0,0,1,32.02,44.41a1.167,1.167,0,0,1,.061-.2L33.364,41Z" transform="translate(-32 -41)" fill="#aab2bd"/>
        </g>
        <g id="Group_1179383" data-name="Group 1179383" transform="translate(31.376 28.647)">
          <path id="Path_1003128" data-name="Path 1003128" d="M55.5,44l1.364,8.185H48V46.046Z" transform="translate(-48 -44)" fill="#b4dd7f"/>
        </g>
        <g id="Group_1179384" data-name="Group 1179384" transform="translate(25.237 16.37)">
          <path id="Path_1003129" data-name="Path 1003129" d="M41.326,31.054a1.334,1.334,0,0,1-.962.4A1.368,1.368,0,0,1,39,30.092V29.41a3.37,3.37,0,0,1,.682-2.046A3.417,3.417,0,0,1,42.41,26h3.41L43,28.817a2.116,2.116,0,0,0-.593-.089.684.684,0,0,0-.682.682v.682A1.334,1.334,0,0,1,41.326,31.054Z" transform="translate(-39 -26)" fill="#f0d0b4"/>
        </g>
        <g id="Group_1179385" data-name="Group 1179385" transform="translate(27.965 19.016)">
          <path id="Path_1003130" data-name="Path 1003130" d="M51.628,30.542a18.753,18.753,0,0,1,2.285,8.969l-7.5,2.046-1.876-1.5a3.717,3.717,0,0,1-.825-.907A4.109,4.109,0,0,1,43,36.865V30.644a.684.684,0,0,1,.682-.682,2.116,2.116,0,0,1,.593.089,2.086,2.086,0,0,1,.853.512,2.041,2.041,0,0,1,.6,1.446v3.41l5.539-5.539Z" transform="translate(-43 -29.88)" fill="#f0d0b4"/>
        </g>
        <g id="Group_1179386" data-name="Group 1179386" transform="translate(0 16.37)">
          <path id="Path_1003131" data-name="Path 1003131" d="M15.642,26V47.827a2.728,2.728,0,0,1-2.728,2.728H4.728A2.728,2.728,0,0,1,2,47.827V26a6.814,6.814,0,0,0,2.728,5.457v4.775a.684.684,0,0,0,.682.682h6.821a.684.684,0,0,0,.682-.682V31.457A6.814,6.814,0,0,0,15.642,26Z" transform="translate(-2 -26)" fill="#969faa"/>
        </g>
        <g id="Group_1179387" data-name="Group 1179387" transform="translate(2.745 30.016)">
          <path id="Path_1003132" data-name="Path 1003132" d="M13.564,54.164H6.707a.682.682,0,0,1-.682-.682V46.688a.682.682,0,0,1,.682-.682h6.856a.682.682,0,0,1,.682.682v6.794A.681.681,0,0,1,13.564,54.164Z" transform="translate(-6.025 -46.006)" fill="#ff826e"/>
        </g>
        <g id="Group_1179388" data-name="Group 1179388" transform="translate(2.728 21.827)">
          <path id="Path_1003133" data-name="Path 1003133" d="M14.185,34v4.775a.684.684,0,0,1-.682.682H6.682A.684.684,0,0,1,6,38.775V34a6.821,6.821,0,0,0,8.185,0Z" transform="translate(-6 -34)" fill="#69d6f4"/>
        </g>
        <g id="Group_1179389" data-name="Group 1179389" transform="translate(0 9.549)">
          <path id="Path_1003134" data-name="Path 1003134" d="M15.642,22.821A6.821,6.821,0,1,1,8.821,16,6.814,6.814,0,0,1,15.642,22.821Z" transform="translate(-2 -16)" fill="#fcd770"/>
        </g>
      </g>
      <g id="Group_1179391" data-name="Group 1179391" transform="translate(1 1)">
        <path id="Path_1003135" data-name="Path 1003135" d="M38.873,21.037l-.117-.216,3.627-3.627a3.081,3.081,0,0,0-3.187-5.1V3.046A2.049,2.049,0,0,0,37.15,1H15.889a2.034,2.034,0,0,0-1.447.6L8.42,7.621a2.032,2.032,0,0,0-.6,1.447v1.516A7.51,7.51,0,0,0,1,18.052V39.879a3.414,3.414,0,0,0,3.41,3.41H12.6a3.414,3.414,0,0,0,3.41-3.41V39.2H42.73l-1.49-8.938A19.467,19.467,0,0,0,38.873,21.037Zm.989,8.776-6.65,1.814-1.6-1.283a3.4,3.4,0,0,1-1.28-2.664V21.462a1.366,1.366,0,0,1,1.364,1.364V27.6h1.364V26.519l4.689-4.689A18.085,18.085,0,0,1,39.862,29.813ZM30.33,20.1a1.366,1.366,0,0,0-1.364,1.364v.682a.682.682,0,0,1-1.364,0v-.682a2.731,2.731,0,0,1,2.728-2.728h1.764l-1.4,1.4a2.659,2.659,0,0,0-.363-.037ZM22.86,31.743l.9-2.245L25.7,31.445l-2.246.9a.472.472,0,0,1-.632-.429A.445.445,0,0,1,22.86,31.743Zm4.059-1.014-2.446-2.446L28.6,24.159a1.99,1.99,0,0,0,.368-.094V27.68a4.8,4.8,0,0,0,.093.91Zm-.557-7.9H18.734V20.1h7.742a4.076,4.076,0,0,0-.239,1.364v.682A2.023,2.023,0,0,0,26.363,22.827Zm-7.628,1.364h7.9l-2.728,2.728H18.734Zm0,4.092h4.04l-1.091,2.728H18.734Zm0,4.092h2.8a1.82,1.82,0,0,0,2.438,1.234l1.588-.636V35.1H18.734Zm8.185.053.383-.153L29.574,30c.025.044.047.089.074.133V35.1H26.919Zm4.092-.816L32.376,32.7v2.4H31.012Zm10.913-16.6a1.719,1.719,0,0,1-.507,1.223l-8.36,8.36V22.827a2.712,2.712,0,0,0-1.019-2.109l6.933-6.933a1.73,1.73,0,0,1,2.953,1.223ZM14.642,3.329v3.81a.683.683,0,0,1-.682.682h-3.81ZM8.5,11.913a6.139,6.139,0,1,1-6.139,6.139A6.146,6.146,0,0,1,8.5,11.913ZM5.092,24.727a7.437,7.437,0,0,0,6.821,0v3.556H5.092Zm7.5,17.2H4.41a2.049,2.049,0,0,1-2.046-2.046V22.353a7.573,7.573,0,0,0,1.364,1.483v4.448a1.366,1.366,0,0,0,1.364,1.364h6.821a1.366,1.366,0,0,0,1.364-1.364V23.835a7.573,7.573,0,0,0,1.364-1.483V39.879A2.049,2.049,0,0,1,12.6,41.925Zm3.41-4.092V18.052a7.51,7.51,0,0,0-6.821-7.468v-1.4H13.96a2.049,2.049,0,0,0,2.046-2.046V2.364H37.15a.683.683,0,0,1,.682.682V13L33.458,17.37H30.33a4.081,4.081,0,0,0-3.042,1.364H17.37V36.468H32.376v1.364Zm17.734,0V32.9l6.272-1.711,1.108,6.646Z" transform="translate(-1 -1)"/>
        <path id="Path_1003136" data-name="Path 1003136" d="M10.364,27.086v1.463h1.364V27.086a1.94,1.94,0,0,0,.288-3.589l-1.33-.664a.583.583,0,0,1,.261-1.1h.2a.583.583,0,0,1,.582.582v.782h1.364v-.782a1.943,1.943,0,0,0-1.364-1.848V19H10.364v1.463a1.94,1.94,0,0,0-.288,3.589l1.33.664a.583.583,0,0,1-.261,1.1h-.2a.583.583,0,0,1-.582-.582v-.782H9v.782A1.943,1.943,0,0,0,10.364,27.086Z" transform="translate(-3.543 -6.723)"/>
        <path id="Path_1003137" data-name="Path 1003137" d="M13.185,45H6.364A1.366,1.366,0,0,0,5,46.364v6.821a1.366,1.366,0,0,0,1.364,1.364h6.821a1.366,1.366,0,0,0,1.364-1.364V46.364A1.366,1.366,0,0,0,13.185,45Zm0,2.728H11.821V46.364h1.364Zm-2.728,5.457H9.092V51.821h1.364Zm0-2.728H9.092V49.092h1.364Zm-2.728,0H6.364V49.092H7.728Zm1.364-2.728V46.364h1.364v1.364ZM7.728,46.364v1.364H6.364V46.364ZM6.364,51.821H7.728v1.364H6.364Zm5.457,1.364V49.092h1.365v4.092Z" transform="translate(-2.272 -14.988)"/>
        <path id="Path_1003138" data-name="Path 1003138" d="M44.1,5H25V9.092H44.1ZM42.734,7.728H26.364V6.364h16.37Z" transform="translate(-8.63 -2.272)"/>
        <path id="Path_1003139" data-name="Path 1003139" d="M25,13H44.1v1.364H25Z" transform="translate(-8.63 -4.815)"/>
        <path id="Path_1003140" data-name="Path 1003140" d="M25,17H44.1v1.364H25Z" transform="translate(-8.63 -6.087)"/>
        <path id="Path_1003141" data-name="Path 1003141" d="M25,21H35.913v1.364H25Z" transform="translate(-8.63 -7.358)"/>
      </g>
    </g>
  </g>
</svg>
