<svg xmlns="http://www.w3.org/2000/svg" width="90" height="90" viewBox="0 0 90 90">
  <g id="img38" transform="translate(-528 -9610)">
    <rect id="Image_Place_Holder" data-name="Image Place Holder" width="90" height="90" transform="translate(528 9610)" fill="#ff9a1a"/>
    <g id="Group_1180444" data-name="Group 1180444" transform="translate(515.17 9620.057)">
      <g id="Group_1180443" data-name="Group 1180443" transform="translate(27.366 1.376)">
        <path id="Path_1003951" data-name="Path 1003951" d="M275.97,103.167h27.693v-7.05a2.777,2.777,0,0,0-2.769-2.769H278.739a2.777,2.777,0,0,0-2.769,2.769Z" transform="translate(-242.738 -81.799)" fill="#ffc144" fill-rule="evenodd"/>
        <path id="Path_1003952" data-name="Path 1003952" d="M275.97,164.264h27.693v6.168H275.97Z" transform="translate(-242.738 -142.896)" fill="#60a4ff" fill-rule="evenodd"/>
        <path id="Path_1003953" data-name="Path 1003953" d="M303.664,208.806H275.971V221.23l6.814-6.257h18.11a2.777,2.777,0,0,0,2.769-2.769v-3.4Z" transform="translate(-242.739 -181.27)" fill="#ff5a58" fill-rule="evenodd"/>
        <path id="Path_1003954" data-name="Path 1003954" d="M69.2,49.9V31.311c-8.024-1.546-3.073-5.317-6.339-7-4.337-2.234,2.2-9.894,6.917-10.094,3.089-.131-.6-8.482-8.206-1.486-1.289,1.185-5.409,2.329-7.662,2.991-2.6.762-1.237,1.767-3.391,4.995-2.077,3.112-1.8.321-2.779,2.245-1.226,2.418-2.356,2.708-3.262,2.778-2.542.2-4.893,4.678-3.157,7.145,1.9,2.7.615,9.57.874,10.2,1.117,2.723-.519,7.524-3.1,7.677-4.394.261-1.322,2.2-2.769,3.074-1.364.827,1.528,3.4,2.024,3.385,3.1-.123,6.135,6.016,7.9,2.985.5-.855,8.744,2.577,8.9,3.844.331,2.705,2.049,1.11,2.014,2.307-.085,2.843,2.041,1.809,2.153,2.625.531,3.852,5.451,1.917,6.657,1.777,5.69-.665,3.056,7.856,6.47,7.277s1.589-4.722,2.1-8.182c.354-2.394,1.429-2.621.693-5.31-.471-1.72-1.366-2.2-.848-3.462.673-1.639,2.339-.92,2.959-2.115,1.066-2.056-1.332-3.826.175-4.729,2.987-1.789,4.73,3.071,7.54,1.405,2.417-1.433-1.906-5.811-.557-7.316,1.045-1.166-.773-3-.888-4.684H76.014Z" transform="translate(-35.969 -9.943)" fill="#cbe558" fill-rule="evenodd"/>
      </g>
      <path id="Path_1003955" data-name="Path 1003955" d="M72.744,227.712a1.385,1.385,0,0,0,1.385-1.385h0a1.385,1.385,0,1,0-1.385,1.386Z" transform="translate(-39.093 -193.796)"/>
      <path id="Path_1003956" data-name="Path 1003956" d="M85.522,11.54H63.367a4.159,4.159,0,0,0-4.154,4.154v5.281a3.961,3.961,0,0,1-1.876-1.033,2.419,2.419,0,0,1-.366-1.587,3.863,3.863,0,0,0-2.078-3.841c-.509-.262-.808-.619-.612-1.51.521-2.366,4.2-5.853,6.953-5.969a2.416,2.416,0,0,0,2.332-1.852A4.346,4.346,0,0,0,61.336.725c-1.217-.725-4.559-1.94-9.3,2.423-.965.887-4.8,2-6.638,2.542l-.476.139a3.647,3.647,0,0,0-2.928,2.919,8.858,8.858,0,0,1-1.224,2.636,6.891,6.891,0,0,1-.691.907c-1.321-.2-1.931,1.007-2.172,1.481-.981,1.934-1.675,1.988-2.134,2.024a5.658,5.658,0,0,0-4.335,3.526,5.756,5.756,0,0,0,.153,5.8,4.075,4.075,0,0,1,.562,1.472,1.385,1.385,0,0,0,2.708-.578,6.666,6.666,0,0,0-1.006-2.488,3.187,3.187,0,0,1,.088-3.022c.506-1.074,1.365-1.892,2.043-1.945,1.246-.1,2.862-.577,4.343-3.44,1.062-.033,1.884-.908,2.743-2.2a11.579,11.579,0,0,0,1.57-3.367c.252-.83.252-.83,1.059-1.067l.472-.138c3.318-.968,6.406-1.938,7.737-3.162,2.354-2.164,4.532-2.93,5.978-2.1a2.045,2.045,0,0,1,.975,1.2,10.563,10.563,0,0,0-5.717,2.763,10.738,10.738,0,0,0-3.566,5.361,3.872,3.872,0,0,0,2.049,4.567c.487.251.546.4.578,1.462.064,2.117.527,4.263,5.01,5.413V41.336a1.385,1.385,0,0,0,2.321,1.02l6.416-5.892h5.967c.141.412.315.8.476,1.164a5.408,5.408,0,0,1,.453,1.245c-1.15,1.327-.395,3.1.272,4.662a6.384,6.384,0,0,1,.7,2.309.265.265,0,0,1-.061.045c-.528.313-.872.207-2.165-.667-1.237-.835-3.106-2.1-5.38-.736-1.72,1.03-1.13,2.755-.846,3.584.252.737.4,1.215.158,1.687a3.026,3.026,0,0,1-.473.164,3.471,3.471,0,0,0-2.542,2.072,3.4,3.4,0,0,0,.291,3.113,6.548,6.548,0,0,1,.5,1.24,3.108,3.108,0,0,1-.107,2.493,9.918,9.918,0,0,0-.62,2.249,17.589,17.589,0,0,0-.038,3.611c.175,2.9-.032,3.257-.925,3.409l-.052.007a7.408,7.408,0,0,1-.578-1.885,10.011,10.011,0,0,0-1.331-3.62,4.424,4.424,0,0,0-4.438-1.789,9.263,9.263,0,0,0-1,.2c-.934.222-2.878.685-3.674.14a1.2,1.2,0,0,1-.454-.935,1.973,1.973,0,0,0-1.733-1.582,2.433,2.433,0,0,1-.327-.087,1.762,1.762,0,0,1-.081-.726,1.826,1.826,0,0,0-1.83-1.967l-.076-.009a2.36,2.36,0,0,1-.117-.54c-.093-.764-.621-1.683-3.819-3.221a24.959,24.959,0,0,0-5.057-1.858c-.533-.11-1.949-.4-2.594.707a1.349,1.349,0,0,1-.084.129,9.48,9.48,0,0,1-1.779-1.319c-1.319-1.127-2.8-2.4-4.558-2.479A5.489,5.489,0,0,1,28.9,46.116a2.483,2.483,0,0,0,.549-2.384,6.3,6.3,0,0,1,1.136-.149c1.921-.114,3.595-1.811,4.368-4.429a1.385,1.385,0,1,0-2.656-.784c-.407,1.378-1.2,2.408-1.876,2.448-1.76.1-2.759.47-3.34,1.223a2.578,2.578,0,0,0-.352,2.208l.008.039a2.137,2.137,0,0,0-.637,2.341c.384,1.277,2.323,3.414,3.664,3.414h.049c.813-.03,2.019.994,2.985,1.819,1.34,1.145,2.606,2.226,4.091,1.973a2.612,2.612,0,0,0,1.54-.9,19.169,19.169,0,0,1,3.427,1.176,14.925,14.925,0,0,1,3.369,1.838,2.776,2.776,0,0,0,1.986,2.556,2.915,2.915,0,0,0,2.28,2.78,3.767,3.767,0,0,0,1.494,2.163c1.808,1.237,4.357.63,5.879.268.264-.063.564-.134.677-.147,1.7-.2,2.137.558,2.746,3.266a9.331,9.331,0,0,0,.84,2.589,2.688,2.688,0,0,0,2.4,1.459,3.319,3.319,0,0,0,.556-.048,3.6,3.6,0,0,0,3.072-2.675,11.216,11.216,0,0,0,.154-3.631,15.293,15.293,0,0,1,.013-3.04,7.216,7.216,0,0,1,.469-1.67,5.758,5.758,0,0,0,.19-4.208,9.239,9.239,0,0,0-.691-1.736c-.3-.613-.3-.626-.212-.835.1-.241.153-.288.761-.466a3.137,3.137,0,0,0,2.146-1.537,4.613,4.613,0,0,0,.008-3.867c-.045-.131-.1-.29-.138-.422.562-.241,1.042-.013,2.194.765,1.191.8,2.992,2.021,5.128.754a2.921,2.921,0,0,0,1.387-3.117,10.984,10.984,0,0,0-.891-2.705,8.224,8.224,0,0,1-.643-1.859c1.118-1.362.387-3-.1-4.091l-.015-.034h8.614a4.159,4.159,0,0,0,4.154-4.154V15.694a4.161,4.161,0,0,0-4.155-4.154ZM61.982,24.129H86.906v3.4H61.982Zm1.385-9.819H85.522a1.386,1.386,0,0,1,1.385,1.385V21.36H61.982V15.694a1.386,1.386,0,0,1,1.385-1.385ZM85.522,33.695H67.411a1.385,1.385,0,0,0-.937.365l-4.492,4.125V30.3H86.906V32.31A1.386,1.386,0,0,1,85.522,33.695Z" transform="translate(0 0)"/>
    </g>
  </g>
</svg>
