<svg xmlns="http://www.w3.org/2000/svg" width="96" height="96" viewBox="0 0 96 96">
  <g id="img48" transform="translate(-794.039 -2920.08)">
    <path id="Elipse_5729" data-name="Elipse 5729" d="M48,0A48,48,0,1,1,0,48,48,48,0,0,1,48,0Z" transform="translate(794.039 2920.081)" fill="#ff9a1a"/>
    <path id="Path_1004015" data-name="Path 1004015" d="M51.949,54.258H45.632a.966.966,0,0,1-.972-.972V52.231l-4.193,3.055,4.193,3.041V57.271a.966.966,0,0,1,.972-.972h5.637A15.991,15.991,0,0,1,51.949,54.258ZM46.6,52.314h6.332a15.207,15.207,0,1,1,.194,15.94l-2.971,2.152a.976.976,0,0,1-1.541-.791V67.63H42.48A15.225,15.225,0,0,1,14.348,56.952a.885.885,0,0,1,.028-.1A15.226,15.226,0,0,1,32.4,45.233c.042,0,.069.014.1.014a15.012,15.012,0,0,1,5.79,2.638,15.229,15.229,0,0,1,3.666,3.888l3.055-2.222a.973.973,0,0,1,1.583.75v2.013Zm6.415,5.013a12.815,12.815,0,0,0-.278,3.485l4.249,3.1a.982.982,0,0,1-.014,1.583l-2.263,1.652c.125.222.278.43.417.639a9.658,9.658,0,0,1,6.373-3.43,7.689,7.689,0,1,1,8.984,0,9.835,9.835,0,0,1,6.387,3.4,13,13,0,0,0,2.1-4.818,13.275,13.275,0,1,0-25.952-5.61Zm-2.124.916H46.6v1.986a.982.982,0,0,1-1.541.791l-.611-.444-.069,1.139h4.249V59.729a.969.969,0,0,1,1.583-.75l.583.417Zm-8.414.9-4.221-3.069a.967.967,0,0,1-.014-1.583L40.4,52.925a13.278,13.278,0,0,0-22.314,14.4c.1.139.194.292.292.43a9.711,9.711,0,0,1,6.373-3.4,7.689,7.689,0,1,1,8.984,0,9.835,9.835,0,0,1,6.387,3.4A13.457,13.457,0,0,0,42.48,59.146ZM49.6,63.658H44.049A14.512,14.512,0,0,1,43.41,65.7H49.6a.966.966,0,0,1,.972.972v1.055l4.193-3.041-4.193-3.041V62.7a.972.972,0,0,1-.972.958ZM58.128,79.39a.972.972,0,0,1,1.555-1.166,15.465,15.465,0,0,1-17.968,23.619l.125.222a.97.97,0,0,1-1.694.944l-1.638-2.985a.968.968,0,0,1,.93-1.43l3.332.069a.964.964,0,0,1,.611,1.694A13.521,13.521,0,0,0,58.128,79.39Zm-5.471-6.637a.966.966,0,1,1,1.694-.93l1.638,2.971a.966.966,0,0,1-.93,1.43l-3.332-.069a.964.964,0,0,1-.611-1.694A13.51,13.51,0,0,0,36.384,95.428a.986.986,0,0,1-.194,1.361.975.975,0,0,1-1.361-.208,15.439,15.439,0,0,1,9.859-24.41,15.641,15.641,0,0,1,8.1.819Zm-5.4,9.289a5.374,5.374,0,1,1-5.374,5.374A5.369,5.369,0,0,1,47.256,82.043Zm2.43,2.944a3.434,3.434,0,1,0,0,4.86A3.437,3.437,0,0,0,49.686,84.986ZM45.7,76.28h3.11a.966.966,0,0,1,.972.972v1.264a9.2,9.2,0,0,1,1.986.819l.889-.889a.981.981,0,0,1,1.375,0l2.194,2.194a.981.981,0,0,1,0,1.375l-.889.889a9.2,9.2,0,0,1,.819,1.986H57.42a.966.966,0,0,1,.972.972v3.11a.966.966,0,0,1-.972.972H56.157a9.2,9.2,0,0,1-.819,1.986l.889.889a.981.981,0,0,1,0,1.375l-2.194,2.194a.981.981,0,0,1-1.375,0l-.889-.889a10.49,10.49,0,0,1-.972.472c-.333.139-.666.25-1.014.361v1.25a.966.966,0,0,1-.972.972H45.7a.966.966,0,0,1-.972-.972V96.33a9.2,9.2,0,0,1-1.986-.819l-.889.889a.981.981,0,0,1-1.375,0l-2.194-2.194a.981.981,0,0,1,0-1.375l.889-.889a8.944,8.944,0,0,1-.472-.972c-.139-.333-.25-.666-.361-1.014h-1.25a.966.966,0,0,1-.972-.972v-3.11a.966.966,0,0,1,.972-.972h1.264a9.2,9.2,0,0,1,.819-1.986l-.889-.889a.981.981,0,0,1,0-1.375L40.48,78.46a.981.981,0,0,1,1.375,0l.889.889a9.2,9.2,0,0,1,1.986-.819V77.266a1,1,0,0,1,.972-.986Zm2.138,1.944H46.673v1a.953.953,0,0,1-.791,1,7.443,7.443,0,0,0-2.68,1.1.974.974,0,0,1-1.277-.083l-.75-.75-.819.819.75.736a.982.982,0,0,1,.111,1.236,7.392,7.392,0,0,0-1.125,2.666.974.974,0,0,1-.958.861H38.078v1.166h1.055a.992.992,0,0,1,.958.791,6.968,6.968,0,0,0,.43,1.416,7.391,7.391,0,0,0,.68,1.264.974.974,0,0,1-.083,1.277l-.75.75.819.819.75-.75a.986.986,0,0,1,1.236-.111,7.291,7.291,0,0,0,2.666,1.125.974.974,0,0,1,.861.958v1.055h1.166V95.511a.978.978,0,0,1,.791-.958,7.342,7.342,0,0,0,2.68-1.111.974.974,0,0,1,1.277.083l.75.75.819-.819-.75-.75a.984.984,0,0,1-.111-1.236A7.392,7.392,0,0,0,54.449,88.8a.974.974,0,0,1,.958-.861h1.055V86.777H55.393a.992.992,0,0,1-.958-.791,7.409,7.409,0,0,0-1.1-2.694.974.974,0,0,1,.083-1.277l.75-.736-.819-.819-.75.75a.986.986,0,0,1-1.236.111A7.291,7.291,0,0,0,48.7,80.2a.977.977,0,0,1-.861-.972Zm27.784-8.942a7.821,7.821,0,0,0-6.193-3.055H62.572a7.849,7.849,0,0,0-6.193,3.041A13.276,13.276,0,0,0,75.624,69.282ZM66,52.356A5.748,5.748,0,1,0,71.75,58.1,5.751,5.751,0,0,0,66,52.356ZM38.856,69.282a7.821,7.821,0,0,0-6.193-3.055H25.8a7.849,7.849,0,0,0-6.193,3.041l.722.708a13.268,13.268,0,0,0,18.523-.694ZM29.233,52.356A5.748,5.748,0,1,0,34.982,58.1a5.751,5.751,0,0,0-5.748-5.748Z" transform="translate(794.42 2896.611)" fill="#4c4740"/>
  </g>
</svg>
