<svg xmlns="http://www.w3.org/2000/svg" width="96" height="96" viewBox="0 0 96 96">
  <g id="img47" transform="translate(-794.039 -2920.08)">
    <path id="Elipse_5729" data-name="Elipse 5729" d="M48,0A48,48,0,1,1,0,48,48,48,0,0,1,48,0Z" transform="translate(794.039 2920.081)" fill="#ff9a1a"/>
    <g id="Group_1180463" data-name="Group 1180463" transform="translate(818.675 2935.056)">
      <path id="Path_1004030" data-name="Path 1004030" d="M44.675,10.63H12.392a.684.684,0,0,0,0,1.369H44.675a.685.685,0,0,1,.684.684v2.355a.685.685,0,0,1-.684.684H2.053a.685.685,0,0,1-.684-.684V12.683A.685.685,0,0,1,2.053,12H9.2a.684.684,0,1,0,0-1.369H2.053A2.056,2.056,0,0,0,0,12.683v2.355a2.055,2.055,0,0,0,1.068,1.8V43.222a2.513,2.513,0,0,0,2.51,2.51H22.764v4.212a2.78,2.78,0,1,0,1.369,0V45.732h9.321a.684.684,0,1,0,0-1.369H3.578a1.142,1.142,0,0,1-1.141-1.141V17.092H44.291v26.13a1.142,1.142,0,0,1-1.141,1.141h-6.5a.684.684,0,0,0,0,1.369h6.5a2.513,2.513,0,0,0,2.51-2.51V16.84a2.055,2.055,0,0,0,1.068-1.8V12.683A2.056,2.056,0,0,0,44.675,10.63ZM24.859,52.639a1.411,1.411,0,1,1-1.411-1.411A1.412,1.412,0,0,1,24.859,52.639Z" fill="#4c4740"/>
      <path id="Path_1004031" data-name="Path 1004031" d="M61.683,111.839a.684.684,0,0,0-.685-.685H48.972a.685.685,0,1,0,0,1.369H61A.685.685,0,0,0,61.683,111.839Z" transform="translate(-43.881 -91.35)" fill="#4c4740"/>
      <path id="Path_1004032" data-name="Path 1004032" d="M58.751,148.912a.684.684,0,0,0-.684-.684H48.972a.685.685,0,0,0,0,1.369h9.094A.685.685,0,0,0,58.751,148.912Z" transform="translate(-43.881 -125.04)" fill="#4c4740"/>
      <path id="Path_1004033" data-name="Path 1004033" d="M411.562,112.523h3.453a.685.685,0,1,0,0-1.369h-3.453a.685.685,0,1,0,0,1.369Z" transform="translate(-373.378 -91.35)" fill="#4c4740"/>
      <path id="Path_1004034" data-name="Path 1004034" d="M411.562,149.6h3.453a.685.685,0,1,0,0-1.369h-3.453a.685.685,0,1,0,0,1.369Z" transform="translate(-373.378 -125.04)" fill="#4c4740"/>
      <path id="Path_1004035" data-name="Path 1004035" d="M411.562,296.371h3.453a.684.684,0,1,0,0-1.369h-3.453a.684.684,0,1,0,0,1.369Z" transform="translate(-373.378 -258.418)" fill="#4c4740"/>
      <path id="Path_1004036" data-name="Path 1004036" d="M388.437,332.76a.684.684,0,0,0-.684-.685h-6.191a.684.684,0,0,0,0,1.369h6.191A.684.684,0,0,0,388.437,332.76Z" transform="translate(-346.116 -292.108)" fill="#4c4740"/>
      <path id="Path_1004037" data-name="Path 1004037" d="M48.972,186.669h6.906a.684.684,0,1,0,0-1.369H48.972a.684.684,0,1,0,0,1.369Z" transform="translate(-43.881 -158.728)" fill="#4c4740"/>
      <path id="Path_1004038" data-name="Path 1004038" d="M190.286,146.894a10.226,10.226,0,1,0-10.226-10.226A10.237,10.237,0,0,0,190.286,146.894Zm8.857-10.226a8.818,8.818,0,0,1-2.132,5.757l-2.286-2.286a5.633,5.633,0,0,0-7.909-7.909l-2.286-2.286a8.852,8.852,0,0,1,14.613,6.725Zm-8.857-4.269a4.269,4.269,0,1,1-4.269,4.269A4.274,4.274,0,0,1,190.286,132.4Zm-6.725-1.488,2.286,2.286a5.633,5.633,0,0,0,7.909,7.909l2.286,2.286a8.852,8.852,0,0,1-12.481-12.482Z" transform="translate(-163.627 -105.243)" fill="#4c4740"/>
      <path id="Path_1004039" data-name="Path 1004039" d="M48.288,294.984a2.056,2.056,0,0,0,2.054,2.053h5.475a2.056,2.056,0,0,0,2.053-2.053v-.918a2.056,2.056,0,0,0-2.053-2.054H50.341a2.056,2.056,0,0,0-2.054,2.054Zm1.369-.918a.685.685,0,0,1,.685-.685h5.475a.685.685,0,0,1,.684.685v.918a.685.685,0,0,1-.684.685H50.341a.685.685,0,0,1-.685-.685Z" transform="translate(-43.881 -255.701)" fill="#4c4740"/>
      <path id="Path_1004040" data-name="Path 1004040" d="M48.972,257.514h4.547a.685.685,0,0,0,0-1.369H48.972a.685.685,0,0,0,0,1.369Z" transform="translate(-43.881 -223.108)" fill="#4c4740"/>
    </g>
  </g>
</svg>
