<svg xmlns="http://www.w3.org/2000/svg" xmlns:xlink="http://www.w3.org/1999/xlink" width="129" height="127" viewBox="0 0 129 127">
  <defs>
    <clipPath id="clip-path">
      <rect id="Rectangle_454807" data-name="Rectangle 454807" width="129" height="127" transform="translate(399.059 5904)" fill="#ffdc6b"/>
    </clipPath>
  </defs>
  <g id="img14" transform="translate(-399.059 -5904)">
    <rect id="Rectangle_454806" data-name="Rectangle 454806" width="129" height="127" transform="translate(399.059 5904)" fill="#ff9a1a"/>
    <path id="Rectangle_454808" data-name="Rectangle 454808" d="M0,0H79A12,12,0,0,1,91,12V91a0,0,0,0,1,0,0H12A12,12,0,0,1,0,79V0A0,0,0,0,1,0,0Z" transform="translate(418.059 5922)" fill="#fff"/>
    <g id="Group_1181235" data-name="Group 1181235" transform="translate(408.468 5934.454)">
      <path id="Path_1007908" data-name="Path 1007908" d="M214.186,189.881a4.453,4.453,0,0,1-3.9,0,.968.968,0,0,0-.91,1.709,6.782,6.782,0,0,0,2.955.687,5.806,5.806,0,0,0,2.767-.687.968.968,0,0,0-.913-1.707Z" transform="translate(-159.856 -165.269)" fill="#55534d"/>
      <path id="Path_1007909" data-name="Path 1007909" d="M177.332,126.88a.968.968,0,0,0,.968-.968v-1.849a.968.968,0,1,0-1.936,0v1.849A.968.968,0,0,0,177.332,126.88Z" transform="translate(-131.551 -107.204)" fill="#55534d"/>
      <path id="Path_1007910" data-name="Path 1007910" d="M279.59,126.88a.968.968,0,0,0,.968-.968v-1.849a.968.968,0,1,0-1.936,0v1.849A.968.968,0,0,0,279.59,126.88Z" transform="translate(-220.608 -107.204)" fill="#55534d"/>
      <path id="Path_1007911" data-name="Path 1007911" d="M79.45,54.4V48.912a9.093,9.093,0,0,0-9.083-9.083H59.984L58.126,37.05V34.573a7.127,7.127,0,0,0,6.69-7.046V24.284h1.895a2.37,2.37,0,0,0,2.367-2.367V17.979a2.369,2.369,0,0,0-2.269-2.363.969.969,0,0,0-.1-.005h-2.3c-.935-1.539-4-6.03-8.5-7.006a8.878,8.878,0,0,0-7.08,1.616c-1.118-.688-3.552-1.829-5.762-.448-2.071,1.294-2.777,4.313-3.007,5.838H38.7a16.188,16.188,0,0,1-.8-2.876c-.545-3.068.209-4.8.936-5.711A4.81,4.81,0,0,1,43.009,5.2a7.664,7.664,0,0,1,2.5.543.97.97,0,0,0,1.013-.135,18.944,18.944,0,0,1,5.6-2.93A12.754,12.754,0,0,1,63.908,4.288a7.522,7.522,0,0,1,3.331,7.78.968.968,0,1,0,1.915.287A9.461,9.461,0,0,0,65.019,2.7,14.793,14.793,0,0,0,51.461.855a21.183,21.183,0,0,0-5.7,2.9c-2.1-.739-5.939-1.073-8.438,2.057-2.606,3.265-1.3,8.1-.546,10.173a2.367,2.367,0,0,0-1.089,1.99v3.937a2.371,2.371,0,0,0,2.368,2.368h1.894v3.243a7.122,7.122,0,0,0,6.689,7.046v2.479l-1.857,2.777H34.4a9.093,9.093,0,0,0-9.083,9.083V65.124a.968.968,0,1,0,1.936,0V48.912A7.155,7.155,0,0,1,34.4,41.766h1.752V65.124a.968.968,0,1,0,1.936,0V53.929h3.578a.968.968,0,0,0,.968-.968v-11.2h2.34l3.493,2.64a2.3,2.3,0,0,0,3.281-.643l.638-1.071.638,1.071a2.271,2.271,0,0,0,3.281.643l3.493-2.64h2.339v7.441H60.414a3.153,3.153,0,0,0-3.127,2.786H46.2a.968.968,0,0,0,0,1.936H57.265V63.943a2.151,2.151,0,0,0,2.149,2.149H82.72a2.151,2.151,0,0,0,2.149-2.149V60.169c0-2.5-2.468-4.959-5.419-5.765ZM40.694,51.993H38.085V41.766h2.609Zm36.819-3.08V54.13h-.057c-3.53,0-7.107-1.413-8.843-3.464v-8.9h1.753A7.154,7.154,0,0,1,77.513,48.912ZM52.381,39.6,48.572,36.85V34.584H56.19V36.85Zm-5.722-6.969a4.514,4.514,0,0,1-2.513-.861l.873-5.281A4.025,4.025,0,0,1,49,23.112h6.756a4.025,4.025,0,0,1,3.985,3.381l.873,5.281a4.533,4.533,0,0,1-2.859.874H47C46.889,32.647,46.774,32.642,46.659,32.634ZM67.142,17.979v3.938a.431.431,0,0,1-.431.431H64.816v-4.8H66.71a.433.433,0,0,1,.432.432ZM38.053,22.348a.432.432,0,0,1-.432-.432V17.979a.433.433,0,0,1,.432-.432h1.894v4.8Zm3.83,5.179V16.613c.078-1.136.618-4.208,2.2-5.2,1.762-1.1,4.129.729,4.151.746a.968.968,0,0,0,1.189.012A7.279,7.279,0,0,1,55.485,10.5c3.972.857,6.8,5.332,7.395,6.339V27.527a5.108,5.108,0,0,1-.6,2.413l-.622-3.763a5.955,5.955,0,0,0-5.9-5H49a5.955,5.955,0,0,0-5.9,5l-.622,3.763A5.108,5.108,0,0,1,41.883,27.527Zm8.2,15.246a.307.307,0,0,1-.449.088l-3.022-2.284,1.243-1.858L51.1,41.064Zm5.052.088a.307.307,0,0,1-.449-.088l-1.017-1.709,3.246-2.346,1.243,1.858Zm8.936-1.095h2.609V49.3a3.148,3.148,0,0,0-.744-.09H64.068ZM59.2,52.355a1.213,1.213,0,0,1,1.212-1.212h5.519a1.2,1.2,0,0,1,.952.462l.011.014,0,0a9.069,9.069,0,0,0,1.925,1.829L67.55,55.094a.968.968,0,1,0,1.53,1.188L70.5,54.455a14.56,14.56,0,0,0,1.824.76L71.261,56.5a.968.968,0,0,0,1.494,1.232l1.625-1.97a16.02,16.02,0,0,0,3.077.3c2.391,0,5.476,1.99,5.476,4.1v.323H59.2Zm0,11.588V62.428H64.35v1.728H59.415A.213.213,0,0,1,59.2,63.943Zm23.731,0a.213.213,0,0,1-.213.213H66.286V62.428H82.933v1.515Z" transform="translate(0 0)" fill="#55534d"/>
      <circle id="Ellipse_13904" data-name="Ellipse 13904" cx="0.968" cy="0.968" r="0.968" transform="translate(51.413 46.674)" fill="#55534d"/>
    </g>
  </g>
</svg>
