<svg xmlns="http://www.w3.org/2000/svg" width="80" height="80" viewBox="0 0 80 80">
  <g id="img26" transform="translate(-213.711 -4770)">
    <rect id="Rectangle_455586" data-name="Rectangle 455586" width="80" height="80" transform="translate(213.711 4770)" fill="#ff9a1a"/>
    <g id="Group_1181322" data-name="Group 1181322" transform="translate(227.711 4772.877)">
      <g id="Group_1181284" data-name="Group 1181284" transform="translate(0.753 13.876)">
        <g id="Group_1181283" data-name="Group 1181283" transform="translate(0 0)">
          <path id="Path_1007956" data-name="Path 1007956" d="M74.356,191.56l-3.2,3.028a5.548,5.548,0,0,1-2.32-2.771l3.56-3.372Z" transform="translate(-62.677 -171.59)" fill="#17998c"/>
          <g id="Group_1181280" data-name="Group 1181280">
            <g id="Group_1181278" data-name="Group 1181278" transform="translate(0 1.554)">
              <path id="Path_1007957" data-name="Path 1007957" d="M9.3,63.181a1.8,1.8,0,0,1-1.241-3.115L17.221,51.4a1.8,1.8,0,0,1,1.24-.494H38.488L52.766,36.624a1.8,1.8,0,1,1,2.552,2.552L40.511,53.983a1.8,1.8,0,0,1-1.276.528H19.18l-8.635,8.175a1.8,1.8,0,0,1-1.24.494Z" transform="translate(-7.5 -36.096)" fill="#20b69f"/>
            </g>
            <path id="Path_1007958" data-name="Path 1007958" d="M430.654,39.176,427.3,42.531a3.857,3.857,0,0,1-.219-1.283V40.213h-1.035a3.824,3.824,0,0,1-1.3-.227l3.361-3.361a1.8,1.8,0,1,1,2.552,2.551Z" transform="translate(-382.836 -34.542)" fill="#17998c"/>
            <g id="Group_1181279" data-name="Group 1181279" transform="translate(41.405)">
              <path id="Path_1007959" data-name="Path 1007959" d="M426.47,29.132a1.8,1.8,0,0,1-1.8-1.8v-3.1h-3.1a1.8,1.8,0,0,1,0-3.609h4.9a1.8,1.8,0,0,1,1.8,1.8v4.9a1.8,1.8,0,0,1-1.8,1.8Z" transform="translate(-419.764 -20.622)" fill="#23f1a8"/>
            </g>
          </g>
          <g id="Group_1181281" data-name="Group 1181281" transform="translate(7.862 14.805)">
            <circle id="Ellipse_13909" data-name="Ellipse 13909" cx="3.46" cy="3.46" r="3.46" fill="#23f1a8"/>
            <path id="Path_1007960" data-name="Path 1007960" d="M106.724,171.494a3.46,3.46,0,0,1-5.353,2.9,2.9,2.9,0,0,0,0-5.791,3.461,3.461,0,0,1,5.354,2.9Z" transform="translate(-99.804 -168.035)" fill="#26d192"/>
          </g>
          <g id="Group_1181282" data-name="Group 1181282" transform="translate(28.381 14.303)">
            <circle id="Ellipse_13910" data-name="Ellipse 13910" cx="3.46" cy="3.46" r="3.46" fill="#23f1a8"/>
            <path id="Path_1007961" data-name="Path 1007961" d="M311.029,166.494a3.46,3.46,0,0,1-5.353,2.9,2.9,2.9,0,0,0,0-5.791,3.461,3.461,0,0,1,5.354,2.9Z" transform="translate(-304.109 -163.035)" fill="#26d192"/>
          </g>
        </g>
      </g>
      <g id="Group_1181321" data-name="Group 1181321" transform="translate(0 13.123)">
        <g id="Group_1181289" data-name="Group 1181289" transform="translate(0.753 33.242)">
          <g id="Group_1181285" data-name="Group 1181285" transform="translate(0 11.093)">
            <path id="Path_1007962" data-name="Path 1007962" d="M16.65,458.26H8.422a.922.922,0,0,1-.922-.922v-1.853a.922.922,0,0,1,.922-.922H16.65a.922.922,0,0,1,.922.922v1.853A.922.922,0,0,1,16.65,458.26Z" transform="translate(-7.5 -454.563)" fill="#ffd496"/>
            <path id="Path_1007963" data-name="Path 1007963" d="M73.713,455.487v1.853a.923.923,0,0,1-.922.922H69.908a.923.923,0,0,0,.922-.922v-1.853a.923.923,0,0,0-.922-.922H72.79A.923.923,0,0,1,73.713,455.487Z" transform="translate(-63.64 -454.565)" fill="#fcc16d"/>
          </g>
          <g id="Group_1181286" data-name="Group 1181286" transform="translate(0 7.395)">
            <path id="Path_1007964" data-name="Path 1007964" d="M16.65,421.443H8.422a.922.922,0,0,1-.922-.922v-1.853a.922.922,0,0,1,.922-.922H16.65a.922.922,0,0,1,.922.922v1.853A.922.922,0,0,1,16.65,421.443Z" transform="translate(-7.5 -417.746)" fill="#fca62f"/>
            <path id="Path_1007965" data-name="Path 1007965" d="M73.713,418.67v1.853a.923.923,0,0,1-.922.922H69.908a.923.923,0,0,0,.922-.922V418.67a.923.923,0,0,0-.922-.922H72.79A.923.923,0,0,1,73.713,418.67Z" transform="translate(-63.64 -417.748)" fill="#f98824"/>
          </g>
          <g id="Group_1181287" data-name="Group 1181287" transform="translate(0 3.698)">
            <path id="Path_1007966" data-name="Path 1007966" d="M16.65,384.626H8.422A.922.922,0,0,1,7.5,383.7v-1.853a.922.922,0,0,1,.922-.922H16.65a.922.922,0,0,1,.922.922V383.7A.922.922,0,0,1,16.65,384.626Z" transform="translate(-7.5 -380.929)" fill="#ffd496"/>
            <path id="Path_1007967" data-name="Path 1007967" d="M73.713,381.853v1.853a.923.923,0,0,1-.922.922H69.908a.923.923,0,0,0,.922-.922v-1.853a.923.923,0,0,0-.922-.922H72.79A.923.923,0,0,1,73.713,381.853Z" transform="translate(-63.64 -380.931)" fill="#fcc16d"/>
          </g>
          <g id="Group_1181288" data-name="Group 1181288">
            <path id="Path_1007968" data-name="Path 1007968" d="M16.65,347.81H8.422a.922.922,0,0,1-.922-.922v-1.853a.922.922,0,0,1,.922-.922H16.65a.922.922,0,0,1,.922.922v1.853A.922.922,0,0,1,16.65,347.81Z" transform="translate(-7.5 -344.113)" fill="#fca62f"/>
            <path id="Path_1007969" data-name="Path 1007969" d="M73.713,345.037v1.853a.923.923,0,0,1-.922.922H69.908a.923.923,0,0,0,.922-.922v-1.853a.923.923,0,0,0-.922-.922H72.79A.923.923,0,0,1,73.713,345.037Z" transform="translate(-63.64 -344.115)" fill="#f98824"/>
          </g>
        </g>
        <g id="Group_1181293" data-name="Group 1181293" transform="translate(14.034 36.94)">
          <g id="Group_1181290" data-name="Group 1181290" transform="translate(0 7.395)">
            <path id="Path_1007970" data-name="Path 1007970" d="M148.887,458.26h-8.228a.922.922,0,0,1-.922-.922v-1.853a.922.922,0,0,1,.922-.922h8.228a.922.922,0,0,1,.922.922v1.853A.922.922,0,0,1,148.887,458.26Z" transform="translate(-139.737 -454.563)" fill="#fca62f"/>
            <path id="Path_1007971" data-name="Path 1007971" d="M205.95,455.487v1.853a.923.923,0,0,1-.922.922h-2.882a.923.923,0,0,0,.922-.922v-1.853a.923.923,0,0,0-.922-.922h2.882A.923.923,0,0,1,205.95,455.487Z" transform="translate(-195.878 -454.565)" fill="#f98824"/>
          </g>
          <g id="Group_1181291" data-name="Group 1181291" transform="translate(0 3.698)">
            <path id="Path_1007972" data-name="Path 1007972" d="M148.887,421.443h-8.228a.922.922,0,0,1-.922-.922v-1.853a.922.922,0,0,1,.922-.922h8.228a.922.922,0,0,1,.922.922v1.853A.922.922,0,0,1,148.887,421.443Z" transform="translate(-139.737 -417.746)" fill="#ffd496"/>
            <path id="Path_1007973" data-name="Path 1007973" d="M205.95,418.67v1.853a.923.923,0,0,1-.922.922h-2.882a.923.923,0,0,0,.922-.922V418.67a.923.923,0,0,0-.922-.922h2.882A.923.923,0,0,1,205.95,418.67Z" transform="translate(-195.878 -417.748)" fill="#fcc16d"/>
          </g>
          <g id="Group_1181292" data-name="Group 1181292">
            <path id="Path_1007974" data-name="Path 1007974" d="M148.887,384.626h-8.228a.922.922,0,0,1-.922-.922v-1.853a.922.922,0,0,1,.922-.922h8.228a.922.922,0,0,1,.922.922V383.7A.922.922,0,0,1,148.887,384.626Z" transform="translate(-139.737 -380.929)" fill="#fca62f"/>
            <path id="Path_1007975" data-name="Path 1007975" d="M205.95,381.853v1.853a.923.923,0,0,1-.922.922h-2.882a.923.923,0,0,0,.922-.922v-1.853a.923.923,0,0,0-.922-.922h2.882A.923.923,0,0,1,205.95,381.853Z" transform="translate(-195.878 -380.931)" fill="#f98824"/>
          </g>
        </g>
        <g id="Group_1181297" data-name="Group 1181297" transform="translate(27.315 36.94)">
          <g id="Group_1181294" data-name="Group 1181294" transform="translate(0 7.395)">
            <path id="Path_1007976" data-name="Path 1007976" d="M281.124,458.26H272.9a.922.922,0,0,1-.922-.922v-1.853a.922.922,0,0,1,.922-.922h8.228a.922.922,0,0,1,.922.922v1.853A.922.922,0,0,1,281.124,458.26Z" transform="translate(-271.974 -454.563)" fill="#ffd496"/>
            <path id="Path_1007977" data-name="Path 1007977" d="M338.187,455.487v1.853a.923.923,0,0,1-.922.922h-2.882a.923.923,0,0,0,.922-.922v-1.853a.923.923,0,0,0-.922-.922h2.882A.923.923,0,0,1,338.187,455.487Z" transform="translate(-328.115 -454.565)" fill="#fcc16d"/>
          </g>
          <g id="Group_1181295" data-name="Group 1181295" transform="translate(0 3.698)">
            <path id="Path_1007978" data-name="Path 1007978" d="M281.124,421.443H272.9a.922.922,0,0,1-.922-.922v-1.853a.922.922,0,0,1,.922-.922h8.228a.922.922,0,0,1,.922.922v1.853A.922.922,0,0,1,281.124,421.443Z" transform="translate(-271.974 -417.746)" fill="#fca62f"/>
            <path id="Path_1007979" data-name="Path 1007979" d="M338.187,418.67v1.853a.923.923,0,0,1-.922.922h-2.882a.923.923,0,0,0,.922-.922V418.67a.923.923,0,0,0-.922-.922h2.882A.923.923,0,0,1,338.187,418.67Z" transform="translate(-328.115 -417.748)" fill="#f98824"/>
          </g>
          <g id="Group_1181296" data-name="Group 1181296">
            <path id="Path_1007980" data-name="Path 1007980" d="M281.124,384.626H272.9a.922.922,0,0,1-.922-.922v-1.853a.922.922,0,0,1,.922-.922h8.228a.922.922,0,0,1,.922.922V383.7A.922.922,0,0,1,281.124,384.626Z" transform="translate(-271.974 -380.929)" fill="#ffd496"/>
            <path id="Path_1007981" data-name="Path 1007981" d="M338.187,381.853v1.853a.923.923,0,0,1-.922.922h-2.882a.923.923,0,0,0,.922-.922v-1.853a.923.923,0,0,0-.922-.922h2.882A.923.923,0,0,1,338.187,381.853Z" transform="translate(-328.115 -380.931)" fill="#fcc16d"/>
          </g>
        </g>
        <g id="Group_1181301" data-name="Group 1181301" transform="translate(40.596 36.94)">
          <g id="Group_1181298" data-name="Group 1181298" transform="translate(0 7.395)">
            <path id="Path_1007982" data-name="Path 1007982" d="M413.361,458.26h-8.228a.922.922,0,0,1-.922-.922v-1.853a.922.922,0,0,1,.922-.922h8.228a.922.922,0,0,1,.922.922v1.853A.922.922,0,0,1,413.361,458.26Z" transform="translate(-404.211 -454.563)" fill="#fca62f"/>
            <path id="Path_1007983" data-name="Path 1007983" d="M470.424,455.487v1.853a.923.923,0,0,1-.922.922H466.62a.923.923,0,0,0,.922-.922v-1.853a.923.923,0,0,0-.922-.922H469.5A.923.923,0,0,1,470.424,455.487Z" transform="translate(-460.352 -454.565)" fill="#f98824"/>
          </g>
          <g id="Group_1181299" data-name="Group 1181299" transform="translate(0 3.698)">
            <path id="Path_1007984" data-name="Path 1007984" d="M413.361,421.443h-8.228a.922.922,0,0,1-.922-.922v-1.853a.922.922,0,0,1,.922-.922h8.228a.922.922,0,0,1,.922.922v1.853A.922.922,0,0,1,413.361,421.443Z" transform="translate(-404.211 -417.746)" fill="#ffd496"/>
            <path id="Path_1007985" data-name="Path 1007985" d="M470.424,418.67v1.853a.923.923,0,0,1-.922.922H466.62a.923.923,0,0,0,.922-.922V418.67a.923.923,0,0,0-.922-.922H469.5A.923.923,0,0,1,470.424,418.67Z" transform="translate(-460.352 -417.748)" fill="#fcc16d"/>
          </g>
          <g id="Group_1181300" data-name="Group 1181300">
            <path id="Path_1007986" data-name="Path 1007986" d="M413.361,384.626h-8.228a.922.922,0,0,1-.922-.922v-1.853a.922.922,0,0,1,.922-.922h8.228a.922.922,0,0,1,.922.922V383.7A.922.922,0,0,1,413.361,384.626Z" transform="translate(-404.211 -380.929)" fill="#fca62f"/>
            <path id="Path_1007987" data-name="Path 1007987" d="M470.424,381.853v1.853a.923.923,0,0,1-.922.922H466.62a.923.923,0,0,0,.922-.922v-1.853a.923.923,0,0,0-.922-.922H469.5A.923.923,0,0,1,470.424,381.853Z" transform="translate(-460.352 -380.931)" fill="#f98824"/>
          </g>
        </g>
        <g id="Group_1181303" data-name="Group 1181303" transform="translate(14.034 33.242)">
          <g id="Group_1181302" data-name="Group 1181302">
            <path id="Path_1007988" data-name="Path 1007988" d="M148.887,347.809h-8.228a.922.922,0,0,1-.922-.922v-1.853a.922.922,0,0,1,.922-.922h8.228a.922.922,0,0,1,.922.922v1.853A.922.922,0,0,1,148.887,347.809Z" transform="translate(-139.737 -344.112)" fill="#ffd496"/>
            <path id="Path_1007989" data-name="Path 1007989" d="M205.95,345.036v1.853a.923.923,0,0,1-.922.922h-2.882a.923.923,0,0,0,.922-.922v-1.853a.923.923,0,0,0-.922-.922h2.882A.923.923,0,0,1,205.95,345.036Z" transform="translate(-195.878 -344.114)" fill="#fcc16d"/>
          </g>
        </g>
        <g id="Group_1181305" data-name="Group 1181305" transform="translate(14.034 29.544)">
          <g id="Group_1181304" data-name="Group 1181304">
            <path id="Path_1007990" data-name="Path 1007990" d="M148.887,310.99h-8.228a.922.922,0,0,1-.922-.922v-1.853a.922.922,0,0,1,.922-.922h8.228a.922.922,0,0,1,.922.922v1.853A.922.922,0,0,1,148.887,310.99Z" transform="translate(-139.737 -307.293)" fill="#fca62f"/>
            <path id="Path_1007991" data-name="Path 1007991" d="M205.95,308.218v1.853a.923.923,0,0,1-.922.922h-2.882a.923.923,0,0,0,.922-.922v-1.853a.923.923,0,0,0-.922-.922h2.882A.922.922,0,0,1,205.95,308.218Z" transform="translate(-195.878 -307.296)" fill="#f98824"/>
          </g>
        </g>
        <g id="Group_1181308" data-name="Group 1181308" transform="translate(27.315 29.545)">
          <g id="Group_1181306" data-name="Group 1181306" transform="translate(0 3.698)">
            <path id="Path_1007992" data-name="Path 1007992" d="M281.124,347.809H272.9a.922.922,0,0,1-.922-.922v-1.853a.922.922,0,0,1,.922-.922h8.228a.922.922,0,0,1,.922.922v1.853A.922.922,0,0,1,281.124,347.809Z" transform="translate(-271.974 -344.112)" fill="#fca62f"/>
            <path id="Path_1007993" data-name="Path 1007993" d="M338.187,345.036v1.853a.923.923,0,0,1-.922.922h-2.882a.923.923,0,0,0,.922-.922v-1.853a.923.923,0,0,0-.922-.922h2.882A.923.923,0,0,1,338.187,345.036Z" transform="translate(-328.115 -344.114)" fill="#f98824"/>
          </g>
          <g id="Group_1181307" data-name="Group 1181307">
            <path id="Path_1007994" data-name="Path 1007994" d="M281.124,310.992H272.9a.922.922,0,0,1-.922-.922v-1.853a.922.922,0,0,1,.922-.922h8.228a.922.922,0,0,1,.922.922v1.853A.922.922,0,0,1,281.124,310.992Z" transform="translate(-271.974 -307.295)" fill="#ffd496"/>
            <path id="Path_1007995" data-name="Path 1007995" d="M338.187,308.219v1.853a.923.923,0,0,1-.922.922h-2.882a.923.923,0,0,0,.922-.922v-1.853a.923.923,0,0,0-.922-.922h2.882A.923.923,0,0,1,338.187,308.219Z" transform="translate(-328.115 -307.297)" fill="#fcc16d"/>
          </g>
        </g>
        <g id="Group_1181310" data-name="Group 1181310" transform="translate(14.034 25.847)">
          <g id="Group_1181309" data-name="Group 1181309">
            <path id="Path_1007996" data-name="Path 1007996" d="M148.887,274.173h-8.228a.922.922,0,0,1-.922-.922V271.4a.922.922,0,0,1,.922-.922h8.228a.922.922,0,0,1,.922.922v1.853A.922.922,0,0,1,148.887,274.173Z" transform="translate(-139.737 -270.476)" fill="#ffd496"/>
            <path id="Path_1007997" data-name="Path 1007997" d="M205.95,271.4v1.853a.923.923,0,0,1-.922.922h-2.882a.923.923,0,0,0,.922-.922V271.4a.923.923,0,0,0-.922-.922h2.882A.923.923,0,0,1,205.95,271.4Z" transform="translate(-195.878 -270.478)" fill="#fcc16d"/>
          </g>
        </g>
        <g id="Group_1181312" data-name="Group 1181312" transform="translate(27.315 25.847)">
          <g id="Group_1181311" data-name="Group 1181311">
            <path id="Path_1007998" data-name="Path 1007998" d="M281.124,274.174H272.9a.922.922,0,0,1-.922-.922V271.4a.922.922,0,0,1,.922-.922h8.228a.922.922,0,0,1,.922.922v1.853A.922.922,0,0,1,281.124,274.174Z" transform="translate(-271.974 -270.477)" fill="#fca62f"/>
            <path id="Path_1007999" data-name="Path 1007999" d="M338.187,271.4v1.853a.923.923,0,0,1-.922.922h-2.882a.923.923,0,0,0,.922-.922V271.4a.923.923,0,0,0-.922-.922h2.882A.923.923,0,0,1,338.187,271.4Z" transform="translate(-328.115 -270.479)" fill="#f98824"/>
          </g>
        </g>
        <g id="Group_1181316" data-name="Group 1181316" transform="translate(40.596 25.847)">
          <g id="Group_1181313" data-name="Group 1181313" transform="translate(0 7.395)">
            <path id="Path_1008000" data-name="Path 1008000" d="M413.361,347.809h-8.228a.922.922,0,0,1-.922-.922v-1.853a.922.922,0,0,1,.922-.922h8.228a.922.922,0,0,1,.922.922v1.853A.922.922,0,0,1,413.361,347.809Z" transform="translate(-404.211 -344.112)" fill="#ffd496"/>
            <path id="Path_1008001" data-name="Path 1008001" d="M470.424,345.036v1.853a.923.923,0,0,1-.922.922H466.62a.923.923,0,0,0,.922-.922v-1.853a.923.923,0,0,0-.922-.922H469.5A.923.923,0,0,1,470.424,345.036Z" transform="translate(-460.352 -344.114)" fill="#fcc16d"/>
          </g>
          <g id="Group_1181314" data-name="Group 1181314" transform="translate(0 3.698)">
            <path id="Path_1008002" data-name="Path 1008002" d="M413.361,310.992h-8.228a.922.922,0,0,1-.922-.922v-1.853a.922.922,0,0,1,.922-.922h8.228a.922.922,0,0,1,.922.922v1.853A.922.922,0,0,1,413.361,310.992Z" transform="translate(-404.211 -307.295)" fill="#fca62f"/>
            <path id="Path_1008003" data-name="Path 1008003" d="M470.424,308.219v1.853a.923.923,0,0,1-.922.922H466.62a.923.923,0,0,0,.922-.922v-1.853a.923.923,0,0,0-.922-.922H469.5A.923.923,0,0,1,470.424,308.219Z" transform="translate(-460.352 -307.297)" fill="#f98824"/>
          </g>
          <g id="Group_1181315" data-name="Group 1181315">
            <path id="Path_1008004" data-name="Path 1008004" d="M413.361,274.175h-8.228a.922.922,0,0,1-.922-.922V271.4a.922.922,0,0,1,.922-.922h8.228a.922.922,0,0,1,.922.922v1.853A.922.922,0,0,1,413.361,274.175Z" transform="translate(-404.211 -270.478)" fill="#ffd496"/>
            <path id="Path_1008005" data-name="Path 1008005" d="M470.424,271.4v1.853a.923.923,0,0,1-.922.922H466.62a.923.923,0,0,0,.922-.922V271.4a.923.923,0,0,0-.922-.922H469.5A.923.923,0,0,1,470.424,271.4Z" transform="translate(-460.352 -270.48)" fill="#fcc16d"/>
          </g>
        </g>
        <g id="Group_1181320" data-name="Group 1181320" transform="translate(0 0)">
          <g id="Group_1181317" data-name="Group 1181317" transform="translate(40.596 22.15)">
            <path id="Path_1008006" data-name="Path 1008006" d="M413.361,237.36h-8.228a.922.922,0,0,1-.922-.922v-1.853a.922.922,0,0,1,.922-.922h8.228a.922.922,0,0,1,.922.922v1.853A.922.922,0,0,1,413.361,237.36Z" transform="translate(-404.211 -233.663)" fill="#fca62f"/>
            <path id="Path_1008007" data-name="Path 1008007" d="M470.424,234.587v1.853a.923.923,0,0,1-.922.922H466.62a.923.923,0,0,0,.922-.922v-1.853a.923.923,0,0,0-.922-.922H469.5a.923.923,0,0,1,.922.922Z" transform="translate(-460.352 -233.665)" fill="#f98824"/>
          </g>
          <g id="Group_1181319" data-name="Group 1181319">
            <path id="Path_1008008" data-name="Path 1008008" d="M413.361,200.543h-8.228a.922.922,0,0,1-.922-.922v-1.853a.922.922,0,0,1,.922-.922h8.228a.922.922,0,0,1,.922.922v1.853A.922.922,0,0,1,413.361,200.543Z" transform="translate(-363.615 -178.394)" fill="#ffd496"/>
            <path id="Path_1008009" data-name="Path 1008009" d="M470.424,197.77v1.853a.923.923,0,0,1-.922.922H466.62a.923.923,0,0,0,.922-.922V197.77a.923.923,0,0,0-.922-.922H469.5A.923.923,0,0,1,470.424,197.77Z" transform="translate(-419.756 -178.396)" fill="#fcc16d"/>
            <g id="Group_1181318" data-name="Group 1181318">
              <path id="Path_1008010" data-name="Path 1008010" d="M7.874,32.141.811,38.853a2.558,2.558,0,0,0,3.518,3.714l6.7-6.347A4.211,4.211,0,0,0,15.507,34.6h14.1a4.211,4.211,0,0,0,7.209-2.96c0-.1,0-.194-.011-.289l4.382-4.382A.753.753,0,1,0,40.125,25.9L36.34,29.689a4.243,4.243,0,0,0-1.41-1.562l9.888-9.888h1.5v1.471l-3.705,3.706A.753.753,0,0,0,43.68,24.48l2.86-2.861a2.557,2.557,0,0,0,4.895-1.037v-4.9a2.561,2.561,0,0,0-2.558-2.558h-4.9a2.557,2.557,0,0,0-1.058,4.885l-9.5,9.5a4.208,4.208,0,0,0-4.432,1.978H15.354a4.211,4.211,0,0,0-7.48,2.658ZM3.294,41.473a1.051,1.051,0,1,1-1.446-1.526l6.406-6.064a4.239,4.239,0,0,0,1.325,1.64Zm8.794-6.625a2.707,2.707,0,1,1,2.707-2.707,2.71,2.71,0,0,1-2.707,2.707Zm4.1-1.756a4.186,4.186,0,0,0-.052-2.1h12.3a4.218,4.218,0,0,0,.208,2.1Zm16.415,1.254a2.707,2.707,0,1,1,2.707-2.707A2.71,2.71,0,0,1,32.607,34.346ZM49.928,20.582a1.051,1.051,0,0,1-2.1,0v-3.1a.753.753,0,0,0-.753-.753h-3.1a1.051,1.051,0,0,1,0-2.1h4.9a1.052,1.052,0,0,1,1.051,1.051Z" transform="translate(-0.013 -13.123)"/>
              <path id="Path_1008011" data-name="Path 1008011" d="M9.9,336.613H1.676A1.677,1.677,0,0,0,0,338.289v1.853a1.668,1.668,0,0,1,0,1.845v1.853a1.668,1.668,0,0,1,0,1.845v1.853a1.668,1.668,0,0,1,0,1.845v1.853a1.677,1.677,0,0,0,1.676,1.676H9.9a1.677,1.677,0,0,0,1.676-1.676v-1.853a1.669,1.669,0,0,1,0-1.845v-1.853a1.669,1.669,0,0,1,0-1.845v-1.853a1.668,1.668,0,0,1,0-1.845v-1.853A1.677,1.677,0,0,0,9.9,336.613Zm-8.4,1.676a.169.169,0,0,1,.169-.169H9.9a.169.169,0,0,1,.169.169v1.853a.169.169,0,0,1-.169.169H1.676a.169.169,0,0,1-.169-.169Zm8.566,9.248a.169.169,0,0,1-.169.169H1.676a.169.169,0,0,1-.169-.169v-1.853a.169.169,0,0,1,.169-.169H9.9a.169.169,0,0,1,.169.169Zm0-3.7a.169.169,0,0,1-.169.169H1.676a.169.169,0,0,1-.169-.169v-1.853a.169.169,0,0,1,.169-.169H9.9a.169.169,0,0,1,.169.169v1.853Zm0,7.4a.169.169,0,0,1-.169.169H1.676a.169.169,0,0,1-.169-.169v-1.853a.169.169,0,0,1,.169-.169H9.9a.169.169,0,0,1,.169.169Z" transform="translate(0 -304.124)"/>
              <path id="Path_1008012" data-name="Path 1008012" d="M142.14,262.976h-8.227a1.678,1.678,0,0,0-1.676,1.676V266.5a1.669,1.669,0,0,1,0,1.845V270.2a1.668,1.668,0,0,1,0,1.845V273.9a1.669,1.669,0,0,1,0,1.845V277.6a1.668,1.668,0,0,1,0,1.845V281.3a1.668,1.668,0,0,1,0,1.845v1.853a1.677,1.677,0,0,0,1.676,1.676h8.227a1.678,1.678,0,0,0,1.676-1.676V283.14a1.668,1.668,0,0,1,0-1.845v-1.853a1.668,1.668,0,0,1,0-1.845v-1.853a1.668,1.668,0,0,1,0-1.845v-1.853a1.668,1.668,0,0,1,0-1.845v-1.853a1.668,1.668,0,0,1,0-1.845v-1.853A1.678,1.678,0,0,0,142.14,262.976Zm-8.4,1.676a.169.169,0,0,1,.169-.169h8.227a.169.169,0,0,1,.169.169V266.5a.169.169,0,0,1-.169.169h-8.227a.169.169,0,0,1-.169-.169Zm8.566,12.946a.169.169,0,0,1-.169.169h-3.326a.753.753,0,1,0,0,1.507h3.326a.169.169,0,0,1,.169.169V281.3a.169.169,0,0,1-.169.169h-8.228a.169.169,0,0,1-.169-.169v-1.853a.169.169,0,0,1,.169-.169h1.382a.753.753,0,1,0,0-1.507h-1.382a.169.169,0,0,1-.169-.169v-1.853a.169.169,0,0,1,.169-.169h8.228a.169.169,0,0,1,.169.169V277.6Zm0-3.7a.169.169,0,0,1-.169.169h-8.228a.169.169,0,0,1-.169-.169v-1.853a.169.169,0,0,1,.169-.169h8.228a.169.169,0,0,1,.169.169Zm0-3.7a.169.169,0,0,1-.169.169h-8.228a.169.169,0,0,1-.169-.169v-1.853a.169.169,0,0,1,.169-.169h8.228a.169.169,0,0,1,.169.169Zm0,14.791a.169.169,0,0,1-.169.169h-8.228a.169.169,0,0,1-.169-.169V283.14a.169.169,0,0,1,.169-.169h8.228a.169.169,0,0,1,.169.169Z" transform="translate(-118.956 -237.882)"/>
              <path id="Path_1008013" data-name="Path 1008013" d="M274.376,262.977h-8.228a1.678,1.678,0,0,0-1.676,1.676v1.853a1.669,1.669,0,0,1,0,1.845V270.2a1.669,1.669,0,0,1,0,1.845V273.9a1.669,1.669,0,0,1,0,1.845V277.6a1.669,1.669,0,0,1,0,1.845V281.3a1.669,1.669,0,0,1,0,1.845v1.853a1.677,1.677,0,0,0,1.676,1.676h8.228a1.678,1.678,0,0,0,1.676-1.676v-1.853a1.669,1.669,0,0,1,0-1.845v-1.853a1.669,1.669,0,0,1,0-1.845v-1.853a1.669,1.669,0,0,1,0-1.845v-1.853a1.669,1.669,0,0,1,0-1.845V268.35a1.669,1.669,0,0,1,0-1.845v-1.853A1.678,1.678,0,0,0,274.376,262.977Zm-8.4,1.676a.169.169,0,0,1,.169-.169h8.228a.169.169,0,0,1,.169.169v1.853a.169.169,0,0,1-.169.169h-8.228a.169.169,0,0,1-.169-.169Zm8.566,16.644a.169.169,0,0,1-.169.169h-8.228a.169.169,0,0,1-.169-.169v-1.853a.169.169,0,0,1,.169-.169h8.228a.169.169,0,0,1,.169.169Zm0-3.7a.169.169,0,0,1-.169.169h-8.228a.169.169,0,0,1-.169-.169v-1.853a.169.169,0,0,1,.169-.169h8.228a.169.169,0,0,1,.169.169Zm0-3.7a.169.169,0,0,1-.169.169h-8.228a.169.169,0,0,1-.169-.169v-1.853a.169.169,0,0,1,.169-.169h8.228a.169.169,0,0,1,.169.169Zm0-3.7a.169.169,0,0,1-.169.169h-8.228a.169.169,0,0,1-.169-.169V268.35a.169.169,0,0,1,.169-.169h8.228a.169.169,0,0,1,.169.169V270.2Zm0,14.791a.169.169,0,0,1-.169.169h-8.228a.169.169,0,0,1-.169-.169v-1.853a.169.169,0,0,1,.169-.169h8.228a.169.169,0,0,1,.169.169Z" transform="translate(-237.911 -237.883)"/>
              <path id="Path_1008014" data-name="Path 1008014" d="M406.613,189.346h-2.007a.753.753,0,1,0,0,1.507h2.007a.169.169,0,0,1,.169.169v1.853a.169.169,0,0,1-.169.169h-8.228a.169.169,0,0,1-.169-.169v-1.853a.169.169,0,0,1,.169-.169h2.7a.753.753,0,1,0,0-1.507h-2.7a1.678,1.678,0,0,0-1.676,1.676v1.853a1.669,1.669,0,0,1,0,1.845v1.853a1.668,1.668,0,0,1,0,1.845v1.853a1.669,1.669,0,0,1,0,1.845v1.853a1.669,1.669,0,0,1,0,1.845v1.853a1.669,1.669,0,0,1,0,1.845v1.853a1.669,1.669,0,0,1,0,1.845v1.853a1.669,1.669,0,0,1,0,1.845v1.853a1.677,1.677,0,0,0,1.676,1.676h8.228a1.677,1.677,0,0,0,1.676-1.676v-1.853a1.669,1.669,0,0,1,0-1.845v-1.853a1.669,1.669,0,0,1,0-1.845V209.51a1.669,1.669,0,0,1,0-1.845v-1.853a1.669,1.669,0,0,1,0-1.845v-1.853a1.669,1.669,0,0,1,0-1.845v-1.853a1.669,1.669,0,0,1,0-1.845v-1.853a1.669,1.669,0,0,1,0-1.845v-1.853A1.677,1.677,0,0,0,406.613,189.346Zm.169,25.714a.169.169,0,0,1-.169.169h-8.228a.169.169,0,0,1-.169-.169v-1.853a.169.169,0,0,1,.169-.169h8.228a.169.169,0,0,1,.169.169Zm0-3.7a.169.169,0,0,1-.169.169h-8.228a.169.169,0,0,1-.169-.169V209.51a.169.169,0,0,1,.169-.169h8.228a.169.169,0,0,1,.169.169Zm0-3.7a.169.169,0,0,1-.169.169h-8.228a.169.169,0,0,1-.169-.169v-1.853a.169.169,0,0,1,.169-.169h8.228a.169.169,0,0,1,.169.169Zm0-3.7a.169.169,0,0,1-.169.169h-8.228a.169.169,0,0,1-.169-.169v-1.853a.169.169,0,0,1,.169-.169h8.228a.169.169,0,0,1,.169.169Zm0-3.7a.169.169,0,0,1-.169.169h-8.228a.169.169,0,0,1-.169-.169v-1.853a.169.169,0,0,1,.169-.169h8.228a.169.169,0,0,1,.169.169Zm0-3.7a.169.169,0,0,1-.169.169h-8.228a.169.169,0,0,1-.169-.169v-1.853a.169.169,0,0,1,.169-.169h8.228a.169.169,0,0,1,.169.169Zm0,22.186a.169.169,0,0,1-.169.169h-8.228a.169.169,0,0,1-.169-.169V216.9a.169.169,0,0,1,.169-.169h8.228a.169.169,0,0,1,.169.169Z" transform="translate(-356.867 -171.647)"/>
            </g>
          </g>
        </g>
      </g>
    </g>
  </g>
</svg>
