<svg xmlns="http://www.w3.org/2000/svg" width="70" height="70" viewBox="0 0 70 70">
  <g id="img29" transform="translate(-320 -5492)">
    <rect id="Rectangle_455588" data-name="Rectangle 455588" width="70" height="70" transform="translate(320 5492)" fill="#faf2df"/>
    <g id="Group_1181353" data-name="Group 1181353" transform="translate(327.855 5499.855)">
      <g id="Group_1181351" data-name="Group 1181351" transform="translate(0.921 0.921)">
        <g id="Group_1181350" data-name="Group 1181350">
          <circle id="Ellipse_13912" data-name="Ellipse 13912" cx="21.136" cy="21.136" r="21.136" transform="translate(5.087 3.695)" fill="#f5f8f9"/>
          <path id="Path_1008172" data-name="Path 1008172" d="M57.627,28.922a25.727,25.727,0,0,0-1.285-4.465q-.333-.679-.708-1.337a.476.476,0,0,1,.074-.574l1.173-1.171.453-.453a.478.478,0,0,0,0-.675l-7.755-7.755a.478.478,0,0,0-.675,0l-1.624,1.626a.476.476,0,0,1-.574.074,23.8,23.8,0,0,0-5.481-2.274.474.474,0,0,1-.353-.458V9.167A.478.478,0,0,0,40.4,8.69H29.43a.478.478,0,0,0-.477.477V11.46a.474.474,0,0,1-.353.458,23.806,23.806,0,0,0-5.481,2.274.476.476,0,0,1-.574-.074l-1.623-1.626a.478.478,0,0,0-.675,0l-7.755,7.755a.478.478,0,0,0,0,.675l1.626,1.623a.476.476,0,0,1,.074.574A23.8,23.8,0,0,0,11.918,28.6a.474.474,0,0,1-.458.353H9.167a.478.478,0,0,0-.477.477V40.4a.478.478,0,0,0,.477.477H11.46a.474.474,0,0,1,.458.353,23.8,23.8,0,0,0,2.274,5.481.476.476,0,0,1-.074.574l-.024.024.136,2.415c2.579,2.188,4.92,4.658,8.287,5.218,10.966,1.43,22.647.715,29.8-8.582,4.143-5.033,5.438-11.166,5.311-17.434ZM34.913,53.064A18.151,18.151,0,1,1,53.064,34.913,18.148,18.148,0,0,1,34.913,53.064Z" transform="translate(-8.69 -8.69)" fill="#73788c"/>
          <path id="Path_1008173" data-name="Path 1008173" d="M92.018,162.364V173.33a.478.478,0,0,1-.477.477H89.248a.474.474,0,0,0-.458.353,23.8,23.8,0,0,1-2.274,5.481.476.476,0,0,0,.074.574l1.626,1.623a.478.478,0,0,1,0,.675l-7.755,7.755a.478.478,0,0,1-.675,0l-1.623-1.626a.476.476,0,0,0-.574-.074,23.8,23.8,0,0,1-5.481,2.274.474.474,0,0,0-.353.458v2.293a.478.478,0,0,1-.477.477H60.312a.478.478,0,0,1-.477-.477V191.3a.474.474,0,0,0-.353-.458A23.8,23.8,0,0,1,54,188.568a.476.476,0,0,0-.574.074L51.8,190.267a.478.478,0,0,1-.675,0l-7.755-7.755a.478.478,0,0,1,0-.675l1.6-1.6a25.336,25.336,0,0,0,17.133,6.637,23.482,23.482,0,0,0,13.328-3.647,26.566,26.566,0,0,0,12.109-21.79,25.459,25.459,0,0,0-.322-4.048,23.842,23.842,0,0,1,1.566,4.143.474.474,0,0,0,.458.353h2.293A.478.478,0,0,1,92.018,162.364Z" transform="translate(-39.572 -141.624)" fill="#5e6577"/>
          <g id="Group_1181348" data-name="Group 1181348" transform="translate(4.214 4.214)">
            <path id="Path_1008174" data-name="Path 1008174" d="M265.41,85.734a.269.269,0,0,1-.267-.239,19.99,19.99,0,0,0-19.8-17.63,1.4,1.4,0,0,0-1.421,1.311,1.37,1.37,0,0,0,1.369,1.429,17.273,17.273,0,0,1,17.076,14.825.269.269,0,0,1-.267.3h-1.322a.269.269,0,0,0-.215.432l1.836,3.059,1.134,3.149,1.6-3.154,2.017-3.043a.269.269,0,0,0-.207-.442H265.41Z" transform="translate(-223.196 -65.804)" fill="#ffe177"/>
            <path id="Path_1008175" data-name="Path 1008175" d="M90.685,51.73l-4.934-3.235a.269.269,0,0,0-.442.207v1.668a.269.269,0,0,1-.239.267,19.99,19.99,0,0,0-17.579,19.79A1.4,1.4,0,0,0,68.8,71.848a1.37,1.37,0,0,0,1.429-1.369A17.273,17.273,0,0,1,85,53.409a.269.269,0,0,1,.306.267v1.188a.269.269,0,0,0,.432.215l4.934-2.928a.27.27,0,0,0,.01-.422Z" transform="translate(-65.471 -48.432)" fill="#8db9ff"/>
            <path id="Path_1008176" data-name="Path 1008176" d="M70.82,245.441q-.19,0-.381,0a17.273,17.273,0,0,1-17.074-14.809.269.269,0,0,1,.267-.305h1.233a.269.269,0,0,0,.215-.432l-2.928-4.934a.269.269,0,0,0-.422-.01l-3.235,4.934a.269.269,0,0,0,.207.442h1.624a.269.269,0,0,1,.267.239,19.99,19.99,0,0,0,19.847,17.614q.205,0,.409,0a1.392,1.392,0,0,0,1.371-1.339A1.37,1.37,0,0,0,70.82,245.441Z" transform="translate(-48.432 -206.152)" fill="#c9ef6c"/>
            <path id="Path_1008177" data-name="Path 1008177" d="M247.641,271.165a.269.269,0,0,1-.422-.01l-1.092-1.876A16.985,16.985,0,0,1,231.5,284.957a.27.27,0,0,1-.312-.266v-1.247a.269.269,0,0,0-.432-.215l-4.934,2.928a.269.269,0,0,0-.01.422l4.934,3.235a.269.269,0,0,0,.442-.207V288a.269.269,0,0,1,.237-.267,19.857,19.857,0,0,0,11.775-5.844,18.393,18.393,0,0,0,5.658-12.617Z" transform="translate(-206.92 -245.859)" fill="#ff7e7b"/>
          </g>
          <g id="Group_1181349" data-name="Group 1181349" transform="translate(14.806 14.865)">
            <path id="Path_1008178" data-name="Path 1008178" d="M170.387,160.33c0,6.341-4.319,10.159-10.64,10.159-2.861,0-5.477.269-7.484-1.472,0-.659-.46-.928-1.177-1.181a11.449,11.449,0,0,1-2.755-6.672c-.02-.275.417-.554.417-.834s-.437-.559-.417-.835a11.449,11.449,0,0,1,2.735-6.648c.737-.168,1.08-.43,1.176-1.185a11.38,11.38,0,0,1,6.672-2.783c.275-.02.554.5.834.5s.559-.522.835-.5a11.381,11.381,0,0,1,6.672,2.783c.092.909.58,1.185,1.175,1.185C170.151,154.857,170.387,157.471,170.387,160.33Z" transform="translate(-148.33 -148.879)" fill="#ffd15b"/>
            <path id="Path_1008179" data-name="Path 1008179" d="M201.582,186.3a15.844,15.844,0,0,1,.609,3.872,12.651,12.651,0,0,1-3.266,8.478,11.6,11.6,0,0,1-1.179,1.181,12.959,12.959,0,0,1-12.33,2.639,11.432,11.432,0,0,0,6.651,2.763c.275.02.554-.52.834-.52s.559.54.835.52a11.38,11.38,0,0,0,6.649-2.764c.184-.159.078-.758.251-.928.223-.22.722-.016.927-.253a11.45,11.45,0,0,0,2.754-6.671c.02-.275-.445-.554-.445-.834s.465-.555.445-.835a10.992,10.992,0,0,0-2.735-6.648Z" transform="translate(-181.484 -182.337)" fill="#ffc344"/>
            <ellipse id="Ellipse_13913" data-name="Ellipse 13913" cx="7.735" cy="7.759" rx="7.735" ry="7.759" transform="translate(3.682 3.693)" fill="#ffe177"/>
          </g>
        </g>
      </g>
      <g id="Group_1181352" data-name="Group 1181352" transform="translate(0 0)">
        <path id="Path_1008180" data-name="Path 1008180" d="M53.494,88.249H50.952A24.6,24.6,0,0,0,48.773,83l1.8-1.8a.8.8,0,0,0,0-1.125l-3.9-3.9A.8.8,0,0,0,45.548,77.3l3.338,3.338L47.219,82.3a.8.8,0,0,0-.122.967,23.016,23.016,0,0,1,2.477,5.972.8.8,0,0,0,.77.6H52.7v10.387H50.344a.8.8,0,0,0-.77.6A23.018,23.018,0,0,1,47.1,106.8a.8.8,0,0,0,.122.967l1.668,1.668-7.344,7.344-1.668-1.668a.8.8,0,0,0-.967-.122,23.02,23.02,0,0,1-5.972,2.477.8.8,0,0,0-.6.77v2.355H21.951v-2.355a.8.8,0,0,0-.6-.77,23.015,23.015,0,0,1-5.972-2.477.8.8,0,0,0-.967.122l-1.668,1.668L5.4,109.43l1.668-1.668a.8.8,0,0,0,.122-.967,23.02,23.02,0,0,1-2.477-5.972.8.8,0,0,0-.77-.6H1.591V97.4A.8.8,0,0,0,0,97.4v3.617a.8.8,0,0,0,.8.8H3.337a24.605,24.605,0,0,0,2.179,5.251l-1.8,1.8a.8.8,0,0,0,0,1.125l8.469,8.469a.8.8,0,0,0,1.125,0l1.8-1.8a24.6,24.6,0,0,0,5.251,2.179v2.542a.8.8,0,0,0,.8.8H33.133a.8.8,0,0,0,.8-.8V118.84a24.607,24.607,0,0,0,5.251-2.179l1.8,1.8a.8.8,0,0,0,1.125,0l8.469-8.469a.8.8,0,0,0,0-1.125l-1.8-1.8a24.6,24.6,0,0,0,2.179-5.251h2.542a.8.8,0,0,0,.8-.8V89.044a.8.8,0,0,0-.8-.8Z" transform="translate(0 -67.888)"/>
        <path id="Path_1008181" data-name="Path 1008181" d="M.8,26.6a.8.8,0,0,0,.8-.8V21.951H3.946a.8.8,0,0,0,.77-.6,23.014,23.014,0,0,1,2.477-5.972.8.8,0,0,0-.122-.967L5.4,12.747,12.747,5.4l1.668,1.668a.8.8,0,0,0,.967.122,23.019,23.019,0,0,1,5.972-2.477.8.8,0,0,0,.6-.77V1.59H32.338V3.945a.8.8,0,0,0,.6.77,23.017,23.017,0,0,1,5.972,2.477.8.8,0,0,0,.967-.122L41.542,5.4l1.382,1.382a.8.8,0,1,0,1.125-1.125L42.1,3.716a.8.8,0,0,0-1.125,0l-1.8,1.8a24.6,24.6,0,0,0-5.251-2.179V.8a.8.8,0,0,0-.8-.8H21.156a.8.8,0,0,0-.8.8V3.337a24.605,24.605,0,0,0-5.251,2.179l-1.8-1.8a.8.8,0,0,0-1.125,0L3.716,12.185a.8.8,0,0,0,0,1.125l1.8,1.8a24.6,24.6,0,0,0-2.179,5.251H.8a.8.8,0,0,0-.8.8v4.65a.8.8,0,0,0,.8.8Z" transform="translate(0 0)"/>
        <path id="Path_1008182" data-name="Path 1008182" d="M76.311,73.7a.8.8,0,0,0,1.115-.148,20.666,20.666,0,0,0,4.2-10.927c0-.005,0-.01,0-.016l2.266-3.36a.8.8,0,0,0-.659-1.24H81.58a20.531,20.531,0,0,0-5.893-11.8,20.775,20.775,0,0,0-13.133-6.036l-3.4-2.293a.8.8,0,0,0-1.24.659v1.784a20.535,20.535,0,0,0-11.748,5.885,20.782,20.782,0,0,0-6.03,13.056l-2.259,3.351a.8.8,0,0,0,.659,1.24h1.74a20.534,20.534,0,0,0,5.891,11.784,20.763,20.763,0,0,0,13.262,6.045L62.7,83.891a.8.8,0,0,0,1.24-.659V81.509a20.589,20.589,0,0,0,10.865-5.123.8.8,0,0,0-1.066-1.18A19.014,19.014,0,0,1,63.06,80.02a.8.8,0,0,0-.707.79v.927l-3.409-2.3,3.409-2.08v.685a.8.8,0,0,0,.9.788A18.257,18.257,0,0,0,78.559,64.62a.919.919,0,0,0,1.056.623,19.059,19.059,0,0,1-3.451,7.34.8.8,0,0,0,.148,1.115ZM47.29,47.331a18.971,18.971,0,0,1,11.5-5.517.8.8,0,0,0,.71-.791v-.992l3.408,2.3L59.5,44.41v-.624A.8.8,0,0,0,58.609,43,18.1,18.1,0,0,0,43.2,57.226a.909.909,0,0,0-1.051-.607,19.223,19.223,0,0,1,5.144-9.287ZM41.769,62.975a.8.8,0,0,0-.791-.712H40.03l2.3-3.408,2.08,3.408h-.668a.8.8,0,0,0-.789.893A18.1,18.1,0,0,0,57.237,78.617a.851.851,0,0,0-.505,1.075,19.2,19.2,0,0,1-9.442-5.179,18.969,18.969,0,0,1-5.521-11.538ZM63.943,77.108V75.941a.8.8,0,0,0-1.21-.679l-3.384,2.066A16.512,16.512,0,0,1,44.666,63.853h1.16a.8.8,0,0,0,.679-1.21L44.481,59.33A16.511,16.511,0,0,1,57.913,44.714v1.114a.8.8,0,0,0,1.21.679l3.274-2a16.524,16.524,0,0,1,14.792,13.5h-1.25a.8.8,0,0,0-.679,1.21l2.017,3.3A16.642,16.642,0,0,1,63.943,77.108ZM77.356,59.6h.757A.8.8,0,0,0,78.9,58.7a18.126,18.126,0,0,0-14.377-15.5.92.92,0,0,0,.625-1.049,19.214,19.214,0,0,1,9.412,5.173,18.967,18.967,0,0,1,5.522,11.553.8.8,0,0,0,.791.713h.859L79.436,63Z" transform="translate(-33.738 -33.74)"/>
        <path id="Path_1008183" data-name="Path 1008183" d="M152.014,139.35a12.349,12.349,0,0,0-2.745.308.8.8,0,0,0,.354,1.551,10.692,10.692,0,0,1,1.6-.238v2.17a8.541,8.541,0,0,0-4.689,1.951L145,143.553a10.976,10.976,0,0,1,1.428-1.041.8.8,0,1,0-.83-1.356,12.329,12.329,0,1,0,6.42-1.806Zm8.134,19.4-1.527-1.532a8.59,8.59,0,0,0,1.947-4.706h2.159a10.752,10.752,0,0,1-2.58,6.238ZM141.3,152.514h2.159a8.59,8.59,0,0,0,1.947,4.706l-1.527,1.532A10.751,10.751,0,0,1,141.3,152.514Zm2.571-7.837,1.535,1.54a8.59,8.59,0,0,0-1.947,4.706H141.3A10.7,10.7,0,0,1,143.871,144.677Zm13.627.414a8.542,8.542,0,0,0-4.689-1.951V140.97a10.68,10.68,0,0,1,6.216,2.589Zm-5.484-.4a7.026,7.026,0,1,1-7,7.026A7.022,7.022,0,0,1,152.014,144.693Zm-5.484,13.653a8.541,8.541,0,0,0,4.689,1.951v2.171A10.68,10.68,0,0,1,145,159.878Zm6.28,1.951a8.542,8.542,0,0,0,4.689-1.951l1.527,1.532a10.68,10.68,0,0,1-6.216,2.589Zm7.759-9.373a8.59,8.59,0,0,0-1.947-4.706l1.527-1.532a10.751,10.751,0,0,1,2.58,6.238Z" transform="translate(-124.869 -124.574)"/>
        <path id="Path_1008184" data-name="Path 1008184" d="M231.769,213.658a3.174,3.174,0,0,0,1.453.575v.467a.8.8,0,0,0,1.59,0v-.569a2.7,2.7,0,0,0,1.776-2.087,2.381,2.381,0,0,0-1.613-2.7c-.161-.057-.315-.109-.462-.158a2.8,2.8,0,0,1-1.1-.514.8.8,0,0,1-.187-.75.665.665,0,0,1,.465-.459,1.05,1.05,0,0,1,1.068.242.8.8,0,0,0,1.157-1.091,2.6,2.6,0,0,0-1.105-.675v-.553a.8.8,0,0,0-1.59,0v.558a2.267,2.267,0,0,0-1.523,1.536,2.392,2.392,0,0,0,.512,2.234,3.807,3.807,0,0,0,1.8.981c.139.047.284.1.436.149a.786.786,0,0,1,.576.934,1.061,1.061,0,0,1-1.05.9,1.827,1.827,0,0,1-1.328-.347.8.8,0,1,0-.873,1.33Z" transform="translate(-206.873 -182.899)"/>
      </g>
    </g>
  </g>
</svg>
