<svg xmlns="http://www.w3.org/2000/svg" width="160" height="160" viewBox="0 0 160 160">
  <g id="img30" transform="translate(-383.746 -8399.579)">
    <circle id="Ellipse_13609" data-name="Ellipse 13609" cx="80" cy="80" r="80" transform="translate(383.746 8399.579)" fill="#fff"/>
    <g id="Group_1181355" data-name="Group 1181355" transform="translate(403.746 8420.579)">
      <path id="Path_1008197" data-name="Path 1008197" d="M132.252,16A36.282,36.282,0,0,0,96.5,58.3l2.859-.49a33.639,33.639,0,0,1-.462-5.56A33.224,33.224,0,0,1,100.485,42.1h3.138a1.078,1.078,0,0,1,1.078,1.078v5.489a4.371,4.371,0,0,0,.459,1.944L109.2,58.7l2.594-1.3-4.044-8.089a1.445,1.445,0,0,1-.153-.647V43.179a3.982,3.982,0,0,0-3.978-3.978h-2.061a33.5,33.5,0,0,1,8.249-11.6h2.038a1.445,1.445,0,0,1,1.207.646l.43.646a4.357,4.357,0,0,0,6.032,1.207l.718-.477a1.075,1.075,0,0,1,1.079-.068l3.958,1.98a4.013,4.013,0,0,0,1.774.418h4.438a1.075,1.075,0,0,1,.6.181l1.49.993a1.08,1.08,0,0,1,.265,1.545l-2.39,3.186a1.065,1.065,0,0,1-.38.314l-4.332,2.167a1.075,1.075,0,0,1-.821.058l-2.965-.988a3.963,3.963,0,0,0-1.26-.205h-1.412a3.982,3.982,0,0,0-3.978,3.978v1.226a1.089,1.089,0,0,1-.113.481L114.2,48.858a4.379,4.379,0,0,0,0,3.89l1.553,3.1a3.952,3.952,0,0,0,3.557,2.2h6.061a1.078,1.078,0,0,1,1.078,1.078V65.3h2.9V59.13a3.982,3.982,0,0,0-3.978-3.978h-6.061a1.07,1.07,0,0,1-.963-.6l-1.553-3.1a1.464,1.464,0,0,1,0-1.3l1.987-3.974a4.013,4.013,0,0,0,.418-1.774V43.179a1.078,1.078,0,0,1,1.078-1.078h1.412a1.076,1.076,0,0,1,.341.055l2.967.988a3.939,3.939,0,0,0,3.038-.215l4.326-2.164a3.959,3.959,0,0,0,1.408-1.173l2.389-3.185a3.977,3.977,0,0,0-.976-5.7l-1.49-.993a3.963,3.963,0,0,0-2.208-.668h-4.438a1.089,1.089,0,0,1-.481-.113l-3.955-1.978a3.98,3.98,0,0,0-3.985.249l-.717.477a1.451,1.451,0,0,1-2.011-.4l-.43-.646a4.32,4.32,0,0,0-2.307-1.71A33.249,33.249,0,0,1,154,27v2.775a.726.726,0,0,1-.725.725h-4.733a4.329,4.329,0,0,0-3.891,2.4L142.7,36.818a4.5,4.5,0,0,0-.331.891L141.546,41a1.45,1.45,0,0,1-1.408,1.1H138.93a4.332,4.332,0,0,0-2.413.731l-2.328,1.552A4.341,4.341,0,0,0,132.252,48v2.855a4.331,4.331,0,0,0,1.633,3.4l5.293,4.234a1.458,1.458,0,0,1,.527.895l1.076,6.462a4.332,4.332,0,0,0,1.681,2.763l4.1,3.073a4.381,4.381,0,0,0,2.611.871h1.815a3.617,3.617,0,0,0,3.438-2.478l2.293-6.879a3.589,3.589,0,0,0,.187-1.146V57.327a.726.726,0,0,1,.725-.725h7.682a33.394,33.394,0,0,1-33.059,29v2.9a36.252,36.252,0,1,0,0-72.5Zm25.376,37.7A3.629,3.629,0,0,0,154,57.327V62.05a.738.738,0,0,1-.037.228l-2.293,6.879a.725.725,0,0,1-.688.5H149.17a1.466,1.466,0,0,1-.871-.29l-4.1-3.073a1.447,1.447,0,0,1-.561-.92l-1.076-6.46a4.355,4.355,0,0,0-1.573-2.684L135.7,51.991a1.445,1.445,0,0,1-.545-1.133V48A1.445,1.445,0,0,1,135.8,46.8l2.328-1.552a1.44,1.44,0,0,1,.8-.244h1.208a4.343,4.343,0,0,0,4.22-3.3l.821-3.288a1.53,1.53,0,0,1,.113-.3l1.956-3.913a1.441,1.441,0,0,1,1.3-.8h4.733a3.627,3.627,0,0,0,3.622-3.593,33.222,33.222,0,0,1,8.7,22.444c0,.486-.016.969-.037,1.45Z" transform="translate(-65.499)" fill="#593609"/>
      <path id="Path_1008198" data-name="Path 1008198" d="M59.5,283.5V264.651a2.9,2.9,0,0,0-2.9-2.9H50.8V260.3a2.9,2.9,0,0,0-2.9-2.9H42.1a2.9,2.9,0,0,0-2.9,2.9v2.9H33.4v-5.8a2.9,2.9,0,0,0-2.9-2.9H24.7a2.9,2.9,0,0,0-2.9,2.9v26.1H20.35a1.451,1.451,0,0,1-1.45-1.45V248.7H30.1L37,252.844a1.457,1.457,0,0,0,1.395.054l7.92-3.959,9.44,6.742a1.449,1.449,0,0,0,.843.27h7.25v-2.9H57.067l-9.772-6.98a1.447,1.447,0,0,0-1.491-.118l-7.988,3.995-6.568-3.941a1.442,1.442,0,0,0-.746-.207H18.9V240H16v42.052a4.355,4.355,0,0,0,4.35,4.35h46.4v-2.9Zm-29,0H24.7V257.4h5.8Zm8.7,0H33.4V266.1h5.8Zm8.7-18.851V283.5H42.1V266.1c0-.007,0-.014,0-.021V260.3h5.8ZM56.6,283.5H50.8V264.651h5.8Z" transform="translate(0 -183.398)" fill="#593609"/>
    </g>
  </g>
</svg>
