<svg xmlns="http://www.w3.org/2000/svg" width="72" height="72" viewBox="0 0 72 72">
  <g id="img33" transform="translate(-625.711 -6319)">
    <rect id="Rectangle_455401" data-name="Rectangle 455401" width="72" height="72" rx="5" transform="translate(625.711 6319)" fill="#ff9a1a"/>
    <g id="Group_1181358" data-name="Group 1181358" transform="translate(634.421 6327.707)">
      <g id="Group_1181356" data-name="Group 1181356" transform="translate(0.767 0.721)">
        <path id="Path_1008199" data-name="Path 1008199" d="M195.971,182.82l-6.589-2.033a1.41,1.41,0,0,0-.831,0l-6.589,2.033a1.416,1.416,0,0,0-.99,1.462,16.064,16.064,0,0,0,7.224,12.262,1.407,1.407,0,0,0,1.542,0,16.065,16.065,0,0,0,7.224-12.262A1.416,1.416,0,0,0,195.971,182.82Z" transform="translate(-162.444 -162.177)" fill="#fff0ad"/>
        <path id="Path_1008200" data-name="Path 1008200" d="M183.636,184.281a1.416,1.416,0,0,1,.99-1.462l5.673-1.75-.917-.283a1.41,1.41,0,0,0-.831,0l-6.589,2.033a1.416,1.416,0,0,0-.99,1.462,16.063,16.063,0,0,0,7.224,12.262,1.407,1.407,0,0,0,1.542,0c.19-.125.377-.255.562-.388a16.054,16.054,0,0,1-6.662-11.874Z" transform="translate(-162.443 -162.176)" fill="#ffe177"/>
        <path id="Path_1008201" data-name="Path 1008201" d="M407.188,12.536h-3.729l-1.364-4.442a.459.459,0,0,1,.439-.594h5.58a.459.459,0,0,1,.439.594Z" transform="translate(-359.981 -7.418)" fill="#bbec6c"/>
        <path id="Path_1008202" data-name="Path 1008202" d="M405.2,7.5h-2.665a.459.459,0,0,0-.439.594l1.364,4.442h2.665L404.76,8.094A.459.459,0,0,1,405.2,7.5Z" transform="translate(-359.981 -7.418)" fill="#a2e62e"/>
        <path id="Path_1008203" data-name="Path 1008203" d="M24.648,351.233v14.756a.853.853,0,0,1-.853.853H8.053a.853.853,0,0,1-.853-.853V351.233a.853.853,0,0,1,.853-.853H23.8A.853.853,0,0,1,24.648,351.233Z" transform="translate(-7.2 -313.747)" fill="#c59191"/>
        <path id="Path_1008204" data-name="Path 1008204" d="M9.865,365.988V351.233a.853.853,0,0,1,.853-.853H8.053a.853.853,0,0,0-.853.853v14.756a.853.853,0,0,0,.853.853h2.665A.853.853,0,0,1,9.865,365.988Z" transform="translate(-7.2 -313.747)" fill="#b98080"/>
        <path id="Path_1008205" data-name="Path 1008205" d="M72.225,350.38v6.374a.471.471,0,0,1-.729.393l-1.289-.85a.467.467,0,0,0-.518,0l-1.289.85a.471.471,0,0,1-.73-.393V350.38Z" transform="translate(-61.224 -313.747)" fill="#f47c7c"/>
        <path id="Path_1008206" data-name="Path 1008206" d="M213.4,221.238a.421.421,0,0,0-.338.338,3.546,3.546,0,0,0,4.128,4.128.421.421,0,0,0,.338-.338,3.546,3.546,0,0,0-4.129-4.128Z" transform="translate(-191.067 -198.319)" fill="#a2e62e"/>
        <path id="Path_1008207" data-name="Path 1008207" d="M260.186,221.238a.421.421,0,0,1,.338.338A3.546,3.546,0,0,1,256.4,225.7a.421.421,0,0,1-.338-.338,3.546,3.546,0,0,1,4.129-4.128Z" transform="translate(-229.477 -198.319)" fill="#bbec6c"/>
        <path id="Path_1008208" data-name="Path 1008208" d="M374.9,85.329H361.656a1.046,1.046,0,0,1-1.033-1.212l1.385-8.639a4.441,4.441,0,0,1,4.385-3.738h3.77a4.441,4.441,0,0,1,4.385,3.738l1.385,8.639A1.046,1.046,0,0,1,374.9,85.329Z" transform="translate(-322.936 -64.81)" fill="#bbec6c"/>
        <path id="Path_1008209" data-name="Path 1008209" d="M405.08,47.923h-4.695a1.211,1.211,0,0,1-1.211-1.211v-.42a1.211,1.211,0,0,1,1.211-1.211h4.695a1.211,1.211,0,0,1,1.211,1.211v.42A1.211,1.211,0,0,1,405.08,47.923Z" transform="translate(-357.39 -40.993)" fill="#d1a4a4"/>
        <path id="Path_1008210" data-name="Path 1008210" d="M363.287,84.117l1.385-8.639a4.441,4.441,0,0,1,4.385-3.738h-2.665a4.441,4.441,0,0,0-4.385,3.738l-1.385,8.639a1.046,1.046,0,0,0,1.033,1.212h2.665A1.046,1.046,0,0,1,363.287,84.117Z" transform="translate(-322.935 -64.81)" fill="#a2e62e"/>
        <path id="Path_1008211" data-name="Path 1008211" d="M401.839,46.712v-.42a1.211,1.211,0,0,1,1.211-1.211h-2.665a1.211,1.211,0,0,0-1.211,1.211v.42a1.211,1.211,0,0,0,1.211,1.211h2.665A1.211,1.211,0,0,1,401.839,46.712Z" transform="translate(-357.39 -40.993)" fill="#c59191"/>
        <path id="Path_1008212" data-name="Path 1008212" d="M381.613,382.31v6.419a.379.379,0,0,1-.368.388H367.317a.378.378,0,0,1-.367-.388V382.31c0-.054,0-.108,0-.161v0c0-.042,0-.083.009-.124,0-.02,0-.042.005-.062a3.014,3.014,0,0,1,.048-.311c.006-.037.015-.075.023-.111l.006-.027c.012-.047.023-.093.037-.139a0,0,0,0,1,0,0c.013-.045.027-.088.042-.132a3.222,3.222,0,0,1,.174-.414l.026-.05c.018-.034.037-.069.057-.1s.048-.082.074-.123.067-.1.1-.151c.022-.032.046-.064.07-.095,0,0,0,0,0,0,.028-.036.057-.071.086-.107l.013-.014c.03-.035.061-.069.092-.1s.068-.07.1-.1.071-.067.109-.1.069-.06.1-.087l.018-.014c.027-.022.054-.043.082-.062a1.961,1.961,0,0,1,.168-.115c.034-.021.067-.043.1-.062s.084-.047.127-.069c0,0,0,0,0,0l.119-.058a2.869,2.869,0,0,1,.566-.188c.049-.011.1-.02.148-.029h.005c.09-.014.181-.024.273-.03.06,0,.12-.006.181-.006h2.106a.487.487,0,0,0,.056,0h.012l.021,0,.029-.005a.276.276,0,0,0,.045-.013.212.212,0,0,0,.036-.014l.028-.012.007,0,.038-.02.012-.008.036-.026.01-.008a.441.441,0,0,0,.034-.03s0,0,0,0a.434.434,0,0,0,.037-.039.361.361,0,0,0,.035-.045c.008-.012.017-.025.024-.037a.551.551,0,0,0,.062-.143.438.438,0,0,0,.012-.051.288.288,0,0,0,.007-.053.426.426,0,0,0,0-.064V375.35h3.386v3.218a.559.559,0,0,0,0,.06.5.5,0,0,0,.015.089.584.584,0,0,0,.183.3.425.425,0,0,0,.033.028l.017.012a.317.317,0,0,0,.035.022.509.509,0,0,0,.163.061.335.335,0,0,0,.045.007.488.488,0,0,0,.057,0h2.105c.051,0,.1,0,.154,0s.1.006.147.012l.033,0c.036,0,.072.009.109.015a.548.548,0,0,1,.06.011c.026,0,.051.009.077.014.042.009.082.018.123.029s.08.021.119.033l.02.006c.042.013.083.028.125.043s.085.032.128.05l.1.045c.058.027.115.055.171.086s.091.05.134.078l.086.055c.062.041.123.084.181.131a.611.611,0,0,1,.05.041c.025.019.049.039.073.06a.05.05,0,0,1,.011.011c.035.029.068.06.1.092l0,0c.031.03.061.061.091.092s.081.086.119.132l.07.084c.061.078.119.159.174.243.013.019.025.038.036.058a3.208,3.208,0,0,1,.2.388c.013.029.026.058.037.087.005.014.012.028.016.042.013.031.026.063.036.095.023.065.045.132.064.2.01.033.018.066.027.1s.012.046.016.069q.014.059.026.118t.016.093c0,.015.005.031.007.047s.009.058.012.086,0,.03.005.045c0,.031.006.062.008.093s.005.071.006.108C381.612,382.2,381.613,382.257,381.613,382.31Z" transform="translate(-328.601 -336.055)" fill="#d8ecfe"/>
        <path id="Path_1008213" data-name="Path 1008213" d="M369.615,388.729V382.31c0-.054,0-.108,0-.161v0c0-.042,0-.083.009-.124,0-.02,0-.042.005-.062a3,3,0,0,1,.048-.311c.006-.037.015-.075.023-.111l.006-.027c.012-.047.023-.093.037-.139a0,0,0,0,1,0,0c.013-.045.027-.088.042-.132a3.222,3.222,0,0,1,.174-.414l.026-.05c.018-.034.037-.069.056-.1s.048-.082.074-.123.067-.1.1-.151c.022-.032.046-.064.07-.095,0,0,0,0,0,0,.028-.036.056-.071.086-.107l.013-.014c.03-.035.061-.069.092-.1s.068-.07.1-.1.071-.067.109-.1.069-.06.1-.087l.018-.014c.027-.022.054-.043.082-.062a1.955,1.955,0,0,1,.168-.115c.034-.021.067-.043.1-.062s.084-.047.127-.069c0,0,0,0,0,0l.119-.058a2.867,2.867,0,0,1,.566-.188c.049-.011.1-.02.148-.029h.005c.09-.014.181-.025.273-.03.06,0,.12-.006.181-.006H374.7a.487.487,0,0,0,.056,0h.012l.021,0,.029-.005a.271.271,0,0,0,.045-.013.212.212,0,0,0,.036-.014l.028-.012.007,0,.038-.02.012-.007.036-.026.01-.007c.012-.01.023-.019.034-.03s0,0,0,0a.442.442,0,0,0,.037-.039.36.36,0,0,0,.035-.045c.009-.012.017-.025.025-.037a.55.55,0,0,0,.062-.143.441.441,0,0,0,.012-.051.291.291,0,0,0,.007-.053.429.429,0,0,0,0-.064V375.35h-2.665v3.218a.433.433,0,0,1,0,.064.291.291,0,0,1-.007.053.441.441,0,0,1-.012.051.552.552,0,0,1-.062.143c-.007.013-.016.026-.025.037a.366.366,0,0,1-.035.045.451.451,0,0,1-.037.039s0,0,0,0-.022.02-.034.03l-.01.007-.036.026-.012.007-.038.02-.007,0-.028.012a.215.215,0,0,1-.036.014.271.271,0,0,1-.045.013l-.029.005-.021,0h-.012a.487.487,0,0,1-.056,0h-2.106c-.061,0-.122,0-.181.006-.092.005-.183.016-.273.03h-.005c-.05.009-.1.018-.148.029a2.868,2.868,0,0,0-.566.188l-.119.058s0,0,0,0c-.043.022-.085.045-.127.069s-.068.04-.1.062a1.946,1.946,0,0,0-.168.115c-.028.019-.055.039-.082.062l-.018.014c-.035.028-.07.058-.1.087s-.074.065-.109.1-.069.069-.1.1-.062.067-.092.1l-.013.014c-.03.035-.059.07-.086.107,0,0,0,0,0,0-.025.031-.048.063-.07.095-.036.049-.07.1-.1.151s-.05.081-.074.123-.038.068-.056.1l-.026.05a3.221,3.221,0,0,0-.174.414c-.015.044-.029.087-.042.132a0,0,0,0,0,0,0c-.014.046-.026.092-.037.139l-.006.027c-.009.036-.017.074-.023.111a3,3,0,0,0-.048.311c0,.02,0,.042-.005.062,0,.041-.006.082-.009.124v0c0,.053,0,.107,0,.161v6.419a.378.378,0,0,0,.367.388h2.665A.378.378,0,0,1,369.615,388.729Z" transform="translate(-328.601 -336.055)" fill="#c4e2ff"/>
        <path id="Path_1008214" data-name="Path 1008214" d="M420.172,379.151l-1.286,1.4h-1.965l-1.6-1.4a.544.544,0,0,0,.372-.23.6.6,0,0,0,.11-.349V375.35h3.386v3.218a.591.591,0,0,0,.069.281.544.544,0,0,0,.482.3Z" transform="translate(-371.814 -336.055)" fill="#ffcebf"/>
        <path id="Path_1008215" data-name="Path 1008215" d="M389.373,410.459v.03a.428.428,0,0,1-.1.256l-1.23,1.466a.426.426,0,0,1-.6.052L383.91,409.3a2.837,2.837,0,0,1,1.174-.254h2.106a.538.538,0,0,0,.44-.235l1.59,1.334A.429.429,0,0,1,389.373,410.459Z" transform="translate(-343.753 -365.948)" fill="#c4e2ff"/>
        <path id="Path_1008216" data-name="Path 1008216" d="M387.91,409.044h-.161a2.837,2.837,0,0,0-1.174.254,3.039,3.039,0,0,0-1.3,1.144L383.91,409.3a2.837,2.837,0,0,1,1.174-.254h2.106a.537.537,0,0,0,.44-.234Z" transform="translate(-343.753 -365.948)" fill="#b3dafe"/>
        <path id="Path_1008217" data-name="Path 1008217" d="M387.91,409.044h-.161a2.837,2.837,0,0,0-1.174.254,3.039,3.039,0,0,0-1.3,1.144L383.91,409.3a2.837,2.837,0,0,1,1.174-.254h2.106a.537.537,0,0,0,.44-.234Z" transform="translate(-343.753 -365.948)" fill="#b3dafe"/>
        <path id="Path_1008218" data-name="Path 1008218" d="M440.533,408.7l-3.573,3a.426.426,0,0,1-.6-.052l-1.23-1.466a.42.42,0,0,1-.1-.256v-.03a.422.422,0,0,1,.151-.315l1.67-1.4a.544.544,0,0,0,.482.3h2.105a2.8,2.8,0,0,1,1.094.221Z" transform="translate(-389.423 -365.385)" fill="#c4e2ff"/>
        <path id="Path_1008219" data-name="Path 1008219" d="M403.123,298.259a3.89,3.89,0,0,1-3.89-3.89V292a3.89,3.89,0,0,1,7.779,0v2.37A3.89,3.89,0,0,1,403.123,298.259Z" transform="translate(-357.442 -258.115)" fill="#ffeee6"/>
        <path id="Path_1008220" data-name="Path 1008220" d="M401.9,294.369V292a3.891,3.891,0,0,1,2.557-3.655A3.892,3.892,0,0,0,399.233,292v2.37a3.892,3.892,0,0,0,5.222,3.655A3.891,3.891,0,0,1,401.9,294.369Z" transform="translate(-357.442 -258.115)" fill="#ffdfcf"/>
        <path id="Path_1008221" data-name="Path 1008221" d="M23.023,101.295v6.419a.379.379,0,0,1-.367.389H8.727a.379.379,0,0,1-.367-.389v-6.419a3.075,3.075,0,0,1,2.982-3.159h2.106a.507.507,0,0,0,.175-.031A.581.581,0,0,0,14,97.553V94.335h3.387v3.218a.58.58,0,0,0,.376.552.5.5,0,0,0,.174.031h2.106A3.075,3.075,0,0,1,23.023,101.295Z" transform="translate(-8.236 -84.996)" fill="#8ac9fe"/>
        <path id="Path_1008222" data-name="Path 1008222" d="M11.027,107.718V101.3a3.074,3.074,0,0,1,2.982-3.159h2.106a.568.568,0,0,0,.55-.583V94.339H14v3.218a.568.568,0,0,1-.55.583H11.344A3.074,3.074,0,0,0,8.362,101.3v6.419a.378.378,0,0,0,.367.389h2.665A.378.378,0,0,1,11.027,107.718Z" transform="translate(-8.238 -85)" fill="#60b7ff"/>
        <path id="Path_1008223" data-name="Path 1008223" d="M61.868,98.105l-1.627,2.857a.511.511,0,0,1-.886,0L57.73,98.105a.581.581,0,0,0,.375-.552V94.335h3.387v3.218A.58.58,0,0,0,61.868,98.105Z" transform="translate(-52.344 -84.996)" fill="#ffcebf"/>
        <path id="Path_1008224" data-name="Path 1008224" d="M45.3,159.132V165.8H36.68v-6.671a.166.166,0,0,1,0-.033.109.109,0,0,1,.005-.026.2.2,0,0,1,.06-.1.157.157,0,0,1,.02-.017.175.175,0,0,1,.023-.015l.018-.009.02-.007.02-.005.021,0h8.22a.216.216,0,0,1,.1.026A.212.212,0,0,1,45.3,159.132Z" transform="translate(-33.537 -142.697)" fill="#d1a4a4"/>
        <path id="Path_1008225" data-name="Path 1008225" d="M44.536,27.967a3.89,3.89,0,0,1-3.89-3.89v-2.37a3.89,3.89,0,1,1,7.779,0v2.37A3.89,3.89,0,0,1,44.536,27.967Z" transform="translate(-37.081 -16.636)" fill="#ffeee6"/>
        <path id="Path_1008226" data-name="Path 1008226" d="M43.311,24.077v-2.37a3.891,3.891,0,0,1,2.557-3.655,3.892,3.892,0,0,0-5.222,3.655v2.37a3.892,3.892,0,0,0,5.222,3.655A3.891,3.891,0,0,1,43.311,24.077Z" transform="translate(-37.081 -16.635)" fill="#ffdfcf"/>
        <path id="Path_1008227" data-name="Path 1008227" d="M43.477,10.976h-9.12l.546-3.44a.927.927,0,0,1,.9-.807h6.237a.927.927,0,0,1,.9.807Z" transform="translate(-31.462 -6.73)" fill="#c59191"/>
        <path id="Path_1008228" data-name="Path 1008228" d="M38.463,6.73H35.8a.927.927,0,0,0-.9.807l-.546,3.44h2.665l.546-3.44A.927.927,0,0,1,38.463,6.73Z" transform="translate(-31.461 -6.73)" fill="#b98080"/>
        <path id="Path_1008229" data-name="Path 1008229" d="M33.435,37.233H22.561a.426.426,0,0,1-.426-.426V34.994a.426.426,0,0,1,.426-.426H33.435a.426.426,0,0,1,.426.426v1.812A.426.426,0,0,1,33.435,37.233Z" transform="translate(-20.543 -31.6)" fill="#d1a4a4"/>
        <path id="Path_1008230" data-name="Path 1008230" d="M24.8,36.807V34.994a.426.426,0,0,1,.426-.426H22.562a.426.426,0,0,0-.426.426v1.812a.426.426,0,0,0,.426.426h2.665A.426.426,0,0,1,24.8,36.807Z" transform="translate(-20.544 -31.6)" fill="#c59191"/>
      </g>
      <g id="Group_1181357" data-name="Group 1181357" transform="translate(0 0.004)">
        <path id="Path_1008231" data-name="Path 1008231" d="M215.391,213.622a4.329,4.329,0,0,0-4.328,1.762,4.329,4.329,0,0,0-4.328-1.762,1.226,1.226,0,0,0-.98.98,4.342,4.342,0,0,0,4.272,5.128c.079,0,.158,0,.237-.007v2.047a.8.8,0,1,0,1.6,0v-2.047c.079,0,.158.007.237.007a4.342,4.342,0,0,0,4.272-5.127A1.226,1.226,0,0,0,215.391,213.622Zm-5.137,4.5a2.743,2.743,0,0,1-2.962-2.962,2.743,2.743,0,0,1,2.962,2.962Zm3.786-.794a2.748,2.748,0,0,1-2.168.794,2.743,2.743,0,0,1,2.962-2.962A2.746,2.746,0,0,1,214.04,217.328Z" transform="translate(-183.757 -190.787)"/>
        <path id="Path_1008232" data-name="Path 1008232" d="M412.718,102.283h.013a.8.8,0,0,0,.8-.786l0-.177a2.428,2.428,0,0,0,1.588-1.835,2.151,2.151,0,0,0-1.418-2.46,5.6,5.6,0,0,1-1.388-.669.318.318,0,0,1-.032-.264.464.464,0,0,1,.3-.362,1.423,1.423,0,0,1,1.133.28.8.8,0,0,0,1.024-1.228,3.127,3.127,0,0,0-1.088-.564l0-.095a.8.8,0,1,0-1.6-.026l0,.127a2.051,2.051,0,0,0-1.337,1.546,1.848,1.848,0,0,0,.589,1.828,6.712,6.712,0,0,0,1.838.926.554.554,0,0,1,.4.67.791.791,0,0,1-.786.653h-.01a1.451,1.451,0,0,1-1.069-.3.8.8,0,0,0-.9,1.323,2.925,2.925,0,0,0,1.146.508v.089A.8.8,0,0,0,412.718,102.283Z" transform="translate(-366.684 -83.363)"/>
        <path id="Path_1008233" data-name="Path 1008233" d="M189.691,175.247l-6.585-2.031a2.2,2.2,0,0,0-1.3,0l-6.586,2.032a2.206,2.206,0,0,0-1.551,2.283,16.853,16.853,0,0,0,7.578,12.864,2.2,2.2,0,0,0,2.418,0,16.855,16.855,0,0,0,7.578-12.864A2.206,2.206,0,0,0,189.691,175.247Zm-6.9,13.81a.6.6,0,0,1-.663,0,15.354,15.354,0,0,1-6.861-11.644.615.615,0,0,1,.427-.639l6.586-2.032a.607.607,0,0,1,.359,0l6.586,2.032a.614.614,0,0,1,.427.639,15.355,15.355,0,0,1-6.861,11.644Z" transform="translate(-155.149 -154.663)"/>
        <path id="Path_1008234" data-name="Path 1008234" d="M50.8,42.991H48.943v-2.07a4.687,4.687,0,0,0,2.2-3.967V34.585a4.684,4.684,0,0,0-5.191-4.659,19.031,19.031,0,0,0,.186-2.649,18.817,18.817,0,0,0-.742-5.25h7.341a1.845,1.845,0,0,0,1.822-2.137l-.409-2.55a.8.8,0,1,0-1.579.253l.409,2.551a.246.246,0,0,1-.243.285H39.5a.247.247,0,0,1-.244-.285l1.385-8.634a3.624,3.624,0,0,1,3.593-3.063H48a3.624,3.624,0,0,1,3.593,3.063l.377,2.354a.8.8,0,0,0,1.579-.253l-.377-2.354a5.214,5.214,0,0,0-2.923-3.9,2,2,0,0,0,.222-.916V6.018A2.011,2.011,0,0,0,49.316,4.2l.789-2.57A1.258,1.258,0,0,0,48.9,0H43.326a1.258,1.258,0,0,0-1.2,1.628l.789,2.57a2.011,2.011,0,0,0-1.154,1.816v.418a2,2,0,0,0,.221.914,5.216,5.216,0,0,0-2.921,3.906l-.187,1.163a18.827,18.827,0,0,0-24.539,1.21,3.625,3.625,0,0,0-1.828-.495H10.65v-.929A4.687,4.687,0,0,0,12.845,8.24V7.232h.747a1.227,1.227,0,0,0,1.226-1.226V4.2a1.227,1.227,0,0,0-1.226-1.226h-.4L12.96,1.484A1.718,1.718,0,0,0,11.275,0H5.042A1.721,1.721,0,0,0,3.357,1.484L3.121,2.969h-.4A1.227,1.227,0,0,0,1.5,4.2v1.81A1.227,1.227,0,0,0,2.725,7.232h.747V8.24a4.687,4.687,0,0,0,2.195,3.966v.929H3.811A3.875,3.875,0,0,0,.032,17.091v6.416A1.179,1.179,0,0,0,1.2,24.7H8.652a19.06,19.06,0,0,0-.176,2.582A18.74,18.74,0,0,0,10.9,36.532H1.652A1.654,1.654,0,0,0,0,38.184V52.93a1.654,1.654,0,0,0,1.652,1.652h9.577a.8.8,0,0,0,0-1.6H1.652A.053.053,0,0,1,1.6,52.93V38.184a.052.052,0,0,1,.053-.053h4.79V43.7a1.27,1.27,0,0,0,1.969,1.061l1.107-.73,1.107.73A1.27,1.27,0,0,0,12.593,43.7v-5.57h4.791a.052.052,0,0,1,.053.053V52.93a.053.053,0,0,1-.053.053H14.957a.8.8,0,0,0,0,1.6h2.428a1.654,1.654,0,0,0,1.652-1.652V44.2a18.84,18.84,0,0,0,23.129-5.352,4.716,4.716,0,0,0,1.8,2.076v2.071H42.106a3.876,3.876,0,0,0-3.78,3.957v6.415a1.178,1.178,0,0,0,1.166,1.188h13.92a1.179,1.179,0,0,0,1.167-1.188V46.948a3.876,3.876,0,0,0-3.78-3.957ZM48.46,5.607a.412.412,0,0,1,.411.411v.418a.412.412,0,0,1-.411.411H43.77a.412.412,0,0,1-.411-.411V6.018a.412.412,0,0,1,.411-.411Zm-.018-4-.739,2.4H44.527l-.739-2.4ZM49.958,44.59l-1.865,1.565-.749-.893.808-.678a.916.916,0,0,0,.1.006ZM9.58,23.1H4.648V17.815h7.021V23.1ZM5.644,14.734l.843,1.482H4.648V14.734Zm5.03,0h.995v1.482H9.83Zm2.594.149a2.36,2.36,0,0,1,1.418,2.208v6H13.268ZM4.936,1.736C4.949,1.654,5,1.6,5.042,1.6h6.233c.041,0,.092.05.105.131l.2,1.235H4.74ZM3.1,4.568h10.12V5.633H3.1ZM5.071,7.232h6.175V8.24a3.087,3.087,0,1,1-6.175,0Zm3.088,5.695a4.69,4.69,0,0,0,.892-.086v.512a1.4,1.4,0,0,0,.179.686L8.158,15.921,7.087,14.037a1.4,1.4,0,0,0,.179-.685V12.84A4.69,4.69,0,0,0,8.159,12.927ZM1.631,17.091a2.36,2.36,0,0,1,1.418-2.208V23.1H1.631Zm8.588,25.487a1.263,1.263,0,0,0-1.4,0l-.778.513v-4.96h2.953V43.09Zm17.087,1.929A17.223,17.223,0,0,1,19.037,42.4V38.184a1.654,1.654,0,0,0-1.652-1.652H12.772a17.139,17.139,0,0,1-2.7-9.255,17.433,17.433,0,0,1,.193-2.582h4.851a1.179,1.179,0,0,0,1.166-1.188V17.091a4.057,4.057,0,0,0-.765-2.383,17.229,17.229,0,0,1,23.059-.461l-.905,5.644A1.846,1.846,0,0,0,39.5,22.028h4.225a17.2,17.2,0,0,1,.815,5.25,17.375,17.375,0,0,1-.292,3.176,4.691,4.691,0,0,0-2.478,4.132v2.062A17.154,17.154,0,0,1,27.306,44.507Zm16.059-9.922a3.088,3.088,0,1,1,6.176,0v2.368a3.088,3.088,0,1,1-6.176,0Zm3.088,7.055a4.693,4.693,0,0,0,.892-.086v1.621l-.952.8-.832-.7V41.554a4.693,4.693,0,0,0,.893.086Zm-1.814,2.95.8.672-.749.893L42.826,44.59Zm-4.714,2.358a2.417,2.417,0,0,1,.927-1.927l3.1,2.6a1.228,1.228,0,0,0,1.7-.128v5.459H39.925Zm13.055,6H47.252v-5.34a1.228,1.228,0,0,0,1.583.009l3.154-2.647a2.41,2.41,0,0,1,.991,1.975Z" transform="translate(0 -0.004)"/>
      </g>
    </g>
  </g>
</svg>
