<svg xmlns="http://www.w3.org/2000/svg" width="70" height="70" viewBox="0 0 70 70">
  <g id="img48" transform="translate(-531.711 -10289)">
    <rect id="Rectangle_455624" data-name="Rectangle 455624" width="70" height="70" transform="translate(531.711 10289)" fill="#ff9a1a"/>
    <g id="Group_1181473" data-name="Group 1181473" transform="translate(541.711 10298.002)">
      <g id="Group_1181471" data-name="Group 1181471" transform="translate(0.749 0.748)">
        <g id="Group_1181470" data-name="Group 1181470">
          <path id="Path_1008403" data-name="Path 1008403" d="M43.268,9.509,38.087,7.562A.942.942,0,0,0,36.826,8.6l.217,1.311A23.807,23.807,0,0,0,21.362,28.619a1.471,1.471,0,1,0,2.906.458A20.855,20.855,0,0,1,37.532,12.859l.2,1.2a.942.942,0,0,0,1.528.574l4.276-3.513A.942.942,0,0,0,43.268,9.509Z" transform="translate(-19.96 -7.501)" fill="#0ed2b3"/>
          <path id="Path_1008404" data-name="Path 1008404" d="M297.909,36.828l-1.311.217a23.807,23.807,0,0,0-18.709-15.682,1.471,1.471,0,1,0-.458,2.906,20.855,20.855,0,0,1,16.218,13.265l-1.2.2a.942.942,0,0,0-.574,1.528l3.513,4.276A.942.942,0,0,0,297,43.27l1.947-5.18a.942.942,0,0,0-1.036-1.261Z" transform="translate(-249.335 -19.962)" fill="#0ed2b3"/>
          <path id="Path_1008405" data-name="Path 1008405" d="M286.465,276.208a1.471,1.471,0,0,0-1.682,1.224,20.854,20.854,0,0,1-13.265,16.218l-.2-1.2a.942.942,0,0,0-1.528-.574l-4.276,3.514a.942.942,0,0,0,.267,1.61l5.18,1.947a.942.942,0,0,0,1.261-1.036l-.217-1.311a23.807,23.807,0,0,0,15.682-18.709,1.471,1.471,0,0,0-1.224-1.682Z" transform="translate(-239.419 -249.336)" fill="#0ed2b3"/>
          <path id="Path_1008406" data-name="Path 1008406" d="M29.076,284.784A20.855,20.855,0,0,1,12.858,271.52l1.2-.2a.942.942,0,0,0,.574-1.528l-3.513-4.276a.942.942,0,0,0-1.61.267l-1.947,5.18A.943.943,0,0,0,8.6,272.225l1.311-.217A23.807,23.807,0,0,0,28.618,287.69a1.471,1.471,0,1,0,.458-2.906Z" transform="translate(-7.5 -239.42)" fill="#0ed2b3"/>
        </g>
        <circle id="Ellipse_13923" data-name="Ellipse 13923" cx="14.554" cy="14.554" r="14.554" transform="translate(10.281 10.281)" fill="#fef48b"/>
        <path id="Path_1008407" data-name="Path 1008407" d="M126.209,139.423q-.633.055-1.281.056a14.555,14.555,0,0,1,0-29.109q.648,0,1.281.056a14.555,14.555,0,0,0,0,29Z" transform="translate(-100.092 -100.089)" fill="#fee45a"/>
        <circle id="Ellipse_13924" data-name="Ellipse 13924" cx="10.862" cy="10.862" r="10.862" transform="translate(13.974 13.974)" fill="#fee45a"/>
        <path id="Path_1008408" data-name="Path 1008408" d="M248.766,158.182a10.865,10.865,0,0,1-12.872,10.675,10.863,10.863,0,0,0,0-21.35,10.865,10.865,0,0,1,12.872,10.675Z" transform="translate(-213.068 -133.346)" fill="#ffd15b"/>
      </g>
      <g id="Group_1181472" data-name="Group 1181472" transform="translate(0 -0.002)">
        <path id="Path_1008409" data-name="Path 1008409" d="M15.724,24.289a2.236,2.236,0,0,0,.347.027,2.209,2.209,0,0,0,2.191-1.875A20.048,20.048,0,0,1,30.2,7.148l.047.281A1.692,1.692,0,0,0,32.989,8.46l4.276-3.513a1.692,1.692,0,0,0-.479-2.891L31.606.109a1.692,1.692,0,0,0-2.264,1.861l.115.7A24.56,24.56,0,0,0,13.876,21.75a2.22,2.22,0,0,0,1.848,2.539Zm-.367-2.305A23.057,23.057,0,0,1,30.543,3.866a.75.75,0,0,0,.495-.831L30.82,1.724a.184.184,0,0,1,.068-.181.188.188,0,0,1,.119-.045.2.2,0,0,1,.071.014l5.18,1.947a.193.193,0,0,1,.055.33L32.038,7.3a.193.193,0,0,1-.313-.118l-.2-1.2a.75.75,0,0,0-1-.58,21.549,21.549,0,0,0-13.743,16.8.72.72,0,0,1-.825.6.721.721,0,0,1-.6-.825Z" transform="translate(-12.465 0.002)"/>
        <path id="Path_1008410" data-name="Path 1008410" d="M292.62,29.939a1.673,1.673,0,0,0-1.583-.595l-.7.115a24.559,24.559,0,0,0-19.085-15.58,2.22,2.22,0,1,0-.691,4.386,19.732,19.732,0,0,1,2.417.538.75.75,0,0,0,.417-1.44,21.225,21.225,0,0,0-2.6-.579.721.721,0,0,1-.313-1.3.715.715,0,0,1,.537-.129A23.056,23.056,0,0,1,289.14,30.545a.749.749,0,0,0,.831.495l1.312-.217a.192.192,0,0,1,.211.258l-1.947,5.18a.192.192,0,0,1-.329.054L285.7,32.04a.193.193,0,0,1,.117-.313l1.2-.2a.75.75,0,0,0,.58-1,21.635,21.635,0,0,0-10.83-11.869.75.75,0,0,0-.653,1.349A20.15,20.15,0,0,1,285.857,30.2l-.281.047a1.692,1.692,0,0,0-1.03,2.743l3.513,4.275a1.672,1.672,0,0,0,1.3.619,1.744,1.744,0,0,0,.285-.024,1.674,1.674,0,0,0,1.306-1.074l1.947-5.179a1.674,1.674,0,0,0-.276-1.67Z" transform="translate(-241.836 -12.467)"/>
        <path id="Path_1008411" data-name="Path 1008411" d="M279.824,268.715a2.221,2.221,0,0,0-2.539,1.848,20.047,20.047,0,0,1-11.936,15.292l-.047-.282a1.692,1.692,0,0,0-2.743-1.03l-4.275,3.513a1.691,1.691,0,0,0,.479,2.891l5.179,1.947a1.7,1.7,0,0,0,.6.111,1.695,1.695,0,0,0,1.663-1.97l-.115-.7a24.138,24.138,0,0,0,2.261-.983.75.75,0,0,0-.668-1.342,22.705,22.705,0,0,1-2.679,1.124.749.749,0,0,0-.494.831l.217,1.312a.192.192,0,0,1-.258.211l-5.18-1.947a.192.192,0,0,1-.054-.329l4.275-3.513a.193.193,0,0,1,.313.117l.2,1.2a.75.75,0,0,0,1,.58,21.549,21.549,0,0,0,13.742-16.8.721.721,0,1,1,1.424.225,23.093,23.093,0,0,1-9.657,15.313.75.75,0,0,0,.853,1.233,24.6,24.6,0,0,0,10.285-16.312,2.22,2.22,0,0,0-1.847-2.539Z" transform="translate(-231.913 -241.834)"/>
        <path id="Path_1008412" data-name="Path 1008412" d="M22.442,277.288A20.048,20.048,0,0,1,7.15,265.352l.281-.047a1.692,1.692,0,0,0,1.031-2.743l-3.513-4.276a1.692,1.692,0,0,0-2.891.479L.11,263.945a1.692,1.692,0,0,0,1.86,2.264l.7-.115a24.559,24.559,0,0,0,19.086,15.58,2.234,2.234,0,0,0,.347.027,2.22,2.22,0,0,0,.344-4.414Zm.367,2.305a.72.72,0,0,1-.825.6A23.057,23.057,0,0,1,3.868,265.008a.748.748,0,0,0-.831-.494l-1.311.217a.193.193,0,0,1-.212-.258l1.947-5.18a.193.193,0,0,1,.33-.055L7.3,263.514a.193.193,0,0,1-.118.313l-1.2.2a.75.75,0,0,0-.58,1,21.55,21.55,0,0,0,16.8,13.742.721.721,0,0,1,.6.825Z" transform="translate(0 -231.915)"/>
        <path id="Path_1008413" data-name="Path 1008413" d="M133.485,118.181a15.3,15.3,0,1,0-15.3,15.3A15.321,15.321,0,0,0,133.485,118.181Zm-15.3,13.8a13.8,13.8,0,1,1,13.8-13.8A13.82,13.82,0,0,1,118.181,131.986Z" transform="translate(-92.596 -92.596)"/>
        <path id="Path_1008414" data-name="Path 1008414" d="M151.435,139.824a11.618,11.618,0,0,0-11.22,14.607.75.75,0,1,0,1.448-.387A10.117,10.117,0,1,1,142.991,157a.75.75,0,0,0-1.251.826,11.611,11.611,0,1,0,9.695-18Z" transform="translate(-125.85 -125.849)"/>
        <path id="Path_1008415" data-name="Path 1008415" d="M221,191.857a.75.75,0,1,0-.821,1.254,4.5,4.5,0,0,0,2.458.861v.811a.75.75,0,1,0,1.5,0v-.87a3.672,3.672,0,0,0,2.882-3.012,3.224,3.224,0,0,0-2.219-3.689c-.218-.077-.44-.158-.662-.242v-3.546a2.311,2.311,0,0,1,.913.437.75.75,0,1,0,.959-1.153,3.94,3.94,0,0,0-1.871-.808v-.725a.75.75,0,1,0-1.5,0v.781c-.111.025-.224.053-.34.088a3.052,3.052,0,0,0-2.091,2.395,2.688,2.688,0,0,0,.88,2.648,7.239,7.239,0,0,0,1.551.888v4.494A3.079,3.079,0,0,1,221,191.857Zm1.012-5.948a1.209,1.209,0,0,1-.332-1.191,1.586,1.586,0,0,1,.957-1.2v2.8A4.5,4.5,0,0,1,222.012,185.909Zm2.287,2.717a1.749,1.749,0,0,1,1.241,2.027,2.2,2.2,0,0,1-1.4,1.7v-3.789Z" transform="translate(-197.869 -162.394)"/>
      </g>
    </g>
  </g>
</svg>
