<svg xmlns="http://www.w3.org/2000/svg" width="96" height="96" viewBox="0 0 96 96">
  <g id="img5" transform="translate(-383.746 -8400.001)">
    <path id="Path_997400" data-name="Path 997400" d="M48,0A48,48,0,1,1,0,48,48,48,0,0,1,48,0Z" transform="translate(383.746 8400.001)" fill="#ff9a1a"/>
    <g id="XMLID_2112_" transform="translate(399.487 8415.746)">
      <g id="XMLID_428_" transform="translate(0.005)">
        <path id="XMLID_760_" d="M55.021,82.561a13.857,13.857,0,0,0-1.483-6.2l2.227-2.227a4.28,4.28,0,0,0-3.02-7.307,4.278,4.278,0,0,0-4.276-4.274A4.278,4.278,0,0,0,44.2,58.274a4.282,4.282,0,0,0-7.309-3.02l-4.417,4.417-2.458-2.458A4.282,4.282,0,0,0,22.7,60.235a4.278,4.278,0,0,0-4.274,4.272,4.281,4.281,0,0,0-3.739,6.352A4.279,4.279,0,0,0,13,77.953l1.783,1.783L.614,93.905A1.26,1.26,0,1,0,2.4,95.687L12,86.082l9,9L6.587,109.492a1.26,1.26,0,1,0,1.782,1.782L27.848,91.794a4.582,4.582,0,0,1,1.209-.868l3.049,2.008A9.67,9.67,0,0,0,38.95,94.4l16.941,16.941a1.26,1.26,0,0,0,1.782-1.782l-9.829-9.829,1.188-1.188a1.26,1.26,0,0,0-1.782-1.782l-1.188,1.188L43.28,95.162,53.669,84.773l2.782,2.782-1.186,1.186a1.26,1.26,0,1,0,1.782,1.782l1.186-1.186,4.34,4.34A1.26,1.26,0,0,0,64.355,91.9ZM38.669,57.036a1.762,1.762,0,0,1,2.492,2.492L38.392,62.3a1.26,1.26,0,0,0,1.782,1.782l2.769-2.769A1.762,1.762,0,1,1,45.435,63.8l-4.228,4.228a1.26,1.26,0,1,0,1.782,1.782l4.228-4.228a1.762,1.762,0,1,1,2.492,2.492L45.481,72.3a1.26,1.26,0,1,0,1.782,1.782l4.228-4.228a1.762,1.762,0,0,1,2.492,2.492L43.568,82.763a17.538,17.538,0,0,1-12.483,5.171,7.055,7.055,0,0,0-3.576.965l-7.293-7.293a4.286,4.286,0,0,0,2.767-4,4.274,4.274,0,0,0,4.272-4.272,4.278,4.278,0,0,0,4.274-4.274,4.282,4.282,0,0,0,3.022-7.309l-.3-.3ZM25.74,59a1.762,1.762,0,0,1,2.492,0l4.538,4.537a1.762,1.762,0,0,1-2.491,2.492h0L25.74,61.487a1.762,1.762,0,0,1,0-2.492Zm-4.274,4.274a1.764,1.764,0,0,1,2.492,0L28.5,67.806A1.762,1.762,0,0,1,26,70.3h0L21.466,65.76a1.762,1.762,0,0,1,0-2.492Zm-4.274,4.274a1.762,1.762,0,0,1,2.492,0l4.537,4.537a1.762,1.762,0,1,1-2.492,2.492l-4.537-4.537a1.764,1.764,0,0,1,0-2.492Zm-2.411,6.137a1.764,1.764,0,0,1,2.491,0l2.676,2.676a1.762,1.762,0,0,1-2.491,2.492h0l-2.674-2.674a1.764,1.764,0,0,1,0-2.492Zm-1,10.621,2.782-2.782,9,9L22.781,93.3Zm26.473,7.838A1.258,1.258,0,0,0,39.07,91.8a7.139,7.139,0,0,1-5.578-.975l-.682-.45a20.021,20.021,0,0,0,12.54-5.835l6.288-6.288a11.341,11.341,0,0,1,.86,4.125l-11,11Z" transform="translate(-0.215 -47.196)" fill="#593609"/>
        <path id="XMLID_805_" d="M402.554,358.994a1.259,1.259,0,1,0,.891-.369A1.267,1.267,0,0,0,402.554,358.994Z" transform="translate(-351.513 -313.44)" fill="#593609"/>
        <path id="XMLID_809_" d="M23.862,25.639a1.26,1.26,0,0,0,1.782-1.782l-5.931-5.931a1.26,1.26,0,1,0-1.782,1.782Z" transform="translate(-15.35 -15.345)" fill="#593609"/>
        <path id="XMLID_858_" d="M113.265,6.869a1.26,1.26,0,0,0,1.26-1.26V1.26a1.26,1.26,0,1,0-2.52,0V5.609a1.26,1.26,0,0,0,1.26,1.26Z" transform="translate(-97.894)" fill="#593609"/>
        <path id="XMLID_1014_" d="M1.265,114.52H5.614a1.26,1.26,0,1,0,0-2.52H1.265a1.26,1.26,0,1,0,0,2.52Z" transform="translate(-0.005 -97.889)" fill="#593609"/>
        <path id="XMLID_1020_" d="M428.635,26.008a1.256,1.256,0,0,0,.891-.369l5.931-5.931a1.26,1.26,0,0,0-1.782-1.782l-5.931,5.931a1.26,1.26,0,0,0,.891,2.151Z" transform="translate(-373.529 -15.345)" fill="#593609"/>
        <path id="XMLID_1029_" d="M381.265,6.869a1.26,1.26,0,0,0,1.26-1.26V1.26a1.26,1.26,0,0,0-2.52,0V5.609A1.26,1.26,0,0,0,381.265,6.869Z" transform="translate(-332.127)" fill="#593609"/>
        <path id="XMLID_1030_" d="M457.49,113.26a1.26,1.26,0,0,0,1.26,1.26H463.1a1.26,1.26,0,1,0,0-2.52H458.75A1.26,1.26,0,0,0,457.49,113.26Z" transform="translate(-399.85 -97.889)" fill="#593609"/>
      </g>
    </g>
  </g>
</svg>
