<svg xmlns="http://www.w3.org/2000/svg" width="60" height="60" viewBox="0 0 60 60">
  <g id="img60" transform="translate(-839.711 -14909)">
    <rect id="Image_Place_Holder" data-name="Image Place Holder" width="60" height="60" transform="translate(839.711 14909)" fill="#ff9a1a"/>
    <g id="Group_1181997" data-name="Group 1181997" transform="translate(845.159 14854.85)">
      <g id="Group_1181996" data-name="Group 1181996" transform="translate(0 65.999)">
        <path id="Path_1009718" data-name="Path 1009718" d="M92.864,346a2.862,2.862,0,1,0,2.862,2.862A2.865,2.865,0,0,0,92.864,346Zm0,3.816a.954.954,0,1,1,.954-.954A.955.955,0,0,1,92.864,349.818Z" transform="translate(-81.417 -319.292)" fill="#593609"/>
        <path id="Path_1009719" data-name="Path 1009719" d="M364.862,346a2.862,2.862,0,1,0,2.862,2.862A2.865,2.865,0,0,0,364.862,346Zm0,3.816a.954.954,0,1,1,.954-.954A.955.955,0,0,1,364.862,349.818Z" transform="translate(-327.468 -319.292)" fill="#593609"/>
        <path id="Path_1009720" data-name="Path 1009720" d="M47.887,91.059v-3.12a4.777,4.777,0,0,0-4.167-4.732l-3.665-7.15a4.015,4.015,0,0,0-3.711-2.427H29.19v-4.77A2.865,2.865,0,0,0,26.328,66H3.816A2.865,2.865,0,0,0,.954,68.861v22.2A1.907,1.907,0,0,0,0,92.709v1.908a1.91,1.91,0,0,0,1.908,1.908H4.839a6.677,6.677,0,0,0,13.216,0h2.072a.954.954,0,0,0,0-1.908H18.055a6.626,6.626,0,0,0-.576-1.908H31.362a6.623,6.623,0,0,0-.576,1.908H28.713a.954.954,0,0,0,0,1.908h2.072a6.677,6.677,0,0,0,13.216,0h2.931a1.91,1.91,0,0,0,1.908-1.908V92.709A1.908,1.908,0,0,0,47.887,91.059Zm-6.33-7.889h-4.64V79.354H39.6ZM12.21,67.907h5.724v7.042L15.5,73.731a.954.954,0,0,0-.853,0L12.21,74.949Zm-10.3,24.8H5.415a6.623,6.623,0,0,0-.576,1.908H1.908Zm9.539,7.631a4.77,4.77,0,1,1,4.77-4.77,4.775,4.775,0,0,1-4.77,4.77ZM16.114,90.8a6.662,6.662,0,0,0-9.334,0H2.862V88.893h.954a.954.954,0,0,0,0-1.908H2.862V68.861a.955.955,0,0,1,.954-.954H10.3v8.585a.954.954,0,0,0,1.381.853l3.389-1.694,3.389,1.694a.954.954,0,0,0,1.381-.853V67.907h6.487a.955.955,0,0,1,.954.954V90.8ZM29.19,75.538h7.154a2.16,2.16,0,0,1,2.013,1.389l.266.519h-2.66a.954.954,0,0,0-.954.954v5.724a.954.954,0,0,0,.954.954h7.154a2.866,2.866,0,0,1,2.7,1.908h-.79a.954.954,0,0,0,0,1.908h.954V90.8H42.06a6.662,6.662,0,0,0-9.334,0H29.19Zm8.2,24.8a4.77,4.77,0,1,1,4.77-4.77A4.775,4.775,0,0,1,37.394,100.34ZM44,94.617a6.625,6.625,0,0,0-.576-1.908h3.507v1.908Z" transform="translate(0 -65.999)" fill="#593609"/>
        <path id="Path_1009721" data-name="Path 1009721" d="M246.955,366h0a.954.954,0,1,0,.955.954A.954.954,0,0,0,246.955,366Z" transform="translate(-222.535 -337.383)" fill="#593609"/>
      </g>
    </g>
  </g>
</svg>
