<svg xmlns="http://www.w3.org/2000/svg" width="84" height="84" viewBox="0 0 84 84">
  <g id="img19" transform="translate(-612.711 -5078)">
    <rect id="Rectangle_455512" data-name="Rectangle 455512" width="84" height="84" rx="10" transform="translate(612.711 5078)" fill="#ff9a1a"/>
    <g id="Group_1180536" data-name="Group 1180536" transform="translate(625.211 5091)">
      <g id="Group_1180513" data-name="Group 1180513" transform="translate(3.071 2.571)">
        <g id="Group_1180509" data-name="Group 1180509" transform="translate(0 0)">
          <path id="Path_1004198" data-name="Path 1004198" d="M9.557,3.4V5.8a.391.391,0,0,1-.4.4H3.9a.391.391,0,0,1-.4-.4V3.4A.391.391,0,0,1,3.9,3H9.157A.391.391,0,0,1,9.557,3.4Z" transform="translate(-3.5 -3)" fill="#fff"/>
        </g>
        <g id="Group_1180510" data-name="Group 1180510" transform="translate(47.024 0)">
          <path id="Path_1004199" data-name="Path 1004199" d="M85.8,3.4V5.8a.391.391,0,0,0,.4.4h5.257a.391.391,0,0,0,.4-.4V3.4a.391.391,0,0,0-.4-.4H86.2A.429.429,0,0,0,85.8,3.4Z" transform="translate(-85.8 -3)" fill="#fff"/>
        </g>
        <g id="Group_1180511" data-name="Group 1180511" transform="translate(47.024 50.51)">
          <path id="Path_1004200" data-name="Path 1004200" d="M85.8,94.2V91.8a.391.391,0,0,1,.4-.4h5.257a.391.391,0,0,1,.4.4v2.4a.391.391,0,0,1-.4.4H86.2A.429.429,0,0,1,85.8,94.2Z" transform="translate(-85.8 -91.4)" fill="#fff"/>
        </g>
        <g id="Group_1180512" data-name="Group 1180512" transform="translate(0 50.51)">
          <path id="Path_1004201" data-name="Path 1004201" d="M9.557,94.2V91.8a.391.391,0,0,0-.4-.4H3.9a.391.391,0,0,0-.4.4v2.4a.391.391,0,0,0,.4.4H9.157A.391.391,0,0,0,9.557,94.2Z" transform="translate(-3.5 -91.4)" fill="#fff"/>
        </g>
      </g>
      <g id="Group_1180518" data-name="Group 1180518" transform="translate(3.071 2.571)">
        <g id="Group_1180514" data-name="Group 1180514" transform="translate(0 0)">
          <path id="Path_1004202" data-name="Path 1004202" d="M9.557,3.4V5.8a.391.391,0,0,1-.4.4H3.9a.391.391,0,0,1-.4-.4V4.886H7.614a.391.391,0,0,0,.4-.4V3H9.157A.391.391,0,0,1,9.557,3.4Z" transform="translate(-3.5 -3)" fill="#e4e3ff"/>
        </g>
        <g id="Group_1180515" data-name="Group 1180515" transform="translate(47.081 0)">
          <path id="Path_1004203" data-name="Path 1004203" d="M91.957,3.4V5.8a.391.391,0,0,1-.4.4H86.3a.391.391,0,0,1-.4-.4V4.886h4.114a.391.391,0,0,0,.4-.4V3h1.143A.391.391,0,0,1,91.957,3.4Z" transform="translate(-85.9 -3)" fill="#e4e3ff"/>
        </g>
        <g id="Group_1180516" data-name="Group 1180516" transform="translate(47.081 50.567)">
          <path id="Path_1004204" data-name="Path 1004204" d="M91.957,91.843v2.4a.391.391,0,0,1-.4.4H86.3a.391.391,0,0,1-.4-.4v-.857h4.114a.391.391,0,0,0,.4-.4V91.5h1.143A.382.382,0,0,1,91.957,91.843Z" transform="translate(-85.9 -91.5)" fill="#e4e3ff"/>
        </g>
        <g id="Group_1180517" data-name="Group 1180517" transform="translate(0 50.567)">
          <path id="Path_1004205" data-name="Path 1004205" d="M9.557,91.843v2.4a.391.391,0,0,1-.4.4H3.9a.391.391,0,0,1-.4-.4v-.857H7.614a.391.391,0,0,0,.4-.4V91.5H9.157A.382.382,0,0,1,9.557,91.843Z" transform="translate(-3.5 -91.5)" fill="#e4e3ff"/>
        </g>
      </g>
      <g id="Group_1180528" data-name="Group 1180528" transform="translate(9.756 9.256)">
        <g id="Group_1180519" data-name="Group 1180519" transform="translate(0.114 0)">
          <path id="Path_1004206" data-name="Path 1004206" d="M40.426,28.3a3.707,3.707,0,0,1-2.971-1.486,1.222,1.222,0,0,0-1.028-.514h-.114a1.268,1.268,0,0,0-1.257,1.257V30.87a3.56,3.56,0,0,1-3.543,3.543H28.2a1.268,1.268,0,0,1-1.257-1.257v-.114a1.389,1.389,0,0,1,.514-1.028,3.731,3.731,0,0,0-2.685-6.685,3.818,3.818,0,0,0-3.257,3.2,3.758,3.758,0,0,0,1.428,3.485,1.277,1.277,0,0,1,.571,1.028v.114a1.268,1.268,0,0,1-1.257,1.257H18.943A3.56,3.56,0,0,1,15.4,30.87V18.243A3.56,3.56,0,0,1,18.943,14.7H31.627a3.56,3.56,0,0,1,3.543,3.543v3.314a1.268,1.268,0,0,0,1.257,1.257h.114a1.389,1.389,0,0,0,1.028-.514,3.758,3.758,0,0,1,3.485-1.428,3.818,3.818,0,0,1,3.2,3.257A3.911,3.911,0,0,1,40.426,28.3Z" transform="translate(-15.4 -14.7)" fill="#fc6559"/>
        </g>
        <g id="Group_1180520" data-name="Group 1180520" transform="translate(11.656 6.171)">
          <path id="Path_1004207" data-name="Path 1004207" d="M49.084,32.928a3.707,3.707,0,0,1-2.971-1.486,1.222,1.222,0,0,0-1.028-.514h-.114a1.268,1.268,0,0,0-1.257,1.257V35.5a3.56,3.56,0,0,1-3.543,3.543H36.857A1.268,1.268,0,0,1,35.6,37.785V37.67a1.471,1.471,0,0,1,.4-.914h.971a3.56,3.56,0,0,0,3.543-3.543V29.9a1.268,1.268,0,0,1,1.257-1.257h.114a1.389,1.389,0,0,1,1.028.514A3.731,3.731,0,0,0,49.6,26.471a2.74,2.74,0,0,0-.286-.971h.343a3.731,3.731,0,0,1-.571,7.428Z" transform="translate(-35.6 -25.5)" fill="#f05543"/>
        </g>
        <g id="Group_1180521" data-name="Group 1180521" transform="translate(19.77)">
          <path id="Path_1004208" data-name="Path 1004208" d="M69.512,18.243V30.87a3.56,3.56,0,0,1-3.543,3.543H62.656A1.268,1.268,0,0,0,61.4,35.67v.114a1.277,1.277,0,0,0,.571,1.028A3.758,3.758,0,0,1,63.4,40.3a3.818,3.818,0,0,1-3.257,3.2,3.731,3.731,0,0,1-2.685-6.685,1.222,1.222,0,0,0,.514-1.028V35.67a1.268,1.268,0,0,0-1.257-1.257H53.4a3.549,3.549,0,0,1-3.543-3.485V27.556A1.268,1.268,0,0,1,51.114,26.3h.114a1.389,1.389,0,0,1,1.028.514,3.731,3.731,0,0,0,6.685-2.685,3.818,3.818,0,0,0-3.2-3.257A3.758,3.758,0,0,0,52.257,22.3a1.222,1.222,0,0,1-1.028.514h-.171A1.268,1.268,0,0,1,49.8,21.557V18.185A3.512,3.512,0,0,1,53.343,14.7H66.027a3.549,3.549,0,0,1,3.485,3.543Z" transform="translate(-49.8 -14.7)" fill="#5bc658"/>
        </g>
        <g id="Group_1180522" data-name="Group 1180522" transform="translate(25.998 0)">
          <path id="Path_1004209" data-name="Path 1004209" d="M74.184,18.243V30.87a3.56,3.56,0,0,1-3.543,3.543H67.328a1.268,1.268,0,0,0-1.257,1.257v.114a1.277,1.277,0,0,0,.571,1.028A3.758,3.758,0,0,1,68.071,40.3a3.818,3.818,0,0,1-3.257,3.2A3.735,3.735,0,0,1,60.7,40.526a2.454,2.454,0,0,0,.914,0,3.818,3.818,0,0,0,3.257-3.2,3.758,3.758,0,0,0-1.428-3.485,1.277,1.277,0,0,1-.571-1.028V32.7a1.268,1.268,0,0,1,1.257-1.257h3.314A3.56,3.56,0,0,0,70.985,27.9V15.271a1.944,1.944,0,0,0-.057-.571,3.51,3.51,0,0,1,3.257,3.543Z" transform="translate(-60.7 -14.7)" fill="#49a247"/>
        </g>
        <g id="Group_1180523" data-name="Group 1180523" transform="translate(10.597 19.768)">
          <path id="Path_1004210" data-name="Path 1004210" d="M62.632,52.784V65.469a3.56,3.56,0,0,1-3.543,3.543H46.4a3.56,3.56,0,0,1-3.543-3.543V62.155A1.268,1.268,0,0,0,41.605,60.9h-.114a1.389,1.389,0,0,0-1.028.514,3.758,3.758,0,0,1-3.485,1.428,3.818,3.818,0,0,1-3.2-3.257A3.731,3.731,0,0,1,40.462,56.9a1.222,1.222,0,0,0,1.028.514h.114a1.268,1.268,0,0,0,1.257-1.257V52.841A3.56,3.56,0,0,1,46.4,49.3h3.314a1.268,1.268,0,0,1,1.257,1.257v.114a1.389,1.389,0,0,1-.514,1.028,3.731,3.731,0,0,0,2.685,6.685,3.818,3.818,0,0,0,3.257-3.2A3.758,3.758,0,0,0,54.975,51.7,1.277,1.277,0,0,1,54.4,50.67v-.114A1.268,1.268,0,0,1,55.661,49.3h3.314a3.5,3.5,0,0,1,3.657,3.485Z" transform="translate(-33.747 -49.297)" fill="#a2a2f9"/>
        </g>
        <g id="Group_1180524" data-name="Group 1180524" transform="translate(19.77 19.712)">
          <path id="Path_1004211" data-name="Path 1004211" d="M69.512,52.743V65.427A3.56,3.56,0,0,1,65.97,68.97H53.285A3.514,3.514,0,0,1,49.8,65.941a1.258,1.258,0,0,0,.457.057H62.942a3.56,3.56,0,0,0,3.543-3.543V49.771a2.143,2.143,0,0,0-.057-.571A3.616,3.616,0,0,1,69.512,52.743Z" transform="translate(-49.8 -49.2)" fill="#7979f7"/>
        </g>
        <g id="Group_1180525" data-name="Group 1180525" transform="translate(0 10.597)">
          <path id="Path_1004212" data-name="Path 1004212" d="M34.97,58.646a3.512,3.512,0,0,1-3.543,3.485H18.743A3.56,3.56,0,0,1,15.2,58.589V45.9a3.56,3.56,0,0,1,3.543-3.543h3.314a1.268,1.268,0,0,0,1.257-1.257v-.114a1.277,1.277,0,0,0-.571-1.028,3.758,3.758,0,0,1-1.428-3.485,3.818,3.818,0,0,1,3.257-3.2,3.731,3.731,0,0,1,2.685,6.685,1.222,1.222,0,0,0-.514,1.028v.114A1.268,1.268,0,0,0,28,42.362h3.314a3.549,3.549,0,0,1,3.543,3.485v3.371A1.268,1.268,0,0,1,33.6,50.476h-.114a1.389,1.389,0,0,1-1.028-.514,3.546,3.546,0,0,0-2.914-1.428A3.725,3.725,0,0,0,25.828,52.7a3.818,3.818,0,0,0,3.2,3.257,3.758,3.758,0,0,0,3.485-1.428,1.222,1.222,0,0,1,1.028-.514h.114a1.268,1.268,0,0,1,1.257,1.257l.057,3.371h0Z" transform="translate(-15.2 -33.247)" fill="#f7f363"/>
        </g>
        <g id="Group_1180526" data-name="Group 1180526" transform="translate(16.17 19.712)">
          <path id="Path_1004213" data-name="Path 1004213" d="M43.557,49.2H43.5v6.571A3.4,3.4,0,0,1,44.7,56.8a1.222,1.222,0,0,0,1.028.514h.114A1.268,1.268,0,0,0,47.1,56.057V52.685A3.587,3.587,0,0,0,43.557,49.2Z" transform="translate(-43.5 -49.2)" fill="#f7e839"/>
        </g>
        <g id="Group_1180527" data-name="Group 1180527" transform="translate(0 31.369)">
          <path id="Path_1004214" data-name="Path 1004214" d="M34.97,74.228a3.512,3.512,0,0,1-3.543,3.485H18.743A3.579,3.579,0,0,1,15.2,74.571H27.827a3.538,3.538,0,0,0,3.543-3.428,2.822,2.822,0,0,0,1.143-1.028,1.222,1.222,0,0,1,1.028-.514h.114a1.268,1.268,0,0,1,1.257,1.257l.057,3.371h0Z" transform="translate(-15.2 -69.6)" fill="#f7e839"/>
        </g>
      </g>
      <g id="Group_1180529" data-name="Group 1180529" transform="translate(2.5 2)">
        <path id="Path_1004215" data-name="Path 1004215" d="M8.785,2H3.471a1,1,0,0,0-.971.971v2.4a1,1,0,0,0,.971.971H8.785a1,1,0,0,0,.971-.971v-2.4A1.044,1.044,0,0,0,8.785,2ZM8.557,5.143H3.643v-2H8.557Z" transform="translate(-2.5 -2)" fill="#1b1b1b"/>
        <path id="Path_1004216" data-name="Path 1004216" d="M56.209,54.3H48.781a.814.814,0,0,1-.686-.343l-.571-.8A4.071,4.071,0,0,0,49.81,49.5V36.755a4.1,4.1,0,0,0-2.057-3.543A4.23,4.23,0,0,0,49.81,29.67V17.042a4.081,4.081,0,0,0-1.886-3.428l.114-.171a.871.871,0,0,1,.686-.4h7.428a.571.571,0,1,0,0-1.143H48.724a2.083,2.083,0,0,0-1.657.857L46.9,13.1a4.35,4.35,0,0,0-1.2-.171H33.011a4.176,4.176,0,0,0-3.543,2,4.176,4.176,0,0,0-3.543-2H13.3a5.032,5.032,0,0,0-.971.114l-.171-.286A1.936,1.936,0,0,0,10.5,11.9H3.071a.571.571,0,0,0,0,1.143H10.5a.748.748,0,0,1,.686.343l.057.057a4.1,4.1,0,0,0-2.057,3.543V29.67a4.1,4.1,0,0,0,2.057,3.543,4.155,4.155,0,0,0-2.057,3.543V49.439A4.069,4.069,0,0,0,11.7,53.211l-.457.686a.814.814,0,0,1-.686.343H3.129a.573.573,0,0,0-.571.571.54.54,0,0,0,.571.571h7.428a2,2,0,0,0,1.657-.857L12.9,53.5H26.041a4.176,4.176,0,0,0,3.543-2,4.176,4.176,0,0,0,3.543,2H45.81a2.782,2.782,0,0,0,.686-.057l.743,1.086a1.869,1.869,0,0,0,1.657.857h7.428a.573.573,0,0,0,.571-.571.8.8,0,0,0-.686-.514Zm-23.2-40.225H45.7a1.582,1.582,0,0,1,.514.057l-3.657,5.428a.578.578,0,0,0,.971.629L47.3,14.528a2.958,2.958,0,0,1,1.371,2.457V29.67A2.951,2.951,0,0,1,45.7,32.641H42.382A1.909,1.909,0,0,0,41.3,36.069a3.078,3.078,0,0,1,1.2,2.971,3.159,3.159,0,0,1-6.285-.457,3.112,3.112,0,0,1,1.257-2.514,1.9,1.9,0,0,0-1.086-3.428H33.011a3.014,3.014,0,0,1-2.971-2.914V26.356a.753.753,0,0,1,1.371-.4A4.222,4.222,0,0,0,34.84,27.67a4.331,4.331,0,0,0,4.285-4.857,4.32,4.32,0,0,0-7.714-2.057.75.75,0,0,1-1.371-.4V16.985a2.975,2.975,0,0,1,2.971-2.914ZM30.955,33.212A4.114,4.114,0,0,0,29.469,34.7a3.97,3.97,0,0,0-1.486-1.428,4.114,4.114,0,0,0,1.486-1.486A5.045,5.045,0,0,0,30.955,33.212ZM10.328,29.67V17.042a2.848,2.848,0,0,1,1.543-2.571l3.885,5.771a.578.578,0,1,0,.971-.629L13.07,14.128h12.97a2.976,2.976,0,0,1,2.971,2.914v3.371A1.909,1.909,0,0,0,32.44,21.5,3.171,3.171,0,0,1,38.1,23.042a3.173,3.173,0,0,1-3.143,3.543,3.035,3.035,0,0,1-2.514-1.257,1.9,1.9,0,0,0-3.428,1.086V29.67a2.951,2.951,0,0,1-2.971,2.971H22.727a.66.66,0,0,1-.686-.686v-.114a.7.7,0,0,1,.286-.571,4.386,4.386,0,0,0,1.714-3.428A4.332,4.332,0,1,0,17.07,31.27a.871.871,0,0,1,.343.571v.114a.66.66,0,0,1-.686.686H13.356a2.964,2.964,0,0,1-3.028-2.971ZM25.984,52.411h-12.4l3.085-4.628a.578.578,0,1,0-.971-.629l-3.428,5.085a2.974,2.974,0,0,1-2-2.8V36.755a2.951,2.951,0,0,1,2.971-2.971h3.314a1.841,1.841,0,0,0,1.828-1.828v-.114a1.9,1.9,0,0,0-.743-1.486,3.2,3.2,0,1,1,3.885,0,1.741,1.741,0,0,0-.743,1.486v.114a1.805,1.805,0,0,0,1.828,1.828h3.314A2.976,2.976,0,0,1,28.9,36.7v3.371a.763.763,0,0,1-1.371.4A4.222,4.222,0,0,0,24.1,38.755a4.307,4.307,0,0,0-.629,8.571,4.176,4.176,0,0,0,4-1.657.753.753,0,0,1,1.371.4v3.371a2.856,2.856,0,0,1-2.857,2.971ZM46.9,52.125,43.525,47.1a.578.578,0,0,0-.971.629l3.085,4.628H33.011a2.976,2.976,0,0,1-2.971-2.914V46.068a1.9,1.9,0,0,0-3.428-1.086,3.171,3.171,0,0,1-5.657-1.543A3.173,3.173,0,0,1,24.1,39.9a3.035,3.035,0,0,1,2.514,1.257,1.9,1.9,0,0,0,3.428-1.086V36.755a2.951,2.951,0,0,1,2.971-2.971h3.371a.763.763,0,0,1,.4,1.371,4.474,4.474,0,0,0-1.714,3.428,4.331,4.331,0,0,0,4.857,4.285,4.32,4.32,0,0,0,2.057-7.714.75.75,0,0,1,.4-1.371H45.7a2.951,2.951,0,0,1,2.971,2.971V49.439A2.959,2.959,0,0,1,46.9,52.125Z" transform="translate(-2.5 -6.243)" fill="#1b1b1b"/>
        <path id="Path_1004217" data-name="Path 1004217" d="M91.085,2H85.771a1,1,0,0,0-.971.971v2.4a1,1,0,0,0,.971.971h5.314a1,1,0,0,0,.971-.971v-2.4A1,1,0,0,0,91.085,2Zm-.171,3.143H86v-2h4.914Z" transform="translate(-37.776 -2)" fill="#1b1b1b"/>
        <path id="Path_1004218" data-name="Path 1004218" d="M91.085,90.5H85.771a1,1,0,0,0-.971.971v2.4a1,1,0,0,0,.971.971h5.314a1,1,0,0,0,.971-.971v-2.4A.963.963,0,0,0,91.085,90.5Zm-.171,3.143H86v-2h4.914Z" transform="translate(-37.776 -39.933)" fill="#1b1b1b"/>
        <path id="Path_1004219" data-name="Path 1004219" d="M8.785,90.5H3.471a1,1,0,0,0-.971.971v2.4a1,1,0,0,0,.971.971H8.785a1,1,0,0,0,.971-.971v-2.4A1,1,0,0,0,8.785,90.5Zm-.229,3.143H3.643v-2H8.557Z" transform="translate(-2.5 -39.933)" fill="#1b1b1b"/>
      </g>
      <g id="Group_1180532" data-name="Group 1180532" transform="translate(18.384 11.999)">
        <g id="Group_1180530" data-name="Group 1180530" transform="translate(2.914)">
          <path id="Path_1004220" data-name="Path 1004220" d="M39.571,20.643h-3.6a.571.571,0,0,1,0-1.143h3.6a.571.571,0,0,1,0,1.143Z" transform="translate(-35.4 -19.5)" fill="#fff"/>
        </g>
        <g id="Group_1180531" data-name="Group 1180531">
          <path id="Path_1004221" data-name="Path 1004221" d="M31.271,20.643h-.4a.571.571,0,1,1,0-1.143h.4a.571.571,0,0,1,0,1.143Z" transform="translate(-30.3 -19.5)" fill="#fff"/>
        </g>
      </g>
      <g id="Group_1180535" data-name="Group 1180535" transform="translate(31.697 37.711)">
        <g id="Group_1180533" data-name="Group 1180533" transform="translate(0 2.171)">
          <path id="Path_1004222" data-name="Path 1004222" d="M54.171,72.414a.54.54,0,0,1-.571-.571V68.871a.571.571,0,1,1,1.143,0v2.971A.614.614,0,0,1,54.171,72.414Z" transform="translate(-53.6 -68.3)" fill="#fff"/>
        </g>
        <g id="Group_1180534" data-name="Group 1180534">
          <path id="Path_1004223" data-name="Path 1004223" d="M54.171,65.986a.54.54,0,0,1-.571-.571v-.343a.571.571,0,0,1,1.143,0v.343A.614.614,0,0,1,54.171,65.986Z" transform="translate(-53.6 -64.5)" fill="#fff"/>
        </g>
      </g>
    </g>
  </g>
</svg>
