<svg xmlns="http://www.w3.org/2000/svg" width="84" height="84" viewBox="0 0 84 84">
  <g id="img16" transform="translate(-185.711 -4591)">
    <rect id="Rectangle_455509" data-name="Rectangle 455509" width="84" height="84" rx="5" transform="translate(185.711 4591)" fill="#faf2df"/>
    <g id="Group_1180507" data-name="Group 1180507" transform="translate(196.811 4602.105)">
      <g id="Group_1180506" data-name="Group 1180506" transform="translate(1.943 1.937)">
        <g id="Group_1180502" data-name="Group 1180502" transform="translate(0 0)">
          <path id="Path_1004183" data-name="Path 1004183" d="M10.524,9H34.675A1.527,1.527,0,0,1,36.2,10.524V34.675A1.527,1.527,0,0,1,34.675,36.2H10.524A1.527,1.527,0,0,1,9,34.675V10.524A1.527,1.527,0,0,1,10.524,9Z" transform="translate(-9 -9)" fill="#72d561" fill-rule="evenodd"/>
          <g id="Group_1180501" data-name="Group 1180501" transform="translate(4.362 2.602)">
            <path id="Path_1004184" data-name="Path 1004184" d="M75.914,63.9c3.606,12.319-1.776,9.433-1.667,16.046,0,.111-6.511.592-8.829.839-.441.047-7.074-12.257-4.475-12.942Z" transform="translate(-58.685 -60.07)" fill="#ffd6bd" fill-rule="evenodd"/>
            <path id="Path_1004185" data-name="Path 1004185" d="M83.42,32.182a1.862,1.862,0,0,1,1.856,1.856v-.987a1.856,1.856,0,0,1,3.713,0v.831a1.7,1.7,0,1,1,3.408,0v.838a1.7,1.7,0,1,1,3.408,0v2.742a1.7,1.7,0,1,1-3.408,0,1.7,1.7,0,0,1-3.408,0V37.31a1.856,1.856,0,0,1-3.713,0v-.075a1.856,1.856,0,1,1-3.713,0v-3.2A1.862,1.862,0,0,1,83.42,32.182Z" transform="translate(-77.419 -31.195)" fill="#f9c6aa" fill-rule="evenodd"/>
            <path id="Path_1004186" data-name="Path 1004186" d="M103.079,33.121a1.69,1.69,0,0,1,.586-.1,1.709,1.709,0,0,1,1.7,1.7v2.742a1.709,1.709,0,0,1-1.7,1.7,1.687,1.687,0,0,1-.586-.1,1.711,1.711,0,0,0,1.118-1.6V34.72A1.711,1.711,0,0,0,103.079,33.121Zm-6.968-1.83a1.84,1.84,0,0,1,.586-.1,1.862,1.862,0,0,1,1.856,1.856V37.31A1.862,1.862,0,0,1,96.7,39.166a1.839,1.839,0,0,1-.586-.1,1.863,1.863,0,0,0,1.27-1.761V33.051a1.864,1.864,0,0,0-1.27-1.761Zm-3.126.891a1.862,1.862,0,0,1,1.856,1.856v3.2a1.862,1.862,0,0,1-1.856,1.856A1.843,1.843,0,0,1,92.4,39a1.864,1.864,0,0,0,1.27-1.761v-3.2a1.864,1.864,0,0,0-1.27-1.761,1.842,1.842,0,0,1,.586-.1Zm6.687.1a1.69,1.69,0,0,1,.586-.1,1.709,1.709,0,0,1,1.7,1.7v3.58a1.709,1.709,0,0,1-1.7,1.7,1.687,1.687,0,0,1-.586-.1,1.711,1.711,0,0,0,1.118-1.6v-3.58A1.711,1.711,0,0,0,99.671,32.283Z" transform="translate(-86.983 -31.195)" fill="#eaab92" fill-rule="evenodd"/>
            <path id="Path_1004187" data-name="Path 1004187" d="M58.341,82.681c0-.156-7.345.711-7.363.557-.6-5.058-8.887-9.106-2.139-15.435a2.3,2.3,0,0,1,1.634-.646h6.97a.317.317,0,0,1,.317.348,3.711,3.711,0,0,1-3.681,3.349H52.338a1.485,1.485,0,0,0-1.087,2.675c1.132.921,4.3-1.185,5.918,3.074Z" transform="translate(-46.206 -62.94)" fill="#ffd6bd" fill-rule="evenodd"/>
            <path id="Path_1004188" data-name="Path 1004188" d="M58.342,82.894c0-.156-7.345.711-7.363.557-.452-3.794-5.227-7.02-4.736-11.067.408,3.515,4.329,6.474,4.736,9.895.016.138,5.892-.541,7.134-.574Zm-4.262-13c-.733,0-1.467-.007-2.2-.007a2.134,2.134,0,0,0-1.487,3.685,3.4,3.4,0,0,0,2.873.8c1.044-.053,2.078-.105,2.9,2.054a.585.585,0,1,0,1.095-.412c-1.123-2.958-2.578-2.884-4.048-2.81a2.486,2.486,0,0,1-2.017-.482c-.853-.806.354-1.658,1.145-1.658H54.08a3.711,3.711,0,0,0,3.681-3.349.317.317,0,0,0-.185-.32A3.713,3.713,0,0,1,54.08,69.9Z" transform="translate(-46.207 -63.154)" fill="#f9c6aa" fill-rule="evenodd"/>
            <path id="Path_1004189" data-name="Path 1004189" d="M70.084,189.7H83.266a.561.561,0,0,1,.559.559v2.294a.561.561,0,0,1-.559.559H70.084a.561.561,0,0,1-.559-.559v-2.294A.56.56,0,0,1,70.084,189.7Z" transform="translate(-66.791 -171.115)" fill="#b4d2d7" fill-rule="evenodd"/>
          </g>
        </g>
        <g id="Group_1180503" data-name="Group 1180503" transform="translate(30.716 0)">
          <path id="Path_1004190" data-name="Path 1004190" d="M298.2,34.675V10.524A1.527,1.527,0,0,0,296.675,9H272.524A1.527,1.527,0,0,0,271,10.524V34.675a1.527,1.527,0,0,0,1.524,1.524h24.151A1.527,1.527,0,0,0,298.2,34.675Z" transform="translate(-271 -9)" fill="#ffda2d" fill-rule="evenodd"/>
          <path id="Path_1004191" data-name="Path 1004191" d="M333.369,44.831l-.4-7.891,2.9-1.524h8.19a1.513,1.513,0,1,1,0,3.026h.758a1.517,1.517,0,0,1,0,3.035h.759a1.517,1.517,0,0,1,0,3.035h.759a1.517,1.517,0,0,1,0,3.035l-5.4-.027c.576,2.242,1.509,5.21,1.6,6.156.2,2.183-1.605,3.728-2.637,2.012Z" transform="translate(-325.702 -32.319)" fill="#ffd6bd" fill-rule="evenodd"/>
          <path id="Path_1004192" data-name="Path 1004192" d="M314.613,35.416h2.138a.519.519,0,0,1,.517.517V46.509a.519.519,0,0,1-.517.517h-2.138a.519.519,0,0,1-.517-.517V35.933A.519.519,0,0,1,314.613,35.416Z" transform="translate(-309.044 -32.319)" fill="#64b5f6" fill-rule="evenodd"/>
        </g>
        <g id="Group_1180504" data-name="Group 1180504" transform="translate(30.716 30.716)">
          <path id="Path_1004193" data-name="Path 1004193" d="M272.524,298.2h24.151a1.527,1.527,0,0,0,1.524-1.524V272.524A1.527,1.527,0,0,0,296.675,271H272.524A1.527,1.527,0,0,0,271,272.524v24.151A1.527,1.527,0,0,0,272.524,298.2Z" transform="translate(-271 -271)" fill="#fc685b" fill-rule="evenodd"/>
          <path id="Path_1004194" data-name="Path 1004194" d="M361.568,326.115h2.3a.841.841,0,0,1,.838.838v6.253a.841.841,0,0,1-.838.838h-2.3a.841.841,0,0,1-.839-.838v-6.253A.841.841,0,0,1,361.568,326.115Z" transform="translate(-350.209 -319.654)" fill="#8d9ca8" fill-rule="evenodd"/>
          <circle id="Ellipse_13893" data-name="Ellipse 13893" cx="7.522" cy="7.522" r="7.522" transform="translate(4.712 23.716) rotate(-88.108)" fill="#596c76"/>
        </g>
        <g id="Group_1180505" data-name="Group 1180505" transform="translate(0 30.716)">
          <path id="Path_1004195" data-name="Path 1004195" d="M36.2,272.524v24.151a1.527,1.527,0,0,1-1.524,1.524H10.524A1.527,1.527,0,0,1,9,296.675V272.524A1.527,1.527,0,0,1,10.524,271H34.675A1.527,1.527,0,0,1,36.2,272.524Z" transform="translate(-9 -271)" fill="#64b5f6" fill-rule="evenodd"/>
          <path id="Path_1004196" data-name="Path 1004196" d="M49.008,313.332l9.669-9.708L58.9,300.3l-3.311.221.088,2.254-2.245-.088.088,2.254-2.245-.088.088,2.254-2.245-.088-3.2,3.209h0a5.381,5.381,0,1,0,3.444,5.024A5.376,5.376,0,0,0,49.008,313.332Z" transform="translate(-35.173 -296.864)" fill="#ffda2d" fill-rule="evenodd"/>
          <ellipse id="Ellipse_13894" data-name="Ellipse 13894" cx="2.066" cy="2.074" rx="2.066" ry="2.074" transform="translate(6.765 16.313)" fill="#eff4f7"/>
        </g>
      </g>
      <path id="Path_1004197" data-name="Path 1004197" d="M51.683,39.187a.939.939,0,0,1,.348,1.281l-.509.872a.931.931,0,0,1-.813.469.917.917,0,0,1-.464-.126A.938.938,0,0,1,49.9,40.4l.5-.872A.933.933,0,0,1,51.683,39.187ZM54.547,40.4l-.5-.873a.938.938,0,0,0-1.626.938l.5.872a.938.938,0,0,0,1.626-.938ZM52.59,35.745l.5-.872a.938.938,0,1,1,1.626.938l-.5.872a.938.938,0,1,1-1.626-.938Zm3.594,2.509a.938.938,0,0,1-.94.938H54.237a.938.938,0,0,1,0-1.876h1.006a.938.938,0,0,1,.94.938ZM46.1,44.387a.938.938,0,0,1-.934.938A3.772,3.772,0,0,0,41.4,49.1a.94.94,0,0,1-1.88,0,5.654,5.654,0,0,1,5.651-5.647.937.937,0,0,1,.934.938Zm-.934,11.294A6.585,6.585,0,1,0,38.584,49.1,6.6,6.6,0,0,0,45.169,55.681ZM44.113,40.053H46.22V40.7a8.249,8.249,0,0,0-2.107,0Zm3.981,1.106V39.953a1.778,1.778,0,0,0-1.775-1.777H46.1V36.84h3.76a.763.763,0,0,1,.691.4l.857,1.482a.938.938,0,1,0,1.626-.938L52.18,36.3a2.65,2.65,0,0,0-2.317-1.338H46.037a1.811,1.811,0,0,0-1.808,1.807v1.405h-.216a1.778,1.778,0,0,0-1.775,1.777v1.205a8.463,8.463,0,1,0,5.856,0ZM10.771,52.177A1.137,1.137,0,1,1,11.9,51.04,1.135,1.135,0,0,1,10.771,52.177Zm0-4.149a3.012,3.012,0,1,0,3.008,3.012A3.012,3.012,0,0,0,10.771,48.028ZM24.534,39l.127-1.905-1.333.089.05,1.343a.933.933,0,0,1-.973.973l-1.233-.048.05,1.241a.941.941,0,0,1-.973.973l-1.233-.048.05,1.241a.925.925,0,0,1-.276.7.939.939,0,0,1-.7.274l-1.83-.072-2.908,2.917a.976.976,0,0,1-.243.178.941.941,0,0,1-.758.036,4.378,4.378,0,0,0-1.576-.291,4.422,4.422,0,1,0,4.13,2.854.935.935,0,0,1,.21-1ZM25.6,35.152l-3.307.221a.943.943,0,0,0-.879.973l.05,1.241-1.233-.048a.941.941,0,0,0-.973.973l.05,1.241L18.075,39.7a.932.932,0,0,0-.973.973l.05,1.241-1.233-.049a.946.946,0,0,0-.7.275l-2.787,2.8a6.318,6.318,0,1,0,4.639,6.094,6.456,6.456,0,0,0-.221-1.663l9.262-9.3a.943.943,0,0,0,.271-.6L26.6,36.15a.936.936,0,0,0-1-1Zm2.6-7.54a.589.589,0,0,1-.586.587H3.467a.589.589,0,0,1-.586-.587V3.461a.589.589,0,0,1,.586-.586H27.619a.589.589,0,0,1,.586.586ZM27.619,1H3.467A2.462,2.462,0,0,0,1.006,3.461V27.612a2.462,2.462,0,0,0,2.461,2.462H27.619a2.466,2.466,0,0,0,2.461-2.462V3.461A2.465,2.465,0,0,0,27.619,1ZM53.3,16.225,47.9,16.2a.934.934,0,0,0-.912,1.171c.21.81.459,1.706.7,2.573a33.41,33.41,0,0,1,.868,3.437,2.078,2.078,0,0,1-.42,1.569.449.449,0,0,1-.221.154c-.022,0-.127-.062-.254-.28l-5.839-9.7v-8.5l1.239-.649h7.957a.575.575,0,1,1,0,1.15H48.172a.938.938,0,0,0,0,1.876h3.605a.58.58,0,0,1,0,1.159H48.929a.938.938,0,0,0,0,1.876h3.605a.58.58,0,0,1,0,1.159H49.692a.938.938,0,1,0,0,1.876h3.6a.58.58,0,0,1,.005,1.159Zm-14.647-.52V5.972h1.294v9.734Zm16.1-2.036a2.5,2.5,0,0,0,.238-1.058,2.448,2.448,0,0,0-1-1.976A2.442,2.442,0,0,0,53.225,7.6a2.413,2.413,0,0,0,.243-1.054A2.455,2.455,0,0,0,51.014,4.1H42.825a.959.959,0,0,0-.437.108l-.874.459a1.45,1.45,0,0,0-1.15-.567H38.23a1.457,1.457,0,0,0-1.454,1.455V16.126a1.457,1.457,0,0,0,1.454,1.455h2.134a1.42,1.42,0,0,0,.652-.157l5.032,8.363a2.172,2.172,0,0,0,1.869,1.187,1.92,1.92,0,0,0,.6-.1A3.444,3.444,0,0,0,50.422,23.2a30.7,30.7,0,0,0-.929-3.771c-.127-.449-.254-.907-.381-1.354l4.18.021a2.457,2.457,0,0,0,1.454-4.431Zm4.175,13.942V3.461a.589.589,0,0,0-.586-.586H34.182a.589.589,0,0,0-.586.586V27.611a.589.589,0,0,0,.586.587H58.335A.589.589,0,0,0,58.921,27.611ZM58.335,1H34.182a2.462,2.462,0,0,0-2.461,2.462V27.612a2.462,2.462,0,0,0,2.461,2.462H58.335A2.466,2.466,0,0,0,60.8,27.612V3.461A2.465,2.465,0,0,0,58.335,1Zm.586,57.329V34.177a.588.588,0,0,0-.586-.586H34.182a.588.588,0,0,0-.586.586V58.328a.588.588,0,0,0,.586.586H58.335A.588.588,0,0,0,58.921,58.328Zm-.586-26.613H34.182a2.462,2.462,0,0,0-2.461,2.462V58.328a2.462,2.462,0,0,0,2.461,2.462H58.335A2.466,2.466,0,0,0,60.8,58.328V34.177A2.465,2.465,0,0,0,58.335,31.715ZM28.205,58.328V34.177a.588.588,0,0,0-.586-.586H3.467a.588.588,0,0,0-.586.586V58.328a.588.588,0,0,0,.586.586H27.619A.588.588,0,0,0,28.205,58.328Zm-.586-26.613H3.467a2.462,2.462,0,0,0-2.461,2.462V58.328A2.462,2.462,0,0,0,3.467,60.79H27.619a2.466,2.466,0,0,0,2.461-2.462V34.177A2.465,2.465,0,0,0,27.619,31.715ZM22.56,19.1c.857-1.285,1.6-2.416,1.145-5.754a2.628,2.628,0,0,1-2.422-.524,2.636,2.636,0,0,1-3.456-.041,2.774,2.774,0,0,1-1.808.666,2.8,2.8,0,0,1-.912-.155,4.523,4.523,0,0,1-.929.1H12.435a.7.7,0,0,0-.614.443.518.518,0,0,0,.171.612c.459.432.918.43,1.753.388,1.344-.069,3.185-.161,4.4,3.036a.937.937,0,1,1-1.753.666c-.73-1.92-1.371-1.888-2.549-1.828a3.852,3.852,0,0,1-3.135-.9,2.4,2.4,0,0,1-.625-2.669,2.568,2.568,0,0,1,2.356-1.625h1.742A2.783,2.783,0,0,0,16.77,9.693h-6.2a1.381,1.381,0,0,0-1,.393c-3.9,3.66-2.206,6.173-.066,9.354a24.537,24.537,0,0,1,1.681,2.744h9.936A8.4,8.4,0,0,1,22.56,19.1ZM22.4,25.6V24.059H9.975V25.6ZM12.308,6.464a.917.917,0,0,0-.918.918v.435h1.836V7.382a.921.921,0,0,0-.918-.918ZM15.1,6.4V7.817h1.836V6.4a.918.918,0,1,0-1.836,0Zm4.479.065a.767.767,0,0,0-.769.766v3.581a.766.766,0,0,0,1.532,0V7.226A.766.766,0,0,0,19.579,6.46Zm3.406.838a.766.766,0,0,0-.763.766v2.743a.766.766,0,0,0,1.532,0V8.064A.767.767,0,0,0,22.985,7.3Zm2.389,4.639a2.664,2.664,0,0,0,.254-1.13V8.064a2.642,2.642,0,0,0-3.876-2.336,2.642,2.642,0,0,0-3.389-.848,2.791,2.791,0,0,0-4.722.049,2.771,2.771,0,0,0-1.333-.341,2.8,2.8,0,0,0-2.8,2.794v.6a3.289,3.289,0,0,0-1.216.734c-5.065,4.753-2.444,8.644-.337,11.77.409.609.807,1.2,1.145,1.781a1.5,1.5,0,0,0-1,1.412v2.295a1.5,1.5,0,0,0,1.5,1.5H22.781a1.5,1.5,0,0,0,1.493-1.5V23.68a1.5,1.5,0,0,0-1.216-1.47,7.091,7.091,0,0,1,1.062-2.067c1.023-1.533,2.173-3.268,1.255-8.205Z" fill-rule="evenodd"/>
    </g>
  </g>
</svg>
