<svg xmlns="http://www.w3.org/2000/svg" xmlns:xlink="http://www.w3.org/1999/xlink" width="292" height="260" viewBox="0 0 292 260">
  <defs>
    <linearGradient id="linear-gradient" x1="1.085" y1="0.346" x2="0.134" y2="0.627" gradientUnits="objectBoundingBox">
      <stop offset="0" stop-color="#484857"/>
      <stop offset="1" stop-color="#2e2e2e"/>
    </linearGradient>
  </defs>
  <g id="img21" transform="translate(-1121.711 -5360)">
    <rect id="Rectangle_455513" data-name="Rectangle 455513" width="292" height="260" transform="translate(1121.711 5360)" fill="#faf2df"/>
    <g id="_x34_" transform="translate(1126.948 5422.541)">
      <path id="die" d="M2808.129,1807.356c-39.309,4.866-49.378,32.683-88.082,39.3-36.091,6.168-55.254,23.655-63.676,64.2-4.124,19.849-8.131,54.807,8.644,84.1a87.156,87.156,0,0,0,8.781,12.351s229.229,2.4,230.538.634a83.985,83.985,0,0,0,10.889-16.6,144.622,144.622,0,0,0,5.576-14.06c15.053-45.235,16.045-96.4-19.406-135.191-23.215-25.4-49.739-40.108-93.262-34.72Z" transform="translate(-2650.8 -1827.424)" fill="#beb1a1"/>
      <g id="decor" transform="translate(83.063 18.38)">
        <g id="Group_1180414" data-name="Group 1180414" transform="translate(108.061 48.83)">
          <path id="Path_1003672" data-name="Path 1003672" d="M4127.078,2354.325h-8.559a.738.738,0,0,1-.737-.737v-8.56a.738.738,0,0,1,.737-.737h8.559a.739.739,0,0,1,.738.737v8.56A.738.738,0,0,1,4127.078,2354.325Zm-8.005-1.291h7.452v-7.452h-7.452Z" transform="translate(-4117.781 -2342.119)" fill="#2e2e2e"/>
          <path id="Path_1003673" data-name="Path 1003673" d="M4134.864,2337.08l-3.137-2.91a.646.646,0,0,1,.878-.947l2.058,1.908,5.244-7.392a.646.646,0,1,1,1.053.747l-6.1,8.593Z" transform="translate(-4129.747 -2327.467)" fill="#4671f0"/>
          <path id="Path_1003674" data-name="Path 1003674" d="M4127.078,2489.3h-8.559a.738.738,0,0,1-.737-.737V2480a.738.738,0,0,1,.737-.737h8.559a.738.738,0,0,1,.738.737v8.56A.738.738,0,0,1,4127.078,2489.3Zm-8.005-1.291h7.452v-7.452h-7.452Z" transform="translate(-4117.781 -2459.661)" fill="#2e2e2e"/>
          <path id="Path_1003675" data-name="Path 1003675" d="M4134.864,2472.05l-3.137-2.91a.645.645,0,0,1,.878-.946l2.058,1.908,5.244-7.392a.646.646,0,1,1,1.053.747l-6.1,8.594Z" transform="translate(-4129.747 -2445.009)" fill="#4671f0"/>
          <path id="Path_1003676" data-name="Path 1003676" d="M4127.078,2624.275h-8.559a.738.738,0,0,1-.737-.737v-8.56a.738.738,0,0,1,.737-.738h8.559a.739.739,0,0,1,.738.738v8.56A.738.738,0,0,1,4127.078,2624.275Zm-8.005-1.291h7.452v-7.452h-7.452Z" transform="translate(-4117.781 -2577.212)" fill="#2e2e2e"/>
          <path id="Path_1003677" data-name="Path 1003677" d="M4134.864,2607.021l-3.137-2.91a.646.646,0,0,1,.878-.947l2.058,1.909,5.244-7.392a.646.646,0,1,1,1.053.747l-6.1,8.593Z" transform="translate(-4129.747 -2562.552)" fill="#4671f0"/>
          <path id="Path_1003678" data-name="Path 1003678" d="M4259.035,2363.461h-19.044a.646.646,0,0,1,0-1.291h19.044a.646.646,0,0,1,0,1.291Z" transform="translate(-4223.649 -2357.689)" fill="#2e2e2e"/>
          <path id="Path_1003679" data-name="Path 1003679" d="M4254.157,2391.622H4240a.646.646,0,0,1,0-1.291h14.161a.646.646,0,0,1,0,1.291Z" transform="translate(-4223.653 -2382.213)" fill="#2e2e2e"/>
          <path id="Path_1003680" data-name="Path 1003680" d="M4323.644,2494.681h-9.464a.646.646,0,0,1,0-1.291h9.464a.646.646,0,1,1,0,1.291Z" transform="translate(-4288.258 -2471.965)" fill="#2e2e2e"/>
          <path id="Path_1003681" data-name="Path 1003681" d="M4246.4,2494.681h-6.42a.646.646,0,0,1,0-1.291h6.42a.646.646,0,0,1,0,1.291Z" transform="translate(-4223.644 -2471.965)" fill="#2e2e2e"/>
          <path id="Path_1003682" data-name="Path 1003682" d="M4255.1,2522.842h-15.113a.646.646,0,0,1,0-1.291H4255.1a.646.646,0,1,1,0,1.291Z" transform="translate(-4223.65 -2496.49)" fill="#2e2e2e"/>
          <path id="Path_1003683" data-name="Path 1003683" d="M4348.608,2633.852h-5.763a.646.646,0,0,1,0-1.291h5.763a.646.646,0,0,1,0,1.291Z" transform="translate(-4313.222 -2593.166)" fill="#2e2e2e"/>
          <path id="Path_1003684" data-name="Path 1003684" d="M4249.754,2633.852h-9.761a.646.646,0,0,1,0-1.291h9.761a.646.646,0,1,1,0,1.291Z" transform="translate(-4223.651 -2593.166)" fill="#2e2e2e"/>
          <path id="Path_1003685" data-name="Path 1003685" d="M4246.176,2662.012h-6.183a.646.646,0,0,1,0-1.292h6.183a.646.646,0,0,1,0,1.292Z" transform="translate(-4223.651 -2617.689)" fill="#2e2e2e"/>
        </g>
        <g id="laptop_2" transform="translate(0 97.923)">
          <path id="Path_1003686" data-name="Path 1003686" d="M3341.326,2770.314h-48.459s-3.677-.746-5.495.543-2.024,2.422-1.454,3.716,1.141,2.049,2.8,1.995,89.139-.485,89.139-.485l42.2.3a2.07,2.07,0,0,0,2.084-1.375c.389-1.456,12.7-54.6,12.7-54.6s1.5-4.877.916-5.645-3.734-1.011-3.734-1.011l-74.594-.073s-2.5.245-2.922,1.466-1.006,2.853-1.006,2.853Z" transform="translate(-3285.026 -2712.899)" fill="#c1c7d6"/>
          <path id="Path_1003687" data-name="Path 1003687" d="M3284.5,2773.878c1.817-1.29,5.663-1.666,5.663-1.666h46.187a3.726,3.726,0,0,0,3.591-2.938l11.49-49.383a2.635,2.635,0,0,1,.2-1.73c.425-1.221,2.922-2.259,2.922-2.259l77.1.076a4.654,4.654,0,0,0-.233-1.592c-.583-.768-4.135-.636-4.135-.636l-74.594-.073s-2.5.245-2.922,1.466-1.006,2.853-1.006,2.853l-12.173,52.321h-48.459s-3.677-.746-5.495.544-2.024,2.422-1.454,3.715a2.92,2.92,0,0,0,1.6,1.831c0-.837.481-1.646,1.723-2.527Z" transform="translate(-3280.901 -2712.9)" fill="#fff"/>
          <path id="Path_1003688" data-name="Path 1003688" d="M3789.136,2771.974H3712.6a.775.775,0,1,1,0-1.55h76.539c.719,0,1.5-.244,1.831-2.052l.009-.04,13.687-57.366a1.36,1.36,0,0,0-.185-1.149,2.161,2.161,0,0,0-1.663-.6h-76.527c-.683,0-1.379.255-1.841,2.1l-12.863,53.913a.775.775,0,1,1-1.507-.36l12.865-53.922c.205-.818.822-3.281,3.346-3.281h76.562a3.537,3.537,0,0,1,2.843,1.184,2.871,2.871,0,0,1,.486,2.432l-.005.024-13.685,57.36c-.509,2.727-2.1,3.3-3.351,3.3Z" transform="translate(-3654.641 -2707.672)" fill="#2e2e2e"/>
          <path id="Path_1003689" data-name="Path 1003689" d="M3333.325,3154.772h-48.473A3.716,3.716,0,0,1,3281.2,3151a3.818,3.818,0,0,1,4.068-3.778h133.574a.775.775,0,0,1,0,1.549H3285.272a2.3,2.3,0,0,0-2.523,2.229,2.165,2.165,0,0,0,2.1,2.218h48.474a.775.775,0,0,1,0,1.55Z" transform="translate(-3281.16 -3090.47)" fill="#2e2e2e"/>
          <path id="Path_1003690" data-name="Path 1003690" d="M3887.777,3154.772h-31.05a3.715,3.715,0,0,1-3.652-3.767,3.817,3.817,0,0,1,4.068-3.778h0a.775.775,0,0,1,0,1.549,2.3,2.3,0,0,0-2.527,2.229,2.165,2.165,0,0,0,2.1,2.218h31.05a.775.775,0,0,1,0,1.55Z" transform="translate(-3779.193 -3090.47)" fill="#2e2e2e"/>
          <path id="Path_1003691" data-name="Path 1003691" d="M3765.72,2797.482l10.8-45.858,71.635-.253-10.974,46.112Z" transform="translate(-3703.118 -2745.728)" fill="#fff"/>
          <path id="Path_1003692" data-name="Path 1003692" d="M3831.2,2793.006h-73.057l11.17-47.4,73.23-.26Zm-71.1-1.549h69.876l10.6-44.558-70.039.248Z" transform="translate(-3696.52 -2740.477)" fill="#2e2e2e"/>
        </g>
        <g id="chart" transform="translate(84.275 107.128)">
          <path id="Path_1003693" data-name="Path 1003693" d="M3957.338,2803.328l.5-17.863a19.445,19.445,0,0,0-9.428,3.342,19.993,19.993,0,0,0-8.833,16.51Z" transform="translate(-3938.799 -2784.625)" fill="#c1c7d6"/>
          <path id="Path_1003694" data-name="Path 1003694" d="M4090.62,2803.312l13.731,11.145c4.706-6.265,5.444-14.842,1.218-21.453a17.3,17.3,0,0,0-14.44-7.948l-.509,18.256Z" transform="translate(-4070.341 -2784.268)" fill="#4671f0"/>
          <path id="Path_1003695" data-name="Path 1003695" d="M3949.146,2789.54a19.527,19.527,0,0,1,8.272-3.215l.235-1.2a20.03,20.03,0,0,0-18.34,19.824l1.044-.228A20.048,20.048,0,0,1,3949.146,2789.54Z" transform="translate(-3938.57 -2784.329)" fill="#fff"/>
          <path id="Path_1003696" data-name="Path 1003696" d="M4092.247,2786.245a17.471,17.471,0,0,1,11.994,4.942,17.386,17.386,0,0,0-13.113-6.139l-.508,18.256,1.126.915Z" transform="translate(-4070.341 -2784.261)" fill="#fff"/>
          <path id="Path_1003697" data-name="Path 1003697" d="M3933.573,2800.516l0-.863a20.4,20.4,0,0,1,2.348-9.518,21.106,21.106,0,0,1,6.824-7.636,20.294,20.294,0,0,1,9.8-3.473l.859-.067-.541,19.4Zm18.232-19.857a18.82,18.82,0,0,0-8.193,3.123,19.147,19.147,0,0,0-8.477,15l16.216-1.815Zm.3,17h0Z" transform="translate(-3933.57 -2778.96)" fill="#2e2e2e"/>
          <path id="Path_1003698" data-name="Path 1003698" d="M4099.187,2810.252l-14.652-11.892.54-19.4.767.013a18.163,18.163,0,0,1,15.08,8.3,18.619,18.619,0,0,1,2.861,11.324,20.529,20.529,0,0,1-4.113,11.012Zm-13.082-12.614,12.8,10.386a18.111,18.111,0,0,0,.715-19.917,16.584,16.584,0,0,0-13.035-7.56Z" transform="translate(-4065.041 -2778.955)" fill="#2e2e2e"/>
          <path id="Path_1003699" data-name="Path 1003699" d="M3955.855,2954.659a19.094,19.094,0,0,0,12.729-3.307,20.366,20.366,0,0,0,3.685-3.21l-13.776-11.181L3940.276,2939a17.669,17.669,0,0,0,2.688,7.8,17.2,17.2,0,0,0,7.688,6.522A18.042,18.042,0,0,0,3955.855,2954.659Z" transform="translate(-3939.41 -2916.56)" fill="#fff"/>
          <path id="Path_1003700" data-name="Path 1003700" d="M3952.042,2950.1a18.753,18.753,0,0,1-1.97-.1h0a18.979,18.979,0,0,1-5.431-1.4,18.029,18.029,0,0,1-8.032-6.815,18.341,18.341,0,0,1-2.806-8.139l-.076-.762,19.3-2.16,14.662,11.9-.546.606a21.187,21.187,0,0,1-3.825,3.332,20.145,20.145,0,0,1-11.276,3.54Zm-1.807-1.645a18.378,18.378,0,0,0,12.212-3.177,19.629,19.629,0,0,0,2.985-2.493l-12.877-10.451-17.118,1.916a16.739,16.739,0,0,0,2.478,6.7,16.484,16.484,0,0,0,7.345,6.229,17.379,17.379,0,0,0,4.975,1.278Z" transform="translate(-3933.707 -2911.124)" fill="#2e2e2e"/>
        </g>
        <g id="Group_1180415" data-name="Group 1180415" transform="translate(129.094 85.961)">
          <path id="Path_1003701" data-name="Path 1003701" d="M4415.689,2725.772c.659-24.991,9.956-38.32,23.378-43.066,5.934,12.735,1.993,34.557-11.806,42.743Z" transform="translate(-4398.254 -2673.968)" fill="#fff"/>
          <path id="Path_1003702" data-name="Path 1003702" d="M4339.384,2649.088c-2.687-5.723-2.149-15.947.194-25.271,9.66.533,18.319,10.778,18.767,17.763-.971,9.313-6.868,20.49-7.018,20.257s-11.944-12.748-11.944-12.748Z" transform="translate(-4330.235 -2622.683)" fill="#fff"/>
          <path id="Path_1003703" data-name="Path 1003703" d="M4305.592,2805.385c3.9-16.22-5.227-27.96-16.986-30.332-4.252,12.165-1.5,23.844,7.469,30.656l9.517-.324Z" transform="translate(-4285.875 -2754.391)" fill="#fff"/>
          <path id="Path_1003704" data-name="Path 1003704" d="M4352.963,3014.29H4326.41a.969.969,0,0,0-.932,1.127l2.493,17.077a7.067,7.067,0,0,0,6.9,6.166h9.637a7.068,7.068,0,0,0,6.9-6.166l2.492-17.077A.969.969,0,0,0,4352.963,3014.29Z" transform="translate(-4319.682 -2962.737)" fill="#4671f0"/>
          <path id="Path_1003705" data-name="Path 1003705" d="M4329.724,3032.5l-2.492-17.076a.968.968,0,0,1,.931-1.127h-3.079a.968.968,0,0,0-.932,1.127l2.492,17.076a7.068,7.068,0,0,0,6.9,6.166h3.079A7.068,7.068,0,0,1,4329.724,3032.5Z" transform="translate(-4318.528 -2962.739)" fill="#fff"/>
          <path id="Path_1003706" data-name="Path 1003706" d="M4339.275,3034.213h-9.637a7.6,7.6,0,0,1-5.065-1.95,8.114,8.114,0,0,1-2.6-4.878l-2.493-17.076a1.779,1.779,0,0,1,.412-1.421,1.7,1.7,0,0,1,1.287-.593h26.554a1.7,1.7,0,0,1,1.287.593,1.779,1.779,0,0,1,.412,1.421l-2.492,17.076a8.112,8.112,0,0,1-2.6,4.878A7.6,7.6,0,0,1,4339.275,3034.213Zm-18.095-24.369a.147.147,0,0,0-.115.056.23.23,0,0,0-.05.184l2.492,17.076a6.258,6.258,0,0,0,6.131,5.5h9.637a6.258,6.258,0,0,0,6.131-5.5l2.492-17.076a.229.229,0,0,0-.05-.184.149.149,0,0,0-.115-.056H4321.18Z" transform="translate(-4314.453 -2957.515)" fill="#2e2e2e"/>
          <path id="Path_1003707" data-name="Path 1003707" d="M4437.611,2719.709a.775.775,0,0,1-.4-1.441c13.2-7.831,17.14-28.622,11.79-41.1-11.071,4.183-18.3,13.7-19.89,26.215a.774.774,0,1,1-1.537-.195,35.835,35.835,0,0,1,6.163-16.26,31.287,31.287,0,0,1,15.417-11.467l.664-.235.3.638c3,6.44,3.579,15.257,1.547,23.588a37.173,37.173,0,0,1-4.907,11.564,26.9,26.9,0,0,1-8.754,8.584A.775.775,0,0,1,4437.611,2719.709Z" transform="translate(-4408.603 -2667.454)" fill="#2e2e2e"/>
          <path id="Path_1003708" data-name="Path 1003708" d="M4290.867,2800.46a.77.77,0,0,1-.468-.158,24.208,24.208,0,0,1-8.978-13.756,31.557,31.557,0,0,1,1.246-17.773l.223-.637.662.134a22.612,22.612,0,0,1,14.719,10.082,24.176,24.176,0,0,1,3.5,9.493,30.589,30.589,0,0,1-.636,11.7.775.775,0,1,1-1.506-.362c2.283-9.492-.191-16.113-2.667-19.995a21.059,21.059,0,0,0-13.055-9.252c-3.819,11.617-1,22.733,7.427,29.135a.775.775,0,0,1-.47,1.392Z" transform="translate(-4280.667 -2748.367)" fill="#2e2e2e"/>
          <path id="Path_1003709" data-name="Path 1003709" d="M4360.39,2888.61a.775.775,0,0,1-.773-.731q-.022-.4-.044-.809c-.283-5.162-.6-11.013-4.266-16.313a.775.775,0,1,1,1.274-.881c3.91,5.658,4.244,11.742,4.538,17.109q.022.405.044.806a.774.774,0,0,1-.729.817Z" transform="translate(-4345.549 -2836.679)" fill="#2e2e2e"/>
          <path id="Path_1003710" data-name="Path 1003710" d="M4467.3,2832.12a.775.775,0,0,1-.772-.721c-.641-9.147,3.742-20.847,8.348-26.875a.775.775,0,0,1,1.231.941c-4.432,5.8-8.649,17.045-8.034,25.826a.774.774,0,0,1-.719.827l-.055,0Z" transform="translate(-4442.476 -2779.792)" fill="#2e2e2e"/>
          <path id="Path_1003711" data-name="Path 1003711" d="M4331.446,2638.073a.776.776,0,0,1-.752-.589c-1.7-6.854-.325-13.245,1.128-20.013q.177-.82.352-1.646l.168-.793.785.2c11.065,2.881,17.285,8.434,19.012,16.979a.774.774,0,1,1-1.518.307c-1.558-7.706-7.155-12.807-17.1-15.575q-.092.426-.183.85c-1.415,6.587-2.75,12.809-1.139,19.315a.775.775,0,0,1-.565.938.76.76,0,0,1-.187.023Z" transform="translate(-4323.551 -2615.032)" fill="#2e2e2e"/>
          <path id="Path_1003712" data-name="Path 1003712" d="M4407.021,2727.66a.774.774,0,0,1-.76-.628,27.682,27.682,0,0,0-5.583-12.587l-.047-.063a.775.775,0,0,1,1.25-.916l.046.063a29.39,29.39,0,0,1,5.854,13.21.776.776,0,0,1-.762.921Z" transform="translate(-4385.012 -2700.48)" fill="#2e2e2e"/>
        </g>
        <g id="dream" transform="translate(12.339)">
          <ellipse id="Ellipse_13854" data-name="Ellipse 13854" cx="9.844" cy="6.449" rx="9.844" ry="6.449" transform="translate(22.915 52.608)" fill="#fff"/>
          <path id="Path_1003713" data-name="Path 1003713" d="M3548.66,2358.6c0-3.93,4.721-7.128,10.523-7.128s10.523,3.2,10.523,7.128-4.721,7.128-10.523,7.128S3548.66,2362.525,3548.66,2358.6Zm1.358,0c0,3.181,4.111,5.77,9.165,5.77s9.165-2.588,9.165-5.77-4.111-5.77-9.165-5.77S3550.019,2355.414,3550.019,2358.6Z" transform="translate(-3526.425 -2299.538)" fill="#2e2e2e"/>
          <ellipse id="Ellipse_13855" data-name="Ellipse 13855" cx="7.007" cy="4.59" rx="7.007" ry="4.59" transform="translate(0.68 51.928)" fill="#fff"/>
          <path id="Path_1003714" data-name="Path 1003714" d="M3376.46,2351.47c0-2.955,3.376-5.27,7.686-5.27s7.686,2.315,7.686,5.27-3.376,5.27-7.686,5.27S3376.46,2354.425,3376.46,2351.47Zm1.36,0c0,2.12,2.9,3.911,6.327,3.911s6.327-1.791,6.327-3.911-2.9-3.911-6.327-3.911S3377.82,2349.351,3377.82,2351.47Z" transform="translate(-3376.46 -2294.952)" fill="#2e2e2e"/>
          <ellipse id="Ellipse_13856" data-name="Ellipse 13856" cx="40.066" cy="26.45" rx="40.066" ry="26.45" transform="translate(25.001 0.68)" fill="#fff"/>
          <path id="Path_1003715" data-name="Path 1003715" d="M3576.854,1995.7c-7.765-5.125-12.041-11.969-12.041-19.27s4.276-14.144,12.041-19.27c7.677-5.068,17.872-7.859,28.705-7.859s21.028,2.791,28.706,7.859c7.764,5.126,12.04,11.969,12.04,19.27s-4.276,14.144-12.04,19.27c-7.678,5.068-17.872,7.859-28.706,7.859S3584.532,2000.771,3576.854,1995.7Zm-10.681-19.269c0,14.21,17.668,25.771,39.387,25.771s39.387-11.561,39.387-25.771-17.669-25.771-39.387-25.771S3566.173,1962.224,3566.173,1976.434Z" transform="translate(-3540.493 -1949.304)" fill="#2e2e2e"/>
        </g>
        <g id="coins" transform="translate(49.548 4.928)">
          <g id="Group_1180416" data-name="Group 1180416" transform="translate(17.799 33.275)">
            <rect id="Rectangle_455707" data-name="Rectangle 455707" width="31.481" height="4.4" rx="2.2" transform="translate(31.841 4.817) rotate(180)" fill="#4671f0"/>
            <path id="Path_1003716" data-name="Path 1003716" d="M3834.744,2255.11v-3.059a.647.647,0,0,0-.62-.671h-30.241a.576.576,0,0,0-.211.042.611.611,0,0,1,.537-.341l30.758-.115c.342,0,.1.415.1.785v3.059a.667.667,0,0,1-.409.628A.706.706,0,0,0,3834.744,2255.11Z" transform="translate(-3803.517 -2250.219)" fill="#fff"/>
            <path id="Path_1003717" data-name="Path 1003717" d="M3833.72,2250.4h-30.191a1.063,1.063,0,0,1-1.062-1.062v-3.11a1.063,1.063,0,0,1,1.062-1.062h30.191a1.064,1.064,0,0,1,1.063,1.062v3.11A1.064,1.064,0,0,1,3833.72,2250.4Zm-30.19-4.4a.228.228,0,0,0-.228.228v3.111a.228.228,0,0,0,.228.228h30.191a.228.228,0,0,0,.228-.228v-3.111a.228.228,0,0,0-.228-.228Z" transform="translate(-3802.467 -2245.17)" fill="#2e2e2e"/>
            <path id="Path_1003718" data-name="Path 1003718" d="M3840.836,2251.337a.417.417,0,0,1-.417-.417v-4a.417.417,0,1,1,.834,0v4A.418.418,0,0,1,3840.836,2251.337Z" transform="translate(-3835.519 -2246.335)" fill="#2e2e2e"/>
            <path id="Path_1003719" data-name="Path 1003719" d="M3920.826,2249.373a.417.417,0,0,1-.417-.417v-2.026a.417.417,0,1,1,.834,0v2.026A.417.417,0,0,1,3920.826,2249.373Z" transform="translate(-3905.18 -2246.339)" fill="#2e2e2e"/>
            <path id="Path_1003720" data-name="Path 1003720" d="M3963.717,2251.337a.417.417,0,0,1-.417-.417v-4a.417.417,0,1,1,.834,0v4A.417.417,0,0,1,3963.717,2251.337Z" transform="translate(-3942.532 -2246.335)" fill="#2e2e2e"/>
            <path id="Path_1003721" data-name="Path 1003721" d="M4005.347,2251.337a.418.418,0,0,1-.417-.417v-4a.417.417,0,1,1,.834,0v4A.417.417,0,0,1,4005.347,2251.337Z" transform="translate(-3978.786 -2246.335)" fill="#2e2e2e"/>
            <path id="Path_1003722" data-name="Path 1003722" d="M3883.566,2250.571a.417.417,0,0,1-.417-.417v-3.224a.417.417,0,0,1,.834,0v3.224A.417.417,0,0,1,3883.566,2250.571Z" transform="translate(-3872.731 -2246.34)" fill="#2e2e2e"/>
          </g>
          <g id="Group_1180417" data-name="Group 1180417" transform="translate(19.571 28.823)">
            <rect id="Rectangle_455708" data-name="Rectangle 455708" width="31.481" height="4.4" rx="2.2" transform="translate(31.935 4.818) rotate(180)" fill="#4671f0"/>
            <path id="Path_1003723" data-name="Path 1003723" d="M3848.045,2219.971v-3.059a.647.647,0,0,0-.62-.671h-30.241a.582.582,0,0,0-.26.063.622.622,0,0,1,.573-.416l30.442-.108a.66.66,0,0,1,.7.6v3.261c0,.27-.43.473-.642.58a.715.715,0,0,0,.047-.255Z" transform="translate(-3816.83 -2215.124)" fill="#fff"/>
            <path id="Path_1003724" data-name="Path 1003724" d="M3847.451,2215.924H3817.26a1.063,1.063,0,0,1-1.062-1.062v-3.111a1.063,1.063,0,0,1,1.062-1.062h30.191a1.063,1.063,0,0,1,1.063,1.062v3.111A1.064,1.064,0,0,1,3847.451,2215.924Zm-30.192-4.4a.228.228,0,0,0-.228.228v3.111a.228.228,0,0,0,.228.228h30.191a.228.228,0,0,0,.228-.228v-3.111a.228.228,0,0,0-.228-.228Z" transform="translate(-3816.198 -2210.689)" fill="#2e2e2e"/>
            <path id="Path_1003725" data-name="Path 1003725" d="M3838.677,2213.724a.418.418,0,0,1-.417-.417v-2.2a.417.417,0,1,1,.834,0v2.2A.417.417,0,0,1,3838.677,2213.724Z" transform="translate(-3835.41 -2210.689)" fill="#2e2e2e"/>
            <path id="Path_1003726" data-name="Path 1003726" d="M3953.086,2213.724a.417.417,0,0,1-.417-.417v-2.2a.417.417,0,1,1,.834,0v2.2A.418.418,0,0,1,3953.086,2213.724Z" transform="translate(-3935.047 -2210.689)" fill="#2e2e2e"/>
            <path id="Path_1003727" data-name="Path 1003727" d="M3878.116,2216.866a.417.417,0,0,1-.417-.417v-4a.417.417,0,1,1,.834,0v4A.417.417,0,0,1,3878.116,2216.866Z" transform="translate(-3869.757 -2211.862)" fill="#2e2e2e"/>
            <path id="Path_1003728" data-name="Path 1003728" d="M3914.956,2216.866a.417.417,0,0,1-.417-.417v-4a.417.417,0,1,1,.834,0v4A.417.417,0,0,1,3914.956,2216.866Z" transform="translate(-3901.841 -2211.862)" fill="#2e2e2e"/>
            <path id="Path_1003729" data-name="Path 1003729" d="M3993.566,2216.866a.417.417,0,0,1-.417-.417v-4a.417.417,0,1,1,.834,0v4A.417.417,0,0,1,3993.566,2216.866Z" transform="translate(-3970.301 -2211.862)" fill="#2e2e2e"/>
            <path id="Path_1003730" data-name="Path 1003730" d="M4032.716,2215.625a.417.417,0,0,1-.417-.417v-2.758a.417.417,0,1,1,.834,0v2.758A.418.418,0,0,1,4032.716,2215.625Z" transform="translate(-4004.395 -2211.859)" fill="#2e2e2e"/>
          </g>
          <g id="Group_1180418" data-name="Group 1180418" transform="translate(19.567 24.372)">
            <rect id="Rectangle_455709" data-name="Rectangle 455709" width="31.481" height="4.4" rx="2.2" transform="translate(32.013 4.817) rotate(180)" fill="#4671f0"/>
            <path id="Path_1003731" data-name="Path 1003731" d="M3848.085,2185.956V2182.9a.646.646,0,0,0-.62-.67h-30.241a.59.59,0,0,0-.083.009.625.625,0,0,1,.585-.456h30.241c.342,0,.659.078.659.448l-.039,3.281a.653.653,0,0,1-.537.662.7.7,0,0,0,.036-.214Z" transform="translate(-3817.015 -2181.062)" fill="#fff"/>
            <path id="Path_1003732" data-name="Path 1003732" d="M3847.419,2181.455h-30.191a1.063,1.063,0,0,1-1.062-1.062v-3.111a1.063,1.063,0,0,1,1.062-1.062h30.191a1.063,1.063,0,0,1,1.062,1.062v3.111A1.063,1.063,0,0,1,3847.419,2181.455Zm-30.191-4.4a.228.228,0,0,0-.228.228v3.111a.228.228,0,0,0,.228.228h30.191a.228.228,0,0,0,.228-.228v-3.111a.228.228,0,0,0-.228-.228Z" transform="translate(-3816.166 -2176.22)" fill="#2e2e2e"/>
            <path id="Path_1003733" data-name="Path 1003733" d="M3857.537,2182.387a.418.418,0,0,1-.417-.417v-4a.417.417,0,1,1,.834,0v4A.417.417,0,0,1,3857.537,2182.387Z" transform="translate(-3851.831 -2177.385)" fill="#2e2e2e"/>
            <path id="Path_1003734" data-name="Path 1003734" d="M3934.526,2192.268a.417.417,0,0,1-.417-.417v-2.53a.417.417,0,1,1,.834,0v2.53A.417.417,0,0,1,3934.526,2192.268Z" transform="translate(-3918.88 -2187.266)" fill="#2e2e2e"/>
            <path id="Path_1003735" data-name="Path 1003735" d="M3979.227,2182.387a.417.417,0,0,1-.417-.417v-4a.417.417,0,1,1,.834,0v4A.418.418,0,0,1,3979.227,2182.387Z" transform="translate(-3957.808 -2177.385)" fill="#2e2e2e"/>
            <path id="Path_1003736" data-name="Path 1003736" d="M4018.9,2180.686a.417.417,0,0,1-.417-.417v-2.29a.417.417,0,1,1,.834,0v2.29A.417.417,0,0,1,4018.9,2180.686Z" transform="translate(-3992.356 -2177.388)" fill="#2e2e2e"/>
            <path id="Path_1003737" data-name="Path 1003737" d="M3897.257,2181.621a.418.418,0,0,1-.417-.417v-3.223a.417.417,0,1,1,.834,0v3.223A.417.417,0,0,1,3897.257,2181.621Z" transform="translate(-3886.422 -2177.39)" fill="#2e2e2e"/>
          </g>
          <g id="Group_1180419" data-name="Group 1180419" transform="translate(0 33.275)">
            <rect id="Rectangle_455710" data-name="Rectangle 455710" width="31.481" height="4.4" rx="2.2" transform="translate(31.844 4.817) rotate(180)" fill="#4671f0"/>
            <path id="Path_1003738" data-name="Path 1003738" d="M3696.794,2254.45v-3.059a.647.647,0,0,0-.62-.67h-30.241a.574.574,0,0,0-.211.042c.107-.2.35-.553.581-.553l30.714.1c.342,0,.1.415.1.785v3.059a.668.668,0,0,1-.409.628A.7.7,0,0,0,3696.794,2254.45Z" transform="translate(-3665.581 -2249.559)" fill="#fff"/>
            <path id="Path_1003739" data-name="Path 1003739" d="M3695.88,2250.4h-30.192a1.064,1.064,0,0,1-1.062-1.062v-3.11a1.064,1.064,0,0,1,1.062-1.062h30.192a1.063,1.063,0,0,1,1.062,1.062v3.11A1.063,1.063,0,0,1,3695.88,2250.4Zm-30.192-4.4a.228.228,0,0,0-.228.228v3.111a.228.228,0,0,0,.228.228h30.191a.228.228,0,0,0,.228-.228v-3.111a.228.228,0,0,0-.228-.228Z" transform="translate(-3664.626 -2245.17)" fill="#2e2e2e"/>
            <path id="Path_1003740" data-name="Path 1003740" d="M3702.987,2251.337a.417.417,0,0,1-.417-.417v-4a.417.417,0,0,1,.834,0v4A.418.418,0,0,1,3702.987,2251.337Z" transform="translate(-3697.67 -2246.335)" fill="#2e2e2e"/>
            <path id="Path_1003741" data-name="Path 1003741" d="M3782.986,2249.373a.417.417,0,0,1-.417-.417v-2.026a.417.417,0,1,1,.834,0v2.026A.417.417,0,0,1,3782.986,2249.373Z" transform="translate(-3767.34 -2246.339)" fill="#2e2e2e"/>
            <path id="Path_1003742" data-name="Path 1003742" d="M3825.877,2251.337a.418.418,0,0,1-.417-.417v-4a.417.417,0,1,1,.834,0v4A.417.417,0,0,1,3825.877,2251.337Z" transform="translate(-3804.692 -2246.335)" fill="#2e2e2e"/>
            <path id="Path_1003743" data-name="Path 1003743" d="M3867.5,2251.337a.417.417,0,0,1-.417-.417v-4a.417.417,0,1,1,.834,0v4A.417.417,0,0,1,3867.5,2251.337Z" transform="translate(-3840.938 -2246.335)" fill="#2e2e2e"/>
            <path id="Path_1003744" data-name="Path 1003744" d="M3745.727,2250.571a.418.418,0,0,1-.417-.417v-3.224a.417.417,0,0,1,.834,0v3.224A.418.418,0,0,1,3745.727,2250.571Z" transform="translate(-3734.891 -2246.34)" fill="#2e2e2e"/>
          </g>
          <g id="Group_1180420" data-name="Group 1180420" transform="translate(1.773 28.823)">
            <rect id="Rectangle_455711" data-name="Rectangle 455711" width="31.481" height="4.4" rx="2.2" transform="translate(31.831 4.818) rotate(180)" fill="#4671f0"/>
            <path id="Path_1003745" data-name="Path 1003745" d="M3710,2220.5v-3.059a.647.647,0,0,0-.62-.671h-30.241a.576.576,0,0,0-.26.064.621.621,0,0,1,.573-.416H3709.7c.343,0,.9.125.9.5v3.261c0,.27-.429.473-.642.58A.717.717,0,0,0,3710,2220.5Z" transform="translate(-3678.815 -2215.676)" fill="#fff"/>
            <path id="Path_1003746" data-name="Path 1003746" d="M3709.61,2215.924h-30.191a1.064,1.064,0,0,1-1.062-1.062v-3.111a1.063,1.063,0,0,1,1.063-1.062h30.191a1.063,1.063,0,0,1,1.062,1.062v3.111A1.063,1.063,0,0,1,3709.61,2215.924Zm-30.192-4.4a.228.228,0,0,0-.228.228v3.111a.228.228,0,0,0,.228.228h30.192a.228.228,0,0,0,.228-.228v-3.111a.228.228,0,0,0-.228-.228Z" transform="translate(-3678.357 -2210.689)" fill="#2e2e2e"/>
            <path id="Path_1003747" data-name="Path 1003747" d="M3700.836,2213.724a.417.417,0,0,1-.417-.417v-2.2a.417.417,0,1,1,.834,0v2.2A.417.417,0,0,1,3700.836,2213.724Z" transform="translate(-3697.57 -2210.689)" fill="#2e2e2e"/>
            <path id="Path_1003748" data-name="Path 1003748" d="M3815.237,2213.724a.418.418,0,0,1-.417-.417v-2.2a.417.417,0,1,1,.834,0v2.2A.417.417,0,0,1,3815.237,2213.724Z" transform="translate(-3797.198 -2210.689)" fill="#2e2e2e"/>
            <path id="Path_1003749" data-name="Path 1003749" d="M3740.277,2216.866a.417.417,0,0,1-.417-.417v-4a.417.417,0,1,1,.834,0v4A.417.417,0,0,1,3740.277,2216.866Z" transform="translate(-3731.918 -2211.862)" fill="#2e2e2e"/>
            <path id="Path_1003750" data-name="Path 1003750" d="M3777.116,2216.866a.417.417,0,0,1-.417-.417v-4a.417.417,0,1,1,.834,0v4A.417.417,0,0,1,3777.116,2216.866Z" transform="translate(-3764.001 -2211.862)" fill="#2e2e2e"/>
            <path id="Path_1003751" data-name="Path 1003751" d="M3855.717,2216.866a.417.417,0,0,1-.417-.417v-4a.417.417,0,1,1,.834,0v4A.417.417,0,0,1,3855.717,2216.866Z" transform="translate(-3832.452 -2211.862)" fill="#2e2e2e"/>
            <path id="Path_1003752" data-name="Path 1003752" d="M3894.876,2215.625a.418.418,0,0,1-.417-.417v-2.758a.417.417,0,1,1,.834,0v2.758A.417.417,0,0,1,3894.876,2215.625Z" transform="translate(-3866.555 -2211.859)" fill="#2e2e2e"/>
          </g>
          <g id="Group_1180421" data-name="Group 1180421" transform="translate(1.768 24.372)">
            <rect id="Rectangle_455712" data-name="Rectangle 455712" width="31.481" height="4.4" rx="2.2" transform="translate(31.904 4.817) rotate(180)" fill="#4671f0"/>
            <path id="Path_1003753" data-name="Path 1003753" d="M3710.875,2185.956V2182.9a.646.646,0,0,0-.62-.67h-30.241a.587.587,0,0,0-.083.009.625.625,0,0,1,.585-.456h30.241a.647.647,0,0,1,.62.67v3.059a.653.653,0,0,1-.537.662.708.708,0,0,0,.035-.214Z" transform="translate(-3679.722 -2181.062)" fill="#fff"/>
            <path id="Path_1003754" data-name="Path 1003754" d="M3709.571,2181.455h-30.192a1.063,1.063,0,0,1-1.062-1.062v-3.111a1.063,1.063,0,0,1,1.062-1.062h30.192a1.063,1.063,0,0,1,1.062,1.062v3.111A1.063,1.063,0,0,1,3709.571,2181.455Zm-30.192-4.4a.228.228,0,0,0-.228.228v3.111a.228.228,0,0,0,.228.228h30.192a.228.228,0,0,0,.228-.228v-3.111a.228.228,0,0,0-.228-.228Z" transform="translate(-3678.317 -2176.22)" fill="#2e2e2e"/>
            <path id="Path_1003755" data-name="Path 1003755" d="M3719.7,2182.387a.417.417,0,0,1-.417-.417v-4a.417.417,0,1,1,.834,0v4A.417.417,0,0,1,3719.7,2182.387Z" transform="translate(-3713.99 -2177.385)" fill="#2e2e2e"/>
            <path id="Path_1003756" data-name="Path 1003756" d="M3796.677,2192.268a.417.417,0,0,1-.417-.417v-2.53a.417.417,0,1,1,.834,0v2.53A.417.417,0,0,1,3796.677,2192.268Z" transform="translate(-3781.03 -2187.266)" fill="#2e2e2e"/>
            <path id="Path_1003757" data-name="Path 1003757" d="M3841.387,2182.387a.418.418,0,0,1-.417-.417v-4a.417.417,0,1,1,.834,0v4A.417.417,0,0,1,3841.387,2182.387Z" transform="translate(-3819.967 -2177.385)" fill="#2e2e2e"/>
            <path id="Path_1003758" data-name="Path 1003758" d="M3881.057,2180.686a.417.417,0,0,1-.417-.417v-2.29a.417.417,0,1,1,.834,0v2.29A.417.417,0,0,1,3881.057,2180.686Z" transform="translate(-3854.515 -2177.388)" fill="#2e2e2e"/>
            <path id="Path_1003759" data-name="Path 1003759" d="M3759.417,2181.621a.418.418,0,0,1-.417-.417v-3.223a.417.417,0,0,1,.834,0v3.223A.417.417,0,0,1,3759.417,2181.621Z" transform="translate(-3748.581 -2177.39)" fill="#2e2e2e"/>
          </g>
          <g id="Group_1180422" data-name="Group 1180422" transform="translate(21.447 19.91)">
            <rect id="Rectangle_455713" data-name="Rectangle 455713" width="31.481" height="4.4" rx="2.2" transform="translate(31.977 4.817) rotate(180)" fill="#4671f0"/>
            <path id="Path_1003760" data-name="Path 1003760" d="M3863.344,2151.919v-3.386a.331.331,0,0,0-.318-.344h-30.543a.576.576,0,0,0-.1.011.613.613,0,0,1,.542-.35h30.734c.342,0,.127.3.127.671v3.059a.657.657,0,0,1-.518.66A.7.7,0,0,0,3863.344,2151.919Z" transform="translate(-3832.167 -2147.052)" fill="#fff"/>
            <path id="Path_1003761" data-name="Path 1003761" d="M3861.98,2146.9h-30.192a1.063,1.063,0,0,1-1.062-1.062v-3.11a1.063,1.063,0,0,1,1.062-1.062h30.192a1.063,1.063,0,0,1,1.062,1.062v3.11A1.063,1.063,0,0,1,3861.98,2146.9Zm-30.192-4.4a.228.228,0,0,0-.228.228v3.111a.228.228,0,0,0,.228.228h30.192a.228.228,0,0,0,.228-.228v-3.111a.228.228,0,0,0-.228-.228Z" transform="translate(-3830.726 -2141.67)" fill="#2e2e2e"/>
            <path id="Path_1003762" data-name="Path 1003762" d="M3853.216,2144.7a.417.417,0,0,1-.417-.417v-2.2a.417.417,0,1,1,.834,0v2.2A.417.417,0,0,1,3853.216,2144.7Z" transform="translate(-3849.949 -2141.669)" fill="#2e2e2e"/>
            <path id="Path_1003763" data-name="Path 1003763" d="M3967.617,2144.7a.417.417,0,0,1-.417-.417v-2.2a.417.417,0,1,1,.834,0v2.2A.417.417,0,0,1,3967.617,2144.7Z" transform="translate(-3949.577 -2141.669)" fill="#2e2e2e"/>
            <path id="Path_1003764" data-name="Path 1003764" d="M3892.656,2147.837a.417.417,0,0,1-.417-.417v-4a.417.417,0,1,1,.834,0v4A.417.417,0,0,1,3892.656,2147.837Z" transform="translate(-3884.296 -2142.835)" fill="#2e2e2e"/>
            <path id="Path_1003765" data-name="Path 1003765" d="M3929.486,2147.837a.417.417,0,0,1-.417-.417v-4a.417.417,0,1,1,.834,0v4A.418.418,0,0,1,3929.486,2147.837Z" transform="translate(-3916.371 -2142.835)" fill="#2e2e2e"/>
            <path id="Path_1003766" data-name="Path 1003766" d="M4008.1,2147.837a.418.418,0,0,1-.417-.417v-4a.417.417,0,1,1,.834,0v4A.417.417,0,0,1,4008.1,2147.837Z" transform="translate(-3984.83 -2142.835)" fill="#2e2e2e"/>
            <path id="Path_1003767" data-name="Path 1003767" d="M4047.247,2146.605a.417.417,0,0,1-.417-.417v-2.757a.417.417,0,1,1,.834,0v2.757A.417.417,0,0,1,4047.247,2146.605Z" transform="translate(-4018.925 -2142.84)" fill="#2e2e2e"/>
          </g>
          <g id="Group_1180423" data-name="Group 1180423" transform="translate(17.795 15.449)">
            <rect id="Rectangle_455714" data-name="Rectangle 455714" width="31.481" height="4.4" rx="2.2" transform="translate(31.853 4.817) rotate(180)" fill="#4671f0"/>
            <path id="Path_1003768" data-name="Path 1003768" d="M3835.4,2117.169v-3.289a.425.425,0,0,0-.407-.441h-30.454l-.022,0a.623.623,0,0,1,.574-.418h30.241a.647.647,0,0,1,.62.671v3.059a.648.648,0,0,1-.6.668A.729.729,0,0,0,3835.4,2117.169Z" transform="translate(-3804.245 -2112.261)" fill="#fff"/>
            <path id="Path_1003769" data-name="Path 1003769" d="M3833.691,2112.354H3803.5a1.063,1.063,0,0,1-1.062-1.062v-3.111a1.063,1.063,0,0,1,1.062-1.062h30.191a1.063,1.063,0,0,1,1.062,1.062v3.111A1.063,1.063,0,0,1,3833.691,2112.354Zm-30.192-4.4a.228.228,0,0,0-.228.228v3.111a.228.228,0,0,0,.228.228h30.191a.228.228,0,0,0,.228-.228v-3.111a.228.228,0,0,0-.228-.228Z" transform="translate(-3802.438 -2107.119)" fill="#2e2e2e"/>
            <path id="Path_1003770" data-name="Path 1003770" d="M3843.816,2113.286a.417.417,0,0,1-.417-.417v-4a.417.417,0,1,1,.834,0v4A.417.417,0,0,1,3843.816,2113.286Z" transform="translate(-3838.11 -2108.284)" fill="#2e2e2e"/>
            <path id="Path_1003771" data-name="Path 1003771" d="M3920.8,2113.286a.417.417,0,0,1-.417-.417v-4a.417.417,0,1,1,.834,0v4A.417.417,0,0,1,3920.8,2113.286Z" transform="translate(-3905.151 -2108.284)" fill="#2e2e2e"/>
            <path id="Path_1003772" data-name="Path 1003772" d="M3960.207,2113.286a.417.417,0,0,1-.417-.417v-4a.417.417,0,1,1,.834,0v4A.417.417,0,0,1,3960.207,2113.286Z" transform="translate(-3939.472 -2108.284)" fill="#2e2e2e"/>
            <path id="Path_1003773" data-name="Path 1003773" d="M3999.356,2113.286a.417.417,0,0,1-.417-.417v-4a.417.417,0,1,1,.834,0v4A.417.417,0,0,1,3999.356,2113.286Z" transform="translate(-3973.566 -2108.284)" fill="#2e2e2e"/>
            <path id="Path_1003774" data-name="Path 1003774" d="M4027.646,2112.054a.418.418,0,0,1-.417-.417v-2.757a.417.417,0,1,1,.834,0v2.757A.417.417,0,0,1,4027.646,2112.054Z" transform="translate(-3998.203 -2108.289)" fill="#2e2e2e"/>
            <path id="Path_1003775" data-name="Path 1003775" d="M3883.537,2112.521a.418.418,0,0,1-.417-.417v-3.224a.417.417,0,1,1,.834,0v3.224A.417.417,0,0,1,3883.537,2112.521Z" transform="translate(-3872.701 -2108.29)" fill="#2e2e2e"/>
          </g>
          <g id="Group_1180424" data-name="Group 1180424" transform="translate(19.567 10.997)">
            <rect id="Rectangle_455715" data-name="Rectangle 455715" width="31.481" height="4.4" rx="2.2" transform="translate(31.864 4.819) rotate(180)" fill="#4671f0"/>
            <path id="Path_1003776" data-name="Path 1003776" d="M3848.828,2082.3v-3.366a.35.35,0,0,0-.336-.364h-30.525c-.021,0-.042,0-.062.007a.639.639,0,0,1,.614-.6h30.241a.646.646,0,0,1,.62.67v3.059a.651.651,0,0,1-.558.664.618.618,0,0,0,.006-.067Z" transform="translate(-3817.681 -2077.284)" fill="#fff"/>
            <path id="Path_1003777" data-name="Path 1003777" d="M3847.419,2077.874h-30.191a1.063,1.063,0,0,1-1.062-1.062V2073.7a1.063,1.063,0,0,1,1.062-1.062h30.191a1.063,1.063,0,0,1,1.062,1.062v3.111A1.063,1.063,0,0,1,3847.419,2077.874Zm-30.191-4.4a.228.228,0,0,0-.228.228v3.111a.228.228,0,0,0,.228.228h30.191a.228.228,0,0,0,.228-.228V2073.7a.228.228,0,0,0-.228-.228Z" transform="translate(-3816.166 -2072.64)" fill="#2e2e2e"/>
            <path id="Path_1003778" data-name="Path 1003778" d="M3838.646,2075.674a.418.418,0,0,1-.417-.417v-2.2a.417.417,0,1,1,.834,0v2.2A.417.417,0,0,1,3838.646,2075.674Z" transform="translate(-3835.38 -2072.639)" fill="#2e2e2e"/>
            <path id="Path_1003779" data-name="Path 1003779" d="M3953.047,2075.674a.418.418,0,0,1-.417-.417v-2.2a.417.417,0,1,1,.834,0v2.2A.417.417,0,0,1,3953.047,2075.674Z" transform="translate(-3935.009 -2072.639)" fill="#2e2e2e"/>
            <path id="Path_1003780" data-name="Path 1003780" d="M3878.086,2078.817a.418.418,0,0,1-.417-.417v-4a.417.417,0,1,1,.834,0v4A.417.417,0,0,1,3878.086,2078.817Z" transform="translate(-3869.727 -2073.813)" fill="#2e2e2e"/>
            <path id="Path_1003781" data-name="Path 1003781" d="M3914.927,2077.762a.418.418,0,0,1-.417-.417V2074.4a.417.417,0,1,1,.834,0v2.943A.417.417,0,0,1,3914.927,2077.762Z" transform="translate(-3901.811 -2073.81)" fill="#2e2e2e"/>
            <path id="Path_1003782" data-name="Path 1003782" d="M3993.527,2078.817a.418.418,0,0,1-.417-.417v-4a.417.417,0,1,1,.834,0v4A.417.417,0,0,1,3993.527,2078.817Z" transform="translate(-3970.262 -2073.813)" fill="#2e2e2e"/>
            <path id="Path_1003783" data-name="Path 1003783" d="M4032.686,2077.574a.417.417,0,0,1-.417-.417V2074.4a.417.417,0,1,1,.834,0v2.757A.418.418,0,0,1,4032.686,2077.574Z" transform="translate(-4004.365 -2073.809)" fill="#2e2e2e"/>
          </g>
          <g id="Group_1180425" data-name="Group 1180425" transform="translate(2.617)">
            <path id="Path_1003784" data-name="Path 1003784" d="M3687.62,2011.219l22.206-21.037a.446.446,0,0,1,.631.017l2.413,2.546a.446.446,0,0,1-.017.631l-22.206,21.037a.446.446,0,0,1-.631-.017l-2.413-2.546A.446.446,0,0,1,3687.62,2011.219Z" transform="translate(-3687.146 -1989.725)" fill="#4671f0"/>
            <path id="Path_1003785" data-name="Path 1003785" d="M3713.765,1996.533l-2.315-2.444a.35.35,0,0,0-.494-.033l-22.16,20.994a.569.569,0,0,0-.04.048.639.639,0,0,1,.031-.86l21.954-20.8a.647.647,0,0,1,.911.061l2.1,2.221a.651.651,0,0,1,.052.866A.666.666,0,0,0,3713.765,1996.533Z" transform="translate(-3688.125 -1992.529)" fill="#fff"/>
            <path id="Path_1003786" data-name="Path 1003786" d="M3688.092,2012.618a1.06,1.06,0,0,1-.771-.331l-2.139-2.258a1.063,1.063,0,0,1,.041-1.5l21.917-20.764a1.064,1.064,0,0,1,1.5.041l2.139,2.258a1.062,1.062,0,0,1-.041,1.5l-21.917,20.764A1.059,1.059,0,0,1,3688.092,2012.618Zm-2.3-3.486a.228.228,0,0,0-.009.322l2.139,2.258a.228.228,0,0,0,.322.009l21.917-20.764a.228.228,0,0,0,.009-.322l-2.139-2.258a.228.228,0,0,0-.322-.009l-21.917,20.764Z" transform="translate(-3684.89 -1987.472)" fill="#2e2e2e"/>
            <path id="Path_1003787" data-name="Path 1003787" d="M3845.72,2003.01a.418.418,0,0,1-.3-.13l-1.513-1.6a.417.417,0,0,1,.606-.574l1.513,1.6a.417.417,0,0,1-.3.7Z" transform="translate(-3823.272 -1998.886)" fill="#2e2e2e"/>
            <path id="Path_1003788" data-name="Path 1003788" d="M3762.68,2081.68a.416.416,0,0,1-.3-.13l-1.513-1.6a.417.417,0,1,1,.606-.574l1.513,1.6a.417.417,0,0,1-.3.7Z" transform="translate(-3750.955 -2067.398)" fill="#2e2e2e"/>
            <path id="Path_1003789" data-name="Path 1003789" d="M3819.255,2032.411a.416.416,0,0,1-.3-.13l-2.748-2.9a.417.417,0,1,1,.605-.574l2.748,2.9a.417.417,0,0,1-.3.7Z" transform="translate(-3799.149 -2023.355)" fill="#2e2e2e"/>
            <path id="Path_1003790" data-name="Path 1003790" d="M3792.515,2057.741a.415.415,0,0,1-.3-.13l-2.748-2.9a.417.417,0,1,1,.606-.574l2.748,2.9a.417.417,0,0,1-.3.7Z" transform="translate(-3775.862 -2045.415)" fill="#2e2e2e"/>
            <path id="Path_1003791" data-name="Path 1003791" d="M3735.445,2111.8a.416.416,0,0,1-.3-.13l-2.748-2.9a.417.417,0,0,1,.606-.574l2.748,2.9a.417.417,0,0,1-.3.7Z" transform="translate(-3726.161 -2092.495)" fill="#2e2e2e"/>
            <path id="Path_1003792" data-name="Path 1003792" d="M3706.176,2137.831a.417.417,0,0,1-.3-.13l-1.9-2a.417.417,0,1,1,.606-.574l1.9,2a.417.417,0,0,1-.3.7Z" transform="translate(-3701.412 -2115.947)" fill="#2e2e2e"/>
          </g>
          <path id="Path_1003793" data-name="Path 1003793" d="M3747.365,2185.656l.829-3.885.891,3.852,2.359.828-2.324.892-.829,3.884-.891-3.85-2.359-.829Z" transform="translate(-3734.657 -2156.681)" fill="#fff"/>
          <path id="Path_1003794" data-name="Path 1003794" d="M3941.438,2108.865l1.087-4.855,1.166,4.813,2.93,1.086-2.887,1.166-1.087,4.855-1.165-4.811-2.931-1.087Z" transform="translate(-3903.18 -2088.962)" fill="#fff"/>
        </g>
        <g id="Group_1180426" data-name="Group 1180426" transform="translate(35.206 104.95)">
          <path id="Path_1003795" data-name="Path 1003795" d="M3554.6,2764.186a1.05,1.05,0,1,1,1.049-1.051A1.05,1.05,0,0,1,3554.6,2764.186Z" transform="translate(-3553.551 -2762.086)" fill="#2e2e2e"/>
          <path id="Path_1003796" data-name="Path 1003796" d="M3641.7,2764.186a1.05,1.05,0,1,1,1.048-1.051A1.051,1.051,0,0,1,3641.7,2764.186Z" transform="translate(-3629.405 -2762.086)" fill="#2e2e2e"/>
          <path id="Path_1003797" data-name="Path 1003797" d="M3728.8,2764.186a1.05,1.05,0,1,1,1.048-1.051A1.051,1.051,0,0,1,3728.8,2764.186Z" transform="translate(-3705.253 -2762.086)" fill="#2e2e2e"/>
          <path id="Path_1003798" data-name="Path 1003798" d="M3554.6,2850.343a1.05,1.05,0,1,1,1.049-1.05A1.05,1.05,0,0,1,3554.6,2850.343Z" transform="translate(-3553.551 -2837.119)" fill="#2e2e2e"/>
          <path id="Path_1003799" data-name="Path 1003799" d="M3641.7,2850.343a1.05,1.05,0,1,1,1.048-1.05A1.05,1.05,0,0,1,3641.7,2850.343Z" transform="translate(-3629.405 -2837.119)" fill="#2e2e2e"/>
          <path id="Path_1003800" data-name="Path 1003800" d="M3728.8,2850.343a1.05,1.05,0,1,1,1.048-1.05A1.05,1.05,0,0,1,3728.8,2850.343Z" transform="translate(-3705.253 -2837.119)" fill="#2e2e2e"/>
          <path id="Path_1003801" data-name="Path 1003801" d="M3554.6,2936.616a1.05,1.05,0,1,1,1.049-1.051A1.05,1.05,0,0,1,3554.6,2936.616Z" transform="translate(-3553.551 -2912.251)" fill="#2e2e2e"/>
          <path id="Path_1003802" data-name="Path 1003802" d="M3641.7,2936.616a1.05,1.05,0,1,1,1.048-1.051A1.051,1.051,0,0,1,3641.7,2936.616Z" transform="translate(-3629.405 -2912.251)" fill="#2e2e2e"/>
          <path id="Path_1003803" data-name="Path 1003803" d="M3728.8,2936.616a1.05,1.05,0,1,1,1.048-1.051A1.051,1.051,0,0,1,3728.8,2936.616Z" transform="translate(-3705.253 -2912.251)" fill="#2e2e2e"/>
        </g>
      </g>
      <g id="table" transform="translate(10.226 179.386)">
        <path id="Path_1003804" data-name="Path 1003804" d="M2969,3197.839h0c-76.28-.076-156.17-.09-251.417-.042a.775.775,0,0,1,0-1.55c36.974-.018,71.648-.028,104.681-.028,52.063,0,100.069.023,146.739.07a.775.775,0,0,1,0,1.55Z" transform="translate(-2716.811 -3196.219)" fill="#2e2e2e"/>
      </g>
      <g id="person_4" transform="translate(0 28.292)">
        <path id="Path_1003805" data-name="Path 1003805" d="M2874.384,2547.611l-1.123-.233s-5.18,3.09-6.652,3.756a45.683,45.683,0,0,0-8.551,6.62c-2,2.149-4.915,6.075-5.846,8.582s48.511,82.177,48.511,82.177l8.02.094,5.9-29.871s4.607,7.57,7.773,9.578a15.054,15.054,0,0,0,7.892,1.981c1.235.053,13.773.478,13.773.478l35.456.134.816-18.783-41-9.628s-12.762-30.506-15.106-33.924-6.119-9.306-9.038-12.457-9.471-6.776-9.471-6.776l-1.745-.322a62.413,62.413,0,0,1-9.854,1.264,85.387,85.387,0,0,1-10.29-.432c-3.247-.322-6.085-1.061-7.134-1.215a7.037,7.037,0,0,1-2.327-1.022Z" transform="translate(-2824.491 -2480.065)" fill="#4671f0"/>
        <path id="Path_1003806" data-name="Path 1003806" d="M3237.14,2560.818s1.73.761,2.281,1.065c2.711,1.494,6.552,3.625,9.471,6.776a59.558,59.558,0,0,1,8.763,12.62c2.649,5.764,15.162,34.36,15.162,34.36l42.586,9.727.065-2.2-41-9.628s-12.761-30.506-15.106-33.924-6.119-9.306-9.038-12.457-9.471-6.776-9.471-6.776l-1.745-.322Z" transform="translate(-3159.727 -2491.107)" fill="#fff"/>
        <path id="Path_1003807" data-name="Path 1003807" d="M2804.389,2947.75c-.021,0-.042,0-.063,0a.775.775,0,0,1-.709-.835c.034-.413,3.376-41.5,4.963-55.879a.775.775,0,1,1,1.54.17c-1.584,14.353-4.925,55.421-4.958,55.835a.775.775,0,0,1-.771.712Z" transform="translate(-2782.179 -2778.745)" fill="#2e2e2e"/>
        <path id="Path_1003808" data-name="Path 1003808" d="M3286.068,3121.875a.808.808,0,0,1-.14-.013.775.775,0,0,1-.623-.9l5.485-30.04a.775.775,0,1,1,1.524.278l-5.485,30.04A.774.774,0,0,1,3286.068,3121.875Z" transform="translate(-3201.662 -2952.87)" fill="#2e2e2e"/>
        <path id="Path_1003809" data-name="Path 1003809" d="M2702.172,2623.057a11.153,11.153,0,0,1-4.91-1.058,10.624,10.624,0,0,1-5.295-6.174c-1.214-3.412-.6-8.97,1.883-16.994a207.7,207.7,0,0,1,8.96-22.75c4.546-10.136,7.812-16.6,12.045-21.714,4.2-5.07,9.272-8.832,18.109-13.419a.775.775,0,0,1,.714,1.375c-16.49,8.56-20.547,14.532-29.454,34.392a206.352,206.352,0,0,0-8.894,22.573c-2.345,7.586-2.986,12.975-1.9,16.017a8.868,8.868,0,0,0,8.762,6.2,17.841,17.841,0,0,0,5.852-1.123.775.775,0,1,1,.511,1.463,19.489,19.489,0,0,1-6.381,1.212Z" transform="translate(-2684.425 -2474.389)" fill="#2e2e2e"/>
        <path id="Path_1003810" data-name="Path 1003810" d="M3029.024,2545.892c-6.609,0-13.539-.841-18.014-3.044a.775.775,0,0,1,.685-1.39c3.4,1.676,8.856,2.691,15.35,2.859a67.468,67.468,0,0,0,15.212-1.228.775.775,0,1,1,.342,1.511,65.687,65.687,0,0,1-13.574,1.293Z" transform="translate(-2962.42 -2474.839)" fill="#2e2e2e"/>
        <path id="Path_1003811" data-name="Path 1003811" d="M3842.606,3032.78a106.339,106.339,0,0,1,14.042-3.048,41.563,41.563,0,0,1,21.239.28c.805.222,4.159,2.087,4.055,3.777-.217,3.509-14.724-1.667-14.159.585,3.839,1.13,7.964,2.484,9.362,3.635s2.368,1.746,3.705,2.922c1.106.973,2.08,3.438,1.064,4.025a4.015,4.015,0,0,1-3.974.038c1.432,3.329-3.162,2.866-4.083,2.242a1.552,1.552,0,0,1-.074,2.294c-.852.88-2.894.515-3.672.2-2.024-.829-6.493-2.687-8.636-2.758s-4.966,1.576-7.033,1.888-3.521,1-5.389.843a52.1,52.1,0,0,1-7.613-1.491C3841.507,3048.053,3842.606,3032.78,3842.606,3032.78Z" transform="translate(-3685.998 -2899.048)" fill="#fff"/>
        <path id="Path_1003812" data-name="Path 1003812" d="M3882.606,3030.715a11.736,11.736,0,0,1-1.626-.138c-.379-.054-.855-.132-1.406-.223-2.736-.449-7.316-1.2-9.742-.578a.775.775,0,0,1-.385-1.5c2.74-.7,7.521.081,10.378.55.542.089,1.011.166,1.374.218,2.343.334,2.472-.133,2.515-.286.137-.5.182-.746.027-1.035a5.461,5.461,0,0,0-2.305-1.68c-3.87-1.921-8.463-2.1-14.171-1.773-7.054.4-21.458,3.719-21.6,3.753a.775.775,0,1,1-.349-1.51c.6-.138,14.679-3.382,21.863-3.791,5.954-.338,10.774-.14,14.948,1.933,3.2,1.589,3.553,2.813,3.083,4.516C3884.875,3030.373,3883.854,3030.715,3882.606,3030.715Z" transform="translate(-3688.848 -2893.915)" fill="#2e2e2e"/>
        <path id="Path_1003813" data-name="Path 1003813" d="M3844.261,3130.536a67.057,67.057,0,0,1-8.477-1.255.775.775,0,1,1,.311-1.518,57.322,57.322,0,0,0,8.363,1.219,31.9,31.9,0,0,0,8.679-2.237c.677-.249,1.26-.464,1.726-.611,1.468-.461,3.58.289,6.253,1.237a45.718,45.718,0,0,0,4.8,1.506c1.038.243,1.37-.028,1.612-.226.512-.418.483-.711.472-.821-.137-1.383-3.639-3.234-4.957-3.931-.2-.1-.371-.2-.516-.275-2.719-1.483-4.692-2.1-9.2-1.806a.775.775,0,1,1-.1-1.546c4.861-.312,7.11.394,10.041,1.992.14.077.309.165.5.266,2.688,1.421,5.572,3.107,5.775,5.148a2.433,2.433,0,0,1-1.034,2.175,3.059,3.059,0,0,1-2.945.534,47.623,47.623,0,0,1-4.963-1.554c-2.21-.784-4.3-1.525-5.271-1.219-.429.135-1,.344-1.654.586a33.129,33.129,0,0,1-9.13,2.331C3844.456,3130.533,3844.362,3130.536,3844.261,3130.536Z" transform="translate(-3680.533 -2978.92)" fill="#2e2e2e"/>
        <path id="Path_1003814" data-name="Path 1003814" d="M3997.65,3097.75a4.986,4.986,0,0,1-2.722-.961.775.775,0,0,1,.853-1.294c.855.564,2.037,1.083,2.8.351.306-.292.311-.351.282-.53a7.744,7.744,0,0,0-1.447-2.5c-.937-1.262-3.371-2.833-6.351-4.1a27.768,27.768,0,0,0-9.457-2.307.775.775,0,0,1,.048-1.549c6.5.2,14.781,4.034,17,7.032,2.005,2.7,2.236,3.89.989,5.079a2.873,2.873,0,0,1-2,.782Z" transform="translate(-3807.417 -2948.141)" fill="#2e2e2e"/>
        <path id="Path_1003815" data-name="Path 1003815" d="M4018.366,3075.647a8.033,8.033,0,0,1-3.44-1.154c-.114-.061-.205-.11-.27-.141a.775.775,0,0,1,.669-1.4c.08.038.191.1.331.172.573.306,2.317,1.239,3.112.9.118-.049.287-.159.4-.534.546-1.861-1.834-3.495-4.32-5.008a35.055,35.055,0,0,0-14.582-4.668.775.775,0,0,1,.1-1.546,36.749,36.749,0,0,1,15.291,4.891c2.36,1.438,5.927,3.611,5,6.768a2.242,2.242,0,0,1-1.285,1.526,2.563,2.563,0,0,1-1,.188Z" transform="translate(-3823.681 -2928.475)" fill="#2e2e2e"/>
        <path id="Path_1003816" data-name="Path 1003816" d="M3350.316,3001.018l-.732,0c-.277,0-27.878-.108-47.057-.533-6.144-.136-9.422-1.025-13.814-6.179-3.659-4.294-6.994-10.19-11.511-20.352a.775.775,0,1,1,1.416-.629c4.453,10.016,7.719,15.8,11.275,19.977,3.948,4.633,6.752,5.5,12.669,5.635,17.416.386,41.785.51,46.3.53l1.066-17.511-40.524-9.166a.775.775,0,0,1,.342-1.511l41.809,9.456-1.235,20.287Z" transform="translate(-3194.558 -2849.209)" fill="#2e2e2e"/>
        <path id="Path_1003817" data-name="Path 1003817" d="M3049.75,2245.35a19.741,19.741,0,0,0,1.018-4.9c.1-2.289.264-4.971.264-4.971s5.658.595,9.118-1.2,5.223-3.017,6.081-4.013,3.108-6.767,3.094-7.915c-1.762-1.318-2.127-1.962-2.385-3.73s-.227-2.677,1.069-3.865a4.66,4.66,0,0,1,2.075-1.3l1.56-.586s1.948-4.761,2.753-5.513,3.412-3.641,3.412-3.641.661,6.385,1.79,8.026,2.712,2.01,3.16,2.674a2.311,2.311,0,0,1,.369,2.134c-.3.549-1.662,1.027-1.662,1.027s.175,4.736.078,6.451-1.058,5.986-3.3,7.657a11.712,11.712,0,0,1-4.106,2.066l-3.235.86s.485,5.019.409,7.488a38.355,38.355,0,0,0,.173,4.739s-1.758,1.294-6.7,1.157-7.058.011-10.035-.767A24.594,24.594,0,0,1,3049.75,2245.35Z" transform="translate(-2996.534 -2180.774)" fill="#fff"/>
        <path id="Path_1003818" data-name="Path 1003818" d="M3169.935,2221.53a10.223,10.223,0,0,1-4.2-.707.775.775,0,1,1,.68-1.392c.017.008,2.231,1.018,6.549.276a9.166,9.166,0,0,0,7.529-5.828c1.292-3.291,1.018-7.188.561-9.879l-.154-.908.921,0a1.787,1.787,0,0,0,1.168-.436.945.945,0,0,0,.151-.843c-.065-.409-.369-.615-1.221-1.1-.225-.128-.48-.273-.743-.437-1.392-.871-2.254-4.39-2.644-6.41-.382-1.982-.915-4.89-.921-4.919a.775.775,0,0,1,1.524-.28c.005.029.537,2.93.918,4.9.595,3.083,1.446,5.079,1.944,5.39.236.147.465.278.688.4.884.5,1.8,1.022,1.986,2.2a2.489,2.489,0,0,1-.507,2.1,2.818,2.818,0,0,1-1.458.854,20.165,20.165,0,0,1-.769,9.92c-1.478,3.765-4.407,6.049-8.709,6.789a19.419,19.419,0,0,1-3.292.3Z" transform="translate(-3097.165 -2167.122)" fill="#2e2e2e"/>
        <path id="Path_1003819" data-name="Path 1003819" d="M3197.81,2294.407a.774.774,0,0,1-.753-.6,3.177,3.177,0,0,1,.52-2.676,3.11,3.11,0,0,1,2.428-1.184.775.775,0,1,1,.051,1.549,1.572,1.572,0,0,0-1.249.577,1.616,1.616,0,0,0-.242,1.378.776.776,0,0,1-.755.953Z" transform="translate(-3124.737 -2255.876)" fill="#2e2e2e"/>
        <path id="Path_1003820" data-name="Path 1003820" d="M2762.322,2679.18h-27.914a21.092,21.092,0,0,0-21.092,21.092v53.692a9.113,9.113,0,0,0,9.113,9.113l60.984.231v-63.037A21.092,21.092,0,0,0,2762.322,2679.18Z" transform="translate(-2703.542 -2594.848)" fill="#fff"/>
        <path id="Path_1003821" data-name="Path 1003821" d="M2778.19,2758.63a.775.775,0,0,1-.775-.775V2694.7a19.993,19.993,0,0,0-19.97-19.97h-37.374a11.217,11.217,0,0,0-11.2,11.2v71.919a.775.775,0,0,1-1.55,0v-71.919a12.768,12.768,0,0,1,12.754-12.754h37.374a21.544,21.544,0,0,1,21.52,21.52v63.153A.775.775,0,0,1,2778.19,2758.63Z" transform="translate(-2698.318 -2589.625)" fill="#2e2e2e"/>
        <path id="Path_1003822" data-name="Path 1003822" d="M2691.362,2679.18H2664.6a21.74,21.74,0,0,0-21.667,21.811l-.1,63.024,70.2-.106v-62.918A21.74,21.74,0,0,0,2691.362,2679.18Z" transform="translate(-2642.158 -2594.848)" fill="#c1c7d6"/>
        <path id="Path_1003823" data-name="Path 1003823" d="M2708.491,2758.63a.775.775,0,0,1-.775-.775V2694.7a19.993,19.993,0,0,0-19.97-19.97h-28.608a19.993,19.993,0,0,0-19.97,19.97v63.153a.775.775,0,0,1-1.55,0V2694.7a21.544,21.544,0,0,1,21.52-21.52h28.608a21.544,21.544,0,0,1,21.52,21.52v63.153A.775.775,0,0,1,2708.491,2758.63Z" transform="translate(-2637.618 -2589.625)" fill="#2e2e2e"/>
        <path id="Path_1003824" data-name="Path 1003824" d="M3249.69,2506.175a.775.775,0,0,1-.72-.489c-.081-.2-8.149-20.523-14-31.919-7.307-14.235-13.01-18.111-23.417-23.032a5.01,5.01,0,0,1-2.561-3.135c-1.039-3.215-.534-7.021-.165-9.8.085-.639.158-1.191.2-1.658a.775.775,0,1,1,1.543.144c-.046.5-.121,1.063-.208,1.719-.349,2.633-.828,6.238.1,9.12a3.572,3.572,0,0,0,1.749,2.21c9.823,4.644,16.349,8.559,24.134,23.725,5.884,11.463,13.98,31.851,14.061,32.056a.775.775,0,0,1-.72,1.06Z" transform="translate(-3134.677 -2382.579)" fill="#2e2e2e"/>
        <path id="Path_1003825" data-name="Path 1003825" d="M2907.453,2072.925c1.254.971,2.826,7.527-2.437,9.836,2,4.78,2.053,8.924-1.649,10.427,2.685,3.061,1.167,11.65-4.442,9.666-1.319,4.186-8.682,5.442-11.9-.5-3.706,3.544-8.485,4.108-11.493-.778-6.659,2.192-10.794-.851-9.559-4.413-3.491-1.021-3.808-9.291,4.308-12.561-3.18-2.691-4.768-9.851,1.277-12.089-4.243-4.242-3.276-9.129.7-11.814-4.6-1.913-4.35-9.022,2.428-12.27-3.318-4.591,3.533-12.809,12.2-11.52,4.04-6.605,11.991-5.961,14.321-.967,3.229-3.007,9.4-2.148,10.042,4.135,4.258.152,8.638,4.3,4.807,8.2,2.766,3.056.684,7.854-2.927,8.176,1.611,3.9-1.419,7.444-2.658,7.316-3.706-.107-5.7,1.974-6.034,4.069a5.545,5.545,0,0,0,3.026,5.084Z" transform="translate(-2834.454 -2031.3)" fill="url(#linear-gradient)"/>
        <g id="Group_1180427" data-name="Group 1180427" transform="translate(41.565 0.725)">
          <path id="Path_1003826" data-name="Path 1003826" d="M2968.8,2069.808a11.631,11.631,0,0,1,1.235-1.672,12.257,12.257,0,0,0-10.517,4.064A12.305,12.305,0,0,1,2968.8,2069.808Z" transform="translate(-2959.52 -2063.365)" fill="#fff"/>
          <path id="Path_1003827" data-name="Path 1003827" d="M3076.327,2039.685c-.645-6.283-6.813-7.142-10.042-4.135-2.138-4.582-9-5.5-13.244-.517,4.181-3.079,10.268-1.606,12.135,2.4,3.23-3.007,8.788-2.417,9.432,3.867,4.258.152,7.855,2.467,4.665,7.008a6.873,6.873,0,0,1,.583,7.259,5,5,0,0,0,1.278-7.675C3084.965,2043.986,3080.586,2039.838,3076.327,2039.685Z" transform="translate(-3040.966 -2031.686)" fill="#fff"/>
        </g>
        <path id="Path_1003828" data-name="Path 1003828" d="M2888.157,2101.954a7.826,7.826,0,0,1-6.541-3.633,8.686,8.686,0,0,1-6.586,2.3,7.306,7.306,0,0,1-5.057-3.36c-3.773,1.1-7.189.655-9.013-1.2a4.068,4.068,0,0,1-1.136-3.679,4.85,4.85,0,0,1-2.177-4.156c-.14-2.83,1.4-6.786,6.062-9.1a9.436,9.436,0,0,1-2.141-7.418,6.467,6.467,0,0,1,3.463-4.69,8.412,8.412,0,0,1-2.208-6.275,7.823,7.823,0,0,1,2.79-5.164,5.78,5.78,0,0,1-2.472-4.71c-.066-2.475,1.293-5.795,5.228-7.98a6.538,6.538,0,0,1,.658-6.291,12.916,12.916,0,0,1,12.238-5.75,9.965,9.965,0,0,1,8.8-4.764,7.663,7.663,0,0,1,6.145,3.446,6.913,6.913,0,0,1,6.348-.851,6.7,6.7,0,0,1,4.145,5.445,7.472,7.472,0,0,1,6.048,4.148,4.635,4.635,0,0,1-.91,4.806,5.623,5.623,0,0,1,.625,5.391,5.511,5.511,0,0,1-3.556,3.353,6.877,6.877,0,0,1-1.236,5.816c-.683.916-1.758,1.859-2.732,1.759a.775.775,0,0,1,.147-1.542,3.4,3.4,0,0,0,1.609-1.531,5.286,5.286,0,0,0,.485-4.8l-.4-.974,1.049-.094a3.868,3.868,0,0,0,3.193-2.55,4.106,4.106,0,0,0-.771-4.334l-.49-.542.511-.521a3.317,3.317,0,0,0,1.038-3.662c-.7-1.755-2.987-3.141-5.32-3.224l-.674-.024-.069-.671c-.246-2.4-1.4-4.105-3.235-4.8a5.455,5.455,0,0,0-5.508,1.149l-.78.726-.45-.966a6.056,6.056,0,0,0-5.3-3.409,8.549,8.549,0,0,0-7.66,4.452l-.268.438-.507-.076a11.337,11.337,0,0,0-11.188,4.957c-1.2,1.972-1.3,3.919-.267,5.343l.543.752-.836.4c-3.847,1.843-5.157,4.788-5.1,6.929a4.191,4.191,0,0,0,2.635,3.927l1.328.552-1.192.805a6.6,6.6,0,0,0-3.095,4.779,7.342,7.342,0,0,0,2.511,5.846l.855.854-1.134.42a5.078,5.078,0,0,0-3.5,3.965,7.812,7.812,0,0,0,2.458,6.805l.981.83-1.192.48c-4.737,1.908-6.272,5.534-6.147,8.059.077,1.555.77,2.749,1.766,3.04l.781.228-.266.769a2.586,2.586,0,0,0,.589,2.787c1.175,1.193,3.892,1.987,8,.636l.581-.191.321.521a5.966,5.966,0,0,0,4.266,3.142c1.933.25,4.074-.646,6.031-2.518l.733-.7.484.892a6.418,6.418,0,0,0,6.3,3.621,4.684,4.684,0,0,0,4.188-2.983l.241-.765.756.267a2.883,2.883,0,0,0,3.7-1.108c1.365-2.015,1.317-5.708-.094-7.317l-.718-.819,1.009-.41a3.59,3.59,0,0,0,2.088-2.005c.721-1.734.377-4.456-.968-7.664l-.295-.7.7-.306a5.12,5.12,0,0,0,3.117-3.488,6.791,6.791,0,0,0-.783-5.082.775.775,0,1,1,1.229-.944,8.288,8.288,0,0,1,1.055,6.411,6.552,6.552,0,0,1-3.319,4.189c.955,2.477,1.729,5.7.7,8.182a5.016,5.016,0,0,1-2.077,2.417,8.614,8.614,0,0,1-.356,8.407,4.348,4.348,0,0,1-4.778,1.907,6.39,6.39,0,0,1-5.237,3.355c-.256.024-.511.037-.762.037Zm16.938-44.1h0Z" transform="translate(-2829.228 -2026.069)" fill="#2e2e2e"/>
        <path id="Path_1003829" data-name="Path 1003829" d="M3180.979,2282.457a5.449,5.449,0,1,1,1.036-10.8.775.775,0,0,1-.292,1.522,3.9,3.9,0,1,0,1.667,6.9.775.775,0,1,1,.955,1.22,5.391,5.391,0,0,1-2.167,1.023,5.5,5.5,0,0,1-1.2.133Z" transform="translate(-3106.082 -2239.86)" fill="#2e2e2e"/>
      </g>
    </g>
  </g>
</svg>
