<svg xmlns="http://www.w3.org/2000/svg" width="70" height="70" viewBox="0 0 70 70">
  <g id="img24" transform="translate(-319.711 -6429)">
    <rect id="Rectangle_455523" data-name="Rectangle 455523" width="70" height="70" rx="10" transform="translate(319.711 6429)" fill="#faf2df"/>
    <g id="Group_1180541" data-name="Group 1180541" transform="translate(328.711 6438)">
      <g id="Group_1180539" data-name="Group 1180539" transform="translate(0.759 0.759)">
        <circle id="Ellipse_13895" data-name="Ellipse 13895" cx="11.358" cy="11.358" r="11.358" transform="translate(0)" fill="#7dc3ee"/>
        <path id="Path_1004224" data-name="Path 1004224" d="M20.481,51.312a11.356,11.356,0,0,1-8.8-18.536A11.356,11.356,0,1,0,27.658,48.754,11.308,11.308,0,0,1,20.481,51.312Z" transform="translate(-7.5 -30.218)" fill="#64acdc"/>
        <circle id="Ellipse_13896" data-name="Ellipse 13896" cx="11.358" cy="11.358" r="11.358" transform="translate(0 27.584)" fill="#d6bdef"/>
        <path id="Path_1004225" data-name="Path 1004225" d="M20.481,323.861a11.356,11.356,0,0,1-8.8-18.536A11.356,11.356,0,1,0,27.658,321.3,11.308,11.308,0,0,1,20.481,323.861Z" transform="translate(-7.5 -275.183)" fill="#c3aff0"/>
        <circle id="Ellipse_13897" data-name="Ellipse 13897" cx="11.358" cy="11.358" r="11.358" transform="translate(27.584)" fill="#e15f78"/>
        <path id="Path_1004226" data-name="Path 1004226" d="M293.028,51.312a11.356,11.356,0,0,1-8.8-18.536,11.356,11.356,0,1,0,15.977,15.977A11.307,11.307,0,0,1,293.028,51.312Z" transform="translate(-252.463 -30.218)" fill="#db4655"/>
        <circle id="Ellipse_13898" data-name="Ellipse 13898" cx="11.358" cy="11.358" r="11.358" transform="translate(27.584 27.584)" fill="#afefa5"/>
        <path id="Path_1004227" data-name="Path 1004227" d="M293.028,323.861a11.356,11.356,0,0,1-8.8-18.536A11.356,11.356,0,1,0,300.205,321.3,11.308,11.308,0,0,1,293.028,323.861Z" transform="translate(-252.463 -275.183)" fill="#8ce1a4"/>
        <g id="Group_1180538" data-name="Group 1180538" transform="translate(5.11 4.868)">
          <path id="Path_1004228" data-name="Path 1004228" d="M69.92,60.682l.569-.328a6.294,6.294,0,0,0-1.623-2.81l-.569.328a1.623,1.623,0,0,1-2.434-1.405V55.81a6.294,6.294,0,0,0-3.245,0v.657a1.623,1.623,0,0,1-2.434,1.405l-.569-.328a6.294,6.294,0,0,0-1.623,2.81l.569.328a1.623,1.623,0,0,1,0,2.81l-.569.328a6.294,6.294,0,0,0,1.623,2.81l.569-.328a1.623,1.623,0,0,1,2.434,1.405v.657a6.294,6.294,0,0,0,3.245,0v-.657A1.623,1.623,0,0,1,68.3,66.3l.569.328a6.294,6.294,0,0,0,1.623-2.81l-.569-.328a1.623,1.623,0,0,1,0-2.81ZM64.241,63.71a1.623,1.623,0,1,1,1.623-1.623A1.623,1.623,0,0,1,64.241,63.71Z" transform="translate(-57.993 -55.597)" fill="#fff"/>
          <circle id="Ellipse_13899" data-name="Ellipse 13899" cx="5.679" cy="5.679" r="5.679" transform="translate(28.153 28.396)" fill="#fff"/>
          <path id="Path_1004229" data-name="Path 1004229" d="M352.291,102.98H345.8a1.623,1.623,0,0,1-1.623-1.623V97.3a1.623,1.623,0,0,1,1.623-1.623h6.49a1.623,1.623,0,0,1,1.623,1.623v4.057A1.623,1.623,0,0,1,352.291,102.98Z" transform="translate(-315.214 -91.621)" fill="#fff"/>
        </g>
      </g>
      <g id="Group_1180540" data-name="Group 1180540" transform="translate(0 0)">
        <path id="Path_1004230" data-name="Path 1004230" d="M48.334,32.3a.759.759,0,0,0-.153,1.063A10.5,10.5,0,0,1,50.3,39.7,10.6,10.6,0,1,1,39.7,29.1a10.5,10.5,0,0,1,6.338,2.119.759.759,0,1,0,.91-1.215,12.008,12.008,0,0,0-6.489-2.4v-3.4A12.117,12.117,0,1,0,27.609,11.358h-3.4a12.007,12.007,0,0,0-2.4-6.489.759.759,0,1,0-1.215.91,10.5,10.5,0,0,1,2.119,6.338,10.6,10.6,0,1,1-10.6-10.6,10.5,10.5,0,0,1,6.338,2.119.759.759,0,0,0,.91-1.215A12.01,12.01,0,0,0,12.117,0a12.117,12.117,0,0,0-.759,24.21v3.4A12.117,12.117,0,1,0,24.21,40.461h3.4a12.117,12.117,0,0,0,24.21-.759A12.009,12.009,0,0,0,49.4,32.454a.759.759,0,0,0-1.062-.153ZM39.7,1.518a10.6,10.6,0,1,1-10.6,10.6,10.611,10.611,0,0,1,10.6-10.6ZM24.21,12.876h3.4A12.134,12.134,0,0,0,38.942,24.21v3.4A12.134,12.134,0,0,0,27.609,38.942h-3.4A12.134,12.134,0,0,0,12.876,27.609v-3.4A12.134,12.134,0,0,0,24.21,12.876ZM12.117,50.3a10.6,10.6,0,1,1,10.6-10.6,10.611,10.611,0,0,1-10.6,10.6Z" transform="translate(0 0)"/>
        <path id="Path_1004231" data-name="Path 1004231" d="M63.556,54.6l.569-.328a.759.759,0,0,0,.352-.861,7.052,7.052,0,0,0-1.812-3.139.759.759,0,0,0-.921-.126l-.569.328a.864.864,0,0,1-1.3-.748v-.657a.759.759,0,0,0-.569-.735,7.052,7.052,0,0,0-3.624,0,.759.759,0,0,0-.569.735v.657a.864.864,0,0,1-1.3.748l-.569-.328a.759.759,0,0,0-.921.126,7.053,7.053,0,0,0-1.812,3.139.759.759,0,0,0,.352.861l.569.328a.864.864,0,0,1,0,1.5l-.569.328a.759.759,0,0,0-.352.861,7.052,7.052,0,0,0,1.812,3.139.759.759,0,0,0,.921.126l.569-.328a.864.864,0,0,1,1.3.748v.657a.759.759,0,0,0,.569.735,7.052,7.052,0,0,0,3.624,0,.759.759,0,0,0,.569-.735v-.657a.864.864,0,0,1,1.3-.748l.569.328a.759.759,0,0,0,.921-.126,7.053,7.053,0,0,0,1.812-3.139.759.759,0,0,0-.352-.861l-.569-.328a.864.864,0,0,1,0-1.5Zm-.759,2.81.035.02a5.371,5.371,0,0,1-.864,1.5l-.035-.02a2.382,2.382,0,0,0-3.572,2.063v.041a5.392,5.392,0,0,1-1.727,0v-.041A2.382,2.382,0,0,0,53.062,58.9l-.035.02a5.371,5.371,0,0,1-.864-1.5l.035-.02a2.382,2.382,0,0,0,0-4.125l-.035-.02a5.371,5.371,0,0,1,.864-1.5l.035.02a2.382,2.382,0,0,0,3.572-2.063v-.041a5.392,5.392,0,0,1,1.727,0v.041a2.382,2.382,0,0,0,3.573,2.063l.035-.02a5.371,5.371,0,0,1,.864,1.5l-.035.02a2.382,2.382,0,0,0,0,4.125Z" transform="translate(-45.38 -43.228)"/>
        <path id="Path_1004232" data-name="Path 1004232" d="M98.576,96.193a2.382,2.382,0,1,0,2.382,2.382A2.384,2.384,0,0,0,98.576,96.193Zm0,3.245a.864.864,0,1,1,.864-.864A.865.865,0,0,1,98.576,99.438Z" transform="translate(-86.458 -86.457)"/>
        <path id="Path_1004233" data-name="Path 1004233" d="M53.716,319.931a5.637,5.637,0,0,0-4.815-4.815v-1.727a.759.759,0,0,0-1.518,0v1.727a5.637,5.637,0,0,0-4.815,4.815H40.84a.759.759,0,1,0,0,1.518h1.727a5.637,5.637,0,0,0,4.815,4.815v1.727a.759.759,0,1,0,1.518,0v-1.727a5.637,5.637,0,0,0,4.815-4.815h1.727a.759.759,0,1,0,0-1.518Zm-4.815,4.8v-.792a.759.759,0,0,0-1.518,0v.792a4.119,4.119,0,0,1-3.278-3.278H44.9a.759.759,0,1,0,0-1.518H44.1a4.118,4.118,0,0,1,3.278-3.278v.792a.759.759,0,0,0,1.518,0v-.792a4.119,4.119,0,0,1,3.278,3.278h-.792a.759.759,0,1,0,0,1.518h.792A4.119,4.119,0,0,1,48.9,324.727Z" transform="translate(-36.024 -280.988)"/>
        <path id="Path_1004234" data-name="Path 1004234" d="M335.1,328.661a6.438,6.438,0,1,0,6.438,6.438A6.445,6.445,0,0,0,335.1,328.661Zm4.861,5.679h-4.1v-4.1A4.932,4.932,0,0,1,339.961,334.34Zm-4.861,5.679a4.92,4.92,0,0,1-.759-9.781V335.1a.759.759,0,0,0,.759.759h4.861A4.928,4.928,0,0,1,335.1,340.019Z" transform="translate(-295.398 -295.398)"/>
        <path id="Path_1004235" data-name="Path 1004235" d="M339.059,68.178h6.49a2.384,2.384,0,0,0,2.382-2.382V61.74a2.384,2.384,0,0,0-2.382-2.382h-.863V57.683a1.572,1.572,0,0,0-1.57-1.57h-1.623a1.572,1.572,0,0,0-1.57,1.57v1.675h-.863a2.384,2.384,0,0,0-2.382,2.382V65.8A2.384,2.384,0,0,0,339.059,68.178Zm6.49-1.518h-6.49a.864.864,0,0,1-.864-.864V63.448c.131.055.273.109.427.16a9.061,9.061,0,0,0,1.3.319v.248a.759.759,0,1,0,1.518,0V64.1c.283.016.572.025.863.025s.58-.009.864-.025v.077a.759.759,0,1,0,1.518,0v-.248a9.061,9.061,0,0,0,1.3-.319c.154-.051.3-.1.427-.16V65.8A.865.865,0,0,1,345.549,66.66Zm-4.109-8.977a.052.052,0,0,1,.052-.052h1.623a.052.052,0,0,1,.052.052v1.675H341.44Zm-2.382,3.193h6.49a.864.864,0,0,1,.861.817c-.215.288-1.607.91-4.106.91s-3.891-.623-4.106-.91A.864.864,0,0,1,339.059,60.876Z" transform="translate(-302.602 -50.434)"/>
      </g>
    </g>
  </g>
</svg>
