<svg xmlns="http://www.w3.org/2000/svg" width="70" height="70" viewBox="0 0 70 70">
  <g id="img31" transform="translate(-207.711 -10089)">
    <rect id="Rectangle_455552" data-name="Rectangle 455552" width="70" height="70" rx="5" transform="translate(207.711 10089)" fill="#ff9a1a"/>
    <g id="Group_1180867" data-name="Group 1180867" transform="translate(215.714 10096.903)">
      <g id="Group_1180862" data-name="Group 1180862" transform="translate(13.898 2.754)">
        <g id="Group_1180861" data-name="Group 1180861">
          <g id="Group_1180860" data-name="Group 1180860" transform="translate(4.605 6.213)">
            <path id="Path_1007277" data-name="Path 1007277" d="M88.313,52.125H87.6a1.748,1.748,0,1,1,0-3.5h.614v2.438A5.654,5.654,0,0,0,88.313,52.125Z" transform="translate(-85.856 -45.998)" fill="#ffb69f"/>
            <path id="Path_1007278" data-name="Path 1007278" d="M159.845,50.378a1.746,1.746,0,0,1-1.747,1.747h-.708a5.679,5.679,0,0,0,.094-1.058V48.629h.614A1.747,1.747,0,0,1,159.845,50.378Z" transform="translate(-142.972 -45.998)" fill="#ffb69f"/>
            <path id="Path_1007279" data-name="Path 1007279" d="M109.73,35.576v5.069a5.679,5.679,0,0,1-.094,1.058,6.073,6.073,0,0,1-11.961,0,5.621,5.621,0,0,1-.094-1.058V35.576Z" transform="translate(-95.219 -35.576)" fill="#ffb69f"/>
          </g>
          <path id="Path_1007280" data-name="Path 1007280" d="M110.037,5.5l-1.1-.753a2.085,2.085,0,0,1-2.048,1.7h-6.554A2.758,2.758,0,0,0,97.579,9.2v1.759h12.15l.76-.771a3.072,3.072,0,0,0-.45-4.689Z" transform="translate(-90.611 -4.75)" fill="#7c7b7a"/>
          <path id="Path_1007281" data-name="Path 1007281" d="M100.015,35.578l-2.437,3.437V35.578Z" transform="translate(-90.611 -29.364)" fill="#afafaf"/>
          <path id="Path_1007282" data-name="Path 1007282" d="M148.189,35.578v3.437l-2.441-3.437Z" transform="translate(-129.072 -29.364)" fill="#afafaf"/>
          <path id="Path_1007283" data-name="Path 1007283" d="M113.35,89.038a6.733,6.733,0,0,1-9.85,0l1.542-.468V85.884l6.676,0v2.691l1.631.468Z" transform="translate(-95.339 -69.528)" fill="#ffb69f"/>
          <path id="Path_1007284" data-name="Path 1007284" d="M89.21,107.885H63.01l.246-1.411.149-.855a2.961,2.961,0,0,1,2.058-2.332l5.706-1.737h0a6.733,6.733,0,0,0,9.85,0l5.855,1.78a2.956,2.956,0,0,1,1.939,2.29l.149.855Z" transform="translate(-63.01 -82.039)" fill="#72c3e9"/>
          <path id="Path_1007285" data-name="Path 1007285" d="M89.21,127.391H63.01l.246-1.411H88.965Z" transform="translate(-63.01 -101.545)" fill="#4ba5c8"/>
        </g>
      </g>
      <path id="Path_1007286" data-name="Path 1007286" d="M53.986,133.988V155.81a1.008,1.008,0,0,1-1.008,1.008H5.008A1.008,1.008,0,0,1,4,155.81V133.988a1.008,1.008,0,0,1,1.008-1.008H6.5v.76a1.41,1.41,0,0,0,1.411,1.411H12.34a1.411,1.411,0,0,0,1.411-1.411v-.76H44.235v.76a1.411,1.411,0,0,0,1.411,1.411H50.08a1.41,1.41,0,0,0,1.411-1.411v-.76h1.487a1.008,1.008,0,0,1,1.008,1.008Z" transform="translate(-1.996 -104.38)" fill="#efefef"/>
      <path id="Path_1007287" data-name="Path 1007287" d="M20.055,132.98v.76a2.624,2.624,0,0,1-2.62,2.62H13a2.623,2.623,0,0,1-2.62-2.62v-.76h1.209v.76A1.41,1.41,0,0,0,13,135.151h4.434a1.411,1.411,0,0,0,1.411-1.411v-.76Z" transform="translate(-7.09 -104.38)" fill="#afafaf"/>
      <path id="Path_1007288" data-name="Path 1007288" d="M207.295,132.98v.76a2.623,2.623,0,0,1-2.62,2.62H200.24a2.624,2.624,0,0,1-2.62-2.62v-.76h1.209v.76a1.411,1.411,0,0,0,1.411,1.411h4.434a1.41,1.41,0,0,0,1.411-1.411v-.76Z" transform="translate(-156.59 -104.38)" fill="#afafaf"/>
      <path id="Path_1007289" data-name="Path 1007289" d="M51.027,173.032a1.209,1.209,0,0,1-1.209,1.209H23.209A1.209,1.209,0,0,1,22,173.032V160.209a1.209,1.209,0,1,1,2.419,0v11.614h25.4A1.209,1.209,0,0,1,51.027,173.032Z" transform="translate(-16.368 -125.156)" fill="#72c3e9"/>
      <path id="Path_1007290" data-name="Path 1007290" d="M91.68,185.627h-4.3V177.3a1.008,1.008,0,0,1,1.008-1.008h2.284A1.008,1.008,0,0,1,91.68,177.3Z" transform="translate(-68.57 -138.959)" fill="#f0c020"/>
      <path id="Path_1007291" data-name="Path 1007291" d="M57.852,196.728h-4.3V191.2a1.008,1.008,0,0,1,1.008-1.008h2.284a1.008,1.008,0,0,1,1.008,1.008Z" transform="translate(-41.561 -150.061)" fill="#fc5d3d"/>
      <path id="Path_1007292" data-name="Path 1007292" d="M125.508,176.414h-4.3V165.758a1.008,1.008,0,0,1,1.008-1.008H124.5a1.008,1.008,0,0,1,1.008,1.008Z" transform="translate(-95.58 -129.747)" fill="#13bf6d"/>
      <g id="Group_1180863" data-name="Group 1180863" transform="translate(4.499 25.679)">
        <path id="Path_1007293" data-name="Path 1007293" d="M210.876,119.9v2.27a1.41,1.41,0,0,1-1.411,1.411h-4.434a1.411,1.411,0,0,1-1.411-1.411V119.9a1.412,1.412,0,0,1,1.411-1.411h4.434A1.411,1.411,0,0,1,210.876,119.9Z" transform="translate(-165.88 -118.49)" fill="#ffb69f"/>
        <path id="Path_1007294" data-name="Path 1007294" d="M23.636,119.9v2.27a1.411,1.411,0,0,1-1.411,1.411H17.791a1.41,1.41,0,0,1-1.411-1.411V119.9a1.411,1.411,0,0,1,1.411-1.411h4.434A1.412,1.412,0,0,1,23.636,119.9Z" transform="translate(-16.38 -118.49)" fill="#ffb69f"/>
      </g>
      <g id="Group_1180864" data-name="Group 1180864" transform="translate(13.774 31.681)">
        <path id="Path_1007295" data-name="Path 1007295" d="M66.71,150.84c-.825-.273-1.677-.511-2.156-2.572-.441,1.9-1.147,2.238-2.156,2.572a2.863,2.863,0,0,1,2.156,2.572C65,151.468,65.751,151.157,66.71,150.84Z" transform="translate(-62.398 -148.268)" fill="#f0c020"/>
      </g>
      <g id="Group_1180865" data-name="Group 1180865" transform="translate(34.915 40.828)">
        <path id="Path_1007296" data-name="Path 1007296" d="M171.595,196.218c-.825-.273-1.677-.511-2.156-2.572-.441,1.9-1.147,2.238-2.156,2.572a2.863,2.863,0,0,1,2.156,2.572C169.89,196.846,170.636,196.535,171.595,196.218Z" transform="translate(-167.283 -193.646)" fill="#f0c020"/>
      </g>
      <path id="Path_1007297" data-name="Path 1007297" d="M57.362,169.231h-.924a.5.5,0,1,1,0-1.008h.924a.5.5,0,1,1,0,1.008Zm-2.939,0H11a.5.5,0,0,1-.5-.5V150.671a.5.5,0,0,1,1.008,0v17.552H54.423a.5.5,0,0,1,0,1.008Z" transform="translate(-7.186 -118.103)" fill="#fff"/>
      <path id="Path_1007298" data-name="Path 1007298" d="M99,191.49a.5.5,0,0,1-.5-.5v-5.063a.5.5,0,0,1,1.008,0v5.063A.5.5,0,0,1,99,191.49Zm0-7.079a.5.5,0,0,1-.5-.5v-.4a.5.5,0,1,1,1.008,0v.4A.5.5,0,0,1,99,184.411Z" transform="translate(-77.449 -144.318)" fill="#f8e5b0"/>
      <path id="Path_1007299" data-name="Path 1007299" d="M65.671,202.631a.5.5,0,0,1-.5-.5v-2.251a.5.5,0,1,1,1.008,0v2.251A.5.5,0,0,1,65.671,202.631Zm0-4.266a.5.5,0,0,1-.5-.5v-.4a.5.5,0,1,1,1.008,0v.4A.5.5,0,0,1,65.671,198.365Z" transform="translate(-50.834 -155.46)" fill="#ffcbc3"/>
      <path id="Path_1007300" data-name="Path 1007300" d="M133.171,183.505a.5.5,0,0,1-.5-.5v-7.079a.5.5,0,1,1,1.008,0V183A.5.5,0,0,1,133.171,183.505Zm0-9.094a.5.5,0,0,1-.5-.5v-.4a.5.5,0,0,1,1.008,0v.4A.5.5,0,0,1,133.171,174.411Z" transform="translate(-104.729 -136.334)" fill="#76ffbb"/>
      <path id="Path_1007301" data-name="Path 1007301" d="M116.469,68.588a2.4,2.4,0,0,0,4.485,0,.506.506,0,0,0-.3-.649.515.515,0,0,0-.649.3,1.386,1.386,0,0,1-2.594,0,.515.515,0,0,0-.647-.3.5.5,0,0,0-.3.645Z" transform="translate(-91.772 -52.426)"/>
      <path id="Path_1007302" data-name="Path 1007302" d="M112.2,49.347V48.99a.5.5,0,0,0-1.008,0v.358a.5.5,0,0,0,1.008,0Z" transform="translate(-87.58 -36.917)"/>
      <path id="Path_1007303" data-name="Path 1007303" d="M139.742,49.851a.5.5,0,0,0,.5-.5V48.99a.5.5,0,1,0-1.008,0v.358A.5.5,0,0,0,139.742,49.851Z" transform="translate(-109.976 -36.917)"/>
      <path id="Path_1007304" data-name="Path 1007304" d="M125.717,52.9a.5.5,0,0,0,.5-.5V50.764a.5.5,0,1,0-1.008,0V52.4A.5.5,0,0,0,125.717,52.9Z" transform="translate(-98.778 -38.333)"/>
      <path id="Path_1007305" data-name="Path 1007305" d="M122.2,11.174a.5.5,0,1,0,.5-.5A.5.5,0,0,0,122.2,11.174Z" transform="translate(-96.372 -6.723)"/>
      <path id="Path_1007306" data-name="Path 1007306" d="M62.033,125.123a.5.5,0,1,0-.411-.585A.5.5,0,0,0,62.033,125.123Z" transform="translate(-47.998 -97.308)"/>
      <path id="Path_1007307" data-name="Path 1007307" d="M170.734,170.087a.5.5,0,0,0-.5-.5h-8.8a.5.5,0,0,0-.234.057L155.16,172.8a.5.5,0,0,0,.467.893l5.925-3.1h8.678A.5.5,0,0,0,170.734,170.087Z" transform="translate(-122.473 -133.606)"/>
      <path id="Path_1007308" data-name="Path 1007308" d="M200.127,181.917h-7.29a.5.5,0,1,0,0,1.008h7.29a.5.5,0,1,0,0-1.008Z" transform="translate(-152.369 -143.454)"/>
      <path id="Path_1007309" data-name="Path 1007309" d="M200.127,194.25h-7.29a.5.5,0,0,0,0,1.008h7.29a.5.5,0,0,0,0-1.008Z" transform="translate(-152.369 -153.301)"/>
      <path id="Path_1007310" data-name="Path 1007310" d="M192.837,226.258h7.29a.5.5,0,1,0,0-1.008h-7.29a.5.5,0,1,0,0,1.008Z" transform="translate(-152.369 -178.052)"/>
      <circle id="Ellipse_13900" data-name="Ellipse 13900" cx="0.504" cy="0.504" r="0.504" transform="translate(42.69 51.934)"/>
      <path id="Path_1007311" data-name="Path 1007311" d="M21.213,156.5a1.715,1.715,0,0,0-1.713,1.713v12.823a1.715,1.715,0,0,0,1.713,1.713H47.822a1.713,1.713,0,0,0,0-3.426H44.8V159.171a1.513,1.513,0,0,0-1.512-1.512H41.008a1.513,1.513,0,0,0-1.512,1.512v10.152H37.985V161.5a1.513,1.513,0,0,0-1.512-1.512H34.19a1.513,1.513,0,0,0-1.512,1.512v7.827H31.167V164.3a1.513,1.513,0,0,0-1.512-1.512H27.371A1.513,1.513,0,0,0,25.86,164.3v5.024H22.926v-11.11a1.715,1.715,0,0,0-1.713-1.713ZM40.5,159.171a.5.5,0,0,1,.5-.5h2.284a.5.5,0,0,1,.5.5v10.152H40.5ZM33.686,161.5a.5.5,0,0,1,.5-.5h2.284a.5.5,0,0,1,.5.5v7.827H33.686Zm-6.818,2.8a.5.5,0,0,1,.5-.5h2.284a.5.5,0,0,1,.5.5v5.024H26.867Zm20.955,6.032a.705.705,0,1,1,0,1.411H21.213a.706.706,0,0,1-.705-.705V158.213a.705.705,0,0,1,1.411,0v11.614a.5.5,0,0,0,.5.5Z" transform="translate(-14.372 -123.16)"/>
      <path id="Path_1007312" data-name="Path 1007312" d="M62.072,151.53a.5.5,0,0,0,.982,0c.4-1.738,1-1.935,1.823-2.207a.5.5,0,0,0,0-.957c-.789-.261-1.41-.427-1.823-2.208a.5.5,0,0,0-.982,0c-.4,1.738-1,1.935-1.823,2.207a.5.5,0,0,0,0,.957C61.668,149.792,61.829,150.483,62.072,151.53Zm.493-3.747a2.806,2.806,0,0,0,.919,1.066,2.724,2.724,0,0,0-.909,1.029,2.85,2.85,0,0,0-.96-1.022A2.732,2.732,0,0,0,62.564,147.783Z" transform="translate(-46.632 -114.591)"/>
      <path id="Path_1007313" data-name="Path 1007313" d="M166.957,196.908a.5.5,0,0,0,.982,0c.4-1.738,1-1.935,1.823-2.207a.5.5,0,0,0,0-.957c-.789-.261-1.41-.427-1.823-2.208a.5.5,0,0,0-.982,0c-.4,1.738-1,1.935-1.823,2.207a.5.5,0,0,0,0,.957C166.554,195.169,166.714,195.861,166.957,196.908Zm.493-3.747a2.806,2.806,0,0,0,.919,1.066,2.725,2.725,0,0,0-.909,1.029,2.85,2.85,0,0,0-.96-1.022A2.731,2.731,0,0,0,167.449,193.161Z" transform="translate(-130.377 -150.823)"/>
      <g id="Group_1180866" data-name="Group 1180866" transform="translate(1.5 2.25)">
        <path id="Path_1007314" data-name="Path 1007314" d="M50.982,28.1H50V27.09a1.917,1.917,0,0,0-1.915-1.915H43.65a1.917,1.917,0,0,0-1.915,1.915V28.1H40.522L40.2,26.248a3.469,3.469,0,0,0-2.27-2.679c-7.175-2.181-5.371-1.642-7.149-2.15V19.37A6.546,6.546,0,0,0,33.33,15.6h.3a2.251,2.251,0,1,0,0-4.5h-.109V9.172l.613-.621a3.575,3.575,0,0,0-.524-5.46l-1.1-.752a.5.5,0,0,0-.78.32,1.583,1.583,0,0,1-1.554,1.288H28.348a.5.5,0,1,0,0,1.008l1.828,0a2.574,2.574,0,0,0,2.306-1.411l.558.381a2.569,2.569,0,0,1,.377,3.918l-.613.623H21.368l0-1.256a2.263,2.263,0,0,1,2.253-2.255h.693a.5.5,0,1,0,0-1.006h-.693a3.263,3.263,0,0,0-3.261,3.261v3.886h-.111a2.251,2.251,0,1,0,0,4.5h.3A6.6,6.6,0,0,0,23.1,19.375v2.05s-.423.126-3.076.933a.5.5,0,1,0,.292.965l1.6-.488a7.2,7.2,0,0,0,5.053,2.074h.008a7.267,7.267,0,0,0,5.079-2.074l5.556,1.688a2.485,2.485,0,0,1,1.6,1.9L39.5,28.1h-25l.292-1.675a2.456,2.456,0,0,1,1.675-1.927.5.5,0,0,0,.326-.633.509.509,0,0,0-.633-.327,3.454,3.454,0,0,0-2.36,2.715L13.475,28.1H12.259V27.09a1.917,1.917,0,0,0-1.915-1.915H5.91A1.917,1.917,0,0,0,4,27.09V28.1H3.012A1.515,1.515,0,0,0,1.5,29.608V51.43a1.515,1.515,0,0,0,1.512,1.512H41.179a.5.5,0,0,0,0-1.008H3.012a.5.5,0,0,1-.5-.5V29.608a.5.5,0,0,1,.5-.5H4v.256A1.917,1.917,0,0,0,5.91,31.274h4.434a1.917,1.917,0,0,0,1.915-1.915V29.1H41.735v.256a1.917,1.917,0,0,0,1.915,1.915h4.434A1.917,1.917,0,0,0,50,29.36V29.1h.984a.5.5,0,0,1,.5.5V51.43a.5.5,0,0,1-.5.5H45.21a.5.5,0,0,0,0,1.008h5.773a1.515,1.515,0,0,0,1.512-1.512V29.608A1.515,1.515,0,0,0,50.982,28.1ZM33.517,14.035V12.409s0-.3,0-.306h.109a1.244,1.244,0,1,1,0,2.487H33.5c.013-.052.022-.494.022-.554Zm-13.134.554h-.133a1.244,1.244,0,0,1,0-2.487h.111v1.933c0,.259.022.551.022.554ZM11.251,29.36a.908.908,0,0,1-.907.907h-.53V28.372a.5.5,0,0,0-1.008,0v1.895H7.444V28.372a.5.5,0,1,0-1.006,0v1.895H5.91A.908.908,0,0,1,5,29.36V27.09a.908.908,0,0,1,.907-.907h4.434a.908.908,0,0,1,.907.907ZM32.51,9.472v1.352L31.55,9.472Zm-11.14,0h.957l-.957,1.35Zm0,4.563V12.564l2.193-3.092h6.752l2.195,3.092v1.471a5.57,5.57,0,1,1-11.14,0Zm2.378,8.244A.5.5,0,0,0,24.1,21.8V19.975a6.557,6.557,0,0,0,5.668,0V21.8a.5.5,0,0,0,.365.484l.77.222a6.248,6.248,0,0,1-3.938,1.4h0a6.176,6.176,0,0,1-3.927-1.407ZM48.991,29.36a.908.908,0,0,1-.907.907h-.528V28.372a.5.5,0,0,0-1.008,0v1.895H45.188V28.372a.5.5,0,0,0-1.008,0v1.895h-.53a.908.908,0,0,1-.907-.907V27.09a.908.908,0,0,1,.907-.907h4.434a.908.908,0,0,1,.907.907Z" transform="translate(-1.5 -2.25)"/>
        <path id="Path_1007315" data-name="Path 1007315" d="M82.693,105.8a.5.5,0,1,0-.629-.337A.505.505,0,0,0,82.693,105.8Z" transform="translate(-65.809 -84.141)"/>
      </g>
    </g>
  </g>
</svg>
