<svg xmlns="http://www.w3.org/2000/svg" width="70" height="70" viewBox="0 0 70 70">
  <g id="img5" transform="translate(-320 -900)">
    <rect id="Rectangle_455460" data-name="Rectangle 455460" width="70" height="70" transform="translate(320 900)" fill="#faf2df"/>
    <g id="Group_1180469" data-name="Group 1180469" transform="translate(331.973 899.41)">
      <path id="Path_1004061" data-name="Path 1004061" d="M7.5,117.944v32.172a1.356,1.356,0,0,0,1.356,1.356H50.848a1.356,1.356,0,0,0,1.356-1.356V117.944Z" transform="translate(-6.825 -94.772)" fill="#f1f4f6"/>
      <g id="Group_1180468" data-name="Group 1180468" transform="translate(4.4 14.48)">
        <path id="Path_1004062" data-name="Path 1004062" d="M51.3,26.273h-2.29a.1.1,0,0,1-.1-.1V21.4a.1.1,0,0,1,.1-.1H51.3a.1.1,0,0,1,.1.1v4.774A.1.1,0,0,1,51.3,26.273Z" transform="translate(-48.917 -21.306)" fill="#d0e2e7"/>
        <path id="Path_1004063" data-name="Path 1004063" d="M147.943,26.273h-2.29a.1.1,0,0,1-.1-.1V21.4a.1.1,0,0,1,.1-.1h2.29a.1.1,0,0,1,.1.1v4.774A.1.1,0,0,1,147.943,26.273Z" transform="translate(-136.863 -21.306)" fill="#d0e2e7"/>
        <path id="Path_1004064" data-name="Path 1004064" d="M244.582,26.273h-2.29a.1.1,0,0,1-.1-.1V21.4a.1.1,0,0,1,.1-.1h2.29a.1.1,0,0,1,.1.1v4.774A.1.1,0,0,1,244.582,26.273Z" transform="translate(-224.81 -21.306)" fill="#d0e2e7"/>
        <path id="Path_1004065" data-name="Path 1004065" d="M341.22,26.273h-2.29a.1.1,0,0,1-.1-.1V21.4a.1.1,0,0,1,.1-.1h2.29a.1.1,0,0,1,.1.1v4.774A.1.1,0,0,1,341.22,26.273Z" transform="translate(-312.755 -21.306)" fill="#d0e2e7"/>
        <path id="Path_1004066" data-name="Path 1004066" d="M437.859,26.273h-2.29a.1.1,0,0,1-.1-.1V21.4a.1.1,0,0,1,.1-.1h2.29a.1.1,0,0,1,.1.1v4.774A.1.1,0,0,1,437.859,26.273Z" transform="translate(-400.702 -21.306)" fill="#d0e2e7"/>
      </g>
      <path id="Path_1004067" data-name="Path 1004067" d="M50.848,48.917H48.479V51.3a.1.1,0,0,1-.1.1h-2.29a.1.1,0,0,1-.1-.1V48.917H39.786V51.3a.1.1,0,0,1-.1.1H37.4a.1.1,0,0,1-.1-.1V48.917H31.094V51.3a.1.1,0,0,1-.1.1h-2.29a.1.1,0,0,1-.1-.1V48.917H22.4V51.3a.1.1,0,0,1-.1.1h-2.29a.1.1,0,0,1-.1-.1V48.917H13.709V51.3a.1.1,0,0,1-.1.1h-2.29a.1.1,0,0,1-.1-.1V48.917H8.856A1.356,1.356,0,0,0,7.5,50.273v4.853H52.2V50.273a1.356,1.356,0,0,0-1.356-1.356Z" transform="translate(-6.825 -31.954)" fill="#dd636e"/>
      <path id="Path_1004068" data-name="Path 1004068" d="M48.606,117.944v24.865a6.865,6.865,0,0,1-6.865,6.865H7.5v.443a1.356,1.356,0,0,0,1.356,1.356H50.848a1.356,1.356,0,0,0,1.356-1.356V117.944Z" transform="translate(-6.825 -94.772)" fill="#dfeaef"/>
      <path id="Path_1004069" data-name="Path 1004069" d="M43.715,163.089h-8.5a.1.1,0,0,1-.1-.1v-3.53a.1.1,0,0,1,.1-.1h8.5a.1.1,0,0,1,.1.1v3.53A.1.1,0,0,1,43.715,163.089Z" transform="translate(-31.961 -132.466)" fill="#9bd069"/>
      <path id="Path_1004070" data-name="Path 1004070" d="M72.566,204.5H62.828a.1.1,0,0,1-.1-.1v-3.53a.1.1,0,0,1,.1-.1h9.739a.1.1,0,0,1,.1.1v3.53a.1.1,0,0,1-.1.1Z" transform="translate(-57.088 -170.156)" fill="#8bc852"/>
      <path id="Path_1004071" data-name="Path 1004071" d="M101.418,245.919H90.438a.1.1,0,0,1-.1-.1v-3.53a.1.1,0,0,1,.1-.1h10.98a.1.1,0,0,1,.1.1v3.53A.1.1,0,0,1,101.418,245.919Z" transform="translate(-82.214 -207.846)" fill="#9bd069"/>
      <path id="Path_1004072" data-name="Path 1004072" d="M229.388,287.333h-14.8v-3.628a.1.1,0,0,1,.1-.1h14.706a.1.1,0,0,1,.1.1v3.53A.1.1,0,0,1,229.388,287.333Z" transform="translate(-195.283 -245.535)" fill="#4073c8"/>
      <path id="Path_1004073" data-name="Path 1004073" d="M221.938,328.748h-7.255a.1.1,0,0,1-.1-.1v-3.628h7.45v3.628a.1.1,0,0,1-.1.1Z" transform="translate(-195.283 -283.224)" fill="#3b66c1"/>
      <path id="Path_1004074" data-name="Path 1004074" d="M375.132,370.164h-8.595a.1.1,0,0,1-.1-.1v-3.53a.1.1,0,0,1,.1-.1h8.5a.1.1,0,0,1,.1.1v3.628Z" transform="translate(-333.479 -320.915)" fill="#e28424"/>
      <path id="Path_1004075" data-name="Path 1004075" d="M400.162,411.578h-6.013a.1.1,0,0,1-.1-.1v-3.628h6.209v3.628A.1.1,0,0,1,400.162,411.578Z" transform="translate(-358.607 -358.604)" fill="#dd6938"/>
      <path id="Path_1004076" data-name="Path 1004076" d="M443.169,412.632v-3.514a6.853,6.853,0,0,1-1.967,3.611h1.87A.1.1,0,0,0,443.169,412.632Z" transform="translate(-401.517 -359.755)" fill="#dd542e"/>
      <path id="Path_1004077" data-name="Path 1004077" d="M44.023,16.289H42.328V14.576a.772.772,0,0,0-.771-.771h-2.29a.772.772,0,0,0-.771.771v1.712h-4.86V14.576a.772.772,0,0,0-.771-.771h-2.29a.772.772,0,0,0-.771.771v1.712h-4.86V14.576a.772.772,0,0,0-.771-.771h-2.29a.772.772,0,0,0-.771.771v1.712h-4.86V14.576a.772.772,0,0,0-.771-.771h-2.29a.772.772,0,0,0-.771.771v1.712H7.558V14.576a.772.772,0,0,0-.771-.771H4.5a.772.772,0,0,0-.771.771v1.712H2.031A2.033,2.033,0,0,0,0,18.32V55.344a2.033,2.033,0,0,0,2.031,2.031h9.155a.675.675,0,0,0,0-1.349H8.8V38.748h6.1V56.026h-.568a.675.675,0,0,0,0,1.349H44.023a2.033,2.033,0,0,0,2.031-2.031V18.32a2.033,2.033,0,0,0-2.031-2.031Zm-4.178-1.134h1.134v3.618H39.845Zm-8.693,0h1.134v3.618H31.152Zm-8.693,0h1.134v3.618H22.46Zm-8.692,0H14.9v3.618H13.767Zm-8.693,0H6.209v3.618H5.075ZM2.031,17.638H3.725V19.35a.772.772,0,0,0,.771.771h2.29a.772.772,0,0,0,.771-.771V17.638h4.86V19.35a.772.772,0,0,0,.771.771h2.29a.772.772,0,0,0,.771-.771V17.638h4.86V19.35a.772.772,0,0,0,.771.771h2.29a.772.772,0,0,0,.771-.771V17.638H29.8V19.35a.772.772,0,0,0,.771.771h2.29a.772.772,0,0,0,.771-.771V17.638H38.5V19.35a.772.772,0,0,0,.771.771h2.29a.772.772,0,0,0,.771-.771V17.638h1.694a.683.683,0,0,1,.682.682V22.5H12.76a.675.675,0,0,0,0,1.349H14.9v6.1H12.526V27a.773.773,0,0,0-.772-.772H8.8V23.847h.811a.675.675,0,0,0,0-1.349H1.349V18.32a.683.683,0,0,1,.682-.682ZM36.119,52.3V49.924h4.859V52.3Zm4.859-3.725H33.635V46.2h7.343Zm-7.92-3.725a.773.773,0,0,0-.772.772v3.53a.773.773,0,0,0,.772.772H34.77v2.953a.773.773,0,0,0,.772.772h1.712v2.377h-6.1V42.473H34.1a.773.773,0,0,0,.772-.772v-3.53A.773.773,0,0,0,34.1,37.4H31.152V23.847h6.1v21ZM8.8,37.4V35.023h9.826V37.4Zm2.376-9.826v2.376H3.834V27.572ZM6.317,31.3H14.9v2.376H6.317Zm16.036-7.451V37.4H19.976V34.446a.773.773,0,0,0-.772-.772H16.251V23.847ZM28.24,37.4a.675.675,0,1,0,0,1.349h5.288v2.376H19.976V38.748h5.116a.675.675,0,1,0,0-1.349H23.7V23.847h6.1V37.4Zm-8.264,5.074h6.1v2.376h-6.1ZM26.654,46.2a.773.773,0,0,0,.772-.772V42.473H29.8V56.026H23.7V46.2ZM2.031,56.026a.683.683,0,0,1-.682-.682v-31.5h6.1v2.376h-4.2A.773.773,0,0,0,2.484,27v3.53a.773.773,0,0,0,.772.772H4.968v2.953a.773.773,0,0,0,.772.772H7.451c0,3.683,0,6.092,0,21Zm14.22-17.278h2.376v6.678a.773.773,0,0,0,.772.772h2.953v9.828h-6.1V38.748ZM44.7,55.344a.683.683,0,0,1-.682.682H38.6V53.649h2.953a.773.773,0,0,0,.772-.772V45.621a.773.773,0,0,0-.772-.772H38.6v-21h6.1Z"/>
    </g>
  </g>
</svg>
