<svg xmlns="http://www.w3.org/2000/svg" width="100" height="100" viewBox="0 0 100 100">
  <g id="img9" transform="translate(-383.746 -8400)">
    <circle id="Ellipse_13609" data-name="Ellipse 13609" cx="50" cy="50" r="50" transform="translate(383.746 8400)" fill="#beb1a1"/>
    <g id="Out_line" data-name="Out line" transform="translate(343.475 8401.321)">
      <path id="Path_1004078" data-name="Path 1004078" d="M95.745,40.536,99.9,44.688a3.421,3.421,0,0,0,4.832,0l11.494-11.494a1.1,1.1,0,0,0,0-1.548L100.9,16.32a1.1,1.1,0,0,0-1.548,0L91.366,24.3l-4.152-4.152a3.421,3.421,0,0,0-4.832,0l-10.72,10.72-2.51-2.51a1.1,1.1,0,0,0-1.548,0L64.32,31.646a1.1,1.1,0,0,0,0,1.548L85.439,54.313l-1.415,1.415a1.1,1.1,0,0,0-.321.774v6.115l-1.095,1.095-.321-.321a1.1,1.1,0,0,0-1.548,0L64.32,79.811l1.548,1.548L81.514,65.713,92.007,76.206l-3.6,3.6,1.548,1.548L94.33,76.98a1.1,1.1,0,0,0,0-1.548l-1.415-1.415L99.029,67.9,109.2,78.075a1.1,1.1,0,0,0,1.548,0l3.284-3.284a1.1,1.1,0,0,0,0-1.548L103.861,63.07l1.415-1.415a1.1,1.1,0,0,0,0-1.548l-8.757-8.757a1.1,1.1,0,0,0-1.548,0l-.1.1a5.7,5.7,0,0,0-1.64-3.38,1.1,1.1,0,0,0-1.548,0l-1.415,1.415-1.736-1.736Zm5.247-1.775L99.9,39.856a3.4,3.4,0,0,0-.706,1.03l-1.9-1.9,1.963-1.963a1.227,1.227,0,0,1,1.736,1.736Zm-.868-20.118L113.9,32.42l-10.72,10.72a1.227,1.227,0,1,1-1.736-1.736l1.095-1.095a3.417,3.417,0,0,0,0-4.832l-9.625-9.625ZM83.93,21.7a1.229,1.229,0,0,1,1.736,0l13.07,13.07a3.4,3.4,0,0,0-1.029.707l-14,14L69.926,35.7ZM68.378,30.684l1.736,1.736-1.736,1.736L66.642,32.42Zm43.333,43.333-1.736,1.736-9.4-9.4,1.736-1.736ZM95.745,53.672l7.209,7.209-3.925,3.925L91.819,57.6l1.415-1.415h0l0,0ZM92.34,50.509a3.555,3.555,0,0,1-.653,4.125L89.5,56.823a1.1,1.1,0,0,0,0,1.548,5.1,5.1,0,0,1,0,7.209l1.548,1.548a7.262,7.262,0,0,0,2.129-5.08l4.306,4.306-6.114,6.114-7.209-7.209,1.415-1.415a1.1,1.1,0,0,0,.321-.774V56.956Zm-3.616.52-1.736,1.736-1.736-1.736,1.736-1.736Z" transform="translate(0 0)" fill="#593609"/>
    </g>
  </g>
</svg>
