<svg xmlns="http://www.w3.org/2000/svg" width="100" height="100" viewBox="0 0 100 100">
  <g id="img11" transform="translate(-383.746 -8400)">
    <circle id="Ellipse_13609" data-name="Ellipse 13609" cx="50" cy="50" r="50" transform="translate(383.746 8400)" fill="#beb1a1"/>
    <g id="Group_1179282" data-name="Group 1179282" transform="translate(400.645 8416.898)">
      <path id="Path_1002925" data-name="Path 1002925" d="M63.572,28.175,59.183,26.3a26.84,26.84,0,0,0-2.829-6.839l1.778-4.427a1.036,1.036,0,0,0-.229-1.12L52.285,8.3a1.031,1.031,0,0,0-1.12-.229L46.74,9.85A26.782,26.782,0,0,0,39.9,7.02L38.027,2.63A1.038,1.038,0,0,0,37.073,2H29.128a1.038,1.038,0,0,0-.954.629L26.3,7.02a26.834,26.834,0,0,0-6.84,2.83L15.036,8.072a1.037,1.037,0,0,0-1.12.229L8.3,13.918a1.038,1.038,0,0,0-.229,1.12l1.779,4.426A26.716,26.716,0,0,0,7.019,26.3L2.629,28.175A1.038,1.038,0,0,0,2,29.129v7.944a1.037,1.037,0,0,0,.629.954L7.019,39.9a26.84,26.84,0,0,0,2.829,6.839L8.07,51.165a1.036,1.036,0,0,0,.229,1.12L13.917,57.9a1.039,1.039,0,0,0,1.12.229l4.425-1.778a26.781,26.781,0,0,0,6.84,2.83l1.873,4.389a1.038,1.038,0,0,0,.954.629h7.945a1.038,1.038,0,0,0,.954-.629L39.9,59.183a26.834,26.834,0,0,0,6.84-2.83l4.426,1.778a1.032,1.032,0,0,0,1.12-.229L57.9,52.285a1.038,1.038,0,0,0,.229-1.12l-1.779-4.426a26.716,26.716,0,0,0,2.83-6.839l4.389-1.873a1.038,1.038,0,0,0,.629-.954V29.129A1.037,1.037,0,0,0,63.572,28.175Zm-1.444,8.213L57.96,38.167a1.04,1.04,0,0,0-.669.738,24.706,24.706,0,0,1-2.979,7.2,1.039,1.039,0,0,0-.078.929L55.95,51.3,51.3,55.95l-4.221-1.695a1.032,1.032,0,0,0-.974.059,24.722,24.722,0,0,1-7.2,2.979,1.039,1.039,0,0,0-.722.626L36.39,62.129H29.813l-1.78-4.172a1.037,1.037,0,0,0-.737-.662,24.71,24.71,0,0,1-7.2-2.979,1.036,1.036,0,0,0-.929-.079L14.9,55.951,10.252,51.3l1.7-4.221a1.04,1.04,0,0,0-.059-.976,24.688,24.688,0,0,1-2.979-7.2,1.038,1.038,0,0,0-.627-.723L4.075,36.39V29.815l4.167-1.779a1.04,1.04,0,0,0,.669-.738,24.706,24.706,0,0,1,2.979-7.2,1.039,1.039,0,0,0,.078-.929L10.253,14.9l4.65-4.649,4.221,1.695a1.032,1.032,0,0,0,.974-.059,24.722,24.722,0,0,1,7.2-2.979,1.039,1.039,0,0,0,.722-.626l1.795-4.209H36.39l1.78,4.172a1.037,1.037,0,0,0,.737.662,24.71,24.71,0,0,1,7.2,2.979,1.036,1.036,0,0,0,.929.079L51.3,10.252l4.65,4.649-1.7,4.221a1.04,1.04,0,0,0,.059.976,24.689,24.689,0,0,1,2.979,7.2,1.035,1.035,0,0,0,.65.732l4.185,1.785Z" transform="translate(0 0)" fill="#593609"/>
      <path id="Path_1002926" data-name="Path 1002926" d="M32.734,12A20.734,20.734,0,1,0,53.468,32.734,20.757,20.757,0,0,0,32.734,12Zm0,39.394a18.66,18.66,0,1,1,18.66-18.66A18.682,18.682,0,0,1,32.734,51.394Z" transform="translate(0.367 0.367)" fill="#593609"/>
      <path id="Path_1002927" data-name="Path 1002927" d="M32.364,17A10.3,10.3,0,0,0,22.07,27.293c0,5.261,8.453,18.8,9.417,20.324a1.038,1.038,0,0,0,1.754,0c.964-1.527,9.417-15.063,9.417-20.324A10.3,10.3,0,0,0,32.364,17Zm0,28.094c-2.91-4.785-8.221-14.251-8.221-17.8a8.221,8.221,0,0,1,16.442,0C40.585,30.843,35.274,40.31,32.364,45.094Z" transform="translate(0.736 0.55)" fill="#593609"/>
      <path id="Path_1002928" data-name="Path 1002928" d="M32.174,22.2A4.907,4.907,0,1,0,37.08,27.1,4.912,4.912,0,0,0,32.174,22.2Zm0,7.74A2.833,2.833,0,1,1,35.007,27.1,2.836,2.836,0,0,1,32.174,29.936Z" transform="translate(0.927 0.741)" fill="#593609"/>
    </g>
  </g>
</svg>
