<svg xmlns="http://www.w3.org/2000/svg" width="100" height="100" viewBox="0 0 100 100">
  <g id="img10" transform="translate(-383.746 -8400)">
    <circle id="Ellipse_13609" data-name="Ellipse 13609" cx="50" cy="50" r="50" transform="translate(383.746 8400)" fill="#beb1a1"/>
    <g id="Group_1180471" data-name="Group 1180471" transform="translate(401.707 8418.007)">
      <path id="Path_1004079" data-name="Path 1004079" d="M63.32,40.12a4.57,4.57,0,0,0-5.87-1.24l-.21.11.09-.15a20.3,20.3,0,0,0,2.86-10.36v-.06a20.24,20.24,0,0,0-2.86-10.35L57.27,18l-.12-.18a11,11,0,0,0,1.26-4.26,8.24,8.24,0,0,0-14.7-5.13A21.12,21.12,0,0,0,40,8a6.82,6.82,0,0,0-.79,0h-.08a20.5,20.5,0,0,0-12.92,4.9A13.82,13.82,0,1,0,13.79,33a14.05,14.05,0,0,0,2.57-.24,14.4,14.4,0,0,0,2.78-.83,31,31,0,0,0,2.49,6.81l.05.1c.11.19.23.36.34.54H20.4V38.14a1,1,0,0,0-1-1H8.21a1,1,0,0,0-1,1V55.52a1,1,0,0,0,1,1H19.43a1,1,0,0,0,1-1V54.41a44.471,44.471,0,0,1,6.43,2.69h.1a17.1,17.1,0,0,0,7.16,1.58A16.43,16.43,0,0,0,41.61,57l20.3-11.4A3.84,3.84,0,0,0,64,42.1a3.66,3.66,0,0,0-.68-1.98Zm-44.86.16V54.55H9.18V39.11h9.28Zm37.47-2.91H50a34.25,34.25,0,0,0,1.13-7.94h7.12a18.35,18.35,0,0,1-2.32,7.94Zm-1.25,1.94a17.491,17.491,0,0,1-1.49,1.81L46.8,44.48a21.54,21.54,0,0,0,2.59-5.17Zm3.54-11.83H51.11v-.11a71.351,71.351,0,0,0,5-7.53,18.47,18.47,0,0,1,2.11,7.64ZM50.16,7.21a6.32,6.32,0,0,1,6.31,6.31,9.94,9.94,0,0,1-1.24,3.81,62.1,62.1,0,0,1-5.06,8c-2.28-3.11-6.31-9.18-6.31-11.87a6.32,6.32,0,0,1,6.3-6.25ZM40.48,10a6,6,0,0,1,1.92.77,8.18,8.18,0,0,0-.49,2.76,10.72,10.72,0,0,0,1.17,4.08h-2.6Zm0,9.55h3.58a67,67,0,0,0,5.11,7.76v.18H40.48Zm0,9.89h8.68A31.87,31.87,0,0,1,48,37.37H40.48Zm0,9.88h6.84A18.66,18.66,0,0,1,45,43.67a4.53,4.53,0,0,0-2.59-.81H40.48ZM38.54,10v7.6H31.69C33.32,13.35,35.84,10.53,38.54,10ZM31.06,37.37a31.8,31.8,0,0,1-1.2-7.94h8.68v7.94Zm7.48,1.94v3.55h-.79a10.08,10.08,0,0,1-5-1.33,20.421,20.421,0,0,1-1-2.22ZM30,40.22a13.5,13.5,0,0,0-2.78-.74,12.84,12.84,0,0,0-2.64-.13H29.7a3.6,3.6,0,0,0,.3.87Zm-.12-12.74a31.94,31.94,0,0,1,1.2-7.94h7.48v7.94Zm3.57-16.56a18.85,18.85,0,0,0-3.8,6.68H27.54a5.866,5.866,0,0,0-.14-1,14.38,14.38,0,0,0-.49-1.85,18.35,18.35,0,0,1,6.52-3.83Zm-5.8,8.62h1.42a34.25,34.25,0,0,0-1.13,7.94h-3.1c.13-.17.27-.34.4-.52a13.78,13.78,0,0,0,2.39-7.42ZM16,30.82A11.88,11.88,0,1,1,11.64,7.47a12.45,12.45,0,0,1,2.18-.2A11.88,11.88,0,0,1,16,30.82Zm4.92.17A13.52,13.52,0,0,0,23,29.42h4.88a34.18,34.18,0,0,0,1.13,7.94h-5.9A31.86,31.86,0,0,1,20.92,31ZM61,43.88,40.65,55.29a15.13,15.13,0,0,1-12.87.12,28.36,28.36,0,0,0-3.14-1.48,25.29,25.29,0,0,0-4.24-1.52V41.3h4.22a12.48,12.48,0,0,1,2.29.1,13.72,13.72,0,0,1,4.8,1.81,12,12,0,0,0,6,1.6h4.66a2.05,2.05,0,0,1,2.19,1.58,2.08,2.08,0,0,1,0,.25v.12a1.59,1.59,0,0,1-.53.87,2.24,2.24,0,0,1-1.5.54H31.63a1,1,0,0,0,0,1.94H42.55a4.2,4.2,0,0,0,2.78-1,3.58,3.58,0,0,0,1.15-1.94v-.32l11.84-6.23a2.7,2.7,0,0,1,3.38.66,1.68,1.68,0,0,1,.32.92A1.9,1.9,0,0,1,61,43.88Z" fill="#593609"/>
      <path id="Path_1004080" data-name="Path 1004080" d="M54.17,13.59a4,4,0,1,0-4,4A4,4,0,0,0,54.17,13.59Zm-6.07,0a2.06,2.06,0,1,1,.6,1.463,2.07,2.07,0,0,1-.6-1.463Z" fill="#593609"/>
      <path id="Path_1004081" data-name="Path 1004081" d="M20.64,12.22a7.08,7.08,0,0,0-11.44,8L5.66,24a2.43,2.43,0,0,0-.07,3.42l.07.07h0l.18.15a2.44,2.44,0,0,0,1.51.53,2.47,2.47,0,0,0,1.77-.75l3.54-3.74A7.071,7.071,0,0,0,20.6,12.25ZM6.44,26.84l.07-.13Zm1.33-.78a.53.53,0,0,1-.72,0L7,26a.51.51,0,0,1,0-.69l3.25-3.44.33.37c.13.13.27.25.41.37Zm11.5-5.2a5.14,5.14,0,1,1-.007-7.265,5.14,5.14,0,0,1,.007,7.265Z" fill="#593609"/>
    </g>
  </g>
</svg>
