<svg xmlns="http://www.w3.org/2000/svg" width="96" height="96" viewBox="0 0 96 96">
  <g id="img18" transform="translate(-383.746 -8400.001)">
    <path id="Path_997400" data-name="Path 997400" d="M48,0A48,48,0,1,1,0,48,48,48,0,0,1,48,0Z" transform="translate(383.746 8400.001)" fill="#ff9a1a"/>
    <g id="Group_1179372" data-name="Group 1179372" transform="translate(404.021 8420.276)">
      <path id="Path_1003098" data-name="Path 1003098" d="M52.949,11.317h-3.51V2.762A2.765,2.765,0,0,0,46.678,0h-11.7a2.765,2.765,0,0,0-2.762,2.762v8.556h-5.09V4.386a2.765,2.765,0,0,0-2.762-2.762H8.556A2.765,2.765,0,0,0,5.794,4.386v6.931H2.5a2.5,2.5,0,0,0-2.5,2.5V17.3a.812.812,0,1,0,1.625,0V13.818a.877.877,0,0,1,.876-.876H5.794v1.625H4.061a.812.812,0,0,0-.812.812V43.537a.812.812,0,0,0,.812.812H45.053a.812.812,0,1,0,0-1.625H4.873V16.191H5.8a2.765,2.765,0,0,0,2.752,2.545h6.556V35.708a.812.812,0,0,0,.812.812h2.542a.812.812,0,1,0,0-1.625H16.736V18.736h7.632a2.765,2.765,0,0,0,2.752-2.545h5.713a2.757,2.757,0,0,0,2.148,1.029h2.738a3.053,3.053,0,0,0,2.406,1.97V25H37.472a.812.812,0,1,0,0,1.625h3.466a.812.812,0,0,0,.812-.812V19.19a3.053,3.053,0,0,0,2.406-1.97h2.521a2.758,2.758,0,0,0,2.148-1.029h1.751V42.725H48.546a.812.812,0,1,0,0,1.625h2.843a.812.812,0,0,0,.812-.812V15.379a.812.812,0,0,0-.812-.812H49.437c0-.036,0-.072,0-.108V12.942h3.51a.877.877,0,0,1,.876.876V45.1a.877.877,0,0,1-.876.876H2.5a.877.877,0,0,1-.876-.876V20.767a.812.812,0,1,0-1.625,0V45.1a2.5,2.5,0,0,0,2.5,2.5H22.039v2.978H13.754a2.437,2.437,0,0,0,0,4.874H41.7a2.437,2.437,0,0,0,0-4.874H33.411V47.6H52.949a2.5,2.5,0,0,0,2.5-2.5V13.818a2.5,2.5,0,0,0-2.5-2.5ZM25.5,15.974a1.139,1.139,0,0,1-1.137,1.137H8.556a1.139,1.139,0,0,1-1.137-1.137V4.386A1.139,1.139,0,0,1,8.556,3.249H24.368A1.139,1.139,0,0,1,25.5,4.386Zm1.625-1.408V12.942h5.09v1.516c0,.036,0,.072,0,.108ZM41.3,17.6H40.58a1.422,1.422,0,0,1-1.411-1.268v-.014a1.365,1.365,0,0,1-.007-.138v-.2h3.555v.2a1.365,1.365,0,0,1-.007.138v.014A1.422,1.422,0,0,1,41.3,17.6Zm5.382-2H44.34v-.053a1.186,1.186,0,0,0-.368-.858,1.508,1.508,0,0,1,.556-.783,6.367,6.367,0,0,0,1.717-8.458.812.812,0,1,0-1.388.843,4.742,4.742,0,0,1-1.274,6.294,3.146,3.146,0,0,0-1.207,1.773H39.5a3.145,3.145,0,0,0-1.207-1.773,4.719,4.719,0,0,1-1.958-3.834,4.649,4.649,0,0,1,4.6-4.684,4.511,4.511,0,0,1,1.71.333.812.812,0,0,0,.613-1.5,6.132,6.132,0,0,0-2.323-.454A6.276,6.276,0,0,0,34.71,8.746,6.348,6.348,0,0,0,37.348,13.9a1.507,1.507,0,0,1,.556.783,1.185,1.185,0,0,0-.368.858V15.6H34.981a1.139,1.139,0,0,1-1.137-1.137V2.762a1.139,1.139,0,0,1,1.137-1.137h11.7a1.139,1.139,0,0,1,1.137,1.137v11.7A1.139,1.139,0,0,1,46.678,15.6Zm-4.17,37.418a.813.813,0,0,1-.812.812H13.754a.812.812,0,1,1,0-1.625H41.7A.813.813,0,0,1,42.508,53.013ZM31.786,50.577H23.664V47.6h8.123Zm0,0" fill="#593609"/>
      <path id="Path_1003099" data-name="Path 1003099" d="M181.356,195.283a2.261,2.261,0,0,0,0-4.422c-.384-.082-.657-.138-.854-.176l-.488-1.179c.113-.166.266-.4.479-.729a2.261,2.261,0,0,0-3.127-3.127c-.33.213-.562.367-.728.479l-1.179-.488c-.038-.2-.094-.47-.176-.854a2.261,2.261,0,0,0-4.423,0c-.082.384-.138.657-.176.854l-1.179.488c-.166-.113-.4-.266-.728-.479a2.261,2.261,0,0,0-3.127,3.127c.213.33.367.562.479.729l-.488,1.179c-.2.038-.47.093-.854.176a2.261,2.261,0,0,0,0,4.422c.384.083.657.138.854.176l.488,1.179c-.113.166-.266.4-.479.728a2.261,2.261,0,0,0,3.127,3.127c.33-.213.562-.367.728-.479l1.179.489c.038.2.094.47.176.854a2.261,2.261,0,0,0,4.423,0c.082-.384.138-.657.176-.854l1.179-.488c.166.113.4.266.728.479a2.261,2.261,0,0,0,3.127-3.127c-.213-.33-.367-.562-.479-.728l.488-1.179c.2-.038.47-.094.854-.176Zm-15.146-1.368h0Zm13.7,0h0Zm-.011,0a.83.83,0,0,0-.729.513l-.827,2a.831.831,0,0,0,.151.874c.027.035.156.209.635.949a.637.637,0,0,1-.88.88c-.722-.468-.9-.6-.946-.633a.83.83,0,0,0-.878-.153l-1.993.825a.826.826,0,0,0-.517.733c-.007.055-.044.284-.221,1.114a.637.637,0,0,1-1.245,0c-.18-.841-.214-1.065-.221-1.116a.826.826,0,0,0-.513-.729l-2-.828a.828.828,0,0,0-.877.156c-.045.035-.234.172-.943.631a.637.637,0,0,1-.881-.88c.468-.723.6-.905.633-.946a.831.831,0,0,0,.153-.878l-.828-2a.83.83,0,0,0-.727-.509c-.049-.006-.27-.041-1.117-.222a.637.637,0,0,1,0-1.245c.842-.18,1.065-.215,1.116-.222a.83.83,0,0,0,.729-.513l.827-2a.831.831,0,0,0-.151-.874c-.027-.035-.156-.209-.635-.949a.637.637,0,0,1,.88-.88c.722.468.9.6.946.633a.83.83,0,0,0,.878.153l2-.827a.826.826,0,0,0,.513-.731c.007-.055.044-.284.221-1.114a.637.637,0,0,1,1.245,0c.18.841.215,1.065.222,1.116a.831.831,0,0,0,.512.729l2,.829a.827.827,0,0,0,.877-.157c.045-.035.234-.172.943-.631a.637.637,0,0,1,.881.88c-.468.723-.6.905-.633.946a.829.829,0,0,0-.153.878l.826,2a.828.828,0,0,0,.729.514c.049.007.271.041,1.117.222a.636.636,0,0,1,0,1.245c-.842.18-1.065.215-1.116.222Zm0,0" transform="translate(-145.347 -163.181)" fill="#593609"/>
      <path id="Path_1003100" data-name="Path 1003100" d="M224.453,240.617a3.832,3.832,0,1,0,3.832,3.832A3.836,3.836,0,0,0,224.453,240.617Zm0,6.039a2.207,2.207,0,1,1,2.207-2.207A2.21,2.21,0,0,1,224.453,246.657Zm0,0" transform="translate(-196.728 -214.558)" fill="#593609"/>
      <path id="Path_1003101" data-name="Path 1003101" d="M85.312,55.82h6.346a.812.812,0,0,0,0-1.625H85.312a.812.812,0,1,0,0,1.625Zm0,0" transform="translate(-75.349 -48.326)" fill="#593609"/>
      <path id="Path_1003102" data-name="Path 1003102" d="M85.312,85.816h13a.812.812,0,0,0,0-1.625h-13a.812.812,0,1,0,0,1.625Zm0,0" transform="translate(-75.349 -75.073)" fill="#593609"/>
      <path id="Path_1003103" data-name="Path 1003103" d="M98.312,114.191h-13a.812.812,0,0,0,0,1.625h13a.812.812,0,1,0,0-1.625Zm0,0" transform="translate(-75.352 -101.824)" fill="#593609"/>
    </g>
  </g>
</svg>
