<svg xmlns="http://www.w3.org/2000/svg" width="96" height="96" viewBox="0 0 96 96">
  <g id="img19" transform="translate(-383.746 -8400.001)">
    <path id="Path_997400" data-name="Path 997400" d="M48,0A48,48,0,1,1,0,48,48,48,0,0,1,48,0Z" transform="translate(383.746 8400.001)" fill="#ff9a1a"/>
    <g id="Group_1179373" data-name="Group 1179373" transform="translate(403.318 8419.607)">
      <path id="Path_1003104" data-name="Path 1003104" d="M49.069,6a7.069,7.069,0,1,0,7.069,7.069A7.077,7.077,0,0,0,49.069,6Zm0,12.371a5.3,5.3,0,1,1,5.3-5.3A5.307,5.307,0,0,1,49.069,18.371Z" transform="translate(-4.77 -0.582)" fill="#593609"/>
      <path id="Path_1003105" data-name="Path 1003105" d="M49.535,10a3.535,3.535,0,1,0,3.535,3.535A3.538,3.538,0,0,0,49.535,10Zm0,5.3A1.767,1.767,0,1,1,51.3,13.535,1.769,1.769,0,0,1,49.535,15.3Z" transform="translate(-5.236 -1.047)" fill="#593609"/>
      <path id="Path_1003106" data-name="Path 1003106" d="M55.786,15.764V9.212l-1.614-.57Q54.09,8.434,54,8.226l.739-1.545L50.1,2.048l-1.545.739c-.138-.061-.277-.119-.416-.173L47.575,1H41.023l-.57,1.614q-.208.082-.416.173l-1.544-.739L33.859,6.682,34.6,8.226c-.061.138-.119.277-.173.416l-1.614.568v2.9a19.533,19.533,0,0,0-4.418-.511H5.365a2.61,2.61,0,0,1-2.6-2.616V8.9a2.6,2.6,0,0,1,2.6-2.6H8.158a4.418,4.418,0,0,0,8.658,0H27.641L25.19,8.263l1.1,1.38,5.282-4.225L26.294,1.194l-1.1,1.38,2.451,1.961H16.816a4.418,4.418,0,0,0-8.658,0H5.365A4.37,4.37,0,0,0,1,8.9v.088a4.379,4.379,0,0,0,4.365,4.383H20.309A19.462,19.462,0,0,0,8.953,31.044v5.82L6.927,34.838,5.677,36.087l4.159,4.159L14,36.087l-1.249-1.249L10.72,36.864v-5.82a17.646,17.646,0,0,1,22.091-17.1v1.824l1.614.57q.082.208.173.416l-.739,1.545,4.634,4.634,1.545-.739c.138.061.277.119.416.173l.568,1.612h3.566a17.51,17.51,0,0,1,1.477,7.069A17.693,17.693,0,0,1,28.393,48.717H15.951a6.186,6.186,0,1,0,0,1.767H43.415v2.988a2.314,2.314,0,0,0,3.348,2.07l7.743-3.872a2.314,2.314,0,0,0,0-4.139l-7.744-3.872a2.314,2.314,0,0,0-3.348,2.07v2.988H36.477A19.432,19.432,0,0,0,46.5,23.975h1.073l.57-1.614q.208-.082.416-.173l1.545.739,4.634-4.634L54,16.748c.061-.138.119-.277.173-.416Zm-43.3-13A2.651,2.651,0,1,1,9.836,5.418,2.654,2.654,0,0,1,12.487,2.767ZM9.836,54.019A4.418,4.418,0,1,1,14.255,49.6,4.423,4.423,0,0,1,9.836,54.019Zm35.346-8.29a.546.546,0,0,1,.79-.489l7.744,3.872a.546.546,0,0,1,0,.977l-7.744,3.872a.561.561,0,0,1-.79-.489Zm8.836-31.216-1.23.434-.139.4a8.64,8.64,0,0,1-.422,1.014l-.188.384.564,1.179-2.865,2.865-1.179-.564-.384.188a8.793,8.793,0,0,1-1.014.422l-.4.139-.433,1.229H42.273l-.434-1.23-.4-.139a8.639,8.639,0,0,1-1.014-.422l-.384-.188-1.179.564-2.865-2.865.564-1.179-.188-.384a8.793,8.793,0,0,1-.422-1.014l-.139-.4-1.228-.433V10.461l1.23-.434.139-.4a8.64,8.64,0,0,1,.422-1.014l.188-.384-.564-1.179,2.865-2.865,1.179.564.384-.188a8.793,8.793,0,0,1,1.014-.422L41.84,4l.433-1.228h4.052L46.759,4l.4.139a8.64,8.64,0,0,1,1.014.422l.384.188,1.179-.564L52.6,7.048l-.564,1.179.188.384a8.793,8.793,0,0,1,.422,1.014l.139.4,1.228.433Z" fill="#593609"/>
      <path id="Path_1003107" data-name="Path 1003107" d="M10.651,53A2.651,2.651,0,1,0,13.3,55.651,2.654,2.654,0,0,0,10.651,53Zm0,3.535a.884.884,0,1,1,.884-.884A.885.885,0,0,1,10.651,56.535Z" transform="translate(-0.814 -6.05)" fill="#593609"/>
      <path id="Path_1003108" data-name="Path 1003108" d="M25.3,25H20v5.3h5.3Zm-1.767,3.535H21.767V26.767h1.767Z" transform="translate(-2.211 -2.792)" fill="#593609"/>
      <path id="Path_1003109" data-name="Path 1003109" d="M20,38.3h5.3V33H20Zm1.767-3.535h1.767v1.767H21.767Z" transform="translate(-2.211 -3.723)" fill="#593609"/>
      <path id="Path_1003110" data-name="Path 1003110" d="M28,25h1.767v1.767H28Z" transform="translate(-3.142 -2.792)" fill="#593609"/>
      <path id="Path_1003111" data-name="Path 1003111" d="M32,25h7.069v1.767H32Z" transform="translate(-3.607 -2.792)" fill="#593609"/>
      <path id="Path_1003112" data-name="Path 1003112" d="M28,29h1.767v1.767H28Z" transform="translate(-3.142 -3.258)" fill="#593609"/>
      <path id="Path_1003113" data-name="Path 1003113" d="M32,29h7.069v1.767H32Z" transform="translate(-3.607 -3.258)" fill="#593609"/>
      <path id="Path_1003114" data-name="Path 1003114" d="M28,33H38.6v1.767H28Z" transform="translate(-3.142 -3.723)" fill="#593609"/>
      <path id="Path_1003115" data-name="Path 1003115" d="M28,37H38.6v1.767H28Z" transform="translate(-3.142 -4.189)" fill="#593609"/>
      <path id="Path_1003116" data-name="Path 1003116" d="M20,46.3h5.3V41H20Zm1.767-3.535h1.767v1.767H21.767Z" transform="translate(-2.211 -4.654)" fill="#593609"/>
      <path id="Path_1003117" data-name="Path 1003117" d="M28,41H38.6v1.767H28Z" transform="translate(-3.142 -4.654)" fill="#593609"/>
      <path id="Path_1003118" data-name="Path 1003118" d="M28,45H38.6v1.767H28Z" transform="translate(-3.142 -5.12)" fill="#593609"/>
    </g>
  </g>
</svg>
