<svg xmlns="http://www.w3.org/2000/svg" width="96" height="96" viewBox="0 0 96 96">
  <g id="img16" transform="translate(-383.746 -8400.001)">
    <path id="Path_997400" data-name="Path 997400" d="M48,0A48,48,0,1,1,0,48,48,48,0,0,1,48,0Z" transform="translate(383.746 8400.001)" fill="#ff9a1a"/>
    <g id="Group_1179370" data-name="Group 1179370" transform="translate(403.333 8395.609)">
      <path id="Path_1003091" data-name="Path 1003091" d="M54.44,414.61H2.386A2.388,2.388,0,0,0,0,417v3.044a2.389,2.389,0,0,0,2.386,2.386H47.06a.832.832,0,1,0,0-1.665H35.783v-4.486H54.44a.722.722,0,0,1,.721.72v3.044a.722.722,0,0,1-.721.721H50.912a.832.832,0,1,0,0,1.665H54.44a2.389,2.389,0,0,0,2.386-2.386V417A2.388,2.388,0,0,0,54.44,414.61Zm-40.874,1.665H17.9l-2.363,4.486H11.2Zm-4.245,4.486H4.986l2.363-4.486h4.335Zm10.462-4.486h4.335l-2.363,4.486H17.42Zm6.217,0h4.335l-2.363,4.486H23.637ZM1.665,420.04V417a.722.722,0,0,1,.721-.72H5.468L3.1,420.761H2.386A.722.722,0,0,1,1.665,420.04Zm32.454.721H29.854l2.363-4.486h1.9Z" transform="translate(0 -344.615)" fill="#593609"/>
      <path id="Path_1003092" data-name="Path 1003092" d="M171.766,48.968l3.109.249a14.162,14.162,0,0,0,1.365,3.292l-2.023,2.375a1.771,1.771,0,0,0,.1,2.389l2.49,2.49a1.771,1.771,0,0,0,2.389.1l2.375-2.023a14.171,14.171,0,0,0,3.292,1.365l.249,3.109a1.771,1.771,0,0,0,1.757,1.622h3.522a1.772,1.772,0,0,0,1.757-1.622l.249-3.108a14.164,14.164,0,0,0,3.292-1.365l2.375,2.023a1.771,1.771,0,0,0,2.389-.1l2.49-2.49a1.771,1.771,0,0,0,.1-2.389l-2.023-2.375a14.165,14.165,0,0,0,1.365-3.292l3.108-.249a1.771,1.771,0,0,0,1.622-1.757V43.69a1.771,1.771,0,0,0-1.622-1.757l-3.109-.249a14.165,14.165,0,0,0-1.365-3.292l2.023-2.375a1.772,1.772,0,0,0-.1-2.389l-2.49-2.49a1.771,1.771,0,0,0-2.389-.1l-2.375,2.023A14.164,14.164,0,0,0,192.39,31.7l-.249-3.109a1.771,1.771,0,0,0-1.757-1.622h-3.522a1.772,1.772,0,0,0-1.757,1.622l-.249,3.108a14.16,14.16,0,0,0-3.292,1.365l-2.375-2.023a1.771,1.771,0,0,0-2.389.1l-2.49,2.49a1.771,1.771,0,0,0-.1,2.389l2.023,2.375a14.171,14.171,0,0,0-1.365,3.292l-3.108.249a1.771,1.771,0,0,0-1.622,1.757v3.522A1.771,1.771,0,0,0,171.766,48.968Zm.043-5.278a.1.1,0,0,1,.09-.1l3.4-.272a1.248,1.248,0,0,0,1.113-.941,12.507,12.507,0,0,1,1.406-3.391,1.249,1.249,0,0,0-.122-1.452l-2.214-2.6a.1.1,0,0,1,.005-.132l2.49-2.49a.1.1,0,0,1,.132-.005l2.6,2.214a1.249,1.249,0,0,0,1.453.122,12.5,12.5,0,0,1,3.391-1.406,1.249,1.249,0,0,0,.941-1.113l.272-3.4a.1.1,0,0,1,.1-.09h3.522a.1.1,0,0,1,.1.09l.272,3.4a1.248,1.248,0,0,0,.941,1.113,12.5,12.5,0,0,1,3.391,1.406,1.249,1.249,0,0,0,1.453-.122l2.6-2.214a.1.1,0,0,1,.132.005l2.49,2.49a.1.1,0,0,1,.005.132l-2.214,2.6a1.249,1.249,0,0,0-.122,1.452,12.507,12.507,0,0,1,1.406,3.391,1.248,1.248,0,0,0,1.113.941l3.4.272h0a.1.1,0,0,1,.09.1v3.522a.1.1,0,0,1-.09.1l-3.4.272a1.248,1.248,0,0,0-1.113.941,12.505,12.505,0,0,1-1.406,3.391,1.249,1.249,0,0,0,.122,1.452l2.214,2.6a.1.1,0,0,1-.005.132l-2.49,2.49a.1.1,0,0,1-.132.005l-2.6-2.214a1.248,1.248,0,0,0-1.452-.122,12.507,12.507,0,0,1-3.391,1.406,1.249,1.249,0,0,0-.941,1.113l-.272,3.4a.1.1,0,0,1-.1.09h-3.522a.1.1,0,0,1-.1-.09l-.272-3.4a1.248,1.248,0,0,0-.941-1.113,12.5,12.5,0,0,1-3.391-1.406,1.248,1.248,0,0,0-1.452.122l-2.6,2.214a.1.1,0,0,1-.132-.005l-2.49-2.49a.1.1,0,0,1-.005-.132l2.214-2.6a1.248,1.248,0,0,0,.122-1.452,12.5,12.5,0,0,1-1.406-3.391,1.248,1.248,0,0,0-1.113-.941l-3.4-.272a.1.1,0,0,1-.09-.1V43.69Z" transform="translate(-151.26)" fill="#593609"/>
      <path id="Path_1003093" data-name="Path 1003093" d="M308.966,161.844a3.949,3.949,0,1,0-3.949,3.949A3.953,3.953,0,0,0,308.966,161.844Zm-6.232,0a2.284,2.284,0,1,1,2.284,2.284A2.286,2.286,0,0,1,302.734,161.844Z" transform="translate(-267.654 -116.393)" fill="#593609"/>
      <path id="Path_1003094" data-name="Path 1003094" d="M257.474,124.179a9.885,9.885,0,1,0,0-19.769,9.792,9.792,0,0,0-4.147.911.832.832,0,1,0,.7,1.51,8.14,8.14,0,0,1,3.447-.756,8.22,8.22,0,1,1-6.222,2.85.832.832,0,0,0-1.26-1.088,9.884,9.884,0,0,0,7.482,16.342Z" transform="translate(-220.111 -68.844)" fill="#593609"/>
      <path id="Path_1003095" data-name="Path 1003095" d="M9.09,213.756l1.461,2.53a1.777,1.777,0,0,0,2.255.74l1.9-.833a8.3,8.3,0,0,0,1.371.793l.228,2.059a1.776,1.776,0,0,0,1.768,1.583h2.921a1.777,1.777,0,0,0,1.768-1.583l.228-2.06a8.28,8.28,0,0,0,1.371-.793l1.9.832a1.777,1.777,0,0,0,2.255-.74l1.461-2.53a1.777,1.777,0,0,0-.487-2.323l-1.67-1.228c.025-.264.038-.529.038-.792s-.013-.528-.038-.792l1.67-1.228a1.777,1.777,0,0,0,.487-2.323l-1.461-2.53a1.777,1.777,0,0,0-2.255-.74l-1.9.833a8.3,8.3,0,0,0-1.371-.793l-.228-2.06a1.777,1.777,0,0,0-1.768-1.583H18.071a1.776,1.776,0,0,0-1.768,1.583l-.228,2.06a8.283,8.283,0,0,0-1.371.793l-1.9-.833a1.777,1.777,0,0,0-2.255.74l-1.461,2.53a1.777,1.777,0,0,0,.487,2.323l1.67,1.228c-.025.264-.038.529-.038.792s.013.528.038.792l-1.67,1.228a1.777,1.777,0,0,0-.487,2.322Zm1.473-.981,2.063-1.517a.832.832,0,0,0,.329-.8,6.686,6.686,0,0,1,0-2.088.832.832,0,0,0-.329-.8l-2.063-1.517a.114.114,0,0,1-.031-.149l1.461-2.53a.114.114,0,0,1,.145-.047l2.347,1.029a.832.832,0,0,0,.858-.116,6.639,6.639,0,0,1,1.805-1.043.833.833,0,0,0,.529-.685l.282-2.546a.114.114,0,0,1,.113-.1h2.921a.114.114,0,0,1,.113.1l.282,2.546a.832.832,0,0,0,.529.685,6.639,6.639,0,0,1,1.805,1.043.832.832,0,0,0,.859.116l2.347-1.029a.114.114,0,0,1,.144.047l1.461,2.53a.114.114,0,0,1-.031.149l-2.063,1.517a.833.833,0,0,0-.329.8,6.686,6.686,0,0,1,0,2.088.832.832,0,0,0,.329.8l2.063,1.517a.114.114,0,0,1,.031.149l-1.461,2.53a.114.114,0,0,1-.144.047l-2.347-1.029a.833.833,0,0,0-.859.116,6.631,6.631,0,0,1-1.805,1.043.833.833,0,0,0-.529.685l-.282,2.546a.114.114,0,0,1-.113.1H18.071a.114.114,0,0,1-.113-.1l-.282-2.546a.832.832,0,0,0-.529-.685,6.641,6.641,0,0,1-1.805-1.043.833.833,0,0,0-.859-.116L12.136,215.5a.114.114,0,0,1-.145-.047l-1.461-2.53a.114.114,0,0,1,.031-.149Z" transform="translate(-7.868 -152.225)" fill="#593609"/>
      <path id="Path_1003096" data-name="Path 1003096" d="M67.607,266.494a.832.832,0,0,0,.637-.99,2.617,2.617,0,1,1,1.972,1.994.832.832,0,0,0-.377,1.622,4.275,4.275,0,1,0-3.222-3.263A.832.832,0,0,0,67.607,266.494Z" transform="translate(-59.137 -207.759)" fill="#593609"/>
    </g>
  </g>
</svg>
