<svg xmlns="http://www.w3.org/2000/svg" width="96" height="96" viewBox="0 0 96 96">
  <g id="img17" transform="translate(-383.746 -8400.001)">
    <path id="Path_997400" data-name="Path 997400" d="M48,0A48,48,0,1,1,0,48,48,48,0,0,1,48,0Z" transform="translate(383.746 8400.001)" fill="#ff9a1a"/>
    <g id="Group_1179371" data-name="Group 1179371" transform="translate(371.832 8412.991)">
      <path id="Path_1003097" data-name="Path 1003097" d="M88.556,26.393l-4.366-.656a24.548,24.548,0,0,0-3.344-8.07l2.624-3.553a2.827,2.827,0,0,0-.277-3.7L80.565,7.784a2.827,2.827,0,0,0-3.7-.277l-3.553,2.624a24.546,24.546,0,0,0-8.07-3.344l-.656-4.366A2.827,2.827,0,0,0,61.772,0H58.056a2.827,2.827,0,0,0-2.813,2.422l-.656,4.366a24.546,24.546,0,0,0-8.07,3.344L42.964,7.508a2.828,2.828,0,0,0-3.7.277l-2.628,2.628a2.827,2.827,0,0,0-.277,3.7l2.624,3.553a24.546,24.546,0,0,0-3.344,8.07l-4.366.656a2.827,2.827,0,0,0-2.422,2.813v3.717a2.827,2.827,0,0,0,2.422,2.813l4.366.656a24.546,24.546,0,0,0,3.344,8.07l-2.624,3.553a2.827,2.827,0,0,0,.277,3.7l2.628,2.628a2.827,2.827,0,0,0,3.7.277L46.517,52a24.854,24.854,0,0,0,3.244,1.754q-.226.344-.468.681a4.74,4.74,0,0,0-.892,2.776v1.3a3.41,3.41,0,0,0-2.12,4.716,3.443,3.443,0,0,0-2.689,3.355v2.41a1.028,1.028,0,0,0,1.028,1.028H75.207a1.028,1.028,0,0,0,1.028-1.028v-2.41a3.443,3.443,0,0,0-2.689-3.355,3.41,3.41,0,0,0-2.119-4.715v-1.3a4.74,4.74,0,0,0-.892-2.776q-.241-.337-.468-.681A24.813,24.813,0,0,0,73.311,52l3.553,2.624a2.827,2.827,0,0,0,3.7-.277l2.628-2.628a2.827,2.827,0,0,0,.277-3.7l-2.624-3.553a24.548,24.548,0,0,0,3.344-8.07l4.366-.656a2.827,2.827,0,0,0,2.422-2.813V29.206a2.827,2.827,0,0,0-2.422-2.813ZM74.179,66.581v1.383H45.649V66.581A1.384,1.384,0,0,1,47.031,65.2H72.8A1.384,1.384,0,0,1,74.179,66.581Zm-2.368-4.8a1.361,1.361,0,0,1-1.359,1.36H49.376a1.36,1.36,0,0,1,0-2.719h4.777a1.028,1.028,0,1,0,0-2.055h-3.7V57.207a2.7,2.7,0,0,1,.507-1.579,22.476,22.476,0,0,0,4.228-13.163V41.183h9.442v1.281a22.476,22.476,0,0,0,4.228,13.163,2.7,2.7,0,0,1,.507,1.579v1.161H58.263a1.028,1.028,0,1,0,0,2.055H70.452A1.361,1.361,0,0,1,71.812,61.783Zm-11.9-31.4H51.785a1.329,1.329,0,0,1-1.327-1.327V23.142a.024.024,0,0,1,.024-.024h2.632a.024.024,0,0,1,.024.024v2.281a1.972,1.972,0,0,0,1.97,1.97h1.359a1.972,1.972,0,0,0,1.97-1.97V23.142a.024.024,0,0,1,.024-.024h2.909a.024.024,0,0,1,.024.024v2.281a1.972,1.972,0,0,0,1.97,1.97h1.359a1.972,1.972,0,0,0,1.97-1.97V23.142a.024.024,0,0,1,.024-.024h2.632a.024.024,0,0,1,.024.024v5.909a1.329,1.329,0,0,1-1.327,1.327H64.024a1.028,1.028,0,0,0,0,2.055h2.02a1.394,1.394,0,0,1,0,2.788H53.784a1.394,1.394,0,0,1,0-2.788h6.13a1.028,1.028,0,0,0,0-2.055Zm4.722,6.9v1.851H55.193V37.277Zm24.287-4.355a.784.784,0,0,1-.672.78l-5.078.763a1.028,1.028,0,0,0-.857.827,22.546,22.546,0,0,1-3.572,8.62,1.028,1.028,0,0,0,.022,1.191l3.052,4.131a.784.784,0,0,1-.077,1.027L79.112,52.89a.784.784,0,0,1-1.027.077l-4.131-3.052a1.028,1.028,0,0,0-1.191-.022,22.761,22.761,0,0,1-3.747,2.071,20.373,20.373,0,0,1-1.383-3.33A19.194,19.194,0,0,0,54.078,12.777a1.028,1.028,0,1,0,.624,1.958A17.139,17.139,0,0,1,67.111,46.617a20.646,20.646,0,0,1-.42-4.152V41.183h.758a1.028,1.028,0,1,0,0-2.055h-.758V37.216a3.445,3.445,0,0,0,2.423-4.957,3.388,3.388,0,0,0,2.312-3.208V23.142a2.081,2.081,0,0,0-2.079-2.079H66.715a2.081,2.081,0,0,0-2.079,2.079v2.2H63.448v-2.2a2.081,2.081,0,0,0-2.079-2.079H58.46a2.081,2.081,0,0,0-2.079,2.079v2.2H55.193v-2.2a2.081,2.081,0,0,0-2.079-2.079H50.481A2.081,2.081,0,0,0,48.4,23.142v5.909a3.388,3.388,0,0,0,2.312,3.208,3.445,3.445,0,0,0,2.424,4.957v1.912H52.38a1.028,1.028,0,1,0,0,2.055h.758v1.281a20.656,20.656,0,0,1-.42,4.152,17.137,17.137,0,0,1-1.55-30.291,1.028,1.028,0,1,0-1.051-1.766,19.182,19.182,0,0,0-9.393,16.5A19.188,19.188,0,0,0,52.2,48.635a20.373,20.373,0,0,1-1.383,3.33,22.768,22.768,0,0,1-3.747-2.071,1.028,1.028,0,0,0-1.191.022l-4.132,3.052a.784.784,0,0,1-1.027-.077l-2.628-2.628a.784.784,0,0,1-.077-1.027L41.063,45.1a1.028,1.028,0,0,0,.022-1.191,22.545,22.545,0,0,1-3.572-8.62,1.028,1.028,0,0,0-.857-.827L31.578,33.7a.784.784,0,0,1-.672-.78V29.206a.784.784,0,0,1,.672-.78l5.078-.763a1.028,1.028,0,0,0,.857-.827,22.545,22.545,0,0,1,3.572-8.62,1.028,1.028,0,0,0-.022-1.191l-3.052-4.131a.784.784,0,0,1,.077-1.027l2.628-2.628a.784.784,0,0,1,1.027-.077l4.131,3.052a1.028,1.028,0,0,0,1.191.022,22.544,22.544,0,0,1,8.62-3.572,1.028,1.028,0,0,0,.827-.857l.763-5.078a.784.784,0,0,1,.78-.672h3.717a.784.784,0,0,1,.78.672L63.316,7.8a1.028,1.028,0,0,0,.827.857,22.545,22.545,0,0,1,8.621,3.572,1.028,1.028,0,0,0,1.191-.022l4.131-3.052a.784.784,0,0,1,1.027.077l2.628,2.628a.784.784,0,0,1,.077,1.027l-3.052,4.132a1.028,1.028,0,0,0-.022,1.191,22.546,22.546,0,0,1,3.572,8.62,1.028,1.028,0,0,0,.857.827l5.078.763a.784.784,0,0,1,.672.78v3.717Z" fill="#593609"/>
    </g>
  </g>
</svg>
