<svg xmlns="http://www.w3.org/2000/svg" width="292" height="187" viewBox="0 0 292 187">
  <g id="img13" transform="translate(-290 -3544)">
    <path id="Rectangle_455415" data-name="Rectangle 455415" d="M20,0H230a20,20,0,0,1,20,20V187a0,0,0,0,1,0,0H0a0,0,0,0,1,0,0V20A20,20,0,0,1,20,0Z" transform="translate(310.711 3544)" fill="#ff9a1a"/>
    <g id="_12286236_4901335" data-name="12286236_4901335" transform="translate(220 3488.176)">
      <g id="OBJECTS" transform="translate(70 81.651)">
        <g id="Group_1179293" data-name="Group 1179293">
          <g id="Group_1179283" data-name="Group 1179283" transform="translate(0.16)">
            <path id="Path_1002929" data-name="Path 1002929" d="M227.617,93.345c-17.071,2.38-31.151,45.695-2.172,37.657S261.542,88.616,227.617,93.345Z" transform="translate(-142.492 -87.515)" fill="#fff5f6"/>
            <path id="Path_1002930" data-name="Path 1002930" d="M74.415,239.862s-17.176-47.1,18.955-79.892,55.639-17.516,89.566-46.62S245.548,77.9,281.048,83.5s68.244,26.746,76.886,76.469-4.053,80.664-4.053,80.664Z" transform="translate(-70.335 -81.651)" fill="#fff5f6"/>
          </g>
          <g id="Group_1179290" data-name="Group 1179290" transform="translate(4.241 87.344)">
            <path id="Path_1002931" data-name="Path 1002931" d="M123.872,376.117s-5.025-17.8-23.42-22.278-20.822-11.423-20.822-11.423-5.04,17.707,10.64,33.7h33.6Z" transform="translate(-78.859 -304.935)" fill="#a1b5f7"/>
            <g id="Group_1179285" data-name="Group 1179285" transform="translate(26.649 21.338)">
              <path id="Path_1002932" data-name="Path 1002932" d="M176.423,349.06a30.552,30.552,0,0,0-15.013-24.923,28.5,28.5,0,0,0-3.478-1.708,77.279,77.279,0,0,1-21.411-13.737s-6.289,14.822,4.05,24.567,19.593,12.886,19.93,25.281h16.423Z" transform="translate(-134.58 -308.691)" fill="#a1b5f7"/>
              <path id="Path_1002933" data-name="Path 1002933" d="M136.471,308.691s-4.9,12.142.875,23.423,17.972,12.329,18.94,26.106h4.165s1.627-8.76-7.122-15.214S131.952,331.417,136.471,308.691Z" transform="translate(-134.53 -308.691)" fill="#bbcdff"/>
              <g id="Group_1179284" data-name="Group 1179284" transform="translate(6.355 8.75)">
                <path id="Path_1002934" data-name="Path 1002934" d="M174.081,367.692a12.447,12.447,0,0,0,.431-1.431c.123-.5.226-1.014.3-1.529a19.613,19.613,0,0,0,.233-3.127,19.294,19.294,0,0,0-1.063-6.185,22.879,22.879,0,0,0-7.507-10.154c-1.678-1.329-3.54-2.576-5.257-3.942l-1.3-1.014-1.274-1.053c-.858-.69-1.673-1.433-2.5-2.158a57.821,57.821,0,0,1-4.648-4.69,32.253,32.253,0,0,1-2.047-2.588,14.69,14.69,0,0,1-1.643-2.85,14.652,14.652,0,0,0,1.748,2.773,31.967,31.967,0,0,0,2.136,2.49,57.535,57.535,0,0,0,4.8,4.47c.851.687,1.686,1.391,2.566,2.042l1.3.993,1.334.954c1.771,1.3,3.611,2.421,5.429,3.744a27.455,27.455,0,0,1,4.885,4.6,21.7,21.7,0,0,1,3.455,5.833,20.983,20.983,0,0,1,1.423,6.682,21.5,21.5,0,0,1-.119,3.438q-.1.858-.27,1.71a14.208,14.208,0,0,1-.455,1.736Z" transform="translate(-147.805 -326.971)" fill="#bbcdff"/>
              </g>
            </g>
            <g id="Group_1179287" data-name="Group 1179287" transform="translate(101.121 7.623)">
              <path id="Path_1002935" data-name="Path 1002935" d="M316.286,343.255l-18.21.346a7.556,7.556,0,0,1-.571-.89c-.623-1.084-1.828-3.362-3.86-7.955-3.331-7.515-5.415-15.853-1.121-30.638,4.226-14.544-2.016-23.782-2.215-24.076.005,0,.005,0,.016.005,18.844,7.049,11.915,17.016,21.232,29.967S316.286,343.255,316.286,343.255Z" transform="translate(-290.104 -280.041)" fill="#a1b5f7"/>
              <path id="Path_1002936" data-name="Path 1002936" d="M297.5,342.71c-.623-1.084-1.828-3.362-3.86-7.955-3.331-7.515-5.415-15.853-1.121-30.638,4.226-14.544-2.016-23.782-2.215-24.076.005,0,.005,0,.016.005.461.272,8.977,5.53,6.122,22.148C293.514,319.273,291.309,325.3,297.5,342.71Z" transform="translate(-290.104 -280.041)" fill="#bbcdff"/>
              <g id="Group_1179286" data-name="Group 1179286" transform="translate(10.907 12.23)">
                <path id="Path_1002937" data-name="Path 1002937" d="M319.19,356.029c-.284-.563-.47-1.042-.678-1.563-.192-.512-.384-1.023-.548-1.539-.346-1.028-.637-2.066-.906-3.107-.53-2.083-.946-4.184-1.279-6.293a99.737,99.737,0,0,1-1.079-12.715l-.1-6.345c-.044-2.11-.1-4.221-.209-6.329s-.241-4.215-.45-6.315q-.153-1.576-.386-3.142a19.528,19.528,0,0,0-.668-3.092,19.586,19.586,0,0,1,.8,3.069q.3,1.56.517,3.133c.3,2.1.527,4.2.713,6.311s.34,4.221.471,6.334l.359,6.328a98.355,98.355,0,0,0,1.58,12.489c.411,2.052.9,4.084,1.5,6.075.3.994.622,1.981.991,2.942.176.485.376.956.574,1.425.2.453.427.949.635,1.322Z" transform="translate(-312.889 -305.589)" fill="#bbcdff"/>
              </g>
            </g>
            <g id="Group_1179288" data-name="Group 1179288" transform="translate(155.95)">
              <path id="Path_1002938" data-name="Path 1002938" d="M405.544,324.007s-4.775-15.65,7.683-32.637,11.151-27.254,11.151-27.254,14.473,22.65,5.65,44.926-2.734,26.259-2.734,26.259H404.645Z" transform="translate(-404.645 -264.116)" fill="#a1b5f7"/>
              <path id="Path_1002939" data-name="Path 1002939" d="M415.469,356.411l0-.421c0-.156,0-.311,0-.464,0-.309.015-.616.032-.92.023-.612.082-1.215.136-1.82.128-1.2.285-2.4.5-3.586a61.9,61.9,0,0,1,1.67-7,85.108,85.108,0,0,1,5.269-13.29c1.035-2.152,2.146-4.217,3.138-6.364,1.027-2.126,1.957-4.3,2.855-6.48.868-2.195,1.681-4.414,2.354-6.678a31.3,31.3,0,0,0,1.39-6.935,20.81,20.81,0,0,1-.372,3.531c-.2,1.168-.472,2.324-.765,3.474-.592,2.3-1.326,4.557-2.117,6.795-.82,2.226-1.675,4.443-2.629,6.616-.914,2.187-1.968,4.334-2.906,6.485a83.843,83.843,0,0,0-4.7,13.265,60.1,60.1,0,0,0-1.373,6.864c-.17,1.151-.278,2.307-.358,3.459-.03.575-.065,1.153-.066,1.724-.006.287-.006.572,0,.854,0,.142,0,.283.012.423l.021.466h-2.094Z" transform="translate(-410.285 -284.103)" fill="#bbcdff"/>
            </g>
            <path id="Path_1002940" data-name="Path 1002940" d="M558.387,368.069s10.454-6.7,26.383-3.922,22.4-6.18,22.4-6.18,0,18.419-24.392,26.259H548.431Z" transform="translate(-323.652 -313.042)" fill="#a1b5f7"/>
            <g id="Group_1179289" data-name="Group 1179289" transform="translate(215.457 23.777)">
              <path id="Path_1002941" data-name="Path 1002941" d="M587.42,331.713s-5.939.131-16.01-3.9-17.953,33.036-17.953,33.036h-24.5s8.589-43.61,28.3-46.706c6.693-1.053,11.517.351,15.24,2.76a21.957,21.957,0,0,1,2.467,1.854l.01.011C580.513,323.558,583.382,330.277,587.42,331.713Z" transform="translate(-528.957 -313.787)" fill="#a1b5f7"/>
              <path id="Path_1002942" data-name="Path 1002942" d="M594.9,333.2s-5.939.131-16.01-3.9-17.953,33.036-17.953,33.036H543.312c.005-.016.011-.037.016-.052,6.227-19,9.919-28.6,20-39.986,6.882-7.772,13.282-5.887,16.649-3.907a13.018,13.018,0,0,1,2.467,1.854l.01.01C588,325.05,590.866,331.77,594.9,333.2Z" transform="translate(-536.44 -315.279)" fill="#bbcdff"/>
            </g>
          </g>
          <path id="Path_1002943" data-name="Path 1002943" d="M360.478,415.036H71.522A1.522,1.522,0,0,1,70,413.514h0a1.522,1.522,0,0,1,1.522-1.522H360.478A1.522,1.522,0,0,1,362,413.514h0A1.522,1.522,0,0,1,360.478,415.036Z" transform="translate(-70 -253.861)" fill="#b8c8f4"/>
          <g id="Group_1179292" data-name="Group 1179292" transform="translate(11.683 134.743)">
            <path id="Path_1002944" data-name="Path 1002944" d="M127.746,363.135H95.1l.225,1.61-.225,1.273-.187,1.011L95.1,368.3v1.609l.262,1.235-.262,1.423-.4,1.7.4,1.3.4,1.548-.4,1.548v2.1l.4,1.548-.4,1.247-.7,2.1.7.876h32.642l.9-2.074-.9-.9.3-1.9-.3-1.448v-2.9l-.546-1.547.546-1.4v-3.144l.3-1.148-.3-1.5v-2.8l-.247-1.248Z" transform="translate(-94.406 -363.135)" fill="#e4e9f9"/>
            <g id="Group_1179291" data-name="Group 1179291" transform="translate(1.747 1.19)">
              <path id="Path_1002945" data-name="Path 1002945" d="M98.055,365.779l3.828-.077,3.828-.044,7.656-.037,7.656.036,3.828.044,3.828.077-3.828.077-3.828.044-7.656.036-7.656-.036-3.828-.044Z" transform="translate(-98.055 -365.622)" fill="#c1cee8"/>
              <path id="Path_1002946" data-name="Path 1002946" d="M98.055,369.148l3.828-.077,3.828-.044,7.656-.037,7.656.036,3.828.044,3.828.077-3.828.078-3.828.044-7.656.036-7.656-.036-3.828-.045Z" transform="translate(-98.055 -367.378)" fill="#c1cee8"/>
              <path id="Path_1002947" data-name="Path 1002947" d="M98.055,372.517l3.828-.077,3.828-.044,7.656-.036,7.656.036,3.828.044,3.828.077-3.828.077-3.828.044-7.656.036-7.656-.037-3.828-.044Z" transform="translate(-98.055 -369.135)" fill="#c1cee8"/>
              <path id="Path_1002948" data-name="Path 1002948" d="M98.055,375.885l3.828-.077,3.828-.044,7.656-.037,7.656.036,3.828.044,3.828.077-3.828.077-3.828.044-7.656.036-7.656-.037-3.828-.044Z" transform="translate(-98.055 -370.89)" fill="#c1cee8"/>
              <path id="Path_1002949" data-name="Path 1002949" d="M98.055,379.255l3.828-.077,3.828-.044,7.656-.037,7.656.036,3.828.044,3.828.077-3.828.077-3.828.044-7.656.036-7.656-.037-3.828-.044Z" transform="translate(-98.055 -372.647)" fill="#c1cee8"/>
              <path id="Path_1002950" data-name="Path 1002950" d="M98.055,382.624l3.828-.077,3.828-.044,7.656-.037,7.656.036,3.828.044,3.828.077-3.828.077-3.828.044-7.656.036-7.656-.037-3.828-.044Z" transform="translate(-98.055 -374.403)" fill="#c1cee8"/>
              <path id="Path_1002951" data-name="Path 1002951" d="M98.055,385.992l3.828-.077,3.828-.044,7.656-.037,7.656.036,3.828.044,3.828.077-3.828.077-3.828.044-7.656.036-7.656-.036-3.828-.044Z" transform="translate(-98.055 -376.159)" fill="#c1cee8"/>
              <path id="Path_1002952" data-name="Path 1002952" d="M98.055,389.362l3.828-.077,3.828-.044,7.656-.037,7.656.036,3.828.045,3.828.077-3.828.077-3.828.044-7.656.036-7.656-.036-3.828-.044Z" transform="translate(-98.055 -377.916)" fill="#c1cee8"/>
              <path id="Path_1002953" data-name="Path 1002953" d="M98.055,392.73l3.828-.077,3.828-.044,7.656-.037,7.656.036,3.828.044,3.828.077-3.828.078-3.828.044-7.656.036-7.656-.036-3.828-.044Z" transform="translate(-98.055 -379.672)" fill="#c1cee8"/>
              <path id="Path_1002954" data-name="Path 1002954" d="M98.055,396.1l3.828-.077,3.828-.044,7.656-.036,7.656.036,3.828.044,3.828.077-3.828.077-3.828.044-7.656.036-7.656-.037-3.828-.044Z" transform="translate(-98.055 -381.428)" fill="#c1cee8"/>
              <path id="Path_1002955" data-name="Path 1002955" d="M98.055,399.467l3.828-.077,3.828-.044,7.656-.037,7.656.036,3.828.044,3.828.077-3.828.077-3.828.044-7.656.036-7.656-.037-3.828-.044Z" transform="translate(-98.055 -383.184)" fill="#c1cee8"/>
              <path id="Path_1002956" data-name="Path 1002956" d="M98.055,402.836l3.828-.077,3.828-.044,7.656-.037,7.656.036,3.828.044,3.828.077-3.828.077-3.828.044-7.656.036-7.656-.037-3.828-.044Z" transform="translate(-98.055 -384.94)" fill="#c1cee8"/>
              <path id="Path_1002957" data-name="Path 1002957" d="M98.055,406.206l3.828-.077,3.828-.044,7.656-.037,7.656.036,3.828.044,3.828.077-3.828.077-3.828.044-7.656.036-7.656-.037-3.828-.044Z" transform="translate(-98.055 -386.697)" fill="#c1cee8"/>
              <path id="Path_1002958" data-name="Path 1002958" d="M98.055,409.574l3.828-.077,3.828-.044,7.656-.037,7.656.036,3.828.044,3.828.077-3.828.077-3.828.044-7.656.036-7.656-.036-3.828-.044Z" transform="translate(-98.055 -388.453)" fill="#c1cee8"/>
            </g>
          </g>
        </g>
        <g id="Group_1179313" data-name="Group 1179313" transform="translate(9.519 62.45)">
          <g id="Group_1179294" data-name="Group 1179294" transform="translate(61.756 77.834)">
            <path id="Path_1002959" data-name="Path 1002959" d="M221.125,378.057l-2.229,15.36h17.836l1.65-18.707Z" transform="translate(-218.896 -374.71)" fill="#17180a"/>
            <path id="Path_1002960" data-name="Path 1002960" d="M243.554,380.453l4.288,7.19v5.774h19.827l-.9-18.707Z" transform="translate(-231.75 -374.71)" fill="#292b30"/>
          </g>
          <g id="Group_1179296" data-name="Group 1179296" transform="translate(0 15.866)">
            <path id="Path_1002961" data-name="Path 1002961" d="M142.452,293.673l-5.278,8.947s1.2,2.845,3.481,3.07l1.647,2.022,2.7-3.594Z" transform="translate(-114.537 -270.497)" fill="#ea6e6e"/>
            <g id="Group_1179295" data-name="Group 1179295">
              <path id="Path_1002962" data-name="Path 1002962" d="M122.7,253.437c.294.207-6.66,29.421-6.66,29.421a102.855,102.855,0,0,0-21.633-1.039s.305-20.586,4.8-32.205C99.209,249.614,111.425,245.509,122.7,253.437Z" transform="translate(-92.242 -246.974)" fill="#d3dbef"/>
              <path id="Path_1002963" data-name="Path 1002963" d="M125.025,255.542c.224.281-14.675,26.355-14.675,26.355a102.824,102.824,0,0,0-20.465-7.088s6.089-19.666,13.677-29.549C103.562,245.26,116.44,244.761,125.025,255.542Z" transform="translate(-89.885 -245.257)" fill="#e4e9f9"/>
            </g>
            <path id="Path_1002964" data-name="Path 1002964" d="M149.664,296.952l-2.246-2.658s.112-5.615-.225-6.589-7.038-.3-7.562,1.273,4.08,1.348,4.08,1.348a11.737,11.737,0,0,0-.936,5.727,10.813,10.813,0,0,0,2.62,5.69Z" transform="translate(-115.796 -267.149)" fill="#fa9583"/>
          </g>
          <path id="Path_1002965" data-name="Path 1002965" d="M201.767,218.966s-2.484-.793-4.758,2.7-.62,9.423,1.073,13.722.162,4.964.315,9.713,4.47,7.067,6.522,7.688,20.233-1.848,20.233-1.848,6.363-.977,7.612-8.46c.883-5.288-1.3-9.359-4.045-10.866-2.172-1.192-3.71-2.894-4.782-7.923s-5.641-10.774-11.314-11.459C206.763,211.52,201.938,214.053,201.767,218.966Z" transform="translate(-145.151 -212.111)" fill="#17180a"/>
          <g id="Group_1179307" data-name="Group 1179307" transform="translate(61.338 30.848)">
            <path id="Path_1002966" data-name="Path 1002966" d="M228.569,331.719s3.586,1.634,11.672-1.261-4.193-51.063-4.193-51.063l-5.77-2.841-9.554,4.014-2.7,20.54Z" transform="translate(-218.022 -276.554)" fill="#e05858"/>
            <g id="Group_1179306" data-name="Group 1179306" transform="translate(1.578 17.759)">
              <g id="Group_1179305" data-name="Group 1179305">
                <g id="Group_1179298" data-name="Group 1179298">
                  <g id="Group_1179297" data-name="Group 1179297">
                    <path id="Path_1002967" data-name="Path 1002967" d="M221.475,316.933c5.176,1.694,10.4-.462,15.09-2.582.19-.086.619-.309.416-.57-.187-.238-.789-.088-1,.007-4.117,1.862-8.72,3.938-13.29,2.443a1.355,1.355,0,0,0-1.072.154c-.163.1-.5.433-.145.548Z" transform="translate(-221.319 -313.653)" fill="#f78484"/>
                  </g>
                </g>
                <g id="Group_1179300" data-name="Group 1179300" transform="translate(1.529 7.504)">
                  <g id="Group_1179299" data-name="Group 1179299">
                    <path id="Path_1002968" data-name="Path 1002968" d="M224.988,333.386a32.486,32.486,0,0,0,14.1-3.2c.235-.113.6-.385.387-.676-.2-.274-.767-.173-1.015-.053a29.766,29.766,0,0,1-12.911,2.979,1.125,1.125,0,0,0-1,.434c-.159.308.137.521.432.521Z" transform="translate(-224.512 -329.33)" fill="#f78484"/>
                  </g>
                </g>
                <g id="Group_1179302" data-name="Group 1179302" transform="translate(2.933 15.219)">
                  <g id="Group_1179301" data-name="Group 1179301">
                    <path id="Path_1002969" data-name="Path 1002969" d="M227.926,348.848a33.729,33.729,0,0,0,13.988-2.532c.249-.1.591-.4.383-.689s-.755-.168-1.017-.061a30.894,30.894,0,0,1-12.795,2.308,1.1,1.1,0,0,0-1,.438c-.16.317.139.527.435.537Z" transform="translate(-227.446 -345.447)" fill="#f78484"/>
                  </g>
                </g>
                <g id="Group_1179304" data-name="Group 1179304" transform="translate(4.766 22.666)">
                  <g id="Group_1179303" data-name="Group 1179303">
                    <path id="Path_1002970" data-name="Path 1002970" d="M231.729,364.3a33.781,33.781,0,0,0,13.987-2.538c.213-.088.609-.343.4-.611s-.774-.112-1-.016a30.851,30.851,0,0,1-12.8,2.3c-.3-.01-.853.108-1,.415s.129.439.412.449Z" transform="translate(-231.275 -361.003)" fill="#f78484"/>
                  </g>
                </g>
              </g>
            </g>
          </g>
          <path id="Path_1002971" data-name="Path 1002971" d="M183.33,282.49s-10.086,5.727-11.135,6.956-.349,1.629-.449,2.727S165.657,308,165.657,308s-12.379-13.078-13.228-14.076-8.785,8.735-8.535,9.634,14.326,15.923,18.618,19.017,6.04,2.2,8.735-.249,7.038-10.582,7.038-10.582,1.481,2.995,2.179,9.883-1.527,15.546-.432,17.26c2.6,4.063,10.757,5.645,10.757,5.645s-1.734-26.548-4.53-41.9c-1.938-10.644-2.889-19.01-2.889-19.01Z" transform="translate(-118.037 -248.801)" fill="#556bbe"/>
          <path id="Path_1002972" data-name="Path 1002972" d="M246.983,278.2" transform="translate(-171.782 -246.563)" fill="#fff" stroke="#f40f41" stroke-miterlimit="10" stroke-width="1.094"/>
          <path id="Path_1002973" data-name="Path 1002973" d="M270.349,334.889c-1.8,3.18-17.674,7.373-17.674,7.373s-.437-2.42-1.084-6.293c-.391-2.336-.857-5.2-1.345-8.39-1.281-8.306-2.739-18.771-3.474-27.644-1.479-17.9-.286-21.741-.286-21.741s16.094,1.084,17.607,4c.256.5-.168,1.949,0,3.218.324,2.445,2.273,5.68,3.18,7.083.286.441.471.7.471.7l-.055.857-1.4,21.855a113.579,113.579,0,0,1,3.672,12.04C270.656,331.012,270.992,333.755,270.349,334.889Z" transform="translate(-171.286 -246.561)" fill="#556bbe"/>
          <g id="Group_1179308" data-name="Group 1179308" transform="translate(55.637 12.508)">
            <path id="Path_1002974" data-name="Path 1002974" d="M234.474,267.686s-.242,6.555-3.964,9.151-6.668,1.055-5.965-6.838c0-.009,0-.017,0-.026a2.535,2.535,0,0,0-.681-2.068,2.476,2.476,0,0,0-.879-.545l.724-.7,8.894-8.616a.014.014,0,0,1,.008-.006,27.318,27.318,0,0,0,1.861,9.653Z" transform="translate(-214.91 -248.558)" fill="#fa9583"/>
            <path id="Path_1002975" data-name="Path 1002975" d="M233.39,258.033a25.252,25.252,0,0,0,.256,3.476c-.063,2.49-.672,5.765-3.114,7.9-2.921,2.557-4.4,2.114-5.209.59,0-.009,0-.017,0-.026a2.535,2.535,0,0,0-.681-2.068c-.054-.255-.1-.524-.144-.789a1.728,1.728,0,0,1-.011-.46c.334-3.218,8.622-8.449,8.894-8.616A.014.014,0,0,1,233.39,258.033Z" transform="translate(-215.688 -248.558)" fill="#d85555"/>
            <path id="Path_1002976" data-name="Path 1002976" d="M208.88,238.24s.391,4-2.766,6.214c0,0,2.367,8.122,4.376,10.632s4.461,3.562,7.826,1.236,6.076-4.638,5.5-8.606a3.483,3.483,0,0,0,2.138-3.581c-.187-2.747-3.477-2.608-3.539.034C220.433,241.007,213.6,245.527,208.88,238.24Z" transform="translate(-206.114 -238.24)" fill="#fa9583"/>
            <path id="Path_1002977" data-name="Path 1002977" d="M221.968,281.857a2.6,2.6,0,0,0-1.243,1.476c-.249.973-2.471,10.956-2.7,12s4.417,4.318,4.417,4.318-2.671,5.566-2.671,6.763,4.424,13.629,7.967,17.622C228.008,324.229,223.57,292.492,221.968,281.857Z" transform="translate(-212.322 -260.978)" fill="#768be4"/>
            <path id="Path_1002978" data-name="Path 1002978" d="M246.112,276.555s1.461.4,1.874,1.117,2.935,9,3.257,9.983c.574,1.744,1.123.951-1.573,6.079,0,0,3.744,5.016,3.819,5.616s-4.215,21.343-4.215,21.343a231.1,231.1,0,0,1-3.163-26.09C245.5,282.035,246.441,277.526,246.112,276.555Z" transform="translate(-226.854 -258.214)" fill="#768be4"/>
          </g>
          <g id="Group_1179309" data-name="Group 1179309" transform="translate(47.619 41.226)">
            <path id="Path_1002979" data-name="Path 1002979" d="M189.363,333.078a15.113,15.113,0,0,1,2.907,8.835s2.089-7.645-1.906-11.31Z" transform="translate(-189.363 -315.109)" fill="#3e549b" opacity="0.75"/>
            <path id="Path_1002980" data-name="Path 1002980" d="M211.257,322.633s-2.708-2.865-2.259-8.46a34.9,34.9,0,0,0-1-10.787,37.787,37.787,0,0,1-.4,10.232c-1,5.091-.468,7.818,2.393,11.279Z" transform="translate(-198.629 -300.92)" fill="#3e549b" opacity="0.75"/>
            <path id="Path_1002981" data-name="Path 1002981" d="M270.125,343.534a38.564,38.564,0,0,1-4.533-.651c-7.109-1.407-11.885,5.239-13.838,8.667a20.934,20.934,0,0,0-.991,1.941l-4.42-2.134,2.235-4.428,1.831-3.768,17.027-35.08.416,1.559-1.4,21.855A113.449,113.449,0,0,1,270.125,343.534Z" transform="translate(-219.067 -303.368)" fill="#3e549b" opacity="0.75"/>
            <path id="Path_1002982" data-name="Path 1002982" d="M253.057,298.235s-4.923,16.3-6.719,21.262c-.933,2.576-4.866,12.022-4.866,12.022l-3.115,7.339s15.18-14.713,15.125-15.154S253.057,298.235,253.057,298.235Z" transform="translate(-214.904 -298.235)" fill="#3e549b" opacity="0.75"/>
          </g>
          <g id="Group_1179311" data-name="Group 1179311" transform="translate(63.63 34.587)">
            <path id="Path_1002983" data-name="Path 1002983" d="M231.153,386.078c-.143.1-2.97,5.715-2.97,5.715a13.354,13.354,0,0,1-2.279,3.149c-1.844,2.087-3.616,2.757-2.95,3.373s4.453-.434,5.725-1.641a12.862,12.862,0,0,0,6.419,2.314c3.479.119,7.408-.167,8.065-.878s-7.179-2.813-7.288-5.538c-.012-.3,3.889-4.922,3.889-4.922S233.942,384.04,231.153,386.078Z" transform="translate(-222.811 -337.064)" fill="#fa9583"/>
            <path id="Path_1002984" data-name="Path 1002984" d="M235.957,333.116c-1.208,2.621,8.465,7.078,9.673,4.457,0,0,13.156-19.076,13.83-21.99.456-1.971,2.041-10.827,3.02-16.354a16.743,16.743,0,0,0-2-11.479,7.57,7.57,0,0,0-3.077-3.187c-3.709-1.618-6.536,7.027-7.976,17.394a73.255,73.255,0,0,1-2.4,9.8C246.723,312.875,235.957,333.116,235.957,333.116Z" transform="translate(-229.61 -284.365)" fill="#556bbe"/>
            <g id="Group_1179310" data-name="Group 1179310" transform="translate(14.286 49.189)">
              <path id="Path_1002985" data-name="Path 1002985" d="M253.529,391.284a.58.58,0,1,1-.794.207A.58.58,0,0,1,253.529,391.284Z" transform="translate(-252.655 -389.25)" fill="#768be4"/>
              <path id="Path_1002986" data-name="Path 1002986" d="M255.921,387.2a.58.58,0,1,1-.794.207A.58.58,0,0,1,255.921,387.2Z" transform="translate(-253.902 -387.122)" fill="#768be4"/>
            </g>
          </g>
          <g id="Group_1179312" data-name="Group 1179312" transform="translate(28.287 54.402)">
            <path id="Path_1002987" data-name="Path 1002987" d="M149.964,326.753a.58.58,0,1,1,.006-.82A.58.58,0,0,1,149.964,326.753Z" transform="translate(-148.977 -325.76)" fill="#768be4"/>
            <path id="Path_1002988" data-name="Path 1002988" d="M153.286,330.122a.58.58,0,1,1,.006-.82A.58.58,0,0,1,153.286,330.122Z" transform="translate(-150.709 -327.516)" fill="#768be4"/>
          </g>
        </g>
        <g id="Group_1179334" data-name="Group 1179334" transform="translate(186.731 59.136)">
          <path id="Path_1002989" data-name="Path 1002989" d="M521.71,378.057l2.229,15.36H506.1l-1.65-18.707Z" transform="translate(-483.216 -293.561)" fill="#17180a"/>
          <path id="Path_1002990" data-name="Path 1002990" d="M490.214,381.556l-4.288,7.19v5.774H462.4l1.444-17.694Z" transform="translate(-461.295 -294.665)" fill="#292b30"/>
          <g id="Group_1179324" data-name="Group 1179324" transform="translate(16.509 35.61)">
            <path id="Path_1002991" data-name="Path 1002991" d="M497.906,332s8.369,2.257,14.611-1.146l-.785-40-4.476-11.282-12.68,1.268Z" transform="translate(-494.576 -279.578)" fill="#e05858"/>
            <g id="Group_1179323" data-name="Group 1179323" transform="translate(0.868 10.136)">
              <g id="Group_1179322" data-name="Group 1179322">
                <g id="Group_1179315" data-name="Group 1179315">
                  <g id="Group_1179314" data-name="Group 1179314">
                    <path id="Path_1002992" data-name="Path 1002992" d="M511.039,300.972c-4.036,2.521-9.048,1.586-13.442.772a1.244,1.244,0,0,0-1.073.288c-.213.22-.184.522.156.585,5.1.945,10.662,1.772,15.316-1.135.242-.151.412-.449.121-.639a1.158,1.158,0,0,0-1.078.13Z" transform="translate(-496.389 -300.753)" fill="#f78484"/>
                  </g>
                </g>
                <g id="Group_1179317" data-name="Group 1179317" transform="translate(0.993 8.265)">
                  <g id="Group_1179316" data-name="Group 1179316">
                    <path id="Path_1002993" data-name="Path 1002993" d="M512.95,318.059a29.881,29.881,0,0,1-13.283.216,1.173,1.173,0,0,0-1.073.288c-.211.231-.176.562.17.635a32.4,32.4,0,0,0,14.426-.24c.261-.064.729-.314.639-.652s-.627-.308-.879-.246Z" transform="translate(-498.463 -318.018)" fill="#f78484"/>
                  </g>
                </g>
                <g id="Group_1179319" data-name="Group 1179319" transform="translate(1.594 15.538)">
                  <g id="Group_1179318" data-name="Group 1179318">
                    <path id="Path_1002994" data-name="Path 1002994" d="M513.955,333.273a30.957,30.957,0,0,1-13.018.809,1.422,1.422,0,0,0-1.073.288c-.223.2-.2.43.128.479a33.68,33.68,0,0,0,14.145-.9c.2-.056.748-.246.668-.542s-.67-.187-.85-.136Z" transform="translate(-499.718 -333.212)" fill="#f78484"/>
                  </g>
                </g>
                <g id="Group_1179321" data-name="Group 1179321" transform="translate(1.594 23.154)">
                  <g id="Group_1179320" data-name="Group 1179320">
                    <path id="Path_1002995" data-name="Path 1002995" d="M513.955,349.183a30.956,30.956,0,0,1-13.018.809,1.421,1.421,0,0,0-1.073.288c-.223.2-.2.43.128.479a33.68,33.68,0,0,0,14.145-.9c.2-.056.748-.246.668-.542s-.67-.186-.85-.135Z" transform="translate(-499.718 -349.122)" fill="#f78484"/>
                  </g>
                </g>
              </g>
            </g>
            <path id="Path_1002996" data-name="Path 1002996" d="M503.4,326.327s-2.324,12.379,7.359,11.68,2.346,10.427,2.346,10.427l-15.893,4.8Z" transform="translate(-495.951 -303.949)" fill="#ba3c3c" opacity="0.4"/>
          </g>
          <path id="Path_1002997" data-name="Path 1002997" d="M496.433,209.866s2.156-.77,5.049,2.224,2.394,9.134,1.545,13.677.49,4.705.591,9.456c.119,5.574-2.214,7.607-4.11,8.6s-27.728-1.04-27.728-1.04-3.567,1.232-4.1-4.2c-.524-5.335,2.354-9.575,4.55-10.723s3.095-3.544,3.194-8.685,3.64-11.359,9.081-13.106C490.126,204.268,495.335,205.075,496.433,209.866Z" transform="translate(-464.013 -205.187)" fill="#17180a"/>
          <g id="Group_1179328" data-name="Group 1179328" transform="translate(33.665 21.067)">
            <g id="Group_1179325" data-name="Group 1179325" transform="translate(0 13.922)">
              <path id="Path_1002998" data-name="Path 1002998" d="M559.967,288.953s-3.115,5.015-6.991,11.877c-3.243,5.741-5,6.645-6.688,7.738-.763.494-6.34-1.949-10.456-3.941-2.428-1.176-4.311-2.151-4.311-2.151l-.319-6.642-.786-16.469s3.067,1.66,3.466,2.756c.353.97,4.066,5.941,7.268,9.734l.214.252q.5.592.983,1.134a106.624,106.624,0,0,0,8.126-10.285,39.256,39.256,0,0,1,3.4-4.677S560.614,280.366,559.967,288.953Z" transform="translate(-530.416 -278.281)" fill="#556bbe"/>
              <path id="Path_1002999" data-name="Path 1002999" d="M553.307,308.029a15.741,15.741,0,0,0-.274,7.013,8.58,8.58,0,0,1-.92-8.4Z" transform="translate(-541.377 -293.066)" fill="#3e549b" opacity="0.75"/>
              <path id="Path_1003000" data-name="Path 1003000" d="M536.687,310.682c-2.428-1.176-4.311-2.151-4.311-2.151l-.319-6.642.92-11.994s2.739,6.008,4.432,10C538.905,303.418,537.834,307.846,536.687,310.682Z" transform="translate(-531.271 -284.336)" fill="#3e549b" opacity="0.75"/>
            </g>
            <path id="Path_1003001" data-name="Path 1003001" d="M585.39,289.264a8.826,8.826,0,0,1-1.516-1.084,9.939,9.939,0,0,1-3.537-7.583q0-.277.012-.567a2.9,2.9,0,0,1,.273.139,9.316,9.316,0,0,1,4.34,5.667A11.725,11.725,0,0,1,585.39,289.264Z" transform="translate(-556.44 -265.271)" fill="#3e549b"/>
            <path id="Path_1003002" data-name="Path 1003002" d="M593.443,256.721c-.45,3.252-3.86,5.876-5.619,6.887l-2.86,6.154-1.09,2.347a9.936,9.936,0,0,1-3.535-7.583l.283-.429,2.671-4.007a14.219,14.219,0,0,1,.785-4.567,17.308,17.308,0,0,1,2.362-4.153c.414-.639.828.073.377,1.723a12.733,12.733,0,0,0-.23,3.854s3.446-2.922,3.823-4.907.561-3.142,1.309-2.771c.508.251,1.325,2.095,1.66,4.268.005.032.005.057.01.089A10.942,10.942,0,0,1,593.443,256.721Z" transform="translate(-556.441 -249.199)" fill="#fa9583"/>
            <path id="Path_1003003" data-name="Path 1003003" d="M595.109,261.224c-1.587.749-1.718-4.279-1.718-4.279s3.446-2.922,3.823-4.907.561-3.142,1.309-2.771c.508.251,1.325,2.095,1.66,4.268.005.032.005.057.01.089C600.456,256.51,596.7,260.475,595.109,261.224Z" transform="translate(-563.246 -249.198)" fill="#d85555" opacity="0.36"/>
            <g id="Group_1179327" data-name="Group 1179327" transform="translate(24.421 25.245)">
              <g id="Group_1179326" data-name="Group 1179326">
                <path id="Path_1003004" data-name="Path 1003004" d="M585.483,302.04a.58.58,0,1,1-.809.141A.58.58,0,0,1,585.483,302.04Z" transform="translate(-583.068 -301.935)" fill="#768be4"/>
                <path id="Path_1003005" data-name="Path 1003005" d="M582.348,305.62a.58.58,0,1,1-.809.141A.58.58,0,0,1,582.348,305.62Z" transform="translate(-581.433 -303.801)" fill="#768be4"/>
              </g>
            </g>
          </g>
          <path id="Path_1003006" data-name="Path 1003006" d="M499.218,263.438s1.479,6.39,5.626,8.234,6.747-.227,4.562-7.843c0-.009,0-.017-.009-.025a2.535,2.535,0,0,1,.277-2.159,2.479,2.479,0,0,1,.761-.7l-.844-.555-10.364-6.776a.013.013,0,0,0-.008,0,25.248,25.248,0,0,1,.407,3.462A25.517,25.517,0,0,1,499.218,263.438Z" transform="translate(-480.487 -230.429)" fill="#fa9583"/>
          <path id="Path_1003007" data-name="Path 1003007" d="M499.218,253.608a25.243,25.243,0,0,1,.407,3.462c.534,2.433,1.752,5.533,4.554,7.167,3.353,1.958,4.718,1.244,5.226-.407,0-.009,0-.017-.009-.025a2.535,2.535,0,0,1,.277-2.159c0-.26,0-.534-.009-.8a1.756,1.756,0,0,0-.076-.454c-.937-3.1-10.066-6.663-10.364-6.776A.011.011,0,0,0,499.218,253.608Z" transform="translate(-480.487 -230.43)" fill="#d85555"/>
          <path id="Path_1003008" data-name="Path 1003008" d="M509.038,228.264s.374,4.006,3.893,5.578c0,0-.786,8.423-2.284,11.268s-3.706,4.343-7.45,2.7-6.844-3.4-7.031-7.409a3.481,3.481,0,0,1-2.777-3.111c-.337-2.733,2.92-3.22,3.481-.637C498.219,233.168,505.781,236.313,509.038,228.264Z" transform="translate(-477.436 -217.217)" fill="#fa9583"/>
          <path id="Path_1003009" data-name="Path 1003009" d="M480.024,335.44s-9.78-.743-14.133-4.025a30.007,30.007,0,0,1-5.071-4.47,3.318,3.318,0,0,1-.727-1.285c-.206-.9,5.26-16.994,5.26-16.994s-.769-4.222-1.617-9.495c-1.218-7.554-2.609-17.262-2.155-19.771.6-3.323,16.389-6.087,17.3-6.823l-.059.269s3.6,4.743,4.726,15.826S482.868,324.887,480.024,335.44Z" transform="translate(-460.088 -240.319)" fill="#556bbe"/>
          <path id="Path_1003010" data-name="Path 1003010" d="M473.113,302.48c-.21.849-5.84,11.083-9.663,8.772a3.839,3.839,0,0,1-1.168-1.147c-1.353-1.97-1.807-5.546-1.815-9.394a97.25,97.25,0,0,1,1.592-15.767c5.045-2.26,6.411,3.42,6.411,3.42Z" transform="translate(-460.286 -246.488)" fill="#556bbe"/>
          <path id="Path_1003011" data-name="Path 1003011" d="M465.7,320.089a31.04,31.04,0,0,1-3.415,2.281c-1.353-1.97-1.807-5.546-1.815-9.394a23.927,23.927,0,0,1,3.394-5.037Z" transform="translate(-460.287 -258.753)" fill="#3e549b" opacity="0.75"/>
          <path id="Path_1003012" data-name="Path 1003012" d="M499.218,273.138" transform="translate(-480.487 -240.611)" fill="#f9f9f9" stroke="#fc125a" stroke-miterlimit="10" stroke-width="1.094"/>
          <path id="Path_1003013" data-name="Path 1003013" d="M497.438,270.515s-2.114,1.509-2.164,2.408a57.338,57.338,0,0,1,.5,8.835c-.249,4.642-.549,8.386-.3,8.486s4.592-.5,4.592-.5-3.835,4.792-3.865,5.79a133,133,0,0,0,4.666,23.8s2.628-21.157,1.358-30.618S498.884,274.39,497.5,272.1Z" transform="translate(-478.43 -239.243)" fill="#768be4"/>
          <path id="Path_1003014" data-name="Path 1003014" d="M520.5,274.961s2.1,16.616,2.351,24.97.6,36.752.6,36.752,8.136-3.84,8.785-7.134-3.494-22.761-3.644-25.257,2.425-6.413,1.612-11.218-3.21-10.346-3.609-12.193-.4-2.5-1.347-3.245A27.065,27.065,0,0,0,520.5,274.961Z" transform="translate(-491.582 -241.561)" fill="#556bbe"/>
          <path id="Path_1003015" data-name="Path 1003015" d="M460.82,335.854a3.318,3.318,0,0,1-.727-1.285c-.206-.9,5.26-16.994,5.26-16.994s-.769-4.222-1.617-9.495l7.306-.483,7.314-17.931c.089,9.154-2.034,23.094-5.037,28.65C470.24,324.011,464.14,325.337,460.82,335.854Z" transform="translate(-460.088 -249.227)" fill="#3e549b" opacity="0.75"/>
          <g id="Group_1179333" data-name="Group 1179333" transform="translate(0.774 18.226)">
            <g id="Group_1179329" data-name="Group 1179329" transform="translate(14.519)">
              <path id="Path_1003016" data-name="Path 1003016" d="M502.9,255.467a1.146,1.146,0,0,1-.367.259l-4.754,2.138a1.169,1.169,0,0,1-1.572-.651l-4.089-10.7a1.1,1.1,0,0,1-.075-.359,1.162,1.162,0,0,1,.726-1.141l3.978-1.619a1.72,1.72,0,0,1,2.235.927l4.149,9.892A1.171,1.171,0,0,1,502.9,255.467Z" transform="translate(-492.036 -243.262)" fill="#768be4"/>
              <path id="Path_1003017" data-name="Path 1003017" d="M502.9,256.233a1.147,1.147,0,0,1-.367.259l-4.754,2.138a1.169,1.169,0,0,1-1.572-.651l-4.089-10.7a1.1,1.1,0,0,1-.075-.359,1.245,1.245,0,0,1,.407-.276l4.482-1.821a1.167,1.167,0,0,1,1.519.633l4.36,10.393A1.121,1.121,0,0,1,502.9,256.233Z" transform="translate(-492.038 -244.028)" fill="#a1b5f7"/>
              <path id="Path_1003018" data-name="Path 1003018" d="M502.544,247.573a.543.543,0,1,1-.481-.6A.543.543,0,0,1,502.544,247.573Z" transform="translate(-496.95 -245.195)" fill="#768be4"/>
            </g>
            <g id="Group_1179332" data-name="Group 1179332" transform="translate(0 5.351)">
              <path id="Path_1003019" data-name="Path 1003019" d="M472.491,275.715l-.038-.007c-.081-.01-.3-.078-1.632,2.856-1.494,3.3-5.768,10.286-7.9,16.6s-1.29,11.345,1.125,11.988,7.457-1.022,9.809-7.316,4.059-12.282,4.892-14.676.537-3.37.537-3.37C477.561,278.418,475.446,276.04,472.491,275.715Z" transform="translate(-461.705 -265.527)" fill="#556bbe"/>
              <path id="Path_1003020" data-name="Path 1003020" d="M490.847,282.533a11.92,11.92,0,0,1-6.8-6.55C488.649,277.658,490.847,282.533,490.847,282.533Z" transform="translate(-473.354 -265.671)" fill="#3e549b"/>
              <path id="Path_1003021" data-name="Path 1003021" d="M485.08,265.749l3.679-5.7a16.587,16.587,0,0,1-.2-2.658,17.84,17.84,0,0,1,.832-2.682l.564,1.564a59.267,59.267,0,0,1,5.963-1.837,3.1,3.1,0,0,1,2.368,1.843c.691,1.244,1.508,3.9,1.138,4.268s-1.053-.267-1.487-.089-2.95,2.16-4.057,2.979a3.858,3.858,0,0,1-1.728.864l-2.6,5.965A10.268,10.268,0,0,1,485.08,265.749Z" transform="translate(-473.891 -254.441)" fill="#fa9583"/>
              <g id="Group_1179331" data-name="Group 1179331" transform="translate(14.298 18.568)">
                <g id="Group_1179330" data-name="Group 1179330">
                  <path id="Path_1003022" data-name="Path 1003022" d="M494.1,293.253a.58.58,0,1,1-.718.4A.58.58,0,0,1,494.1,293.253Z" transform="translate(-492.507 -293.231)" fill="#768be4"/>
                  <path id="Path_1003023" data-name="Path 1003023" d="M492.314,297.663a.58.58,0,1,1-.718.4A.58.58,0,0,1,492.314,297.663Z" transform="translate(-491.574 -295.529)" fill="#768be4"/>
                </g>
              </g>
            </g>
          </g>
          <path id="Path_1003024" data-name="Path 1003024" d="M520.5,274.961s.615.245,1.086.489,4.321,12.256,4.446,12.818-2.532,2.209-2.532,2.209,3.743,6.526,3.993,7.175-4.246,24-4.246,24S521.544,287.634,520.5,274.961Z" transform="translate(-491.582 -241.561)" fill="#768be4"/>
        </g>
        <g id="Group_1179358" data-name="Group 1179358" transform="translate(81.662 82.048)">
          <path id="Path_1003025" data-name="Path 1003025" d="M344.841,259.526s-2.4-2.1-5.293.9S337.153,269.559,338,274.1s-1.8,5.191-2.546,9.883,1.248,6.888,3.144,7.886,30.648-.749,30.648-.749,3.11-1.26,3.644-6.693c.524-5.335-1.9-7.083-4.093-8.231s-3.095-3.544-3.194-8.685-3.594-12.179-9.035-13.926C350.951,251.782,345.939,254.734,344.841,259.526Z" transform="translate(-289.963 -253.051)" fill="#17180a"/>
          <g id="Group_1179345" data-name="Group 1179345" transform="translate(52.232 31.377)">
            <path id="Path_1003026" data-name="Path 1003026" d="M351.881,364.166H365.8l-.318-45.567-10.141,1.62-5.632,20.2Z" transform="translate(-349.71 -318.599)" fill="#e05858"/>
            <g id="Group_1179344" data-name="Group 1179344" transform="translate(0.251 14.347)">
              <g id="Group_1179343" data-name="Group 1179343">
                <g id="Group_1179336" data-name="Group 1179336" transform="translate(0.79)">
                  <g id="Group_1179335" data-name="Group 1179335">
                    <path id="Path_1003027" data-name="Path 1003027" d="M352.054,349.408c4.486,2.8,9.978,1.931,14.883,1.022.277-.051.814-.185.856-.539.04-.337-.424-.412-.666-.367-4.594.851-9.668,1.742-13.874-.885-.453-.284-1.842.366-1.2.768Z" transform="translate(-351.887 -348.57)" fill="#f78484"/>
                  </g>
                </g>
                <g id="Group_1179338" data-name="Group 1179338" transform="translate(0.333 8.242)">
                  <g id="Group_1179337" data-name="Group 1179337">
                    <path id="Path_1003028" data-name="Path 1003028" d="M351.232,366.742a32.383,32.383,0,0,0,14.427.216c.263-.056.728-.32.639-.652-.094-.352-.625-.3-.879-.246a29.9,29.9,0,0,1-13.283-.24,1.159,1.159,0,0,0-1.073.288.357.357,0,0,0,.169.635Z" transform="translate(-350.931 -365.788)" fill="#f78484"/>
                  </g>
                </g>
                <g id="Group_1179340" data-name="Group 1179340" transform="translate(0 15.525)">
                  <g id="Group_1179339" data-name="Group 1179339">
                    <path id="Path_1003029" data-name="Path 1003029" d="M350.391,381.741a33.467,33.467,0,0,0,14.077.887c.244-.037.825-.177.87-.487s-.449-.3-.641-.275a31.169,31.169,0,0,1-13.086-.819,1.407,1.407,0,0,0-1.071.156c-.151.09-.509.435-.148.537Z" transform="translate(-350.235 -381.002)" fill="#f78484"/>
                  </g>
                </g>
                <g id="Group_1179342" data-name="Group 1179342" transform="translate(0 23.141)">
                  <g id="Group_1179341" data-name="Group 1179341">
                    <path id="Path_1003030" data-name="Path 1003030" d="M350.391,397.65a33.466,33.466,0,0,0,14.077.887c.244-.037.825-.177.87-.487s-.449-.3-.641-.275a31.161,31.161,0,0,1-13.086-.819,1.409,1.409,0,0,0-1.071.157c-.151.09-.509.435-.148.537Z" transform="translate(-350.235 -396.912)" fill="#f78484"/>
                  </g>
                </g>
              </g>
            </g>
            <path id="Path_1003031" data-name="Path 1003031" d="M363.755,342.651s-1.9,27.137-8.087,26.366c-4.616-.575-2.188-23.449-2.188-23.449l-3.144,29.8h16.322Z" transform="translate(-350.036 -331.138)" fill="#ba3c3c" opacity="0.4"/>
          </g>
          <path id="Path_1003032" data-name="Path 1003032" d="M322.7,322.344s-1.718,5-2.616,17.354a254.928,254.928,0,0,0-.3,25.741h-7.038s.749-7.248.374-8.745a41.981,41.981,0,0,0-1.782-4.649s-2.148,9.178-3.5,10.451-13.777,2.171-19.542,1.722c0,0-3.664-3.815-.369-9.5a57.474,57.474,0,0,0,7.22-1.3c4.941-1.123,5.022-1.182,5.022-1.182s5.952-15.739,6.251-20.082.15-3.818,2.546-4.717,9.841-3.649,11.488-5.087,2.326-1.29,2.326-1.29A3.28,3.28,0,0,1,322.7,322.344Z" transform="translate(-264.554 -288.499)" fill="#556bbe"/>
          <path id="Path_1003033" data-name="Path 1003033" d="M377.462,319.772a147.767,147.767,0,0,0-3.8,22.392c-.9,11.306-1.268,22-1.268,22h18.039l1.048-12.042s4.612,7.821,5.591,8.559c2.593,1.954,21.588,2.525,21.588,2.525s3.031-4.421,1.159-8.839c0,0-12.665-4.067-16-4.771,0,0-4.449-10.827-6.546-16.368s-1.4-6.489-2.3-7.138-9.584-2.945-12.129-4.442-3.694-2.656-5.54-3.05Z" transform="translate(-309.306 -287.222)" fill="#556bbe"/>
          <g id="Group_1179346" data-name="Group 1179346" transform="translate(49.584 11.516)">
            <path id="Path_1003034" data-name="Path 1003034" d="M371.108,312.284s-1.479,6.39-5.626,8.234-6.747-.227-4.562-7.843c0-.008,0-.017.009-.025a2.535,2.535,0,0,0-.277-2.159,2.48,2.48,0,0,0-.761-.7l.844-.555,10.364-6.776a.013.013,0,0,1,.009,0,27.3,27.3,0,0,0,0,9.831Z" transform="translate(-352.37 -290.321)" fill="#fa9583"/>
            <path id="Path_1003035" data-name="Path 1003035" d="M371.935,302.453a25.261,25.261,0,0,0-.407,3.462c-.534,2.432-1.752,5.533-4.554,7.167-3.353,1.958-4.718,1.244-5.226-.407,0-.008,0-.017.009-.025a2.535,2.535,0,0,0-.277-2.159c0-.26,0-.534.009-.8a1.733,1.733,0,0,1,.076-.454c.937-3.1,10.066-6.663,10.364-6.776A.011.011,0,0,1,371.935,302.453Z" transform="translate(-353.196 -290.321)" fill="#d85555"/>
            <path id="Path_1003036" data-name="Path 1003036" d="M352.2,277.109s-.374,4.006-3.893,5.578c0,0,.786,8.423,2.284,11.268s3.706,4.343,7.45,2.7,6.844-3.4,7.031-7.409a3.481,3.481,0,0,0,2.777-3.111c.337-2.733-2.92-3.22-3.481-.636C363.015,282.013,355.453,285.158,352.2,277.109Z" transform="translate(-346.329 -277.109)" fill="#fa9583"/>
            <path id="Path_1003037" data-name="Path 1003037" d="M352.821,321.054s-1-.174-2.1,1.773-3.194,5.99-4.567,7.637a14.948,14.948,0,0,0-1.972,2.945,15.488,15.488,0,0,0,3.694,4.243s-3.644,3.494-3.694,3.993.725,13.273,5.528,19.564c0,0-.2-18.7.818-26.153s1.783-11.4,2.211-12.712A2,2,0,0,0,352.821,321.054Z" transform="translate(-344.178 -300.016)" fill="#768be4"/>
            <path id="Path_1003038" data-name="Path 1003038" d="M377.4,318.6s1.1-.02,1.5,1.428,3.557,9.6,3.893,10.332c.6,1.3.874,1.123-.125,2.945a8.674,8.674,0,0,1-3.319,2.97s2.146,2.446,2.845,3.145-5.267,16.284-9.622,22.822c0,0,.57-18.59,2.3-29.266S377.475,319.487,377.4,318.6Z" transform="translate(-358.979 -298.738)" fill="#768be4"/>
          </g>
          <g id="Group_1179347" data-name="Group 1179347" transform="translate(108.642 67.591)">
            <path id="Path_1003039" data-name="Path 1003039" d="M468.451,401.413a5.729,5.729,0,0,1-.626.9c-.067-.324-.118-.634-.159-.941a9.81,9.81,0,0,1,1.239-6.738c.143-.2.256-.3.3-.294.038.139.076.281.109.416A8.932,8.932,0,0,1,468.451,401.413Z" transform="translate(-467.554 -394.299)" fill="#3e549b"/>
            <path id="Path_1003040" data-name="Path 1003040" d="M485.841,400.583c-1.311.143-4.067.535-4.966.237a15.9,15.9,0,0,1-2.419-1.256l-2.5.529a2.96,2.96,0,0,0,1.774.77c1.088.076,2.188-.02,1.587.652s-2.913.943-4.745.754a13.431,13.431,0,0,1-3.262-.752l-2.853-.151-.786-.038a9.81,9.81,0,0,1,1.239-6.738l.412.122a31.683,31.683,0,0,0,3.353.836s4.063-1.029,5.558-1.252a7.185,7.185,0,0,1,4.42,1.084,26.628,26.628,0,0,1,3.818,4.068C487.024,400.418,487.152,400.436,485.841,400.583Z" transform="translate(-467.554 -394.252)" fill="#fc9e8b"/>
            <path id="Path_1003041" data-name="Path 1003041" d="M485.384,404.282s-2.24-1.307-4.013-.9,1.509,1.431,1.509,1.431Z" transform="translate(-474.482 -398.97)" fill="#d85555" opacity="0.58"/>
          </g>
          <g id="Group_1179348" data-name="Group 1179348" transform="translate(26.158 73.717)">
            <path id="Path_1003042" data-name="Path 1003042" d="M296.4,407.628a.58.58,0,1,1-.58-.58A.58.58,0,0,1,296.4,407.628Z" transform="translate(-295.24 -407.048)" fill="#768be4"/>
            <path id="Path_1003043" data-name="Path 1003043" d="M301.132,407.628a.58.58,0,1,1-.58-.58A.58.58,0,0,1,301.132,407.628Z" transform="translate(-297.707 -407.048)" fill="#768be4"/>
          </g>
          <g id="Group_1179350" data-name="Group 1179350" transform="translate(103.913 73.679)">
            <g id="Group_1179349" data-name="Group 1179349">
              <circle id="Ellipse_13838" data-name="Ellipse 13838" cx="0.58" cy="0.58" r="0.58" transform="translate(2.265 0.243)" fill="#768be4"/>
              <circle id="Ellipse_13839" data-name="Ellipse 13839" cx="0.58" cy="0.58" r="0.58" fill="#768be4"/>
            </g>
          </g>
          <g id="Group_1179352" data-name="Group 1179352" transform="translate(35.728 46.556)" opacity="0.75">
            <g id="Group_1179351" data-name="Group 1179351">
              <path id="Path_1003044" data-name="Path 1003044" d="M315.233,382.885s5.011,1.394,6.1,5.437c0,0-.135-5.886-5.31-7.536Z" transform="translate(-315.233 -366.197)" fill="#3e549b" opacity="0.75"/>
              <path id="Path_1003045" data-name="Path 1003045" d="M335.059,367.3a12.7,12.7,0,0,1-.639-7.606c.948-4.293,1.7-6.389,1.548-9.384a33.982,33.982,0,0,1-2.7,8.049A11.138,11.138,0,0,0,334.221,370Z" transform="translate(-324.007 -350.309)" fill="#3e549b" opacity="0.75"/>
              <path id="Path_1003046" data-name="Path 1003046" d="M433.343,381.123s-3.277.805-4.287,5.259c0,0-.591-5.3,3.448-7.31Z" transform="translate(-374.554 -365.303)" fill="#3e549b"/>
              <path id="Path_1003047" data-name="Path 1003047" d="M406.279,374.579a73.664,73.664,0,0,1-5.491-12.9s-.537,12.389,4.9,19.172Z" transform="translate(-359.826 -356.234)" fill="#3e549b" opacity="0.75"/>
            </g>
          </g>
          <g id="Group_1179353" data-name="Group 1179353" transform="translate(10.017 54.745)">
            <path id="Path_1003048" data-name="Path 1003048" d="M289.968,399.288c-.025.1-.055.193-.084.29a9.909,9.909,0,0,1-.487,1.3,4.88,4.88,0,0,1-.722-1.281c-.046-.118-.1-.239-.139-.374a8.166,8.166,0,0,1-.412-3.063,9.079,9.079,0,0,1,.462-2.727,3.313,3.313,0,0,1,.244-.538,1.435,1.435,0,0,1,.37-.479,4.743,4.743,0,0,1,.236.437c.067.139.147.311.227.508A9.3,9.3,0,0,1,289.968,399.288Z" transform="translate(-275.384 -380.448)" fill="#3e549b"/>
            <path id="Path_1003049" data-name="Path 1003049" d="M276.105,397.627l-1.433-.067-2.591-.379c-.823.891-3.517,2.475-4.244,2.168-.706-.294-2.626-.954-2.715-1,.046.1.606,1.39-.208,1.457a4.5,4.5,0,0,1-3.081-1.928c-.609-.987-.21-2.395.189-3.567s2.348-4.319,3.214-4.7a2.861,2.861,0,0,1,2.538-.139c.794.424,3.037,2.046,3.037,2.046l3.962-.273.193-.012.605-.042c.067.139.147.311.227.508A9.311,9.311,0,0,1,276.105,397.627Z" transform="translate(-261.521 -378.788)" fill="#fa9583"/>
            <path id="Path_1003050" data-name="Path 1003050" d="M271.927,396.648c-1.16-.9-1.193-.374-2.468-2.021-1.173-1.514-2.533.284-2.074,2.9-.442.067-1.778.356-1.747,1.4.037,1.254,1.74,2.039,1.74,2.039l1.405-.3-.029-1.087c1.029.1,2.214-1.224,2.214-1.224S273.088,397.546,271.927,396.648Z" transform="translate(-263.667 -381.313)" fill="#d85555" opacity="0.58"/>
            <path id="Path_1003051" data-name="Path 1003051" d="M269.963,385.926,272,368.069a.736.736,0,0,1,.844-.643h0a.736.736,0,0,1,.618.81l-2.052,17.994a1.69,1.69,0,0,1-.244.707l-.535.852a.181.181,0,0,1-.314-.067l-.3-1.132A1.793,1.793,0,0,1,269.963,385.926Z" transform="translate(-265.916 -367.416)" fill="#e05858"/>
            <path id="Path_1003052" data-name="Path 1003052" d="M273.436,402.066s-2.146.6-2.9.849-2.4-1-3.045-.424.236,1.72.47,2.277A4.07,4.07,0,0,0,271.137,406c.851-.265,3.279-1.266,3.937-2.123Z" transform="translate(-264.514 -385.48)" fill="#fa9583"/>
          </g>
          <g id="Group_1179354" data-name="Group 1179354" transform="translate(0 74.643)">
            <path id="Path_1003053" data-name="Path 1003053" d="M265.661,409.242s-1.581-.58-7.771,0c-6.27.588-15.736.424-15.736.424l-1.559,1.156h25.531Z" transform="translate(-240.595 -408.984)" fill="#d4d0e2"/>
            <path id="Path_1003054" data-name="Path 1003054" d="M292.448,409.242s1.581-.58,7.771,0c6.27.588,15.736.424,15.736.424l1.559,1.156h-25.07Z" transform="translate(-267.624 -408.984)" fill="#d4d0e2"/>
          </g>
          <g id="Group_1179357" data-name="Group 1179357" transform="translate(114.301 47.081)">
            <path id="Path_1003055" data-name="Path 1003055" d="M481.967,408.261l8.338-.2v1.929H479.374A2.915,2.915,0,0,1,481.967,408.261Z" transform="translate(-479.374 -380.941)" fill="#c64f4f"/>
            <g id="Group_1179356" data-name="Group 1179356" transform="translate(8.539)">
              <g id="Group_1179355" data-name="Group 1179355">
                <path id="Path_1003056" data-name="Path 1003056" d="M538.9,352.27l-.038.181L533.083,378.7a2.231,2.231,0,0,1-2.18,1.752H497.734a.522.522,0,0,1-.508-.634l5.747-26.131a2.908,2.908,0,0,1,2.84-2.285H538.2A.711.711,0,0,1,538.9,352.27Z" transform="translate(-497.213 -351.405)" fill="#c64f4f"/>
                <path id="Path_1003057" data-name="Path 1003057" d="M540.278,353.589,534.5,379.842a2.231,2.231,0,0,1-2.18,1.752H499.934l5.877-26.728a1.626,1.626,0,0,1,1.584-1.277h32.883Z" transform="translate(-498.632 -352.544)" fill="#f78d8d"/>
              </g>
              <path id="Path_1003058" data-name="Path 1003058" d="M543.6,382.26a3.1,3.1,0,0,1-2.956,2.444,2.027,2.027,0,0,1-1.8-2.663A3.1,3.1,0,0,1,541.8,379.6,2.027,2.027,0,0,1,543.6,382.26Z" transform="translate(-518.881 -366.1)" fill="#ffb8b8"/>
            </g>
          </g>
        </g>
        <g id="Group_1179367" data-name="Group 1179367" transform="translate(26.805 14.212)">
          <g id="Group_1179360" data-name="Group 1179360" transform="translate(59.598)">
            <path id="Path_1003059" data-name="Path 1003059" d="M317.323,154.066H254.449a3.95,3.95,0,0,1-3.95-3.95V115.289a3.95,3.95,0,0,1,3.95-3.95h62.874a3.95,3.95,0,0,1,3.95,3.95v34.827A3.95,3.95,0,0,1,317.323,154.066Z" transform="translate(-250.499 -111.339)" fill="#bbcdff"/>
            <path id="Path_1003060" data-name="Path 1003060" d="M267.8,124.478v27.9a1.647,1.647,0,0,0,1.647,1.647h42.178" transform="translate(-259.517 -118.189)" fill="none" stroke="#fff" stroke-linecap="round" stroke-miterlimit="10" stroke-width="2.188"/>
            <path id="Path_1003061" data-name="Path 1003061" d="M275.1,153.91s3.356-9.584,8.321-9.584,4.644,6.777,7.861,6.777c3.769,0,4.585-13.89,8.92-13.89s3.916,9.359,6.293,9.359,2.447-10.781,5.244-10.781" transform="translate(-263.322 -124.086)" fill="none" stroke="#6681d8" stroke-linecap="round" stroke-miterlimit="10" stroke-width="4.376"/>
            <path id="Path_1003062" data-name="Path 1003062" d="M356.5,133.672a1.947,1.947,0,1,1-1.947-1.947A1.947,1.947,0,0,1,356.5,133.672Z" transform="translate(-303.731 -121.966)" fill="none" stroke="#e05858" stroke-linecap="round" stroke-miterlimit="10" stroke-width="3.282"/>
            <g id="Group_1179359" data-name="Group 1179359" transform="translate(59.393 11.73)">
              <path id="Path_1003063" data-name="Path 1003063" d="M381.575,137.565h-6.14a.861.861,0,0,1-.861-.861h0a.861.861,0,0,1,.861-.861h6.14a.861.861,0,0,1,.861.861h0A.861.861,0,0,1,381.575,137.565Z" transform="translate(-374.574 -135.843)" fill="#fff"/>
              <path id="Path_1003064" data-name="Path 1003064" d="M381.575,149.713h-6.14a.861.861,0,0,1-.861-.861h0a.861.861,0,0,1,.861-.861h6.14a.861.861,0,0,1,.861.861h0A.861.861,0,0,1,381.575,149.713Z" transform="translate(-374.574 -142.176)" fill="#fff"/>
              <path id="Path_1003065" data-name="Path 1003065" d="M381.575,161.966h-6.14a.861.861,0,0,1-.861-.861h0a.861.861,0,0,1,.861-.861h6.14a.861.861,0,0,1,.861.861h0A.862.862,0,0,1,381.575,161.966Z" transform="translate(-374.574 -148.564)" fill="#fff"/>
              <path id="Path_1003066" data-name="Path 1003066" d="M381.575,174.218h-6.14a.861.861,0,0,1-.861-.861h0a.861.861,0,0,1,.861-.861h6.14a.861.861,0,0,1,.861.861h0A.862.862,0,0,1,381.575,174.218Z" transform="translate(-374.574 -154.951)" fill="#fff"/>
            </g>
          </g>
          <g id="Group_1179361" data-name="Group 1179361" transform="translate(0 36.411)">
            <path id="Path_1003067" data-name="Path 1003067" d="M162.161,224.485h0a1.646,1.646,0,0,1-2.327-.049l-7.782-8.119,2.376-2.278,7.782,8.119A1.646,1.646,0,0,1,162.161,224.485Z" transform="translate(-139.58 -201.289)" fill="#6681d8"/>
            <path id="Path_1003068" data-name="Path 1003068" d="M128.579,189.735a8.385,8.385,0,1,0,11.857.251A8.384,8.384,0,0,0,128.579,189.735Zm10.05,10.485a6.138,6.138,0,1,1,.184-8.678A6.141,6.141,0,0,1,138.629,200.22Z" transform="translate(-125.996 -187.404)" fill="#edf0f9"/>
            <path id="Path_1003069" data-name="Path 1003069" d="M142.641,203.214a6.137,6.137,0,1,1-10.934-5.349,6.14,6.14,0,0,0,10.934,5.349Z" transform="translate(-128.443 -192.857)" fill="#c1cee8"/>
          </g>
          <g id="Group_1179362" data-name="Group 1179362" transform="translate(208.544 23.514)">
            <path id="Path_1003070" data-name="Path 1003070" d="M588.814,186.177c-.08.13-.159.256-.244.382a14.64,14.64,0,1,1-12.276-22.615v14.637Z" transform="translate(-561.653 -162.277)" fill="#bbcdff"/>
            <path id="Path_1003071" data-name="Path 1003071" d="M609.076,177.293a16.776,16.776,0,0,1-2.44,8.735l-14.4-8.735V160.461A16.834,16.834,0,0,1,609.076,177.293Z" transform="translate(-577.598 -160.461)" fill="#e05858"/>
            <path id="Path_1003072" data-name="Path 1003072" d="M604.515,203.075a14.612,14.612,0,0,1-9.436,6.386l-2.84-13.835Z" transform="translate(-577.598 -178.793)" fill="#6681d8"/>
          </g>
          <g id="Group_1179366" data-name="Group 1179366" transform="translate(144.419 11.605)">
            <path id="Path_1003073" data-name="Path 1003073" d="M468.993,155.1H429.528a1.835,1.835,0,0,1-1.835-1.835V137.418a1.835,1.835,0,0,1,1.835-1.835h39.465a1.835,1.835,0,0,1,1.835,1.835v15.846A1.835,1.835,0,0,1,468.993,155.1Z" transform="translate(-427.693 -135.583)" fill="#6681d8"/>
            <g id="Group_1179363" data-name="Group 1179363" transform="translate(36.757 4.745)">
              <path id="Path_1003074" data-name="Path 1003074" d="M506.984,149.415h-2.162a.342.342,0,0,1-.342-.342v-3.235a.342.342,0,0,1,.342-.342h2.162a.342.342,0,0,1,.342.342v3.235A.342.342,0,0,1,506.984,149.415Z" transform="translate(-504.48 -145.495)" fill="#e05858"/>
              <path id="Path_1003075" data-name="Path 1003075" d="M506.984,162.478h-2.162a.342.342,0,0,1-.342-.342V158.9a.342.342,0,0,1,.342-.342h2.162a.342.342,0,0,1,.342.342v3.236A.342.342,0,0,1,506.984,162.478Z" transform="translate(-504.48 -152.305)" fill="#a1b5f7"/>
            </g>
            <g id="Group_1179364" data-name="Group 1179364" transform="translate(5.803 4.484)">
              <path id="Path_1003076" data-name="Path 1003076" d="M445.09,144.95a5.274,5.274,0,1,0,5.274,5.274A5.275,5.275,0,0,0,445.09,144.95Zm0,9.15a3.84,3.84,0,0,1-3.074-1.529,3.8,3.8,0,0,1-.8-2.347,3.873,3.873,0,1,1,3.875,3.876Z" transform="translate(-439.816 -144.95)" fill="#edf0f9"/>
              <path id="Path_1003077" data-name="Path 1003077" d="M451.539,150.225a5.275,5.275,0,0,1-9.469,3.2l1.121-.854a3.87,3.87,0,1,0,3.074-6.222v-1.4A5.275,5.275,0,0,1,451.539,150.225Z" transform="translate(-440.992 -144.951)" fill="#e05858"/>
            </g>
            <g id="Group_1179365" data-name="Group 1179365" transform="translate(20.017 4.484)">
              <path id="Path_1003078" data-name="Path 1003078" d="M474.784,144.95h-.005a5.276,5.276,0,1,0,.005,0Zm2.639,8.1a3.831,3.831,0,0,1-2.639,1.047,3.875,3.875,0,0,1-.005-7.751h.005a3.872,3.872,0,0,1,2.64,6.7Z" transform="translate(-469.51 -144.95)" fill="#edf0f9"/>
              <path id="Path_1003079" data-name="Path 1003079" d="M485.795,150.225a5.243,5.243,0,0,1-1.676,3.85l-.958-1.021a3.872,3.872,0,0,0-2.639-6.7h-.005v-1.4h.005A5.274,5.274,0,0,1,485.795,150.225Z" transform="translate(-475.248 -144.951)" fill="#e05858"/>
            </g>
          </g>
        </g>
      </g>
    </g>
  </g>
</svg>
