<svg xmlns="http://www.w3.org/2000/svg" width="100" height="100" viewBox="0 0 100 100">
  <g id="img10" transform="translate(-383.746 -8400)">
    <circle id="Ellipse_13609" data-name="Ellipse 13609" cx="50" cy="50" r="50" transform="translate(383.746 8400)" fill="#beb1a1"/>
    <g id="Human_Resource" data-name="Human Resource" transform="translate(401.194 8417.396)">
      <path id="Path_1002919" data-name="Path 1002919" d="M32.094,12.98A4.456,4.456,0,1,1,36.55,8.525a4.456,4.456,0,0,1-4.456,4.456Zm0-6.868a2.412,2.412,0,1,0,2.412,2.412,2.412,2.412,0,0,0-2.412-2.412Z" transform="translate(0.458 0)" fill="#593609"/>
      <path id="Path_1002920" data-name="Path 1002920" d="M42.082,14.878a3.866,3.866,0,1,1,3.866-3.866A3.866,3.866,0,0,1,42.082,14.878Zm0-5.689A1.823,1.823,0,1,0,43.9,11.012,1.823,1.823,0,0,0,42.082,9.19Z" transform="translate(0.686 0.066)" fill="#593609"/>
      <path id="Path_1002921" data-name="Path 1002921" d="M22.082,14.878a3.866,3.866,0,1,1,3.866-3.866,3.866,3.866,0,0,1-3.866,3.866Zm0-5.689A1.823,1.823,0,1,0,23.9,11.012,1.823,1.823,0,0,0,22.082,9.19Z" transform="translate(0.254 0.066)" fill="#593609"/>
      <path id="Path_1002922" data-name="Path 1002922" d="M45.683,15.85H39.422a2.439,2.439,0,0,0-.655.1,2.865,2.865,0,0,0-2.652-1.863H28.557a2.865,2.865,0,0,0-2.652,1.862,2.442,2.442,0,0,0-.655-.1H18.989a2.592,2.592,0,0,0-2.546,2.63V25c0,.9.661,1.395,1.33,2.1v8.659a1.764,1.764,0,0,0,1.742,1.782h5.209a1.764,1.764,0,0,0,1.742-1.782V27.1l.289-.3.546.576V37.913a1.918,1.918,0,0,0,1.892,1.94H35.48a1.919,1.919,0,0,0,1.892-1.94V27.375l.546-.576.289.305v8.659a1.764,1.764,0,0,0,1.742,1.782h5.209A1.764,1.764,0,0,0,46.9,35.763V27.1c.669-.707,1.33-1.2,1.33-2.1V18.48A2.592,2.592,0,0,0,45.683,15.85ZM24.423,26.988V35.5H19.817V26.988c0-.9-.662-1.4-1.33-2.1V18.48a.55.55,0,0,1,.5-.587h6.261a.5.5,0,0,1,.445.332v6.7l0,.022C25.055,25.623,24.423,26.089,24.423,26.988Zm10.9.332V37.809H29.344V27.32c0-1.039-.837-1.642-1.605-2.453V17.048a.875.875,0,0,1,.818-.92h7.558a.875.875,0,0,1,.818.92v7.819C36.165,25.678,35.328,26.282,35.328,27.32Zm10.857-2.434c-.668.705-1.33,1.2-1.33,2.1V35.5H40.249V26.988c0-.9-.632-1.365-1.275-2.043l0-.022v-6.7a.5.5,0,0,1,.445-.333h6.261a.55.55,0,0,1,.5.587Z" transform="translate(0.216 0.216)" fill="#593609"/>
      <path id="Path_1002923" data-name="Path 1002923" d="M57.115,25.3a1.7,1.7,0,0,0-2.421-1.2,6.99,6.99,0,0,0-3.672,8.681,1.324,1.324,0,0,1-.021.942L50.128,35.8a3.465,3.465,0,0,0-1.883.888L44.576,40.1a.665.665,0,0,1-.424.178,8.542,8.542,0,0,0-7.7,5.77,4.018,4.018,0,0,0-.26,1.407l-.029,5.5h-.678a1.022,1.022,0,0,0-1.022,1.022v5.711a1.022,1.022,0,0,0,1.022,1.022H49.3a1.022,1.022,0,0,0,1.022-1.022V53.976A1.022,1.022,0,0,0,49.3,52.954h-.963a1.3,1.3,0,0,1,.382-.807l7.45-7.17a4.724,4.724,0,0,0,1.4-2.775,53.586,53.586,0,0,0-.462-16.9ZM48.282,58.665H36.505V55H48.282Zm7.269-16.729a2.671,2.671,0,0,1-.8,1.569l-7.45,7.17a3.33,3.33,0,0,0-1.025,2.279H38.2V47.239a6.567,6.567,0,0,1,6.043-4.923,2.714,2.714,0,0,0,1.722-.723l3.669-3.412a1.45,1.45,0,0,1,1.565-.26c.578.243.365,1.135-.052,1.6l-4.578,5.069a1.022,1.022,0,1,0,1.516,1.37l4.578-5.069c1.25-1.384,1.377-3.76-.467-4.744l.683-1.618a3.368,3.368,0,0,0,.073-2.394,4.915,4.915,0,0,1,2.238-5.974,51.555,51.555,0,0,1,.357,15.778Z" transform="translate(0.605 0.429)" fill="#593609"/>
      <path id="Path_1002924" data-name="Path 1002924" d="M6.922,42.2a4.724,4.724,0,0,0,1.4,2.775l7.45,7.17a1.3,1.3,0,0,1,.382.807h-.963a1.022,1.022,0,0,0-1.022,1.022v5.711a1.022,1.022,0,0,0,1.022,1.022h13.82a1.022,1.022,0,0,0,1.022-1.022V53.976a1.022,1.022,0,0,0-1.022-1.022h-.679l-.029-5.5a4.018,4.018,0,0,0-.26-1.407,8.542,8.542,0,0,0-7.7-5.77.665.665,0,0,1-.424-.178l-3.669-3.412a3.465,3.465,0,0,0-1.883-.888L13.5,33.731a1.324,1.324,0,0,1-.021-.942A6.99,6.99,0,0,0,9.8,24.108a1.7,1.7,0,0,0-2.421,1.2,53.581,53.581,0,0,0-.462,16.9ZM16.216,55H27.993v3.668H16.216ZM9.3,26.158a4.916,4.916,0,0,1,2.238,5.974,3.368,3.368,0,0,0,.073,2.394l.683,1.618c-1.844.984-1.717,3.36-.467,4.744l4.578,5.069a1.022,1.022,0,1,0,1.516-1.37l-4.578-5.069c-.417-.462-.63-1.354-.052-1.6a1.45,1.45,0,0,1,1.565.26c3.865,3.594,4.106,4.077,5.391,4.135A6.568,6.568,0,0,1,26.3,47.239v5.715H18.218a3.33,3.33,0,0,0-1.025-2.279L9.742,43.5a2.671,2.671,0,0,1-.8-1.569A51.555,51.555,0,0,1,9.3,26.158Z" transform="translate(0 0.429)" fill="#593609"/>
    </g>
  </g>
</svg>
