<svg xmlns="http://www.w3.org/2000/svg" xmlns:xlink="http://www.w3.org/1999/xlink" width="129" height="127" viewBox="0 0 129 127">
  <defs>
    <clipPath id="clip-path">
      <rect id="Rectangle_454807" data-name="Rectangle 454807" width="129" height="127" transform="translate(399.059 5904)" fill="#ffdc6b"/>
    </clipPath>
  </defs>
  <g id="img19" transform="translate(-399.059 -5904)">
    <rect id="Rectangle_454806" data-name="Rectangle 454806" width="129" height="127" transform="translate(399.059 5904)" fill="#ff9a1a"/>
    <path id="Rectangle_454808" data-name="Rectangle 454808" d="M0,0H79A12,12,0,0,1,91,12V91a0,0,0,0,1,0,0H12A12,12,0,0,1,0,79V0A0,0,0,0,1,0,0Z" transform="translate(418.059 5922)" fill="#fff"/>
    <g id="Group_1181240" data-name="Group 1181240" transform="translate(429.769 5933.71)">
      <path id="Path_1007926" data-name="Path 1007926" d="M136.007,132.584a8.219,8.219,0,0,0-15.185-6.234,9.068,9.068,0,0,0-4.088,0,8.217,8.217,0,0,0-15.184,6.23,11.3,11.3,0,0,0-3.638,8.332v3.909a4.494,4.494,0,0,0,4.487,4.491h3.645V152.2a4.917,4.917,0,0,0,4.91,4.913H112.7a1.331,1.331,0,1,0,0-2.662h-1.747a2.252,2.252,0,0,1-2.247-2.251v-4.427a9.994,9.994,0,0,1,2.818-6.974,9.123,9.123,0,0,0,14.508,0,9.994,9.994,0,0,1,2.819,6.974V152.2a2.254,2.254,0,0,1-2.251,2.251h-1.732a1.331,1.331,0,0,0,0,2.662H126.6a4.919,4.919,0,0,0,4.913-4.913v-2.888h3.641a4.5,4.5,0,0,0,4.491-4.491v-3.909a11.3,11.3,0,0,0-3.639-8.329Zm-29.913,14.065v0H102.4a1.829,1.829,0,0,1-1.825-1.829v-3.909a8.649,8.649,0,0,1,2.32-5.912,8.2,8.2,0,0,0,6.409,3.085q.391,0,.778-.037c.036.112.073.224.113.334A12.645,12.645,0,0,0,106.094,146.649Zm3.548-11.395c0,.053,0,.106,0,.159-.114.007-.228.011-.343.011a5.557,5.557,0,1,1,4.943-8.1,9.14,9.14,0,0,0-4.6,7.928Zm9.137,6.474a6.475,6.475,0,1,1,6.475-6.474A6.482,6.482,0,0,1,118.779,141.728Zm4.531-14.4a5.557,5.557,0,1,1,4.941,8.1c-.114,0-.227,0-.339-.011,0-.053,0-.106,0-.159A9.141,9.141,0,0,0,123.31,127.325Zm13.673,17.5a1.831,1.831,0,0,1-1.829,1.829h-3.69a12.644,12.644,0,0,0-4.1-8.267c.04-.11.077-.222.113-.334q.384.037.774.037A8.206,8.206,0,0,0,134.662,135a8.647,8.647,0,0,1,2.321,5.911Z" transform="translate(-84.989 -105.591)" fill="#55534d"/>
      <path id="Path_1007927" data-name="Path 1007927" d="M247.263,370.181h0a1.331,1.331,0,1,0,1.335,1.331A1.329,1.329,0,0,0,247.259,370.181Z" transform="translate(-213.469 -321.32)" fill="#55534d"/>
      <path id="Path_1007928" data-name="Path 1007928" d="M62.828,26.546h-2.1a27.671,27.671,0,0,0-2.77-6.7l1.5-1.5a4.759,4.759,0,0,0,0-6.717L55.925,8.107a4.756,4.756,0,0,0-6.712,0l-1.5,1.5a27.655,27.655,0,0,0-6.773-2.793V4.748A4.753,4.753,0,0,0,36.19,0H31.2A4.754,4.754,0,0,0,26.45,4.748V6.871A27.591,27.591,0,0,0,19.8,9.656l-1.48-1.48a4.754,4.754,0,0,0-6.716,0L8.073,11.7a4.755,4.755,0,0,0,0,6.716l1.516,1.516a27.562,27.562,0,0,0-2.72,6.609H4.748A4.754,4.754,0,0,0,0,31.294v4.991a4.754,4.754,0,0,0,4.748,4.748H6.883A27.592,27.592,0,0,0,9.64,47.68l-1.5,1.5a4.759,4.759,0,0,0,0,6.716l3.528,3.528a4.76,4.76,0,0,0,6.716,0l1.5-1.5a27.629,27.629,0,0,0,6.661,2.762v2.142a4.756,4.756,0,0,0,4.748,4.752h4.991a4.756,4.756,0,0,0,4.748-4.752V60.691a27.635,27.635,0,0,0,6.678-2.766l1.5,1.5a4.757,4.757,0,0,0,6.712,0l3.534-3.53a4.759,4.759,0,0,0,0-6.715l-1.5-1.5a27.671,27.671,0,0,0,2.758-6.646h2.111a4.756,4.756,0,0,0,4.752-4.748V31.294a4.755,4.755,0,0,0-4.752-4.748Zm2.09,9.74a2.09,2.09,0,0,1-2.09,2.086H59.676a1.331,1.331,0,0,0-1.3,1.035,25.039,25.039,0,0,1-3.224,7.77,1.331,1.331,0,0,0,.186,1.65l2.234,2.235a2.092,2.092,0,0,1,0,2.951l-3.533,3.529a2.094,2.094,0,0,1-2.949,0l-2.238-2.235a1.331,1.331,0,0,0-1.65-.185,24.994,24.994,0,0,1-7.8,3.23,1.331,1.331,0,0,0-1.036,1.3v3.179a2.09,2.09,0,0,1-2.086,2.09H31.294a2.09,2.09,0,0,1-2.086-2.09V59.645a1.331,1.331,0,0,0-1.036-1.3,25,25,0,0,1-7.784-3.227,1.331,1.331,0,0,0-1.65.185L16.5,57.541a2.1,2.1,0,0,1-2.952,0l-3.527-3.527a2.093,2.093,0,0,1,0-2.953l2.235-2.235a1.331,1.331,0,0,0,.185-1.651,24.954,24.954,0,0,1-3.223-7.769,1.331,1.331,0,0,0-1.3-1.035H4.748a2.088,2.088,0,0,1-2.086-2.086V31.295a2.088,2.088,0,0,1,2.086-2.086H7.912a1.331,1.331,0,0,0,1.3-1.038,24.929,24.929,0,0,1,3.183-7.735,1.331,1.331,0,0,0-.188-1.646l-2.25-2.25a2.089,2.089,0,0,1,0-2.951l3.534-3.53a2.091,2.091,0,0,1,2.95,0l2.219,2.219a1.331,1.331,0,0,0,1.655.182,24.962,24.962,0,0,1,7.769-3.255,1.331,1.331,0,0,0,1.03-1.3V4.748A2.088,2.088,0,0,1,31.2,2.662H36.19a2.088,2.088,0,0,1,2.086,2.086v3.11a1.331,1.331,0,0,0,1.041,1.3,25.026,25.026,0,0,1,7.89,3.252,1.331,1.331,0,0,0,1.649-.185L51.1,9.99a2.094,2.094,0,0,1,2.948,0l3.53,3.527a2.092,2.092,0,0,1,0,2.953L55.341,18.7a1.331,1.331,0,0,0-.185,1.65,25.039,25.039,0,0,1,3.234,7.817,1.331,1.331,0,0,0,1.3,1.037h3.14a2.09,2.09,0,0,1,2.09,2.086v4.991Z" fill="#55534d"/>
    </g>
  </g>
</svg>
