<svg xmlns="http://www.w3.org/2000/svg" xmlns:xlink="http://www.w3.org/1999/xlink" width="129" height="127" viewBox="0 0 129 127">
  <defs>
    <clipPath id="clip-path">
      <rect id="Rectangle_454807" data-name="Rectangle 454807" width="129" height="127" transform="translate(399.059 5904)" fill="#ffdc6b"/>
    </clipPath>
  </defs>
  <g id="img18" transform="translate(-399.059 -5904)">
    <rect id="Rectangle_454806" data-name="Rectangle 454806" width="129" height="127" transform="translate(399.059 5904)" fill="#ff9a1a"/>
    <path id="Rectangle_454808" data-name="Rectangle 454808" d="M0,0H79A12,12,0,0,1,91,12V91a0,0,0,0,1,0,0H12A12,12,0,0,1,0,79V0A0,0,0,0,1,0,0Z" transform="translate(418.059 5922)" fill="#fff"/>
    <g id="Group_1181239" data-name="Group 1181239" transform="translate(430.629 5934.569)">
      <g id="Group_1181238" data-name="Group 1181238" transform="translate(0)">
        <path id="Path_1007917" data-name="Path 1007917" d="M65.86,13.809A13.809,13.809,0,1,0,44.7,25.494H37.094L36.032,12.747h-2.04V9.56a7.436,7.436,0,1,0-14.871,0v3.187h-2.04L16.019,25.494H13.467l-.576-7.674a3.2,3.2,0,0,0-3.178-2.948H3.187a3.187,3.187,0,1,0,0,6.373h7.831l2.3,30.718a7.434,7.434,0,1,0,11.033,7.523H35.131a7.436,7.436,0,1,0,0-2.124H24.355a7.43,7.43,0,0,0-8.962-6.2l-.173-2.3h34.05l.294.587a2.781,2.781,0,0,0,4.975,0L61.2,36.117H56.3V26.949a13.834,13.834,0,0,0,9.56-13.14ZM3.187,19.121a1.062,1.062,0,1,1,0-2.124H9.714a1.067,1.067,0,0,1,1.059.983l.086,1.142Zm39.3,33.992a5.311,5.311,0,1,1-5.311,5.311A5.317,5.317,0,0,1,42.49,53.113ZM22.307,58.424A5.311,5.311,0,1,1,17,53.113a5.317,5.317,0,0,1,5.311,5.311ZM40.366,13.809A11.685,11.685,0,1,1,52.051,25.494,11.7,11.7,0,0,1,40.366,13.809Zm3.593,24.432H40.366V31.868H47.8v4.249H42.9ZM13.945,31.868h7.3v6.373H14.423Zm9.425,0h6.373v6.373H23.37Zm6.374,8.5v6.373H23.37V40.366Zm2.124,0h6.373v6.373H31.868Zm0-2.124V31.868h6.373v6.373ZM21.245,9.56a5.311,5.311,0,0,1,10.622,0v3.187H21.245V9.56Zm-2.209,5.311H34.077l.885,10.623H18.151ZM47.8,27.619v2.124H13.786l-.159-2.124ZM14.582,40.366h6.663v6.373H15.06Zm25.783,6.374V40.366H45.02l3.187,6.373Zm17.4-8.5L52.638,48.5a.657.657,0,0,1-1.175,0l-5.13-10.26h3.593V27.455a13.885,13.885,0,0,0,4.249,0V38.241Z" transform="translate(0 0)" fill="#55534d"/>
        <path id="Path_1007918" data-name="Path 1007918" d="M369.728,52.153V50.028a4.249,4.249,0,0,0,0-8.5H367.6a2.124,2.124,0,0,1,0-4.249h2.124a2.127,2.127,0,0,1,2.125,2.124h2.124a4.254,4.254,0,0,0-4.249-4.249V33.032H367.6v2.124a4.249,4.249,0,0,0,0,8.5h2.124a2.124,2.124,0,1,1,0,4.249H367.6a2.127,2.127,0,0,1-2.124-2.124h-2.125a4.254,4.254,0,0,0,4.249,4.249v2.125h2.124Z" transform="translate(-316.616 -28.783)" fill="#55534d"/>
        <path id="Path_1007919" data-name="Path 1007919" d="M110.542,435.793a3.187,3.187,0,1,0-3.187-3.187A3.19,3.19,0,0,0,110.542,435.793Zm0-4.249a1.062,1.062,0,1,1-1.062,1.062A1.064,1.064,0,0,1,110.542,431.544Z" transform="translate(-93.546 -374.183)" fill="#55534d"/>
        <path id="Path_1007920" data-name="Path 1007920" d="M308.736,435.793a3.187,3.187,0,1,0-3.187-3.187A3.19,3.19,0,0,0,308.736,435.793Zm0-4.249a1.062,1.062,0,1,1-1.062,1.062A1.064,1.064,0,0,1,308.736,431.544Z" transform="translate(-266.245 -374.183)" fill="#55534d"/>
        <path id="Path_1007921" data-name="Path 1007921" d="M0,214.71H9.56v2.124H0Z" transform="translate(0 -187.091)" fill="#55534d"/>
        <path id="Path_1007922" data-name="Path 1007922" d="M16.516,247.742h7.436v2.125H16.516Z" transform="translate(-14.392 -215.874)" fill="#55534d"/>
        <path id="Path_1007923" data-name="Path 1007923" d="M0,280.774H10.623V282.9H0Z" transform="translate(0 -244.657)" fill="#55534d"/>
        <path id="Path_1007924" data-name="Path 1007924" d="M16.516,313.806h7.436v2.125H16.516Z" transform="translate(-14.392 -273.44)" fill="#55534d"/>
        <path id="Path_1007925" data-name="Path 1007925" d="M0,346.839H10.623v2.125H0Z" transform="translate(0 -302.224)" fill="#55534d"/>
      </g>
    </g>
  </g>
</svg>
