<svg xmlns="http://www.w3.org/2000/svg" width="70" height="70" viewBox="0 0 70 70">
  <g id="img11" transform="translate(-209.711 -1798)">
    <rect id="Rectangle_455559" data-name="Rectangle 455559" width="70" height="70" rx="10" transform="translate(209.711 1798)" fill="#ff9a1a"/>
    <g id="Group_1181202" data-name="Group 1181202" transform="translate(218.964 1804.703)">
      <g id="Group_1181201" data-name="Group 1181201" transform="translate(3.25 7.416)">
        <path id="Path_1007663" data-name="Path 1007663" d="M77.464,60.508s1.53,2.955,0,3.746-1.319-.475-2.638-.686-2.11-1.688-1.477-2.533S76.883,58.9,77.464,60.508Z" transform="translate(-69.088 -57.961)" fill="#43cb8e"/>
        <path id="Path_1007664" data-name="Path 1007664" d="M36.961,198.544s1.53,2.955,0,3.746-1.319-.475-2.638-.686-2.11-1.688-1.477-2.533S36.38,196.938,36.961,198.544Z" transform="translate(-32.623 -182.236)" fill="#43cb8e"/>
        <path id="Path_1007665" data-name="Path 1007665" d="M79.641,161.7c-1-1.055-.422-2.48.188-3.43s-.557-1.108-.082-2.216-1.266-1.425-1.266-1.425c-2.163-.528-2.216,2.533-1.319,4.116s-.844,2.216-.615,4.255-5.611,3.238-2.509,4.293,6.051-1.293,5.972-2.849C79.978,163.812,80.644,162.759,79.641,161.7Z" transform="translate(-69.089 -143.338)" fill="#43cb8e"/>
        <path id="Path_1007666" data-name="Path 1007666" d="M196.319,57.858c1.126,1.407,2.04,2.744,3.588,2.251s.422-2.392.141-5.206,1.477-2.533,1.829-3.94,1.759-2.955,3.025-1.2a2.377,2.377,0,0,1,.142,2.171,7.828,7.828,0,0,1,5-3.285c-.077-.054-.155-.111-.235-.171-1.9-1.425.844-1.847,1.372-3.271s-1.847-2.585-1.847-2.585-1.583-1.583-6.12-.158-6.121,6.736-6.261,8.143-3.518,3.588-3.766,5.487S195.193,56.451,196.319,57.858Z" transform="translate(-177.162 -41.874)" fill="#43cb8e"/>
      </g>
      <path id="Path_1007667" data-name="Path 1007667" d="M200.129,52.678c.141-1.407,1.724-6.718,6.261-8.143a9.427,9.427,0,0,1,4.64-.48,4.687,4.687,0,0,0-1.7-1.427s-1.583-1.583-6.121-.158-6.12,6.736-6.261,8.143-3.518,3.588-3.766,5.487,2.007.352,3.133,1.759l.083.1C196.847,56.113,199.994,54.036,200.129,52.678Z" transform="translate(-173.912 -34.459)" fill="#00ba66"/>
      <path id="Path_1007668" data-name="Path 1007668" d="M55.638,11.321h-3.31A1.481,1.481,0,0,0,50.853,13c.285,2-1.969,3.428-3.225,4.391-1.534,1.176-.54,2.947-1.151,3.872a7.883,7.883,0,0,1,1.449,14.711,1.217,1.217,0,0,0-.528.494l-2.5,4.423a.492.492,0,0,1-.857,0l-2.5-4.423a1.219,1.219,0,0,0-.528-.495,7.913,7.913,0,0,1-2.479-1.9,2.318,2.318,0,0,1-1.01.357c-2.6.352-1.97,2.392-5.181,1.759s-3.12,1.126-6.778,1.126-3.588,3.869-7.105,4.573-1.9,2.6-1.266,3.729.07,4.643-4.5,3.1-2.884.141-4.221,3.447-1.055,3.869,0,5.558,2.181,1.407,5.628.422,1.97-1.126,3.869-4.291,2.744-.563,5.769-2.533,1.829.633,5.085,2.533.684,5.136,2.864,4.573,1.583-4.362,1.583-4.362c-.528-2.005-5.8-4.327-4.115-5.8s2.955,1.372,5.909,3.482,2.427,6.754,3.482,7.914,3.482.106,2.533-1.583S40.98,54.586,43.618,53s1.477-6.332,3.482-6.216,3.9-2.754,6.49-1.277a15.369,15.369,0,0,0,1.449.738,1.488,1.488,0,0,0,2.086-1.362V12.808a1.487,1.487,0,0,0-1.487-1.487Z" transform="translate(-6.825 -6.951)" fill="#43cb8e"/>
      <path id="Path_1007669" data-name="Path 1007669" d="M402.169,24.282l1.428-1.36c.61-.925-.384-2.7,1.151-3.872,1.256-.963,3.51-2.392,3.225-4.391a1.454,1.454,0,0,1,.448-1.267v-.584a1.487,1.487,0,0,0-1.487-1.487h-3.31A1.481,1.481,0,0,0,402.148,13c.285,2-1.969,3.428-3.225,4.391-1.534,1.176-.541,2.947-1.151,3.872A7.9,7.9,0,0,1,402.169,24.282Z" transform="translate(-358.12 -6.951)" fill="#00ba66"/>
      <path id="Path_1007670" data-name="Path 1007670" d="M14.3,259.3c1.337-3.306-.352-4.995,4.221-3.447s5.136-1.97,4.5-3.1-2.251-3.025,1.266-3.729,3.447-4.573,7.105-4.573,3.567-1.759,6.778-1.126c2.255.445,2.615-.428,3.53-1.11l-.156-.276a1.219,1.219,0,0,0-.528-.495,7.912,7.912,0,0,1-2.479-1.9,2.318,2.318,0,0,1-1.01.357c-2.6.352-1.97,2.392-5.181,1.759s-3.12,1.126-6.778,1.126-3.588,3.869-7.105,4.573-1.9,2.6-1.266,3.729.07,4.643-4.5,3.1-2.884.141-4.221,3.447-1.055,3.869,0,5.558c1.009,1.615,2.084,1.427,5.191.546-.462-1.026-.37-1.962.633-4.442Z" transform="translate(-6.825 -212.43)" fill="#00ba66"/>
      <path id="Path_1007671" data-name="Path 1007671" d="M305.954,107.925a7.922,7.922,0,0,0-3.283,15.042,1.224,1.224,0,0,1,.531.5l2.508,4.445a.494.494,0,0,0,.861,0l2.508-4.445a1.222,1.222,0,0,1,.53-.5,7.922,7.922,0,0,0-3.655-15.042Z" transform="translate(-268.491 -93.922)" fill="#ff8188"/>
      <path id="Path_1007672" data-name="Path 1007672" d="M306.62,123.464a1.224,1.224,0,0,0-.531-.5,7.925,7.925,0,0,1,1.752-14.859,7.922,7.922,0,0,0-5.17,14.859,1.224,1.224,0,0,1,.531.5l2.508,4.445a.494.494,0,0,0,.861,0l1.279-2.266Z" transform="translate(-268.491 -93.922)" fill="#ff656f"/>
      <circle id="Ellipse_13902" data-name="Ellipse 13902" cx="4.504" cy="4.504" r="4.504" transform="translate(31.466 20.455) rotate(-31.72)" fill="#ff656f"/>
      <path id="Path_1007673" data-name="Path 1007673" d="M335.923,146.712a4.5,4.5,0,0,1,2.795-4.167,4.5,4.5,0,1,0,0,8.335A4.5,4.5,0,0,1,335.923,146.712Z" transform="translate(-299.359 -124.789)" fill="#ff4756"/>
      <path id="Path_1007674" data-name="Path 1007674" d="M325.1,140.048a5.229,5.229,0,1,0,5.229-5.229A5.235,5.235,0,0,0,325.1,140.048Zm8.963,0a3.734,3.734,0,1,1-3.734-3.734A3.738,3.738,0,0,1,334.067,140.048Z" transform="translate(-292.696 -118.137)"/>
      <path id="Path_1007675" data-name="Path 1007675" d="M71.258,53.24a1.856,1.856,0,0,0-1.529-1.184,4.952,4.952,0,0,0-3.87,1.563,2.017,2.017,0,0,0-.2,2.009,2.851,2.851,0,0,0,2.154,1.711c.838.134,1.174,1.608,3.1.612.549-.284,1.4-1.052.959-3A8.314,8.314,0,0,0,71.258,53.24Zm-1.029,3.383c-.377.195-.5.174-.5.173a1.347,1.347,0,0,1-.235-.187,2.646,2.646,0,0,0-1.443-.746,1.346,1.346,0,0,1-1-.795.6.6,0,0,1,.007-.551c.425-.567,2.549-1.456,2.814-.722a7.571,7.571,0,0,1,.548,1.489C70.533,55.79,70.594,56.434,70.229,56.623Z" transform="translate(-58.959 -43.599)"/>
      <path id="Path_1007676" data-name="Path 1007676" d="M25.351,191.72c-1,1.333.125,3.426,1.957,3.72.838.134,1.174,1.608,3.1.612.549-.284,1.4-1.052.959-3a8.311,8.311,0,0,0-.617-1.71C29.867,189.064,26.273,190.491,25.351,191.72Zm4.05.265a6.883,6.883,0,0,1,.509,1.4c.116.507.177,1.15-.188,1.339s-.5.173-.5.173a1.339,1.339,0,0,1-.235-.187,2.646,2.646,0,0,0-1.443-.746,1.346,1.346,0,0,1-1-.795.6.6,0,0,1,.006-.551A3.588,3.588,0,0,1,29,191.635C29.339,191.686,29.333,191.852,29.4,191.984Z" transform="translate(-22.49 -167.938)"/>
      <path id="Path_1007677" data-name="Path 1007677" d="M73.518,148.022a2.648,2.648,0,0,0-1.766-1.1,2.011,2.011,0,0,0-2.213.7c-.872,1.153-.633,3.241.087,4.513.276.486.184.724-.148,1.4a4.362,4.362,0,0,0-.56,2.567c.053.474-1.06,1.2-1.725,1.628-.964.626-1.8,1.166-1.691,2.022.1.822,1.052,1.145,1.409,1.267a5.806,5.806,0,0,0,5.37-.888,3.441,3.441,0,0,0,1.59-2.707,3.31,3.31,0,0,0-.573-3.221c-.659-.694-.215-1.748.275-2.511a1.612,1.612,0,0,0,.036-1.811c-.131-.249-.155-.294-.06-.514a1.5,1.5,0,0,0-.031-1.348Zm-1.14,9.48a2.127,2.127,0,0,1-1,1.437,4.356,4.356,0,0,1-3.987.666c-.073-.025-.135-.048-.189-.07.227-.175.556-.389.8-.549,1.138-.738,2.553-1.657,2.4-3.049a2.92,2.92,0,0,1,.417-1.744,2.666,2.666,0,0,0,.105-2.8,3.213,3.213,0,0,1-.2-2.874c.193-.255.448-.188.73-.137a1.519,1.519,0,0,1,.733.334,1.922,1.922,0,0,0,.091,1.86,1.534,1.534,0,0,1,.09.188c-.045.157-1.923,2.614-.161,4.468C72.917,155.975,72.336,156.677,72.378,157.5Z" transform="translate(-58.967 -128.96)"/>
      <path id="Path_1007678" data-name="Path 1007678" d="M391.038,202.845a.748.748,0,0,0-.748.748v13.7a.739.739,0,0,1-1.038.677,14.724,14.724,0,0,1-1.378-.7c-1.931-1.1-3.553-.232-4.857.468a4.218,4.218,0,0,1-1.961.711c-1.61-.1-1.967,1.585-2.251,2.933-.088.416-.178.845-.3,1.261a.748.748,0,1,0,1.438.411c.133-.466.23-.922.323-1.363a7.261,7.261,0,0,1,.416-1.505c.126-.253.193-.249.286-.244a5.293,5.293,0,0,0,2.755-.887c1.178-.633,2.2-1.18,3.407-.487a16.289,16.289,0,0,0,1.52.774,2.236,2.236,0,0,0,3.134-2.047v-13.7A.748.748,0,0,0,391.038,202.845Z" transform="translate(-340.75 -179.381)"/>
      <path id="Path_1007679" data-name="Path 1007679" d="M48.8,3.6h-3.31A2.23,2.23,0,0,0,43.276,6.13c.193,1.357-1.377,2.526-2.523,3.379-.147.109-.287.214-.417.313a3.411,3.411,0,0,0-1.216,3.1c0,.166,0,.333-.005.485a8.71,8.71,0,0,0-2.81-.023,1.581,1.581,0,0,1-.31-.293,4.2,4.2,0,0,1,.568-.494,3.872,3.872,0,0,0,1.395-1.605c.585-1.581-1.02-2.9-2.127-3.47-.482-.4-2.414-1.613-6.765-.246a9.348,9.348,0,0,0-5.2,4.415,12.251,12.251,0,0,0-1.58,4.367c-.041.406-.833,1.254-1.47,1.935-1.047,1.121-2.13,2.28-2.294,3.53a1.683,1.683,0,0,0,.308,1.375,2.049,2.049,0,0,0,1.63.539c1.128.035,1.173.182,1.581.7,1.048,1.322,2.236,2.823,4.169,2.208a1.78,1.78,0,0,0,1.311-1.657c.087-1.083-.471-2.508-.653-4.336a2.023,2.023,0,0,1,.774-2.183,2.86,2.86,0,0,0,1.037-1.5A1.965,1.965,0,0,1,29.7,15.256c.253-.048.527.273.668.469a1.577,1.577,0,0,1,.065,1.409,8.671,8.671,0,0,0,.041,9.6,4.28,4.28,0,0,0-2.4,1.2c-.592.522-.949.838-2.422.547a5.509,5.509,0,0,0-3.818.44,6.732,6.732,0,0,1-3.105.672c-2.281,0-3.368,1.311-4.326,2.468a4.992,4.992,0,0,1-2.926,2.119c-1.431.286-2.294.807-2.637,1.591-.461,1.053.185,2.112.656,2.885.077.127.15.246.21.352a1.826,1.826,0,0,1-.277,1.775c-.574.692-1.758.78-3.334.246-2.045-.692-2.964-.788-3.642-.38s-.793,1.14-.931,1.991a9.944,9.944,0,0,1-.581,2.264c-1.434,3.548-1.1,4.372.059,6.234,1.375,2.2,3.077,1.714,6.468.745,2.428-.694,2.791-1.087,3.29-2.467a10.989,10.989,0,0,1,1.015-2.158c.83-1.383,1.222-1.371,2.08-1.345a5.3,5.3,0,0,0,3.455-.945c.952-.62,1.212-.585,1.238-.579.09.02.326.372.481.605a7.4,7.4,0,0,0,2.581,2.526,2.856,2.856,0,0,1,1.473,2.851,1.93,1.93,0,0,0,.547,1.642,1.661,1.661,0,0,0,1.409.158c.847-.219,1.911-.921,2.165-3.026a8.81,8.81,0,0,0-.03-2.176c0-.025-.009-.05-.016-.074-.283-1.077-1.448-2.059-2.574-3.008a15.637,15.637,0,0,1-1.437-1.308c-.421-.465-.412-.647-.412-.647a.268.268,0,0,1,.077-.088c.484-.423.763-.357,2.4,1.262A20.855,20.855,0,0,0,27.8,45.373c1.64,1.172,2.071,3.348,2.417,5.1a5.8,5.8,0,0,0,.946,2.713c1.646,1.81,5.131.025,3.738-2.452-.707-1.257-.065-2.546,1.907-3.832a.748.748,0,1,0-.817-1.253,6.607,6.607,0,0,0-2.565,2.708,3.368,3.368,0,0,0,.172,3.11c.191.339.157.576-.11.769a.957.957,0,0,1-1.217-.056,5.938,5.938,0,0,1-.586-2c-.377-1.9-.892-4.506-3.015-6.023a19.643,19.643,0,0,1-2.4-2.113,8.993,8.993,0,0,0-1.987-1.654,2.066,2.066,0,0,0-2.449.331,1.581,1.581,0,0,0-.587,1.229c.01,1.084,1.108,2.01,2.38,3.083a7.476,7.476,0,0,1,2.081,2.209c.15,1.219.1,3.236-1.106,3.5-.073-.957.216-3.085-2.231-4.512a5.914,5.914,0,0,1-2.092-2.066,2.4,2.4,0,0,0-1.395-1.232,3.2,3.2,0,0,0-2.383.785,3.846,3.846,0,0,1-2.594.7c-1.246-.039-2.219.089-3.408,2.071a12.458,12.458,0,0,0-1.139,2.419c-.183.506-.25.673-.435.82a6.253,6.253,0,0,1-1.859.718c-3.635,1.039-4.083,1.029-4.789-.1-.939-1.5-1.162-1.86.059-4.881A11.38,11.38,0,0,0,3,42.883a3.433,3.433,0,0,1,.226-.95c.077-.043.478-.133,2.392.515,2.974,1.006,4.387-.012,4.964-.708a3.271,3.271,0,0,0,.429-3.462c-.073-.129-.152-.26-.237-.4-.283-.465-.712-1.167-.563-1.506.046-.106.3-.472,1.561-.725a6.347,6.347,0,0,0,3.784-2.631c.892-1.077,1.6-1.927,3.175-1.927a8.208,8.208,0,0,0,3.7-.8,4.055,4.055,0,0,1,2.932-.344,3.626,3.626,0,0,0,3.7-.894A2.843,2.843,0,0,1,30.8,28.2a3.484,3.484,0,0,0,.742-.179,8.725,8.725,0,0,0,2.32,1.65.469.469,0,0,1,.205.19l2.5,4.423a1.24,1.24,0,0,0,2.159,0l2.5-4.423a.481.481,0,0,1,.2-.19A8.633,8.633,0,0,0,40.581,13.8a6.354,6.354,0,0,0,.033-.887c-.008-.872.018-1.43.631-1.9.125-.1.259-.2.4-.3,1.366-1.016,3.429-2.553,3.111-4.79a.733.733,0,0,1,.735-.823H48.8a.74.74,0,0,1,.74.74V20.722a.748.748,0,1,0,1.5,0V5.836A2.237,2.237,0,0,0,48.8,3.6ZM29.42,13.787A3.305,3.305,0,0,0,27.226,16.3c-.072.288-.247.452-.575.742-1.6,1.411-1.528,2.725-.868,5.835.4,1.866.282,1.939-.028,2.038-.979.311-1.564-.49-2.777-2.006h0a3,3,0,0,0-2.473-.969,4.349,4.349,0,0,1-.514-.035c-.023-.834,1.025-1.94,1.916-2.893.952-1.019,1.774-1.9,1.865-2.807a10.767,10.767,0,0,1,1.384-3.763A8,8,0,0,1,29.512,8.7c3.8-1.194,5.261-.11,5.375-.019a.568.568,0,0,0,.192.135c.553.273,1.692,1.069,1.475,1.655a2.748,2.748,0,0,1-.912.945c-.551.429-1.175.915-1.168,1.683a1.427,1.427,0,0,0,.2.7A8.592,8.592,0,0,0,31.9,15.446a2.427,2.427,0,0,0-.314-.595,2.122,2.122,0,0,0-2.164-1.064Zm15.352,8.124a7.091,7.091,0,0,1-4.011,6.416,1.957,1.957,0,0,0-.851.8l-2.273,4.028-2.273-4.028c-.583-1.034-1.548-.75-3.1-2.517a7.135,7.135,0,1,1,12.5-4.7Z" transform="translate(0 0)"/>
    </g>
  </g>
</svg>
