<svg xmlns="http://www.w3.org/2000/svg" width="96" height="96" viewBox="0 0 96 96">
  <g id="img10" transform="translate(-383.746 -8400.001)">
    <path id="Path_997400" data-name="Path 997400" d="M48,0A48,48,0,1,1,0,48,48,48,0,0,1,48,0Z" transform="translate(383.746 8400.001)" fill="#ff9a1a"/>
    <g id="Group_1181200" data-name="Group 1181200" transform="translate(403.688 8419.943)">
      <path id="Path_1007662" data-name="Path 1007662" d="M24.822,35.847a.821.821,0,0,0,1.076-.44l6.031-14.37a.822.822,0,0,0-1.516-.636l-6.031,14.37A.822.822,0,0,0,24.822,35.847ZM20.5,23.146a3.726,3.726,0,0,0,3.487,3.919,3.726,3.726,0,0,0,3.487-3.919,3.726,3.726,0,0,0-3.487-3.919A3.726,3.726,0,0,0,20.5,23.146Zm5.33,0a2.1,2.1,0,0,1-1.843,2.274,2.1,2.1,0,0,1-1.843-2.274,2.1,2.1,0,0,1,1.843-2.275A2.1,2.1,0,0,1,25.829,23.146ZM2.563,16.205a27.824,27.824,0,0,0-2.3,7.88,1.937,1.937,0,0,0,1.9,2.173H11.8a1.905,1.905,0,0,0,1.872-1.5,14.8,14.8,0,0,1,11.1-11.183A1.908,1.908,0,0,0,26.259,11.7V2.056a1.937,1.937,0,0,0-2.182-1.9A27.808,27.808,0,0,0,16.187,2.5,3.789,3.789,0,0,0,12.627,0H3.783A3.787,3.787,0,0,0,0,3.782v8.844a3.788,3.788,0,0,0,2.563,3.579Zm13.847-3.579V4.221a26.17,26.17,0,0,1,7.9-2.438.263.263,0,0,1,.211.063.274.274,0,0,1,.1.209V11.7a.272.272,0,0,1-.212.266A16.449,16.449,0,0,0,12.066,24.4a.272.272,0,0,1-.267.215H2.163a.255.255,0,0,1-.273-.306,26.186,26.186,0,0,1,2.394-7.9h8.342a3.8,3.8,0,0,0,3.783-3.782Zm-8.2-.872a4.488,4.488,0,0,1,4.221,3.011H4.163A.813.813,0,0,0,4,14.71a4.488,4.488,0,0,1,4.2-2.956Zm-2.753-4.4A2.753,2.753,0,1,1,8.2,10.11,2.756,2.756,0,0,1,5.452,7.357ZM1.644,3.782A2.141,2.141,0,0,1,3.783,1.644h8.844a2.141,2.141,0,0,1,2.138,2.138v8.844a2.134,2.134,0,0,1-.772,1.643,6.153,6.153,0,0,0-3.03-3.492,4.4,4.4,0,1,0-5.519,0,6.153,6.153,0,0,0-3.03,3.492,2.134,2.134,0,0,1-.772-1.643V3.782ZM24.769,42.545a14.777,14.777,0,0,1-11.253-12,.822.822,0,0,0-.811-.69H.935a.822.822,0,0,0-.819.9,27.931,27.931,0,0,0,1.66,7.276.822.822,0,1,0,1.539-.577A26.275,26.275,0,0,1,1.85,31.5H12.02A16.426,16.426,0,0,0,24.4,44.148a.272.272,0,0,1,.212.266v9.647a.254.254,0,0,1-.307.273,26.181,26.181,0,0,1-7.9-2.437V43.49a3.787,3.787,0,0,0-3.783-3.783H3.783A3.787,3.787,0,0,0,0,43.49v8.844a3.788,3.788,0,0,0,2.734,3.634,3.438,3.438,0,0,0,1.048.149h8.844a3.618,3.618,0,0,0,1.048-.149,3.8,3.8,0,0,0,2.511-2.356,27.82,27.82,0,0,0,7.89,2.348,1.917,1.917,0,0,0,2.182-1.9V44.414A1.908,1.908,0,0,0,24.769,42.545ZM3.983,54.473a4.465,4.465,0,0,1,8.443,0Zm1.468-7.408A2.753,2.753,0,1,1,8.2,49.818a2.756,2.756,0,0,1-2.753-2.753Zm9.313,5.269a2.134,2.134,0,0,1-.772,1.643,6.153,6.153,0,0,0-3.03-3.492,4.4,4.4,0,1,0-5.519,0,6.153,6.153,0,0,0-3.03,3.492,2.134,2.134,0,0,1-.772-1.643V43.49a2.141,2.141,0,0,1,2.138-2.138h8.844a2.141,2.141,0,0,1,2.138,2.138v8.844ZM53.555,39.911a27.8,27.8,0,0,0,2.3-7.88,1.917,1.917,0,0,0-1.9-2.173H44.315a1.906,1.906,0,0,0-1.871,1.5,14.877,14.877,0,0,1-11.1,11.18,1.909,1.909,0,0,0-1.483,1.867v9.655a1.917,1.917,0,0,0,2.182,1.9,27.822,27.822,0,0,0,7.891-2.348,3.809,3.809,0,0,0,3.559,2.5h8.844a3.8,3.8,0,0,0,3.783-3.783V43.49a3.789,3.789,0,0,0-2.562-3.58ZM39.707,43.49V51.9a26.181,26.181,0,0,1-7.9,2.437.262.262,0,0,1-.211-.063.274.274,0,0,1-.1-.209V44.405a.272.272,0,0,1,.212-.266A16.53,16.53,0,0,0,44.048,31.716a.271.271,0,0,1,.266-.214h9.639a.275.275,0,0,1,.209.1.264.264,0,0,1,.064.21,26.161,26.161,0,0,1-2.394,7.9H43.49a3.787,3.787,0,0,0-3.783,3.782Zm3.984,10.983a4.464,4.464,0,0,1,8.441,0Zm1.468-7.408a2.753,2.753,0,1,1,2.753,2.753A2.756,2.756,0,0,1,45.159,47.065Zm9.314,5.269a2.134,2.134,0,0,1-.772,1.643,6.153,6.153,0,0,0-3.03-3.492,4.4,4.4,0,1,0-5.519,0,6.153,6.153,0,0,0-3.03,3.492,2.134,2.134,0,0,1-.772-1.643V43.49a2.141,2.141,0,0,1,2.138-2.138h8.786a.822.822,0,0,0,.1,0,2.14,2.14,0,0,1,2.1,2.137v8.844ZM52.334,0H43.49a3.788,3.788,0,0,0-3.56,2.5A27.822,27.822,0,0,0,32.04.156a1.934,1.934,0,0,0-2.182,1.9v9.655a1.909,1.909,0,0,0,1.483,1.867,14.878,14.878,0,0,1,11.1,11.18,1.906,1.906,0,0,0,1.871,1.5h9.639a1.941,1.941,0,0,0,1.9-2.173,27.944,27.944,0,0,0-1.382-5.638A.822.822,0,1,0,52.925,19a26.3,26.3,0,0,1,1.3,5.306.254.254,0,0,1-.273.306H44.315a.271.271,0,0,1-.266-.214A16.53,16.53,0,0,0,31.713,11.977a.272.272,0,0,1-.212-.266V2.056a.256.256,0,0,1,.307-.273,26.181,26.181,0,0,1,7.9,2.437v8.407a3.788,3.788,0,0,0,2.764,3.642l.011,0a3.77,3.77,0,0,0,1.008.137h8.844a3.77,3.77,0,0,0,1.008-.137l.011,0a3.789,3.789,0,0,0,2.764-3.642V3.782A3.787,3.787,0,0,0,52.334,0ZM43.691,14.765a4.464,4.464,0,0,1,8.441,0Zm1.468-7.408a2.753,2.753,0,1,1,2.753,2.753A2.756,2.756,0,0,1,45.159,7.357Zm9.314,5.269a2.134,2.134,0,0,1-.772,1.643,6.153,6.153,0,0,0-3.03-3.492,4.4,4.4,0,1,0-5.519,0,6.153,6.153,0,0,0-3.03,3.492,2.134,2.134,0,0,1-.772-1.643V3.782A2.141,2.141,0,0,1,43.49,1.644h8.844a2.141,2.141,0,0,1,2.139,2.138ZM35.618,32.971a3.726,3.726,0,0,0-3.487-3.919,3.726,3.726,0,0,0-3.487,3.919,3.726,3.726,0,0,0,3.487,3.919A3.726,3.726,0,0,0,35.618,32.971Zm-5.33,0A2.1,2.1,0,0,1,32.131,30.7a2.1,2.1,0,0,1,1.843,2.274,2.1,2.1,0,0,1-1.843,2.275A2.1,2.1,0,0,1,30.288,32.971Z" fill="#593609"/>
    </g>
  </g>
</svg>
