<svg xmlns="http://www.w3.org/2000/svg" width="292" height="263" viewBox="0 0 292 263">
  <g id="img14" transform="translate(-185.711 -3530)">
    <rect id="Rectangle_455496" data-name="Rectangle 455496" width="292" height="263" transform="translate(185.711 3530)" fill="#ffe0b9"/>
    <g id="_20289416_6269307" data-name="20289416_6269307" transform="translate(176.415 3496.678)">
      <g id="OBJECTS" transform="translate(26.512 51.554)">
        <g id="Group_1180474" data-name="Group 1180474" transform="translate(119.409 17.446)">
          <line id="Line_3241" data-name="Line 3241" y2="31.138" transform="translate(8.828 10.938)" fill="none" stroke="#2d1a14" stroke-linecap="round" stroke-linejoin="round" stroke-miterlimit="10" stroke-width="1.614"/>
          <circle id="Ellipse_13870" data-name="Ellipse 13870" cx="9.375" cy="9.375" r="9.375" fill="#c6c3fc"/>
        </g>
        <path id="Path_1004110" data-name="Path 1004110" d="M232.092,146.647c-18.173-10.573-43.95-8.118-62-18.874-10.93-6.514-18.407-20.854-27.431-29.824C130.18,85.54,111.414,74.741,94.409,78.913c-23.464,5.755-33.033,23.793-33.15,42.2-.122,19.137,11.165,33.668,28.129,41.358,16.453,7.459,27.53,14.6,29.78,33.846.913,7.809,1.1,15.859,4.018,23.158,2.866,7.159,8.988,13.349,16.973,13.928,9.3.674,17.718-5.327,26.979-5.476,8.419-.135,16.143,4.44,24.388,6.148,17.33,3.589,37.358-2.032,49.655-14.935C260.173,199.212,255.012,159.983,232.092,146.647Z" transform="translate(-41.235 -62.761)" fill="#e1f5f7"/>
        <line id="Line_3242" data-name="Line 3242" x2="18.485" y2="12.517" transform="translate(79.973 60.488)" fill="none" stroke="#2d1a14" stroke-linecap="round" stroke-linejoin="round" stroke-miterlimit="10" stroke-width="1.614"/>
        <circle id="Ellipse_13871" data-name="Ellipse 13871" cx="9.375" cy="9.375" r="9.375" transform="translate(62.132 53.021) rotate(-34.097)" fill="#c6c3fc"/>
        <circle id="Ellipse_13872" data-name="Ellipse 13872" cx="21.193" cy="21.193" r="21.193" transform="translate(209.838 155.56)" fill="#e1f5f7"/>
        <g id="Group_1180475" data-name="Group 1180475" transform="translate(18.034 80.591)">
          <circle id="Ellipse_13873" data-name="Ellipse 13873" cx="2.37" cy="2.37" r="2.37" fill="#1d0e21"/>
          <path id="Path_1004111" data-name="Path 1004111" d="M60.178,218.2a2.37,2.37,0,1,1,2.37-2.37A2.37,2.37,0,0,1,60.178,218.2Z" transform="translate(-57.808 -200.754)" fill="#1d0e21"/>
          <circle id="Ellipse_13874" data-name="Ellipse 13874" cx="2.37" cy="2.37" r="2.37" transform="translate(0 26.658)" fill="#1d0e21"/>
        </g>
        <g id="Group_1180476" data-name="Group 1180476" transform="translate(233.419 120.155)">
          <path id="Path_1004112" data-name="Path 1004112" d="M433.949,264.806a2.37,2.37,0,1,1,2.37-2.37A2.37,2.37,0,0,1,433.949,264.806Z" transform="translate(-431.579 -260.067)" fill="#1d0e21"/>
          <path id="Path_1004113" data-name="Path 1004113" d="M433.949,286.859a2.37,2.37,0,1,1,2.37-2.37A2.37,2.37,0,0,1,433.949,286.859Z" transform="translate(-431.579 -269.412)" fill="#1d0e21"/>
          <path id="Path_1004114" data-name="Path 1004114" d="M433.949,311.068a2.37,2.37,0,1,1,2.37-2.37A2.37,2.37,0,0,1,433.949,311.068Z" transform="translate(-431.579 -279.671)" fill="#1d0e21"/>
        </g>
        <g id="Group_1180477" data-name="Group 1180477" transform="translate(137.768 206.389)">
          <path id="Path_1004115" data-name="Path 1004115" d="M311.851,412.083a2.37,2.37,0,1,1,2.37,2.37A2.37,2.37,0,0,1,311.851,412.083Z" transform="translate(-285.193 -409.714)" fill="#1d0e21"/>
          <path id="Path_1004116" data-name="Path 1004116" d="M289.8,412.083a2.37,2.37,0,1,1,2.37,2.37A2.37,2.37,0,0,1,289.8,412.083Z" transform="translate(-275.848 -409.714)" fill="#1d0e21"/>
          <path id="Path_1004117" data-name="Path 1004117" d="M265.59,412.083a2.37,2.37,0,1,1,2.37,2.37A2.37,2.37,0,0,1,265.59,412.083Z" transform="translate(-265.59 -409.714)" fill="#1d0e21"/>
        </g>
        <g id="Group_1180478" data-name="Group 1180478" transform="translate(130.208 6.141)">
          <path id="Path_1004118" data-name="Path 1004118" d="M298.733,64.581a2.37,2.37,0,1,1,2.37,2.37A2.37,2.37,0,0,1,298.733,64.581Z" transform="translate(-272.075 -62.211)" fill="#1d0e21"/>
          <circle id="Ellipse_13875" data-name="Ellipse 13875" cx="2.37" cy="2.37" r="2.37" transform="translate(13.95)" fill="#1d0e21"/>
          <circle id="Ellipse_13876" data-name="Ellipse 13876" cx="2.37" cy="2.37" r="2.37" fill="#1d0e21"/>
        </g>
        <ellipse id="Ellipse_13877" data-name="Ellipse 13877" cx="33.388" cy="32.532" rx="33.388" ry="32.532" transform="translate(91.057 58.248)" fill="#c6c3fc"/>
        <ellipse id="Ellipse_13878" data-name="Ellipse 13878" cx="33.388" cy="32.532" rx="33.388" ry="32.532" transform="translate(49.687 122.17)" fill="#c6c3fc"/>
        <g id="Group_1180479" data-name="Group 1180479" transform="translate(64.709 136.335)">
          <path id="Path_1004119" data-name="Path 1004119" d="M175.538,306.512c0,.4-.014.795-.041,1.186a18.365,18.365,0,1,1-18.326-19.554h.106a18.309,18.309,0,0,1,13.635,6.182.065.065,0,0,1,.022.027A18.3,18.3,0,0,1,175.538,306.512Z" transform="translate(-138.806 -288.145)" fill="#f5f5ff"/>
          <path id="Path_1004120" data-name="Path 1004120" d="M184.438,294.355l-8.713,7.7-5.05,4.462v-.142l.038-6.6.068-11.624a18.309,18.309,0,0,1,13.635,6.182A.07.07,0,0,1,184.438,294.355Z" transform="translate(-152.311 -288.145)" fill="#9898ea"/>
          <path id="Path_1004121" data-name="Path 1004121" d="M187.749,311.059c0,.4-.014.795-.041,1.186L176,312.37l-8.373.09,1.758-1.543,5-4.381,8.74-7.662a.065.065,0,0,1,.022.027A18.291,18.291,0,0,1,187.749,311.059Z" transform="translate(-151.018 -292.691)" fill="#8383dd"/>
          <path id="Path_1004122" data-name="Path 1004122" d="M187.709,322.078a18.37,18.37,0,0,1-10.631,15.5l-6.871-9.991-1.766-2.569-.817-2.721L176,322.2Z" transform="translate(-151.018 -302.524)" fill="#6060cc"/>
          <circle id="Ellipse_13879" data-name="Ellipse 13879" cx="6.742" cy="6.742" r="6.742" transform="translate(11.623 11.625)" fill="#c6c3fc"/>
        </g>
        <g id="Group_1180482" data-name="Group 1180482" transform="translate(0 147.209)">
          <g id="Group_1180480" data-name="Group 1180480" transform="translate(0 24.3)">
            <path id="Path_1004123" data-name="Path 1004123" d="M46.224,395.964q3.328,2.844,6.718,5.614l29.536-34.467A9.414,9.414,0,0,0,82.42,354.8c-3.419-3.916-3.973-7.7-7.888-4.277L33.781,384.767C37.815,388.622,41.982,392.339,46.224,395.964Z" transform="translate(-29.592 -349.185)" fill="#ff8b6b"/>
            <path id="Path_1004124" data-name="Path 1004124" d="M47.914,417.071,68.49,392.7c-5.521-4.6-11.194-9.015-17.06-13.17L26.512,398.163Z" transform="translate(-26.512 -362.043)" fill="#f4d0b8"/>
          </g>
          <g id="Group_1180481" data-name="Group 1180481" transform="translate(38.025)">
            <path id="Path_1004125" data-name="Path 1004125" d="M99.961,331.639c-.906-3.493.941-7.075,2.971-10.058s4.394-6.014,4.685-9.61a15.451,15.451,0,0,1,.273-3.021,2.468,2.468,0,0,1,2.077-1.934c1.552-.037,2.323,1.871,2.463,3.417a18.938,18.938,0,0,1-1.82,9.929,10.549,10.549,0,0,0-1,2.412,2.609,2.609,0,0,0,.6,2.432,2.513,2.513,0,0,0,2.608.322,6.984,6.984,0,0,0,2.208-1.646c4.975-4.911,4.269-4.054,8.447-9.961.82-1.159,3.137-4.82,4.4-5.463s3.174-.217,3.522,1.159a3.6,3.6,0,0,1-.866,2.719c-2.655,4.019-2.5,3.831-5.158,7.85a5.753,5.753,0,0,1,.519,7.3c1.344,3.452.174,7.436-2.032,10.412s-5.4,5.061-8.628,6.872-6.6,3.43-9.5,5.748c-2.791-5.331-11.3-6.123-13.238-11.822C93.19,337.854,99.271,332.485,99.961,331.639Z" transform="translate(-92.5 -307.015)" fill="#ff8b6b"/>
            <path id="Path_1004126" data-name="Path 1004126" d="M145.944,329.873c-.461.887-3.1,5.134-3.1,5.134a17.826,17.826,0,0,1-1.8,7.176" transform="translate(-113.069 -316.701)" fill="none" stroke="#2d1a14" stroke-linecap="round" stroke-linejoin="round" stroke-miterlimit="10" stroke-width="1.594"/>
          </g>
        </g>
        <g id="Group_1180483" data-name="Group 1180483" transform="translate(21.053 135.512)">
          <circle id="Ellipse_13880" data-name="Ellipse 13880" cx="9.375" cy="9.375" r="9.375" transform="translate(0)" fill="#c6c3fc"/>
          <line id="Line_3243" data-name="Line 3243" x2="11.525" transform="translate(18.75 9.375)" fill="none" stroke="#2d1a14" stroke-linecap="round" stroke-linejoin="round" stroke-miterlimit="10" stroke-width="1.614"/>
        </g>
        <path id="Path_1004127" data-name="Path 1004127" d="M53.729,398.6A39.2,39.2,0,0,0,37.51,411.061" transform="translate(-31.172 -198.617)" fill="none" stroke="#2d1a14" stroke-linecap="round" stroke-linejoin="round" stroke-miterlimit="10" stroke-width="1.755"/>
        <path id="Path_1004128" data-name="Path 1004128" d="M61.037,416.69a2.586,2.586,0,1,1-2.586-2.586A2.586,2.586,0,0,1,61.037,416.69Z" transform="translate(-38.951 -205.186)" fill="none" stroke="#2d1a14" stroke-linecap="round" stroke-linejoin="round" stroke-miterlimit="10" stroke-width="1.755"/>
        <path id="Path_1004129" data-name="Path 1004129" d="M366.469,102.258A41.729,41.729,0,0,0,384.276,89.73" transform="translate(-170.57 -67.731)" fill="none" stroke="#2d1a14" stroke-linecap="round" stroke-linejoin="round" stroke-miterlimit="10" stroke-width="1.868"/>
        <path id="Path_1004130" data-name="Path 1004130" d="M368.226,88.308a2.753,2.753,0,1,1,2.635,2.866A2.753,2.753,0,0,1,368.226,88.308Z" transform="translate(-171.313 -66.011)" fill="none" stroke="#2d1a14" stroke-linecap="round" stroke-linejoin="round" stroke-miterlimit="10" stroke-width="1.868"/>
        <g id="Group_1180485" data-name="Group 1180485" transform="translate(109.251 68.467)">
          <path id="Path_1004131" data-name="Path 1004131" d="M239.377,229.578h0a5.222,5.222,0,0,1-5.206-5.206v-7.863a5.222,5.222,0,0,1,5.206-5.206h0a5.222,5.222,0,0,1,5.206,5.206v7.863A5.222,5.222,0,0,1,239.377,229.578Z" transform="translate(-223.759 -187.715)" fill="#f5f5ff"/>
          <line id="Line_3244" data-name="Line 3244" x2="10.413" transform="translate(10.412 36.656)" fill="#8ddae2"/>
          <path id="Path_1004132" data-name="Path 1004132" d="M242.241,244.529h0a1.066,1.066,0,0,1-1.063-1.063v-2.338a1.066,1.066,0,0,1,1.063-1.063h0a1.066,1.066,0,0,1,1.063,1.063v2.338A1.066,1.066,0,0,1,242.241,244.529Z" transform="translate(-226.728 -199.904)" fill="#2d1a14"/>
          <path id="Path_1004133" data-name="Path 1004133" d="M231.3,200.758h0A15.238,15.238,0,0,1,216.1,185.564h0A15.238,15.238,0,0,1,231.3,170.37h0a15.238,15.238,0,0,1,15.194,15.194h0A15.239,15.239,0,0,1,231.3,200.758Z" transform="translate(-216.102 -170.37)" fill="#f5f5ff"/>
          <g id="Group_1180484" data-name="Group 1180484" transform="translate(12.75 16.787)">
            <path id="Path_1004134" data-name="Path 1004134" d="M239.184,219.052h0a.959.959,0,0,1-.956-.956V200.459a.959.959,0,0,1,.956-.957h0a.959.959,0,0,1,.957.957V218.1A.959.959,0,0,1,239.184,219.052Z" transform="translate(-238.228 -199.502)" fill="none" stroke="#472a1c" stroke-linecap="round" stroke-linejoin="round" stroke-miterlimit="10" stroke-width="0.435"/>
            <path id="Path_1004135" data-name="Path 1004135" d="M244.716,219.052h0a.959.959,0,0,1-.957-.956V200.459a.959.959,0,0,1,.957-.957h0a.959.959,0,0,1,.957.957V218.1A.96.96,0,0,1,244.716,219.052Z" transform="translate(-240.572 -199.502)" fill="none" stroke="#472a1c" stroke-linecap="round" stroke-linejoin="round" stroke-miterlimit="10" stroke-width="0.435"/>
          </g>
          <path id="Path_1004136" data-name="Path 1004136" d="M234.171,228.635v3.081a5.206,5.206,0,1,0,10.413,0v-3.081Z" transform="translate(-223.759 -195.06)" fill="#9898ea"/>
        </g>
        <g id="Group_1180486" data-name="Group 1180486" transform="translate(74.173 187.133)">
          <line id="Line_3245" data-name="Line 3245" y2="18.598" transform="translate(10.24)" fill="none" stroke="#2d1a14" stroke-linecap="round" stroke-linejoin="round" stroke-miterlimit="10" stroke-width="1.614"/>
          <circle id="Ellipse_13881" data-name="Ellipse 13881" cx="9.375" cy="9.375" r="9.375" transform="translate(0 12.467)" fill="#c6c3fc"/>
        </g>
        <g id="Group_1180489" data-name="Group 1180489" transform="translate(167.394)">
          <g id="Group_1180488" data-name="Group 1180488">
            <g id="Group_1180487" data-name="Group 1180487">
              <path id="Path_1004137" data-name="Path 1004137" d="M359.539,62.536q-3.413-3.173-6.9-6.271L319.692,91.61a10.02,10.02,0,0,0,13.6,14.65L372.275,75C368.156,70.72,363.89,66.58,359.539,62.536Z" transform="translate(-317.001 -53.55)" fill="#c75434"/>
              <path id="Path_1004138" data-name="Path 1004138" d="M365.761,51.554,342.788,76.561c5.667,5.141,11.5,10.088,17.559,14.769L387.682,72.62Z" transform="translate(-327.928 -51.554)" fill="#c6f2f7"/>
            </g>
          </g>
        </g>
        <g id="Group_1180490" data-name="Group 1180490" transform="translate(182.675 101.625)">
          <path id="Path_1004139" data-name="Path 1004139" d="M352.228,244.922a9.375,9.375,0,1,1,13.075-2.2A9.375,9.375,0,0,1,352.228,244.922Z" transform="translate(-345.542 -227.91)" fill="#c6c3fc"/>
          <line id="Line_3246" data-name="Line 3246" x1="6.686" y2="9.387" transform="translate(0 17.012)" fill="none" stroke="#2d1a14" stroke-linecap="round" stroke-linejoin="round" stroke-miterlimit="10" stroke-width="1.614"/>
        </g>
        <g id="Group_1180491" data-name="Group 1180491" transform="translate(179.818 181.561)">
          <circle id="Ellipse_13882" data-name="Ellipse 13882" cx="9.375" cy="9.375" r="9.375" transform="matrix(0.153, -0.988, 0.988, 0.153, 1.688, 24.648)" fill="#c6c3fc"/>
          <line id="Line_3247" data-name="Line 3247" x1="6.839" y1="9.276" fill="none" stroke="#2d1a14" stroke-linecap="round" stroke-linejoin="round" stroke-miterlimit="10" stroke-width="1.614"/>
        </g>
        <ellipse id="Ellipse_13883" data-name="Ellipse 13883" cx="33.388" cy="32.532" rx="33.388" ry="32.532" transform="translate(133.255 121.029)" fill="#c6c3fc"/>
        <g id="Group_1180493" data-name="Group 1180493" transform="translate(144.531 137.049)">
          <g id="Group_1180492" data-name="Group 1180492" transform="translate(6.871)">
            <rect id="Rectangle_455729" data-name="Rectangle 455729" width="7.532" height="19.171" transform="translate(0 12.748)" fill="#6060cc"/>
            <rect id="Rectangle_455730" data-name="Rectangle 455730" width="7.566" height="26.76" transform="translate(10.27 5.159)" fill="#9898ea"/>
            <rect id="Rectangle_455731" data-name="Rectangle 455731" width="8.186" height="31.577" transform="translate(21.225)" fill="#8383dd"/>
          </g>
          <line id="Line_3248" data-name="Line 3248" x2="40.439" transform="translate(0 31.723)" fill="none" stroke="#2d1a14" stroke-linecap="round" stroke-linejoin="round" stroke-miterlimit="10" stroke-width="1.465"/>
        </g>
        <g id="Group_1180494" data-name="Group 1180494" transform="translate(29.881 73.049)">
          <path id="Path_1004140" data-name="Path 1004140" d="M122.828,198.5h-3.693a16.674,16.674,0,0,0-3.191-6.864l2.693-2.726a2.872,2.872,0,0,0-.081-4.133,3.06,3.06,0,0,0-4.246.084l-2.767,2.793a17.5,17.5,0,0,0-6.442-2.467v-3.941a3,3,0,0,0-6,0v3.941a17.539,17.539,0,0,0-6.446,2.467l-2.762-2.793a3.06,3.06,0,0,0-4.246-.084,2.868,2.868,0,0,0-.081,4.133l2.693,2.726a16.572,16.572,0,0,0-3.191,6.864H81.369a2.924,2.924,0,1,0,0,5.845h3.543a16.556,16.556,0,0,0,2.986,7.227L85.56,213.94a2.863,2.863,0,0,0,.081,4.129,3.058,3.058,0,0,0,4.246-.08l2.265-2.288a17.537,17.537,0,0,0,6.944,2.8v3.107a3,3,0,0,0,6,0V218.5a17.528,17.528,0,0,0,6.944-2.8l2.265,2.288a3.057,3.057,0,0,0,4.246.08,2.867,2.867,0,0,0,.081-4.129l-2.338-2.367a16.569,16.569,0,0,0,2.986-7.227h3.543a2.924,2.924,0,1,0,0-5.845Zm-20.943,10.718a7.658,7.658,0,1,1,7.862-7.658A7.76,7.76,0,0,1,101.885,209.218Z" transform="translate(-78.367 -178.321)" fill="#c6c3fc"/>
          <ellipse id="Ellipse_13884" data-name="Ellipse 13884" cx="4.283" cy="4.17" rx="4.283" ry="4.17" transform="translate(19.463 19.135)" fill="none" stroke="#472a1c" stroke-miterlimit="10" stroke-width="1.522"/>
          <ellipse id="Ellipse_13885" data-name="Ellipse 13885" cx="13.673" cy="13.311" rx="13.673" ry="13.311" transform="translate(10.073 9.994)" fill="none" stroke="#472a1c" stroke-miterlimit="10" stroke-width="1.522"/>
        </g>
        <g id="Group_1180495" data-name="Group 1180495" transform="translate(174.799 62.537)">
          <path id="Path_1004141" data-name="Path 1004141" d="M359.623,173.957H357.15a11.616,11.616,0,0,0-2.137-4.721l1.8-1.875a2.01,2.01,0,1,0-2.9-2.786l-1.853,1.921a11.541,11.541,0,0,0-4.313-1.7v-2.711a2.011,2.011,0,1,0-4.021,0V164.8a11.556,11.556,0,0,0-4.317,1.7l-1.849-1.921a2.01,2.01,0,1,0-2.9,2.786l1.8,1.875a11.541,11.541,0,0,0-2.137,4.721h-2.473a2.011,2.011,0,1,0,0,4.021h2.372a11.553,11.553,0,0,0,2,4.971l-1.565,1.628a2.01,2.01,0,1,0,2.9,2.786l1.516-1.574a11.56,11.56,0,0,0,4.65,1.924v2.137a2.011,2.011,0,1,0,4.021,0v-2.137a11.575,11.575,0,0,0,4.65-1.924l1.517,1.574a2.01,2.01,0,0,0,2.9-2.786l-1.565-1.628a11.567,11.567,0,0,0,2-4.971h2.372a2.011,2.011,0,1,0,0-4.021ZM345.6,181.329a5.265,5.265,0,1,1,5.264-5.267A5.264,5.264,0,0,1,345.6,181.329Z" transform="translate(-329.852 -160.078)" fill="#8383dd"/>
          <path id="Path_1004142" data-name="Path 1004142" d="M358.2,185.786a2.868,2.868,0,1,1-2.868-2.868A2.868,2.868,0,0,1,358.2,185.786Z" transform="translate(-339.436 -169.757)" fill="none" stroke="#472a1c" stroke-miterlimit="10" stroke-width="1.033"/>
          <path id="Path_1004143" data-name="Path 1004143" d="M359.2,183a6.65,6.65,0,1,1-6.65-6.65A6.65,6.65,0,0,1,359.2,183Z" transform="translate(-336.654 -166.975)" fill="none" stroke="#472a1c" stroke-miterlimit="10" stroke-width="1.033"/>
        </g>
        <path id="Path_1004144" data-name="Path 1004144" d="M82.667,263.958a3.244,3.244,0,1,1-3.244-3.244A3.244,3.244,0,0,1,82.667,263.958Z" transform="translate(-47.559 -140.186)" fill="none" stroke="#2d1a14" stroke-linecap="round" stroke-linejoin="round" stroke-miterlimit="10" stroke-width="1.614"/>
        <path id="Path_1004145" data-name="Path 1004145" d="M129.29,146.542a2.163,2.163,0,1,1-2.163-2.163A2.162,2.162,0,0,1,129.29,146.542Z" transform="translate(-68.232 -90.889)" fill="none" stroke="#2d1a14" stroke-linecap="round" stroke-linejoin="round" stroke-miterlimit="10" stroke-width="1.614"/>
        <path id="Path_1004146" data-name="Path 1004146" d="M79.844,155.218a1.081,1.081,0,1,1-1.081-1.081A1.081,1.081,0,0,1,79.844,155.218Z" transform="translate(-48.195 -95.024)" fill="none" stroke="#2d1a14" stroke-linecap="round" stroke-linejoin="round" stroke-miterlimit="10" stroke-width="1.614"/>
        <circle id="Ellipse_13886" data-name="Ellipse 13886" cx="3.244" cy="3.244" r="3.244" transform="translate(88.306 23.648)" fill="none" stroke="#2d1a14" stroke-linecap="round" stroke-linejoin="round" stroke-miterlimit="10" stroke-width="1.614"/>
        <circle id="Ellipse_13887" data-name="Ellipse 13887" cx="1.081" cy="1.081" r="1.081" transform="translate(76.629 15.431)" fill="none" stroke="#2d1a14" stroke-linecap="round" stroke-linejoin="round" stroke-miterlimit="10" stroke-width="1.614"/>
        <circle id="Ellipse_13888" data-name="Ellipse 13888" cx="2.379" cy="2.379" r="2.379" transform="translate(121.608 191.89)" fill="none" stroke="#2d1a14" stroke-linecap="round" stroke-linejoin="round" stroke-miterlimit="10" stroke-width="1.614"/>
        <circle id="Ellipse_13889" data-name="Ellipse 13889" cx="1.73" cy="1.73" r="1.73" transform="translate(139.341 187.998)" fill="none" stroke="#2d1a14" stroke-linecap="round" stroke-linejoin="round" stroke-miterlimit="10" stroke-width="1.614"/>
        <circle id="Ellipse_13890" data-name="Ellipse 13890" cx="1.73" cy="1.73" r="1.73" transform="translate(116.419 220.868)" fill="none" stroke="#2d1a14" stroke-linecap="round" stroke-linejoin="round" stroke-miterlimit="10" stroke-width="1.614"/>
        <path id="Path_1004147" data-name="Path 1004147" d="M124.673,410.3a1.73,1.73,0,1,1-1.73-1.73A1.73,1.73,0,0,1,124.673,410.3Z" transform="translate(-66.642 -202.841)" fill="none" stroke="#2d1a14" stroke-linecap="round" stroke-linejoin="round" stroke-miterlimit="10" stroke-width="1.614"/>
        <path id="Path_1004148" data-name="Path 1004148" d="M388.547,279.173a1.946,1.946,0,1,1-1.946-1.947A1.946,1.946,0,0,1,388.547,279.173Z" transform="translate(-178.276 -147.183)" fill="none" stroke="#2d1a14" stroke-linecap="round" stroke-linejoin="round" stroke-miterlimit="10" stroke-width="1.614"/>
        <path id="Path_1004149" data-name="Path 1004149" d="M397.439,300.881a1.514,1.514,0,1,1-1.514-1.514A1.514,1.514,0,0,1,397.439,300.881Z" transform="translate(-182.41 -156.566)" fill="none" stroke="#2d1a14" stroke-linecap="round" stroke-linejoin="round" stroke-miterlimit="10" stroke-width="1.614"/>
        <circle id="Ellipse_13891" data-name="Ellipse 13891" cx="1.514" cy="1.514" r="1.514" transform="translate(81.602 112.311)" fill="none" stroke="#2d1a14" stroke-linecap="round" stroke-linejoin="round" stroke-miterlimit="10" stroke-width="1.614"/>
        <path id="Path_1004150" data-name="Path 1004150" d="M409.588,174.109a3.46,3.46,0,1,1-3.46-3.46A3.46,3.46,0,0,1,409.588,174.109Z" transform="translate(-185.909 -102.021)" fill="none" stroke="#2d1a14" stroke-linecap="round" stroke-linejoin="round" stroke-miterlimit="10" stroke-width="1.614"/>
        <path id="Path_1004151" data-name="Path 1004151" d="M100.525,118.283l1.647,3.011,3.011,1.647-3.011,1.647-1.647,3.011-1.647-3.011-3.011-1.647,3.011-1.647Z" transform="translate(-55.901 -79.831)" fill="#ff9e00"/>
        <path id="Path_1004152" data-name="Path 1004152" d="M136.1,107.529l.78,1.426,1.426.78-1.426.78-.78,1.426-.78-1.426-1.426-.78,1.426-.78Z" transform="translate(-72.017 -75.274)" fill="#ff9e00"/>
        <path id="Path_1004153" data-name="Path 1004153" d="M208.473,388.922l1.71,3.126,3.126,1.71-3.126,1.709-1.71,3.126-1.71-3.126-3.126-1.709,3.126-1.71Z" transform="translate(-101.569 -194.515)" fill="#ff9e00"/>
        <path id="Path_1004154" data-name="Path 1004154" d="M201.524,428.033l1.081,1.977,1.977,1.082-1.977,1.081-1.081,1.977-1.082-1.977-1.977-1.081,1.977-1.082Z" transform="translate(-99.378 -211.088)" fill="#ff9e00"/>
        <path id="Path_1004155" data-name="Path 1004155" d="M432.674,345.911l1.451,2.652,2.652,1.45-2.652,1.451-1.451,2.652-1.45-2.652-2.652-1.451,2.652-1.45Z" transform="translate(-196.886 -176.289)" fill="#ff9e00"/>
        <path id="Path_1004156" data-name="Path 1004156" d="M454.644,330.422l.63,1.153,1.153.63-1.153.63-.63,1.153-.63-1.153-1.153-.63,1.153-.63Z" transform="translate(-207.179 -169.725)" fill="#ff9e00"/>
        <path id="Path_1004157" data-name="Path 1004157" d="M405.909,222.193l.967,1.768,1.768.967-1.768.967-.967,1.768-.967-1.768-1.769-.967,1.769-.967Z" transform="translate(-186.124 -123.863)" fill="#ff9e00"/>
        <path id="Path_1004158" data-name="Path 1004158" d="M425.871,201.962,426.984,204l2.035,1.113-2.035,1.113-1.113,2.036-1.113-2.036-2.035-1.113L424.757,204Z" transform="translate(-194.407 -115.29)" fill="#ff9e00"/>
        <path id="Path_1004159" data-name="Path 1004159" d="M321.31,230.2l.865,1.582,1.581.865-1.581.865-.865,1.582-.865-1.582-1.581-.865,1.581-.865Z" transform="translate(-150.397 -127.255)" fill="#ff9e00"/>
        <path id="Path_1004160" data-name="Path 1004160" d="M163.155,184.159l.764,1.4,1.4.764-1.4.765-.764,1.4-.765-1.4-1.4-.765,1.4-.764Z" transform="translate(-83.498 -107.746)" fill="#ff9e00"/>
        <path id="Path_1004161" data-name="Path 1004161" d="M197.983,130.567l.979,1.79,1.79.979-1.79.979-.979,1.79-.979-1.79-1.79-.979,1.79-.979Z" transform="translate(-98 -85.036)" fill="#ff9e00"/>
        <path id="Path_1004162" data-name="Path 1004162" d="M204.226,55.322l.865,1.582,1.581.865-1.581.865-.865,1.582-.866-1.582-1.581-.865,1.581-.865Z" transform="translate(-100.782 -53.151)" fill="#ff9e00"/>
        <path id="Path_1004163" data-name="Path 1004163" d="M298.278,90.881l1.113,2.035,2.035,1.113-2.035,1.113-1.113,2.035-1.113-2.035-2.035-1.113,2.035-1.113Z" transform="translate(-140.339 -68.219)" fill="#ff9e00"/>
        <path id="Path_1004164" data-name="Path 1004164" d="M329.3,75.237l.63,1.153,1.153.63-1.153.63L329.3,78.8l-.63-1.152-1.153-.63,1.153-.63Z" transform="translate(-154.065 -61.59)" fill="#ff9e00"/>
        <path id="Path_1004165" data-name="Path 1004165" d="M413.714,131.331l.823,1.506,1.505.823-1.505.823-.823,1.506-.823-1.506-1.506-.823,1.506-.823Z" transform="translate(-189.603 -85.36)" fill="#ff9e00"/>
        <circle id="Ellipse_13892" data-name="Ellipse 13892" cx="6.055" cy="6.055" r="6.055" transform="translate(25.161 162.912)" fill="#e1f5f7"/>
        <g id="Group_1180498" data-name="Group 1180498" transform="translate(189.756 149.067)">
          <g id="Group_1180497" data-name="Group 1180497" transform="translate(12.664 22.812)">
            <g id="Group_1180496" data-name="Group 1180496">
              <path id="Path_1004166" data-name="Path 1004166" d="M416.3,394.217q-3.328,2.843-6.718,5.614l-29.536-34.467a9.412,9.412,0,0,1,13.337-13.215l35.36,30.871C424.711,386.875,420.544,390.592,416.3,394.217Z" transform="translate(-377.784 -349.827)" fill="#732d19"/>
              <path id="Path_1004167" data-name="Path 1004167" d="M421.217,413.566l-20.576-24.372c5.521-4.6,11.194-9.015,17.06-13.17l24.918,18.634Z" transform="translate(-387.47 -360.928)" fill="#ff9e00"/>
            </g>
          </g>
          <line id="Line_3249" data-name="Line 3249" y1="12.543" x2="15.57" transform="translate(19.939 31.53)" fill="none" stroke="#ff9e00" stroke-linecap="round" stroke-linejoin="round" stroke-miterlimit="10" stroke-width="0.751"/>
          <path id="Path_1004168" data-name="Path 1004168" d="M385.682,331.406c-.748-3.691-3.883-6.17-7-5.538a5.345,5.345,0,0,0-3.611,2.795l-14.528-16.524a5.571,5.571,0,0,0-2.225-1.785,1.917,1.917,0,0,0-2.428.928,2.832,2.832,0,0,0,.8,2.443c2.72,3.671,5.279,7.265,8,10.937a4.918,4.918,0,0,0-3.464,2.8,4.03,4.03,0,0,0,.22,4c-1.774-.185-3.163,1.808-3.017,3.585s1.33,3.282,2.531,4.6a50.366,50.366,0,0,0,10.866,8.991c2.138,1.313,3.472,2.772,5.822,3.651L384.787,340c1.041-1.334,1.483-.406,1-2.042A22.652,22.652,0,0,0,385.682,331.406Z" transform="translate(-355.808 -310.24)" fill="#732d19"/>
          <path id="Path_1004169" data-name="Path 1004169" d="M388.479,341.888a11.63,11.63,0,0,1,6.191,2.522" transform="translate(-369.652 -323.651)" fill="none" stroke="#2d1a14" stroke-linecap="round" stroke-linejoin="round" stroke-miterlimit="10" stroke-width="1.594"/>
        </g>
        <path id="Path_1004170" data-name="Path 1004170" d="M303.486,119.167c-.451,0-15,4.816-21.318,6.916a5.18,5.18,0,0,0-3.455,3.945L275.8,145.247a5.467,5.467,0,0,0,2.714,5.806h0l-.371,1.113a2,2,0,0,0,.368,2.127,2.384,2.384,0,0,0,3.173.133l.383-.3,9.94-14.6,12.053,1.921,11.525-8.836Z" transform="translate(-132.108 -80.205)" fill="#c75434"/>
        <path id="Path_1004171" data-name="Path 1004171" d="M323.475,131.639a.664.664,0,0,1,.065.083,1.2,1.2,0,0,1,.15.466,29.866,29.866,0,0,1,.624,8.919,10.72,10.72,0,0,1-4.213,7.62,16.061,16.061,0,0,1-6.3,2.06l-8.392,1.5a12.734,12.734,0,0,1-3.4.3,2.622,2.622,0,0,1-2-.963,2.231,2.231,0,0,1,.567-2.749,6.51,6.51,0,0,1,2.76-1.246c3.064-.837,5.921-2.032,8.985-2.869a2.548,2.548,0,0,1-2.026-.919c-3.39-5.314,2.527-11.521,7.71-13.1.252-.077.507-.143.764-.2a7.9,7.9,0,0,1,.87-.134c.088-.009.177-.016.265-.021a6.2,6.2,0,0,1,3.156.977A1.482,1.482,0,0,1,323.475,131.639Z" transform="translate(-142.294 -84.955)" fill="#c75434"/>
        <g id="Group_1180499" data-name="Group 1180499" transform="translate(145.586 41.931)">
          <path id="Path_1004172" data-name="Path 1004172" d="M307.825,127.981l-22.4,26.13a10.953,10.953,0,0,0-2,3.27,4.119,4.119,0,0,0-.244,1.078,1.213,1.213,0,0,0,.331,1.054,1.048,1.048,0,0,0,.78.2c1.093-.086,2.791-1.224,4.274-2.963l22.02-25.746Z" transform="translate(-280.861 -125.871)" fill="#e0860e"/>
          <path id="Path_1004173" data-name="Path 1004173" d="M307.991,130.418l-24.809,29.074a1.213,1.213,0,0,0,.331,1.054,1.047,1.047,0,0,0,.78.2l25.1-29.407Z" transform="translate(-280.861 -126.903)" fill="#fab919"/>
          <path id="Path_1004174" data-name="Path 1004174" d="M279.16,183.383l5.761-3.919-2.752-2.31S279.061,183.664,279.16,183.383Z" transform="translate(-279.158 -146.708)" fill="#f6c8b0"/>
          <path id="Path_1004175" data-name="Path 1004175" d="M280.331,183.836c-.577,1.2-1.083,2.244-1.157,2.374l2.2-1.5Z" transform="translate(-279.165 -149.539)" fill="#2d1a14"/>
          <path id="Path_1004176" data-name="Path 1004176" d="M329.324,128.9l.789-.922a2.547,2.547,0,0,0,.5-2.648,1.738,1.738,0,0,0-.448-.6,1.76,1.76,0,0,0-.894-.4,2.6,2.6,0,0,0-2.29.967l-.789.921Z" transform="translate(-299.087 -124.319)" fill="#fc9090"/>
          <path id="Path_1004177" data-name="Path 1004177" d="M329.8,124.5a1.815,1.815,0,0,0-.53-.162,2.6,2.6,0,0,0-2.29.967l-.789.921,1.23,1.05Z" transform="translate(-299.087 -124.319)" fill="#ee4954"/>
          <path id="Path_1004178" data-name="Path 1004178" d="M322.467,130.468l3.1,2.606c.208.175.04.713-.372,1.2l-.024.028c-.413.483-.92.736-1.127.561l-3.1-2.606c-.208-.175-.04-.713.372-1.2l.024-.028C321.752,130.547,322.259,130.294,322.467,130.468Z" transform="translate(-296.827 -126.901)" fill="#e0dede"/>
          <path id="Path_1004179" data-name="Path 1004179" d="M325.015,127.541l3.149,2.644c.2.164.012.7-.406,1.191h0c-.419.491-.921.758-1.117.595l-3.149-2.644c-.2-.164-.013-.7.407-1.191h0C324.318,127.645,324.82,127.377,325.015,127.541Z" transform="translate(-297.912 -125.664)" fill="#fff"/>
        </g>
        <path id="Path_1004180" data-name="Path 1004180" d="M312.947,157.89c-.307-.63-.653-1.239-1.014-1.84l-9.227,2.691a7.043,7.043,0,0,0-2.616,1.172,2.4,2.4,0,0,0-.867,2.564c.581,1.528,2.728,1.49,4.332,1.175l9.992-1.963q.388-.076.777-.155A23.074,23.074,0,0,0,312.947,157.89Z" transform="translate(-142.026 -95.835)" fill="#c75434"/>
        <path id="Path_1004181" data-name="Path 1004181" d="M288.033,134.587a5.087,5.087,0,0,0,.489,6.4,150.581,150.581,0,0,0-6.977,15.75" transform="translate(-134.583 -86.74)" fill="none" stroke="#2d1a14" stroke-linecap="round" stroke-linejoin="round" stroke-miterlimit="10" stroke-width="1.594"/>
        <path id="Path_1004182" data-name="Path 1004182" d="M341.581,139.332a16.5,16.5,0,0,0-1.121-6.348" transform="translate(-159.549 -86.06)" fill="none" stroke="#2d1a14" stroke-linecap="round" stroke-linejoin="round" stroke-miterlimit="10" stroke-width="1.594"/>
      </g>
    </g>
  </g>
</svg>
