<svg xmlns="http://www.w3.org/2000/svg" width="84" height="84" viewBox="0 0 84 84">
  <g id="img11" transform="translate(-185.711 -2802)">
    <rect id="Rectangle_455495" data-name="Rectangle 455495" width="84" height="84" rx="10" transform="translate(185.711 2802)" fill="#ff9a1a"/>
    <g id="Group_1180472" data-name="Group 1180472" transform="translate(200.711 2817)">
      <path id="Path_1004082" data-name="Path 1004082" d="M39.355,48.064H8V16.71L16.71,8H39.355Zm0,0" transform="translate(-7.129 -7.129)" fill="#e6e9ed"/>
      <path id="Path_1004083" data-name="Path 1004083" d="M291.161,232a3.484,3.484,0,0,1,3.484,3.484v20.9a3.484,3.484,0,0,1-3.484,3.484H275.484A3.484,3.484,0,0,1,272,256.387v-20.9A3.484,3.484,0,0,1,275.484,232Zm0,0" transform="translate(-242.387 -206.742)" fill="#4fc1e9"/>
      <path id="Path_1004084" data-name="Path 1004084" d="M319.677,279.839A7.839,7.839,0,1,1,311.839,272,7.839,7.839,0,0,1,319.677,279.839Zm0,0" transform="translate(-270.904 -242.387)" fill="#fcd770"/>
      <path id="Path_1004085" data-name="Path 1004085" d="M276.441,233.742H298.12a3.468,3.468,0,0,0-3-1.742H279.441a3.468,3.468,0,0,0-3,1.742Zm0,0" transform="translate(-246.345 -206.742)" fill="#3bafda"/>
      <path id="Path_1004086" data-name="Path 1004086" d="M264,200h24.387v3.484H264Zm0,0" transform="translate(-235.258 -178.226)" fill="#dfb28b"/>
      <path id="Path_1004087" data-name="Path 1004087" d="M280,171.484l.871-3.484h19.161l.871,3.484Zm0,0" transform="translate(-249.516 -149.71)" fill="#dfb28b"/>
      <path id="Path_1004088" data-name="Path 1004088" d="M288.548,456H272a3.484,3.484,0,0,0,3.484,3.484h15.677A3.484,3.484,0,0,0,294.645,456Zm0,0" transform="translate(-242.387 -406.355)" fill="#3bafda"/>
      <path id="Path_1004089" data-name="Path 1004089" d="M40,406.1a3.484,3.484,0,0,0,6.968,0V400H40Zm0,0" transform="translate(-35.646 -356.452)" fill="#e6e9ed"/>
      <path id="Path_1004090" data-name="Path 1004090" d="M18.452,18.452V8H16.71L8,16.71v1.742Zm0,0" transform="translate(-7.129 -7.129)" fill="#ccd1d9"/>
      <path id="Path_1004091" data-name="Path 1004091" d="M16.71,8v8.71H8Zm0,0" transform="translate(-7.129 -7.129)" fill="#ffc729"/>
      <path id="Path_1004092" data-name="Path 1004092" d="M40,400h6.968v3.484H40Zm0,0" transform="translate(-35.646 -356.452)" fill="#ffc729"/>
      <path id="Path_1004093" data-name="Path 1004093" d="M41.742,143.839H40V136H60.9v7.839Zm0,0" transform="translate(-35.646 -121.194)" fill="#fcd770"/>
      <path id="Path_1004094" data-name="Path 1004094" d="M43.484,184,40,190.1h6.968Zm0,0" transform="translate(-35.646 -163.968)" fill="#ecc19c"/>
      <path id="Path_1004095" data-name="Path 1004095" d="M40,240h6.968v17.419H40Zm0,0" transform="translate(-35.646 -213.871)" fill="#b4dd7f"/>
      <path id="Path_1004096" data-name="Path 1004096" d="M280.435,184,280,185.742h20.9L300.468,184Zm0,0" transform="translate(-249.516 -163.968)" fill="#cf9e76"/>
      <path id="Path_1004097" data-name="Path 1004097" d="M348.355,303.839h-1.742a.872.872,0,0,1-.871-.871H344a2.616,2.616,0,0,0,2.613,2.613v.871h1.742v-.871a2.613,2.613,0,1,0,0-5.226h-1.742a.871.871,0,0,1,0-1.742h1.742a.872.872,0,0,1,.871.871h1.742a2.616,2.616,0,0,0-2.613-2.613V296h-1.742v.871a2.613,2.613,0,1,0,0,5.226h1.742a.871.871,0,0,1,0,1.742Zm0,0" transform="translate(-306.549 -263.774)"/>
      <path id="Path_1004098" data-name="Path 1004098" d="M54,20.9H52.066l-.87-3.484H33.1V0H9.22L0,9.22V41.806H3.483v7.839a4.355,4.355,0,0,0,8.71,0V41.806H28.742v7.839A4.36,4.36,0,0,0,33.1,54H48.774a4.36,4.36,0,0,0,4.355-4.355v-20.9a4.311,4.311,0,0,0-.894-2.613H54Zm-3.728,0H31.6l.437-1.742h17.8ZM8.709,2.973V8.71H2.973Zm-3.484,18.8v-6.1H24.387v6.1H9.837l-2-3.5-2,3.5Zm2.613.014,1.983,3.47H5.855ZM5.225,44.419h5.226v1.742H5.225Zm3.484-1.742V27h1.742V42.677ZM5.225,27H6.967V42.677H5.225ZM7.838,52.258a2.616,2.616,0,0,1-2.613-2.613V47.9h5.226v1.742A2.616,2.616,0,0,1,7.838,52.258Zm4.355-12.194V25.9l-1.36-2.381h15.3V13.935H3.484v9.581h1.36L3.484,25.9V40.064H1.742V10.452h8.71V1.742h20.9V17.419h-.68L29.8,20.9H27.871v5.226h1.764a4.311,4.311,0,0,0-.894,2.613V40.064ZM51.387,28.742V48.774H47.9v1.742h3.324a2.609,2.609,0,0,1-2.453,1.742H33.1a2.609,2.609,0,0,1-2.453-1.742H46.161V48.774H30.483V28.742A2.616,2.616,0,0,1,33.1,26.129H48.774a2.616,2.616,0,0,1,2.613,2.613Zm.871-4.355H29.613V22.645H52.258Zm0,0"/>
      <path id="Path_1004099" data-name="Path 1004099" d="M128,272h12.194v1.742H128Zm0,0" transform="translate(-114.065 -242.387)"/>
      <path id="Path_1004100" data-name="Path 1004100" d="M128,304h12.194v1.742H128Zm0,0" transform="translate(-114.065 -270.903)"/>
      <path id="Path_1004101" data-name="Path 1004101" d="M176,336h1.742v1.742H176Zm0,0" transform="translate(-156.839 -299.419)"/>
      <path id="Path_1004102" data-name="Path 1004102" d="M208,336h1.742v1.742H208Zm0,0" transform="translate(-185.355 -299.419)"/>
      <path id="Path_1004103" data-name="Path 1004103" d="M144,336h1.742v1.742H144Zm0,0" transform="translate(-128.323 -299.419)"/>
      <path id="Path_1004104" data-name="Path 1004104" d="M112,32h7.839v1.742H112Zm0,0" transform="translate(-99.807 -28.516)"/>
      <path id="Path_1004105" data-name="Path 1004105" d="M200,32h7.839v1.742H200Zm0,0" transform="translate(-178.226 -28.516)"/>
      <path id="Path_1004106" data-name="Path 1004106" d="M112,64h17.419v1.742H112Zm0,0" transform="translate(-99.807 -57.032)"/>
      <path id="Path_1004107" data-name="Path 1004107" d="M112,96h17.419v1.742H112Zm0,0" transform="translate(-99.807 -85.548)"/>
      <path id="Path_1004108" data-name="Path 1004108" d="M128,240h12.194v1.742H128Zm0,0" transform="translate(-114.065 -213.871)"/>
      <path id="Path_1004109" data-name="Path 1004109" d="M304.71,281.419a8.71,8.71,0,1,0-8.71-8.71A8.719,8.719,0,0,0,304.71,281.419Zm0-15.677a6.968,6.968,0,1,1-6.968,6.968A6.976,6.976,0,0,1,304.71,265.742Zm0,0" transform="translate(-263.775 -235.258)"/>
    </g>
  </g>
</svg>
