<svg xmlns="http://www.w3.org/2000/svg" width="96" height="96" viewBox="0 0 96 96">
  <g id="img15" transform="translate(-383.711 -8400)">
    <path id="Path_997400" data-name="Path 997400" d="M48,0A48,48,0,1,1,0,48,48,48,0,0,1,48,0Z" transform="translate(383.711 8400)" fill="#ff9a1a"/>
    <g id="Group_1179369" data-name="Group 1179369" transform="translate(399.711 8416)">
      <path id="Path_1003080" data-name="Path 1003080" d="M42.838,46.318A20.619,20.619,0,0,0,51.5,29.388,20.871,20.871,0,0,0,45.127,14.31,18.936,18.936,0,0,0,31.065,9.022C21.194,9.5,13.052,17.964,12.528,28.28A20.543,20.543,0,0,0,21.2,46.344,1.413,1.413,0,0,1,21.75,47.5v1.95A1.989,1.989,0,0,0,21,51v2a2,2,0,0,0,2,2v1a3,3,0,0,0,2,2.816v.517A3.545,3.545,0,0,0,28.4,63h7.2A3.545,3.545,0,0,0,39,59.333v-.517A3,3,0,0,0,41,56V55a2,2,0,0,0,2-2V51a1.989,1.989,0,0,0-.75-1.549V47.567a1.523,1.523,0,0,1,.588-1.249ZM14.525,28.382c.472-9.3,7.78-16.929,16.637-17.361a16.887,16.887,0,0,1,12.585,4.738A18.862,18.862,0,0,1,49.5,29.388,18.615,18.615,0,0,1,41.69,44.68a3.5,3.5,0,0,0-1.44,2.888V49H23.75V47.5a3.39,3.39,0,0,0-1.408-2.8,18.556,18.556,0,0,1-7.817-16.321ZM35.6,61H28.4A1.553,1.553,0,0,1,27,59.333V59H37v.333A1.553,1.553,0,0,1,35.6,61ZM39,56a1,1,0,0,1-1,1H26a1,1,0,0,1-1-1V55H39ZM23,53V51H41v2Z" fill="#593609"/>
      <path id="Path_1003081" data-name="Path 1003081" d="M31,1h2V6H31Z" fill="#593609"/>
      <path id="Path_1003082" data-name="Path 1003082" d="M54,27h5v2H54Z" fill="#593609"/>
      <path id="Path_1003083" data-name="Path 1003083" d="M5,27h5v2H5Z" fill="#593609"/>
      <path id="Path_1003084" data-name="Path 1003084" d="M13.676,8.176h2v5h-2Z" transform="translate(-3.25 13.506) rotate(-45)" fill="#593609"/>
      <path id="Path_1003085" data-name="Path 1003085" d="M46.824,9.676h5v2h-5Z" transform="translate(6.896 38.001) rotate(-45)" fill="#593609"/>
      <path id="Path_1003086" data-name="Path 1003086" d="M30.755,39.917A1,1,0,0,0,31,39.262V18.738a1,1,0,0,0-.245-.655A6.255,6.255,0,0,0,26,16c-3.309,0-6,2.371-6,5.286a4.037,4.037,0,0,0,.039.554A5.157,5.157,0,0,0,17,26.429a4.82,4.82,0,0,0,1.06,3,4.82,4.82,0,0,0-1.06,3,5.192,5.192,0,0,0,3.009,4.584C20.186,39.789,22.806,42,26,42a6.255,6.255,0,0,0,4.755-2.083Zm-8.716-3,1.255-.807H25v-2H23a1,1,0,0,0-.541.159l-1.509.971A3.225,3.225,0,0,1,19,32.429a2.989,2.989,0,0,1,1.093-2.247c.023-.02.032-.05.053-.071H23v-2H19.58A2.833,2.833,0,0,1,19,26.429a3.225,3.225,0,0,1,2.053-2.851l1.24,1.24A1,1,0,0,0,23,25.11h2v-2H23.414l-1.355-1.355A2.279,2.279,0,0,1,22,21.286C22,19.475,23.794,18,26,18a4.332,4.332,0,0,1,3,1.138V38.862A4.332,4.332,0,0,1,26,40a3.737,3.737,0,0,1-3.961-3.082Z" fill="#593609"/>
      <path id="Path_1003087" data-name="Path 1003087" d="M33.895,41.937a11.412,11.412,0,0,0,1.2.063h.157a11.7,11.7,0,0,0,3.131-.486,1,1,0,0,0,.718-.959V39.106a.587.587,0,0,1,.258-.523,9.824,9.824,0,0,0,1.493-.914.4.4,0,0,1,.442.009l1.178.724a1,1,0,0,0,1.247-.161,13.184,13.184,0,0,0,3.255-6,1,1,0,0,0-.448-1.089l-1.482-.91a10.587,10.587,0,0,0,0-2.486l1.482-.911a1,1,0,0,0,.448-1.088,13.186,13.186,0,0,0-3.249-6,1,1,0,0,0-1.247-.161l-1.184.727a.4.4,0,0,1-.442.01,9.8,9.8,0,0,0-1.493-.915.587.587,0,0,1-.258-.524V17.44a1,1,0,0,0-.718-.959A11.611,11.611,0,0,0,34.934,16c-.351,0-.7.026-1.04.063a1,1,0,0,0-.894.994v7.6a1,1,0,0,0,1.291.957,2.746,2.746,0,0,1,.8-.119A3.319,3.319,0,0,1,38.182,29a3.319,3.319,0,0,1-3.091,3.5,2.746,2.746,0,0,1-.8-.119,1,1,0,0,0-1.29.957v7.6a1,1,0,0,0,.895.994ZM35,34.5h.091A5.314,5.314,0,0,0,40.182,29a5.314,5.314,0,0,0-5.091-5.5H35V18a10.034,10.034,0,0,1,2.1.217v.676a2.572,2.572,0,0,0,1.369,2.315,7.81,7.81,0,0,1,1.19.73,2.383,2.383,0,0,0,2.681.088l.469-.288a11.205,11.205,0,0,1,2.028,3.8l-1.4.862a1,1,0,0,0-.462,1.022,8.827,8.827,0,0,1,0,3.16,1,1,0,0,0,.462,1.023l1.4.861A11.179,11.179,0,0,1,42.8,36.258l-.464-.285a2.385,2.385,0,0,0-2.681.09,7.835,7.835,0,0,1-1.19.729A2.572,2.572,0,0,0,37.1,39.106v.672A9.406,9.406,0,0,1,35.221,40H35Z" fill="#593609"/>
      <path id="Path_1003088" data-name="Path 1003088" d="M26,23.11h2v2H26Z" fill="#593609"/>
      <path id="Path_1003089" data-name="Path 1003089" d="M26,34.11h2v2H26Z" fill="#593609"/>
      <path id="Path_1003090" data-name="Path 1003090" d="M24,28.11h2v2H24Z" fill="#593609"/>
    </g>
  </g>
</svg>
