<svg xmlns="http://www.w3.org/2000/svg" width="70" height="70" viewBox="0 0 70 70">
  <g id="img21" transform="translate(-209.711 -1798)">
    <rect id="Rectangle_455559" data-name="Rectangle 455559" width="70" height="70" rx="10" transform="translate(209.711 1798)" fill="#ff9a1a"/>
    <g id="Group_1181246" data-name="Group 1181246" transform="translate(172.873 1805.23)">
      <g id="Group_1181245" data-name="Group 1181245" transform="translate(50.545 0.814)">
        <path id="Path_1007929" data-name="Path 1007929" d="M341.747,37.766h-8.887c-4.643-2.124-4.738-10.141-.415-11.386h9.121a1.15,1.15,0,0,1,.707,2.057l-4.4,3.432,4.613,3.865A1.15,1.15,0,0,1,341.747,37.766Z" transform="translate(-299.776 -24.332)" fill="#fd7a6e"/>
        <path id="Path_1007930" data-name="Path 1007930" d="M276.287,37.766H265.831V26.38h10.041C272.834,29.971,274.312,35.472,276.287,37.766Z" transform="translate(-243.203 -24.332)" fill="#f85647"/>
        <path id="Path_1007931" data-name="Path 1007931" d="M237.478,421.664h1.937a1.4,1.4,0,0,0,1.4-1.4v-8.68h-4.736v8.68A1.4,1.4,0,0,0,237.478,421.664Z" transform="translate(-216.678 -367.749)" fill="#7b849b"/>
        <g id="Group_1181244" data-name="Group 1181244" transform="translate(0 12.581)">
          <g id="Group_1181242" data-name="Group 1181242">
            <path id="Path_1007932" data-name="Path 1007932" d="M66.8,189.9v-11.8H59.56a2.325,2.325,0,0,0-2.325,2.325v7.146A2.325,2.325,0,0,0,59.56,189.9Z" transform="translate(-57.235 -172.182)" fill="#736acc"/>
            <path id="Path_1007933" data-name="Path 1007933" d="M230.157,161.818l-1.877,0a2.018,2.018,0,1,1,0,4.035h-1.124a2.018,2.018,0,0,1-.037,4.035l-4.274,1.891-.306-.118.306-1.457c-5.62-2.3-3.919-13.994-2.489-17.286l5.186.825h2.738a2.018,2.018,0,0,1,.067,4.034h1.809a2.018,2.018,0,0,1,0,4.035Z" transform="translate(-201.406 -149.729)" fill="#ffddcf"/>
            <path id="Path_1007934" data-name="Path 1007934" d="M178.209,143.959l-.306,1.457-4.588-1.773a5.179,5.179,0,0,1-4.335-2.343l-.1-12.594a14.836,14.836,0,0,1,3.5-3.791,6.831,6.831,0,0,1,4.146-1.435c.729.575,3.087,2.695,4.377,4.019h-4.735C174.741,130.791,174.538,140.24,178.209,143.959Z" transform="translate(-156.77 -123.479)" fill="#ffcbbe"/>
            <path id="Path_1007935" data-name="Path 1007935" d="M138.5,172.75V160.725a1.987,1.987,0,0,1,3.975,0V172.75a1.987,1.987,0,0,1-3.975,0Z" transform="translate(-129.687 -154.913)" fill="#c5cff1"/>
          </g>
          <g id="Group_1181243" data-name="Group 1181243" transform="translate(12.111 19.954)">
            <path id="Path_1007936" data-name="Path 1007936" d="M364.346,338.591v-11.8h7.239a2.325,2.325,0,0,1,2.325,2.325v7.146a2.325,2.325,0,0,1-2.325,2.325Z" transform="translate(-343.142 -324.693)" fill="#73da8c"/>
            <path id="Path_1007937" data-name="Path 1007937" d="M249.344,310.507l-.1,12.6a5.178,5.178,0,0,1-4.335,2.342H243c-5.425-2.441-6.352-14.238-2.238-16.134l3.526.005C245.786,309.315,248.663,309.3,249.344,310.507Z" transform="translate(-230.686 -309.105)" fill="#db9e82"/>
            <path id="Path_1007938" data-name="Path 1007938" d="M181.2,325.364h-7.259a2.017,2.017,0,0,1-.037-4.034h-1.124a2.018,2.018,0,0,1,0-4.035l-1.877-.005a2.018,2.018,0,0,1,0-4.035h1.809a2.017,2.017,0,0,1,.067-4.033l6.182.01C176.057,313.411,178.218,322.385,181.2,325.364Z" transform="translate(-168.881 -309.025)" fill="#c8866a"/>
            <path id="Path_1007939" data-name="Path 1007939" d="M338.584,321.435V309.41a1.987,1.987,0,1,0-3.975,0v12.024a1.987,1.987,0,1,0,3.975,0Z" transform="translate(-316.631 -307.423)" fill="#e8ecf9"/>
          </g>
        </g>
        <path id="Path_1007940" data-name="Path 1007940" d="M236.078,24.1h4.736V9.048A1.548,1.548,0,0,0,239.266,7.5h-1.64a1.548,1.548,0,0,0-1.548,1.548V24.1Z" transform="translate(-216.677 -7.5)" fill="#7b849b"/>
      </g>
      <path id="Path_1007941" data-name="Path 1007941" d="M92.516,15.061a1.964,1.964,0,0,0,1.261-3.469L89.936,8.373,93.543,5.56a1.964,1.964,0,0,0-1.208-3.512H83.212a.814.814,0,1,0,0,1.627h9.123a.337.337,0,0,1,.207.6l-4.4,3.432a.814.814,0,0,0-.022,1.265l4.613,3.865a.337.337,0,0,1-.216.595H75.5V3.675h3.92a.814.814,0,1,0,0-1.627H75.474A2.365,2.365,0,0,0,73.134,0h-1.64a2.364,2.364,0,0,0-2.361,2.361v10.3a7.751,7.751,0,0,0-3.47,1.518,17.686,17.686,0,0,0-2.767,2.689,2.8,2.8,0,0,0-4.259,1.634H52.87a3.143,3.143,0,0,0-3.139,3.139v7.146a3.143,3.143,0,0,0,3.139,3.139h5.765a2.8,2.8,0,0,0,4.786,1.181,6.023,6.023,0,0,0,.973.616,2.84,2.84,0,0,0-.375,3.111,2.832,2.832,0,0,0,.007,5.513,2.83,2.83,0,0,0,1.282,3.827,2.8,2.8,0,0,0-.429,1.491A2.835,2.835,0,0,0,67.711,50.5h1.421v2.827a2.215,2.215,0,0,0,2.213,2.213h1.937A2.215,2.215,0,0,0,75.5,53.329V50.5h1.384a6,6,0,0,0,3.668-1.26,2.8,2.8,0,0,0,4.786-1.181H91.1a3.143,3.143,0,0,0,3.139-3.139V43.99a.814.814,0,0,0-1.627,0v.931A1.513,1.513,0,0,1,91.1,46.434H85.422V36.264H91.1a1.513,1.513,0,0,1,1.512,1.512v2.418a.814.814,0,0,0,1.627,0V37.776A3.143,3.143,0,0,0,91.1,34.637H85.335a2.8,2.8,0,0,0-4.621-1.349,7.253,7.253,0,0,0-1.94-.446,2.819,2.819,0,0,0-.113-2.792,2.83,2.83,0,0,0,1.281-3.828,2.832,2.832,0,0,0,.007-5.512,2.838,2.838,0,0,0-2.531-4.11H75.5V15.061ZM51.358,28.792V21.646a1.513,1.513,0,0,1,1.512-1.512h5.677V30.3H52.87A1.513,1.513,0,0,1,51.358,28.792Zm9.99,3.613a1.175,1.175,0,0,1-1.174-1.174V19.207a1.174,1.174,0,1,1,2.348,0V31.232a1.175,1.175,0,0,1-1.174,1.174Zm12.52,20.923a.586.586,0,0,1-.586.586H71.345a.586.586,0,0,1-.586-.586V50.5h3.109v2.827Zm3.011-4.454H67.711a1.2,1.2,0,0,1-.024-2.407h.931a.814.814,0,1,0,0-1.627H66.551a1.2,1.2,0,0,1,0-2.408h2.068a.814.814,0,1,0,0-1.627l-3.945,0a1.2,1.2,0,0,1,0-2.408h3.945a.814.814,0,1,0,0-1.627H66.5a1.2,1.2,0,0,1-1.158-1.2,1.221,1.221,0,0,1,1.345-1.2c.132.009,9.567.015,9.567.015a13.535,13.535,0,0,1,3.633.341,2.8,2.8,0,0,0-.071.624V47.361a2.819,2.819,0,0,0,.022.348,4.371,4.371,0,0,1-2.964,1.165Zm5.742-14.712A1.179,1.179,0,0,1,83.8,35.337V47.361a1.174,1.174,0,1,1-2.347,0V35.337A1.178,1.178,0,0,1,82.621,34.163Zm-4-14.731a1.2,1.2,0,0,1-1.158,1.2H75.351a.814.814,0,0,0,0,1.627H79.3a1.2,1.2,0,1,1,0,2.408l-3.943,0a.814.814,0,0,0,0,1.627h2.068a1.2,1.2,0,1,1,0,2.408H75.351a.814.814,0,1,0,0,1.627h.931a1.209,1.209,0,0,1,1.18,1.2,1.2,1.2,0,0,1-1.2,1.2H67.24a4.427,4.427,0,0,1-3.113-1.165,2.818,2.818,0,0,0,.022-.348V19.207a2.784,2.784,0,0,0-.2-1.043,15.959,15.959,0,0,1,2.706-2.689,6.172,6.172,0,0,1,2.479-1.157v3.1a.814.814,0,0,0,.814.814h7.473A1.206,1.206,0,0,1,78.623,19.432ZM70.759,16.6V2.361a.735.735,0,0,1,.734-.734h1.64a.735.735,0,0,1,.734.734V16.6Z" transform="translate(0 0)"/>
    </g>
  </g>
</svg>
