<svg xmlns="http://www.w3.org/2000/svg" width="84" height="84" viewBox="0 0 84 84">
  <g id="img2" transform="translate(-185.711 -616)">
    <rect id="Rectangle_455495" data-name="Rectangle 455495" width="84" height="84" rx="10" transform="translate(185.711 616)" fill="#ff9a1a"/>
    <g id="Group_1181196" data-name="Group 1181196" transform="translate(196.71 626.998)">
      <g id="Group_1181194" data-name="Group 1181194" transform="translate(0.924 0.925)">
        <path id="Path_1007616" data-name="Path 1007616" d="M152.833,402.8a13.8,13.8,0,0,0,9.84-1.982l-2.5-2.794C160.056,398.172,154.732,402.79,152.833,402.8Z" transform="translate(-134.951 -349.972)" fill="#d16161"/>
        <path id="Path_1007617" data-name="Path 1007617" d="M192.295,400.073q1.114,1.04,2.428,2.051a12.81,12.81,0,0,0,2.556-1.309l-2.5-2.794C194.728,398.089,193.647,399.038,192.295,400.073Z" transform="translate(-169.558 -349.972)" fill="#ae3030"/>
        <path id="Path_1007618" data-name="Path 1007618" d="M105.268,359.457q.188-.235.365-.46l-4.9-5.475-10.1,7.609a23.5,23.5,0,0,0,7.652,2.642C100.191,363.764,103.2,362.045,105.268,359.457Z" transform="translate(-80.41 -310.946)" fill="#eec06b"/>
        <path id="Path_1007619" data-name="Path 1007619" d="M161.976,359.457q.188-.235.365-.46l-4.9-5.475-2.141,1.613.06.232a22.258,22.258,0,0,0,4.793,5.959A13.765,13.765,0,0,0,161.976,359.457Z" transform="translate(-137.118 -310.946)" fill="#e69642"/>
        <path id="Path_1007620" data-name="Path 1007620" d="M50.27,166.315l-5.588-4.193s-.2,1.295-.432,3.43l1.287,3.123-1.612.262c-.23,2.769-.423,6.157-.423,9.727,0,8.828,1.717,12.392,5.8,14.617a7.262,7.262,0,0,0,6.173.113C52.387,191.41,50.27,166.315,50.27,166.315Z" transform="translate(-39.072 -143.097)" fill="#f8e883"/>
        <path id="Path_1007621" data-name="Path 1007621" d="M53.015,194.314,47.262,190c-.106.969-.22,2.112-.325,3.385l5.887,4.417Z" transform="translate(-42.085 -167.543)" fill="#eec06b"/>
        <path id="Path_1007622" data-name="Path 1007622" d="M97.584,198.8l-3.467-2.6s-.128,1.39-.267,3.553l1.088,2.663-1.279.823c-.09,2-.158,4.26-.158,6.54,0,8.828,2.733,11.516,5.821,13.5a13.875,13.875,0,0,0,3.561-2.058C99.7,219.563,97.584,198.8,97.584,198.8Z" transform="translate(-82.92 -172.98)" fill="#5a86cc"/>
        <path id="Path_1007623" data-name="Path 1007623" d="M98.524,227.741l-3.549-2.663c-.065,1.013-.133,2.2-.191,3.486l3.6,2.7Z" transform="translate(-84.045 -198.307)" fill="#3b68b0"/>
        <path id="Path_1007624" data-name="Path 1007624" d="M123.893,217.338s-.091,1.536-.185,3.615l1.162,2.267-1.3,1.259c-.041,1.327-.07,2.664-.07,3.837,0,7.008,2.509,9.785,5.69,11.441a14.765,14.765,0,0,0,2.381-2.34l-4.333-17.569Z" transform="translate(-109.229 -191.519)" fill="#d97b7b"/>
        <path id="Path_1007625" data-name="Path 1007625" d="M128.657,232.335,126.6,230.79c-.167.8-.387,1.979-.562,3.332l-1.829-1.372c-.049,1.076-.1,2.3-.137,3.526l1.69,1.268c-.006.218-.009.436-.009.654a19.082,19.082,0,0,0,4.5,12.892,14.445,14.445,0,0,0,1.82-1.876Z" transform="translate(-109.727 -203.316)" fill="#d16161"/>
        <path id="Path_1007626" data-name="Path 1007626" d="M289.041,402.8a13.8,13.8,0,0,1-9.84-1.982l2.5-2.794C281.817,398.172,287.141,402.79,289.041,402.8Z" transform="translate(-245.771 -349.972)" fill="#d16161"/>
        <path id="Path_1007627" data-name="Path 1007627" d="M299.871,359.457q-.188-.235-.365-.46l4.9-5.475,10.1,7.609a23.5,23.5,0,0,1-7.652,2.642C304.948,363.764,301.943,362.045,299.871,359.457Z" transform="translate(-263.577 -310.946)" fill="#eec06b"/>
        <path id="Path_1007628" data-name="Path 1007628" d="M376.4,166.315l5.588-4.193s.2,1.295.431,3.43l-1.287,3.123,1.612.262c.23,2.769.423,6.157.423,9.727,0,8.828-1.717,12.392-5.8,14.617a7.262,7.262,0,0,1-6.173.113C374.283,191.41,376.4,166.315,376.4,166.315Z" transform="translate(-326.446 -143.097)" fill="#f8e883"/>
        <path id="Path_1007629" data-name="Path 1007629" d="M415.668,194.314,421.421,190c.106.969.219,2.112.325,3.385l-5.887,4.417Z" transform="translate(-365.446 -167.543)" fill="#eec06b"/>
        <path id="Path_1007630" data-name="Path 1007630" d="M347.557,198.8l3.467-2.6s.128,1.39.267,3.553l-1.088,2.663,1.279.823c.09,2,.158,4.26.158,6.54,0,8.828-2.733,11.516-5.821,13.5a13.875,13.875,0,0,1-3.561-2.058C345.439,219.563,347.557,198.8,347.557,198.8Z" transform="translate(-301.069 -172.98)" fill="#5a86cc"/>
        <path id="Path_1007631" data-name="Path 1007631" d="M386.825,227.741l3.549-2.663c.065,1.013.133,2.2.191,3.486l-3.6,2.7Z" transform="translate(-340.152 -198.307)" fill="#3b68b0"/>
        <path id="Path_1007632" data-name="Path 1007632" d="M329.648,223.263l1.125-2.31c-.094-2.079-.185-3.615-.185-3.615l-4.265,3.2-3.414,16.879a14.753,14.753,0,0,0,2.381,2.34c3.181-1.656,5.69-4.433,5.69-11.441,0-1.173-.028-2.51-.07-3.837Z" transform="translate(-284.1 -191.519)" fill="#d97b7b"/>
        <path id="Path_1007633" data-name="Path 1007633" d="M358.243,249.278l-.12,3.719,3.668-2.752c-.038-1.229-.088-2.451-.137-3.526Z" transform="translate(-314.982 -217.284)" fill="#d16161"/>
        <path id="Path_1007634" data-name="Path 1007634" d="M206.108,420.727l-3.746,6.895a6.943,6.943,0,0,0,3.982,3.032l3.179-9.927Z" transform="translate(-178.386 -369.883)" fill="#f8e883"/>
        <path id="Path_1007635" data-name="Path 1007635" d="M222.719,423.01q.83.591,1.731,1.178a1.07,1.07,0,0,0,1.094.046c.3-.165.6-.343.877-.527l.955-2.981H223.96Z" transform="translate(-196.238 -369.882)" fill="#eec06b"/>
        <path id="Path_1007636" data-name="Path 1007636" d="M258.6,427.622l-3.746-6.895h-3.415l3.179,9.927A6.943,6.943,0,0,0,258.6,427.622Z" transform="translate(-221.429 -369.883)" fill="#d97b7b"/>
        <path id="Path_1007637" data-name="Path 1007637" d="M251.444,420.727l.81,2.529a12.651,12.651,0,0,0,2.605-2.529Z" transform="translate(-221.429 -369.883)" fill="#d16161"/>
        <path id="Path_1007638" data-name="Path 1007638" d="M236.779,420.727l-2.058,9.927a9.192,9.192,0,0,0,5.237,0l-2.058-9.927Z" transform="translate(-206.764 -369.883)" fill="#5a86cc"/>
        <path id="Path_1007639" data-name="Path 1007639" d="M245.521,424.243l.018-.008a13.264,13.264,0,0,0,2.238-1.55l-.406-1.957H246.25Z" transform="translate(-216.235 -369.883)" fill="#3b68b0"/>
        <path id="Path_1007640" data-name="Path 1007640" d="M230.361,7.5a3.994,3.994,0,0,0-1.533.378l-2.1,1.344s1.813,3.7,2.468,4.035,3.777-1.771,3.777-1.771V10.112a2.61,2.61,0,0,0-2.61-2.61Z" transform="translate(-199.751 -7.502)" fill="#f5deb2"/>
        <path id="Path_1007641" data-name="Path 1007641" d="M219.862,24.443V23.61a2.222,2.222,0,0,0-2.468-2.108c-1.1.7-1.824,1.745-.857,3.753a3.863,3.863,0,0,1,3.153,2.179l0,.008,3.945-1.928V23.767a9.911,9.911,0,0,0-3.111,1.066A.447.447,0,0,1,219.862,24.443Z" transform="translate(-190.42 -19.779)" fill="#f4c497"/>
        <path id="Path_1007642" data-name="Path 1007642" d="M57.917,34.044c6.07,0,11.072-4.577,11.072-4.577l6.8,2.615,4.991-4.76L66.867,21.972A6.9,6.9,0,0,0,64.4,21.5a4.035,4.035,0,0,0-4.035,4.034,4.036,4.036,0,0,1-4.035,4.037H48.039A4.036,4.036,0,0,1,44,25.535,4.035,4.035,0,0,0,39.968,21.5a6.894,6.894,0,0,0-2.469.471L23.586,27.321l4.991,4.76,6.8-2.615s5,4.577,11.072,4.577H57.917Z" transform="translate(-21.607 -19.779)" fill="#ab7b64"/>
        <path id="Path_1007643" data-name="Path 1007643" d="M42.961,74.42a12.088,12.088,0,0,0,7.683-2.4l2.17-1.628a1.755,1.755,0,0,1,1.694-.23l6.808,2.666,5.36-4.022,1.979.761L61.684,74.8l-6.8-2.615L51.931,74.4a12.441,12.441,0,0,1-7.723,2.525H31.948A12.441,12.441,0,0,1,24.225,74.4l-2.953-2.215-6.8,2.615L7.5,69.566,9.481,68.8l5.36,4.022,6.808-2.666a1.755,1.755,0,0,1,1.694.23l2.17,1.628a12.088,12.088,0,0,0,7.683,2.4Z" transform="translate(-7.502 -61.262)" fill="#8c5e5e"/>
        <path id="Path_1007644" data-name="Path 1007644" d="M221.528,83.938c-.681,1.736-.372,6.423-.189,9.125l10.006-2.447c.351-4.816.625-7.728-3.3-11.653C224.922,78.962,222.443,81.6,221.528,83.938Z" transform="translate(-194.825 -70.169)" fill="#ab7b64"/>
        <path id="Path_1007645" data-name="Path 1007645" d="M209.31,69.1c-.183-2.7-.321-5.222.361-6.957a9.473,9.473,0,0,1,5.286-4.976V54.108a12.387,12.387,0,0,0-3.945,1.928,11.173,11.173,0,0,0-1.341,1.13c-5.146,5.146-3.075,8.549-3.075,16.785h11.436c0-1.953.116-3.635.226-5.132a46.484,46.484,0,0,0-5.944.767S211.037,69.324,209.31,69.1Z" transform="translate(-181.737 -48.374)" fill="#8c5e5e"/>
        <path id="Path_1007646" data-name="Path 1007646" d="M189.356,215.4a39.922,39.922,0,0,0-1.093-8.5,16.67,16.67,0,0,1-11.614,0,16.664,16.664,0,0,1-9.55.619c-.313,1.646-2.856,7.783-.769,13.73s7.044,9.875,10.225,12.18c5.771-1.67,10.51-8.409,10.577-8.487v0l2.2-8.49Q189.355,215.935,189.356,215.4Z" transform="translate(-146.073 -182.367)" fill="#80b6fc"/>
        <path id="Path_1007647" data-name="Path 1007647" d="M158.138,224.942a18.563,18.563,0,0,1-2.842-8.49c-.068-.738-.1-1.5-.1-2.279a37.253,37.253,0,0,1,.7-6.653,16.451,16.451,0,0,1-2.064-.619,39.922,39.922,0,0,0-1.093,8.5q0,.531.021,1.048l2.2,8.49c2.008,3.752,5.429,7,10.484,10.22,5.054-3.219,8.476-6.467,10.483-10.218-.064.074-4.039,5.143-9.262,7.446a1.373,1.373,0,0,1-1.29-.1A27.159,27.159,0,0,1,158.138,224.942Z" transform="translate(-134.863 -182.367)" fill="#5a86cc"/>
        <path id="Path_1007648" data-name="Path 1007648" d="M173.238,293.012h17.785a19.221,19.221,0,0,0,2.2-8.49H170.4c.145,1.58-.782,3.064-.311,4.472S172.423,291.735,173.238,293.012Z" transform="translate(-149.962 -250.437)" fill="#f3f1f4"/>
        <path id="Path_1007649" data-name="Path 1007649" d="M155.447,284.522H152.9a19.221,19.221,0,0,0,2.2,8.49h3.183A18.565,18.565,0,0,1,155.447,284.522Z" transform="translate(-135.013 -250.437)" fill="#c8c3ca"/>
        <path id="Path_1007650" data-name="Path 1007650" d="M277.922,255.232c0-1.2.467-2.19,1.4-2.19s2.471,1.895,3.245.364h0c-.384,1.387-.271,3.509-2.445,3.509A2.031,2.031,0,0,1,277.922,255.232Z" transform="translate(-244.649 -222.83)" fill="#eec06b"/>
        <path id="Path_1007651" data-name="Path 1007651" d="M200.958,255.232c0-1.2-.467-2.19-1.4-2.19s-2.471,1.895-3.245.364h0c.384,1.387.271,3.509,2.445,3.509A2.031,2.031,0,0,0,200.958,255.232Z" transform="translate(-173.08 -222.83)" fill="#eec06b"/>
        <path id="Path_1007652" data-name="Path 1007652" d="M238.512,289.321s-1.216-4.8-2.854-4.8-2.854,4.8-2.854,4.8Z" transform="translate(-205.082 -250.437)" fill="#d16161"/>
      </g>
      <g id="Group_1181195" data-name="Group 1181195" transform="translate(0.001 0.002)">
        <path id="Path_1007653" data-name="Path 1007653" d="M29.964,61.016a8.628,8.628,0,0,0,3.07,0l-1.326-6.4a.922.922,0,0,1-.418,0Zm-3.993-2.393A6.076,6.076,0,0,0,28.2,60.441l1.421-6.853q-.338-.229-.664-.458Zm7.408-5.035,1.42,6.85a6.121,6.121,0,0,0,2.227-1.816L34.044,53.13Q33.717,53.359,33.38,53.588Zm5.116-4.08c1.879,2.047,4.226,3.267,5.621,3.318a19.069,19.069,0,0,0,2.115-.442,12,12,0,0,1-1.345-.486,15.687,15.687,0,0,1-5.153-3.665q-.583.643-1.238,1.275ZM16.768,52.384a19.128,19.128,0,0,0,2.115.442c1.395-.051,3.741-1.271,5.62-3.318q-.655-.632-1.238-1.275A15.689,15.689,0,0,1,18.113,51.9,12.034,12.034,0,0,1,16.768,52.384Zm9.1-1.635a14.963,14.963,0,0,1-2.35,2.07A11.96,11.96,0,0,0,26.99,51.67Q26.408,51.211,25.869,50.749Zm10.14.921a11.949,11.949,0,0,0,3.471,1.148,14.962,14.962,0,0,1-2.349-2.07q-.539.462-1.121.921Zm-6.794-.628q1.075.792,2.285,1.579,1.211-.788,2.285-1.579l.044-.032q1.325-.979,2.449-1.971c-1.072-.859-2.517-.964-4.737-.389a14.257,14.257,0,0,1-4.79.412q1.113.982,2.422,1.948l.044.032ZM6.569,28.513c-.168,2.4-.293,5.135-.293,7.978,0,9.123,1.95,11.971,5.319,13.807a5.616,5.616,0,0,0,3.633.551,10.877,10.877,0,0,1-2.785-3.38c-1.251-2.368-1.859-5.556-1.859-9.747,0-2.1.058-4.2.138-6.094Zm5.946,4.461c-.053,1.517-.087,3.13-.087,4.747,0,8.151,2.321,10.664,5,12.465a12.551,12.551,0,0,0,1.76-.949c-2.5-1.664-4.917-4.667-4.917-11.515,0-1.038.022-2.207.056-3.386ZM43.808,49.237a12.563,12.563,0,0,0,1.76.949c2.681-1.8,5-4.314,5-12.465,0-1.617-.035-3.23-.087-4.747l-1.814,1.361c.034,1.179.056,2.348.056,3.386C48.725,44.571,46.309,47.573,43.808,49.237ZM16.142,35.7c-.014.707-.023,1.391-.023,2.026,0,6.5,2.276,8.945,4.662,10.331a14.149,14.149,0,0,0,1.287-1.246q-.547-.708-1.02-1.437a19.388,19.388,0,0,1-2.981-8.229ZM40.93,46.806a14.181,14.181,0,0,0,1.287,1.246c2.387-1.386,4.662-3.834,4.662-10.331,0-.635-.008-1.319-.023-2.026L44.932,37.14a19.39,19.39,0,0,1-2.981,8.229Q41.477,46.1,40.93,46.806Zm-7.043-.354a5.482,5.482,0,0,1,3.739,1.314,21.454,21.454,0,0,0,2.735-3.343H22.638q.445.68.962,1.34c2.119,2.269,6.253,1.418,7.476,1.1a11.319,11.319,0,0,1,2.811-.412Zm-.04-10.519a16.342,16.342,0,0,1,1.4,3.649.923.923,0,0,1-.895,1.149H32.422v1.846h9a18.047,18.047,0,0,0,1.786-6.644ZM21.58,42.577h9V40.731H28.645a.923.923,0,0,1-.895-1.149,16.336,16.336,0,0,1,1.4-3.649H19.794A18.043,18.043,0,0,0,21.58,42.577Zm11.532-3.691c-.754-2.24-1.327-2.913-1.613-2.949-.286.036-.859.709-1.613,2.949Zm11.733-9.064a33.29,33.29,0,0,1,.284,4.139q0,.368-.01.73l1.675-1.257c-.062-1.858-.147-3.66-.211-4.917ZM16.2,33.435l1.675,1.257q-.01-.362-.01-.73a33.293,33.293,0,0,1,.284-4.139l-1.738-1.3C16.352,29.775,16.267,31.577,16.2,33.435Zm9.213-.462c.223.858.491,1.115,1.184,1.115.991,0,1.269-.647,1.279-.767,0-.7-.205-1.246-.469-1.261-.385,0-1.138.691-1.994.913Zm-5.7,1.115h4.128c-.217-.538-.472-2.027-.741-2.754-.025-.068-.073-.115-.366-.064a.923.923,0,1,1-.312-1.819,2.034,2.034,0,0,1,2.232.888c.158.246.215.714.372.833s.58-.259.8-.385a3.293,3.293,0,0,1,1.571-.572c1.391,0,2.325,1.251,2.325,3.113a2.081,2.081,0,0,1-.156.76h3.86a2.081,2.081,0,0,1-.156-.76c0-1.862.935-3.113,2.325-3.113a3.293,3.293,0,0,1,1.571.572c.22.125.644.5.8.385s.214-.587.372-.833a2.034,2.034,0,0,1,2.232-.888.923.923,0,0,1-.312,1.819c-.293-.05-.341,0-.366.064-.269.727-.524,2.217-.741,2.754h4.128c0-.042,0-.083,0-.126a37.873,37.873,0,0,0-.845-7.3A17.537,17.537,0,0,1,31.5,26.441a17.535,17.535,0,0,1-10.939.221,37.874,37.874,0,0,0-.845,7.3c0,.042,0,.084,0,.126h4.128c-.217-.538-.472-2.027-.741-2.754-.025-.068-.073-.115-.366-.064a.923.923,0,1,1-.312-1.819,2.034,2.034,0,0,1,2.232.888c.158.246.215.714.372.833s.58-.259.8-.385a3.293,3.293,0,0,1,1.571-.572c1.391,0,2.325,1.251,2.325,3.113a2.081,2.081,0,0,1-.156.76m6.019-2.028c-.264.015-.469.566-.469,1.261.01.119.288.767,1.279.767.692,0,.961-.256,1.184-1.115-.856-.222-1.609-.913-1.994-.913Zm-10.172.913c.223.858.491,1.115,1.184,1.115.991,0,1.269-.647,1.279-.767,0-.7-.205-1.246-.469-1.261-.385,0-1.138.691-1.994.913Zm22.944-5.788c.048.866.148,2.765.232,4.9l1.8-1.349c-.1-1.984-.21-3.686-.3-4.852ZM12.608,30.737l1.8,1.349c.083-2.137.184-4.036.232-4.9l-1.733-1.3C12.818,27.05,12.7,28.753,12.608,30.737Zm39.233-6.164c.069.826.205,2.583.328,4.829l4.09-3.068c-.172-1.976-.359-3.6-.5-4.7ZM6.74,26.334,10.829,29.4c.123-2.246.26-4,.328-4.829L7.236,21.631c-.138,1.1-.324,2.726-.5,4.7Zm19.673,27.61a14.5,14.5,0,0,1-5.154.91,23.061,23.061,0,0,1-10.547-2.936m35.225-28.43c-1.459-.262-4.271-1.236-7.1-1.236-.176,0-.354,0-.534.007-.069,1.01-.133,2.1-.156,3.3a15.684,15.684,0,0,0,4.641-.967.923.923,0,0,1,1.217.638c.021.084.267,1.064.523,2.518L61.522,15a.923.923,0,0,1,1.108,1.476l-5.172,3.88c.111.81.326,2.47.536,4.673l3.528-2.647a.923.923,0,0,1,1.108,1.476L58.183,27.2c.131,1.649.246,3.491.315,5.441a.923.923,0,0,1-1.845.066c-.052-1.472-.131-2.882-.223-4.191l-4.153,3.116c.08,1.894.138,3.99.138,6.094,0,4.191-.608,7.38-1.859,9.747a10.877,10.877,0,0,1-2.785,3.38A5.616,5.616,0,0,0,51.4,50.3c3.369-1.836,5.319-4.684,5.319-13.807a.923.923,0,0,1,1.846,0c0,4.542-.457,7.763-1.439,10.137a10.24,10.24,0,0,1-4.842,5.291,23.061,23.061,0,0,1-10.547,2.936,14.506,14.506,0,0,1-5.154-.91h0l2.324,4.278a.923.923,0,0,1,.008.866A8.221,8.221,0,0,1,31.5,63a8.221,8.221,0,0,1-7.419-3.911.923.923,0,0,1,.008-.866l2.324-4.278a14.5,14.5,0,0,1-5.154.91,23.061,23.061,0,0,1-10.547-2.936,10.239,10.239,0,0,1-4.842-5.291c-.982-2.374-1.439-5.6-1.439-10.137,0-3.369.173-6.593.387-9.293L.37,23.862a.923.923,0,1,1,1.108-1.476l3.529,2.647c.211-2.2.424-3.863.536-4.673L.37,16.48A.923.923,0,0,1,1.477,15L18.468,27.751c.256-1.454.5-2.434.523-2.518a.923.923,0,0,1,1.217-.638,15.679,15.679,0,0,0,4.641.967c-.023-1.218-.088-2.32-.156-3.3-.179,0-.357-.007-.534-.007-2.827,0-5.64.975-7.1,1.236a2.4,2.4,0,0,1-2.78-1.947,2.665,2.665,0,0,1,.929-2.3c.32-.354.511-.581.482-.748a.554.554,0,0,0-.642-.449l-3.712.654a.923.923,0,1,1-.32-1.818l3.712-.654a2.4,2.4,0,0,1,2.78,1.947,2.665,2.665,0,0,1-.929,2.3c-.32.354-.511.581-.482.748a.547.547,0,0,0,.642.449,50.811,50.811,0,0,1,6.938-1.254,8.8,8.8,0,0,1-1.6-3.266,12.931,12.931,0,0,1-5-2.36.923.923,0,1,1,1.121-1.466,11,11,0,0,0,3.514,1.822q-.062-.638-.063-1.308a11.646,11.646,0,0,1,1.139-5.2,4.971,4.971,0,0,1-.4-1.953A3.116,3.116,0,0,0,19.284,3.57a6.028,6.028,0,0,0-2.138.409L1.255,10.09A.923.923,0,0,1,.592,8.367L16.484,2.257a7.891,7.891,0,0,1,2.8-.532,4.964,4.964,0,0,1,4.958,4.934,4.514,4.514,0,0,1,1.552-.965A3.246,3.246,0,0,1,27.4,1.87L29.5.526A4.667,4.667,0,0,1,31.486,0h.047a3.536,3.536,0,0,1,3.533,3.533v2a7.339,7.339,0,0,1,.923-.06.923.923,0,1,1,0,1.846,5.76,5.76,0,0,0-.923.078V9.34c.151.157.45.455.579.455a3.116,3.116,0,0,0,3.113-3.113,4.964,4.964,0,0,1,4.958-4.958,7.894,7.894,0,0,1,2.8.532L62.407,8.367a.923.923,0,1,1-.662,1.723L45.853,3.979a6.028,6.028,0,0,0-2.138-.409A3.116,3.116,0,0,0,40.6,6.683,4.967,4.967,0,0,1,36.823,11.5a9.864,9.864,0,0,1,1.592,4.14,11.189,11.189,0,0,0,6.377-2.314.923.923,0,0,1,1.121,1.466,12.96,12.96,0,0,1-7.361,2.689c.013.922-.041,1.888-.114,2.93q.2,0,.4,0a32.219,32.219,0,0,1,7.419,1.264.554.554,0,0,0,.642-.449c.029-.167-.162-.394-.482-.748a2.664,2.664,0,0,1-.929-2.3,2.4,2.4,0,0,1,2.78-1.947l3.712.654a.923.923,0,1,1-.32,1.818l-3.712-.654a.554.554,0,0,0-.642.45c-.029.167.162.394.482.748a2.664,2.664,0,0,1,.929,2.3,2.4,2.4,0,0,1-2.78,1.947ZM4.74,12.7a.923.923,0,0,1-.662-1.723l6.8-2.615a.923.923,0,1,1,.662,1.723Zm3.485,2.615A.923.923,0,1,1,7.563,13.6l6.8-2.615a.923.923,0,0,1,.662,1.723ZM58.259,12.7l-6.8-2.615a.923.923,0,1,1,.662-1.723l6.8,2.615a.923.923,0,1,1-.662,1.723Zm-3.485,2.615-6.8-2.615a.923.923,0,0,1,.662-1.723l6.8,2.615a.923.923,0,0,1-.662,1.723ZM26.551,22.366c.064.954.122,2.016.144,3.186a15.682,15.682,0,0,0,4.481-.958.923.923,0,0,1,.645,0,15.687,15.687,0,0,0,4.481.958c.021-1.155.079-2.21.144-3.186a47.524,47.524,0,0,0-4.763.675.925.925,0,0,1-.37,0A47.511,47.511,0,0,0,26.551,22.366Zm3.387-1.442c.731.115,1.287.219,1.562.272a48.214,48.214,0,0,1,5.081-.694c.3-4.245.323-6.718-3.091-10.132a.922.922,0,0,1-.27-.652V7.939a11.871,11.871,0,0,0-1.818.942,11.8,11.8,0,0,1,1.02,4.958A10,10,0,0,1,29.938,20.924Zm-.055-10.907a9.944,9.944,0,0,0-3.206,4.7.923.923,0,0,1-1.148.62.909.909,0,0,1-.62-1.148,12.241,12.241,0,0,1,4.04-5.806,2.551,2.551,0,0,0-1.892-1.065H27.04c-1.917,0-3.537,2.984-3.537,6.516s1.62,6.516,3.537,6.516,3.537-2.984,3.537-6.516a10.4,10.4,0,0,0-.694-3.822Zm-2.21-4.485A4.616,4.616,0,0,1,30.44,7.31a13.316,13.316,0,0,1,2.78-1.337V3.534a1.689,1.689,0,0,0-1.663-1.687,3.055,3.055,0,0,0-1.06.233l-2.1,1.344a1.51,1.51,0,0,0-.721,2.107Z" transform="translate(-0.001 -0.002)"/>
      </g>
    </g>
  </g>
</svg>
