<svg xmlns="http://www.w3.org/2000/svg" width="84" height="84" viewBox="0 0 84 84">
  <g id="img22" transform="translate(-185.711 -5928)">
    <rect id="Rectangle_455521" data-name="Rectangle 455521" width="84" height="84" rx="5" transform="translate(185.711 5928)" fill="#ff9a1a"/>
    <g id="Group_1180542" data-name="Group 1180542" transform="translate(199.269 5941.555)">
      <rect id="Rectangle_455735" data-name="Rectangle 455735" width="55.501" height="55.501" rx="4" transform="translate(0.208 0.211)" fill="#ffcd00"/>
      <path id="Path_1004236" data-name="Path 1004236" d="M44.826,40.963a.656.656,0,0,1,0,1.311h-6.42a.656.656,0,0,1,0-1.311Zm-3.21,5.715a5.059,5.059,0,1,0-5.059-5.059A5.059,5.059,0,0,0,41.616,46.678Zm0-11.429a6.37,6.37,0,1,0,6.371,6.37,6.37,6.37,0,0,0-6.371-6.37Zm-24.1,5.714a.656.656,0,0,1,0,1.311H14.958v2.554a.656.656,0,1,1-1.311,0V42.274H11.092a.656.656,0,0,1,0-1.311h2.555V38.409a.656.656,0,0,1,1.311,0v2.554ZM14.3,46.678a5.059,5.059,0,1,0-5.06-5.06,5.059,5.059,0,0,0,5.06,5.06Zm0-11.429a6.37,6.37,0,1,0,6.37,6.37A6.37,6.37,0,0,0,14.3,35.249ZM11.471,13.018l2.34-2.652a.656.656,0,0,1,.983,0l2.34,2.652a.656.656,0,1,1-.982.867l-1.2-1.352v5.278a.656.656,0,0,1-1.311,0V12.533l-1.195,1.352a.656.656,0,1,1-.982-.867ZM14.3,9.246a5.059,5.059,0,1,0,5.059,5.059A5.059,5.059,0,0,0,14.3,9.246Zm0,11.429A6.37,6.37,0,1,0,7.932,14.3a6.37,6.37,0,0,0,6.371,6.37Zm24.481-5.082a.656.656,0,1,1,.982-.867l1.194,1.352V10.8a.656.656,0,0,1,1.311,0v5.278l1.194-1.352a.656.656,0,1,1,.982.867l-2.34,2.652a.656.656,0,0,1-.983,0Zm2.832-6.347a5.059,5.059,0,1,0,5.06,5.059,5.059,5.059,0,0,0-5.06-5.059Zm0,11.429a6.37,6.37,0,1,0-6.37-6.37,6.37,6.37,0,0,0,6.37,6.37ZM52.542,54.62a2.08,2.08,0,0,0,2.077-2.076V28.618H46.731a5.157,5.157,0,0,1-10.23,0H28.615v8.5a.656.656,0,0,1-.656.656,3.846,3.846,0,1,0,0,7.691.656.656,0,0,1,.656.655v8.5ZM1.3,52.544A2.078,2.078,0,0,0,3.377,54.62H27.3V46.734a5.157,5.157,0,0,1,0-10.23V28.617H18.8a.655.655,0,0,1-.656-.656,3.846,3.846,0,0,0-7.691,0,.655.655,0,0,1-.656.656H1.3V52.544ZM3.377,1.3A2.078,2.078,0,0,0,1.3,3.38V27.307H9.187a5.157,5.157,0,0,1,10.23,0H27.3v-8.5a.656.656,0,0,1,.656-.656,3.846,3.846,0,1,0,0-7.691.656.656,0,0,1-.656-.655v-8.5ZM54.619,3.38A2.08,2.08,0,0,0,52.542,1.3H28.615V9.19a5.157,5.157,0,0,1,0,10.23v7.886h8.5a.656.656,0,0,1,.656.656,3.846,3.846,0,0,0,7.691,0,.656.656,0,0,1,.656-.656h8.5V3.38ZM52.542-.007H3.377A3.391,3.391,0,0,0-.01,3.38V52.544a3.391,3.391,0,0,0,3.387,3.387H52.542a3.391,3.391,0,0,0,3.386-3.387V3.38A3.391,3.391,0,0,0,52.542-.007Z" transform="translate(0 0)" fill-rule="evenodd"/>
    </g>
  </g>
</svg>
