<svg xmlns="http://www.w3.org/2000/svg" width="70" height="70" viewBox="0 0 70 70">
  <g id="img28" transform="translate(-319.711 -7780)">
    <rect id="Rectangle_455460" data-name="Rectangle 455460" width="70" height="70" rx="5" transform="translate(319.711 7780)" fill="#faf2df"/>
    <g id="Group_1180433" data-name="Group 1180433" transform="translate(328.711 7789)">
      <path id="Path_1003830" data-name="Path 1003830" d="M150,14.537l-3.609-3.609-2.52,1.64a13.486,13.486,0,0,0-3.929-1.629L139.325,8h-5.1l-.622,2.938a13.486,13.486,0,0,0-3.929,1.629l-2.52-1.64-3.609,3.609,1.306,3.116.124,6.506h1.595a10.206,10.206,0,1,1,20.411,0h1.7l-.007-6.506Zm0,0" transform="translate(-110.41 -7.15)" fill="#fcd770"/>
      <path id="Path_1003831" data-name="Path 1003831" d="M128.184,80.543,129,82.484l.017,6.506h1.7a10.144,10.144,0,0,1,1.874-5.88A6.768,6.768,0,0,0,128.184,80.543Zm0,0" transform="translate(-114.557 -71.981)" fill="#ffc729"/>
      <path id="Path_1003832" data-name="Path 1003832" d="M330.455,80.6a6.8,6.8,0,0,0-4.432,2.509,10.156,10.156,0,0,1,1.911,5.932h1.7l-.007-6.506Zm0,0" transform="translate(-291.365 -72.033)" fill="#ffc729"/>
      <path id="Path_1003833" data-name="Path 1003833" d="M306.71,117.263v-4.148a3.4,3.4,0,0,0-2.577-3.3l-4.227-1.056,0-1.538a5.1,5.1,0,0,0,2.553-4.416v-1.487A5.245,5.245,0,0,0,297.512,96a5.1,5.1,0,0,0-5.26,5.1v1.7a5.1,5.1,0,0,0,2.551,4.415v1.539l-4.227,1.057a3.4,3.4,0,0,0-2.577,3.3v4.148Zm0,0" transform="translate(-257.384 -85.796)" fill="#ccd1d9"/>
      <path id="Path_1003834" data-name="Path 1003834" d="M294.8,224.2a5.082,5.082,0,0,0-1.83-3.9l-2.4.6A3.4,3.4,0,0,0,288,224.2v4.148h6.8Zm0,0" transform="translate(-257.384 -196.884)" fill="#aab2bd"/>
      <path id="Path_1003835" data-name="Path 1003835" d="M50.71,117.263v-4.148a3.4,3.4,0,0,0-2.577-3.3l-4.227-1.056,0-1.538a5.1,5.1,0,0,0,2.553-4.416v-1.487A5.245,5.245,0,0,0,41.512,96a5.1,5.1,0,0,0-5.26,5.1v1.7a5.1,5.1,0,0,0,2.551,4.415v1.539l-4.227,1.057a3.4,3.4,0,0,0-2.577,3.3v4.148Zm0,0" transform="translate(-28.598 -85.796)" fill="#ccd1d9"/>
      <path id="Path_1003836" data-name="Path 1003836" d="M150.8,224.2a3.4,3.4,0,0,0-2.577-3.3l-2.4-.6a5.086,5.086,0,0,0-1.83,3.9v4.148h6.8Zm0,0" transform="translate(-128.692 -196.877)" fill="#aab2bd"/>
      <path id="Path_1003837" data-name="Path 1003837" d="M178.71,117.263v-4.148a3.4,3.4,0,0,0-2.577-3.3l-4.227-1.056,0-1.538a5.1,5.1,0,0,0,2.553-4.416v-1.487A5.245,5.245,0,0,0,169.512,96a5.1,5.1,0,0,0-5.26,5.1v1.7a5.1,5.1,0,0,0,2.551,4.415v1.539l-4.227,1.057a3.4,3.4,0,0,0-2.577,3.3v4.148Zm0,0" transform="translate(-142.991 -85.796)" fill="#ccd1d9"/>
      <g id="Group_1180432" data-name="Group 1180432" transform="translate(3.402 23.2)">
        <path id="Path_1003838" data-name="Path 1003838" d="M306.711,227.269a3.4,3.4,0,0,0-2.577-3.3l-.937-.234-11.364,5.982h-.192L288,228.676v2.74h18.71Zm0,0" transform="translate(-260.785 -223.15)" fill="#aab2bd"/>
        <path id="Path_1003839" data-name="Path 1003839" d="M178.71,250.733l-1.271.669h-.192l-5.115-1.461a6.184,6.184,0,0,0-1.37-.216l-3.715-1.188a11.313,11.313,0,0,0-5.908-.265l-1.1.255a3.243,3.243,0,0,0-.037.428V253.1h18.71Zm0,0" transform="translate(-146.393 -244.836)" fill="#aab2bd"/>
        <path id="Path_1003840" data-name="Path 1003840" d="M46.746,221.675l-3.69.855v-1.254l-5.207-3.037-3.273.818a3.4,3.4,0,0,0-2.577,3.3v4.148H50.71v-4.148a3.384,3.384,0,0,0-.123-.863,10.949,10.949,0,0,0-3.841.18Zm0,0" transform="translate(-32 -218.239)" fill="#aab2bd"/>
      </g>
      <path id="Path_1003841" data-name="Path 1003841" d="M100.332,277.082l-7.187-6.468L91.778,265.7l-3.894-1.245a9.6,9.6,0,0,0-5.006-.227l-10.027,2.323-.85,6.8,6,3.768,10.907,9.1,1.315,1.16a1.739,1.739,0,0,0,1.15.435h.157a1.738,1.738,0,0,0,1.113-3.073,2.247,2.247,0,0,0,1.439.521,1.738,1.738,0,0,0,1.113-3.073l-3.259-2.716,3.4,2.834a1.741,1.741,0,0,0,1.113.4h.184a1.738,1.738,0,0,0,1.113-3.073l.134.112a1.764,1.764,0,0,0,1.13.409h.147a1.765,1.765,0,0,0,1.181-3.077Zm0,0" transform="translate(-64.346 -235.935)" fill="#ecc19c"/>
      <path id="Path_1003842" data-name="Path 1003842" d="M200.425,234.185l-7.187-6.468a2.575,2.575,0,0,0-3.046-.294l-3.166,1.9A2,2,0,0,1,184,227.61v-.169a2,2,0,0,1,1.1-1.787l4.745-2.372a4.513,4.513,0,0,1,3.264-.3l5.344,1.527h.85l16.159-8.5h.85v11.056l-15.308,7.654Zm0,0" transform="translate(-164.44 -193.038)" fill="#f5e0cd"/>
      <path id="Path_1003843" data-name="Path 1003843" d="M238.061,400l-1.182,1.23,4.713,3.928a3.443,3.443,0,0,0,1.381.685,1.716,1.716,0,0,0,.191-.776,1.739,1.739,0,0,0-.625-1.335Zm0,0" transform="translate(-211.697 -357.477)" fill="#dfb28b"/>
      <path id="Path_1003844" data-name="Path 1003844" d="M200,435.3a1.8,1.8,0,0,0,3.08,1.276l1.494-1.494a1.8,1.8,0,1,0-2.551-2.552l-1.494,1.494A1.8,1.8,0,0,0,200,435.3Zm0,0" transform="translate(-178.739 -386.075)" fill="#f5e0cd"/>
      <path id="Path_1003845" data-name="Path 1003845" d="M176,411.3a1.8,1.8,0,0,0,3.08,1.276l1.494-1.494a1.8,1.8,0,1,0-2.551-2.552l-1.494,1.494A1.8,1.8,0,0,0,176,411.3Zm0,0" transform="translate(-157.29 -364.626)" fill="#f5e0cd"/>
      <path id="Path_1003846" data-name="Path 1003846" d="M152,387.3a1.8,1.8,0,0,0,3.08,1.276l1.494-1.494a1.8,1.8,0,1,0-2.551-2.552l-1.494,1.494A1.8,1.8,0,0,0,152,387.3Zm0,0" transform="translate(-135.841 -343.178)" fill="#f5e0cd"/>
      <path id="Path_1003847" data-name="Path 1003847" d="M155.226,385.731a3.512,3.512,0,0,0,.879-1.533,1.784,1.784,0,0,0-.806-.2,1.8,1.8,0,0,0-1.276.528l-1.494,1.494A1.806,1.806,0,0,0,152,387.3a1.784,1.784,0,0,0,.2.806,3.507,3.507,0,0,0,1.533-.879Zm0,0" transform="translate(-135.842 -343.178)" fill="#f0d0b4"/>
      <path id="Path_1003848" data-name="Path 1003848" d="M179.226,409.731a3.512,3.512,0,0,0,.879-1.533,1.784,1.784,0,0,0-.806-.2,1.8,1.8,0,0,0-1.276.528l-1.494,1.494A1.806,1.806,0,0,0,176,411.3a1.784,1.784,0,0,0,.2.806,3.507,3.507,0,0,0,1.533-.879Zm0,0" transform="translate(-157.29 -364.626)" fill="#f0d0b4"/>
      <path id="Path_1003849" data-name="Path 1003849" d="M203.226,433.73a3.512,3.512,0,0,0,.879-1.533,1.784,1.784,0,0,0-.806-.2,1.8,1.8,0,0,0-1.276.528l-1.494,1.494A1.806,1.806,0,0,0,200,435.3a1.784,1.784,0,0,0,.2.806,3.507,3.507,0,0,0,1.533-.879Zm0,0" transform="translate(-178.739 -386.075)" fill="#f0d0b4"/>
      <path id="Path_1003850" data-name="Path 1003850" d="M128,363.3a1.8,1.8,0,0,0,3.08,1.276l1.494-1.494a1.8,1.8,0,1,0-2.551-2.552l-1.494,1.494A1.8,1.8,0,0,0,128,363.3Zm0,0" transform="translate(-114.393 -321.729)" fill="#f5e0cd"/>
      <path id="Path_1003851" data-name="Path 1003851" d="M78.519,275.648l-5.668,1.313-.85,6.8L75.561,286Zm0,0" transform="translate(-64.346 -246.345)" fill="#dfb28b"/>
      <path id="Path_1003852" data-name="Path 1003852" d="M19.906,206.8,16.5,218.71h-.85L8,216.159V200H9.7l10.206,5.953Zm0,0" transform="translate(-7.15 -178.738)" fill="#e6e9ed"/>
      <path id="Path_1003853" data-name="Path 1003853" d="M16.561,204,9.7,200H8v16.159l5.1,1.7,3.4-13.607Zm0,0" transform="translate(-7.15 -178.739)" fill="#b4dd7f"/>
      <path id="Path_1003854" data-name="Path 1003854" d="M262.061,376l-1.182,1.23,4.713,3.928a3.442,3.442,0,0,0,1.381.685,1.716,1.716,0,0,0,.191-.776,1.739,1.739,0,0,0-.625-1.335Zm0,0" transform="translate(-233.146 -336.028)" fill="#dfb28b"/>
      <path id="Path_1003855" data-name="Path 1003855" d="M52.729,22.112H50.817l-2.848,1.5a4.228,4.228,0,0,0-1.014-.417l-3.583-.9V21.89a5.972,5.972,0,0,0,2.552-4.881V15.523a6.11,6.11,0,0,0-5.771-6.165c-.162,0-.321,0-.48.01L40.6,7.192l-4.5-4.5L33.444,4.418A14.386,14.386,0,0,0,30.261,3.1L29.605,0H23.124l-.656,3.1a14.369,14.369,0,0,0-3.183,1.321L16.63,2.691l-4.5,4.5.913,2.176c-.035,0-.068-.008-.1-.009A5.956,5.956,0,0,0,6.8,15.308v1.7a5.97,5.97,0,0,0,2.551,4.88V22.3l-2.337.584-4.236-2.47H0V38.034l8.367,2.789H10l.2-.713,2.565,1.539a2.648,2.648,0,0,0,2.553,2.566,2.648,2.648,0,0,0,2.551,2.551,2.648,2.648,0,0,0,2.551,2.551,2.645,2.645,0,0,0,4.136,2.1l.753.665a2.59,2.59,0,0,0,1.711.646h.157a2.589,2.589,0,0,0,2.585-2.555,2.587,2.587,0,0,0,2.551-2.551,2.587,2.587,0,0,0,2.551-2.554,2.615,2.615,0,0,0,2.555-2.61,2.491,2.491,0,0,0-.013-.255l15.321-7.66Zm-8.5-6.589v1.487a4.269,4.269,0,0,1-2.129,3.68l-.425.246,0,2.691,4.249,1.061L36.57,29.61V27.319a4.232,4.232,0,0,0-1.218-2.964l2.919-.729V20.933l-.424-.245a4.264,4.264,0,0,1-2.127-3.678v-1.7a4.252,4.252,0,0,1,4.384-4.25,4.4,4.4,0,0,1,4.121,4.464ZM27.646,28.942l-3.85-1.23a10.5,10.5,0,0,0-5.45-.248l-.488.108v-.252a2.55,2.55,0,0,1,1.932-2.476l4.871-1.217V20.933l-.424-.245a4.264,4.264,0,0,1-2.127-3.678v-1.7a4.252,4.252,0,0,1,4.384-4.25,4.4,4.4,0,0,1,4.121,4.464v1.487a4.269,4.269,0,0,1-2.129,3.68l-.425.246,0,2.691,4.871,1.217a2.55,2.55,0,0,1,1.932,2.476v3.187l-.21.11h-.521l-5.229-1.494a5.361,5.361,0,0,0-1.262-.181Zm-9.6-16.213a9.349,9.349,0,0,1,16.593-.069,5.915,5.915,0,0,0-.625,2.648v1.7a5.97,5.97,0,0,0,2.551,4.88V22.3l-3.4.852-3.4-.852V21.89a5.972,5.972,0,0,0,2.552-4.881V15.522a6.11,6.11,0,0,0-5.771-6.165,5.954,5.954,0,0,0-6.136,5.951v1.7a5.97,5.97,0,0,0,2.551,4.88V22.3l-3.4.852-3.4-.852V21.89a5.972,5.972,0,0,0,2.552-4.881V15.522a6.268,6.268,0,0,0-.66-2.794ZM14.139,7.585l2.717-2.717,2.392,1.556.458-.281a12.691,12.691,0,0,1,3.683-1.527l.523-.125L24.5,1.7h3.724l.59,2.789.523.125a12.7,12.7,0,0,1,3.683,1.528l.458.281,2.392-1.556,2.714,2.715L37.621,9.84a5.945,5.945,0,0,0-1.8,1.193c-.035.034-.065.071-.1.105a11.045,11.045,0,0,0-18.758.051,6,6,0,0,0-1.876-1.33ZM11.056,23.626V20.933l-.424-.245A4.264,4.264,0,0,1,8.5,17.009v-1.7a4.252,4.252,0,0,1,4.384-4.25,4.4,4.4,0,0,1,4.121,4.464v1.487a4.269,4.269,0,0,1-2.129,3.68l-.425.246,0,2.691,2.918.729a4.232,4.232,0,0,0-1.218,2.964v.63l-2.653.59.069-.241.032-1.572L9.122,24.11ZM1.7,22.112h.62L8.437,25.68,5.351,38.024,1.7,36.807ZM8.642,39.121l-1.674-.558,3-11.992,1.94,1.131v.243L8.714,39.121Zm5.815,2.448a.96.96,0,0,1,.279-.674L16.232,39.4a.954.954,0,0,1,1.349,1.349l-1.495,1.495a.954.954,0,0,1-1.628-.674Zm2.551,2.551a.96.96,0,0,1,.279-.674l1.495-1.495A.954.954,0,0,1,20.132,43.3L18.637,44.8a.954.954,0,0,1-1.628-.674Zm2.551,2.551A.96.96,0,0,1,19.839,46L21.334,44.5a.954.954,0,0,1,1.349,1.349l-1.495,1.495a.954.954,0,0,1-1.628-.674Zm3.5,3.5a.954.954,0,0,1-.674-1.628l1.495-1.495A.954.954,0,0,1,25.235,48.4L23.74,49.9A.96.96,0,0,1,23.065,50.177Zm4.113.85h-.157a.881.881,0,0,1-.586-.222l-.636-.561.639-.639a2.644,2.644,0,0,0,.536-.79l.773.644a.887.887,0,0,1-.568,1.568ZM34.8,43.374h-.147a.912.912,0,0,1-.585-.213l-4.612-3.843-1.09,1.307,4.479,3.732a.888.888,0,0,1-.569,1.568H32.1a.887.887,0,0,1-.567-.206L26.909,41.87l-1.09,1.307L30.3,46.909a.886.886,0,0,1-.568,1.567,1.4,1.4,0,0,1-.895-.324l-1.9-1.582a2.646,2.646,0,0,0-2.284-1.486A2.648,2.648,0,0,0,22.1,42.533a2.648,2.648,0,0,0-2.551-2.551A2.648,2.648,0,0,0,15.029,38.2l-1.495,1.495a2.621,2.621,0,0,0-.238.291l-2.612-1.568,2.29-8.015,5.741-1.277a8.761,8.761,0,0,1,4.563.206l1.253.4-4.247,2.124A2.835,2.835,0,0,0,18.71,34.4v.168a2.848,2.848,0,0,0,4.315,2.443l3.167-1.9a1.756,1.756,0,0,1,2.039.2l7.186,6.467a.915.915,0,0,1-.612,1.6Zm16.223-9.881L36.7,40.657c-.047-.049-.1-.1-.146-.142l-7.185-6.467a3.422,3.422,0,0,0-4.053-.392l-3.168,1.9a1.147,1.147,0,0,1-1.737-.985V34.4a1.141,1.141,0,0,1,.635-1.027L25.789,31a3.7,3.7,0,0,1,2.651-.246l5.344,1.527,1.294.032,15.949-8.394Zm0,0"/>
    </g>
  </g>
</svg>
