<svg xmlns="http://www.w3.org/2000/svg" width="72" height="72" viewBox="0 0 72 72">
  <g id="img2" transform="translate(-621.711 -460)">
    <rect id="Rectangle_455401" data-name="Rectangle 455401" width="72" height="72" rx="5" transform="translate(621.711 460)" fill="#ff9a1a"/>
    <g id="Group_1180466" data-name="Group 1180466" transform="translate(616.711 455)">
      <path id="Path_1004049" data-name="Path 1004049" d="M43.16,208.5a8.431,8.431,0,0,0-.644-1.516L44.4,205.1,41,201.7l-1.884,1.884a8.43,8.43,0,0,0-1.516-.644V200H32.5v2.94a8.431,8.431,0,0,0-1.516.644L29.1,201.7l-3.4,3.4,1.884,1.884a8.431,8.431,0,0,0-.644,1.516H24v5.1h2.94a8.431,8.431,0,0,0,.644,1.516L25.7,217l3.4,3.4,1.884-1.884a8.431,8.431,0,0,0,1.516.644v2.94h5.1v-2.94a8.431,8.431,0,0,0,1.516-.644L41,220.4l3.4-3.4-1.884-1.884a8.431,8.431,0,0,0,.644-1.516H46.1v-5.1Z" transform="translate(-7.15 -164.45)" fill="#3397e8"/>
      <circle id="Ellipse_13867" data-name="Ellipse 13867" cx="6" cy="6" r="6" transform="translate(22 41)" fill="#e9eef2"/>
      <circle id="Ellipse_13868" data-name="Ellipse 13868" cx="2.5" cy="2.5" r="2.5" transform="translate(25 44)" fill="#2978b8"/>
      <path id="Path_1004050" data-name="Path 1004050" d="M170,73.3a3.4,3.4,0,0,0,3.4-3.4V24H136V73.3Z" transform="translate(-107.25 -7.15)" fill="#e9eef2"/>
      <path id="Path_1004051" data-name="Path 1004051" d="M45.725,40.193a6.8,6.8,0,0,0-1.752-3.019L31.7,24.9a3.078,3.078,0,0,0-2.176-.9h0a3.078,3.078,0,0,0-2.177.9L24.9,27.348a3.078,3.078,0,0,0,0,4.353L37.174,43.973a6.8,6.8,0,0,0,3.019,1.752L47.8,47.8Z" transform="translate(-7.15 -7.15)" fill="#fbe9d8"/>
      <path id="Path_1004052" data-name="Path 1004052" d="M27.348,24.9,24.9,27.348a3.078,3.078,0,0,0-.9,2.177h0a3.078,3.078,0,0,0,.9,2.177l2.5,2.5,6.8-6.8-2.5-2.5a3.078,3.078,0,0,0-2.177-.9h0a3.078,3.078,0,0,0-2.177.9Z" transform="translate(-7.15 -7.15)" fill="#eb423f"/>
      <path id="Path_1004053" data-name="Path 1004053" d="M104,408h34v5.1a3.4,3.4,0,0,0,3.4,3.4h-34a3.4,3.4,0,0,1-3.4-3.4Z" transform="translate(-78.65 -350.35)" fill="#dadcde"/>
      <rect id="Rectangle_455719" data-name="Rectangle 455719" width="8" height="15" transform="translate(53 22)" fill="#dadcde"/>
      <path id="Path_1004054" data-name="Path 1004054" d="M197.72,201.6l5.342,1.458L201.6,197.72Z" transform="translate(-162.412 -162.412)" fill="#414649"/>
      <path id="Path_1004055" data-name="Path 1004055" d="M56,62.8l9.773,9.773,0,0,6.8-6.8,0,0L62.8,56Z" transform="translate(-35.75 -35.75)" fill="#3397e8"/>
      <rect id="Rectangle_455720" data-name="Rectangle 455720" width="3.606" height="14.425" transform="translate(21.95 24.5) rotate(-45)" fill="#2978b8"/>
      <circle id="Ellipse_13869" data-name="Ellipse 13869" cx="1.5" cy="1.5" r="1.5" transform="translate(46 46)" fill="#3397e8"/>
      <rect id="Rectangle_455721" data-name="Rectangle 455721" width="8" height="7" transform="translate(34 44)" fill="#eb423f"/>
      <rect id="Rectangle_455722" data-name="Rectangle 455722" width="8" height="7" transform="translate(53 44)" fill="#3dc285"/>
      <rect id="Rectangle_455723" data-name="Rectangle 455723" width="9" height="4" transform="translate(43 54)" fill="#ffd33a"/>
      <rect id="Rectangle_455724" data-name="Rectangle 455724" width="9.617" height="2.404" transform="translate(18.55 25.35) rotate(-45)" fill="#ffd33a"/>
      <path id="Path_1004056" data-name="Path 1004056" d="M66.15,16H28.75a.85.85,0,0,0-.85.85V19.9L25.153,17.15a3.928,3.928,0,0,0-5.555,0L17.151,19.6a3.928,3.928,0,0,0,0,5.555L26.7,34.7H25.35a.85.85,0,0,0-.85.85v2.338q-.252.1-.5.211l-1.451-1.451a.85.85,0,0,0-1.2,0l-3.4,3.4a.85.85,0,0,0,0,1.2L19.4,42.7q-.113.246-.211.5H16.85a.85.85,0,0,0-.85.85v5.1a.85.85,0,0,0,.85.85h2.338q.1.252.211.5l-1.451,1.451a.85.85,0,0,0,0,1.2l3.4,3.4a.85.85,0,0,0,1.2,0L24,55.1q.246.113.5.211V62.75A4.255,4.255,0,0,0,28.75,67h34A4.255,4.255,0,0,0,67,62.75V16.85A.85.85,0,0,0,66.15,16ZM35.623,30.025l-.923.923-8.573-8.573.923-.923Zm3.816,9.414-2.495-.68,1.815-1.815Zm-4.384-1.2-1.789-.488a5.961,5.961,0,0,1-1.995-.974l5.51-5.51a5.961,5.961,0,0,1,.974,1.995l.488,1.789ZM19.752,25.35l5.6-5.6.5.5-5.6,5.6Zm5.173-1.773L33.5,32.15,32.15,33.5l-8.573-8.573ZM18.353,20.8,20.8,18.352a2.228,2.228,0,0,1,3.151,0l.2.2-5.6,5.6-.2-.2a2.228,2.228,0,0,1,0-3.151Zm4.022,5.328L30.948,34.7l-.923.923L21.452,27.05ZM27.9,48.3a1.7,1.7,0,0,1,0-3.4Zm0-5.1a3.4,3.4,0,0,0,0,6.8v1.7a5.1,5.1,0,1,1,0-10.2ZM24.241,53.32a.85.85,0,0,0-1.008.145L21.95,54.748l-2.2-2.2,1.283-1.283a.85.85,0,0,0,.145-1.008A7.585,7.585,0,0,1,20.6,48.9a.85.85,0,0,0-.811-.6H17.7V44.9h2.09a.85.85,0,0,0,.811-.6,7.585,7.585,0,0,1,.579-1.363.85.85,0,0,0-.145-1.008L19.752,40.65l2.2-2.2,1.283,1.283a.85.85,0,0,0,1.008.145A7.592,7.592,0,0,1,25.6,39.3a.85.85,0,0,0,.6-.811V36.4h1.7v3.4a6.8,6.8,0,0,0,0,13.6v3.4H26.2V54.71a.85.85,0,0,0-.6-.811,7.592,7.592,0,0,1-1.363-.579ZM28.75,65.3a2.553,2.553,0,0,1-2.55-2.55V58.5H58.5v4.25a4.228,4.228,0,0,0,.852,2.55ZM46.6,47.45a.85.85,0,1,1,.85.85.85.85,0,0,1-.85-.85Zm4.25,7.65v1.7h-6.8V55.1ZM65.3,62.75a2.55,2.55,0,1,1-5.1,0v-5.1a.85.85,0,0,0-.85-.85h-6.8V54.25a.85.85,0,0,0-.85-.85H48.3V49.854A2.562,2.562,0,0,0,49.854,48.3H51.7v2.55a.85.85,0,0,0,.85.85h8.5a.85.85,0,0,0,.85-.85v-6.8a.85.85,0,0,0-.85-.85h-8.5a.85.85,0,0,0-.85.85V46.6H49.854a2.55,2.55,0,0,0-4.808,0H43.2V44.05a.85.85,0,0,0-.85-.85h-8.5a.85.85,0,0,0-.85.85v6.8a.85.85,0,0,0,.85.85h8.5a.85.85,0,0,0,.85-.85V48.3h1.846A2.562,2.562,0,0,0,46.6,49.854V53.4H43.2a.85.85,0,0,0-.85.85V56.8H29.6V37.6a7.664,7.664,0,0,0,3.219,1.8l7.608,2.075a.847.847,0,0,0,.224.03h13.6a.85.85,0,0,0,.85-.85V38.1h5.95a.85.85,0,0,0,.85-.85V21.95a.85.85,0,0,0-.85-.85h-6.8a.85.85,0,0,0-.85.85V39.8H41.3l-.927-3.4H49.15a.85.85,0,0,0,0-1.7H39.908L39.445,33H49.15a.85.85,0,0,0,0-1.7H38.8a7.662,7.662,0,0,0-1.2-1.7H40.65a.85.85,0,1,0,0-1.7h-3.4a.85.85,0,0,0-.8.553L29.6,21.6V17.7H65.3ZM53.4,50V44.9h6.8V50ZM41.5,44.9V50H34.7V44.9Zm13.6-8.5V22.8h5.1V36.4Z" transform="translate(0 0)"/>
      <path id="Path_1004057" data-name="Path 1004057" d="M224.85,65.7h3.4a.85.85,0,1,0,0-1.7h-3.4a.85.85,0,0,0,0,1.7Z" transform="translate(-185.9 -42.9)"/>
      <path id="Path_1004058" data-name="Path 1004058" d="M208.85,97.7h11.9a.85.85,0,0,0,0-1.7h-11.9a.85.85,0,1,0,0,1.7Z" transform="translate(-171.6 -71.5)"/>
      <path id="Path_1004059" data-name="Path 1004059" d="M288.85,65.7h3.4a.85.85,0,1,0,0-1.7h-3.4a.85.85,0,0,0,0,1.7Z" transform="translate(-243.1 -42.9)"/>
      <path id="Path_1004060" data-name="Path 1004060" d="M277.95,128h-5.1a.85.85,0,1,0,0,1.7h5.1a.85.85,0,0,0,0-1.7Z" transform="translate(-228.8 -100.1)"/>
    </g>
  </g>
</svg>
