<svg xmlns="http://www.w3.org/2000/svg" width="100" height="100" viewBox="0 0 100 100">
  <g id="img38" transform="translate(-383.746 -8400)">
    <circle id="Ellipse_13609" data-name="Ellipse 13609" cx="50" cy="50" r="50" transform="translate(383.746 8400)" fill="#beb1a1"/>
    <g id="Group_1181363" data-name="Group 1181363" transform="translate(405.628 8421.882)">
      <path id="Path_1008240" data-name="Path 1008240" d="M52.487,12.187H55.3a.937.937,0,0,0,.579-1.674L42.756.2A.939.939,0,0,0,41.6.2L28.476,10.513a.937.937,0,0,0,.579,1.674h2.812V54.364h-7.5V33.744h2.812a.937.937,0,0,0,.579-1.674L14.638,21.76a.939.939,0,0,0-1.159,0L.358,32.07a.937.937,0,0,0,.579,1.674H3.749v20.62H0v1.875H56.236V54.364H52.487ZM15.933,49.678v4.686H12.184V49.678Zm1.875,4.686V49.678h1.875V47.8H8.435v1.875H10.31v4.686H5.624V32.807a.937.937,0,0,0-.937-.937H3.648l10.411-8.18L24.47,31.87H23.432a.937.937,0,0,0-.937.937V54.364Zm26.243-4.686v4.686H40.3V49.678Zm1.875,4.686V49.678H47.8V47.8H36.553v1.875h1.875v4.686H33.741V11.25a.937.937,0,0,0-.937-.937H31.766l10.411-8.18,10.411,8.18H51.549a.937.937,0,0,0-.937.937V54.364Zm0,0" transform="translate(0 -0.003)" fill="#593609"/>
      <path id="Path_1008241" data-name="Path 1008241" d="M304,88h1.875v1.875H304Zm0,0" transform="translate(-268.384 -77.69)" fill="#593609"/>
      <path id="Path_1008242" data-name="Path 1008242" d="M336,88h1.875v1.875H336Zm0,0" transform="translate(-296.635 -77.69)" fill="#593609"/>
      <path id="Path_1008243" data-name="Path 1008243" d="M368,88h1.875v1.875H368Zm0,0" transform="translate(-324.886 -77.69)" fill="#593609"/>
      <path id="Path_1008244" data-name="Path 1008244" d="M336,56h1.875v1.875H336Zm0,0" transform="translate(-296.635 -49.439)" fill="#593609"/>
      <path id="Path_1008245" data-name="Path 1008245" d="M368,56h1.875v1.875H368Zm0,0" transform="translate(-324.886 -49.439)" fill="#593609"/>
      <path id="Path_1008246" data-name="Path 1008246" d="M400,88h1.875v1.875H400Zm0,0" transform="translate(-353.137 -77.69)" fill="#593609"/>
      <path id="Path_1008247" data-name="Path 1008247" d="M304,120h1.875v1.875H304Zm0,0" transform="translate(-268.384 -105.941)" fill="#593609"/>
      <path id="Path_1008248" data-name="Path 1008248" d="M336,120h1.875v1.875H336Zm0,0" transform="translate(-296.635 -105.941)" fill="#593609"/>
      <path id="Path_1008249" data-name="Path 1008249" d="M368,120h1.875v1.875H368Zm0,0" transform="translate(-324.886 -105.941)" fill="#593609"/>
      <path id="Path_1008250" data-name="Path 1008250" d="M400,120h1.875v1.875H400Zm0,0" transform="translate(-353.137 -105.941)" fill="#593609"/>
      <path id="Path_1008251" data-name="Path 1008251" d="M304,152h1.875v1.875H304Zm0,0" transform="translate(-268.384 -134.192)" fill="#593609"/>
      <path id="Path_1008252" data-name="Path 1008252" d="M336,152h1.875v1.875H336Zm0,0" transform="translate(-296.635 -134.192)" fill="#593609"/>
      <path id="Path_1008253" data-name="Path 1008253" d="M368,152h1.875v1.875H368Zm0,0" transform="translate(-324.886 -134.192)" fill="#593609"/>
      <path id="Path_1008254" data-name="Path 1008254" d="M400,152h1.875v1.875H400Zm0,0" transform="translate(-353.137 -134.192)" fill="#593609"/>
      <path id="Path_1008255" data-name="Path 1008255" d="M304,184h1.875v1.875H304Zm0,0" transform="translate(-268.384 -162.443)" fill="#593609"/>
      <path id="Path_1008256" data-name="Path 1008256" d="M336,184h1.875v1.875H336Zm0,0" transform="translate(-296.635 -162.443)" fill="#593609"/>
      <path id="Path_1008257" data-name="Path 1008257" d="M368,184h1.875v1.875H368Zm0,0" transform="translate(-324.886 -162.443)" fill="#593609"/>
      <path id="Path_1008258" data-name="Path 1008258" d="M400,184h1.875v1.875H400Zm0,0" transform="translate(-353.137 -162.443)" fill="#593609"/>
      <path id="Path_1008259" data-name="Path 1008259" d="M304,216h1.875v1.875H304Zm0,0" transform="translate(-268.384 -190.694)" fill="#593609"/>
      <path id="Path_1008260" data-name="Path 1008260" d="M336,216h1.875v1.875H336Zm0,0" transform="translate(-296.635 -190.694)" fill="#593609"/>
      <path id="Path_1008261" data-name="Path 1008261" d="M368,216h1.875v1.875H368Zm0,0" transform="translate(-324.886 -190.694)" fill="#593609"/>
      <path id="Path_1008262" data-name="Path 1008262" d="M400,216h1.875v1.875H400Zm0,0" transform="translate(-353.137 -190.694)" fill="#593609"/>
      <path id="Path_1008263" data-name="Path 1008263" d="M304,248h1.875v1.875H304Zm0,0" transform="translate(-268.384 -218.945)" fill="#593609"/>
      <path id="Path_1008264" data-name="Path 1008264" d="M336,248h1.875v1.875H336Zm0,0" transform="translate(-296.635 -218.945)" fill="#593609"/>
      <path id="Path_1008265" data-name="Path 1008265" d="M368,248h1.875v1.875H368Zm0,0" transform="translate(-324.886 -218.945)" fill="#593609"/>
      <path id="Path_1008266" data-name="Path 1008266" d="M400,248h1.875v1.875H400Zm0,0" transform="translate(-353.137 -218.945)" fill="#593609"/>
      <path id="Path_1008267" data-name="Path 1008267" d="M304,280h1.875v1.875H304Zm0,0" transform="translate(-268.384 -247.196)" fill="#593609"/>
      <path id="Path_1008268" data-name="Path 1008268" d="M336,280h1.875v1.875H336Zm0,0" transform="translate(-296.635 -247.196)" fill="#593609"/>
      <path id="Path_1008269" data-name="Path 1008269" d="M368,280h1.875v1.875H368Zm0,0" transform="translate(-324.886 -247.196)" fill="#593609"/>
      <path id="Path_1008270" data-name="Path 1008270" d="M400,280h1.875v1.875H400Zm0,0" transform="translate(-353.137 -247.196)" fill="#593609"/>
      <path id="Path_1008271" data-name="Path 1008271" d="M64,272h1.875v1.875H64Zm0,0" transform="translate(-56.502 -240.133)" fill="#593609"/>
      <path id="Path_1008272" data-name="Path 1008272" d="M96,272h1.875v1.875H96Zm0,0" transform="translate(-84.753 -240.133)" fill="#593609"/>
      <path id="Path_1008273" data-name="Path 1008273" d="M128,272h1.875v1.875H128Zm0,0" transform="translate(-113.004 -240.133)" fill="#593609"/>
      <path id="Path_1008274" data-name="Path 1008274" d="M96,240h1.875v1.875H96Zm0,0" transform="translate(-84.753 -211.882)" fill="#593609"/>
      <path id="Path_1008275" data-name="Path 1008275" d="M128,240h1.875v1.875H128Zm0,0" transform="translate(-113.004 -211.882)" fill="#593609"/>
      <path id="Path_1008276" data-name="Path 1008276" d="M160,272h1.875v1.875H160Zm0,0" transform="translate(-141.255 -240.133)" fill="#593609"/>
      <path id="Path_1008277" data-name="Path 1008277" d="M64,304h1.875v1.875H64Zm0,0" transform="translate(-56.502 -268.384)" fill="#593609"/>
      <path id="Path_1008278" data-name="Path 1008278" d="M96,304h1.875v1.875H96Zm0,0" transform="translate(-84.753 -268.384)" fill="#593609"/>
      <path id="Path_1008279" data-name="Path 1008279" d="M128,304h1.875v1.875H128Zm0,0" transform="translate(-113.004 -268.384)" fill="#593609"/>
      <path id="Path_1008280" data-name="Path 1008280" d="M160,304h1.875v1.875H160Zm0,0" transform="translate(-141.255 -268.384)" fill="#593609"/>
      <path id="Path_1008281" data-name="Path 1008281" d="M64,336h1.875v1.875H64Zm0,0" transform="translate(-56.502 -296.635)" fill="#593609"/>
      <path id="Path_1008282" data-name="Path 1008282" d="M96,336h1.875v1.875H96Zm0,0" transform="translate(-84.753 -296.635)" fill="#593609"/>
      <path id="Path_1008283" data-name="Path 1008283" d="M128,336h1.875v1.875H128Zm0,0" transform="translate(-113.004 -296.635)" fill="#593609"/>
      <path id="Path_1008284" data-name="Path 1008284" d="M160,336h1.875v1.875H160Zm0,0" transform="translate(-141.255 -296.635)" fill="#593609"/>
      <path id="Path_1008285" data-name="Path 1008285" d="M64,368h1.875v1.875H64Zm0,0" transform="translate(-56.502 -324.886)" fill="#593609"/>
      <path id="Path_1008286" data-name="Path 1008286" d="M96,368h1.875v1.875H96Zm0,0" transform="translate(-84.753 -324.886)" fill="#593609"/>
      <path id="Path_1008287" data-name="Path 1008287" d="M128,368h1.875v1.875H128Zm0,0" transform="translate(-113.004 -324.886)" fill="#593609"/>
      <path id="Path_1008288" data-name="Path 1008288" d="M160,368h1.875v1.875H160Zm0,0" transform="translate(-141.255 -324.886)" fill="#593609"/>
      <path id="Path_1008289" data-name="Path 1008289" d="M12.379,9.761,16.4,13.784a.936.936,0,0,0,1.325,0L28.313,3.2V5.624h1.875V.937A.937.937,0,0,0,29.25,0H24.564V1.875h2.424L17.065,11.8,13.042,7.773a.936.936,0,0,0-1.325,0L2.344,17.145l1.325,1.325Zm0,0" transform="translate(-2.069)" fill="#593609"/>
      <path id="Path_1008290" data-name="Path 1008290" d="M200,80h1.875v6.561H200Zm0,0" transform="translate(-176.568 -70.627)" fill="#593609"/>
      <path id="Path_1008291" data-name="Path 1008291" d="M200,152h1.875v1.875H200Zm0,0" transform="translate(-176.568 -134.192)" fill="#593609"/>
      <path id="Path_1008292" data-name="Path 1008292" d="M160,120h1.875v5.624H160Zm0,0" transform="translate(-141.255 -105.941)" fill="#593609"/>
      <path id="Path_1008293" data-name="Path 1008293" d="M160,184h1.875v1.875H160Zm0,0" transform="translate(-141.255 -162.443)" fill="#593609"/>
    </g>
  </g>
</svg>
