<svg xmlns="http://www.w3.org/2000/svg" width="160" height="160" viewBox="0 0 160 160">
  <g id="img31" transform="translate(-383.746 -8400)">
    <circle id="Ellipse_13609" data-name="Ellipse 13609" cx="80" cy="80" r="80" transform="translate(383.746 8400)" fill="#fff"/>
    <g id="_21-comunication" data-name="21-comunication" transform="translate(416.457 8432.29)">
      <path id="Path_1008186" data-name="Path 1008186" d="M29.478,53.867h5.911a1.478,1.478,0,0,0,1.478-1.478V46.478A1.478,1.478,0,0,0,35.389,45H29.478A1.478,1.478,0,0,0,28,46.478v5.911A1.478,1.478,0,0,0,29.478,53.867Zm1.478-5.911h2.956v2.956H30.956Z" transform="translate(13.378 21.5)" fill="#593609"/>
      <path id="Path_1008187" data-name="Path 1008187" d="M21.478,53.867h5.911a1.478,1.478,0,0,0,1.478-1.478V46.478A1.478,1.478,0,0,0,27.389,45H21.478A1.478,1.478,0,0,0,20,46.478v5.911A1.478,1.478,0,0,0,21.478,53.867Zm1.478-5.911h2.956v2.956H22.956Z" transform="translate(9.556 21.5)" fill="#593609"/>
      <path id="Path_1008188" data-name="Path 1008188" d="M5.478,53.867h5.911a1.478,1.478,0,0,0,1.478-1.478V46.478A1.478,1.478,0,0,0,11.389,45H5.478A1.478,1.478,0,0,0,4,46.478v5.911A1.478,1.478,0,0,0,5.478,53.867Zm1.478-5.911H9.911v2.956H6.956Z" transform="translate(1.911 21.5)" fill="#593609"/>
      <path id="Path_1008189" data-name="Path 1008189" d="M5.478,62.867h5.911a1.478,1.478,0,0,0,1.478-1.478V55.478A1.478,1.478,0,0,0,11.389,54H5.478A1.478,1.478,0,0,0,4,55.478v5.911A1.478,1.478,0,0,0,5.478,62.867Zm1.478-5.911H9.911v2.956H6.956Z" transform="translate(1.911 25.8)" fill="#593609"/>
      <path id="Path_1008190" data-name="Path 1008190" d="M29.478,62.867h5.911a1.478,1.478,0,0,0,1.478-1.478V55.478A1.478,1.478,0,0,0,35.389,54H29.478A1.478,1.478,0,0,0,28,55.478v5.911A1.478,1.478,0,0,0,29.478,62.867Zm1.478-5.911h2.956v2.956H30.956Z" transform="translate(13.378 25.8)" fill="#593609"/>
      <path id="Path_1008191" data-name="Path 1008191" d="M13.478,62.867H31.211a1.478,1.478,0,0,0,1.478-1.478V55.478A1.478,1.478,0,0,0,31.211,54H13.478A1.478,1.478,0,0,0,12,55.478v5.911A1.478,1.478,0,0,0,13.478,62.867Zm1.478-5.911H29.733v2.956H14.956Z" transform="translate(5.733 25.8)" fill="#593609"/>
      <path id="Path_1008192" data-name="Path 1008192" d="M13.478,53.867h5.911a1.478,1.478,0,0,0,1.478-1.478V46.478A1.478,1.478,0,0,0,19.389,45H13.478A1.478,1.478,0,0,0,12,46.478v5.911A1.478,1.478,0,0,0,13.478,53.867Zm1.478-5.911h2.956v2.956H14.956Z" transform="translate(5.733 21.5)" fill="#593609"/>
      <rect id="Rectangle_455779" data-name="Rectangle 455779" width="3" height="3" transform="translate(20.289 40.29)" fill="#593609"/>
      <path id="Path_1008193" data-name="Path 1008193" d="M93.1,10.344H62.067V1.478A1.478,1.478,0,0,0,60.589,0H1.478A1.478,1.478,0,0,0,0,1.478V33.989a1.478,1.478,0,0,0,1.478,1.478H32.511V60.589H8.867V56.156a1.478,1.478,0,0,1,1.478-1.478H25.122a4.433,4.433,0,0,0,0-8.867H10.344a1.478,1.478,0,0,1,0-2.956h7.389V39.9H10.344a4.433,4.433,0,0,0,0,8.867H25.122a1.478,1.478,0,0,1,0,2.956H10.344a4.433,4.433,0,0,0-4.433,4.433v4.433H1.478A1.478,1.478,0,0,0,0,62.067V93.1a1.478,1.478,0,0,0,1.478,1.478h53.2A1.478,1.478,0,0,0,56.156,93.1V72.411H85.711v1.478a1.478,1.478,0,0,1-1.478,1.478H69.456a4.433,4.433,0,0,0,0,8.867H84.234a1.478,1.478,0,0,1,0,2.956h-13.3v2.956h13.3a4.433,4.433,0,0,0,0-8.867H69.456a1.478,1.478,0,0,1,0-2.956H84.234a4.433,4.433,0,0,0,4.433-4.433V72.411H93.1a1.478,1.478,0,0,0,1.478-1.478V11.822A1.478,1.478,0,0,0,93.1,10.344Zm-1.478,8.867H82.756V13.3h8.867ZM79.8,13.3v5.911H62.067V13.3ZM2.956,2.956H59.111V32.511H51.722a1.478,1.478,0,0,0-1.478,1.478v3.822l-4.866-4.866a1.478,1.478,0,0,0-1.045-.433H2.956ZM53.2,91.623H2.956V63.545H53.2Zm2.956-22.167V62.067a1.478,1.478,0,0,0-1.478-1.478H35.467V35.467h8.255l6.956,6.956a1.478,1.478,0,0,0,1.045.433,1.459,1.459,0,0,0,.566-.112,1.478,1.478,0,0,0,.912-1.365V35.467h7.389a1.478,1.478,0,0,0,1.478-1.478V26.6h3.058l.353,4.949a1.478,1.478,0,0,0,1.133,1.33,13.21,13.21,0,0,1,3.9,1.626,1.478,1.478,0,0,0,1.745-.148l3.752-3.251,2.233,2.233-3.251,3.752a1.478,1.478,0,0,0-.14,1.744A13.21,13.21,0,0,1,76.48,42.74a1.478,1.478,0,0,0,1.33,1.132l4.949.355v3.16l-4.949.355a1.478,1.478,0,0,0-1.33,1.132,13.257,13.257,0,0,1-1.626,3.906,1.478,1.478,0,0,0,.14,1.744l3.251,3.752-2.233,2.233-3.752-3.251a1.478,1.478,0,0,0-1.745-.14,13.21,13.21,0,0,1-3.9,1.626,1.478,1.478,0,0,0-1.133,1.33l-.353,4.951h-3.16l-.353-4.949a1.478,1.478,0,0,0-1.133-1.33,13.21,13.21,0,0,1-3.9-1.626L55.019,59.63a16.09,16.09,0,0,0,3.72,1.7l.372,5.277a1.478,1.478,0,0,0,1.478,1.373H66.5a1.478,1.478,0,0,0,1.478-1.373l.375-5.277a16.148,16.148,0,0,0,2.766-1.147l4,3.465a1.478,1.478,0,0,0,2.011-.071L81.312,59.4a1.478,1.478,0,0,0,.071-2.013l-3.465-4a16.282,16.282,0,0,0,1.147-2.765l5.274-.374a1.478,1.478,0,0,0,1.373-1.478V42.856a1.478,1.478,0,0,0-1.373-1.478L79.061,41a16.211,16.211,0,0,0-1.147-2.765l3.465-4a1.478,1.478,0,0,0-.071-2.013l-4.181-4.181a1.478,1.478,0,0,0-2.011-.071l-4,3.465a16.148,16.148,0,0,0-2.766-1.147l-.372-5.277A1.478,1.478,0,0,0,66.5,23.645H62.067V22.167H91.623V69.456Z" fill="#593609"/>
      <path id="Path_1008194" data-name="Path 1008194" d="M37.238,35.022a1.478,1.478,0,0,0-1.33-1.132l-4.952-.355V29H28v5.911a1.478,1.478,0,0,0,1.373,1.478l5.277.378A16.282,16.282,0,0,0,35.8,39.532l-3.465,3.994,2.233,1.937,4.153-4.792a1.478,1.478,0,0,0,.14-1.744A13.257,13.257,0,0,1,37.238,35.022Z" transform="translate(13.378 13.856)" fill="#593609"/>
      <path id="Path_1008195" data-name="Path 1008195" d="M45.867,42.733A8.867,8.867,0,1,0,37,33.867a8.867,8.867,0,0,0,8.867,8.867Zm0-14.778a5.911,5.911,0,1,1-5.911,5.911A5.911,5.911,0,0,1,45.867,27.956Z" transform="translate(17.678 11.945)" fill="#593609"/>
      <path id="Path_1008196" data-name="Path 1008196" d="M14.344,5A10.344,10.344,0,1,0,24.689,15.344,10.344,10.344,0,0,0,14.344,5Zm7.241,8.867H15.822V8.1a7.413,7.413,0,0,1,5.763,5.763Zm-7.241,8.867A7.389,7.389,0,0,1,12.867,8.1v7.241a1.478,1.478,0,0,0,1.478,1.478h7.241A7.4,7.4,0,0,1,14.344,22.733Z" transform="translate(1.911 2.389)" fill="#593609"/>
      <rect id="Rectangle_455780" data-name="Rectangle 455780" width="10" height="3" transform="translate(46.289 7.29)" fill="#593609"/>
      <rect id="Rectangle_455781" data-name="Rectangle 455781" width="25" height="3" transform="translate(31.289 13.29)" fill="#593609"/>
      <rect id="Rectangle_455782" data-name="Rectangle 455782" width="25" height="3" transform="translate(31.289 19.29)" fill="#593609"/>
      <rect id="Rectangle_455783" data-name="Rectangle 455783" width="17" height="3" transform="translate(31.289 25.29)" fill="#593609"/>
      <rect id="Rectangle_455784" data-name="Rectangle 455784" width="3" height="3" transform="translate(31.289 7.29)" fill="#593609"/>
      <rect id="Rectangle_455785" data-name="Rectangle 455785" width="6" height="3" transform="translate(37.289 7.29)" fill="#593609"/>
      <rect id="Rectangle_455786" data-name="Rectangle 455786" width="3" height="3" transform="translate(65.289 87.29)" fill="#593609"/>
    </g>
  </g>
</svg>
