<svg xmlns="http://www.w3.org/2000/svg" width="84" height="84" viewBox="0 0 84 84">
  <g id="img3" transform="translate(-509.485 -449.575)">
    <path id="Path_1000766" data-name="Path 1000766" d="M58.481,58.811a.331.331,0,1,0-.331-.33.331.331,0,0,0,.331.33" transform="translate(453.155 393.243)" fill="#beb1a1"/>
    <path id="Path_1000767" data-name="Path 1000767" d="M114.862,57.712a1.488,1.488,0,1,0-1.488-1.488,1.488,1.488,0,0,0,1.488,1.488" transform="translate(416.643 395.5)" fill="#beb1a1"/>
    <path id="Path_1000768" data-name="Path 1000768" d="M172.21,57.083a2.149,2.149,0,1,0-2.149-2.149,2.149,2.149,0,0,0,2.149,2.149" transform="translate(379.166 396.79)" fill="#beb1a1"/>
    <path id="Path_1000769" data-name="Path 1000769" d="M231.921,57.607a1.6,1.6,0,1,0-1.6-1.6,1.6,1.6,0,0,0,1.6,1.6" transform="translate(339.325 395.716)" fill="#beb1a1"/>
    <path id="Path_1000770" data-name="Path 1000770" d="M292.925,58.76a.385.385,0,1,0-.386-.385.385.385,0,0,0,.386.385" transform="translate(298.192 393.35)" fill="#beb1a1"/>
    <path id="Path_1000772" data-name="Path 1000772" d="M56.224,116.35a1.488,1.488,0,1,0-1.488-1.488,1.488,1.488,0,0,0,1.488,1.488" transform="translate(455.41 356.733)" fill="#beb1a1"/>
    <path id="Path_1000773" data-name="Path 1000773" d="M110.669,114.305a3.637,3.637,0,1,0-3.637-3.637,3.636,3.636,0,0,0,3.637,3.637" transform="translate(420.837 360.926)" fill="#beb1a1"/>
    <path id="Path_1000774" data-name="Path 1000774" d="M167.157,113.258a4.739,4.739,0,1,0-4.739-4.738,4.738,4.738,0,0,0,4.739,4.738" transform="translate(384.219 363.075)" fill="#beb1a1"/>
    <path id="Path_1000775" data-name="Path 1000775" d="M227.729,114.2a3.747,3.747,0,1,0-3.747-3.747,3.747,3.747,0,0,0,3.747,3.747" transform="translate(343.518 361.141)" fill="#beb1a1"/>
    <path id="Path_1000776" data-name="Path 1000776" d="M290.452,116.192a1.653,1.653,0,1,0-1.653-1.653,1.653,1.653,0,0,0,1.653,1.653" transform="translate(300.664 357.056)" fill="#beb1a1"/>
    <path id="Path_1000779" data-name="Path 1000779" d="M54.933,174.358a2.149,2.149,0,1,0-2.149-2.149,2.149,2.149,0,0,0,2.149,2.149" transform="translate(456.701 319.257)" fill="#beb1a1"/>
    <path id="Path_1000780" data-name="Path 1000780" d="M108.519,171.9a4.739,4.739,0,1,0-4.739-4.738,4.738,4.738,0,0,0,4.739,4.738" transform="translate(422.986 324.309)" fill="#beb1a1"/>
    <path id="Path_1000781" data-name="Path 1000781" d="M163.717,170.219a6.5,6.5,0,1,0-6.5-6.5,6.5,6.5,0,0,0,6.5,6.5" transform="translate(387.658 327.748)" fill="#beb1a1"/>
    <path id="Path_1000782" data-name="Path 1000782" d="M225.471,171.739a4.9,4.9,0,1,0-4.9-4.9,4.9,4.9,0,0,0,4.9,4.9" transform="translate(345.774 324.631)" fill="#beb1a1"/>
    <path id="Path_1000783" data-name="Path 1000783" d="M289.054,174.149a2.369,2.369,0,1,0-2.369-2.369,2.369,2.369,0,0,0,2.369,2.369" transform="translate(302.062 319.686)" fill="#beb1a1"/>
    <path id="Path_1000786" data-name="Path 1000786" d="M56.008,233.52a1.6,1.6,0,1,0-1.6-1.6,1.6,1.6,0,0,0,1.6,1.6" transform="translate(455.627 279.413)" fill="#beb1a1"/>
    <path id="Path_1000787" data-name="Path 1000787" d="M110.454,231.477a3.747,3.747,0,1,0-3.747-3.747,3.747,3.747,0,0,0,3.747,3.747" transform="translate(421.051 283.605)" fill="#beb1a1"/>
    <path id="Path_1000788" data-name="Path 1000788" d="M166.834,230.377a4.9,4.9,0,1,0-4.9-4.9,4.9,4.9,0,0,0,4.9,4.9" transform="translate(384.541 285.862)" fill="#beb1a1"/>
    <path id="Path_1000789" data-name="Path 1000789" d="M227.406,231.319a3.912,3.912,0,1,0-3.912-3.912,3.912,3.912,0,0,0,3.912,3.912" transform="translate(343.84 283.928)" fill="#beb1a1"/>
    <path id="Path_1000790" data-name="Path 1000790" d="M290.237,233.363a1.763,1.763,0,1,0-1.763-1.763,1.763,1.763,0,0,0,1.763,1.763" transform="translate(300.878 279.737)" fill="#beb1a1"/>
    <path id="Path_1000792" data-name="Path 1000792" d="M58.373,293.311a.386.386,0,1,0-.386-.386.386.386,0,0,0,.386.386" transform="translate(453.261 238.282)" fill="#beb1a1"/>
    <path id="Path_1000793" data-name="Path 1000793" d="M114.539,292.106a1.653,1.653,0,1,0-1.653-1.653,1.653,1.653,0,0,0,1.653,1.653" transform="translate(416.966 240.753)" fill="#beb1a1"/>
    <path id="Path_1000794" data-name="Path 1000794" d="M171.779,291.425a2.369,2.369,0,1,0-2.369-2.369,2.369,2.369,0,0,0,2.369,2.369" transform="translate(379.596 242.15)" fill="#beb1a1"/>
    <path id="Path_1000795" data-name="Path 1000795" d="M231.6,292a1.763,1.763,0,1,0-1.763-1.763A1.763,1.763,0,0,0,231.6,292" transform="translate(339.647 240.968)" fill="#beb1a1"/>
    <path id="Path_1000796" data-name="Path 1000796" d="M292.817,293.258a.441.441,0,1,0-.441-.441.441.441,0,0,0,.441.441" transform="translate(298.299 238.389)" fill="#beb1a1"/>
  </g>
</svg>
