<svg xmlns="http://www.w3.org/2000/svg" width="70" height="70" viewBox="0 0 70 70">
  <g id="img34" transform="translate(-216 -6996.5)">
    <rect id="Rectangle_455590" data-name="Rectangle 455590" width="70" height="70" transform="translate(216 6996.5)" fill="#faf2df"/>
    <g id="International-Global-Worldwide-Economy-Business" transform="translate(222.986 7003.979)">
      <circle id="Ellipse_13914" data-name="Ellipse 13914" cx="19.973" cy="19.973" r="19.973" transform="translate(8.04 8.04)" fill="#5aaae7"/>
      <path id="Path_1008235" data-name="Path 1008235" d="M32.617,35.241a.868.868,0,0,1,.842,1.077l-.486,1.954a.868.868,0,0,1-.573.617l-1.5.495a.876.876,0,0,0-.6.825l-.009,1.45a.861.861,0,0,1-.478.764l-2.518,1.259a.868.868,0,0,0-.478.782v2.588a.862.862,0,0,1-1.138.825l-1.059-.347a.859.859,0,0,1-.547-.547l-1.554-4.646a1.029,1.029,0,0,1-.043-.278v-2.8A.868.868,0,0,0,22,38.472l-1.129-.564a.868.868,0,0,1-.226-.156l-1.389-1.389A.876.876,0,0,1,19,35.754V33.14a.881.881,0,0,1,.417-.747l3.335-2.032a.88.88,0,0,1,1.077.13L25.7,32.375a.853.853,0,0,0,.617.261h2.64a.88.88,0,0,1,.729.391l1.2,1.824a.868.868,0,0,0,.721.391Z" transform="translate(-2.276 -3.754)" fill="#00ccb3"/>
      <path id="Path_1008236" data-name="Path 1008236" d="M9.82,23.776a.949.949,0,0,1,.043-.148,20.055,20.055,0,0,1,9.683-12.123A19.452,19.452,0,0,1,24.453,9.63l.955,1.693a.832.832,0,0,0,.608.434l3.474.582a.868.868,0,0,1,.582,1.337l-.808,1.207a.811.811,0,0,1-.512.356l-2.848.712a.874.874,0,0,0-.478.321l-2.3,3.065a.8.8,0,0,1-.3.261l-3.187,1.589a.924.924,0,0,1-.217.078l-3.534.7a.868.868,0,0,0-.695.851v1.424a.88.88,0,0,0,.391.729L17.4,26.19a.88.88,0,0,1,.391.729v1.6a.963.963,0,0,1-.069.356.868.868,0,0,1-1.19.426l-3.778-1.893a.888.888,0,0,1-.3-.243Z" transform="translate(-1.068 -1.043)" fill="#00ccb3"/>
      <path id="Path_1008237" data-name="Path 1008237" d="M50.668,22.608a19.951,19.951,0,0,1-2.136,19.86l-1.98-1.98a.876.876,0,0,1-.252-.608V37.049a.894.894,0,0,0-.174-.521l-2.258-3A.894.894,0,0,1,43.695,33V30.2a.9.9,0,0,0-.252-.617l-1.112-1.1a.868.868,0,0,0-.877-.217l-1.867.608a.815.815,0,0,1-.478.017l-2.718-.66a.881.881,0,0,1-.643-.634l-.643-2.614a.893.893,0,0,1,.113-.695l1.268-1.893A.88.88,0,0,1,37.216,22H39.96a.861.861,0,0,1,.478.148l2.249,1.494a.947.947,0,0,0,.3.13l3.856.773a.923.923,0,0,0,.608-.1Z" transform="translate(-4.392 -2.671)" fill="#00ccb3"/>
      <path id="Path_1008238" data-name="Path 1008238" d="M48.323,17.022l-1.3.868a.868.868,0,0,1-.868.052l-2.735-1.363a.844.844,0,0,0-.6-.069l-2.788.695a.861.861,0,0,1-.695-.122l-1.563-1.042a.868.868,0,0,1-.243-1.2l1-1.494a.88.88,0,0,1,.729-.391h3.613a.861.861,0,0,0,.478-.148l.191-.13a19.5,19.5,0,0,1,4.785,4.342Z" transform="translate(-4.695 -1.444)" fill="#00ccb3"/>
      <path id="Path_1008239" data-name="Path 1008239" d="M48.384,32.413a20.762,20.762,0,0,0,0-8.8c5.992-9.261,7.565-16.785,4.194-20.166C49.593.473,43.331,1.339,35.395,5.827l.855,1.511c7.1-4.015,12.746-5.012,15.1-2.663,2.526,2.533,1.1,8.978-3.592,16.673A20.825,20.825,0,0,0,23.616,7.64C14.354,1.655,6.824.078,3.448,3.45.462,6.444,1.344,12.729,5.869,20.7l1.511-.858c-4.051-7.133-5.061-12.8-2.7-15.167,2.536-2.527,8.98-1.1,16.673,3.592a20.835,20.835,0,0,0,0,39.488c-7.7,4.7-14.145,6.119-16.673,3.593-2.345-2.355-1.355-8,2.657-15.094L5.822,35.4C1.339,43.335.473,49.594,3.45,52.579a6.71,6.71,0,0,0,4.923,1.747c3.893,0,9.2-2.036,15.238-5.942a20.824,20.824,0,0,0,24.147-13.71c4.7,7.7,6.118,14.144,3.593,16.673-2.414,2.409-8.227,1.318-15.544-2.916l-.868,1.5c5.022,2.91,9.389,4.392,12.717,4.392a6.71,6.71,0,0,0,4.924-1.748C55.948,49.2,54.374,41.674,48.384,32.413Zm-5.955.923-.705-.938Q43,30.922,44.183,29.433q1.245,1.664,2.345,3.312a19,19,0,0,1-2.518,5.7L42.776,37.21V34.379a1.765,1.765,0,0,0-.347-1.042Zm-2.258-3v-2.8a1.772,1.772,0,0,0-.509-1.232l-1.1-1.09a1.742,1.742,0,0,0-1.771-.44l-1.871.608L32.2,24.713l-.65-2.618,1.276-1.9h2.744l1.7,1.129c2.095,2.178,4.057,4.429,5.831,6.687Q41.93,29.5,40.658,30.976Zm3.262-13.581a19.128,19.128,0,0,1,1.718,2.829l-2.525,1.442-3.85-.775-.4-.261c-.382-.4-.764-.792-1.155-1.182-.736-.737-1.487-1.455-2.241-2.161a1.65,1.65,0,0,0,.561-.038l2.789-.695,2.734,1.363a1.737,1.737,0,0,0,1.737-.106ZM45.85,21.18a18.939,18.939,0,0,1,.674,2.1q-1.093,1.646-2.345,3.311c-1.12-1.41-2.308-2.815-3.556-4.2l1.686.338a1.789,1.789,0,0,0,1.18-.206Zm-.566,6.833c.584-.769,1.152-1.539,1.69-2.3a18.5,18.5,0,0,1,0,4.61C46.437,29.552,45.868,28.783,45.284,28.013ZM42.342,15.393l-.494.329-2.719-1.356a1.7,1.7,0,0,0-1.216-.144l-2.789.695-1.563-1.035,1-1.5h3.613a1.717,1.717,0,0,0,.62-.131,19.289,19.289,0,0,1,3.548,3.142Zm-6.385-4.748h-1.4a1.749,1.749,0,0,0-1.451.777l-1,1.5a1.737,1.737,0,0,0-.277.894q-.907-.774-1.818-1.511a1.732,1.732,0,0,0-1.445-1.866l-1.216-.206q-.82-.608-1.637-1.182a19.23,19.23,0,0,1,2.3-.144A18.991,18.991,0,0,1,35.958,10.645Zm-13-1.052.615,1.089a1.688,1.688,0,0,0,1.235.888l1.832.307c.4.3.807.608,1.21.921l-.373.556-2.866.716a1.719,1.719,0,0,0-.945.638l-2.3,3.071-3.186,1.593-3.532.7a1.737,1.737,0,0,0-1.4,1.7V23.2a1.751,1.751,0,0,0,.782,1.452l1.824,1.223v1.6l-3.777-1.894L9.711,22.548A19.176,19.176,0,0,1,22.955,9.594ZM8.909,28.013a19.162,19.162,0,0,1,.29-3.295l1.5,1.922a1.746,1.746,0,0,0,.6.5l3.782,1.9a1.765,1.765,0,0,0,.775.181h.023a1.616,1.616,0,0,0-.023.174V32a1.75,1.75,0,0,0,.509,1.22l1.382,1.382a1.737,1.737,0,0,0,.452.326l1.129.565V38.3a1.7,1.7,0,0,0,.087.549l1.55,4.648a1.747,1.747,0,0,0,1.105,1.1l1.056.347a1.737,1.737,0,0,0,2.282-1.65v-2.59l2.513-1.258a1.726,1.726,0,0,0,.96-1.541l.01-1.45,1.511-.5a1.73,1.73,0,0,0,1.138-1.228l.486-1.952a1.737,1.737,0,0,0-1.685-2.157H29.328l-1.2-1.824a1.731,1.731,0,0,0-1.451-.782H24.034l-1.867-1.889a1.737,1.737,0,0,0-2.139-.261l-2.435,1.485V25.873a1.751,1.751,0,0,0-.782-1.452L14.987,23.2V21.778l3.56-.708a1.772,1.772,0,0,0,.411-.148l3.184-1.594a1.618,1.618,0,0,0,.608-.516l2.3-3.065,2.84-.71a1.654,1.654,0,0,0,1.033-.718l.29-.434c1.749,1.427,3.487,2.953,5.182,4.571H32.827a1.751,1.751,0,0,0-1.451.776l-1.284,1.92a1.752,1.752,0,0,0-.22,1.362l.643,2.621a1.75,1.75,0,0,0,1.28,1.264l2.688.652a1.675,1.675,0,0,0,.981-.028l1.864-.6,1.106,1.1v2.8a1.765,1.765,0,0,0,.347,1.042l.7.934C38.364,33.556,37.2,34.791,36,36A84.371,84.371,0,0,1,23.281,46.524,19.137,19.137,0,0,1,8.909,28.013Zm11.2,5.93-1.129-.565L17.593,32V29.384l3.34-2.037L22.8,29.234a1.746,1.746,0,0,0,1.231.516h2.643l1.2,1.824a1.737,1.737,0,0,0,1.451.782h1.012l-.486,1.953-1.509.5a1.737,1.737,0,0,0-1.191,1.637l-.01,1.45-2.513,1.258a1.726,1.726,0,0,0-.96,1.554V43.3l-1.055-.347L21.066,38.3V35.5a1.726,1.726,0,0,0-.955-1.554Zm7.9,13.175a19.241,19.241,0,0,1-2.306-.144,88.137,88.137,0,0,0,11.517-9.75c1.145-1.145,2.254-2.316,3.323-3.5l.492.655V37.21a1.742,1.742,0,0,0,.506,1.224l1.435,1.435a19.076,19.076,0,0,1-14.967,7.249Z" transform="translate(0)"/>
    </g>
  </g>
</svg>
