<svg xmlns="http://www.w3.org/2000/svg" xmlns:xlink="http://www.w3.org/1999/xlink" width="292" height="272.992" viewBox="0 0 292 272.992">
  <defs>
    <linearGradient id="linear-gradient" x1="1.694" y1="0.085" x2="0.539" y2="0.158" gradientUnits="objectBoundingBox">
      <stop offset="0"/>
      <stop offset="1" stop-color="#040517"/>
    </linearGradient>
  </defs>
  <g id="img37" transform="translate(-185.711 -9457)">
    <rect id="Image_Place_Holder" data-name="Image Place Holder" width="292" height="272.992" rx="10" transform="translate(185.711 9457)" fill="#ffe0b9"/>
    <g id="_374269483_4d35b014-3c8a-4084-91a2-475dbe03e690" data-name="374269483_4d35b014-3c8a-4084-91a2-475dbe03e690" transform="translate(34.531 9065.462)">
      <g id="Group_1180441" data-name="Group 1180441" transform="translate(167.179 415.538)">
        <path id="Path_1003884" data-name="Path 1003884" d="M2809.611,1059.849c-1.871-.113-3.755-.07-5.629-.062l.038,18.217c1.82-.008,3.656-.062,5.473.044l.131-.01C2809.906,1072.022,2809.681,1065.874,2809.611,1059.849Z" transform="translate(-2616.437 -1013.95)" fill="none"/>
        <path id="Path_1003885" data-name="Path 1003885" d="M2288.628,2347.99a4.969,4.969,0,0,0,.084.493,4.887,4.887,0,0,0,.134.482,4.984,4.984,0,0,0,.182.467q.1.228.228.446a4.959,4.959,0,0,0,.272.42,4.907,4.907,0,0,0,.313.391,4.84,4.84,0,0,0,.351.357,4.929,4.929,0,0,0,.385.32,5.177,5.177,0,0,0,3.688.857,5.72,5.72,0,0,0,3.973-2.615,5.244,5.244,0,0,0,.667-4.1q-.031-.121-.068-.24t-.081-.237q-.043-.118-.092-.232t-.1-.228q-.055-.112-.116-.222c-.04-.073-.083-.145-.126-.216s-.09-.14-.138-.208-.1-.136-.148-.2-.1-.13-.159-.193-.111-.125-.168-.185-.117-.119-.177-.176-.123-.113-.187-.167-.128-.106-.194-.157-.134-.1-.2-.147-.139-.093-.21-.136-.143-.085-.217-.125a5.391,5.391,0,0,0-2.656-.6,5.68,5.68,0,0,0-4.028,1.987c-.058.072-.115.146-.169.22s-.108.151-.159.228-.1.156-.146.236-.092.161-.135.243-.084.166-.123.25-.075.169-.11.255-.067.173-.1.26-.058.176-.084.265-.049.179-.071.269-.04.181-.057.272-.031.183-.043.275-.022.184-.03.276-.013.185-.016.278,0,.185,0,.278.005.186.012.278S2288.617,2347.9,2288.628,2347.99Z" transform="translate(-2137.702 -2204.831)" fill="none"/>
        <path id="Path_1003886" data-name="Path 1003886" d="M2604.043,1164.2q-.065,5.4-.05,10.805c1.873-.01,3.788-.095,5.654.044l0-10.86Z" transform="translate(-2430.669 -1110.941)" fill="none"/>
        <path id="Path_1003887" data-name="Path 1003887" d="M2999.889,981.738c-.155,3.022-.047,6.1-.056,9.13q-.053,7.356,0,14.711l5.6-.02-.021-23.757C3003.57,981.757,3001.728,981.758,2999.889,981.738Z" transform="translate(-2798.332 -941.466)" fill="none"/>
        <path id="Path_1003888" data-name="Path 1003888" d="M741.487,3074.74c2.66,0,5.323.036,7.983.006-.321-3.141-7.246-37.132-7.906-37.695Q741.4,3055.9,741.487,3074.74Z" transform="translate(-700.611 -2850.594)" fill="none"/>
        <path id="Path_1003889" data-name="Path 1003889" d="M3395.305,731.629l-.13-28.5-5.381.021c-.123,6.8,0,13.588.006,20.39l-.1,23.191c1.783-.005,3.569-.039,5.35.046l.295.023C3395.506,741.764,3395.33,736.671,3395.305,731.629Z" transform="translate(-3160.497 -682.676)" fill="none"/>
        <path id="Path_1003890" data-name="Path 1003890" d="M1674.017,647.9q.054.2.119.406t.139.4q.075.2.159.392t.179.384q.094.189.2.374t.216.364q.113.179.234.352t.252.34q.13.167.269.326t.285.313q.146.153.3.3t.315.283q.161.137.329.266t.342.249q.174.12.354.232a8.188,8.188,0,0,0,11.469-2.805q.1-.172.2-.349t.179-.359q.085-.182.161-.367t.141-.375q.066-.189.122-.382t.1-.388q.047-.2.083-.392t.063-.4q.026-.2.042-.4t.022-.4q.006-.2,0-.4t-.019-.4q-.014-.2-.039-.4t-.059-.4q-.035-.2-.079-.393t-.1-.388a8.474,8.474,0,0,0-4.155-5.191,8.588,8.588,0,0,0-5.016-.959,8.8,8.8,0,0,0-5.824,3.632,8.06,8.06,0,0,0-1.082,6.118Q1673.963,647.7,1674.017,647.9Z" transform="translate(-1566.577 -621.903)" fill="none"/>
        <path id="Path_1003891" data-name="Path 1003891" d="M366.7,650.081q.229.193.47.371t.495.338q.253.161.516.3t.536.268q.272.125.553.231t.567.193q.287.087.579.154c3.052.673,7.493.308,10.674.3l17.7-.012,6.907.013c4.8,0,8.221-.086,11.833-3.681a12.742,12.742,0,0,0,3.746-9.2,14.37,14.37,0,0,0-4.159-10.113q-.243-.243-.5-.474t-.521-.448q-.266-.217-.543-.421t-.564-.393q-.287-.19-.583-.365t-.6-.335q-.3-.16-.616-.3t-.631-.273q-.319-.129-.644-.241t-.655-.209q-.33-.1-.665-.175t-.673-.142q-.338-.062-.679-.107t-.684-.073q-.343-.028-.686-.039t-.688,0a13.327,13.327,0,0,0-5.855,1.524,15.726,15.726,0,0,0-10.949-5.655,14.159,14.159,0,0,0-2.845.047,17.331,17.331,0,0,0-11.373,6.908,15.764,15.764,0,0,0-2.032,3.9c-.259.768-.413,1.6-.735,2.338-.122.279-.153.464-.479.532a11.577,11.577,0,0,1-2.063-.061,7.341,7.341,0,0,0-4.853,2.381q-.154.155-.3.318t-.284.333q-.138.17-.267.347t-.249.36q-.12.183-.231.372t-.211.383q-.1.194-.192.393t-.172.4q-.081.2-.152.41t-.131.417q-.06.21-.11.424t-.088.428q-.039.215-.067.432t-.045.435q-.017.218-.023.437t0,.437a9.009,9.009,0,0,0,2.776,6.189Q366.475,649.887,366.7,650.081Z" transform="translate(-349.519 -606.445)" fill="none"/>
        <path id="Path_1003892" data-name="Path 1003892" d="M3203.723,879.169q.064-11.636-.008-23.272l-5.419.017-.07,32.767,5.574.013C3203.835,885.525,3203.721,882.341,3203.723,879.169Z" transform="translate(-2982.639 -824.576)" fill="none"/>
        <path id="Path_1003893" data-name="Path 1003893" d="M2590.394,653.954a1.742,1.742,0,0,0-1.742-1.742h-18.8a1.742,1.742,0,1,0,0,3.483h18.8A1.741,1.741,0,0,0,2590.394,653.954Z" transform="translate(-2397.346 -635.378)" fill="none"/>
        <path id="Path_1003894" data-name="Path 1003894" d="M1204.06,2737.058l-34.511.049c-.054,2.587-.013,5.18-.012,7.767l71.475.024h29.647q8.522.042,17.042-.039c.075-2.612.02-5.253-.051-7.865l-14.711-.01-45.98-.009C1219.33,2736.984,1211.687,2737.141,1204.06,2737.058Z" transform="translate(-1098.228 -2571.862)" fill="none"/>
        <path id="Path_1003895" data-name="Path 1003895" d="M1349.98,1990.12a4.4,4.4,0,0,1-.339-1.626c-.05-.776-.125-2.373.523-2.92.817-.689,10.761-.419,12.476-.448a48.409,48.409,0,0,0-4.71-5.843c-2.184-.16-4.44-.043-6.632-.043l-11.183-.038a43.464,43.464,0,0,1-6.031-.048,1.3,1.3,0,0,1-.98-.506l.083-.382c.752-.522,6.082-.257,7.469-.283.481-3.3,1.472-6.712,2.217-9.974.442-1.932,1.145-6.026,1.909-7.684a1.432,1.432,0,0,1,.612-.656l.273.068a1.636,1.636,0,0,1,.112,1.058c-.322,2.17-1,4.419-1.515,6.555q-1.343,5.284-2.411,10.632c5.546.2,11.137,0,16.69.061a36.939,36.939,0,0,1,5.419,7.079l2.52.038c.716-2.489,1.146-5.085,1.763-7.6q2.371-9.794,4.884-19.552c.568-2.212,1.318-6.584,2.54-8.423.859-1.293,2.16-1.554,3.574-1.874l-.506-1.25a21.932,21.932,0,0,0-12.233-10.778,8.511,8.511,0,0,1-3.414,3.815,8.812,8.812,0,0,1-6.437.872,11.912,11.912,0,0,1-7.315-5.886,33.764,33.764,0,0,0-7.779,3.089,21.341,21.341,0,0,0-7.311,7.823c-1.287,2.559-1.778,5.926-2.466,8.716q-2.147,8.628-4.111,17.3c-.74,3.243-1.7,6.48-2.307,9.746a7.38,7.38,0,0,0,1.18,5.751,8.2,8.2,0,0,0,5.142,3.4c2.6.451,7.974.149,10.806.143a50.518,50.518,0,0,0,7.356-.117C1349.96,1990.275,1349.892,1990.324,1349.98,1990.12Z" transform="translate(-1242.849 -1826.444)" fill="none"/>
        <path id="Path_1003896" data-name="Path 1003896" d="M2544.576,586.546h35.786a1.741,1.741,0,0,0,1.741-1.742h0a1.741,1.741,0,0,0-1.741-1.742h-35.786a1.742,1.742,0,0,0-1.742,1.742h0A1.741,1.741,0,0,0,2544.576,586.546Z" transform="translate(-2373.863 -571.148)" fill="none"/>
        <path id="Path_1003897" data-name="Path 1003897" d="M2586.7,3140.235q-1.372-4.677-2.821-9.33c-.583-1.854-1.32-3.72-1.717-5.623l-4.787.027-2.2.017c-.051,10.452.134,20.916-.022,31.365q4.561.044,9.122.016.694-5.719,1.564-11.414C2586.1,3143.616,2586.312,3141.888,2586.7,3140.235Z" transform="translate(-2403.889 -2932.55)" fill="none"/>
        <path id="Path_1003898" data-name="Path 1003898" d="M1377.982,2898.807l-.016-33.735q-4.644-.029-9.288,0l-.031,49.857c3.087.13,6.2.093,9.286.069.166-1.912.067-3.9.063-5.819Z" transform="translate(-1283.191 -2690.834)" fill="none"/>
        <path id="Path_1003899" data-name="Path 1003899" d="M2957.07,2793.03a1.287,1.287,0,0,1,.132-.77c.756-.593,10.213-.283,11.951-.295.223-3.911.116-7.875.1-11.792-.01-3.36.259-6.917-.409-10.222a6.925,6.925,0,0,1-5.626-.894,10.307,10.307,0,0,1-1.949-1.622c-.585-.619-1.974-2.865-2.547-3.073a24.617,24.617,0,0,1-3.568,1.476c2.235,4.934,3.4,9.039,1.424,14.354a15.692,15.692,0,0,1-7.959,8.6c-.651.286-1.347.485-2.021.711,1.257.045,2.383.03,3.312,1.032a1.71,1.71,0,0,1,.492,1.087,1.82,1.82,0,0,1-.671,1.329,3.579,3.579,0,0,1-1.862.821,32.714,32.714,0,0,1-4.794.031l-10.8.018-1.023,7.352a35.864,35.864,0,0,0-.512,4.7,46.7,46.7,0,0,0,.76,6.448l1.245,9.143q3.9-.057,7.8-.036c7.083.057,14.2.17,21.277.009q-1.733-9.521-3.233-19.082C2958.11,2799.427,2957.3,2795.921,2957.07,2793.03Z" transform="translate(-2734.182 -2597.3)" fill="none"/>
        <path id="Path_1003900" data-name="Path 1003900" d="M2703.168,3125.084l-13.594-.04c.689,2.476,1.605,4.889,2.379,7.341l4.208,13.7c1.083,3.463,2.276,6.886,3.255,10.381l8.117-.015-2.776-19.753C2704.244,3132.85,2703.975,3128.878,2703.168,3125.084Z" transform="translate(-2510.167 -2932.328)" fill="none"/>
        <path id="Path_1003901" data-name="Path 1003901" d="M2720.25,3385.036c1.476.039,2.955.1,4.431.075l1.933-.038c-.359-1.673-3.741-13.25-4.443-13.884C2721.5,3375.786,2721.031,3380.461,2720.25,3385.036Z" transform="translate(-2538.66 -3160.965)" fill="none"/>
        <path id="Path_1003902" data-name="Path 1003902" d="M2440.158,2864.424c-2.987-.046-6.013-.124-9-.017l-.018,28c-.017,7.3-.095,14.611.061,21.905,3,0,6.016.073,9.016.012q.128-17.425-.006-34.85C2440.183,2874.462,2440.294,2869.43,2440.158,2864.424Z" transform="translate(-2270.083 -2690.179)" fill="none"/>
        <path id="Path_1003903" data-name="Path 1003903" d="M1029.077,907.516a15.177,15.177,0,0,1-6.576,2.691,8.906,8.906,0,0,0,1.036.1c2.62.058,5.257-.069,7.879-.073,1.995,0,4.224.3,6.171-.12q.228-.05.451-.116t.441-.147q.218-.081.43-.178t.417-.208q.2-.111.4-.236t.384-.263q.187-.138.365-.29t.343-.314a5.98,5.98,0,0,0,1.644-4.468,6.609,6.609,0,0,0-2.1-4.658c-1.544-1.378-3.591-1.566-5.554-1.456l-.2-.155C1034.013,901.761,1032.5,904.968,1029.077,907.516Z" transform="translate(-961.665 -863.332)" fill="#77bfdf"/>
        <path id="Path_1003904" data-name="Path 1003904" d="M1224.533,1633.122a20.952,20.952,0,0,0,0,3.9c.005,3.467-.071,6.949,0,10.414l15.808.079.247-.179q-.025-7.193.049-14.386c-5.258,0-10.53-.075-15.786.048Z" transform="translate(-1149.227 -1546.339)" fill="#77bfdf"/>
        <path id="Path_1003905" data-name="Path 1003905" d="M3500.883,2704.167c-2.381,2.973-4.388,7.351-3.97,11.25a6.236,6.236,0,0,0,2.124,4.285,7.68,7.68,0,0,0,1.635.981,10.421,10.421,0,0,0,8.1-1.029,20.579,20.579,0,0,0,9.874-12.207c.6-1.974,1.685-9.019.7-10.775-.121-.216-.237-.242-.484-.287a9.8,9.8,0,0,0-2.312.076C3510.493,2697.121,3504.792,2699.285,3500.883,2704.167Zm16.332-6.579a6.6,6.6,0,0,1,.867-.057.9.9,0,0,1,.435.727,16.716,16.716,0,0,1-.032,2.328,21.926,21.926,0,0,1-4.915,13.633c-2.385,2.841-5.968,5.467-9.795,5.727a5.778,5.778,0,0,1-4.433-1.608c1.352-1.478,2.59-3.083,3.889-4.61l7.34-8.517c.239-.266.645-.62.59-1.011a.938.938,0,0,0-.421-.711,1.254,1.254,0,0,0-.34.052c-.856.391-10.4,12.28-11.89,13.939-.131-.626-.253-1.271-.323-1.906-.411-3.74,1.352-7.753,3.665-10.606C3505.724,2700.188,3511.292,2698.217,3517.215,2697.587Z" transform="translate(-3260.031 -2534.112)" fill="#000102"/>
        <path id="Path_1003906" data-name="Path 1003906" d="M3514.787,2731.171c.07.635.192,1.281.323,1.906,1.491-1.659,11.034-13.548,11.891-13.939a1.263,1.263,0,0,1,.34-.051.939.939,0,0,1,.421.711c.055.391-.352.745-.59,1.011l-7.34,8.517c-1.3,1.527-2.537,3.133-3.889,4.611a5.779,5.779,0,0,0,4.433,1.608c3.827-.26,7.41-2.886,9.795-5.728a21.926,21.926,0,0,0,4.915-13.632,16.71,16.71,0,0,0,.031-2.328.9.9,0,0,0-.435-.728,6.606,6.606,0,0,0-.868.057c-5.923.63-11.491,2.6-15.363,7.377C3516.138,2723.418,3514.375,2727.432,3514.787,2731.171Z" transform="translate(-3276.629 -2549.712)" fill="#205992"/>
        <path id="Path_1003907" data-name="Path 1003907" d="M1656.892,1461.933a49.993,49.993,0,0,0,2.87-7.37q-.528-.336-1.041-.694a3.164,3.164,0,0,1-1.373-2.1,2.719,2.719,0,0,1-.025-.274,2.689,2.689,0,0,1,0-.275q.009-.138.031-.274a2.69,2.69,0,0,1,.058-.269,2.6,2.6,0,0,1,.085-.262q.049-.129.111-.252t.136-.239a2.72,2.72,0,0,1,.159-.225,2.68,2.68,0,0,1,1.89-1.043c2.536-.178,2.369,1.99,3.219,2.739.36.035.355.052.646-.159a5.291,5.291,0,0,0,.384-2.013c1.939-1.5,2.97-1.862,4.157-4.149a11.285,11.285,0,0,0,1.265,2.026c2.186,2.734,4.778,3.414,8.127,3.789.027.455.074.894.146,1.344a2.908,2.908,0,0,1,.2,1.237,14.265,14.265,0,0,1-3.882,8.818c-.074.307-.108.22.064.536l.241-.034a11.732,11.732,0,0,0,3.153-4.545,20.544,20.544,0,0,1,.617-1.985c.274-.841.833-2.364.417-3.186l.093.287a1.59,1.59,0,0,1-.323-.929c.163-.331.178-.3.528-.431l-.064-1.219a7.514,7.514,0,0,0,4.887-3.775q.087-.163.165-.33t.149-.338q.07-.171.131-.344t.114-.351q.053-.177.1-.356t.078-.361q.035-.181.06-.364t.042-.367q.016-.184.024-.368t0-.369q0-.185-.013-.369t-.032-.367q-.021-.183-.051-.365t-.069-.362q-.039-.18-.087-.359t-.1-.354a5.477,5.477,0,0,0-2.7-3.334,6.02,6.02,0,0,0-3.726-.412,5.956,5.956,0,0,0-2.531-4.12q-.129-.085-.262-.164t-.27-.151q-.137-.072-.277-.137t-.284-.123q-.144-.058-.29-.108t-.295-.094q-.148-.043-.3-.079t-.3-.064q-.152-.028-.306-.048t-.307-.033q-.154-.013-.309-.018t-.309,0q-.155,0-.309.014t-.308.029q-.154.018-.306.044t-.3.06a6.64,6.64,0,0,0-4.028,2.769,4.462,4.462,0,0,0-3.568-.335,4.992,4.992,0,0,0-2.689,2.891l-.239.077-.133-.114-.118.165c-.053.011-.106.021-.159.034a11.076,11.076,0,0,0-6.641,5.161,12.526,12.526,0,0,0-1.256,9.659,15.743,15.743,0,0,0,2.965,6.014,15.472,15.472,0,0,1,1.344,1.71.849.849,0,0,1-.009.769l.244.545C1656.437,1461.913,1656.657,1461.929,1656.892,1461.933Z" transform="translate(-1545.663 -1360.07)" fill="#02091a"/>
        <path id="Path_1003908" data-name="Path 1003908" d="M1693.909,1612.674a11.277,11.277,0,0,1-1.265-2.026c-1.187,2.287-2.218,2.649-4.157,4.149a5.291,5.291,0,0,1-.385,2.013c-.291.21-.285.194-.646.159-.851-.749-.683-2.917-3.219-2.739a2.68,2.68,0,0,0-1.89,1.043q-.085.108-.159.225a2.752,2.752,0,0,0-.136.24q-.062.123-.111.252a2.735,2.735,0,0,0-.143.531,2.682,2.682,0,0,0-.034.549,2.677,2.677,0,0,0,.025.274,3.163,3.163,0,0,0,1.372,2.1q.513.358,1.041.694a49.978,49.978,0,0,1-2.87,7.37,29.3,29.3,0,0,1-3.8,5.725,10.6,10.6,0,0,0,3.986,4.171,8.579,8.579,0,0,0,6.7,1.036,7.016,7.016,0,0,0,4.273-3.523c-.508-.957-.93-1.95-1.36-2.944a12.879,12.879,0,0,1-3.893-1.093c-.609-.292-1.818-1.078-1.991-1.761-.05-.2,0-.166.138-.352.887-.224,2.057,1.018,2.918,1.371a9.288,9.288,0,0,0,2.879.653,8.6,8.6,0,0,0,6.375-2.355c3.171-2.795,4.368-6.524,4.63-10.631-.072-.451-.119-.889-.146-1.344C1698.687,1616.088,1696.1,1615.409,1693.909,1612.674Z" transform="translate(-1570.104 -1525.645)" fill="#fefefe"/>
        <path id="Path_1003909" data-name="Path 1003909" d="M1543.276,1724.136a11.912,11.912,0,0,0,7.315,5.887,8.812,8.812,0,0,0,6.437-.873,8.513,8.513,0,0,0,3.414-3.815,21.933,21.933,0,0,1,12.233,10.778c.045-.038.089-.079.134-.116a1.046,1.046,0,0,1,.966-.335c-.016-.036-.031-.074-.047-.11a21.9,21.9,0,0,0-10.362-10.326c-.929-.444-1.976-.653-2.929-1.052-.88-.369-1.1-.88-1.468-1.729a10.45,10.45,0,0,0,6.972-3.563q.256-.27.5-.553t.469-.577q.227-.294.439-.6t.409-.621q.2-.315.377-.641t.344-.659q.164-.334.311-.675t.277-.69q.13-.348.242-.7t.206-.714q.094-.36.17-.724t.133-.731q.057-.367.1-.737t.059-.741q.021-.371.022-.743t-.015-.743c-.35.131-.365.1-.528.431a1.589,1.589,0,0,0,.323.93l-.093-.287c.416.822-.143,2.345-.417,3.186a20.59,20.59,0,0,0-.617,1.985,11.731,11.731,0,0,1-3.153,4.546l-.242.034c-.172-.316-.138-.229-.064-.536a14.266,14.266,0,0,0,3.882-8.818,2.906,2.906,0,0,0-.2-1.237c-.262,4.108-1.459,7.837-4.63,10.631a8.6,8.6,0,0,1-6.375,2.354,9.283,9.283,0,0,1-2.879-.654c-.861-.353-2.031-1.6-2.918-1.371-.141.186-.189.153-.138.352.173.683,1.382,1.469,1.991,1.761a12.879,12.879,0,0,0,3.893,1.093c.43.993.852,1.987,1.36,2.944a7.017,7.017,0,0,1-4.273,3.522,8.58,8.58,0,0,1-6.7-1.036,10.594,10.594,0,0,1-3.986-4.171,29.312,29.312,0,0,0,3.8-5.725c-.235,0-.455-.021-.688-.045l-.244-.545a25.407,25.407,0,0,1-3.713,5.635,25.6,25.6,0,0,0-9.367,3.938,4.082,4.082,0,0,1,1.491.279A33.744,33.744,0,0,1,1543.276,1724.136Z" transform="translate(-1436.789 -1616.1)" fill="#fefefe"/>
        <path id="Path_1003910" data-name="Path 1003910" d="M1543.276,1724.136a11.912,11.912,0,0,0,7.315,5.887,8.812,8.812,0,0,0,6.437-.873,8.513,8.513,0,0,0,3.414-3.815,21.933,21.933,0,0,1,12.233,10.778c.045-.038.089-.079.134-.116a1.046,1.046,0,0,1,.966-.335c-.016-.036-.031-.074-.047-.11a21.9,21.9,0,0,0-10.362-10.326c-.929-.444-1.976-.653-2.929-1.052-.88-.369-1.1-.88-1.468-1.729a10.45,10.45,0,0,0,6.972-3.563q.256-.27.5-.553t.469-.577q.227-.294.439-.6t.409-.621q.2-.315.377-.641t.344-.659q.164-.334.311-.675t.277-.69q.13-.348.242-.7t.206-.714q.094-.36.17-.724t.133-.731q.057-.367.1-.737t.059-.741q.021-.371.022-.743t-.015-.743c-.35.131-.365.1-.528.431a1.589,1.589,0,0,0,.323.93l-.093-.287c.416.822-.143,2.345-.417,3.186a20.59,20.59,0,0,0-.617,1.985,11.731,11.731,0,0,1-3.153,4.546l-.242.034c-.172-.316-.138-.229-.064-.536a14.266,14.266,0,0,0,3.882-8.818,2.906,2.906,0,0,0-.2-1.237c-.262,4.108-1.459,7.837-4.63,10.631a8.6,8.6,0,0,1-6.375,2.354,9.283,9.283,0,0,1-2.879-.654c-.861-.353-2.031-1.6-2.918-1.371-.141.186-.189.153-.138.352.173.683,1.382,1.469,1.991,1.761a12.879,12.879,0,0,0,3.893,1.093c.43.993.852,1.987,1.36,2.944a7.017,7.017,0,0,1-4.273,3.522,8.58,8.58,0,0,1-6.7-1.036,10.594,10.594,0,0,1-3.986-4.171,29.312,29.312,0,0,0,3.8-5.725c-.235,0-.455-.021-.688-.045l-.244-.545a25.407,25.407,0,0,1-3.713,5.635,25.6,25.6,0,0,0-9.367,3.938,4.082,4.082,0,0,1,1.491.279A33.744,33.744,0,0,1,1543.276,1724.136Z" transform="translate(-1436.789 -1616.1)" fill="url(#linear-gradient)"/>
        <path id="Path_1003911" data-name="Path 1003911" d="M1459.333,443.456a24.716,24.716,0,0,0,3.075,7.381,30.1,30.1,0,0,0-2.639,3.14l-.11.159c1.54,1.622,3.305,3.8,5.188,4.988.916-.046,2.366-2.1,3.014-2.756a23.049,23.049,0,0,0,7.062,3.042,18.306,18.306,0,0,0,.137,3.894c.631.511,5.832.238,6.907.221.19-.1.354-.118.437-.331.4-1.03.091-2.748.1-3.855a21.1,21.1,0,0,0,7.529-3.079,25.776,25.776,0,0,0,3.078,3.051,47.179,47.179,0,0,0,5.311-5.316c-.944-1.041-1.924-2.016-2.942-2.983a29.07,29.07,0,0,0,2.873-7.282,17.232,17.232,0,0,0,4.2-.093c.535-1.523.225-5.307.22-7.07q-2.227-.023-4.455-.006a21.974,21.974,0,0,0-3.028-7.731c.026-.046.051-.093.078-.139.352-.612,2.408-2.568,2.281-3.068-.285-1.123-3.936-4.358-4.967-5.016-.93.935-1.839,1.931-2.824,2.806a34.451,34.451,0,0,0-7.052-3.032c0-1.593.036-3.2-.042-4.793-2.536,0-5.152-.134-7.678.037a33.433,33.433,0,0,0,.086,4.553c-2.584.68-5.045,1.323-7.179,3.018-1.108-.9-2.163-1.91-3.317-2.746a32.583,32.583,0,0,0-5,5.265,38.691,38.691,0,0,1,2.8,3.026,22.316,22.316,0,0,0-3.279,7.432l-4.3-.026a57.816,57.816,0,0,0,.017,7.209Q1457.129,443.447,1459.333,443.456Zm-3.285-6.338c1.354-.008,2.711.029,4.065.047a21.121,21.121,0,0,1,3.995-8.558c-.837-1-1.916-1.888-2.841-2.822a38.415,38.415,0,0,1,3.583-3.853,18.826,18.826,0,0,0,3.009,2.746,22.162,22.162,0,0,1,8.532-3.535c-.067-1.429-.054-2.867-.07-4.3l5.475-.043-.019,4.5a21.69,21.69,0,0,1,8.146,3.679c1-.877,1.827-1.93,2.852-2.8a29.561,29.561,0,0,1,3.636,3.474q-1.32,1.391-2.569,2.846c.557,1.192,1.286,2.312,1.867,3.5a23.52,23.52,0,0,1,1.646,5.549q2.124.1,4.25.137l0,4.869c-1.388.026-2.765.041-4.153-.025a25.077,25.077,0,0,1-3.417,8.446,17.681,17.681,0,0,0,2.831,2.995c-1.074,1.329-2.555,2.5-3.77,3.725q-1.435-1.6-2.952-3.132a18.913,18.913,0,0,1-8.793,3.749q.01,2-.019,4l-5.2.139a28.983,28.983,0,0,1,.068-3.963c-3.731-1.11-5.064-1.325-8.465-3.623q-1.328,1.5-2.693,2.958a49.338,49.338,0,0,1-3.812-3.689,24.234,24.234,0,0,0,2.453-3.269,33.844,33.844,0,0,1-3.3-8.493c-1.444-.1-2.92-.028-4.368-.02Z" transform="translate(-1363.218 -415.538)" fill="#000102"/>
        <path id="Path_1003912" data-name="Path 1003912" d="M1476.353,458.871a33.84,33.84,0,0,0,3.3,8.493,24.248,24.248,0,0,1-2.453,3.269,49.4,49.4,0,0,0,3.811,3.689q1.365-1.463,2.693-2.958c3.4,2.3,4.733,2.513,8.465,3.623a29.043,29.043,0,0,0-.068,3.964l5.2-.139q.029-2,.019-4a18.914,18.914,0,0,0,8.793-3.749q1.517,1.527,2.952,3.132c1.215-1.221,2.7-2.4,3.77-3.725a17.679,17.679,0,0,1-2.831-2.995,25.076,25.076,0,0,0,3.417-8.446c1.388.066,2.765.052,4.153.025l0-4.869q-2.126-.037-4.25-.137a23.525,23.525,0,0,0-1.646-5.549c-.581-1.184-1.31-2.3-1.867-3.5q1.249-1.455,2.569-2.846a29.565,29.565,0,0,0-3.636-3.474c-1.025.874-1.85,1.928-2.852,2.8a21.69,21.69,0,0,0-8.146-3.679l.019-4.5-5.475.043c.016,1.431,0,2.868.07,4.3a22.163,22.163,0,0,0-8.532,3.535,18.829,18.829,0,0,1-3.009-2.746,38.433,38.433,0,0,0-3.583,3.853c.925.934,2,1.818,2.841,2.822a21.12,21.12,0,0,0-3.994,8.558c-1.354-.017-2.711-.055-4.065-.047l-.025,5.224C1473.434,458.843,1474.91,458.774,1476.353,458.871Zm10.453-8.3a9.487,9.487,0,0,1,6.286-3.807,10.367,10.367,0,0,1,6.313,1.248,9.577,9.577,0,0,1,4.413,5.785,9.164,9.164,0,0,1-1,7.04,10.338,10.338,0,0,1-6.633,4.59,9.569,9.569,0,0,1-10.792-7.627A9.63,9.63,0,0,1,1486.806,450.567Z" transform="translate(-1379.18 -432.047)" fill="#205992"/>
        <path id="Path_1003913" data-name="Path 1003913" d="M1662.2,638.948a10.077,10.077,0,0,0,6.584,1.422,10.337,10.337,0,0,0,6.633-4.59,9.163,9.163,0,0,0,1-7.04,9.577,9.577,0,0,0-4.414-5.785,10.367,10.367,0,0,0-6.313-1.248,9.488,9.488,0,0,0-6.286,3.807,9.626,9.626,0,0,0-1.415,7.229A10.043,10.043,0,0,0,1662.2,638.948Zm-2-12.486a8.8,8.8,0,0,1,5.824-3.632,8.586,8.586,0,0,1,5.016.959,8.474,8.474,0,0,1,4.155,5.191q.055.193.1.388t.079.393q.035.2.059.4t.039.4q.015.2.019.4t0,.4q-.006.2-.022.4t-.043.4q-.026.2-.063.4t-.083.392c-.031.13-.065.259-.1.388s-.078.255-.122.382-.091.251-.142.375-.1.246-.161.367-.116.241-.179.359-.129.234-.2.349a8.188,8.188,0,0,1-11.469,2.805q-.18-.111-.354-.232t-.342-.249q-.168-.129-.329-.266t-.315-.283q-.154-.145-.3-.3t-.285-.313q-.138-.16-.269-.326t-.252-.34q-.122-.173-.234-.352t-.216-.364q-.1-.184-.2-.374t-.179-.384q-.085-.194-.159-.392t-.139-.4q-.065-.2-.119-.406t-.1-.411A8.059,8.059,0,0,1,1660.2,626.462Z" transform="translate(-1551.778 -606.994)" fill="#000102"/>
        <path id="Path_1003914" data-name="Path 1003914" d="M357.224,638c6.843.251,13.781.005,20.633.008l11.013.009c2.082,0,4.195.078,6.272-.04a15.178,15.178,0,0,0,6.576-2.691c3.421-2.548,4.937-5.755,5.529-9.9a15.879,15.879,0,0,0-4.057-11.834q-.246-.272-.505-.532t-.531-.506q-.272-.246-.556-.479t-.579-.451q-.3-.218-.6-.421t-.621-.391q-.315-.188-.639-.359t-.657-.327q-.332-.155-.672-.294t-.686-.26q-.346-.121-.7-.225t-.708-.191q-.357-.086-.717-.155t-.724-.119q-.363-.05-.729-.083t-.732-.046a17.308,17.308,0,0,0-6.407,1.141c-3.534-3.305-7.569-5.46-12.535-5.306q-.438.017-.875.055t-.871.1q-.434.06-.865.14t-.858.182q-.427.1-.848.224t-.835.265q-.415.143-.822.306t-.805.346q-.4.183-.788.385t-.768.423q-.378.221-.746.46t-.723.5q-.355.257-.7.531t-.671.565q-.328.29-.642.6t-.612.628a20.346,20.346,0,0,0-4.392,8.005,8.723,8.723,0,0,0-6.644,2.263q-.184.165-.36.338t-.343.356q-.167.182-.325.372t-.306.388q-.148.2-.287.4t-.266.416q-.128.211-.245.429t-.224.44q-.106.223-.2.451t-.179.46q-.084.232-.156.469t-.133.476q-.061.24-.109.482t-.085.486q-.037.244-.061.49t-.037.493a10.253,10.253,0,0,0,2.718,7.3A10.053,10.053,0,0,0,357.224,638ZM348.271,627.7q.006-.219.023-.437t.045-.435q.028-.217.067-.432t.088-.428q.05-.213.11-.424t.131-.417q.071-.207.152-.41t.172-.4q.091-.2.192-.393t.211-.383q.111-.189.231-.371t.249-.36q.129-.177.267-.347t.284-.333q.146-.163.3-.318a7.341,7.341,0,0,1,4.853-2.381,11.583,11.583,0,0,0,2.063.061c.326-.068.358-.252.479-.532.323-.742.477-1.57.735-2.339a15.759,15.759,0,0,1,2.032-3.9,17.331,17.331,0,0,1,11.373-6.908,14.168,14.168,0,0,1,2.845-.047,15.726,15.726,0,0,1,10.949,5.655,13.329,13.329,0,0,1,5.855-1.524q.344-.006.688,0t.686.039q.342.028.684.073t.679.108q.338.062.673.142t.665.175q.33.1.655.209t.644.241q.319.129.631.273t.616.3q.3.16.6.335t.583.365q.287.189.564.393t.543.421q.267.218.521.448t.5.474a14.37,14.37,0,0,1,4.159,10.113,12.742,12.742,0,0,1-3.746,9.2c-3.613,3.6-7.031,3.686-11.833,3.681l-6.907-.013-17.7.012c-3.181.006-7.622.371-10.674-.3q-.292-.067-.579-.154t-.567-.193q-.28-.106-.553-.231t-.536-.268q-.263-.143-.516-.3t-.495-.338q-.241-.178-.47-.371t-.444-.4a9.009,9.009,0,0,1-2.776-6.189Q348.265,627.922,348.271,627.7Z" transform="translate(-334.306 -591.097)" fill="#000102"/>
        <path id="Path_1003915" data-name="Path 1003915" d="M1481.877,1658.926c-.046.037-.09.077-.135.116l.506,1.25c-1.414.319-2.714.58-3.574,1.874-1.222,1.839-1.973,6.211-2.54,8.423q-2.513,9.758-4.884,19.552c-.617,2.519-1.047,5.115-1.763,7.6l-2.52-.037a36.931,36.931,0,0,0-5.419-7.079c-5.553-.059-11.143.137-16.69-.061q1.069-5.347,2.411-10.632c.52-2.135,1.193-4.385,1.515-6.554a1.637,1.637,0,0,0-.112-1.058l-.273-.068a1.432,1.432,0,0,0-.612.656c-.765,1.657-1.467,5.751-1.909,7.683-.745,3.262-1.735,6.676-2.217,9.974-1.387.026-6.717-.239-7.469.283l-.083.382a1.294,1.294,0,0,0,.98.506,43.465,43.465,0,0,0,6.031.048l11.183.038c2.192,0,4.448-.117,6.632.043a48.4,48.4,0,0,1,4.711,5.843c-1.715.028-11.659-.242-12.476.448-.648.547-.573,2.144-.523,2.92a4.395,4.395,0,0,0,.339,1.625c-.088.2-.02.156-.134.212l-.4.422.008.238.625.512-.127-.009a3.914,3.914,0,0,0-1.272.146c7.627.083,15.27-.074,22.9-.082l45.98.009a2.946,2.946,0,0,0,.562-.719c0-.247-.036-.126.117-.355l-.253-.124c-.172-1.034,1.485-5.584,1.952-6.756a37.892,37.892,0,0,0,4.315-.429,2.42,2.42,0,0,0,.7-1.077,22.676,22.676,0,0,0,.663-2.682c.312-1.266.721-2.525,1.072-3.782,1.266-4.532,2.64-9.039,3.871-13.579a45.513,45.513,0,0,1,2.01-6.9,4.814,4.814,0,0,1,1.115-1.5c2.55-2.5,5.963-3.127,9.4-3.093a6.041,6.041,0,0,0-1.755,3.755q-.01.16-.012.32t0,.32q.006.16.021.319t.037.318q.023.158.053.315t.069.312q.039.156.085.309t.1.3q.054.151.116.3t.131.292q.07.144.146.284t.161.277q.084.137.175.268t.188.259q.1.127.2.249t.214.238q.118.129.243.251t.256.239q.131.116.267.225t.279.212q.142.1.289.2t.3.182q.152.087.307.167t.316.151c.106.047.214.093.323.135s.219.082.329.118.223.07.335.1.226.059.339.084.228.048.343.067.23.036.346.049.232.024.348.032.233.012.35.014.224,0,.336-.008.223-.014.335-.025.222-.025.333-.042.221-.036.33-.058.219-.048.327-.075.216-.058.323-.091.213-.069.318-.107.209-.08.312-.124.2-.09.305-.139.2-.1.3-.154.195-.11.29-.169.189-.12.281-.183.183-.129.272-.2.176-.138.261-.211.169-.147.25-.223.161-.155.239-.236c2.4-2.461,2.215-5.6,2.192-8.779,4.777.083,8.235-.7,12.293,2.4.244-.282.465-.6.693-.894l-.315-.352c.371-1.083,1.575-2.057,2.1-3.159,2.051-4.312,1.944-8.979-1.866-12.3-1.619-1.412-3.527-2.367-4.644-4.293-1.291-2.224-.937-6.1-1.979-8.968q-.134-.369-.286-.731t-.322-.716q-.17-.354-.356-.7t-.391-.681q-.2-.336-.423-.661t-.455-.639q-.235-.314-.486-.616t-.516-.591q-.265-.289-.544-.565t-.571-.538q-.292-.262-.6-.509t-.621-.479q-.317-.232-.644-.448t-.665-.416q-.338-.2-.685-.383t-.7-.349a13.23,13.23,0,0,0-9.943-.659,21.63,21.63,0,0,0-3.153,1.65c-2.816,1.629-4.893,3.024-6.261,6.1-1.89,4.259-1.2,9.5.422,13.729a16.642,16.642,0,0,0,9.034,9.826l.005,4.87a16.37,16.37,0,0,0-8.039,1.761,8.877,8.877,0,0,0-3.22,2.941c-1.164,2.057-1.578,4.7-2.258,6.966q-3.14,10.518-6.035,21.106a27.344,27.344,0,0,0-3.271.36c1.7-5.791,3.134-11.651,4.824-17.446.982-3.366,2.066-6.692,3-10.074a28.437,28.437,0,0,0,1.138-5,4.8,4.8,0,0,0-.92-1.469,2.85,2.85,0,0,0-1.879-.648,48.16,48.16,0,0,0-4.865-.061q-4.139.014-8.279-.016l-32.676.01-.787-1.763A1.043,1.043,0,0,0,1481.877,1658.926Zm65.489-1.608a2.123,2.123,0,0,0,.957.275,7.465,7.465,0,0,0,4.859-2.687,1.949,1.949,0,0,0,.686-1.456c-.185-.148-.327-.308-.589-.191a6.137,6.137,0,0,0-.944.816,6.928,6.928,0,0,1-4.9,1.851,6.348,6.348,0,0,1-4.53-2.179c-3.073-3.279-4.048-9.413-3.912-13.719.081-2.547.611-5.167,2.524-6.979.1.106.058.047.143.21q.2.4.422.787c2.088,3.762,6.8,5.11,10.663,6.213a8.029,8.029,0,0,0,.081,1.494,1.071,1.071,0,0,0,.463.756c.934-.253,1.562-1.59,2.585-1.974a2.456,2.456,0,0,1,2.061.145,3.642,3.642,0,0,1,1.821,2.1,2.647,2.647,0,0,1-.338,2.141,3.58,3.58,0,0,1-2.5,1.548c-.2,4.689-.053,9.439-.085,14.139-.016,2.452.319,5.848-.418,8.133q-.047.143-.1.283t-.116.277q-.062.137-.131.271t-.144.264q-.076.13-.158.256t-.171.248q-.089.121-.183.238t-.2.229q-.1.112-.207.218t-.218.207q-.112.1-.229.2t-.238.183q-.122.088-.247.171t-.256.158q-.13.076-.264.144t-.271.131a5.493,5.493,0,0,1-4.527.041,6.329,6.329,0,0,1-2.244-1.84,5.073,5.073,0,0,1-.989-3.79,4.1,4.1,0,0,1,1.76-2.835C1547.309,1662.472,1546.875,1658.281,1547.366,1657.318Zm-50.619,24.036q0-.139.016-.278t.03-.276q.018-.138.044-.275t.057-.272q.032-.135.071-.269t.084-.265q.045-.132.1-.26t.11-.256q.058-.126.123-.25c.043-.082.088-.163.135-.243s.1-.158.147-.236.1-.154.158-.229.111-.148.17-.22a5.679,5.679,0,0,1,4.028-1.987,5.392,5.392,0,0,1,2.656.6q.11.06.216.125t.21.136c.069.047.136.1.2.147s.131.1.194.157.126.109.187.167.12.116.177.176.114.122.168.185.107.128.158.193.1.133.149.2.094.138.138.209.087.142.127.215.079.147.116.222.072.151.1.228.064.154.092.232.056.157.081.237.048.16.068.241a5.243,5.243,0,0,1-.667,4.1,5.719,5.719,0,0,1-3.973,2.615,5.177,5.177,0,0,1-3.688-.857,4.957,4.957,0,0,1-1.32-1.489,4.959,4.959,0,0,1-.628-1.888q-.016-.138-.026-.277c-.006-.093-.01-.185-.012-.278S1496.744,1681.448,1496.748,1681.354Z" transform="translate(-1345.857 -1539.029)" fill="#02091a"/>
        <path id="Path_1003916" data-name="Path 1003916" d="M2889.044,1770.971a5.074,5.074,0,0,0,.989,3.79,6.334,6.334,0,0,0,2.244,1.84,5.5,5.5,0,0,0,4.527-.041c.091-.041.182-.085.271-.131s.177-.094.264-.145.172-.1.256-.157.167-.112.247-.171.161-.12.239-.183.154-.129.229-.2.147-.136.218-.207.14-.144.207-.218.132-.15.2-.229.125-.157.184-.238.116-.164.171-.248.107-.169.158-.256.1-.175.145-.264.089-.18.13-.271.08-.184.117-.277.07-.188.1-.283c.737-2.284.4-5.68.418-8.133.031-4.7-.118-9.45.085-14.139a3.578,3.578,0,0,0,2.5-1.548,2.647,2.647,0,0,0,.337-2.141,3.641,3.641,0,0,0-1.821-2.1,2.455,2.455,0,0,0-2.061-.145c-1.022.384-1.65,1.721-2.584,1.974a1.07,1.07,0,0,1-.463-.755,8.019,8.019,0,0,1-.081-1.494c-3.865-1.1-8.575-2.451-10.663-6.213q-.217-.39-.422-.787c-.086-.163-.041-.1-.143-.21-1.913,1.812-2.443,4.433-2.524,6.979-.136,4.306.839,10.439,3.912,13.719a6.348,6.348,0,0,0,4.53,2.179,6.93,6.93,0,0,0,4.9-1.851,6.169,6.169,0,0,1,.944-.816c.263-.117.4.043.589.192a1.95,1.95,0,0,1-.687,1.456,7.462,7.462,0,0,1-4.859,2.687,2.124,2.124,0,0,1-.957-.275c-.492.964-.057,5.154-.079,6.467A4.1,4.1,0,0,0,2889.044,1770.971Z" transform="translate(-2689.374 -1643.381)" fill="#fefefe"/>
        <path id="Path_1003917" data-name="Path 1003917" d="M235.246,1505.931a11.508,11.508,0,0,0,1.565-.294c.429-.162.436-.277.632-.667.175-1.313-1.2-8.12-1.447-9.756l-6.651-43.671a3.624,3.624,0,0,0,1.733-.377c.558-.635.6-9.452.649-10.85.8.077,1.613.159,2.421.187a10.707,10.707,0,0,0,7.924-2.807,10.139,10.139,0,0,0,3.071-6.992c.031-2.59-1.053-6.058-1.586-8.643q-1.576-7.912-3.24-15.8-.7-3.3-1.333-6.615a45.324,45.324,0,0,0-1.373-6.191q-.113-.339-.246-.672t-.285-.656q-.152-.324-.323-.638t-.36-.618q-.189-.3-.4-.6t-.43-.572q-.224-.279-.463-.545t-.494-.517c-4.594-4.613-9.529-4.23-15.543-4.242-.006-1.97,0-3.934.083-5.9,2.878-.075,6.946.641,9.25-1.505a6.517,6.517,0,0,0,1.856-3.357,29.032,29.032,0,0,0,.153-6.25c-.034-3.391-.106-6.8.007-10.189a13.5,13.5,0,0,0,3.177-2.2,10.487,10.487,0,0,0,3.339-7.71l-15.814-.092c-2.747-.02-7.1-.378-9.683.227a8.034,8.034,0,0,0-3.723,2.2,7.921,7.921,0,0,0-2.224,3.821c-.526,2.589-.2,6.98-.2,9.714l.06,21.292-13.7,0a13.021,13.021,0,0,0-9.342,4.431c-2.507,2.971-6.154,14.463-7.581,18.638-1.364,4.415-3.062,8.746-4.573,13.114-.841,2.43-1.979,5.048-2.162,7.631q-.026.4-.025.8t.03.8q.029.4.085.8t.139.792q.083.393.193.78t.246.764q.136.378.3.746t.349.723a12.65,12.65,0,0,0,5.146,5.008c3.785,1.266,7.424.772,11.338.829-.021,3.3-.14,6.638.039,9.931.05.924.42,1.8.449,2.695.1,3.076-.05,6.222-.053,9.3q-.045,11.21.023,22.419l.015,20.333c-2.21,0-17.941-.33-18.969.2-.157.338-.152.313-.03.666a1.562,1.562,0,0,0,1.064.282c6.369.09,12.762,0,19.133,0l34.827-.02h18.561c2.969,0,6.024.141,8.983-.019C249.269,1505.709,237.046,1505.942,235.246,1505.931Zm-28.723-126.219.027-12.811a6.672,6.672,0,0,0,1.55.892,2.384,2.384,0,0,0,1.852-.02c.224-.129.177-.182.229-.409-.578-1.007-2.05-.656-2.932-1.282a1.7,1.7,0,0,1-.672-1.2,2.829,2.829,0,0,1,.525-2.2,3.181,3.181,0,0,1,2.18-1.278c1.381-.125,2.553.858,3.566,1.655a17.452,17.452,0,0,0,2.467.09c.187-1.886.152-3.837.2-5.734l13.69-.026c-.009,3.106.371,14.641-.35,16.768-1.411,4.163-6.9,3.175-10.294,3.153a4.494,4.494,0,0,0-1.841.14,2.461,2.461,0,0,0-.189.534c-.007.72.942.37,1.364.754a45.684,45.684,0,0,1-.159,8.351,5.959,5.959,0,0,1-3.064,3.578,6.891,6.891,0,0,1-2.535.517,5.07,5.07,0,0,1-3.782-1.506,6.29,6.29,0,0,1-1.644-3.189A34.3,34.3,0,0,1,206.522,1379.713Zm1.532,125.239q-.085-18.844.077-37.688c.66.563,7.585,34.553,7.906,37.694C213.378,1504.988,210.715,1504.955,208.055,1504.951Zm10.772-54.586-31.9.071.055-10.086c9.528-.2,19.094-.027,28.628-.051q5.711.034,11.422-.013c.284-3.691.3-7.409.464-11.107.2-4.51.52-9.049.518-13.563-2.064-.114-4.17-.031-6.238-.028q-4.943-.016-9.885.054c-.021,3.383-.18,6.758-.287,10.139q-12.384-.054-24.768.1a28.945,28.945,0,0,1-.1-3.125,26.847,26.847,0,0,1,1.679-5.321l3.907-10.661a21.318,21.318,0,0,0,1.525-4.373,1.05,1.05,0,0,0-.551-.421,1.039,1.039,0,0,0-.714.53c-.518.8-1.992,5.488-2.408,6.646l-4.05,11.372c-.613,1.719-1.319,3.428-1.866,5.167a2.337,2.337,0,0,0-.165,1.162c.576.4,19.743.241,21.876.228l-.052,11.934-19.188.032c-3.005.013-7.191.344-10.04-.147a7.768,7.768,0,0,1-3.239-1.461,10.548,10.548,0,0,1-4.165-7.1,9.587,9.587,0,0,1,.135-3.659c.472-1.905,1.21-3.768,1.854-5.62q1.765-5.092,3.6-10.161c2.148-5.99,4.062-12.14,6.469-18.03a10.449,10.449,0,0,1,1.311-2.478,12.649,12.649,0,0,1,8.341-4.659,34.878,34.878,0,0,1,5.1-.112l9.258.009a8.114,8.114,0,0,0,1.917,4.548q.113.124.232.243t.244.231q.125.112.255.218t.266.205q.135.1.276.192t.285.177q.144.085.293.163t.3.148q.153.07.308.133t.314.117c.106.036.212.071.32.1s.216.06.325.085.218.049.328.069.221.038.332.052.222.027.333.036.223.016.335.019a6.984,6.984,0,0,0,4.993-1.837,6.818,6.818,0,0,0,2.073-4.894c2.077,0,4.211-.109,6.279.042a13.131,13.131,0,0,1,9.161,4.731,10.649,10.649,0,0,1,2.1,3.856,59.942,59.942,0,0,1,1.251,5.927l1.755,8.6,2.787,13.612c.457,2.239,1.013,4.489,1.364,6.745a10.516,10.516,0,0,1,.127,2.672,8.976,8.976,0,0,1-3.471,5.61c-2.681,2.008-5.433,2.043-8.615,1.573.18-9.352.626-18.706.861-28.06.038-1.526.44-5.826.171-6.983-.068-.291-.132-.256-.369-.406a1.006,1.006,0,0,0-.8.161,1.509,1.509,0,0,0-.152.468c-.115,1.158-.032,2.417-.06,3.589l-.225,9.3-1.022,33.259C226.427,1450.435,222.623,1450.346,218.826,1450.365Zm-1.338-30.133,9.154-.034q-.1,2.712-.145,5.425h-4.413q-4.637-.025-9.272.068.165-2.711.2-5.427Zm-4.469-3.327q4.856.027,9.711-.049c1.356-.035,2.715-.03,4.071-.043-.007.69-.056,1.383-.09,2.073-3.1.125-6.2.128-9.306.13l-4.383.018Zm6.174,9.941q3.595-.029,7.189.018c.008,1-.076,2-.149,3a45.548,45.548,0,0,0-5.832.026,1.228,1.228,0,0,0-.953.531l.042.312a1.092,1.092,0,0,0,.674.31c1.066.145,4.656-.1,6-.116l-.062,3.252a37.813,37.813,0,0,0-3.839-.069,1.707,1.707,0,0,0-1.344.477l.107.246c1.109.675,3.7.384,5.038.385l-.127,3.529-.045.178c-.45.315-16.858.148-18.757.149l.048-12.054Z" transform="translate(-167.179 -1280.806)" fill="#02091a"/>
        <path id="Path_1003918" data-name="Path 1003918" d="M825.358,2329.82c.034-.69.083-1.383.09-2.073-1.356.013-2.715.008-4.071.042q-4.855.077-9.711.049l0,2.129,4.383-.018C819.159,2329.948,822.254,2329.944,825.358,2329.82Zm-11.991-.864c.324-.382.384-.359.852-.461,1.647-.079,8.588-.449,9.622.31.064.273.093.225-.033.508l-.09-.1-.054.28-.462.108c-1.438.039-8.823.365-9.673-.226C813.36,2329.258,813.4,2329.14,813.367,2328.956Z" transform="translate(-765.826 -2191.739)" fill="#77bfdf"/>
        <path id="Path_1003919" data-name="Path 1003919" d="M845.423,2337.276l.462-.108.054-.279.09.1c.126-.283.1-.236.033-.509-1.035-.759-7.976-.388-9.622-.31-.468.1-.528.08-.852.461.028.186-.007.3.162.421C836.6,2337.641,843.985,2337.315,845.423,2337.276Z" transform="translate(-788.046 -2199.413)" fill="#000102"/>
        <path id="Path_1003920" data-name="Path 1003920" d="M808.751,2380.837q4.635-.093,9.272-.068h4.413q.049-2.713.145-5.425l-9.154.034-4.479.033Q808.916,2378.127,808.751,2380.837Z" transform="translate(-763.119 -2235.95)" fill="#fefefe"/>
        <path id="Path_1003921" data-name="Path 1003921" d="M728.885,2480.873c1.9,0,18.307.167,18.757-.149l.045-.178.127-3.529c-1.334,0-3.93.29-5.038-.385l-.107-.246a1.706,1.706,0,0,1,1.344-.477,37.743,37.743,0,0,1,3.839.069l.062-3.252c-1.34.01-4.93.261-6,.115a1.088,1.088,0,0,1-.674-.31l-.042-.312a1.228,1.228,0,0,1,.953-.531,45.459,45.459,0,0,1,5.832-.026c.073-1,.157-1.994.149-3q-3.595-.047-7.189-.018l-12.014.169Z" transform="translate(-688.933 -2322.61)" fill="#fefefe"/>
        <path id="Path_1003922" data-name="Path 1003922" d="M280.747,2669.151c0-3.083.153-6.229.053-9.3-.029-.9-.4-1.771-.449-2.7-.179-3.293-.06-6.633-.039-9.931-3.915-.057-7.554.436-11.338-.829l.06,22.546c0,3.554-.376,9.854.343,13.125q.094.439.219.871t.281.853q.156.421.342.831t.4.8q.215.4.457.773t.512.738q.269.36.563.7t.612.657a11.16,11.16,0,0,0,8.006,3.283Q280.7,2680.361,280.747,2669.151Z" transform="translate(-261.697 -2487.719)" fill="#77bfdf"/>
        <path id="Path_1003923" data-name="Path 1003923" d="M721.227,1524.478a5.071,5.071,0,0,0,3.782,1.506,6.9,6.9,0,0,0,2.535-.517,5.959,5.959,0,0,0,3.064-3.579,45.692,45.692,0,0,0,.159-8.351c-.422-.384-1.371-.035-1.364-.754a2.466,2.466,0,0,1,.189-.534,4.5,4.5,0,0,1,1.841-.14c3.4.022,8.883,1.01,10.294-3.153.721-2.127.341-13.662.35-16.768l-13.69.026c-.052,1.9-.017,3.848-.2,5.734a17.507,17.507,0,0,1-2.467-.09c-1.013-.8-2.185-1.78-3.566-1.655a3.181,3.181,0,0,0-2.18,1.277,2.83,2.83,0,0,0-.525,2.2,1.7,1.7,0,0,0,.672,1.2c.882.626,2.354.275,2.932,1.282-.051.228,0,.281-.229.409a2.383,2.383,0,0,1-1.852.02,6.675,6.675,0,0,1-1.55-.892l-.027,12.811a34.3,34.3,0,0,0,.193,6.771A6.287,6.287,0,0,0,721.227,1524.478Z" transform="translate(-680.047 -1415.611)" fill="#fefefe"/>
        <path id="Path_1003924" data-name="Path 1003924" d="M257.325,1920.183l.225-9.3c.028-1.173-.055-2.431.06-3.589a1.5,1.5,0,0,1,.152-.468,1,1,0,0,1,.8-.162c.237.15.3.115.369.406.269,1.157-.133,5.458-.171,6.983-.235,9.353-.681,18.707-.861,28.059,3.181.469,5.934.435,8.615-1.573a8.977,8.977,0,0,0,3.471-5.61,10.518,10.518,0,0,0-.127-2.672c-.35-2.257-.906-4.506-1.364-6.745L265.7,1911.9l-1.755-8.6a59.972,59.972,0,0,0-1.251-5.927,10.655,10.655,0,0,0-2.1-3.856,13.13,13.13,0,0,0-9.161-4.731c-2.069-.152-4.2-.038-6.28-.043a6.818,6.818,0,0,1-2.073,4.894,6.984,6.984,0,0,1-4.993,1.837q-.168-.006-.335-.02c-.111-.009-.223-.021-.333-.036s-.221-.032-.332-.052-.22-.044-.328-.069-.217-.054-.325-.086-.214-.065-.32-.1-.21-.076-.314-.117-.206-.086-.308-.133-.2-.1-.3-.148-.2-.106-.293-.163-.191-.116-.285-.178-.185-.126-.276-.192-.179-.135-.266-.205-.172-.143-.255-.218-.164-.152-.244-.231-.157-.16-.232-.243a8.113,8.113,0,0,1-1.917-4.548l-9.258-.009a34.844,34.844,0,0,0-5.1.111,12.65,12.65,0,0,0-8.341,4.659,10.445,10.445,0,0,0-1.311,2.478c-2.407,5.889-4.32,12.039-6.469,18.029q-1.831,5.069-3.6,10.161c-.644,1.852-1.382,3.715-1.854,5.62a9.587,9.587,0,0,0-.135,3.659,10.547,10.547,0,0,0,4.165,7.1,7.765,7.765,0,0,0,3.239,1.461c2.849.491,7.035.16,10.04.147l19.188-.032.052-11.935c-2.133.013-21.3.177-21.876-.228a2.337,2.337,0,0,1,.165-1.162c.547-1.739,1.253-3.448,1.866-5.167l4.05-11.372c.416-1.159,1.891-5.843,2.408-6.646a.66.66,0,0,1,1.264-.109,21.317,21.317,0,0,1-1.525,4.373l-3.907,10.661a26.859,26.859,0,0,0-1.679,5.321,28.942,28.942,0,0,0,.1,3.125q12.384-.154,24.768-.1c.107-3.381.267-6.756.287-10.139q4.942-.07,9.885-.054c2.068,0,4.174-.086,6.238.028,0,4.513-.323,9.053-.518,13.563-.161,3.7-.18,7.416-.464,11.107q-5.711.047-11.422.013c-9.533.024-19.1-.145-28.628.051l-.055,10.086,31.9-.071c3.8-.02,7.6.07,11.4-.027Z" transform="translate(-193.259 -1783.909)" fill="#77bfdf"/>
        <path id="Path_1003925" data-name="Path 1003925" d="M1316.6,2087.554c-1.212-.479-11.369-.3-13.484-.247.37-3.648,1.053-7.234,1.627-10.852.532-3.35.953-6.718,1.472-10.071.384-2.478.966-5.074,1.152-7.561a1.189,1.189,0,0,0-.2-.848c-.946-.427-13.138-.145-14.881-.141l.088-11.712a57.434,57.434,0,0,0-.437-10.839,7.089,7.089,0,0,0,2.517-2.681,11.807,11.807,0,0,0,.619-8.709c-1.515-4.861-5.048-7.351-9.356-9.572l.031-11.388c0-2.009.1-4.075-.046-6.078a11.617,11.617,0,0,0-4.491-8.241c-.228.3-.449.611-.693.894,2.591,2.453,3.946,4.71,4.046,8.343.147,5.323-.038,10.671.015,16-1.114-.435-3.047-1.438-4.207-1.044-.281.1-.437.435-.533.7a22.919,22.919,0,0,0,.489,15.7c-5.121,2.168-14.284,3.958-19.711,4.323-.2-2.612-.543-5.227-.71-7.837,4.252-.811,10.85-2.239,14.589-4.314-.047-2.284.12-21.925-.194-22.6a.763.763,0,0,0-.633-.2.727.727,0,0,0-.362.7c-.156,2.425-.011,4.962-.013,7.4q-.028,7.009.016,14.018a88.574,88.574,0,0,1-11.4,3.434c-1.188.246-6.529.822-7.163,1.2l-.214.468a63.985,63.985,0,0,1-7.908.911q-.081-9.249-.046-18.5c0-2.474.211-5.4.062-7.82a2.419,2.419,0,0,0-.292-1.075l-.283-.154c-.159.059-.326.066-.405.229-.561,1.153-.3,22.46-.331,25.21a5.038,5.038,0,0,0-1.675,2.5q-3.931.057-7.862.03a33.575,33.575,0,0,0-4.317.078c-.153.229-.122.108-.117.355a2.941,2.941,0,0,1-.562.719l14.711.01c.071,2.612.126,5.253.051,7.865q-8.521.081-17.042.038h-29.647l-71.475-.023c0-2.587-.042-5.181.012-7.767l34.511-.049a3.9,3.9,0,0,1,1.272-.146l.127.009-.625-.512-.008-.238.4-.422a50.482,50.482,0,0,1-7.356.117c-2.832.007-8.21.308-10.806-.143a8.2,8.2,0,0,1-5.141-3.4,7.38,7.38,0,0,1-1.18-5.751c.611-3.266,1.568-6.5,2.307-9.746q1.964-8.672,4.111-17.3c.688-2.79,1.179-6.157,2.466-8.716a21.336,21.336,0,0,1,7.311-7.823,4.081,4.081,0,0,0-1.491-.279,20.4,20.4,0,0,0-6.979,7.723c-1.283,2.573-2.711,9.868-3.485,13.073l-3.6,15.279c-.631,2.7-1.366,5.391-1.887,8.109a7.508,7.508,0,0,0,1.285,5.933,10.9,10.9,0,0,0,3.6,3.149c-2.854,0-14.19-.5-15.952.2a51.871,51.871,0,0,0,.1,9.587c.864.623,12.065.3,13.911.335l.026,49.852c-4.637.036-9.349.244-13.979.075-.2.391-.2.506-.632.668a11.5,11.5,0,0,1-1.565.293c1.8.01,14.024-.222,14.593.17,10.359.188,20.74.01,31.1.02l69.269-.013,51.647.015c8.037-.007,16.126.185,24.158-.018a3.892,3.892,0,0,0,1.811-.356l.077-.262Zm-10.568-28.506c-.14,1.7-.412,3.385-.681,5.064l-.165.285c-2.538.228-5.254.025-7.81.02l-16.158-.018q-.527-2.659-1.013-5.326Zm-25.009-45.177c3.4.97,7.482,2.7,9.933,5.3a12.666,12.666,0,0,1,3.557,9.1,8.4,8.4,0,0,1-2.91,6.028q-1.064-3.445-2.366-6.808t-2.834-6.628a2.575,2.575,0,0,0-.359-.5c-.352-.149-.381-.215-.738-.1a1.193,1.193,0,0,0,0,.95c.413,1.281,1.115,2.507,1.637,3.752.609,1.453,1.036,2.935,1.592,4.4.542,1.427,1.257,2.848,1.675,4.313a1.705,1.705,0,0,1,.083,1,3.61,3.61,0,0,1-2.542.074c-2.692-.825-4.805-3.246-6.095-5.648C1279.2,2024.52,1279.571,2018.718,1281.026,2013.872Zm-23.137,12.192a1.407,1.407,0,0,1,.783.019c.5,1.193.629,6.041.753,7.639-.6.12-1.223.172-1.831.248a1.991,1.991,0,0,1-.931-.05c-.443-1.594-.512-5.831-.659-7.752Zm-11.172,1.792c2.488-.084,5.008-.5,7.479-.812a1.505,1.505,0,0,1,.49.008c.521.915.629,5.536.73,6.885q-3.691.111-7.384.1a2.128,2.128,0,0,1-1.207-.162A37.96,37.96,0,0,1,1246.716,2027.856Zm13.143,6.98a118.059,118.059,0,0,0,15.643-2.761l.269.127a15.551,15.551,0,0,1,2.525,8.225,14.2,14.2,0,0,1-4.131,10.192,14.033,14.033,0,0,1-6.113,3.73c-3.215.849-8.324.481-11.762.482l-17.939-.076-3.125-.042a16.944,16.944,0,0,1,2.167-9.417,18.477,18.477,0,0,1,5.45-5.978C1248.42,2035.349,1253.428,2035.638,1259.86,2034.836Zm-109.023,52.475c-3.09.024-6.2.061-9.286-.069l.032-49.857q4.644-.029,9.288,0l.016,33.735.014,10.374C1150.9,2083.414,1151,2085.4,1150.836,2087.311Zm65.032-.082c-21.265.019-42.547-.15-63.809.114l-.011-49.944,63.99-.011C1216.023,2042.488,1216.272,2086.608,1215.868,2087.229Zm10.362.058c-3,.061-6.015-.007-9.016-.012-.156-7.294-.078-14.608-.061-21.9l.018-28c2.986-.108,6.012-.03,9,.017.135,5.005.024,10.037.054,15.046Q1226.358,2069.862,1226.231,2087.287Zm1.1-49.926,2.553-.02.116-.015.026.121c-.849.655-1.678,1.323-2.491,2.023l-.1,0A6.013,6.013,0,0,1,1227.333,2037.361Zm.064,3.935c3.405-3.318,4.238-3.985,9.042-3.9,2.343.039,4.694.073,7.035-.048l.049.017.029.115a17.3,17.3,0,0,0-5.1,4.109c-3.145,3.83-4.872,8.09-4.379,13.1l-6.369.048c-.149-.039-.046,0-.285-.158C1227.305,2050.153,1227.391,2045.716,1227.4,2041.3Zm-.032,45.991c.156-10.449-.028-20.912.023-31.365l2.2-.017,4.787-.027c.4,1.9,1.134,3.769,1.717,5.623q1.449,4.653,2.821,9.33c-.392,1.653-.6,3.38-.86,5.058q-.87,5.695-1.564,11.414Q1231.925,2087.332,1227.365,2087.288Zm14.75,0c-1.476.027-2.955-.036-4.431-.075.781-4.575,1.249-9.249,1.921-13.848.7.635,4.083,12.211,4.443,13.884Zm3.23-.011c-.979-3.495-2.172-6.918-3.255-10.381l-4.208-13.7c-.774-2.452-1.69-4.865-2.379-7.341l13.593.04c.806,3.793,1.076,7.766,1.59,11.611l2.776,19.753Zm17.115-.01q-3.9-.022-7.8.036l-1.245-9.144a46.709,46.709,0,0,1-.76-6.447,35.885,35.885,0,0,1,.512-4.7l1.023-7.352,10.8-.018a32.716,32.716,0,0,0,4.795-.031,3.579,3.579,0,0,0,1.862-.821,1.818,1.818,0,0,0,.671-1.329,1.711,1.711,0,0,0-.492-1.087c-.93-1-2.055-.987-3.312-1.032.674-.225,1.37-.425,2.021-.71a15.693,15.693,0,0,0,7.96-8.6c1.979-5.315.811-9.42-1.424-14.354a24.581,24.581,0,0,0,3.568-1.476c.573.208,1.962,2.454,2.547,3.073a10.317,10.317,0,0,0,1.949,1.622,6.924,6.924,0,0,0,5.626.894c.669,3.305.4,6.862.41,10.222.012,3.917.119,7.881-.1,11.792-1.737.011-11.194-.3-11.951.295a1.291,1.291,0,0,0-.131.77c.228,2.891,1.04,6.4,1.521,9.32q1.5,9.561,3.232,19.082C1276.656,2087.439,1269.543,2087.326,1262.46,2087.27Zm39.544-.087q-8.537-.006-17.073.137a56.789,56.789,0,0,0-1.159-6.8c-.479-2.687-.875-5.387-1.34-8.076-.384-2.227-.849-4.449-1.166-6.685q11.9-.142,23.8-.005c-.442,2.766-.763,5.556-1.185,8.327-.543,3.574-1.192,7.126-1.658,10.713C1302.11,2085.583,1302.062,2086.384,1302,2087.183Z" transform="translate(-1056.095 -1863.146)" fill="#000102"/>
        <path id="Path_1003926" data-name="Path 1003926" d="M2574.372,2866.591c.813-.7,1.642-1.368,2.492-2.023l-.027-.121-.116.015-2.553.019a6.006,6.006,0,0,0,.1,2.1Z" transform="translate(-2402.93 -2690.266)" fill="#3584ba"/>
        <path id="Path_1003927" data-name="Path 1003927" d="M2979.391,2713.4c.608-.076,1.231-.128,1.831-.248-.124-1.6-.253-6.445-.753-7.639a1.408,1.408,0,0,0-.783-.019l-1.886.1c.147,1.922.217,6.159.659,7.752A1.993,1.993,0,0,0,2979.391,2713.4Z" transform="translate(-2777.892 -2542.576)" fill="#fefefe"/>
        <path id="Path_1003928" data-name="Path 1003928" d="M2847.639,2726.643q3.693.006,7.384-.1c-.1-1.35-.209-5.97-.73-6.886a1.5,1.5,0,0,0-.489-.007c-2.47.312-4.991.727-7.479.812a37.942,37.942,0,0,0,.108,6.024A2.126,2.126,0,0,0,2847.639,2726.643Z" transform="translate(-2655.703 -2555.747)" fill="#d7eaf3"/>
        <path id="Path_1003929" data-name="Path 1003929" d="M3319.128,3175.2l16.158.019c2.556.005,5.271.207,7.81-.02l.165-.285c.269-1.679.541-3.369.681-5.064l-25.827.025Q3318.6,3172.54,3319.128,3175.2Z" transform="translate(-3094.002 -2973.945)" fill="#d7eaf3"/>
        <path id="Path_1003930" data-name="Path 1003930" d="M2575.448,2882.087l6.369-.048c-.492-5.005,1.234-9.265,4.38-13.1a17.306,17.306,0,0,1,5.1-4.109l-.029-.115-.049-.017c-2.341.121-4.692.087-7.035.048-4.8-.081-5.637.586-9.042,3.9-.006,4.42-.092,8.856.024,13.274C2575.4,2882.083,2575.3,2882.049,2575.448,2882.087Z" transform="translate(-2403.837 -2690.505)" fill="#3584ba"/>
        <path id="Path_1003931" data-name="Path 1003931" d="M3321.259,2555.568a3.608,3.608,0,0,0,2.542-.074,1.705,1.705,0,0,0-.083-1c-.417-1.465-1.133-2.886-1.675-4.313-.555-1.463-.982-2.945-1.591-4.4-.522-1.245-1.224-2.471-1.637-3.752a1.192,1.192,0,0,1,0-.95c.356-.119.386-.053.738.1a2.572,2.572,0,0,1,.358.5q1.532,3.264,2.833,6.628t2.366,6.808a8.407,8.407,0,0,0,2.91-6.027,12.664,12.664,0,0,0-3.557-9.1c-2.451-2.608-6.536-4.334-9.933-5.3-1.456,4.847-1.832,10.648.633,15.236C3316.454,2552.322,3318.567,2554.742,3321.259,2555.568Z" transform="translate(-3089.6 -2383.957)" fill="#205992"/>
        <path id="Path_1003932" data-name="Path 1003932" d="M3356.8,3263.183q-11.9-.137-23.8,0c.316,2.237.781,4.458,1.166,6.686.464,2.688.86,5.39,1.34,8.076a56.83,56.83,0,0,1,1.159,6.8q8.536-.142,17.073-.136c.058-.8.106-1.6.221-2.394.466-3.587,1.115-7.139,1.658-10.713C3356.036,3268.738,3356.356,3265.949,3356.8,3263.183Z" transform="translate(-3107.826 -3060.579)" fill="#3584ba"/>
        <path id="Path_1003933" data-name="Path 1003933" d="M2687.623,2803.837a16.944,16.944,0,0,0-2.167,9.417l3.125.042,17.938.075c3.439,0,8.548.367,11.763-.482a14.029,14.029,0,0,0,6.113-3.729,14.2,14.2,0,0,0,4.132-10.192,15.552,15.552,0,0,0-2.525-8.225l-.269-.127a118.084,118.084,0,0,1-15.642,2.761c-6.432.8-11.44.513-17.016,4.483A18.467,18.467,0,0,0,2687.623,2803.837Z" transform="translate(-2506.324 -2621.686)" fill="#3584ba"/>
        <path id="Path_1003934" data-name="Path 1003934" d="M2666.367,2158.014c.024,3.176.2,6.318-2.192,8.779q-.116.121-.239.236c-.082.077-.165.151-.25.224s-.173.143-.261.211-.179.134-.271.2-.186.125-.281.183-.192.115-.29.169-.2.105-.3.154-.2.1-.305.139-.207.085-.312.124-.211.074-.318.108-.215.064-.323.091-.218.053-.328.075-.219.042-.33.059-.222.031-.333.042-.223.02-.335.025-.224.008-.336.008-.233-.006-.35-.014-.232-.018-.348-.031-.231-.03-.346-.049-.23-.042-.344-.067-.227-.053-.339-.084-.224-.065-.335-.1-.22-.076-.329-.118-.217-.087-.323-.135-.212-.1-.316-.151-.207-.109-.307-.167-.2-.119-.3-.182-.194-.129-.289-.2-.187-.139-.279-.212-.18-.148-.268-.225-.173-.157-.256-.239-.164-.166-.243-.251-.144-.157-.214-.238-.136-.164-.2-.249-.127-.171-.188-.259-.118-.177-.174-.269-.11-.183-.161-.277-.1-.188-.146-.284-.09-.193-.131-.291-.08-.2-.116-.3-.07-.2-.1-.3-.059-.2-.085-.309-.049-.208-.069-.312-.038-.21-.053-.315-.027-.211-.037-.318-.016-.213-.021-.319-.005-.213,0-.32.005-.213.012-.32a6.042,6.042,0,0,1,1.755-3.755c-3.434-.034-6.846.592-9.4,3.093a4.816,4.816,0,0,0-1.115,1.5,45.568,45.568,0,0,0-2.01,6.9c-1.231,4.54-2.606,9.047-3.871,13.579-.351,1.258-.76,2.517-1.071,3.782a22.689,22.689,0,0,1-.663,2.682,2.42,2.42,0,0,1-.7,1.077,37.946,37.946,0,0,1-4.314.429c-.467,1.172-2.124,5.722-1.952,6.756l.253.124a33.622,33.622,0,0,1,4.317-.078q3.931.027,7.862-.03a5.038,5.038,0,0,1,1.675-2.5c.027-2.749-.23-24.057.331-25.21.08-.164.246-.17.406-.23l.283.154a2.423,2.423,0,0,1,.292,1.075c.149,2.424-.058,5.346-.062,7.82q-.036,9.248.046,18.5a63.938,63.938,0,0,0,7.908-.911l.214-.468c.634-.382,5.975-.958,7.163-1.2a88.6,88.6,0,0,0,11.4-3.434q-.044-7.009-.016-14.018c0-2.434-.143-4.971.013-7.4a.727.727,0,0,1,.362-.7.763.763,0,0,1,.633.2c.313.674.146,20.315.194,22.6-3.739,2.075-10.337,3.5-14.589,4.314.167,2.61.51,5.225.71,7.837,5.427-.365,14.591-2.155,19.711-4.323a22.919,22.919,0,0,1-.489-15.7c.1-.264.252-.6.533-.7,1.16-.394,3.093.609,4.207,1.044-.052-5.327.132-10.675-.014-16-.1-3.634-1.455-5.891-4.046-8.343C2674.6,2157.319,2671.144,2158.1,2666.367,2158.014Z" transform="translate(-2454.232 -2034.051)" fill="#d7eaf3"/>
        <path id="Path_1003935" data-name="Path 1003935" d="M1580.225,2865.32l-63.99.011.011,49.944c21.263-.264,42.545-.095,63.809-.114C1580.459,2914.539,1580.21,2870.419,1580.225,2865.32Z" transform="translate(-1420.282 -2691.077)" fill="#77bfdf"/>
        <path id="Path_1003936" data-name="Path 1003936" d="M415.057,1351.58a2.586,2.586,0,1,0,2.586,2.585A2.588,2.588,0,0,0,415.057,1351.58Z" transform="translate(-395.024 -1285.003)" fill="#fefefe"/>
        <path id="Path_1003937" data-name="Path 1003937" d="M406.345,1342.2a3.253,3.253,0,1,0,3.253,3.253A3.257,3.257,0,0,0,406.345,1342.2Zm0,5.838a2.586,2.586,0,1,1,2.586-2.586A2.589,2.589,0,0,1,406.345,1348.038Z" transform="translate(-386.312 -1276.29)"/>
        <path id="Path_1003938" data-name="Path 1003938" d="M2132.057,1183.378a3.3,3.3,0,1,0-3.3-3.3A3.3,3.3,0,0,0,2132.057,1183.378Z" transform="translate(-1989.238 -1122.633)" fill="#fefefe"/>
        <path id="Path_1003939" data-name="Path 1003939" d="M2120.937,1173.108a4.152,4.152,0,1,0-4.152-4.152A4.157,4.157,0,0,0,2120.937,1173.108Zm0-7.452a3.3,3.3,0,1,1-3.3,3.3A3.3,3.3,0,0,1,2120.937,1165.656Z" transform="translate(-1978.117 -1111.512)"/>
        <path id="Path_1003940" data-name="Path 1003940" d="M3645.9,2227.19a3.3,3.3,0,1,0-3.3,3.3A3.3,3.3,0,0,0,3645.9,2227.19Z" transform="translate(-3392.338 -2095.27)" fill="#fefefe"/>
        <path id="Path_1003941" data-name="Path 1003941" d="M3635.625,2216.07a4.152,4.152,0,1,0-4.152,4.152A4.157,4.157,0,0,0,3635.625,2216.07Zm-7.452,0a3.3,3.3,0,1,1,3.3,3.3A3.3,3.3,0,0,1,3628.173,2216.07Z" transform="translate(-3381.216 -2084.149)"/>
        <path id="Path_1003942" data-name="Path 1003942" d="M3541.526,1827.718a2.487,2.487,0,1,0-2.487,2.486A2.487,2.487,0,0,0,3541.526,1827.718Z" transform="translate(-3296.903 -1724.965)" fill="#77bfdf"/>
        <path id="Path_1003943" data-name="Path 1003943" d="M2449.831,495.875q.52,0,1.042,0c.695.006,1.39.02,2.082.032s1.38.023,2.06.024l15.023-.009q3.512-.006,7.026,0c9.37.013,18.747.073,28.12.079,7.03,0,14.059-.022,21.082-.122q.092-8.761.072-17.539t-.077-17.54q-.146-9.683-.092-19.366c0-2.767.158-5.635-.012-8.393-.017-.265-.01-.674-.212-.861a1.226,1.226,0,0,0-.785-.311c-1.675-.15-3.5.008-5.192.017l-10.095.009-42.864-.038-14.195-.009a58.09,58.09,0,0,0-6.865.077,1.412,1.412,0,0,0-.779.255c-.136.435-.266,61.738.07,63.331a1.718,1.718,0,0,0,1.373.479l.127.005c.677-.058,1.362-.091,2.051-.109Q2449.311,495.877,2449.831,495.875ZM2446.2,494.8l.006-61.737H2525q.217,30.823.113,61.647c-2.391.006-4.873-.13-7.253.039l-.295-.023a30.386,30.386,0,0,1-4.946.062l-8.449-.048-5.574-.014c-2.821-.078-5.667-.01-8.49-.012l-5.6.02c-2.767.006-5.545.066-8.311-.026l-.131.01a44.069,44.069,0,0,1-5.557.05l-8.521-.039c-2.242.2-4.557.083-6.809.063Q2450.693,494.759,2446.2,494.8Z" transform="translate(-2283.015 -430.628)" fill="#000102"/>
        <path id="Path_1003944" data-name="Path 1003944" d="M2470.527,511.563c2.252.02,4.567.137,6.809-.063-1.867-.138-3.782-.054-5.655-.044q-.015-5.4.05-10.805l5.6-.011,0,10.86,8.521.039a44.089,44.089,0,0,0,5.557-.05c-1.817-.106-3.653-.051-5.473-.044l-.038-18.216c1.873-.008,3.757-.051,5.628.062.07,6.025.3,12.174.013,18.188,2.766.092,5.544.033,8.311.026q-.048-7.356,0-14.711c.009-3.031-.1-6.108.056-9.13,1.838.021,3.68.019,5.518.065l.021,23.757c2.823,0,5.669-.066,8.49.012l.07-32.767,5.419-.017q.073,11.636.008,23.272c0,3.172.112,6.357.076,9.525l8.449.048a30.389,30.389,0,0,0,4.946-.062c-1.781-.085-3.568-.052-5.35-.046l.1-23.191c-.01-6.8-.129-13.586-.006-20.39l5.381-.021.13,28.5c.025,5.043.2,10.135.042,15.174,2.379-.17,4.861-.033,7.252-.039q.1-30.824-.113-61.647h-78.794l-.006,61.737Q2466.037,511.523,2470.527,511.563Zm.341-43.855a1.742,1.742,0,1,1,0-3.483h18.8a1.742,1.742,0,1,1,0,3.483Zm42.967,3.771c1.153-1.374,2.385-2.69,3.6-4.014.313-.379.529-.481.458-1-.149-1.1-.617-2.086.089-3.117a3.015,3.015,0,0,1,1.98-1.286,2.63,2.63,0,0,1,.8.01,2.628,2.628,0,0,1,.263.059q.13.036.255.085a2.546,2.546,0,0,1,.245.111,2.639,2.639,0,0,1,.233.135,2.567,2.567,0,0,1,.217.158,3.33,3.33,0,0,1,1.172,2.41,1.876,1.876,0,0,1-.553,1.464c-1.285,1.3-3.124.824-4,1.563-.053.045-.108.088-.162.133-2.671,2.888-5.148,5.967-7.83,8.832-1.881-1.229-5.492-2.28-7.716-3.117q-1.34,3.41-2.621,6.842a30.345,30.345,0,0,1-1.825,4.357c-2.6-.959-6.334-4.272-8.881-5.855-1.214,1.471-7.948,10.362-8.76,10.829-.447.84.109,1.883-.3,2.83a3.168,3.168,0,0,1-4.3,1.5,2.838,2.838,0,0,1-1.415-1.683,3.214,3.214,0,0,1,.176-2.45,2.729,2.729,0,0,1,1.65-1.386,3.924,3.924,0,0,1,3.135.589,62,62,0,0,0,4.248-5.16q2.629-3.342,5.3-6.646c2.94,1.76,5.768,3.969,8.565,5.959,1.642-3.612,2.778-7.475,4.359-11.122,2.768.815,5.326,2.284,8.1,3.065C2511.593,474.316,2512.685,472.851,2513.835,471.479Zm-46.507-10.432a1.741,1.741,0,0,1,1.741-1.742h35.786a1.742,1.742,0,0,1,1.742,1.742h0a1.742,1.742,0,0,1-1.742,1.742H2469.07a1.741,1.741,0,0,1-1.741-1.742Z" transform="translate(-2298.358 -447.391)" fill="#77bfdf"/>
        <path id="Path_1003945" data-name="Path 1003945" d="M3248.41,627.427c.879-.739,2.718-.265,4-1.563a1.877,1.877,0,0,0,.554-1.464,3.332,3.332,0,0,0-1.172-2.41,2.657,2.657,0,0,0-.217-.159,2.626,2.626,0,0,0-.232-.135,2.539,2.539,0,0,0-.245-.111,2.642,2.642,0,0,0-.255-.085,2.584,2.584,0,0,0-.263-.058,2.662,2.662,0,0,0-.536-.035,2.649,2.649,0,0,0-.268.024,3.014,3.014,0,0,0-1.98,1.286c-.706,1.031-.238,2.02-.09,3.117.07.521-.145.623-.458,1,.324.253.678.469,1,.722Z" transform="translate(-3028.176 -606.764)" fill="#02091a"/>
        <path id="Path_1003946" data-name="Path 1003946" d="M2651.422,998.358a2.744,2.744,0,0,0-.995-.481,3.924,3.924,0,0,0-3.135-.589,2.728,2.728,0,0,0-1.649,1.386,3.211,3.211,0,0,0-.176,2.45,2.835,2.835,0,0,0,1.415,1.683,3.168,3.168,0,0,0,4.3-1.5c.412-.948-.143-1.991.3-2.83l-.125-.007Z" transform="translate(-2469.045 -955.789)" fill="#02091a"/>
        <path id="Path_1003947" data-name="Path 1003947" d="M2735.449,713.944c-2.8-1.989-5.625-4.2-8.564-5.959q-2.677,3.3-5.3,6.646a62.092,62.092,0,0,1-4.248,5.16,2.747,2.747,0,0,1,1,.481l-.063.109.124.007c.812-.467,7.547-9.359,8.76-10.829,2.548,1.583,6.286,4.9,8.881,5.855a30.355,30.355,0,0,0,1.825-4.357q1.282-3.432,2.621-6.842c2.224.837,5.835,1.888,7.716,3.117,2.682-2.864,5.159-5.943,7.829-8.832-.32-.253-.674-.469-1-.722-1.209,1.324-2.442,2.64-3.6,4.014s-2.243,2.837-3.516,4.1c-2.777-.781-5.335-2.25-8.1-3.065C2738.228,706.469,2737.091,710.332,2735.449,713.944Z" transform="translate(-2535.95 -677.702)" fill="#000102"/>
        <path id="Path_1003948" data-name="Path 1003948" d="M2325.806,522.7a58.522,58.522,0,0,1,5-4.959l10.07-9.843,44.111-.011,12.221.028a52.014,52.014,0,0,0,6.978-.113,5.825,5.825,0,0,0,3.274-1.662,5.089,5.089,0,0,0,1.271-3.285,41.6,41.6,0,0,0,.108-4.687l.034-7.843-.127-29.525.127-29.018h-11.163V460.8q.057,8.762.077,17.54t-.072,17.539c-7.024.1-14.052.126-21.083.122-9.374-.006-18.75-.066-28.12-.079q-3.514,0-7.026,0l-15.022.009c-.68,0-1.368-.012-2.06-.024s-1.387-.026-2.082-.032q-.521,0-1.042,0t-1.038.015c-.69.017-1.375.05-2.051.109-.314.838-10.03,10.295-11.557,11.781l19.139.029C2325.884,512.763,2325.741,517.738,2325.806,522.7Z" transform="translate(-2154.459 -430.626)" fill="#77bfdf"/>
        <path id="Path_1003949" data-name="Path 1003949" d="M2299.061,1740.207h3.911v3.911a.657.657,0,0,0,1.314,0v-3.911h3.911a.657.657,0,1,0,0-1.314h-3.911v-3.911a.657.657,0,1,0-1.314,0v3.911h-3.911a.657.657,0,0,0,0,1.314Z" transform="translate(-2146.819 -1640.525)" fill="#fefefe"/>
        <path id="Path_1003950" data-name="Path 1003950" d="M1193.581,485.853h3.911v3.911a.657.657,0,1,0,1.314,0v-3.911h3.911a.657.657,0,1,0,0-1.314h-3.911v-3.911a.657.657,0,1,0-1.314,0v3.911h-3.911a.657.657,0,1,0,0,1.314Z" transform="translate(-1119.967 -475.388)" fill="#fefefe"/>
      </g>
    </g>
  </g>
</svg>
