<svg xmlns="http://www.w3.org/2000/svg" width="100" height="100" viewBox="0 0 100 100">
  <g id="img39" transform="translate(-383.746 -8400)">
    <circle id="Ellipse_13609" data-name="Ellipse 13609" cx="50" cy="50" r="50" transform="translate(383.746 8400)" fill="#beb1a1"/>
    <g id="Group_1181364" data-name="Group 1181364" transform="translate(399.761 8391.124)">
      <path id="Path_1008294" data-name="Path 1008294" d="M65.888,50.1a6.918,6.918,0,0,0-5.006-2A7.043,7.043,0,0,0,54.1,54.155H51.461V49.176a2.99,2.99,0,0,0-2.987-2.987H44.546v-10.1A2.99,2.99,0,0,0,41.559,33.1H38.778a2.99,2.99,0,0,0-2.987,2.987v2.137H33.8V31.688A2.99,2.99,0,0,0,30.813,28.7H26.546a2.99,2.99,0,0,0-2.987,2.987v4.677H18.59A2.99,2.99,0,0,0,15.6,39.352v6.837h-.325a1,1,0,0,0,0,1.991h3.587a1,1,0,0,1,1,1V64.232a1,1,0,1,0,1.991,0V49.176a2.99,2.99,0,0,0-2.987-2.987h-1.27V39.352a1,1,0,0,1,1-1h8.24a1,1,0,0,1,1,1v1H25.834a1.994,1.994,0,0,0-1.991,1.991V44.33a1.994,1.994,0,0,0,1.991,1.991h1.991v1.991H25.834A1.994,1.994,0,0,0,23.843,50.3V52.3a1.994,1.994,0,0,0,1.991,1.991h1.991v1.991H25.834a1.994,1.994,0,0,0-1.991,1.991v1.991a1.994,1.994,0,0,0,1.991,1.991h1.991v1.98a1,1,0,1,0,1.991,0V39.352a2.99,2.99,0,0,0-2.987-2.987H25.55V31.688a1,1,0,0,1,1-1h4.267a1,1,0,0,1,1,1v8.859a1,1,0,1,0,1.991,0v-.332h1.991V64.232a1,1,0,1,0,1.991,0v-.121H49.47v1.448a1.661,1.661,0,0,1-1.659,1.659H11.616a1.661,1.661,0,0,1-1.659-1.659V49.176a1,1,0,0,1,1-1h.343a1,1,0,0,0,0-1.991h-.343a2.99,2.99,0,0,0-2.987,2.987v4.978h-1a5.03,5.03,0,0,1-3.263-1.3A2.23,2.23,0,0,0,0,54.513V82.082a6.978,6.978,0,0,0,6.97,6.97h40.2a1,1,0,1,0,0-1.991H6.97a4.984,4.984,0,0,1-4.978-4.978V54.513a.237.237,0,0,1,.409-.16A7.018,7.018,0,0,0,6.97,56.146h1v1.991h-1a8.371,8.371,0,0,1-1.779-.193,1,1,0,0,0-1.208.973V82.081A2.99,2.99,0,0,0,6.97,85.068H58.346A6.98,6.98,0,0,0,65.192,79.4,4.984,4.984,0,0,1,61,87.06H51.156a1,1,0,1,0,0,1.991H61a6.978,6.978,0,0,0,6.97-6.97V55.066A6.919,6.919,0,0,0,65.888,50.1ZM25.834,44.33V42.339h1.991V44.33Zm0,7.965V50.3h1.991V52.3Zm0,7.965V58.27h1.991v1.991Zm28.2-2.124h-2.57V56.147h2.57ZM42.555,46.189H37.782V44.2h4.773Zm-4.773,5.974H49.47v1.992H37.782Zm0,3.983H49.47v1.991H37.782Zm10.692-7.966a1,1,0,0,1,1,1v1H37.782V48.181ZM37.782,36.087a1,1,0,0,1,1-1h2.781a1,1,0,0,1,1,1v6.12H37.782Zm0,26.033V60.129H49.47V62.12ZM58.346,83.077H6.97a1,1,0,0,1-1-1v-22c.332.033.665.049,1,.049h1v5.431a3.655,3.655,0,0,0,3.651,3.651H47.81a3.655,3.655,0,0,0,3.651-3.651V60.129h2.57V75.816a2.641,2.641,0,0,0,4.127,2.178,4.969,4.969,0,0,1,5.166-.314V78.1a4.984,4.984,0,0,1-4.978,4.978ZM57.02,76.361a.65.65,0,0,1-1-.545V55.153a5.053,5.053,0,0,1,4.893-5.065,4.978,4.978,0,0,1,5.064,4.978V77.209A6.963,6.963,0,0,0,57.02,76.361Z" fill="#593609"/>
      <path id="Path_1008298" data-name="Path 1008298" d="M93.584,250.434H91.592a1.994,1.994,0,0,0-1.991,1.991v1.991a1.994,1.994,0,0,0,1.991,1.991h1.991a1.994,1.994,0,0,0,1.991-1.991v-1.991A1.994,1.994,0,0,0,93.584,250.434Zm0,3.983H91.592v-1.991h1.992Z" transform="translate(-77.706 -192.297)" fill="#593609"/>
      <path id="Path_1008299" data-name="Path 1008299" d="M89.6,194.417a1.994,1.994,0,0,0,1.991,1.991h1.991a1.994,1.994,0,0,0,1.991-1.991v-1.991a1.994,1.994,0,0,0-1.991-1.991H91.592a1.994,1.994,0,0,0-1.991,1.991Zm1.991-1.991h1.991v1.991H91.592Z" transform="translate(-77.706 -140.262)" fill="#593609"/>
    </g>
  </g>
</svg>
