<svg xmlns="http://www.w3.org/2000/svg" width="80" height="80" viewBox="0 0 80 80">
  <g id="img30" transform="translate(-175.889 -5521)">
    <rect id="Rectangle_402006" data-name="Rectangle 402006" width="80" height="80" rx="5" transform="translate(175.889 5521)" fill="#ff9a1a"/>
    <g id="Group_1177862" data-name="Group 1177862" transform="translate(173.857 5530.974)">
      <g id="Group_1177857" data-name="Group 1177857" transform="translate(13.601 17.201)">
        <g id="Group_1177856" data-name="Group 1177856" transform="translate(0)">
          <path id="Path_993814" data-name="Path 993814" d="M69.29,187.16H66.717V149.807a3.157,3.157,0,0,0-3.153-3.153h-5.75a3.157,3.157,0,0,0-3.153,3.153V187.16H48.129V166.731a3.157,3.157,0,0,0-3.153-3.153h-5.75a3.157,3.157,0,0,0-3.153,3.153V187.16H29.541V176.58a3.157,3.157,0,0,0-3.153-3.153h-5.75a3.157,3.157,0,0,0-3.153,3.153v10.58H14.774a1.173,1.173,0,0,0,0,2.346H69.29a1.173,1.173,0,0,0,0-2.346Zm-42.095,0H19.831V176.58a.808.808,0,0,1,.807-.807h5.75a.808.808,0,0,1,.807.807v10.58Zm18.588,0H38.419V166.731a.808.808,0,0,1,.807-.807h5.75a.808.808,0,0,1,.807.807Zm18.588,0H57.007V149.807a.808.808,0,0,1,.807-.807h5.75a.808.808,0,0,1,.807.807Z" transform="translate(-13.601 -146.654)" fill="#593609"/>
        </g>
      </g>
      <g id="Group_1177859" data-name="Group 1177859" transform="translate(23.658)">
        <g id="Group_1177858" data-name="Group 1177858" transform="translate(0)">
          <path id="Path_993815" data-name="Path 993815" d="M142.4,1.233A1.169,1.169,0,0,0,141.172,0l-.057,0h-7.1a1.173,1.173,0,0,0,0,2.346H138.4l-11.595,11.6-4.373-4.373a1.173,1.173,0,0,0-1.659,0L99.69,30.653a1.173,1.173,0,0,0,1.659,1.659L121.6,12.056l4.373,4.373a1.173,1.173,0,0,0,1.659,0L140.06,4V7.97a1.173,1.173,0,0,0,2.346,0V1.29C142.406,1.271,142.4,1.252,142.4,1.233Z" transform="translate(-99.346)" fill="#593609"/>
        </g>
      </g>
      <g id="Group_1177861" data-name="Group 1177861" transform="translate(19.705 34.402)">
        <g id="Group_1177860" data-name="Group 1177860">
          <circle id="Ellipse_13639" data-name="Ellipse 13639" cx="1.173" cy="1.173" r="1.173" fill="#593609"/>
        </g>
      </g>
    </g>
  </g>
</svg>
