<svg xmlns="http://www.w3.org/2000/svg" width="70" height="70" viewBox="0 0 70 70">
  <g id="img43" transform="translate(-324 -9288.168)">
    <rect id="Rectangle_455618" data-name="Rectangle 455618" width="70" height="70" transform="translate(324 9288.168)" fill="#ff9a1a"/>
    <g id="Group_1181368" data-name="Group 1181368" transform="translate(329 9293.08)">
      <path id="Path_1008303" data-name="Path 1008303" d="M43.037,33.983A11.823,11.823,0,1,0,31.213,45.807,11.84,11.84,0,0,0,43.037,33.983Zm-11.823,10a10,10,0,1,1,10-10,10.02,10.02,0,0,1-10,10Z" transform="translate(-1.21 -1.298)" fill="#593609"/>
      <path id="Path_1008304" data-name="Path 1008304" d="M23.71,20.186H39.153a.9.9,0,0,0,.909-.909V17.307A6.662,6.662,0,0,0,36,11.147a12.466,12.466,0,0,0-1.472-.506.894.894,0,0,0-.919.281l-2.194,2.466-2.269-2.578a.906.906,0,0,0-.9-.281,10.012,10.012,0,0,0-1.078.338,6.753,6.753,0,0,0-4.36,6.3v2.119a.894.894,0,0,0,.9.9Zm.909-3.028A4.905,4.905,0,0,1,27.8,12.563c.122-.047.244-.084.356-.122l1.885,2.147a1.823,1.823,0,0,0,1.388.628,1.855,1.855,0,0,0,1.388-.628l1.772-2.025c.234.075.478.169.722.272a4.834,4.834,0,0,1,2.925,4.482v1.059H24.62Z" transform="translate(-1.423 -0.571)" fill="#593609"/>
      <path id="Path_1008305" data-name="Path 1008305" d="M31.725,9.62A4.135,4.135,0,1,0,27.59,5.485,4.142,4.142,0,0,0,31.725,9.62Zm0-6.451a2.316,2.316,0,1,1-2.316,2.316A2.321,2.321,0,0,1,31.725,3.169Z" transform="translate(-1.722)" fill="#593609"/>
      <path id="Path_1008306" data-name="Path 1008306" d="M14.527,37.756a.982.982,0,0,0,.281.047.922.922,0,0,0,.863-.628l4.772-14.683a.9.9,0,0,0-.056-.694.919.919,0,0,0-.525-.45l-1.875-.609a6.679,6.679,0,0,0-7.116,1.95,11.4,11.4,0,0,0-.938,1.247.919.919,0,0,0-.019.966l1.669,2.85-3.15,1.36a.9.9,0,0,0-.544.769,11.16,11.16,0,0,0-.019,1.135,6.75,6.75,0,0,0,4.641,6.094ZM9.689,30.93c-.009-.131-.009-.253-.009-.384L12.3,29.411a1.856,1.856,0,0,0,1.031-1.125,1.876,1.876,0,0,0-.169-1.519L11.789,24.46c.15-.2.309-.4.478-.6a4.836,4.836,0,0,1,5.166-1.4l1,.328-4.21,12.958-1.153-.375A4.913,4.913,0,0,1,9.689,30.93Z" transform="translate(-0.491 -1.189)" fill="#593609"/>
      <path id="Path_1008307" data-name="Path 1008307" d="M7.819,23.65A4.085,4.085,0,0,0,5.41,21.6,4.14,4.14,0,0,0,.2,24.259,4.146,4.146,0,0,0,2.85,29.472a4.031,4.031,0,0,0,1.275.206,4.153,4.153,0,0,0,3.938-2.86A4.093,4.093,0,0,0,7.819,23.65Zm-1.481,2.6a2.316,2.316,0,1,1-4.407-1.425,2.321,2.321,0,0,1,2.2-1.6,2.369,2.369,0,0,1,.722.113,2.3,2.3,0,0,1,1.481,2.916Z" transform="translate(0 -1.25)" fill="#593609"/>
      <path id="Path_1008308" data-name="Path 1008308" d="M16.893,41.2a.915.915,0,0,0-.675-.159.9.9,0,0,0-.591.366L14.474,43a6.663,6.663,0,0,0-.338,7.37,13.305,13.305,0,0,0,.891,1.275.911.911,0,0,0,.909.319l3.225-.7.319,3.422a.9.9,0,0,0,.563.759,11.117,11.117,0,0,0,1.078.366,6.727,6.727,0,0,0,7.238-2.532l1.247-1.716a.915.915,0,0,0,.159-.675.9.9,0,0,0-.366-.591Zm9.976,10.989a4.91,4.91,0,0,1-5.279,1.847l-.366-.113-.263-2.85a1.845,1.845,0,0,0-2.241-1.631l-2.616.6c-.141-.206-.291-.422-.422-.638a4.833,4.833,0,0,1,.263-5.344l.619-.853,11.017,8.007Z" transform="translate(-0.823 -2.475)" fill="#593609"/>
      <path id="Path_1008309" data-name="Path 1008309" d="M17.1,54.618a4.139,4.139,0,1,0,.909,5.776,4.137,4.137,0,0,0-.909-5.776Zm-.553,4.707a2.31,2.31,0,0,1-1.51.928,2.275,2.275,0,0,1-1.725-.413,2.316,2.316,0,1,1,3.235-.516Z" transform="translate(-0.658 -3.274)" fill="#593609"/>
      <path id="Path_1008310" data-name="Path 1008310" d="M48.01,51.691a9.557,9.557,0,0,0,.675-.909,6.736,6.736,0,0,0-.178-7.66L47.26,41.4a.9.9,0,0,0-.591-.366.915.915,0,0,0-.675.159L33.5,50.275a.9.9,0,0,0-.366.591.915.915,0,0,0,.159.675l1.153,1.594a6.762,6.762,0,0,0,5.41,2.785,6.175,6.175,0,0,0,1.491-.178,12,12,0,0,0,1.491-.45.9.9,0,0,0,.581-.769l.328-3.291,3.347.759a.933.933,0,0,0,.909-.3Zm-3.844-2.232a1.845,1.845,0,0,0-2.241,1.631l-.244,2.672c-.234.075-.488.141-.741.206a4.85,4.85,0,0,1-5.007-1.9l-.619-.853,11.017-8.007.713.975a4.915,4.915,0,0,1,.131,5.588c-.075.1-.141.206-.216.309Z" transform="translate(-2.067 -2.475)" fill="#593609"/>
      <path id="Path_1008311" data-name="Path 1008311" d="M46.346,54.618a4.135,4.135,0,1,0,5.766.919,4.137,4.137,0,0,0-5.766-.919Zm4.716,3.713a2.316,2.316,0,0,1-4.163.994,2.316,2.316,0,0,1,3.75-2.719,2.256,2.256,0,0,1,.413,1.725Z" transform="translate(-2.785 -3.274)" fill="#593609"/>
      <path id="Path_1008312" data-name="Path 1008312" d="M54.587,29.042l-3.019-1.331,1.753-2.953a.91.91,0,0,0-.009-.938,10.07,10.07,0,0,0-.656-.928,6.745,6.745,0,0,0-7.341-2.2l-2.016.656a.911.911,0,0,0-.581,1.144l4.772,14.683a.891.891,0,0,0,.45.525.926.926,0,0,0,.413.1.982.982,0,0,0,.281-.047l1.875-.609a6.647,6.647,0,0,0,4.6-5.757,10.855,10.855,0,0,0,.028-1.556.9.9,0,0,0-.553-.788Zm-1.285,2.2a4.833,4.833,0,0,1-3.357,4.172l-1,.328-4.21-12.958,1.153-.375a4.914,4.914,0,0,1,5.354,1.6c.075.1.159.2.234.3l-1.463,2.457a1.847,1.847,0,0,0,.863,2.644l2.475,1.059c-.019.253-.028.506-.047.769Z" transform="translate(-2.663 -1.186)" fill="#593609"/>
      <path id="Path_1008313" data-name="Path 1008313" d="M63.242,24.249a4.139,4.139,0,0,0-7.876,2.55,4.153,4.153,0,0,0,3.938,2.86,4.031,4.031,0,0,0,1.275-.206,4.118,4.118,0,0,0,2.663-5.2Zm-3.216,3.488A2.32,2.32,0,0,1,58.6,23.321a2.369,2.369,0,0,1,.722-.113,2.321,2.321,0,0,1,2.2,1.6A2.336,2.336,0,0,1,60.026,27.737Z" transform="translate(-3.442 -1.25)" fill="#593609"/>
    </g>
  </g>
</svg>
