<svg xmlns="http://www.w3.org/2000/svg" width="70" height="70" viewBox="0 0 70 70">
  <g id="img40" transform="translate(-319.711 -10842)">
    <rect id="Rectangle_455537" data-name="Rectangle 455537" width="70" height="70" transform="translate(319.711 10842)" fill="#faf2df"/>
    <g id="Group_1180447" data-name="Group 1180447" transform="translate(311.689 10825.854)">
      <path id="Path_1003957" data-name="Path 1003957" d="M74.7,42.738v-6.35a.628.628,0,0,1,.628-.628h5.924a.628.628,0,0,1,.628.628v6.35h2.333a.628.628,0,0,1,.479,1.032l-6,7.052a.627.627,0,0,1-.884-.074l-5.9-6.946a.628.628,0,0,1,.451-1.066H74.7Z" transform="translate(-49.34 -9.398)" fill="#1a1a1a" fill-rule="evenodd"/>
      <path id="Path_1003958" data-name="Path 1003958" d="M91.331,46.751V53.1a.628.628,0,0,1-.628.628H89.1l4.568,5.381,4.568-5.381H96.627A.629.629,0,0,1,96,53.1v-6.35Z" transform="translate(-64.719 -19.134)" fill="#3f9169" fill-rule="evenodd"/>
      <path id="Path_1003959" data-name="Path 1003959" d="M62.541,107.646a1.988,1.988,0,0,1,1.7,1.9V111.9a3.862,3.862,0,0,1,.405.057V89.176a.629.629,0,0,1,.628-.628h5a.629.629,0,0,1,.628.628v26.949a.628.628,0,0,1-.628.628H67.6v13.222a3.6,3.6,0,0,1-3.692,3.473H40.967a3.772,3.772,0,0,1-3.08-1.565c-4.793,2.919-13.1,2.933-17.959.13a8.288,8.288,0,0,1-3.113-2.96c-1.2-2.086-.947-5.085.158-8.157a26.992,26.992,0,0,1,5.388-8.8,1.92,1.92,0,0,1,.7-3.288,12.717,12.717,0,0,1-2.3-6.334.626.626,0,0,1,.6-.628h0c.925-.043,1.919-1.838,3.458-1.8,1.516.039,3.162,1.971,4.175,2,.937.024,1.946-1.84,3.511-1.8,1.355.035,2.709,1.515,3.807,1.914a.627.627,0,0,1,.411.638h0a14.578,14.578,0,0,1-2.2,6.042,1.919,1.919,0,0,1,.759,3.108,22.682,22.682,0,0,1,2,2.549v-4.306a.627.627,0,0,1,.054-.254,2.79,2.79,0,0,1,.2-.683,2.71,2.71,0,0,1,2.021-1.569V96.928a.629.629,0,0,1,.628-.628h5a.629.629,0,0,1,.628.628v10.686h2.109v-6.986a.628.628,0,0,1,.628-.628h5a.628.628,0,0,1,.628.628v6.986h2.109V94.99a.629.629,0,0,1,.628-.628h5a.629.629,0,0,1,.628.628v12.656Z" transform="translate(0 -56.151)" fill="#1a1a1a" fill-rule="evenodd"/>
      <path id="Path_1003960" data-name="Path 1003960" d="M237.957,300.013h-23.35a3.168,3.168,0,0,1-1.734-.468v3.861a27.216,27.216,0,0,1,1.9,4.2c1.146,3.274,1.434,6.423.344,8.312a7.541,7.541,0,0,1-1.861,2.115,2.5,2.5,0,0,0,2.051,1.024h22.94a2.342,2.342,0,0,0,2.435-2.216v-3.623h-6.608a2.415,2.415,0,0,1-2.41-2.41v-2.266a2.415,2.415,0,0,1,2.41-2.41h6.608v-3.908a2.34,2.34,0,0,0-2.435-2.216h-.291Z" transform="translate(-174.341 -243.02)" fill="#ba8959" fill-rule="evenodd"/>
      <path id="Path_1003961" data-name="Path 1003961" d="M231.752,300.013H214.607a3.168,3.168,0,0,1-1.734-.468v3.861a27.243,27.243,0,0,1,1.881,4.145,37.635,37.635,0,0,0,17-7.538Z" transform="translate(-174.341 -243.02)" fill="#c9935d" fill-rule="evenodd"/>
      <path id="Path_1003962" data-name="Path 1003962" d="M232.8,167.33h3.742v10.058H232.8Z" transform="translate(-191.985 -125.924)" fill="#a1ccf7"/>
      <path id="Path_1003963" data-name="Path 1003963" d="M305.951,199.685h3.742v6.358h-3.742Z" transform="translate(-256.775 -154.579)" fill="#8cc1f6"/>
      <path id="Path_1003964" data-name="Path 1003964" d="M379.107,150.383h3.742v12h-3.742Z" transform="translate(-321.565 -110.915)" fill="#7ab7f4"/>
      <g id="Group_1180446" data-name="Group 1180446" transform="translate(17.269 25.147)">
        <path id="Path_1003965" data-name="Path 1003965" d="M237.211,266.493a1.113,1.113,0,0,0-.86-.219H214.705a1.525,1.525,0,0,0-1.59,2.126,1.62,1.62,0,0,0,1.59.889h22.721v-2.338A.621.621,0,0,0,237.211,266.493Z" transform="translate(-191.707 -238.7)" fill="#a66b30" fill-rule="evenodd"/>
        <path id="Path_1003966" data-name="Path 1003966" d="M236.443,266.273H214.7a1.525,1.525,0,0,0-1.59,2.126,1.62,1.62,0,0,0,1.59.889h18.658a38.048,38.048,0,0,0,3.081-3.016Z" transform="translate(-191.706 -238.699)" fill="#c18243" fill-rule="evenodd"/>
        <path id="Path_1003967" data-name="Path 1003967" d="M395.969,368.183h-6.608a1.157,1.157,0,0,0-1.152,1.153V371.6a1.157,1.157,0,0,0,1.152,1.153h6.608Zm-5.208.535a1.75,1.75,0,1,1-1.75,1.75A1.752,1.752,0,0,1,390.762,368.719Zm.349,1.4a.493.493,0,1,1-.842.349A.492.492,0,0,1,391.11,370.12Z" transform="translate(-346.895 -328.956)" fill="#c18243" fill-rule="evenodd"/>
        <path id="Path_1003968" data-name="Path 1003968" d="M452.262,122.18a3.431,3.431,0,0,1,1.693,2.916v.137H456V99.54h-3.742Z" transform="translate(-403.623 -91.033)" fill="#5d93e3" fill-rule="evenodd"/>
        <path id="Path_1003969" data-name="Path 1003969" d="M456,105.922V99.54h-3.742v13.986A37.669,37.669,0,0,0,456,105.922Z" transform="translate(-403.623 -91.033)" fill="#74a5ed" fill-rule="evenodd"/>
        <path id="Path_1003970" data-name="Path 1003970" d="M47.385,316.339l.034-.024a6.563,6.563,0,0,0,1.93-2.042c.894-1.548.592-4.317-.442-7.271a25.173,25.173,0,0,0-5.125-8.61,1.925,1.925,0,0,1-.254.017H33.3a25.535,25.535,0,0,0-5.5,8.758c-.988,2.748-1.251,5.374-.251,7.106a7.063,7.063,0,0,0,2.656,2.5c4.578,2.643,12.84,2.6,17.171-.437ZM38.076,301a7.051,7.051,0,1,1-7.051,7.051A7.051,7.051,0,0,1,38.076,301Z" transform="translate(-26.925 -267.146)" fill="#4f874f" fill-rule="evenodd"/>
        <path id="Path_1003971" data-name="Path 1003971" d="M66.065,306.723a25.122,25.122,0,0,0-5.025-8.33,1.925,1.925,0,0,1-.254.017H50.562a25.459,25.459,0,0,0-4.151,5.747q1.236.516,2.516.947a7.052,7.052,0,0,1,13.386,1.935q1.9-.067,3.752-.316Z" transform="translate(-44.183 -267.146)" fill="#696" fill-rule="evenodd"/>
        <path id="Path_1003972" data-name="Path 1003972" d="M267.363,27.409,260,35.573a.628.628,0,0,1-.744.144l-3.023-1.375-4.743,4.269a.628.628,0,0,1-.693.1l-8.441-3.251a.626.626,0,1,1,.447-1.169l8.132,3.132,4.764-4.288a.628.628,0,0,1,.678-.106l3,1.364,7.207-7.988h-2.5a.628.628,0,0,1,0-1.257h3.911a.629.629,0,0,1,.628.628v3.911a.628.628,0,0,1-1.257,0V27.409Z" transform="translate(-217.362 -25.147)" fill="#1a1a1a" fill-rule="evenodd"/>
        <path id="Path_1003973" data-name="Path 1003973" d="M71.143,207.457h8.575a14.358,14.358,0,0,0,2.325-5.592c-.907-.466-2.247-1.619-2.948-1.637-.937-.024-1.946,1.839-3.511,1.8-1.516-.039-3.162-1.971-4.175-2-.763-.02-1.649,1.276-2.749,1.672a12.987,12.987,0,0,0,2.483,5.755Z" transform="translate(-63.888 -180.032)" fill="#696" fill-rule="evenodd"/>
        <path id="Path_1003974" data-name="Path 1003974" d="M87.546,275.968H77.29a.662.662,0,0,0,0,1.324H87.546a.662.662,0,0,0,0-1.324Z" transform="translate(-70.944 -247.286)" fill="#696" fill-rule="evenodd"/>
        <path id="Path_1003975" data-name="Path 1003975" d="M83.662,333.881a5.794,5.794,0,1,0,0,8.194A5.794,5.794,0,0,0,83.662,333.881Zm-4.726.192a.628.628,0,0,1,1.257,0v.373a2.033,2.033,0,0,1,1.629,2.034.628.628,0,0,1-1.257,0c0-1.143-2-1.143-2,0,0,1.513,3.258.145,3.258,3a2.033,2.033,0,0,1-1.629,2.034v.373a.628.628,0,1,1-1.257,0v-.373a2.033,2.033,0,0,1-1.629-2.034.628.628,0,0,1,1.257,0c0,1.143,2,1.143,2,0,0-1.527-3.258-.152-3.258-3a2.033,2.033,0,0,1,1.629-2.034v-.373Z" transform="translate(-68.414 -297.073)" fill="#4f874f" fill-rule="evenodd"/>
        <path id="Path_1003976" data-name="Path 1003976" d="M88.284,333.881a5.8,5.8,0,0,0-9.294,1.532q1.456.435,2.96.755a2.035,2.035,0,0,1,1.609-1.722v-.373a.628.628,0,1,1,1.257,0v.373a2.033,2.033,0,0,1,1.629,2.034.625.625,0,0,1-.107.35c1.149.106,2.312.162,3.489.162h.07a5.767,5.767,0,0,0-1.613-3.11Zm-3.052,2.833q-1.03-.125-2.043-.3c.079-1.073,2-1.051,2,.069a.628.628,0,0,0,.045.234Z" transform="translate(-73.036 -297.073)" fill="#696" fill-rule="evenodd"/>
      </g>
    </g>
  </g>
</svg>
