<svg xmlns="http://www.w3.org/2000/svg" width="60" height="60" viewBox="0 0 60 60">
  <g id="img43" transform="translate(-631.711 -11607)">
    <rect id="Image_Place_Holder" data-name="Image Place Holder" width="60" height="60" transform="translate(631.711 11607)" fill="#ff9a1a"/>
    <g id="Group_1180454" data-name="Group 1180454" transform="translate(609.709 11606.713)">
      <g id="Group_1180453" data-name="Group 1180453" transform="translate(32.575 12.595)">
        <g id="Group_1180450" data-name="Group 1180450" transform="translate(6.615 0)">
          <path id="Path_1003978" data-name="Path 1003978" d="M130.455,61.51A12.1,12.1,0,0,1,134,62.979l2.3-1.023,2.714,2.714-1.022,2.3a12.1,12.1,0,0,1,1.469,3.544l2.349.9v3.838l-2.35.9a12.1,12.1,0,0,1-1.469,3.543l1.023,2.3L136.3,84.722,134,83.7a12.1,12.1,0,0,1-3.544,1.469l-.9,2.349h-3.838l-.9-2.35a12.1,12.1,0,0,1-3.543-1.469l-2.3,1.023-2.714-2.714,1.022-2.3a12.1,12.1,0,0,1-1.469-3.544l-2.349-.9V71.42l2.349-.9a12.1,12.1,0,0,1,1.469-3.544l-1.023-2.3,2.714-2.714,2.3,1.023a12.1,12.1,0,0,1,3.543-1.469l.9-2.35h3.838Z" transform="translate(-113.453 -59.16)" fill="#ffe177" fill-rule="evenodd"/>
          <path id="Path_1003979" data-name="Path 1003979" d="M173.469,83.7l-2.3,1.023-.354-.355,2.159-.959Q173.217,83.561,173.469,83.7Zm9.19-22.19A12.1,12.1,0,0,1,186.2,62.98l-.654.291a15.961,15.961,0,0,0-4.042-1.76l-.9-2.35h1.153ZM186.2,83.7a12.1,12.1,0,0,1-3.544,1.469l-.9,2.349H180.6l.9-2.349a15.957,15.957,0,0,0,4.043-1.76ZM170.812,62.312l.354-.355,2.3,1.023q-.252.139-.5.291Zm16.895,0,.8-.355,2.714,2.714-1.022,2.3a12.1,12.1,0,0,1,1.469,3.544l2.349.9v3.838l-2.35.9a12.1,12.1,0,0,1-1.469,3.543l1.023,2.3L188.5,84.723l-.8-.355,2.359-2.359-1.023-2.3a12.1,12.1,0,0,0,1.469-3.543l2.35-.9V71.421l-2.349-.9a12.1,12.1,0,0,0-1.469-3.544l1.022-2.3Z" transform="translate(-165.657 -59.161)" fill="#ffd064" fill-rule="evenodd"/>
          <ellipse id="Ellipse_13859" data-name="Ellipse 13859" cx="9.375" cy="9.375" rx="9.375" ry="9.375" transform="translate(0.917 14.179) rotate(-45)" fill="#eceff1"/>
          <path id="Path_1003980" data-name="Path 1003980" d="M176.274,112.606a9.375,9.375,0,0,0,0,18.751c.19,0,.378-.006.565-.017a9.375,9.375,0,0,1,0-18.716c-.187-.011-.375-.018-.565-.018Z" transform="translate(-162.095 -107.802)" fill="#d1d1d6" fill-rule="evenodd"/>
        </g>
        <g id="Group_1180451" data-name="Group 1180451" transform="translate(0 24.217)">
          <path id="Path_1003981" data-name="Path 1003981" d="M66.749,333.615l6.925-4.012a4.9,4.9,0,0,1,4.05-.823,48.706,48.706,0,0,0,6.846,2.1,1.924,1.924,0,0,1,1.33,2.3,1.862,1.862,0,0,1-2.3,1.331l.927.148a4.317,4.317,0,0,0,2.968-.517l6.658-3.878c5.175-3.014,5.936,1.623,4.215,2.682l-12.083,7.44a4.431,4.431,0,0,1-3.588.506l-8.764-2.348-3.246,1.874a1.311,1.311,0,0,1-1.787-.479L66.271,335.4a1.311,1.311,0,0,1,.477-1.786Z" transform="translate(-63.739 -328.606)" fill="#f6dccd" fill-rule="evenodd"/>
          <path id="Path_1003982" data-name="Path 1003982" d="M213.944,367.453a1.9,1.9,0,0,1-2.146.916c-1.436-.38-2.869-.769-4.3-1.153a.72.72,0,0,1,.373-1.391Z" transform="translate(-191.942 -362.457)" fill="#f1cbbc" fill-rule="evenodd"/>
          <path id="Path_1003983" data-name="Path 1003983" d="M66.749,333.615l6.925-4.012a4.9,4.9,0,0,1,4.05-.823c.852.276,1.993.722,3.275,1.15l-13.415,7.745L66.271,335.4A1.311,1.311,0,0,1,66.749,333.615Z" transform="translate(-63.738 -328.606)" fill="#f1cbbc" fill-rule="evenodd"/>
          <path id="Path_1003984" data-name="Path 1003984" d="M43.558,354.989l5.492,9.7a.983.983,0,0,1-.37,1.336l-1.868,1.057a.983.983,0,0,1-1.336-.37l-5.492-9.7a.983.983,0,0,1,.37-1.336l1.868-1.057A.983.983,0,0,1,43.558,354.989Z" transform="translate(-39.857 -352.166)" fill="#d1d1d6" fill-rule="evenodd"/>
          <path id="Path_1003985" data-name="Path 1003985" d="M72.36,361.656l.972,1.718.961,1.7a.983.983,0,0,1-.367,1.334l.667-.378a.983.983,0,0,0,.37-1.336l-.964-1.7-1.937-3.422-1.939-3.426-.652-1.152a.984.984,0,0,0-1.142-.454l1.129,1.995,1.937,3.422.964,1.7Z" transform="translate(-65.771 -352.166)" fill="#b1b1b5" fill-rule="evenodd"/>
        </g>
        <g id="Group_1180452" data-name="Group 1180452" transform="translate(14.815 10.322)">
          <path id="Path_1003986" data-name="Path 1003986" d="M205.238,232H206.7a.54.54,0,0,1,.539.539v1.837a.54.54,0,0,1-.539.539h-1.458a.54.54,0,0,1-.539-.539v-1.837A.54.54,0,0,1,205.238,232Z" transform="translate(-204.699 -226.786)" fill="#fe646f" fill-rule="evenodd"/>
          <path id="Path_1003987" data-name="Path 1003987" d="M218.261,232h.778a.54.54,0,0,1,.539.539v1.837a.54.54,0,0,1-.539.539h-.778a.54.54,0,0,0,.539-.539v-1.837A.54.54,0,0,0,218.261,232Z" transform="translate(-217.042 -226.786)" fill="#fd4755" fill-rule="evenodd"/>
          <path id="Path_1003988" data-name="Path 1003988" d="M257.644,203.63H259.1a.54.54,0,0,1,.539.539v4.386a.54.54,0,0,1-.539.539h-1.458a.54.54,0,0,1-.539-.539v-4.386A.54.54,0,0,1,257.644,203.63Z" transform="translate(-252.395 -200.967)" fill="#6cf5c2" fill-rule="evenodd"/>
          <path id="Path_1003989" data-name="Path 1003989" d="M270.666,203.63h.778a.54.54,0,0,1,.539.539v4.386a.54.54,0,0,1-.539.539h-.778a.54.54,0,0,0,.539-.539v-4.386A.54.54,0,0,0,270.666,203.63Z" transform="translate(-264.737 -200.967)" fill="#00e499" fill-rule="evenodd"/>
          <path id="Path_1003990" data-name="Path 1003990" d="M310.049,174.005h1.458a.54.54,0,0,1,.539.539v7.049a.54.54,0,0,1-.539.539h-1.458a.54.54,0,0,1-.539-.539v-7.049A.54.54,0,0,1,310.049,174.005Z" transform="translate(-300.09 -174.005)" fill="#8ac9fe" fill-rule="evenodd"/>
          <path id="Path_1003991" data-name="Path 1003991" d="M323.072,174.005h.778a.54.54,0,0,1,.539.539v7.049a.54.54,0,0,1-.539.539h-.778a.54.54,0,0,0,.539-.539v-7.049A.54.54,0,0,0,323.072,174.005Z" transform="translate(-312.433 -174.005)" fill="#60b7ff" fill-rule="evenodd"/>
        </g>
      </g>
      <path id="Path_1003992" data-name="Path 1003992" d="M57.53,30.326h1.1v-6.69h-1.1Zm-1.438.719V22.918a.719.719,0,0,1,.719-.719h2.536a.719.719,0,0,1,.719.719v8.127a.719.719,0,0,1-.719.719H56.811A.719.719,0,0,1,56.092,31.045ZM53.918,26.3h-1.1v4.026h1.1Zm1.438-.719v5.465a.719.719,0,0,1-.719.719H52.1a.719.719,0,0,1-.719-.719V25.58a.719.719,0,0,1,.719-.719h2.535A.719.719,0,0,1,55.356,25.58ZM48.11,30.326h1.1V28.849h-1.1Zm-.719,1.438a.719.719,0,0,1-.719-.719V28.13a.719.719,0,0,1,.719-.719h2.536a.719.719,0,0,1,.719.719v2.915a.719.719,0,0,1-.719.719Zm1.29-5.457a.719.719,0,0,1-.442-1.286l4.241-3.3a.719.719,0,0,1,.239-1.4h0l1.8,0a.719.719,0,0,1,.7.894l-.439,1.744a.719.719,0,0,1-.7.544.7.7,0,0,1-.176-.022.718.718,0,0,1-.54-.632l-4.241,3.3a.717.717,0,0,1-.441.151ZM35.017,41.087a.667.667,0,1,0,.757.563A.668.668,0,0,0,35.017,41.087Zm9.7-14.312a8.656,8.656,0,1,1,8.656,8.657,8.666,8.666,0,0,1-8.656-8.657Zm-1.438,0A10.095,10.095,0,1,1,53.369,36.869,10.106,10.106,0,0,1,43.274,26.775ZM67.119,38.751c-.514-.858-1.924-.728-3.772.349l-6.659,3.878a5.011,5.011,0,0,1-3.444.605l-.828-.135-.014,0-.014,0c-1.039-.212-2-.487-3.02-.778-.462-.132-.941-.269-1.427-.4a.719.719,0,1,1,.372-1.389c.5.133.982.272,1.451.405.981.28,1.907.544,2.88.745a1.123,1.123,0,0,0,1.4-.819,1.2,1.2,0,0,0-.817-1.421,34.651,34.651,0,0,1-5.48-1.624c-.539-.2-1-.363-1.408-.494a4.291,4.291,0,0,0-3.468.762l-4.854,2.81,3.169,5.6,1.22-.7a.716.716,0,0,1,.545-.072l8.765,2.349a3.727,3.727,0,0,0,3.025-.424l12.084-7.44a1.418,1.418,0,0,0,.3-1.8ZM41.144,49.691a.264.264,0,0,1-.1.356L39.177,51.1a.259.259,0,0,1-.2.023.263.263,0,0,1-.158-.122L33.328,41.3a.264.264,0,0,1,.1-.356l1.869-1.057a.253.253,0,0,1,.126-.033.288.288,0,0,1,.073.01.257.257,0,0,1,.157.122Zm2.774-13.333-1.073-1.074.822-1.85a.72.72,0,0,0-.045-.669,11.369,11.369,0,0,1-1.382-3.334.717.717,0,0,0-.44-.5L39.909,28.2V25.35l1.889-.727a.718.718,0,0,0,.441-.5,11.376,11.376,0,0,1,1.381-3.333.717.717,0,0,0,.045-.669l-.822-1.851,2.015-2.016,1.852.822a.719.719,0,0,0,.668-.045,11.369,11.369,0,0,1,3.333-1.382.719.719,0,0,0,.505-.441l.727-1.889h2.85l.727,1.889a.72.72,0,0,0,.505.441,11.37,11.37,0,0,1,3.333,1.382.718.718,0,0,0,.668.045l1.852-.822L63.9,18.265l-.822,1.85a.721.721,0,0,0,.045.669A11.37,11.37,0,0,1,64.5,24.118a.718.718,0,0,0,.44.5l1.889.727V28.2l-1.889.727a.718.718,0,0,0-.441.5,11.369,11.369,0,0,1-1.382,3.333.718.718,0,0,0-.045.669l.822,1.851L61.879,37.3l-1.851-.822a.717.717,0,0,0-.668.045,11.368,11.368,0,0,1-3.335,1.382.72.72,0,0,0-.5.441L55.077,39.5a2.754,2.754,0,0,0-1.451-1.094.669.669,0,0,0-.093-.024,33.236,33.236,0,0,1-5.3-1.571c-.529-.191-1.028-.371-1.454-.509a4.5,4.5,0,0,0-2.862.057Zm11.34,5.7a2.75,2.75,0,0,0,.146-.391.718.718,0,0,0,.555-.451l.771-2a12.808,12.808,0,0,0,3.055-1.267l1.525.678-5.346,3.114a3.623,3.623,0,0,1-.706.319Zm13.121-4a2.851,2.851,0,0,1-.8,3.715L55.493,49.214A5.142,5.142,0,0,1,52.775,50a5.53,5.53,0,0,1-1.433-.193l-8.477-2.271-.973.562.5.89a1.7,1.7,0,0,1-.642,2.316l-1.869,1.057a1.684,1.684,0,0,1-.832.22,1.721,1.721,0,0,1-.459-.063,1.693,1.693,0,0,1-1.025-.8l-5.492-9.705a1.7,1.7,0,0,1,.642-2.316l1.869-1.058a1.7,1.7,0,0,1,2.316.642l.4.713,4.842-2.8c.119-.068.239-.136.361-.2l-1.031-1.031a.718.718,0,0,1-.149-.8L42.2,33.19a12.748,12.748,0,0,1-1.267-3.055l-2-.771a.718.718,0,0,1-.461-.671V24.856a.718.718,0,0,1,.461-.671l2-.771A12.781,12.781,0,0,1,42.2,20.36L41.329,18.4a.718.718,0,0,1,.149-.8l2.713-2.714a.721.721,0,0,1,.8-.148l1.962.871a12.8,12.8,0,0,1,3.054-1.266l.771-2a.719.719,0,0,1,.671-.461h3.837a.72.72,0,0,1,.671.461l.771,2a12.807,12.807,0,0,1,3.054,1.266l1.962-.871a.721.721,0,0,1,.8.148L65.26,17.6a.72.72,0,0,1,.149.8l-.872,1.962A12.747,12.747,0,0,1,65.8,23.414l2,.771a.719.719,0,0,1,.461.671v3.838a.719.719,0,0,1-.461.671l-2,.771a12.785,12.785,0,0,1-1.267,3.054l.872,1.963a.719.719,0,0,1-.149.8l-1.2,1.2a3.9,3.9,0,0,1,3.271-.093,17.14,17.14,0,0,0,3.379-10.287,17.319,17.319,0,0,0-2.347-8.716.719.719,0,0,1,1.243-.724,18.769,18.769,0,0,1,2.542,9.441,18.566,18.566,0,0,1-3.768,11.284ZM37.258,36.422a18.778,18.778,0,0,1,26.928-25l-.3-1.04a.719.719,0,0,1,1.383-.395l.914,3.2a.72.72,0,0,1-.666.916l-3.329.12h-.027a.719.719,0,0,1-.025-1.438l1.416-.051A17.342,17.342,0,0,0,38.49,35.682a.719.719,0,1,1-1.233.74Z" transform="translate(0 0)" fill="#242222" fill-rule="evenodd"/>
    </g>
  </g>
</svg>
