<svg xmlns="http://www.w3.org/2000/svg" width="70" height="70" viewBox="0 0 70 70">
  <g id="img42" transform="translate(-843 -8937.832)">
    <rect id="Rectangle_455615" data-name="Rectangle 455615" width="70" height="70" transform="translate(843 8937.832)" fill="#ff9a1a"/>
    <path id="Path_1008302" data-name="Path 1008302" d="M52,21.807H50.116l-2.809,1.478a4.169,4.169,0,0,0-1-.411l-3.533-.884v-.4a5.89,5.89,0,0,0,2.517-4.813V15.308A6.026,6.026,0,0,0,39.6,9.228c-.159,0-.316,0-.474.009l.916-2.145L35.6,2.653l-2.618,1.7a14.187,14.187,0,0,0-3.139-1.3L29.2,0H22.8l-.647,3.056a14.17,14.17,0,0,0-3.139,1.3L16.4,2.654,11.963,7.091l.9,2.146c-.034,0-.067-.008-.1-.009A5.873,5.873,0,0,0,6.71,15.1v1.677a5.888,5.888,0,0,0,2.516,4.812v.4l-2.3.576L2.743,20.129H0V37.508l8.251,2.75H9.858l.2-.7,2.529,1.518a2.611,2.611,0,0,0,2.518,2.53,2.611,2.611,0,0,0,2.516,2.516,2.611,2.611,0,0,0,2.516,2.516,2.608,2.608,0,0,0,4.079,2.071l.743.656A2.554,2.554,0,0,0,26.647,52H26.8a2.554,2.554,0,0,0,2.549-2.519,2.551,2.551,0,0,0,2.516-2.516,2.551,2.551,0,0,0,2.516-2.519A2.579,2.579,0,0,0,36.9,41.873a2.455,2.455,0,0,0-.013-.251L52,34.067Zm-8.387-6.5v1.466a4.21,4.21,0,0,1-2.1,3.629l-.419.242,0,2.654,4.19,1.047L36.065,29.2V26.942a4.173,4.173,0,0,0-1.2-2.923l2.879-.719V20.644l-.419-.242a4.205,4.205,0,0,1-2.1-3.628V15.1a4.193,4.193,0,0,1,4.323-4.191,4.336,4.336,0,0,1,4.064,4.4ZM27.265,28.542l-3.8-1.213a10.357,10.357,0,0,0-5.374-.245l-.481.106v-.248A2.514,2.514,0,0,1,19.518,24.5l4.8-1.2V20.644L23.9,20.4a4.205,4.205,0,0,1-2.1-3.628V15.1a4.193,4.193,0,0,1,4.323-4.191,4.336,4.336,0,0,1,4.064,4.4v1.466a4.21,4.21,0,0,1-2.1,3.629l-.419.242,0,2.654,4.8,1.2a2.514,2.514,0,0,1,1.906,2.442v3.143l-.207.109h-.514L28.51,28.72a5.287,5.287,0,0,0-1.245-.178ZM17.8,12.553a9.22,9.22,0,0,1,16.364-.068,5.833,5.833,0,0,0-.616,2.612v1.677a5.888,5.888,0,0,0,2.516,4.812v.4l-3.355.84-3.356-.84v-.4a5.89,5.89,0,0,0,2.517-4.813V15.308a6.026,6.026,0,0,0-5.691-6.08A5.872,5.872,0,0,0,20.129,15.1v1.677a5.888,5.888,0,0,0,2.516,4.812v.4l-3.355.84-3.356-.84v-.4a5.89,5.89,0,0,0,2.517-4.813V15.308a6.182,6.182,0,0,0-.651-2.755ZM13.943,7.48l2.68-2.68,2.358,1.535.451-.277a12.516,12.516,0,0,1,3.632-1.506l.516-.124.584-2.752h3.673l.582,2.751.516.123a12.528,12.528,0,0,1,3.632,1.507l.451.277L35.376,4.8l2.676,2.677L37.1,9.7a5.862,5.862,0,0,0-1.77,1.177c-.034.034-.064.07-.1.1a10.892,10.892,0,0,0-18.5.05,5.916,5.916,0,0,0-1.85-1.312ZM10.9,23.3V20.644l-.419-.242a4.205,4.205,0,0,1-2.1-3.628V15.1a4.193,4.193,0,0,1,4.323-4.191,4.336,4.336,0,0,1,4.064,4.4v1.466a4.21,4.21,0,0,1-2.1,3.629l-.419.242,0,2.654,2.878.719a4.173,4.173,0,0,0-1.2,2.923v.621l-2.616.582.068-.238.032-1.55L9,23.777ZM1.677,21.807h.611l6.032,3.518L5.277,37.5l-3.6-1.2ZM8.523,38.581l-1.651-.55L9.829,26.2l1.913,1.116v.24L8.593,38.581ZM14.258,41a.947.947,0,0,1,.275-.665l1.474-1.474a.941.941,0,0,1,1.33,1.33l-1.474,1.474A.941.941,0,0,1,14.258,41Zm2.516,2.516a.947.947,0,0,1,.275-.665l1.474-1.474a.941.941,0,0,1,1.33,1.33l-1.474,1.474a.941.941,0,0,1-1.605-.665Zm2.516,2.516a.947.947,0,0,1,.275-.665l1.474-1.474a.941.941,0,0,1,1.33,1.33L20.9,46.693a.941.941,0,0,1-1.605-.665Zm3.456,3.456a.941.941,0,0,1-.665-1.605L23.556,46.4a.941.941,0,0,1,1.33,1.33l-1.474,1.474A.947.947,0,0,1,22.747,49.484Zm4.056.839h-.155a.869.869,0,0,1-.578-.219l-.627-.553.63-.63a2.608,2.608,0,0,0,.528-.779l.763.635a.875.875,0,0,1-.56,1.547Zm7.521-7.548h-.145a.9.9,0,0,1-.577-.21l-4.548-3.79-1.075,1.289,4.417,3.68a.875.875,0,0,1-.561,1.547h-.183a.875.875,0,0,1-.559-.2l-4.556-3.8-1.075,1.289,4.417,3.68a.874.874,0,0,1-.56,1.546,1.385,1.385,0,0,1-.883-.319l-1.872-1.56a2.609,2.609,0,0,0-2.252-1.466A2.611,2.611,0,0,0,21.8,41.945a2.611,2.611,0,0,0-2.516-2.516,2.612,2.612,0,0,0-4.459-1.759l-1.474,1.474a2.585,2.585,0,0,0-.235.287l-2.576-1.546,2.259-7.9,5.662-1.259a8.64,8.64,0,0,1,4.5.2l1.236.4L20,31.415a2.8,2.8,0,0,0-1.552,2.513v.166A2.809,2.809,0,0,0,22.707,36.5L25.83,34.63a1.731,1.731,0,0,1,2.011.194L34.927,41.2a.9.9,0,0,1-.6,1.573Zm16-9.744L36.193,40.1c-.046-.049-.094-.1-.144-.14l-7.085-6.378a3.375,3.375,0,0,0-4-.387l-3.124,1.874a1.131,1.131,0,0,1-1.713-.971v-.166a1.125,1.125,0,0,1,.626-1.012l4.678-2.339a3.645,3.645,0,0,1,2.614-.242l5.271,1.505,1.277.032,15.728-8.278Zm0,0" transform="translate(851.711 8947)" fill="#593609"/>
  </g>
</svg>
