<svg xmlns="http://www.w3.org/2000/svg" xmlns:xlink="http://www.w3.org/1999/xlink" width="292" height="236" viewBox="0 0 292 236">
  <defs>
    <linearGradient id="linear-gradient" x1="0.172" y1="-0.046" x2="0.575" y2="0.543" gradientUnits="objectBoundingBox">
      <stop offset="0" stop-color="#484857"/>
      <stop offset="1" stop-color="#2e2e2e"/>
    </linearGradient>
  </defs>
  <g id="img41" transform="translate(-1121.711 -10978)">
    <rect id="Rectangle_455484" data-name="Rectangle 455484" width="292" height="236" rx="10" transform="translate(1121.711 10978)" fill="#beb1a1"/>
    <g id="_x31_" transform="translate(1134.711 11028.736)">
      <path id="die" d="M437.694,165.544c22.661,1.946,44.012,11.03,86.713,29.2,8.892,3.784,18.845,8.3,28.232,18.111,14.052,14.689,17.836,31.84,19.983,42.186,1.647,7.935,8.763,46.775-15.144,81.64a98.617,98.617,0,0,1-19.471,20.982q-39.564-.194-79.121-.185-51.755.011-103.518.369c-18.107-3.429-44.663-68.356-38.712-124.781.258-15.938,19.353-47.139,24.295-46.14h0c28.715-27.223,71.116-23.582,96.742-21.381Z" transform="translate(-307.48 -173.138)" fill="#faf2df"/>
      <g id="decor" transform="translate(0 1.151)">
        <g id="gear_5" transform="translate(183.43 75.684)">
          <g id="Group_1180367" data-name="Group 1180367">
            <path id="Path_1003409" data-name="Path 1003409" d="M1758.218,868.839l4.788-2.2a.77.77,0,0,1,.93.232,27.4,27.4,0,0,0,6.442,5.953.77.77,0,0,1,.3.91l-1.829,4.95a.774.774,0,0,0,.458.994l9.364,3.46a.774.774,0,0,0,.994-.458l1.829-4.95a.77.77,0,0,1,.821-.494,27.4,27.4,0,0,0,8.765-.335.77.77,0,0,1,.857.429l2.2,4.788a.774.774,0,0,0,1.027.379l9.068-4.175a.774.774,0,0,0,.379-1.027l-2.2-4.788a.77.77,0,0,1,.231-.93,27.392,27.392,0,0,0,5.953-6.441.77.77,0,0,1,.91-.3l4.95,1.829a.774.774,0,0,0,.994-.458l3.459-9.364a.774.774,0,0,0-.458-.994l-4.949-1.829a.77.77,0,0,1-.495-.821,27.4,27.4,0,0,0-.335-8.765.77.77,0,0,1,.429-.857l4.788-2.2a.774.774,0,0,0,.379-1.027l-4.175-9.067a.774.774,0,0,0-1.027-.379l-4.788,2.2a.77.77,0,0,1-.93-.232,27.4,27.4,0,0,0-6.441-5.953.77.77,0,0,1-.3-.91l1.829-4.95a.774.774,0,0,0-.458-.994l-9.364-3.46a.774.774,0,0,0-.994.458l-1.829,4.95a.77.77,0,0,1-.821.494,27.4,27.4,0,0,0-8.765.335.77.77,0,0,1-.857-.429l-2.2-4.788a.774.774,0,0,0-1.027-.379l-9.068,4.175a.774.774,0,0,0-.379,1.027l2.2,4.788a.771.771,0,0,1-.232.93,27.393,27.393,0,0,0-5.953,6.441.77.77,0,0,1-.91.3l-4.95-1.829a.774.774,0,0,0-.994.458l-3.459,9.364a.774.774,0,0,0,.458.994l4.95,1.829a.77.77,0,0,1,.495.821,27.4,27.4,0,0,0,.335,8.764.77.77,0,0,1-.429.857l-4.788,2.2a.774.774,0,0,0-.379,1.027l4.175,9.068a.774.774,0,0,0,1.027.379Zm13.078-12.368c-3.433-7.457.284-17.519,7.741-20.952s17.811.608,21.244,8.065-.628,17.11-8.085,20.543-17.466-.2-20.9-7.656Z" transform="translate(-1751.613 -815.836)" fill="#c1c7d6"/>
            <g id="Group_1180366" data-name="Group 1180366" transform="translate(0.405 0.944)">
              <path id="Path_1003410" data-name="Path 1003410" d="M1765.5,924.6a.771.771,0,0,1-.232.93,27.4,27.4,0,0,0-5.953,6.441.77.77,0,0,1-.91.3l-4.95-1.829a.774.774,0,0,0-.994.458l-2.633,7.128a.762.762,0,0,1-.061-.645l3.459-9.364a.774.774,0,0,1,.994-.458l4.95,1.829a.77.77,0,0,0,.91-.3,27.435,27.435,0,0,1,4.924-5.567l.5,1.076Z" transform="translate(-1749.727 -911.044)" fill="#fff"/>
              <path id="Path_1003411" data-name="Path 1003411" d="M1905.6,822.988l-.826,2.236a.762.762,0,0,0-.4-.35l-9.364-3.46a.774.774,0,0,0-.994.458l-1.829,4.95a.77.77,0,0,1-.821.494,27.4,27.4,0,0,0-8.765.335.771.771,0,0,1-.857-.429l-2.2-4.788a.774.774,0,0,0-1.027-.379l-8.045,3.7-.637-1.383a.774.774,0,0,1,.379-1.027l9.068-4.175a.774.774,0,0,1,1.027.379l2.2,4.788a.771.771,0,0,0,.857.429,27.4,27.4,0,0,1,8.765-.335.77.77,0,0,0,.821-.494l1.829-4.95a.774.774,0,0,1,.994-.458l9.364,3.46a.774.774,0,0,1,.458.994Z" transform="translate(-1855.498 -818.485)" fill="#fff"/>
              <path id="Path_1003412" data-name="Path 1003412" d="M2162.609,910.906a.774.774,0,0,0-1.027-.379l-4.788,2.2a.77.77,0,0,1-.93-.232,27.4,27.4,0,0,0-6.441-5.953.769.769,0,0,1-.3-.91l.828-2.241a.771.771,0,0,0,.24.27,27.4,27.4,0,0,1,6.441,5.953.77.77,0,0,0,.93.232l4.789-2.2a.774.774,0,0,1,1.027.379l4.175,9.067a.774.774,0,0,1-.379,1.027l-1.023.471-3.538-7.684Z" transform="translate(-2101.611 -893.305)" fill="#fff"/>
            </g>
            <path id="Path_1003413" data-name="Path 1003413" d="M1773.646,878.6a1.488,1.488,0,0,1-.516-.093l-9.364-3.46a1.487,1.487,0,0,1-.88-1.91l1.829-4.95a.059.059,0,0,0-.028-.068,28.074,28.074,0,0,1-6.609-6.108.059.059,0,0,0-.07-.023l-4.788,2.2a1.489,1.489,0,0,1-1.973-.729h0l-4.175-9.068a1.489,1.489,0,0,1,.729-1.973l4.788-2.2a.059.059,0,0,0,.028-.068,28.082,28.082,0,0,1-.344-8.992.059.059,0,0,0-.034-.065l-4.95-1.829a1.487,1.487,0,0,1-.88-1.91l3.459-9.364a1.487,1.487,0,0,1,1.91-.88l4.95,1.829a.058.058,0,0,0,.068-.028,28.077,28.077,0,0,1,6.108-6.609.059.059,0,0,0,.023-.07l-2.2-4.788a1.489,1.489,0,0,1,.729-1.973l9.068-4.175a1.489,1.489,0,0,1,1.973.729l2.2,4.788a.059.059,0,0,0,.068.028,28.082,28.082,0,0,1,8.993-.344.058.058,0,0,0,.065-.034l1.829-4.95a1.487,1.487,0,0,1,1.91-.88l9.364,3.46a1.487,1.487,0,0,1,.88,1.91l-1.829,4.95a.059.059,0,0,0,.028.068,28.076,28.076,0,0,1,6.609,6.108.059.059,0,0,0,.07.023l4.788-2.2a1.489,1.489,0,0,1,1.973.729l4.175,9.068a1.487,1.487,0,0,1-.729,1.973l-4.788,2.2a.059.059,0,0,0-.028.068,28.079,28.079,0,0,1,.344,8.993.059.059,0,0,0,.034.065l4.95,1.829a1.489,1.489,0,0,1,.88,1.91l-3.46,9.364a1.487,1.487,0,0,1-1.91.88l-4.949-1.829a.059.059,0,0,0-.068.028,28.08,28.08,0,0,1-6.108,6.609.059.059,0,0,0-.023.07l2.2,4.788a1.487,1.487,0,0,1-.729,1.973l-9.067,4.175a1.489,1.489,0,0,1-1.973-.729l-2.2-4.788a.059.059,0,0,0-.068-.028,28.082,28.082,0,0,1-8.993.344.059.059,0,0,0-.065.034l-1.829,4.95a1.49,1.49,0,0,1-1.394.972Zm-15.617-18.044a1.488,1.488,0,0,1,1.172.576,26.653,26.653,0,0,0,6.274,5.8,1.48,1.48,0,0,1,.577,1.751l-1.829,4.95a.061.061,0,0,0,.036.078l9.364,3.46a.061.061,0,0,0,.078-.036l1.829-4.95a1.481,1.481,0,0,1,1.577-.955,26.647,26.647,0,0,0,8.537-.326,1.48,1.48,0,0,1,1.646.83l2.2,4.788a.061.061,0,0,0,.081.03l9.067-4.175a.061.061,0,0,0,.03-.081l-2.2-4.788a1.48,1.48,0,0,1,.44-1.79,26.656,26.656,0,0,0,5.8-6.274,1.48,1.48,0,0,1,1.751-.577l4.949,1.829a.059.059,0,0,0,.047,0,.058.058,0,0,0,.032-.034l3.459-9.364a.061.061,0,0,0-.036-.078l-4.95-1.829a1.48,1.48,0,0,1-.955-1.577,26.653,26.653,0,0,0-.326-8.537,1.48,1.48,0,0,1,.83-1.646l4.788-2.2a.061.061,0,0,0,.03-.081l-4.175-9.068a.061.061,0,0,0-.081-.03l-4.788,2.2a1.481,1.481,0,0,1-1.79-.44,26.656,26.656,0,0,0-6.274-5.8,1.48,1.48,0,0,1-.577-1.751l1.829-4.95a.061.061,0,0,0-.036-.078l-9.364-3.46a.061.061,0,0,0-.078.036l-1.829,4.95a1.481,1.481,0,0,1-1.577.955,26.652,26.652,0,0,0-8.537.326,1.48,1.48,0,0,1-1.646-.83l-2.2-4.789a.061.061,0,0,0-.081-.03l-9.067,4.175a.061.061,0,0,0-.03.081l2.2,4.788a1.48,1.48,0,0,1-.44,1.79,26.655,26.655,0,0,0-5.8,6.274,1.479,1.479,0,0,1-1.751.577l-4.95-1.829a.061.061,0,0,0-.078.036l-3.46,9.364a.058.058,0,0,0,0,.047.059.059,0,0,0,.034.032l4.95,1.829a1.48,1.48,0,0,1,.955,1.577,26.65,26.65,0,0,0,.326,8.537,1.48,1.48,0,0,1-.83,1.646l-4.788,2.2a.059.059,0,0,0-.032.034.059.059,0,0,0,0,.047l4.175,9.068a.061.061,0,0,0,.081.03l4.788-2.2a1.476,1.476,0,0,1,.618-.136Z" transform="translate(-1746.318 -810.542)" fill="#2e2e2e"/>
            <path id="Path_1003414" data-name="Path 1003414" d="M1910.283,991a16.5,16.5,0,1,1,6.879-1.512h0a16.415,16.415,0,0,1-6.879,1.512Zm-.048-31.588a15.081,15.081,0,1,0,6.33,28.78h0a15.081,15.081,0,0,0-6.33-28.78Zm6.628,29.427h0Z" transform="translate(-1876.229 -940.459)" fill="#2e2e2e"/>
          </g>
          <g id="Group_1180369" data-name="Group 1180369" transform="translate(7.29 67.098)">
            <path id="Path_1003415" data-name="Path 1003415" d="M1814.388,1403.58l2.865-.148a.419.419,0,0,1,.423.3,14.906,14.906,0,0,0,2.054,4.308.419.419,0,0,1-.031.521l-1.923,2.132a.421.421,0,0,0,.031.595l4.034,3.638a.421.421,0,0,0,.595-.031l1.923-2.132a.419.419,0,0,1,.515-.084,14.9,14.9,0,0,0,4.5,1.6.419.419,0,0,1,.347.39l.148,2.865a.421.421,0,0,0,.442.4l5.425-.28a.421.421,0,0,0,.4-.442l-.148-2.865a.419.419,0,0,1,.3-.423,14.909,14.909,0,0,0,4.308-2.054.419.419,0,0,1,.521.031l2.132,1.923a.421.421,0,0,0,.595-.031l3.638-4.034a.421.421,0,0,0-.031-.595l-2.132-1.923a.419.419,0,0,1-.084-.515,14.907,14.907,0,0,0,1.6-4.5.419.419,0,0,1,.39-.347l2.865-.148a.421.421,0,0,0,.4-.442l-.28-5.425a.421.421,0,0,0-.442-.4l-2.865.148a.419.419,0,0,1-.423-.3,14.913,14.913,0,0,0-2.054-4.308.419.419,0,0,1,.031-.521l1.923-2.132a.421.421,0,0,0-.031-.595l-4.034-3.638a.421.421,0,0,0-.595.031l-1.923,2.132a.419.419,0,0,1-.515.084,14.9,14.9,0,0,0-4.5-1.6.419.419,0,0,1-.347-.39l-.148-2.865a.421.421,0,0,0-.442-.4l-5.425.28a.421.421,0,0,0-.4.442l.148,2.865a.42.42,0,0,1-.3.423,14.906,14.906,0,0,0-4.308,2.054.419.419,0,0,1-.521-.031l-2.132-1.923a.421.421,0,0,0-.595.031l-3.638,4.034a.421.421,0,0,0,.031.595l2.132,1.923a.419.419,0,0,1,.084.515,14.905,14.905,0,0,0-1.6,4.5.419.419,0,0,1-.39.347l-2.865.148a.421.421,0,0,0-.4.442l.28,5.425a.421.421,0,0,0,.442.4Zm9.1-3.611a8.979,8.979,0,0,1,8.141-9.025c4.461-.23,8.877,3.9,9.107,8.363s-3.771,8.519-8.232,8.749a8.925,8.925,0,0,1-9.016-8.087Z" transform="translate(-1812.952 -1380.402)" fill="#fff"/>
            <g id="Group_1180368" data-name="Group 1180368" transform="translate(3.411 0.767)">
              <path id="Path_1003416" data-name="Path 1003416" d="M1847,1416.125a.42.42,0,0,1-.3.423,14.907,14.907,0,0,0-4.308,2.054.419.419,0,0,1-.521-.031l-2.132-1.923a.421.421,0,0,0-.595.031l-2.769,3.07a.415.415,0,0,1,.1-.338l3.638-4.034a.421.421,0,0,1,.595-.031l2.132,1.923a.419.419,0,0,0,.521.031,14.924,14.924,0,0,1,3.612-1.819Z" transform="translate(-1836.364 -1411.236)" fill="#fff"/>
              <path id="Path_1003417" data-name="Path 1003417" d="M1951.1,1388.806l-.869.963a.414.414,0,0,0-.13-.257l-4.034-3.638a.421.421,0,0,0-.595.031l-1.923,2.132a.419.419,0,0,1-.515.084,14.909,14.909,0,0,0-4.5-1.6.419.419,0,0,1-.347-.39l-.148-2.865a.421.421,0,0,0-.442-.4l-4.813.248-.043-.828a.421.421,0,0,1,.4-.442l5.425-.28a.421.421,0,0,1,.442.4l.148,2.865a.419.419,0,0,0,.347.39,14.909,14.909,0,0,1,4.5,1.6.419.419,0,0,0,.515-.084l1.923-2.132a.421.421,0,0,1,.595-.031l4.034,3.638a.421.421,0,0,1,.031.595Z" transform="translate(-1921.29 -1381.566)" fill="#fff"/>
              <path id="Path_1003418" data-name="Path 1003418" d="M2067.814,1469.6a.421.421,0,0,0-.442-.4l-2.865.148a.419.419,0,0,1-.423-.3,14.907,14.907,0,0,0-2.054-4.308.419.419,0,0,1,.031-.521l.871-.965a.419.419,0,0,0,.067.185,14.907,14.907,0,0,1,2.054,4.308.419.419,0,0,0,.423.3l2.865-.148a.421.421,0,0,1,.442.4l.28,5.425a.421.421,0,0,1-.4.442l-.612.031-.237-4.6Z" transform="translate(-2035.143 -1453.54)" fill="#fff"/>
            </g>
            <path id="Path_1003419" data-name="Path 1003419" d="M1824.991,1413.359a1.134,1.134,0,0,1-1.131-1.076l-.136-2.632a15.607,15.607,0,0,1-4.284-1.524l-1.767,1.959a1.134,1.134,0,0,1-1.6.083l-4.033-3.638a1.134,1.134,0,0,1-.083-1.6l1.768-1.96a15.6,15.6,0,0,1-1.957-4.1l-2.632.136a1.134,1.134,0,0,1-1.191-1.074h0l-.28-5.425a1.136,1.136,0,0,1,1.074-1.191l2.632-.136a15.592,15.592,0,0,1,1.524-4.284l-1.96-1.767a1.136,1.136,0,0,1-.083-1.6l3.638-4.034a1.135,1.135,0,0,1,1.6-.083l1.96,1.768a15.6,15.6,0,0,1,4.1-1.956l-.136-2.633a1.136,1.136,0,0,1,1.074-1.191l5.425-.28a1.135,1.135,0,0,1,1.191,1.074l.136,2.633a15.6,15.6,0,0,1,4.284,1.524l1.767-1.96a1.136,1.136,0,0,1,1.6-.083l4.034,3.638a1.134,1.134,0,0,1,.083,1.6l-1.767,1.959a15.6,15.6,0,0,1,1.956,4.1l2.632-.136a1.136,1.136,0,0,1,1.191,1.074l.28,5.425a1.134,1.134,0,0,1-1.074,1.191l-2.632.136a15.593,15.593,0,0,1-1.524,4.284l1.96,1.768a1.134,1.134,0,0,1,.083,1.6l-3.638,4.033a1.136,1.136,0,0,1-1.6.083l-1.959-1.768a15.6,15.6,0,0,1-4.1,1.956l.136,2.632a1.134,1.134,0,0,1-1.074,1.191l-5.425.28h-.06Zm-5.617-6.733a1.14,1.14,0,0,1,.55.142,14.184,14.184,0,0,0,4.281,1.523,1.129,1.129,0,0,1,.931,1.054l.133,2.573,4.842-.25-.133-2.573a1.129,1.129,0,0,1,.817-1.145,14.176,14.176,0,0,0,4.1-1.955,1.129,1.129,0,0,1,1.4.088l1.915,1.728,3.247-3.6-1.915-1.728a1.129,1.129,0,0,1-.232-1.387,14.175,14.175,0,0,0,1.523-4.282,1.129,1.129,0,0,1,1.054-.931l2.573-.132-.25-4.842-2.573.133a1.13,1.13,0,0,1-1.145-.817,14.177,14.177,0,0,0-1.956-4.1,1.129,1.129,0,0,1,.088-1.4l1.728-1.915-3.6-3.247-1.728,1.915a1.13,1.13,0,0,1-1.387.232,14.177,14.177,0,0,0-4.282-1.523,1.129,1.129,0,0,1-.931-1.055l-.133-2.573-4.842.25.133,2.573a1.129,1.129,0,0,1-.817,1.145,14.179,14.179,0,0,0-4.1,1.956,1.13,1.13,0,0,1-1.4-.088l-1.915-1.728-3.247,3.6,1.915,1.727a1.129,1.129,0,0,1,.232,1.387,14.173,14.173,0,0,0-1.523,4.281,1.13,1.13,0,0,1-1.055.931l-2.573.133.25,4.842,2.573-.133a1.13,1.13,0,0,1,1.145.817,14.175,14.175,0,0,0,1.956,4.1,1.13,1.13,0,0,1-.088,1.4l-1.727,1.915,3.6,3.247,1.728-1.915a1.126,1.126,0,0,1,.838-.374Z" transform="translate(-1807.661 -1375.112)" fill="#2e2e2e"/>
            <path id="Path_1003420" data-name="Path 1003420" d="M1899.552,1476.322a9.309,9.309,0,1,1,.484-.012h0C1899.875,1476.318,1899.712,1476.322,1899.552,1476.322Zm.448-.725h0Zm-.433-16.464q-.207,0-.415.011a7.881,7.881,0,1,0,.811,15.742h0a7.881,7.881,0,0,0-.4-15.752Z" transform="translate(-1880.434 -1447.89)" fill="#2e2e2e"/>
          </g>
        </g>
        <g id="Group_1180370" data-name="Group 1180370">
          <path id="Path_1003421" data-name="Path 1003421" d="M338.424,231.99A29.959,29.959,0,0,1,308.5,261.913c-6,0-68.889-.4-74.513-.4a25.067,25.067,0,1,1,0-50.134,21.876,21.876,0,0,1,3.246.227,40.24,40.24,0,0,1,75.555-9.217,29.94,29.94,0,0,1,25.635,29.6Z" transform="translate(-208.202 -179.019)" fill="#fff"/>
          <path id="Path_1003422" data-name="Path 1003422" d="M303.216,257.339c-3.049,0-20.934-.1-38.23-.205-17.237-.1-33.518-.2-36.283-.2a25.78,25.78,0,1,1,0-51.56,23.242,23.242,0,0,1,2.691.147,41.135,41.135,0,0,1,25.92-29.327,40.911,40.911,0,0,1,35.986,3.949,41.143,41.143,0,0,1,14.678,16.3,30.63,30.63,0,0,1-4.762,60.888ZM228.7,206.8a24.354,24.354,0,1,0,0,48.708c2.769,0,19.052.095,36.291.2,17.294.1,35.177.205,38.222.205a29.2,29.2,0,0,0,4.187-58.106l-.374-.053-.166-.34a39.527,39.527,0,0,0-74.217,9.053l-.139.657-.664-.1a21.034,21.034,0,0,0-3.14-.219Z" transform="translate(-202.916 -173.732)" fill="#231f20"/>
        </g>
        <g id="Group_1180373" data-name="Group 1180373" transform="translate(87.778 26.843)">
          <g id="Group_1180371" data-name="Group 1180371" transform="translate(0 12.607)">
            <rect id="Rectangle_455693" data-name="Rectangle 455693" width="27.027" height="30.294" transform="translate(0.714 0.713)" fill="#fff"/>
            <path id="Path_1003423" data-name="Path 1003423" d="M968.37,537.387h-25.3a1.554,1.554,0,0,1-1.574-1.53V507.2a1.554,1.554,0,0,1,1.574-1.53h25.3a1.554,1.554,0,0,1,1.574,1.53v15.486a.713.713,0,0,1-1.426,0V507.2c0-.049-.061-.1-.148-.1h-25.3c-.087,0-.148.055-.148.1v28.661c0,.049.061.1.148.1h25.3c.087,0,.148-.055.148-.1v-7.629a.713.713,0,0,1,1.426,0v7.629A1.554,1.554,0,0,1,968.37,537.387Z" transform="translate(-941.492 -505.666)" fill="#2e2e2e"/>
            <path id="Path_1003424" data-name="Path 1003424" d="M996.324,611.206H977.743a.713.713,0,0,1,0-1.426h18.581a.713.713,0,0,1,0,1.426Z" transform="translate(-972.806 -597.406)" fill="#2e2e2e"/>
            <path id="Path_1003425" data-name="Path 1003425" d="M996.324,653.141H977.743a.713.713,0,0,1,0-1.426h18.581a.713.713,0,0,1,0,1.426Z" transform="translate(-972.806 -634.357)" fill="#2e2e2e"/>
            <path id="Path_1003426" data-name="Path 1003426" d="M996.324,694.69H977.743a.713.713,0,0,1,0-1.426h18.581a.713.713,0,0,1,0,1.426Z" transform="translate(-972.806 -670.968)" fill="#2e2e2e"/>
            <path id="Path_1003427" data-name="Path 1003427" d="M1043.959,538.811a2.365,2.365,0,1,1,2.365-2.365A2.367,2.367,0,0,1,1043.959,538.811Zm0-3.3a.938.938,0,1,0,.938.938A.939.939,0,0,0,1043.959,535.508Z" transform="translate(-1029.697 -530.705)" fill="#2e2e2e"/>
          </g>
          <g id="Group_1180372" data-name="Group 1180372" transform="translate(10.77)">
            <path id="Path_1003428" data-name="Path 1003428" d="M1038.11,422.491v-16a.905.905,0,0,1,.906-.905h13.668l5.433,6.058v18.39a.905.905,0,0,1-.906.906h-18.2a.905.905,0,0,1-.906-.906v-7.546Z" transform="translate(-1037.397 -404.876)" fill="#c1c7d6"/>
            <path id="Path_1003429" data-name="Path 1003429" d="M1053.668,404.417H1040a.905.905,0,0,0-.906.906v.484h13.088l5.433,6.058v17.906h.581a.905.905,0,0,0,.906-.906v-18.39l-5.433-6.058Z" transform="translate(-1038.264 -403.843)" fill="#fff"/>
            <path id="Path_1003430" data-name="Path 1003430" d="M1051.923,426.368h-18.2a1.62,1.62,0,0,1-1.619-1.619v-6.035a.713.713,0,1,1,1.426,0v6.035a.193.193,0,0,0,.193.192h18.2a.193.193,0,0,0,.193-.192V406.633l-5.038-5.618h-13.35a.193.193,0,0,0-.192.192v13.351a.713.713,0,0,1-1.426,0V401.208a1.62,1.62,0,0,1,1.619-1.619h13.987l5.828,6.5V424.75a1.62,1.62,0,0,1-1.619,1.619Z" transform="translate(-1032.109 -399.589)" fill="#2e2e2e"/>
            <path id="Path_1003431" data-name="Path 1003431" d="M1160.8,407.691h-4.965a1.1,1.1,0,0,1-1.095-1.095v-5.569a.713.713,0,1,1,1.426,0v5.237h4.634a.713.713,0,1,1,0,1.426Z" transform="translate(-1140.168 -400.229)" fill="#2e2e2e"/>
            <path id="Path_1003432" data-name="Path 1003432" d="M1068.4,464.384h-7.521a.713.713,0,1,1,0-1.426h7.521a.713.713,0,1,1,0,1.426Z" transform="translate(-1056.834 -455.427)" fill="#2e2e2e"/>
            <path id="Path_1003433" data-name="Path 1003433" d="M1073.84,496.022h-12.954a.713.713,0,1,1,0-1.426h12.954a.713.713,0,0,1,0,1.426Z" transform="translate(-1056.838 -483.305)" fill="#2e2e2e"/>
            <path id="Path_1003434" data-name="Path 1003434" d="M1074.115,524.879h-13.233a.713.713,0,1,1,0-1.426h13.233a.713.713,0,0,1,0,1.426Z" transform="translate(-1056.834 -508.732)" fill="#2e2e2e"/>
          </g>
        </g>
        <g id="Group_1180377" data-name="Group 1180377" transform="translate(69.44 20.414)">
          <g id="Group_1180374" data-name="Group 1180374" transform="translate(0.448 0.448)">
            <path id="Path_1003435" data-name="Path 1003435" d="M805.888,365.215h-13.23a.7.7,0,0,1-.695-.695V350.965a.7.7,0,0,1,.695-.695H816.3a.7.7,0,0,1,.695.695V364.52a.7.7,0,0,1-.695.695Z" transform="translate(-791.844 -350.151)" fill="#4671f0"/>
            <path id="Path_1003436" data-name="Path 1003436" d="M815.42,364.454H791.777a.815.815,0,0,1-.814-.814V350.085a.815.815,0,0,1,.814-.814H815.42a.815.815,0,0,1,.814.814V363.64A.815.815,0,0,1,815.42,364.454Zm-23.643-14.945a.577.577,0,0,0-.576.576V363.64a.577.577,0,0,0,.576.576H815.42a.577.577,0,0,0,.576-.576V350.085a.577.577,0,0,0-.576-.576Z" transform="translate(-790.963 -349.271)" fill="#2e2e2e"/>
          </g>
          <path id="Path_1003437" data-name="Path 1003437" d="M793.855,353.377a.7.7,0,0,1,.695-.695h23.433v-.009a.7.7,0,0,0-.695-.695H793.645a.7.7,0,0,0-.695.695v13.555a.7.7,0,0,0,.695.695h.21Z" transform="translate(-792.266 -351.208)" fill="#fff"/>
          <g id="Group_1180375" data-name="Group 1180375">
            <path id="Path_1003438" data-name="Path 1003438" d="M812.977,362.34H789.334a1.144,1.144,0,0,1-1.143-1.143V347.641a1.144,1.144,0,0,1,1.143-1.143h23.643a1.144,1.144,0,0,1,1.143,1.143V361.2A1.144,1.144,0,0,1,812.977,362.34Zm-23.643-14.945a.247.247,0,0,0-.246.247V361.2a.247.247,0,0,0,.246.247h23.643a.247.247,0,0,0,.246-.247V347.641a.247.247,0,0,0-.246-.247Z" transform="translate(-788.072 -346.379)" fill="#2e2e2e"/>
            <path id="Path_1003439" data-name="Path 1003439" d="M812.1,361.577H788.454a1.263,1.263,0,0,1-1.262-1.262V346.76a1.263,1.263,0,0,1,1.262-1.262H812.1a1.263,1.263,0,0,1,1.262,1.262v13.555A1.263,1.263,0,0,1,812.1,361.577Zm-23.643-15.841a1.025,1.025,0,0,0-1.024,1.024v13.555a1.025,1.025,0,0,0,1.024,1.024H812.1a1.025,1.025,0,0,0,1.024-1.024V346.76a1.025,1.025,0,0,0-1.024-1.024ZM812.1,360.681H788.454a.366.366,0,0,1-.365-.365V346.76a.366.366,0,0,1,.365-.365H812.1a.366.366,0,0,1,.365.365v13.555A.366.366,0,0,1,812.1,360.681Zm-23.643-14.049a.128.128,0,0,0-.128.128v13.555a.128.128,0,0,0,.128.128H812.1a.128.128,0,0,0,.128-.128V346.76a.128.128,0,0,0-.128-.128Z" transform="translate(-787.192 -345.498)" fill="#2e2e2e"/>
          </g>
          <g id="Group_1180376" data-name="Group 1180376" transform="translate(0.335 0.203)">
            <path id="Path_1003440" data-name="Path 1003440" d="M803.576,356.36l-.223-.131c-12.035-7.078-12.162-7.2-12.216-7.259a.448.448,0,0,1,.6-.668c.405.276,7.209,4.292,11.852,7.023l12.2-6.879a.448.448,0,1,1,.44.781l-12.648,7.132Zm-11.838-8.054a.442.442,0,0,1,.034.03A.314.314,0,0,0,791.738,348.306Z" transform="translate(-790.888 -348.086)" fill="#2e2e2e"/>
            <path id="Path_1003441" data-name="Path 1003441" d="M802.7,355.613l-.282-.166c-12.048-7.085-12.172-7.21-12.24-7.277a.567.567,0,0,1,.754-.845c.392.267,7.237,4.307,11.779,6.979l12.138-6.845a.567.567,0,1,1,.557.988L802.7,355.613Zm-12.122-8.173a.327.327,0,0,0-.232.1.33.33,0,0,0,0,.466c.115.114,4.1,2.483,12.192,7.24l.164.1,12.588-7.1a.329.329,0,1,0-.324-.574l-12.258,6.912-.059-.035c-3.849-2.264-11.185-6.59-11.833-7.01l0,0h0l-.024-.022h0a.342.342,0,0,0-.211-.074Z" transform="translate(-790.009 -347.202)" fill="#2e2e2e"/>
          </g>
        </g>
        <g id="photos" transform="translate(26.847 35.608)">
          <rect id="Rectangle_455694" data-name="Rectangle 455694" width="40.601" height="31.716" rx="5.547" transform="translate(0.767 0.766)" fill="#fff"/>
          <path id="Path_1003442" data-name="Path 1003442" d="M468.6,506.591H431.157a2.346,2.346,0,0,1-2.343-2.343V475.685a2.346,2.346,0,0,1,2.343-2.343H468.6a2.346,2.346,0,0,1,2.343,2.343v28.562A2.346,2.346,0,0,1,468.6,506.591Zm-37.448-31.716a.811.811,0,0,0-.81.81v28.562a.811.811,0,0,0,.81.81H468.6a.811.811,0,0,0,.81-.81V475.685a.811.811,0,0,0-.81-.81Z" transform="translate(-428.814 -473.342)" fill="#2e2e2e"/>
          <path id="Path_1003443" data-name="Path 1003443" d="M470.06,584.53a.767.767,0,0,1-.662-.379c-1.842-3.137-5.46-8.2-7.323-8.442-1.3-.164-3.5,1.288-5.454,2.571-2.414,1.588-4.694,3.088-6.422,2.578-1.853-.547-3.471-2.635-5.183-4.847-1.953-2.523-3.974-5.132-6.112-5.132h-.009c-1.959.007-6.384,4.7-8.712,7.662a.767.767,0,0,1-1.2-.948c.663-.843,6.576-8.235,9.912-8.247h.015c2.891,0,5.144,2.911,7.324,5.727,1.488,1.922,3.026,3.908,4.4,4.315,1.046.309,3.224-1.125,5.146-2.388,2.383-1.568,4.634-3.05,6.491-2.81,3.147.4,7.592,7.723,8.451,9.186a.767.767,0,0,1-.66,1.155Z" transform="translate(-428.814 -557.936)" fill="#2e2e2e"/>
        </g>
        <g id="Group_1180381" data-name="Group 1180381" transform="translate(51.915 12.493)">
          <g id="Group_1180378" data-name="Group 1180378" transform="translate(0.448 0.448)">
            <path id="Path_1003444" data-name="Path 1003444" d="M658.43,298.57H645.2a.7.7,0,0,1-.695-.695V284.32a.7.7,0,0,1,.695-.695h23.643a.7.7,0,0,1,.695.695v13.555a.7.7,0,0,1-.695.695Z" transform="translate(-644.386 -283.506)" fill="#4671f0"/>
            <path id="Path_1003445" data-name="Path 1003445" d="M667.962,297.808H644.319a.815.815,0,0,1-.814-.814V283.439a.815.815,0,0,1,.814-.814h23.643a.815.815,0,0,1,.814.814v13.555A.815.815,0,0,1,667.962,297.808Zm-23.643-14.945a.577.577,0,0,0-.576.576v13.555a.577.577,0,0,0,.576.576h23.643a.577.577,0,0,0,.576-.576V283.438a.577.577,0,0,0-.576-.576Z" transform="translate(-643.505 -282.625)" fill="#2e2e2e"/>
          </g>
          <path id="Path_1003446" data-name="Path 1003446" d="M646.4,286.731a.7.7,0,0,1,.695-.695h23.433v-.009a.7.7,0,0,0-.695-.695H646.187a.7.7,0,0,0-.695.695v13.555a.7.7,0,0,0,.695.695h.21Z" transform="translate(-644.807 -284.562)" fill="#fff"/>
          <g id="Group_1180379" data-name="Group 1180379">
            <path id="Path_1003447" data-name="Path 1003447" d="M665.519,295.694H641.876a1.144,1.144,0,0,1-1.143-1.143V281a1.144,1.144,0,0,1,1.143-1.143h23.643A1.144,1.144,0,0,1,666.662,281V294.55A1.144,1.144,0,0,1,665.519,295.694Zm-23.643-14.945a.247.247,0,0,0-.246.246V294.55a.247.247,0,0,0,.246.246h23.643a.247.247,0,0,0,.246-.246V281a.247.247,0,0,0-.246-.246Z" transform="translate(-640.614 -279.733)" fill="#2e2e2e"/>
            <path id="Path_1003448" data-name="Path 1003448" d="M664.638,294.931H640.995a1.263,1.263,0,0,1-1.262-1.262V280.114a1.263,1.263,0,0,1,1.262-1.262h23.643a1.263,1.263,0,0,1,1.262,1.262v13.555A1.263,1.263,0,0,1,664.638,294.931ZM640.995,279.09a1.025,1.025,0,0,0-1.024,1.024v13.555a1.025,1.025,0,0,0,1.024,1.024h23.643a1.025,1.025,0,0,0,1.024-1.024V280.114a1.025,1.025,0,0,0-1.024-1.024Zm23.643,14.945H640.995a.366.366,0,0,1-.365-.365V280.114a.366.366,0,0,1,.365-.365h23.643a.366.366,0,0,1,.365.365v13.555A.366.366,0,0,1,664.638,294.035Zm-23.643-14.049a.128.128,0,0,0-.128.128v13.555a.128.128,0,0,0,.128.128h23.643a.128.128,0,0,0,.128-.128V280.114a.128.128,0,0,0-.128-.128Z" transform="translate(-639.733 -278.852)" fill="#2e2e2e"/>
          </g>
          <g id="Group_1180380" data-name="Group 1180380" transform="translate(0.335 0.203)">
            <path id="Path_1003449" data-name="Path 1003449" d="M656.119,289.713l-.223-.131c-12.035-7.078-12.162-7.2-12.216-7.259a.448.448,0,0,1,.6-.668c.405.276,7.209,4.292,11.852,7.023l12.2-6.879a.448.448,0,0,1,.44.781l-12.648,7.132Zm-11.838-8.054a.418.418,0,0,1,.034.03A.305.305,0,0,0,644.28,281.659Z" transform="translate(-643.43 -281.439)" fill="#2e2e2e"/>
            <path id="Path_1003450" data-name="Path 1003450" d="M655.238,288.968l-.282-.166c-12.047-7.085-12.172-7.21-12.24-7.277a.567.567,0,0,1,.754-.846c.392.267,7.237,4.307,11.779,6.979l12.138-6.845a.567.567,0,0,1,.557.988l-12.707,7.166ZM643.116,280.8a.327.327,0,0,0-.232.1.33.33,0,0,0,0,.466c.115.115,4.1,2.483,12.192,7.24l.164.1,12.588-7.1a.329.329,0,1,0-.324-.574l-12.258,6.912-.059-.035c-3.849-2.264-11.185-6.59-11.833-7.01l0,0h0l-.024-.022h0a.342.342,0,0,0-.211-.074Z" transform="translate(-642.551 -280.556)" fill="#2e2e2e"/>
          </g>
        </g>
        <g id="Group_1180382" data-name="Group 1180382" transform="translate(118.166 154.154)">
          <path id="Path_1003451" data-name="Path 1003451" d="M1198.269,1472.982a1.092,1.092,0,1,1,1.091-1.092A1.092,1.092,0,0,1,1198.269,1472.982Z" transform="translate(-1197.179 -1470.799)" fill="#2e2e2e"/>
          <path id="Path_1003452" data-name="Path 1003452" d="M1296.659,1472.982a1.092,1.092,0,1,1,1.09-1.092A1.092,1.092,0,0,1,1296.659,1472.982Z" transform="translate(-1283.875 -1470.799)" fill="#2e2e2e"/>
          <path id="Path_1003453" data-name="Path 1003453" d="M1395.044,1472.982a1.092,1.092,0,1,1,1.09-1.092A1.092,1.092,0,0,1,1395.044,1472.982Z" transform="translate(-1370.568 -1470.799)" fill="#2e2e2e"/>
          <path id="Path_1003454" data-name="Path 1003454" d="M1198.269,1570.29a1.091,1.091,0,1,1,1.091-1.091A1.092,1.092,0,0,1,1198.269,1570.29Z" transform="translate(-1197.179 -1556.543)" fill="#2e2e2e"/>
          <path id="Path_1003455" data-name="Path 1003455" d="M1296.659,1570.29a1.091,1.091,0,1,1,1.09-1.091A1.092,1.092,0,0,1,1296.659,1570.29Z" transform="translate(-1283.875 -1556.543)" fill="#2e2e2e"/>
          <path id="Path_1003456" data-name="Path 1003456" d="M1395.044,1570.29a1.091,1.091,0,1,1,1.09-1.091A1.092,1.092,0,0,1,1395.044,1570.29Z" transform="translate(-1370.568 -1556.543)" fill="#2e2e2e"/>
          <path id="Path_1003457" data-name="Path 1003457" d="M1198.269,1667.742a1.092,1.092,0,1,1,1.091-1.092A1.092,1.092,0,0,1,1198.269,1667.742Z" transform="translate(-1197.179 -1642.412)" fill="#2e2e2e"/>
          <path id="Path_1003458" data-name="Path 1003458" d="M1296.659,1667.742a1.092,1.092,0,1,1,1.09-1.092A1.092,1.092,0,0,1,1296.659,1667.742Z" transform="translate(-1283.875 -1642.412)" fill="#2e2e2e"/>
          <path id="Path_1003459" data-name="Path 1003459" d="M1395.044,1667.742a1.092,1.092,0,1,1,1.09-1.092A1.092,1.092,0,0,1,1395.044,1667.742Z" transform="translate(-1370.568 -1642.412)" fill="#2e2e2e"/>
        </g>
        <g id="Group_1180383" data-name="Group 1180383" transform="translate(50.469 39.519)">
          <path id="Path_1003460" data-name="Path 1003460" d="M645.087,516.9a2.664,2.664,0,0,1-2.661,2.661c-.533,0-6.126-.036-6.626-.036a2.229,2.229,0,1,1,0-4.458,1.939,1.939,0,0,1,.289.02,3.578,3.578,0,0,1,6.719-.82,2.662,2.662,0,0,1,2.279,2.632Z" transform="translate(-632.858 -511.539)" fill="#fff"/>
          <path id="Path_1003461" data-name="Path 1003461" d="M637.139,514.985c-.273,0-1.864-.009-3.4-.018-1.464-.009-2.979-.017-3.223-.017a2.942,2.942,0,0,1-.244-5.874,4.29,4.29,0,0,1,7.718-.729,3.373,3.373,0,0,1-.849,6.639Zm-6.626-4.494a1.516,1.516,0,1,0,0,3.032c.248,0,1.7.008,3.231.017s3.126.018,3.4.018a1.947,1.947,0,0,0,.28-3.874l-.374-.053-.166-.34a2.865,2.865,0,0,0-5.38.655l-.139.656-.664-.1a1.229,1.229,0,0,0-.183-.012Z" transform="translate(-627.57 -506.251)" fill="#231f20"/>
        </g>
        <path id="Path_1003462" data-name="Path 1003462" d="M585.266,1340.488a.594.594,0,0,1-.053-1.186,11.847,11.847,0,0,0,1.892-.333.594.594,0,0,1,.3,1.151,13.033,13.033,0,0,1-2.083.366Zm-2.014-.014a.618.618,0,0,1-.065,0,9.573,9.573,0,0,1-2.1-.468.594.594,0,0,1,.389-1.123,8.389,8.389,0,0,0,1.835.409.594.594,0,0,1-.064,1.185Zm-34.788-.119a.594.594,0,0,1-.594-.587c0-.069,0-.137,0-.206a17.4,17.4,0,0,1,.1-1.88.594.594,0,1,1,1.182.129,16.209,16.209,0,0,0-.1,1.751q0,.1,0,.192a.594.594,0,0,1-.587.6h-.007Zm40.707-.852a.594.594,0,0,1-.222-1.146,19.106,19.106,0,0,0,1.775-.827.594.594,0,0,1,.555,1.051,20.249,20.249,0,0,1-1.886.879.6.6,0,0,1-.222.043Zm-9.7-.342a.592.592,0,0,1-.317-.092,10.1,10.1,0,0,1-1.674-1.335.594.594,0,0,1,.834-.847,8.9,8.9,0,0,0,1.477,1.178.594.594,0,0,1-.319,1.1Zm13.273-1.531a.594.594,0,0,1-.321-1.1q.172-.11.346-.225c.44-.291.862-.6,1.254-.906a.594.594,0,1,1,.737.932c-.418.331-.868.656-1.336.965q-.181.12-.361.235a.591.591,0,0,1-.319.094ZM576.6,1336.36a.593.593,0,0,1-.488-.254,13.7,13.7,0,0,1-1.067-1.82.594.594,0,0,1,1.068-.522,12.516,12.516,0,0,0,.974,1.662.594.594,0,0,1-.487.934Zm-27.7-.01a.594.594,0,0,1-.58-.726,19.578,19.578,0,0,1,.57-2,.594.594,0,0,1,1.124.385,18.352,18.352,0,0,0-.535,1.88.594.594,0,0,1-.579.463Zm47-1.235a.594.594,0,0,1-.425-1.009,12.389,12.389,0,0,0,1.236-1.476.594.594,0,0,1,.969.688,13.594,13.594,0,0,1-1.355,1.618A.593.593,0,0,1,595.895,1335.116Zm-21.08-2.366a.594.594,0,0,1-.563-.406,18.248,18.248,0,0,1-.546-2.015.594.594,0,1,1,1.163-.246,17.049,17.049,0,0,0,.51,1.883.595.595,0,0,1-.564.783Zm-24.619-.214a.594.594,0,0,1-.54-.841c.282-.617.6-1.237.947-1.844a.594.594,0,0,1,1.032.589c-.329.576-.631,1.164-.9,1.748a.594.594,0,0,1-.541.347Zm48.008-.71a.594.594,0,0,1-.539-.843,9.151,9.151,0,0,0,.613-1.791.594.594,0,0,1,1.159.264,10.348,10.348,0,0,1-.692,2.024.594.594,0,0,1-.54.346Zm-46.011-2.8a.594.594,0,0,1-.489-.931c.384-.558.8-1.116,1.234-1.656a.594.594,0,1,1,.925.745c-.416.517-.813,1.049-1.18,1.583a.593.593,0,0,1-.49.258Zm21.78-.224a.594.594,0,0,1-.59-.532c-.071-.679-.11-1.377-.116-2.073a.594.594,0,0,1,1.188-.01c.005.658.042,1.317.11,1.959a.594.594,0,0,1-.529.653.605.605,0,0,1-.063,0Zm25.117-.889h0a.594.594,0,0,1-.59-.6v-.073a9.158,9.158,0,0,0-.184-1.812.594.594,0,1,1,1.165-.236,10.359,10.359,0,0,1,.207,2.047v.081a.594.594,0,0,1-.594.59Zm-44.368-2.034a.594.594,0,0,1-.435-1c.46-.5.949-.987,1.451-1.461a.594.594,0,1,1,.816.865c-.483.456-.953.929-1.4,1.406a.592.592,0,0,1-.435.19Zm19.216-1.112-.05,0a.594.594,0,0,1-.542-.642c.057-.686.147-1.378.267-2.057a.594.594,0,1,1,1.171.206c-.113.644-.2,1.3-.253,1.95a.6.6,0,0,1-.592.545Zm24.37-.789a.6.6,0,0,1-.55-.37,11.568,11.568,0,0,0-.874-1.708.594.594,0,1,1,1.011-.625,12.777,12.777,0,0,1,.963,1.884.595.595,0,0,1-.55.819Zm-40.65-.871a.594.594,0,0,1-.381-1.051c.52-.433,1.064-.86,1.617-1.268a.594.594,0,1,1,.706.956c-.535.395-1.06.807-1.562,1.225a.592.592,0,0,1-.38.138Zm16.979-2.314a.595.595,0,0,1-.574-.75c.181-.668.395-1.333.635-1.975a.594.594,0,0,1,1.113.416c-.227.608-.429,1.237-.6,1.87A.594.594,0,0,1,574.637,1320.8Zm-13.73-.087a.594.594,0,0,1-.326-1.091c.566-.371,1.154-.734,1.746-1.078a.594.594,0,0,1,.6,1.027c-.574.334-1.143.685-1.692,1.045a.592.592,0,0,1-.325.1Zm35.3-.157a.593.593,0,0,1-.455-.211,14.893,14.893,0,0,0-1.347-1.4.594.594,0,1,1,.8-.878,16.109,16.109,0,0,1,1.455,1.51.594.594,0,0,1-.454.977Zm-31.8-1.874a.594.594,0,0,1-.272-1.123c.6-.309,1.223-.609,1.847-.891a.594.594,0,1,1,.49,1.083c-.605.274-1.208.565-1.793.865A.592.592,0,0,1,564.4,1318.678Zm28.832-.849a.592.592,0,0,1-.345-.111,17.7,17.7,0,0,0-1.65-1.045.594.594,0,1,1,.58-1.037,18.915,18.915,0,0,1,1.761,1.116.594.594,0,0,1-.346,1.078Zm-17.181-.813a.595.595,0,0,1-.534-.854c.24-.493.5-.978.775-1.447l-.345.063a.594.594,0,0,1-.218-1.168c.638-.119,1.286-.225,1.93-.316a.6.6,0,0,1,.039-.666,19.605,19.605,0,0,1,1.354-1.581.594.594,0,1,1,.86.82,18.443,18.443,0,0,0-1.272,1.485.253.253,0,0,0-.22.436.594.594,0,0,1-.507.671l-.315.045a.593.593,0,0,1-.069.461c-.339.551-.657,1.129-.943,1.719a.594.594,0,0,1-.535.334Zm-7.97,0a.594.594,0,0,1-.218-1.147c.631-.249,1.278-.485,1.924-.7a.594.594,0,0,1,.382,1.125c-.628.213-1.257.443-1.87.685a.592.592,0,0,1-.218.042Zm21.634-1.156a.594.594,0,0,1-.234-.048c-.594-.255-1.213-.484-1.838-.681A.594.594,0,0,1,588,1314a20.756,20.756,0,0,1,1.95.722.594.594,0,0,1-.235,1.141Zm-17.809-.141a.594.594,0,0,1-.163-1.166c.653-.187,1.32-.361,1.982-.517a.594.594,0,1,1,.273,1.157c-.643.152-1.292.321-1.927.5a.591.591,0,0,1-.164.023Zm13.962-1.071a.6.6,0,0,1-.123-.013c-.635-.134-1.287-.239-1.938-.312a.594.594,0,1,1,.133-1.181c.688.078,1.377.189,2.049.33a.594.594,0,0,1-.122,1.176Zm-6.029-.4a.594.594,0,0,1-.041-1.187c.691-.049,1.39-.067,2.073-.053a.594.594,0,0,1-.012,1.188h-.012c-.648-.013-1.31,0-1.965.05h-.043Zm1.114-3.575a.594.594,0,0,1-.383-1.049,19.187,19.187,0,0,1,1.664-1.253.594.594,0,0,1,.662.987,17.976,17.976,0,0,0-1.56,1.175.591.591,0,0,1-.383.14Zm3.346-2.246a.594.594,0,0,1-.277-1.121,20.216,20.216,0,0,1,1.889-.869.594.594,0,1,1,.44,1.1,18.9,18.9,0,0,0-1.777.817.592.592,0,0,1-.276.068Zm3.741-1.5a.594.594,0,0,1-.165-1.165c.652-.189,1.33-.351,2.015-.483a.594.594,0,1,1,.225,1.167c-.649.125-1.292.279-1.91.458a.6.6,0,0,1-.165.024Zm16.056-.445a.594.594,0,0,1,0-1.188c.67,0,1.341-.023,1.995-.055a.594.594,0,1,1,.058,1.187c-.67.033-1.358.052-2.045.056Zm-2.02-.027h-.02c-.675-.022-1.362-.059-2.041-.108a.594.594,0,1,1,.086-1.185c.664.048,1.335.084,1.994.106a.594.594,0,0,1-.019,1.188Zm6.055-.173a.594.594,0,0,1-.056-1.186c.673-.064,1.337-.145,1.975-.24a.594.594,0,1,1,.175,1.176c-.659.1-1.344.181-2.037.248l-.057,0Zm-10.084-.118-.059,0c-.667-.066-1.332-.112-1.979-.135a.594.594,0,0,1,.044-1.188c.671.025,1.361.072,2.052.141a.594.594,0,0,1-.058,1.186Zm-6.05-.006a.594.594,0,0,1-.063-1.185c.67-.072,1.363-.12,2.058-.142a.594.594,0,1,1,.037,1.188c-.666.021-1.328.067-1.968.135a.572.572,0,0,1-.064,0Zm20.129-.477A.594.594,0,0,1,612,1304.5c.667-.141,1.312-.3,1.918-.478a.594.594,0,0,1,.332,1.141c-.634.184-1.308.352-2,.5A.6.6,0,0,1,612.126,1305.681Zm3.873-1.14a.594.594,0,0,1-.22-1.146,14.882,14.882,0,0,0,1.756-.828.594.594,0,1,1,.58,1.037,16.049,16.049,0,0,1-1.9.895.592.592,0,0,1-.22.042Zm3.489-2a.594.594,0,0,1-.385-1.047,6.336,6.336,0,0,0,1.228-1.367.594.594,0,0,1,1,.647,7.515,7.515,0,0,1-1.456,1.627.592.592,0,0,1-.384.141Zm2.1-3.353a.605.605,0,0,1-.111-.01.594.594,0,0,1-.474-.694,4.588,4.588,0,0,0,.078-.843.594.594,0,0,1,.594-.594h0a.594.594,0,0,1,.594.595,5.777,5.777,0,0,1-.1,1.062.594.594,0,0,1-.583.484Z" transform="translate(-506.871 -1163.543)" fill="#2e2e2e"/>
      </g>
      <g id="person_1" transform="translate(52.794 20.828)">
        <g id="character" transform="translate(3.617)">
          <path id="Path_1003463" data-name="Path 1003463" d="M977.048,927.587s-.742-2.267-4.044-3.688a51.916,51.916,0,0,1-5.184-2.521l8.877-.284s7.549.084,8.107,0a2.077,2.077,0,0,0,1.481-.888l24.787,13.211,9.674-8.185,10.08-8.987,10.037-9.6,4.19-2.876-.569,2.833,5.4.051s5.115-4.233,8.666-5.334,7.5-2.287,9.162-2.286c1.137,0,6.8,1.1,9.684,3.428,2.034,2.87,4.768,10.221,5.692,13.274s1.775,18.2,1.7,22.79-2.88,21.06-2.88,21.06l-1.239,13.96s3.693,21.093,3.658,22.478c-.284.142-53.438-.653-53.438-.653l1.592-19.339-1.454-13.814s-6.427,2.132-7.777,2.273-16.515-4.5-19.836-5.9S970.057,942.2,970.057,942.2l6.99-14.614Z" transform="translate(-933.322 -832.506)" fill="#4671f0"/>
          <path id="Path_1003464" data-name="Path 1003464" d="M1502.557,1421.59c.187,2.248.315,3.718.315,3.718l.815,10.831-1.348,19.72h1.527s1.545-14.615,1.6-19.508a146.882,146.882,0,0,0-1.165-15.153l-1.747.392Z" transform="translate(-1404.316 -1292.616)" fill="#fff"/>
          <path id="Path_1003465" data-name="Path 1003465" d="M1501.561,984.868a12.762,12.762,0,0,1,.845-2.314c2.317-7.7,9.628-17.165,12.131-19.668a3.708,3.708,0,0,0-1.452-.284l-.84.358s-4.609,5.447-6.453,8.294-4.233,6.886-5,9.6a28.732,28.732,0,0,0-.642,3.829l1.412.189Z" transform="translate(-1402.386 -888.523)" fill="#fff"/>
          <path id="Path_1003466" data-name="Path 1003466" d="M1105.5,958.607c.216.355,27.243,14.763,27.243,14.763l28.093-24.6,5.372-6.9-.265-.519-33.729,29.5-24.37-13.618-2.343,1.371Z" transform="translate(-1054.638 -869.797)" fill="#fff"/>
          <path id="Path_1003467" data-name="Path 1003467" d="M1049.68,1031.514l6.285,2.983,36.114,10.209s25.319-22.009,26.657-23.364a47.329,47.329,0,0,0,4.183-5.079l-31.709,25.82-34.854-9.382-6.676-2.837v1.651Z" transform="translate(-1005.454 -935.806)" fill="#fff"/>
          <path id="Path_1003468" data-name="Path 1003468" d="M1690.891,354.762c-4.239-1.823-4.51-6.469-9.184-8.3-4.55-1.781-10.413.717-12.969,7.321q-.859-.872-1.847-1.723c-10.322-8.867-32.1-6.909-32.52,1.714-.341,7.07,10.95,12.094,17.678,12.631-.468,2.338-1.937,7.733,3.219,9.315l.286,10.9s.258,5.962,2.61,7.966c6.909-1.848,12.723-7.484,15.481-14.888,2.483-6.665,3.309-15.35-2.574-23.21l.868.739c2.927-3.458,6.562-.822,8.026,1.652,4.557,7.7,1.4,10.963,7.92,19.18s21.889,4.967,22.273-10.194-15.026-11.281-19.265-13.1Z" transform="translate(-1520.648 -345.121)" fill="url(#linear-gradient)"/>
          <g id="Group_1180384" data-name="Group 1180384" transform="translate(114.083 0.63)">
            <path id="Path_1003469" data-name="Path 1003469" d="M1638.93,360.452c.4-8.2,20.122-10.374,30.93-2.935-10.375-8.736-31.971-6.76-32.385,1.827-.154,3.19,2.06,5.963,5.155,8.1C1640.323,365.487,1638.8,363.115,1638.93,360.452Z" transform="translate(-1637.468 -350.994)" fill="#fff"/>
            <path id="Path_1003470" data-name="Path 1003470" d="M1926.191,353.585c2.557-6.6,8.419-9.1,12.969-7.321a8.381,8.381,0,0,1,1.272.625,8.34,8.34,0,0,0-2.726-1.734c-4.5-1.763-10.291.669-12.887,7.122Q1925.542,352.925,1926.191,353.585Z" transform="translate(-1890.667 -344.598)" fill="#fff"/>
          </g>
          <path id="Path_1003471" data-name="Path 1003471" d="M1576.234,451.313a47.312,47.312,0,0,1-1.87,5.178c-.61,1.078-2.128,6.565-3.35,7.625a16.762,16.762,0,0,1-2.806,2.28c-.7.312-2.344,1.221-1.562,2.649s3.424,2.928,3.424,2.928-.892,6.527-.351,8.462,2.982,5.987,5.372,7.208a28.182,28.182,0,0,0,4.7,1.861,35.282,35.282,0,0,1,0,6.425,51.6,51.6,0,0,1-2.1,7.611,39.5,39.5,0,0,1-3.524,4.455c-.038.048-2.036,3.467-2.036,3.467l5.561.234s5.92-4.286,7.894-5.585,6.946-2.873,9.3-2.26,5.685,1.507,5.749,1.533,2.717.966,2.717.966l-2.666-3.957s-1.7-5.086-1.774-7.71-.1-6.286-.13-6.364-.116-.951-.116-.951a6.765,6.765,0,0,1-2.4-4.011,9.4,9.4,0,0,1-.056-3.917s5.232-.847,5.194-3.407-.22-3.556-.824-4.765-1.409-2.385-2.759-2.486-3.4-.256-3.4-.256a15.879,15.879,0,0,1-2.234-2.805,7.537,7.537,0,0,1-.611-4.055,9.265,9.265,0,0,0,0-2.454,72.19,72.19,0,0,1-7.391-2.4,22.433,22.433,0,0,1-4.788-2.73c-.515-.395-3.161-2.773-3.161-2.773Z" transform="translate(-1460.798 -438)" fill="#fff"/>
          <path id="Path_1003472" data-name="Path 1003472" d="M1601.007,634.944a23.828,23.828,0,0,1-3.63-.272,14.966,14.966,0,0,1-9.333-4.746c-2.29-2.627-2.693-6.409-1.437-13.486a.713.713,0,0,1,1.4.249c-1.17,6.594-.859,10.043,1.108,12.3,5.394,6.19,15.472,4.3,16.6,4.066a.713.713,0,1,1,.291,1.4,25.215,25.215,0,0,1-5.006.493Z" transform="translate(-1477.951 -582.982)" fill="#2e2e2e"/>
          <path id="Path_1003473" data-name="Path 1003473" d="M1788.144,604.379a6.13,6.13,0,0,1-.965-.077,5.987,5.987,0,0,1-2.469-.984.713.713,0,1,1,.808-1.175,4.615,4.615,0,1,0,1.467-8.278.713.713,0,0,1-.354-1.381,6.042,6.042,0,1,1,1.512,11.9Z" transform="translate(-1652.856 -562.226)" fill="#2e2e2e"/>
          <path id="Path_1003474" data-name="Path 1003474" d="M1812.766,617.793a.721.721,0,0,1-.121-.01.713.713,0,0,1-.582-.823,2.01,2.01,0,0,0-.411-1.693,1.985,1.985,0,0,0-1.6-.628.713.713,0,0,1-.04-1.426,3.383,3.383,0,0,1,2.713,1.119,3.453,3.453,0,0,1,.74,2.868.713.713,0,0,1-.7.593Z" transform="translate(-1674.815 -580.657)" fill="#2e2e2e"/>
          <path id="Path_1003475" data-name="Path 1003475" d="M1648.325,541.182c-.3,1.08-.022,2.1.611,2.271s1.388-.561,1.684-1.642.022-2.1-.611-2.271S1648.621,540.1,1648.325,541.182Z" transform="translate(-1532.846 -515.719)" fill="#2e2e2e"/>
          <path id="Path_1003476" data-name="Path 1003476" d="M1647.571,496.693a.712.712,0,0,1-.594-.317,8.2,8.2,0,0,0-6.888-3.328.713.713,0,0,1-.057-1.425,9.691,9.691,0,0,1,8.131,3.961.713.713,0,0,1-.593,1.109Z" transform="translate(-1525.04 -473.513)" fill="#2e2e2e"/>
          <path id="Path_1003477" data-name="Path 1003477" d="M1567.308,463.531a.71.71,0,0,1-.3-.067c-1.964-.913-4.165-2.189-3.75-3.97a4.015,4.015,0,0,1,1.948-2.375c.287-.211.612-.451.967-.736.941-.755,1.369-1.1,2.6-3.805.764-1.678,2.427-7,2.513-7.28.087-.314.586-2.013,1.136-3.47a.713.713,0,1,1,1.334.5c-.531,1.407-1.029,3.1-1.1,3.355l-.007.023c-.072.23-1.763,5.662-2.581,7.458-1.317,2.894-1.872,3.417-3,4.324-.382.307-.72.555-1.018.775-.936.69-1.267.959-1.405,1.551-.062.265.1,1.024,2.962,2.353a.713.713,0,0,1-.3,1.36Z" transform="translate(-1457.95 -429.236)" fill="#2e2e2e"/>
          <path id="Path_1003478" data-name="Path 1003478" d="M1655.825,780.788a.713.713,0,0,1-.647-1.012,33.587,33.587,0,0,0,2.154-13.589.713.713,0,1,1,1.425-.068c.266,5.533-.948,11.359-2.283,14.254a.713.713,0,0,1-.648.414Z" transform="translate(-1538.932 -714.794)" fill="#2e2e2e"/>
          <path id="Path_1003479" data-name="Path 1003479" d="M1618.109,678.663a7.015,7.015,0,0,1-3.222-.72.713.713,0,1,1,.667-1.26,6.1,6.1,0,0,0,5.456-.165.713.713,0,0,1,.764,1.2A7.015,7.015,0,0,1,1618.109,678.663Z" transform="translate(-1503.153 -636.341)" fill="#2e2e2e"/>
          <path id="Path_1003480" data-name="Path 1003480" d="M1492.887,1456.261a.7.7,0,0,1-.073,0,.713.713,0,0,1-.637-.781c.527-5.191,1.324-15.37,1.625-19.657-.176-3.9-.41-6.738-.6-9.024-.156-1.9-.291-3.534-.349-5.212a.713.713,0,0,1,1.425-.05c.057,1.644.191,3.266.346,5.144.19,2.306.426,5.175.6,9.118l0,.041,0,.041c-.3,4.271-1.1,14.521-1.632,19.742a.713.713,0,0,1-.709.641Z" transform="translate(-1395.357 -1292.304)" fill="#2e2e2e"/>
          <path id="Path_1003481" data-name="Path 1003481" d="M1138.551,929.645l-25.58-14.087a.713.713,0,1,1,.688-1.249l24.732,13.62c12.511-10.329,21.673-18.914,29.048-25.825,3.16-2.961,6.144-5.757,8.983-8.311a.713.713,0,0,1,.954,1.06c-2.828,2.544-5.808,5.336-8.962,8.292-7.464,6.994-16.752,15.7-29.49,26.193l-.374.308Z" transform="translate(-1060.898 -827.729)" fill="#2e2e2e"/>
          <path id="Path_1003482" data-name="Path 1003482" d="M1836.779,770.569a.712.712,0,0,1-.578-.294c-1.273-1.753-2.008-2.827-3.145-4.594a2.789,2.789,0,0,1-.208-.386c-2.083-4.737-2.089-8.346-2.1-12.523,0-.816,0-1.661-.019-2.541a.713.713,0,0,1,1.426-.027c.017.893.018,1.743.02,2.566.006,4.183.011,7.487,1.974,11.951a1.382,1.382,0,0,0,.1.189c1.134,1.763,1.829,2.778,3.1,4.528a.713.713,0,0,1-.576,1.132Z" transform="translate(-1693.681 -700.751)" fill="#2e2e2e"/>
          <path id="Path_1003483" data-name="Path 1003483" d="M1491.026,917.047a.72.72,0,0,1-.125-.011.713.713,0,0,1-.578-.826c1.577-8.93,6.613-15.087,12.444-22.216,2.352-2.875,4.783-5.848,7.142-9.2a.713.713,0,0,1,1.167.82c-2.389,3.4-4.837,6.391-7.2,9.286-5.7,6.975-10.631,13-12.144,21.561a.713.713,0,0,1-.7.589Z" transform="translate(-1393.718 -819.692)" fill="#2e2e2e"/>
          <path id="Path_1003484" data-name="Path 1003484" d="M1040.175,1168.608a.713.713,0,0,1-.645-1.017l7.756-16.456a.713.713,0,0,1,1.29.608l-7.756,16.456A.713.713,0,0,1,1040.175,1168.608Z" transform="translate(-996.451 -1054.289)" fill="#2e2e2e"/>
          <path id="Path_1003485" data-name="Path 1003485" d="M1641.051,989.8a.713.713,0,0,1-.707-.624c-.467-3.7-1.4-8.563-2.229-12.85-.773-4.014-1.441-7.48-1.617-9.38l0-.053,0-.053c.52-9.285,1.448-15.846,2.267-21.635a126.648,126.648,0,0,0,1.541-15.38c.346-14.359-2.286-26.133-7.613-34.061-6.806-5.13-16.36-3.359-25.584,4.75l-.19.167-.252.01c-2.065.083-6.371-.065-6.554-.071a.713.713,0,0,1,.049-1.425c.042,0,4.1.14,6.2.08,4.865-4.229,9.971-6.852,14.778-7.588a16.082,16.082,0,0,1,12.514,3.015l.092.07.065.1a43.815,43.815,0,0,1,6.05,14.592,81.153,81.153,0,0,1,1.873,20.4,127.73,127.73,0,0,1-1.554,15.545c-.813,5.749-1.735,12.265-2.253,21.461.177,1.843.834,5.25,1.593,9.189.83,4.308,1.771,9.192,2.244,12.941a.713.713,0,0,1-.618.8.729.729,0,0,1-.09.006Z" transform="translate(-1489.861 -825.839)" fill="#2e2e2e"/>
          <path id="Path_1003486" data-name="Path 1003486" d="M1652.713,392.89l-.285-.243c-2.56-2.18-2.849-8.221-2.861-8.478a.713.713,0,0,1,1.425-.062c.065,1.491.571,5.527,2.1,7.2,6.516-1.89,11.96-7.222,14.611-14.34,2.732-7.334,3.814-17.944-6.55-26.847-7.054-6.06-19.746-6.937-26.725-3.933-2.036.876-4.49,2.48-4.618,5.141-.1,2.1,1.492,4.494,4.486,6.748,5.046,3.8,12.556,6.084,16.071,4.887a.713.713,0,1,1,.46,1.35c-4.374,1.489-12.523-1.434-17.389-5.1-2.393-1.8-5.212-4.645-5.052-7.956.128-2.65,2.074-4.916,5.479-6.382a28.292,28.292,0,0,1,14.051-1.535c5.659.686,10.69,2.708,14.167,5.7,4.819,4.14,7.712,9.049,8.6,14.591a27.137,27.137,0,0,1-1.64,13.835c-2.865,7.69-8.833,13.42-15.965,15.328l-.362.1Z" transform="translate(-1515.375 -342.638)" fill="#2e2e2e"/>
          <path id="Path_1003487" data-name="Path 1003487" d="M1774.722,525.1a.709.709,0,0,1-.4-.123c-2.477-1.681-4.976-4.831-2.811-10.3a.713.713,0,1,1,1.326.525c-1.458,3.682-.689,6.573,2.286,8.591a.713.713,0,0,1-.4,1.3Z" transform="translate(-1640.77 -493.438)" fill="#2e2e2e"/>
          <path id="Path_1003488" data-name="Path 1003488" d="M1947.81,377.339a12.52,12.52,0,0,1-9.833-4.663,22.494,22.494,0,0,1-5.044-11.094,23.278,23.278,0,0,0-2.931-8.166,5.833,5.833,0,0,0-4-2.951,3.349,3.349,0,0,0-2.866,1.4.713.713,0,0,1-1.089-.922,4.7,4.7,0,0,1,4.074-1.9c2.294.194,4.186,2.085,5.109,3.646a24.488,24.488,0,0,1,3.1,8.61,21.027,21.027,0,0,0,4.764,10.49,11.277,11.277,0,0,0,12.415,3.519c5.21-1.743,8.42-6.71,8.587-13.288.121-4.79-1.361-7.975-4.531-9.736-2.781-1.545-6.451-1.778-9.4-1.966a16.638,16.638,0,0,1-4.9-.729,11.116,11.116,0,0,1-4.6-4.214c-1.2-1.648-2.337-3.2-4.561-4.075a8.112,8.112,0,0,0-6.4.162,10.911,10.911,0,0,0-5.487,6.674.713.713,0,0,1-1.347-.468c1.584-4.555,4.266-6.593,6.238-7.5a9.526,9.526,0,0,1,7.52-.195c2.611,1.022,3.924,2.822,5.194,4.562a9.85,9.85,0,0,0,4.012,3.745,16.155,16.155,0,0,0,4.43.616c3.092.2,6.94.441,10,2.142a9.5,9.5,0,0,1,3.884,3.936,14.411,14.411,0,0,1,1.38,7.083,17.143,17.143,0,0,1-2.937,9.654,13.16,13.16,0,0,1-10.774,5.628Z" transform="translate(-1771.3 -339.294)" fill="#2e2e2e"/>
          <path id="Path_1003489" data-name="Path 1003489" d="M687.767,1032.22a53.528,53.528,0,0,0,6.62,1.422c2.564.344,10.636,3.758,13.411,5.073,1.354.641,14.679,8.046,15.3,9.238l5.684-12.586c-3.827-4.642-9.547-5.108-14.911-8.012-5.241-2.838-4.726-2.491-8.464-5.372-2.9-2.234-4.862.151-4.108,1.92.942,2.213,2.076,3.013,4.01,4.913-3.366-.294-7.865-.293-9.514-.35a73.338,73.338,0,0,0-7.866.022c-2.545.248-2.775,2.956-.164,3.733Z" transform="translate(-684.92 -940.048)" fill="#fff"/>
          <path id="Path_1003490" data-name="Path 1003490" d="M834.462,1032.891a.71.71,0,0,1-.529-.234c-3.107-3.431-5.852-4.419-8.758-5.466a32.229,32.229,0,0,1-4.659-1.975c-.944-.511-1.779-.96-2.54-1.37-3.06-1.646-4.906-2.639-7.788-4.406-1.058-.649-2.04-.735-2.625-.229a1.05,1.05,0,0,0-.3,1.223c.691,1.622,3.705,4.975,8.959,9.965.241.229.423.4.531.507a.713.713,0,1,1-1,1.022c-.106-.1-.283-.272-.518-.495-3.491-3.316-8.253-8.005-9.29-10.44a2.485,2.485,0,0,1,.681-2.861c1.08-.931,2.688-.9,4.3.094,2.847,1.746,4.681,2.732,7.718,4.366.762.41,1.6.859,2.543,1.371a31.055,31.055,0,0,0,4.463,1.887,20.135,20.135,0,0,1,9.332,5.85.713.713,0,0,1-.528,1.192Z" transform="translate(-790.518 -936.858)" fill="#2e2e2e"/>
          <path id="Path_1003491" data-name="Path 1003491" d="M715.141,1097.442a.708.708,0,0,1-.361-.1c-.967-.57-1.837-1.085-2.647-1.564-4.194-2.481-6.725-3.979-12.764-7.275-2.816-1.537-9.6-4.629-12.522-5.058a60.981,60.981,0,0,1-6.925-1.472,2.873,2.873,0,0,1-2.343-3.056,2.508,2.508,0,0,1,2.7-2.077c.58,0,1.58-.012,2.846-.026,4.225-.049,11.3-.13,13.931.1a.713.713,0,0,1-.125,1.421c-2.564-.226-9.591-.145-13.79-.1-1.271.015-2.275.026-2.863.026-.732,0-1.213.315-1.285.843s.309,1.212,1.311,1.49a59.387,59.387,0,0,0,6.751,1.435c3.35.492,10.557,3.885,13,5.217,6.061,3.308,8.6,4.81,12.807,7.3.809.479,1.678.993,2.644,1.563a.713.713,0,0,1-.363,1.328Z" transform="translate(-677.558 -989.115)" fill="#2e2e2e"/>
          <path id="Path_1003492" data-name="Path 1003492" d="M1031.871,1060.21h-.038c-14.343-.674-51.42-20.734-53.961-22.54l-.508-.361,8.721-16.58,7.367,3.263,33.872,9.019c12.451-10.005,27.275-22.61,30.884-25.965a.713.713,0,0,1,.971,1.045c-3.651,3.394-18.712,16.2-31.243,26.259l-.281.226-34.678-9.233-6.25-2.768-7.505,14.269c2.416,1.473,11.308,6.321,21.944,11.285,10.011,4.672,23.466,10.312,30.726,10.658.72-.028,7.391-1.952,17.14-7.132A131.188,131.188,0,0,0,1081.9,1026.8a.713.713,0,1,1,1.031.985,132.591,132.591,0,0,1-33.448,25.243c-9.08,4.8-16.372,7.183-17.61,7.183Z" transform="translate(-941.732 -927.515)" fill="#2e2e2e"/>
        </g>
        <g id="photos-2" data-name="photos" transform="translate(24.648 58.038)">
          <rect id="Rectangle_455695" data-name="Rectangle 455695" width="39.97" height="31.223" rx="5.547" transform="translate(0.755 0.755)" fill="#fff"/>
          <path id="Path_1003493" data-name="Path 1003493" d="M893.689,860.368H856.823a2.31,2.31,0,0,1-2.307-2.307V829.942a2.309,2.309,0,0,1,2.307-2.307h36.866A2.309,2.309,0,0,1,896,829.942v28.119A2.31,2.31,0,0,1,893.689,860.368Zm-36.866-31.223a.8.8,0,0,0-.8.8V858.06a.8.8,0,0,0,.8.8h36.866a.8.8,0,0,0,.8-.8V829.942a.8.8,0,0,0-.8-.8Z" transform="translate(-854.516 -827.635)" fill="#2e2e2e"/>
          <path id="Path_1003494" data-name="Path 1003494" d="M895.128,937.094a.754.754,0,0,1-.651-.373c-1.814-3.088-5.375-8.076-7.21-8.311-1.277-.161-3.45,1.268-5.369,2.531-2.376,1.563-4.621,3.04-6.322,2.538-1.825-.538-3.417-2.594-5.1-4.772-1.923-2.484-3.912-5.052-6.017-5.052h-.009c-1.928.007-6.284,4.63-8.577,7.543a.755.755,0,0,1-1.186-.933c.653-.83,6.474-8.107,9.758-8.119h.015c2.846,0,5.064,2.866,7.21,5.638,1.465,1.892,2.979,3.848,4.336,4.248,1.029.3,3.174-1.107,5.066-2.351,2.346-1.543,4.562-3,6.391-2.767,3.1.4,7.474,7.6,8.319,9.043a.755.755,0,0,1-.65,1.137Z" transform="translate(-854.522 -910.914)" fill="#2e2e2e"/>
        </g>
        <g id="document" transform="translate(0 45.586)">
          <path id="Path_1003495" data-name="Path 1003495" d="M659.659,844.416c-.338.169-5.5,3.572-5.5,3.572l.177,26.33h44.375l-.479-26.885-5.089-2.945-.274,7.117-16.5,11.384-16.391-11.308-.216-1.472-.1-5.793Z" transform="translate(-653.327 -829.969)" fill="#4671f0"/>
          <path id="Path_1003496" data-name="Path 1003496" d="M659.423,847.736s2.379-1.745,4.012-2.8l-.039-2.183c-.338.169-5.5,3.572-5.5,3.572l-.26,26.216,1.827.113-.043-24.915Z" transform="translate(-656.391 -828.5)" fill="#fff"/>
          <path id="Path_1003497" data-name="Path 1003497" d="M734.662,750.488v-20.6H701.279v20.6l16.249,11.586Z" transform="translate(-694.843 -729.054)" fill="#fff"/>
          <path id="Path_1003498" data-name="Path 1003498" d="M692.2,893.077H648.14a1.014,1.014,0,0,1-1.013-1.013V865.769a1.014,1.014,0,0,1,1.013-1.013.836.836,0,0,1,.659,1.351v25.3h42.742v-25.3a.836.836,0,0,1,.659-1.35,1.014,1.014,0,0,1,1.013,1.013v26.295A1.014,1.014,0,0,1,692.2,893.077Zm0-26.649h0Z" transform="translate(-647.127 -847.892)" fill="#2e2e2e"/>
          <path id="Path_1003499" data-name="Path 1003499" d="M983.766,840.28a.831.831,0,0,1-.474-.148l-5.112-3.527a.836.836,0,1,1,.949-1.377l5.112,3.527a.836.836,0,0,1-.475,1.524Z" transform="translate(-938.516 -821.744)" fill="#2e2e2e"/>
          <path id="Path_1003500" data-name="Path 1003500" d="M647.964,837.789a.836.836,0,0,1-.476-1.524l5.6-3.863a.836.836,0,1,1,.949,1.377l-5.6,3.863a.831.831,0,0,1-.474.148Z" transform="translate(-647.127 -819.253)" fill="#2e2e2e"/>
          <path id="Path_1003501" data-name="Path 1003501" d="M670.172,881.926,647.49,866.279a.836.836,0,0,1,.949-1.376L670.172,879.9,691.9,864.9a.836.836,0,0,1,.949,1.376l-22.682,15.648Z" transform="translate(-647.128 -847.89)" fill="#2e2e2e"/>
          <path id="Path_1003502" data-name="Path 1003502" d="M728.463,745.127a.836.836,0,0,1-.836-.836V724.529H695.916v19.762a.836.836,0,1,1-1.672,0V722.857H729.3v21.434A.836.836,0,0,1,728.463,745.127Z" transform="translate(-688.644 -722.857)" fill="#2e2e2e"/>
          <path id="Path_1003503" data-name="Path 1003503" d="M760.837,772.708h-23.3a.836.836,0,1,1,0-1.672h23.3a.836.836,0,1,1,0,1.672Z" transform="translate(-726.054 -765.31)" fill="#2e2e2e"/>
          <path id="Path_1003504" data-name="Path 1003504" d="M871.178,818.473h-8.419a.836.836,0,1,1,0-1.672h8.419a.836.836,0,1,1,0,1.672Z" transform="translate(-836.395 -805.636)" fill="#2e2e2e"/>
          <path id="Path_1003505" data-name="Path 1003505" d="M747.815,818.473H737.536a.836.836,0,1,1,0-1.672h10.279a.836.836,0,1,1,0,1.672Z" transform="translate(-726.054 -805.636)" fill="#2e2e2e"/>
          <path id="Path_1003506" data-name="Path 1003506" d="M760.837,864.238h-23.3a.836.836,0,1,1,0-1.672h23.3a.836.836,0,1,1,0,1.672Z" transform="translate(-726.054 -845.962)" fill="#2e2e2e"/>
          <path id="Path_1003507" data-name="Path 1003507" d="M753.855,910H737.536a.836.836,0,1,1,0-1.672h16.319a.836.836,0,1,1,0,1.672Z" transform="translate(-726.054 -886.288)" fill="#2e2e2e"/>
        </g>
        <g id="Group_1180385" data-name="Group 1180385" transform="translate(49.089 62.814)">
          <path id="Path_1003508" data-name="Path 1003508" d="M1075.619,877.624a2.185,2.185,0,0,1-2.182,2.182c-.437,0-5.024-.029-5.435-.029a1.828,1.828,0,1,1,0-3.656,1.6,1.6,0,0,1,.237.016,2.935,2.935,0,0,1,5.511-.672,2.184,2.184,0,0,1,1.87,2.159Z" transform="translate(-1065.459 -873.1)" fill="#fff"/>
          <path id="Path_1003509" data-name="Path 1003509" d="M1068.141,875.234c-.224,0-1.53-.008-2.792-.015-1.23-.007-2.441-.014-2.642-.014a2.541,2.541,0,0,1-.291-5.066,3.647,3.647,0,0,1,6.505-.588,2.9,2.9,0,0,1-.779,5.683Zm-5.434-3.686a1.115,1.115,0,1,0,0,2.23c.2,0,1.417.007,2.651.014,1.26.007,2.564.015,2.784.015a1.469,1.469,0,0,0,.212-2.922l-.374-.053-.166-.34a2.222,2.222,0,0,0-4.172.508l-.139.657-.664-.1A.893.893,0,0,0,1062.708,871.548Z" transform="translate(-1060.165 -867.814)" fill="#231f20"/>
        </g>
      </g>
      <g id="table" transform="translate(28.056 183.813)">
        <path id="Path_1003510" data-name="Path 1003510" d="M546.942,1712.119c-35.823,0-71.655-.008-107.245-.024a.713.713,0,0,1,0-1.426h0c71.179.032,143.326.032,214.437,0a.713.713,0,1,1,0,1.426c-35.556.016-71.371.024-107.194.024Z" transform="translate(-438.985 -1710.669)" fill="#2e2e2e"/>
      </g>
    </g>
  </g>
</svg>
