<svg xmlns="http://www.w3.org/2000/svg" width="96" height="96" viewBox="0 0 96 96">
  <g id="img46" transform="translate(-794.039 -2920.08)">
    <path id="Elipse_5729" data-name="Elipse 5729" d="M48,0A48,48,0,1,1,0,48,48,48,0,0,1,48,0Z" transform="translate(794.039 2920.081)" fill="#ff9a1a"/>
    <g id="Group_1180462" data-name="Group 1180462" transform="translate(793.527 2940.268)">
      <g id="Group_1180461" data-name="Group 1180461" transform="translate(23.222 0)">
        <path id="Path_1004027" data-name="Path 1004027" d="M222.011,426.678a1.41,1.41,0,0,0,1.991,0l3.191-3.191a.815.815,0,1,0-1.152-1.152l-3.034,3.034-2.03-2.03a.815.815,0,0,0-1.152,1.152Z" transform="translate(-198.252 -376.239)" fill="#4c4740"/>
        <path id="Path_1004028" data-name="Path 1004028" d="M201.5,78.471a.815.815,0,0,0-.815-.815h-13.5a.815.815,0,1,0,0,1.63h13.5A.815.815,0,0,0,201.5,78.471Z" transform="translate(-168.646 -69.219)" fill="#4c4740"/>
        <path id="Path_1004029" data-name="Path 1004029" d="M73.546,13.8l-.6-1.041a1.9,1.9,0,0,0-2.6-.7l-2.46,1.42V8.593a3.535,3.535,0,0,0-3.531-3.531H59.451V4.733a1.359,1.359,0,0,0-1.358-1.358H52.622a4.19,4.19,0,0,0-8.22,0H38.931a1.36,1.36,0,0,0-1.358,1.358v.329H32.667a3.535,3.535,0,0,0-3.531,3.531V26.118l-4.963,2.866a1.9,1.9,0,0,0-.7,2.6l.6,1.041a1.889,1.889,0,0,0,1.154.886,1.912,1.912,0,0,0,.5.066,1.89,1.89,0,0,0,.947-.256L29.136,31.9v20.2a3.535,3.535,0,0,0,3.531,3.531h31.69a3.535,3.535,0,0,0,3.531-3.531V19.265L72.85,16.4a1.9,1.9,0,0,0,.7-2.6ZM64.357,6.692a1.9,1.9,0,0,1,1.9,1.9v5.835l-1.746,1.008v-5.1a1.9,1.9,0,0,0-1.9-1.9h-3.16V6.692Zm-33.591,1.9a1.9,1.9,0,0,1,1.9-1.9h4.906V8.437H34.412a1.9,1.9,0,0,0-1.9,1.9V24.17l-1.745,1.007Zm0,43.5V30.956l1.745-1.007v20.4a1.9,1.9,0,0,0,1.9,1.9h4.819A18.117,18.117,0,0,0,42.027,54h-9.36a1.9,1.9,0,0,1-1.9-1.9Zm6.478-13.46h3.976a1.359,1.359,0,0,0,1.358-1.358V33.445a.815.815,0,1,0-1.63,0V37H37.515V27.059l3.432-1.982v4.457a.815.815,0,1,0,1.63,0v-5.4l2.589-1.495V37.276a1.36,1.36,0,0,0,1.358,1.358H50.5a1.359,1.359,0,0,0,1.358-1.358V28.52l2.589-1.495V37.276A1.359,1.359,0,0,0,55.8,38.635H59.78a1.36,1.36,0,0,0,1.358-1.358V23.162l1.745-1.007V50.349a.272.272,0,0,1-.272.272H59.656q.156-.158.3-.316c1.366-1.463,1.366-2.05,1.366-2.243s0-.78-1.366-2.243c-2.4-2.572-6.669-5.321-11.448-5.321s-9.048,2.749-11.448,5.321C35.7,47.281,35.7,47.868,35.7,48.061s0,.78,1.366,2.243q.147.158.3.316H34.412a.272.272,0,0,1-.272-.272V29.008L35.886,28v9.277a1.359,1.359,0,0,0,1.358,1.358ZM46.8,24.724l1.687,2.922a2.441,2.441,0,0,0,1.745,1.193V37H46.8ZM59.508,24.1V37H56.076V26.085ZM38.255,49.192a6.372,6.372,0,0,1-.886-1.132,6.372,6.372,0,0,1,.886-1.132,16.97,16.97,0,0,1,3.966-3.065,7.551,7.551,0,0,0,0,8.394A16.974,16.974,0,0,1,38.255,49.192Zm16.191-1.132a5.935,5.935,0,1,1-5.935-5.935A5.941,5.941,0,0,1,54.446,48.061Zm.356-4.2a16.972,16.972,0,0,1,3.966,3.065,6.372,6.372,0,0,1,.886,1.132,6.372,6.372,0,0,1-.886,1.132A16.971,16.971,0,0,1,54.8,52.258a7.55,7.55,0,0,0,0-8.394Zm11.456,8.231a1.9,1.9,0,0,1-1.9,1.9H55a18.117,18.117,0,0,0,2.8-1.746h4.819a1.9,1.9,0,0,0,1.9-1.9V21.214l1.746-1.008Zm5.9-37.27a.27.27,0,0,1-.127.165L51.007,27.13a.816.816,0,0,1-1.113-.3l-3.132-5.425a1.357,1.357,0,0,0-1.855-.5l-19.047,11a.272.272,0,0,1-.371-.1l-.6-1.041a.272.272,0,0,1,.1-.371L46.016,18.254a.814.814,0,0,1,1.113.3l3.132,5.425a1.358,1.358,0,0,0,1.855.5l6.351-3.667a.815.815,0,1,0-.815-1.411l-6.116,3.531-3-5.19a2.443,2.443,0,0,0-3.339-.895L34.14,23.229V10.338a.272.272,0,0,1,.272-.272h3.161v.873a2.447,2.447,0,0,0,2.444,2.444H42.96a.815.815,0,0,0,0-1.63H40.017a.816.816,0,0,1-.815-.815V5h5.674A1.092,1.092,0,0,0,45.959,4a2.56,2.56,0,0,1,5.106,0A1.092,1.092,0,0,0,52.147,5h5.674v5.935a.816.816,0,0,1-.815.815H46.872a.815.815,0,1,0,0,1.63H57.006a2.447,2.447,0,0,0,2.444-2.444v-.873h3.16a.272.272,0,0,1,.272.272v6.039L60.939,17.5a.815.815,0,1,0,.815,1.411l9.409-5.432a.272.272,0,0,1,.371.1l.6,1.041a.271.271,0,0,1,.027.206Z" transform="translate(-23.222 0)" fill="#4c4740"/>
      </g>
      <circle id="Ellipse_13866" data-name="Ellipse 13866" cx="0.815" cy="0.815" r="0.815" transform="translate(47.697 3.375)" fill="#4c4740"/>
    </g>
  </g>
</svg>
