<svg xmlns="http://www.w3.org/2000/svg" xmlns:xlink="http://www.w3.org/1999/xlink" width="292" height="237" viewBox="0 0 292 237">
  <defs>
    <linearGradient id="linear-gradient" x1="-9.428" y1="-0.015" x2="-8.447" y2="1.026" gradientUnits="objectBoundingBox">
      <stop offset="0" stop-color="#484857"/>
      <stop offset="1" stop-color="#2e2e2e"/>
    </linearGradient>
    <linearGradient id="linear-gradient-2" x1="0" y1="0.5" x2="1" y2="0.5" xlink:href="#linear-gradient"/>
  </defs>
  <g id="img4" transform="translate(-1121.711 -608)">
    <rect id="Rectangle_455492" data-name="Rectangle 455492" width="292" height="237" rx="10" transform="translate(1121.711 608)" fill="#faf2df"/>
    <g id="_x32_" transform="translate(1137.523 657.479)">
      <path id="die" d="M2721.8,146.579c41.034,8.8,45.357,30.826,81.215,38.475,33.436,7.133,50.834,24.634,57.659,64.027,3.529,20.37,4.965,59.057-15.165,89.431-8.478,12.794-17.789,19.577-23.5,23.729-7.359.682-129.2.682-175.177,1.032a80.792,80.792,0,0,1-16.156-13.74s-12.685-15.647-20.709-40.515c-14.081-43.64-9.976-97.444,25.063-132.3,14.132-14.06,50.393-37.942,86.771-30.137Z" transform="translate(-2602.406 -175.915)" fill="#e6ecff"/>
      <g id="decor" transform="translate(6.092 30.845)">
        <g id="Group_1180387" data-name="Group 1180387" transform="translate(0 78.685)">
          <path id="Path_1003511" data-name="Path 1003511" d="M2666.2,1130.718l5.319-2.449a.856.856,0,0,1,1.033.257,30.431,30.431,0,0,0,7.155,6.612.855.855,0,0,1,.336,1.01l-2.031,5.5a.86.86,0,0,0,.509,1.1l10.4,3.843a.86.86,0,0,0,1.1-.509l2.031-5.5a.855.855,0,0,1,.912-.549,30.433,30.433,0,0,0,9.736-.372.856.856,0,0,1,.952.476l2.449,5.319a.859.859,0,0,0,1.14.421l10.072-4.637a.86.86,0,0,0,.421-1.141l-2.449-5.319a.856.856,0,0,1,.257-1.033,30.433,30.433,0,0,0,6.612-7.155.855.855,0,0,1,1.01-.336l5.5,2.031a.86.86,0,0,0,1.1-.509l3.843-10.4a.86.86,0,0,0-.509-1.1l-5.5-2.031a.855.855,0,0,1-.549-.912,30.44,30.44,0,0,0-.372-9.736.856.856,0,0,1,.476-.952l5.319-2.449a.86.86,0,0,0,.421-1.141l-4.637-10.072a.86.86,0,0,0-1.141-.421l-5.319,2.449a.856.856,0,0,1-1.033-.257,30.431,30.431,0,0,0-7.155-6.612.855.855,0,0,1-.336-1.01l2.031-5.5a.86.86,0,0,0-.509-1.1l-10.4-3.843a.859.859,0,0,0-1.1.509l-2.031,5.5a.855.855,0,0,1-.912.549,30.433,30.433,0,0,0-9.736.372.856.856,0,0,1-.952-.476l-2.449-5.319a.86.86,0,0,0-1.141-.421l-10.072,4.637a.86.86,0,0,0-.421,1.14l2.449,5.319a.856.856,0,0,1-.257,1.033,30.437,30.437,0,0,0-6.613,7.155.855.855,0,0,1-1.01.336l-5.5-2.031a.86.86,0,0,0-1.1.509l-3.843,10.4a.859.859,0,0,0,.509,1.1l5.5,2.031a.855.855,0,0,1,.549.912,30.424,30.424,0,0,0,.372,9.735.856.856,0,0,1-.476.952l-5.319,2.449a.86.86,0,0,0-.421,1.141l4.637,10.072a.86.86,0,0,0,1.14.421Zm14.528-13.739c-3.814-8.283.315-19.46,8.6-23.273s19.784.676,23.6,8.959-.7,19.005-8.98,22.819S2684.543,1125.262,2680.729,1116.979Z" transform="translate(-2658.946 -1071.924)" fill="#c1c7d6"/>
          <g id="Group_1180386" data-name="Group 1180386" transform="translate(0.369 0.968)">
            <path id="Path_1003512" data-name="Path 1003512" d="M2674.293,1192.67a.856.856,0,0,1-.257,1.033,30.431,30.431,0,0,0-6.612,7.155.855.855,0,0,1-1.01.336l-5.5-2.031a.86.86,0,0,0-1.1.509l-2.925,7.917a.847.847,0,0,1-.068-.716l3.843-10.4a.86.86,0,0,1,1.1-.508l5.5,2.031a.855.855,0,0,0,1.01-.336,30.471,30.471,0,0,1,5.469-6.183l.551,1.2Z" transform="translate(-2656.768 -1177.608)" fill="#fff"/>
            <path id="Path_1003513" data-name="Path 1003513" d="M2829.917,1079.794l-.918,2.484a.846.846,0,0,0-.441-.388l-10.4-3.843a.86.86,0,0,0-1.1.509l-2.031,5.5a.855.855,0,0,1-.912.549,30.431,30.431,0,0,0-9.735.372.856.856,0,0,1-.952-.476l-2.449-5.319a.86.86,0,0,0-1.14-.421l-8.936,4.115-.708-1.537a.86.86,0,0,1,.421-1.141l10.072-4.637a.86.86,0,0,1,1.14.421l2.449,5.319a.856.856,0,0,0,.952.476,30.431,30.431,0,0,1,9.735-.372.855.855,0,0,0,.912-.549l2.031-5.5a.86.86,0,0,1,1.1-.509l10.4,3.843A.86.86,0,0,1,2829.917,1079.794Z" transform="translate(-2774.262 -1074.794)" fill="#fff"/>
            <path id="Path_1003514" data-name="Path 1003514" d="M3115.4,1177.453a.86.86,0,0,0-1.141-.421l-5.319,2.449a.856.856,0,0,1-1.033-.257,30.431,30.431,0,0,0-7.155-6.612.855.855,0,0,1-.336-1.01l.92-2.49a.855.855,0,0,0,.266.3,30.434,30.434,0,0,1,7.155,6.612.856.856,0,0,0,1.033.257l5.319-2.449a.86.86,0,0,1,1.14.421l4.637,10.072a.86.86,0,0,1-.421,1.141l-1.136.523Z" transform="translate(-3047.644 -1157.902)" fill="#fff"/>
          </g>
          <path id="Path_1003515" data-name="Path 1003515" d="M2683.934,1142.083a1.57,1.57,0,0,1-.543-.1l-10.4-3.843a1.575,1.575,0,0,1-.93-2.02l2.031-5.5a.143.143,0,0,0-.061-.169,31.1,31.1,0,0,1-7.323-6.767.143.143,0,0,0-.173-.049l-5.319,2.449a1.573,1.573,0,0,1-2.086-.771l-4.637-10.072a1.574,1.574,0,0,1,.771-2.086l5.319-2.449a.143.143,0,0,0,.075-.164,31.118,31.118,0,0,1-.381-9.963.142.142,0,0,0-.089-.156l-5.5-2.031a1.573,1.573,0,0,1-.93-2.021l3.843-10.4a1.575,1.575,0,0,1,2.021-.93l5.5,2.031a.143.143,0,0,0,.169-.061,31.115,31.115,0,0,1,6.768-7.323.143.143,0,0,0,.049-.173l-2.449-5.319a1.573,1.573,0,0,1,.771-2.087l10.072-4.638a1.573,1.573,0,0,1,2.086.771l2.449,5.319a.143.143,0,0,0,.163.076,31.117,31.117,0,0,1,9.964-.381.142.142,0,0,0,.156-.089l2.031-5.5a1.575,1.575,0,0,1,2.02-.93l10.4,3.843a1.573,1.573,0,0,1,.93,2.021l-2.031,5.5a.143.143,0,0,0,.061.169,31.111,31.111,0,0,1,7.323,6.767.143.143,0,0,0,.173.049l5.319-2.449a1.575,1.575,0,0,1,2.086.771l4.638,10.072a1.575,1.575,0,0,1-.771,2.086l-5.319,2.449a.143.143,0,0,0-.076.163,31.113,31.113,0,0,1,.381,9.964.143.143,0,0,0,.089.156l5.5,2.031a1.573,1.573,0,0,1,.93,2.021l-3.843,10.4a1.573,1.573,0,0,1-2.021.93l-5.5-2.031a.143.143,0,0,0-.169.061,31.108,31.108,0,0,1-6.767,7.323.143.143,0,0,0-.049.173l2.449,5.319a1.573,1.573,0,0,1-.771,2.087l-10.072,4.638a1.575,1.575,0,0,1-2.087-.771l-2.449-5.319a.143.143,0,0,0-.163-.076,31.111,31.111,0,0,1-9.964.381.143.143,0,0,0-.156.089l-2.031,5.5a1.575,1.575,0,0,1-1.477,1.028ZM2666.59,1122.2a1.573,1.573,0,0,1,1.24.609,29.685,29.685,0,0,0,6.988,6.458,1.565,1.565,0,0,1,.611,1.851l-2.031,5.5a.147.147,0,0,0,.087.188l10.4,3.843a.147.147,0,0,0,.188-.087l2.031-5.5a1.565,1.565,0,0,1,1.668-1.01,29.7,29.7,0,0,0,9.508-.363,1.565,1.565,0,0,1,1.741.877l2.449,5.319a.145.145,0,0,0,.083.076.142.142,0,0,0,.112,0l10.072-4.638a.146.146,0,0,0,.072-.194l-2.449-5.319a1.565,1.565,0,0,1,.466-1.893,29.68,29.68,0,0,0,6.458-6.988,1.566,1.566,0,0,1,1.852-.611l5.5,2.031a.145.145,0,0,0,.112,0,.143.143,0,0,0,.076-.082l3.843-10.4a.147.147,0,0,0-.087-.188l-5.5-2.031a1.565,1.565,0,0,1-1.01-1.668,29.7,29.7,0,0,0-.363-9.508,1.565,1.565,0,0,1,.877-1.741l5.319-2.449a.147.147,0,0,0,.072-.195l-4.638-10.072a.144.144,0,0,0-.082-.076.142.142,0,0,0-.112,0l-5.319,2.449a1.565,1.565,0,0,1-1.893-.466,29.687,29.687,0,0,0-6.988-6.457,1.565,1.565,0,0,1-.611-1.852l2.031-5.5a.147.147,0,0,0-.086-.188l-10.4-3.843a.147.147,0,0,0-.188.087l-2.031,5.5a1.565,1.565,0,0,1-1.668,1.01,29.689,29.689,0,0,0-9.507.364,1.565,1.565,0,0,1-1.741-.877l-2.449-5.319a.145.145,0,0,0-.083-.076.142.142,0,0,0-.112,0l-10.072,4.637a.147.147,0,0,0-.072.195l2.449,5.319a1.565,1.565,0,0,1-.466,1.893,29.688,29.688,0,0,0-6.458,6.988,1.565,1.565,0,0,1-1.852.611l-5.5-2.031a.147.147,0,0,0-.188.087l-3.843,10.4a.147.147,0,0,0,.087.188l5.5,2.031a1.565,1.565,0,0,1,1.01,1.668,29.683,29.683,0,0,0,.363,9.507,1.565,1.565,0,0,1-.877,1.741l-5.319,2.449a.146.146,0,0,0-.072.195l4.637,10.072a.145.145,0,0,0,.083.076.144.144,0,0,0,.112,0l5.319-2.449a1.561,1.561,0,0,1,.653-.144Z" transform="translate(-2653.66 -1066.645)" fill="#2e2e2e"/>
          <path id="Path_1003516" data-name="Path 1003516" d="M2835.693,1266.923a18.276,18.276,0,1,1,7.626-1.683,18.264,18.264,0,0,1-7.626,1.683Zm-.036-35.1a16.831,16.831,0,1,0,15.314,9.791,16.732,16.732,0,0,0-15.314-9.791Z" transform="translate(-2797.963 -1210.938)" fill="#2e2e2e"/>
        </g>
        <g id="Group_1180389" data-name="Group 1180389" transform="translate(40.449)">
          <g id="Group_1180388" data-name="Group 1180388">
            <path id="Path_1003517" data-name="Path 1003517" d="M3008.18,565.357h70.857a8.675,8.675,0,0,0,8.675-8.675V416.02a5.435,5.435,0,0,0-5.435-5.435h-74.23a8.543,8.543,0,0,0-8.543,8.543V556.682a8.675,8.675,0,0,0,8.675,8.675Z" transform="translate(-2998.85 -409.872)" fill="url(#linear-gradient)"/>
            <path id="Path_1003518" data-name="Path 1003518" d="M3100.608,410.585h-74.23a8.521,8.521,0,0,0-6.332,2.808,8.5,8.5,0,0,1,4.7-1.412h74.23a5.435,5.435,0,0,1,5.435,5.435V561.193a6.424,6.424,0,0,0,1.629-4.512V416.02A5.435,5.435,0,0,0,3100.608,410.585Z" transform="translate(-3016.952 -409.872)" fill="#fff"/>
            <path id="Path_1003519" data-name="Path 1003519" d="M3074.381,560.783h-71.121a9.267,9.267,0,0,1-9.256-9.256V413.841a9.267,9.267,0,0,1,9.256-9.256h71.121a9.267,9.267,0,0,1,9.256,9.256V551.527a9.267,9.267,0,0,1-9.256,9.256ZM3003.26,406.011a7.839,7.839,0,0,0-7.83,7.83V551.527a7.839,7.839,0,0,0,7.83,7.83h71.121a7.839,7.839,0,0,0,7.83-7.83V413.841a7.839,7.839,0,0,0-7.83-7.83H3003.26Z" transform="translate(-2994.003 -404.585)" fill="#2e2e2e"/>
            <path id="Path_1003520" data-name="Path 1003520" d="M3039.95,480.691a2.452,2.452,0,0,0-2.45,2.45V615.777a2.231,2.231,0,0,0,2.45,2.172l74.4.21a2.452,2.452,0,0,0,2.449-2.449V483.141a2.452,2.452,0,0,0-2.449-2.45h-74.4Z" transform="translate(-3032.331 -471.646)" fill="#fff"/>
            <path id="Path_1003521" data-name="Path 1003521" d="M3108.389,613.59H3032.9a1.929,1.929,0,0,1-1.9-1.941c0-.893,0-2.285,0-3.986-.007-4.069-.041-10.363-.161-17.235l0-.232c-.122-7.153-.122-44.949,0-112.34a3.166,3.166,0,0,1,3.163-3.161h74.4a3.166,3.166,0,0,1,3.163,3.163v132.57a3.166,3.166,0,0,1-3.162,3.162Zm-74.4-137.469a1.738,1.738,0,0,0-1.736,1.736c-.122,67.383-.122,105.171,0,112.314l0,.231c.12,6.881.154,13.183.161,17.258,0,1.7,0,3.1,0,3.989a.506.506,0,0,0,.479.514h75.489a1.738,1.738,0,0,0,1.736-1.736V477.857a1.738,1.738,0,0,0-1.736-1.736Z" transform="translate(-3026.373 -466.362)" fill="#2e2e2e"/>
          </g>
          <path id="Path_1003522" data-name="Path 1003522" d="M3326.07,444.145h-14.153a.713.713,0,1,1,0-1.426h14.153a.713.713,0,1,1,0,1.426Z" transform="translate(-3273.505 -438.187)" fill="#2e2e2e"/>
        </g>
        <g id="Group_1180395" data-name="Group 1180395" transform="translate(48.464 38.499)">
          <g id="Group_1180390" data-name="Group 1180390" transform="translate(5.022 43.567)">
            <rect id="Rectangle_455696" data-name="Rectangle 455696" width="11.886" height="61.193" transform="translate(0.713 0.713)" fill="#4671f0"/>
            <path id="Path_1003523" data-name="Path 1003523" d="M3120.753,1100.892l-9.733.007-.133-3.415,11.494.749.037,60.874-1.523-1.542Z" transform="translate(-3110.032 -1097.2)" fill="#fff"/>
            <path id="Path_1003524" data-name="Path 1003524" d="M3117,1157.716h-13.312V1095.1H3117Zm-11.886-1.426h10.459v-59.767h-10.459Z" transform="translate(-3103.693 -1095.097)" fill="#2e2e2e"/>
          </g>
          <g id="Group_1180391" data-name="Group 1180391" transform="translate(42.001 26.678)">
            <rect id="Rectangle_455697" data-name="Rectangle 455697" width="11.886" height="78.081" transform="translate(0.362 0.714)" fill="#4671f0"/>
            <path id="Path_1003525" data-name="Path 1003525" d="M3417.89,959v3.226h10.482v74.855h1.4V959Z" transform="translate(-3417.528 -958.284)" fill="#fff"/>
            <path id="Path_1003526" data-name="Path 1003526" d="M3428.154,1032.5h-13.312V952.994h13.312Zm-11.886-1.426h10.459V954.42h-10.459Z" transform="translate(-3414.842 -952.994)" fill="#2e2e2e"/>
          </g>
          <g id="Group_1180392" data-name="Group 1180392" transform="translate(60.405 15.054)">
            <rect id="Rectangle_455698" data-name="Rectangle 455698" width="11.886" height="89.136" transform="translate(0.363 0.713)" fill="#4671f0"/>
            <path id="Path_1003527" data-name="Path 1003527" d="M3572.7,865.981v1.708h10.636v87.428h1.25V865.981Z" transform="translate(-3572.342 -864.698)" fill="#fff"/>
            <path id="Path_1003528" data-name="Path 1003528" d="M3583,945.749h-13.312V855.186H3583Zm-11.885-1.426h10.459v-87.71H3571.12Z" transform="translate(-3569.693 -855.186)" fill="#2e2e2e"/>
          </g>
          <g id="Group_1180393" data-name="Group 1180393">
            <path id="Path_1003529" data-name="Path 1003529" d="M3062.15,769.637a.713.713,0,0,1-.085-1.421c18.421-2.235,54-17.947,67.821-37.482a.713.713,0,1,1,1.164.824c-6.257,8.843-17.7,17.879-32.222,25.443-12.835,6.686-26.514,11.407-36.592,12.63a.71.71,0,0,1-.087.005Z" transform="translate(-3061.438 -730.206)" fill="#2e2e2e"/>
            <path id="Path_1003530" data-name="Path 1003530" d="M3578.114,739.618a.722.722,0,0,1-.088-.005.713.713,0,0,1-.62-.8l1.057-8.558-6.9,3.061a.713.713,0,1,1-.578-1.3l7.7-3.418a.928.928,0,0,1,1.3.962l-1.164,9.431A.713.713,0,0,1,3578.114,739.618Z" transform="translate(-3510.051 -728.52)" fill="#2e2e2e"/>
          </g>
          <g id="Group_1180394" data-name="Group 1180394" transform="translate(23.599 34.699)">
            <rect id="Rectangle_455699" data-name="Rectangle 455699" width="11.886" height="70.061" transform="translate(0.362 0.714)" fill="#4671f0"/>
            <path id="Path_1003531" data-name="Path 1003531" d="M3263.05,1026.49v2.894h10.482v67.166h1.4v-70.06Z" transform="translate(-3262.688 -1025.776)" fill="#fff"/>
            <path id="Path_1003532" data-name="Path 1003532" d="M3273.315,1091.97H3260v-71.487h13.312Zm-11.886-1.426h10.459v-68.634h-10.459Z" transform="translate(-3260.003 -1020.483)" fill="#2e2e2e"/>
          </g>
        </g>
        <g id="Group_1180396" data-name="Group 1180396" transform="translate(12.242 47.274)">
          <path id="Path_1003533" data-name="Path 1003533" d="M2757.707,804.431a1.041,1.041,0,1,1,1.039-1.041A1.041,1.041,0,0,1,2757.707,804.431Z" transform="translate(-2756.668 -802.35)" fill="#2e2e2e"/>
          <path id="Path_1003534" data-name="Path 1003534" d="M2851.487,804.431a1.041,1.041,0,1,1,1.039-1.041A1.041,1.041,0,0,1,2851.487,804.431Z" transform="translate(-2839.302 -802.35)" fill="#2e2e2e"/>
          <path id="Path_1003535" data-name="Path 1003535" d="M2945.263,804.431a1.041,1.041,0,1,1,1.039-1.041A1.041,1.041,0,0,1,2945.263,804.431Z" transform="translate(-2921.934 -802.35)" fill="#2e2e2e"/>
          <path id="Path_1003536" data-name="Path 1003536" d="M2757.707,897.185a1.04,1.04,0,1,1,1.039-1.04A1.041,1.041,0,0,1,2757.707,897.185Z" transform="translate(-2756.668 -884.081)" fill="#2e2e2e"/>
          <path id="Path_1003537" data-name="Path 1003537" d="M2851.487,897.185a1.04,1.04,0,1,1,1.039-1.04A1.041,1.041,0,0,1,2851.487,897.185Z" transform="translate(-2839.302 -884.081)" fill="#2e2e2e"/>
          <path id="Path_1003538" data-name="Path 1003538" d="M2945.263,897.185a1.04,1.04,0,1,1,1.039-1.04A1.041,1.041,0,0,1,2945.263,897.185Z" transform="translate(-2921.934 -884.081)" fill="#2e2e2e"/>
          <path id="Path_1003539" data-name="Path 1003539" d="M2757.707,990.08a1.041,1.041,0,1,1,1.039-1.041A1.041,1.041,0,0,1,2757.707,990.08Z" transform="translate(-2756.668 -965.935)" fill="#2e2e2e"/>
          <path id="Path_1003540" data-name="Path 1003540" d="M2851.487,990.08a1.041,1.041,0,1,1,1.039-1.041A1.041,1.041,0,0,1,2851.487,990.08Z" transform="translate(-2839.302 -965.935)" fill="#2e2e2e"/>
          <path id="Path_1003541" data-name="Path 1003541" d="M2945.263,990.08a1.041,1.041,0,1,1,1.039-1.041A1.041,1.041,0,0,1,2945.263,990.08Z" transform="translate(-2921.934 -965.935)" fill="#2e2e2e"/>
        </g>
      </g>
      <g id="person_2" transform="translate(111.019 8.099)">
        <path id="Path_1003542" data-name="Path 1003542" d="M4333.539,766.361s-5.147-8.214-6.985-9.548-3.9-5.415-2.794-6.776,1.544-2.169,3.493-.809,6.618,5.037,6.618,5.037.625-.478.515-1.029.038-13.5.045-13.6.506-4.447,2.417-4.925,2.8-.037,3.146,1,1.192,11.132,1.192,11.132,1.213-2.5,3.162-1.765a6.481,6.481,0,0,1,2.941,2.279,2.962,2.962,0,0,1,2.61-1.544,3.267,3.267,0,0,1,2.39,1.507l.463,1.1s1.342-1.71,2.774-1.37,2.4.745,2.485,2.252a37.341,37.341,0,0,1-.923,7.285c-.314.841-1.347,5.949-2.263,7.238a24.926,24.926,0,0,0-1.752,3.015s.085,14.413,0,15.441-.344,14.044-.638,16.4-1.1,10.846-2.758,13.861-3.971,7.132-6.618,7.647-6.875.956-9.265.478-7.454-3.794-8.543-4.838-7.965-11.375-7.965-11.375l1.213-7.316,14.267-10.258,1.285-16.287-.045-3.456-.47-.772Z" transform="translate(-4224.497 -672.555)" fill="#fff"/>
        <path id="Path_1003543" data-name="Path 1003543" d="M3866.363,439.932s.147,8.048-1.618,10.294-5.723,2.9-5.723,2.9l-1.226,1.106s6.336,4.081,11.287,4.179,10.539.392,13.922-.343,9.265-2.4,9.412-2.4,2.255-1.665,2.255-1.665-6.716-2.845-7.255-3.188-1.667-8.088-1.667-8.088l.588-4.363s5.245-6.03,5.1-8.186a4.215,4.215,0,0,1,.68-3.058s3.811.437,4.925-1.095,2.417-2.94,1.554-4.622-2.041-3.079-2.59-3.206-4.03-.392-4.03-.392,3.873-5.593-.98-8.828-10.515-6.838-14.338-6.1-13.383,2.206-14.78,5.735a63.507,63.507,0,0,1-5.294,9.2s-3.085,1.746-3.137,3.746.392,4.231,2.157,5.106a9.739,9.739,0,0,0,4.657.464s.343,4.185,1.471,5.852,2.971,4.7,3.275,5a23.261,23.261,0,0,1,1.357,1.964Z" transform="translate(-3815.778 -380.245)" fill="#fff"/>
        <path id="Path_1003544" data-name="Path 1003544" d="M3636.985,836.273a11.366,11.366,0,0,0-4.44,1.3c-1.728,1.1-9.9,6.342-12.305,8.723s-6.739,8.7-7.4,9.66-8.382,17.133-8.382,17.133l-1.348,2.273,7.22,3.6,14.937,6.262-5.833,16.005,7.525,3.113,3.52-18.877,37.1,6.929-4.63,23.97,2.586,1.777h25.221l-1.587-31.282,14.185-10.778.112-5.343s-5.812-11.837-7.545-15.723-8.3-11.68-11.1-13.151-10.117-5.284-10.117-5.284-7.876,3.629-15.081,3.942a63.789,63.789,0,0,1-16.812-1.8,19.117,19.117,0,0,1-5.83-2.449Z" transform="translate(-3595.195 -762.221)" fill="#c1c7d6"/>
        <path id="Path_1003545" data-name="Path 1003545" d="M3607.211,871.981c.9-1.889,4.24-9.069,8.726-16.593a81.861,81.861,0,0,1,7.4-9.66,43.583,43.583,0,0,1,16.172-10.12,20.584,20.584,0,0,1-3.985-1.812s-2.068,1.11-3.8,2.209-9.09,5.725-11.491,8.105-6.736,9.175-7.4,10.131-9.733,19.063-9.733,19.063l3.109,1.181,1-2.5Z" transform="translate(-3595.194 -760.038)" fill="#fff"/>
        <path id="Path_1003546" data-name="Path 1003546" d="M3812.739,1528.789l22.01.147,1.92,21.694-66.587-.218q.519-3.63,1.038-7.26l34.256,6.208.6-3.608s2.206-1.865,1.961-3.385-.539-2.647-.539-2.647,3.016-1.176,3.248-2.966a6.141,6.141,0,0,0-.7-3.419l-.539-1.361s2.124-1.243,2.353-1.422A11.868,11.868,0,0,0,3812.739,1528.789Z" transform="translate(-3742.325 -1372.433)" fill="url(#linear-gradient-2)"/>
        <path id="Path_1003547" data-name="Path 1003547" d="M3774.4,1658.031l.578-7.271-2.8-.508-.9,7.879a26.658,26.658,0,0,0,3.123-.1Z" transform="translate(-3743.378 -1479.459)" fill="#fff"/>
        <path id="Path_1003548" data-name="Path 1003548" d="M3843.936,607.266a40.813,40.813,0,0,1-1.25,6.55c-.735,2.022-2.061,6.157-2.777,7.178s-1.672,2.675-.569,4,2.978,3.309,7.647,3.787,5.478-.147,5.478-.147.993-9.111.331-10.327-3.272-3.318-3.713-4.431-2.427-7.044-2.427-7.044l-2.721.436Z" transform="translate(-3802.909 -560.047)" fill="#4671f0"/>
        <path id="Path_1003549" data-name="Path 1003549" d="M3839.247,625.231c-1.1-1.324.515-4.265,1.11-5.785a48.392,48.392,0,0,0,2.777-7.178c.49-2.1,1.218-7.141,1.218-7.141l.515-.417c-.175-.52-.213.061-.213.061l-2.72.436a40.8,40.8,0,0,1-1.25,6.55c-.735,2.022-2.061,6.157-2.777,7.178s-1.672,2.675-.569,4c1.064,1.277,2.873,3.158,7.194,3.718-2.614-.818-4.446-.415-5.284-1.42Z" transform="translate(-3801.145 -557.988)" fill="#fff"/>
        <path id="Path_1003550" data-name="Path 1003550" d="M4138.092,608.039a40.783,40.783,0,0,0,1.25,6.55c.735,2.022,2.061,6.157,2.777,7.178s1.672,2.675.569,4-2.978,3.309-7.647,3.787-5.478-.147-5.478-.147-.993-9.111-.331-10.327,3.272-3.318,3.713-4.431,1.984-7.044,1.984-7.044l3.163.436Z" transform="translate(-4058.59 -560.728)" fill="#4671f0"/>
        <path id="Path_1003551" data-name="Path 1003551" d="M3982.128,228.645c3.319-4.889,1.475-9.471-7.3-9.454-6.965.014-12.093,4.066-7.77,9.546Z" transform="translate(-3914.49 -218.479)" fill="#4671f0"/>
        <path id="Path_1003552" data-name="Path 1003552" d="M3977.286,220a15.529,15.529,0,0,1,5.555,1.107c-1.405-1.19-3.789-1.926-7.3-1.919-6.965.014-12.093,4.066-7.77,9.546l1.24-.37C3966.168,223.459,3970.8,220.015,3977.286,220Z" transform="translate(-3915.12 -218.478)" fill="#fff"/>
        <path id="Path_1003553" data-name="Path 1003553" d="M3892.043,304.206s-1.912,2.574-1.985,4.191c-.44.386-10.968,3.328-10.968,3.328l-.283,6.7-3.015-.35s-1.371-9.269-.7-12.586,2.353-8.2,5.478-10.515,6.728-4.825,12.206-4.8,9.072.648,11.1,1.6,5.556,2.794,7.137,5a23.062,23.062,0,0,1,3.566,7.978,37.868,37.868,0,0,1,.478,7.684,26.705,26.705,0,0,1-1.544,5.772l-2.794.215s-.037-5.95-.772-7.016c-3.823-1.875-16.03-2.427-16.03-2.427a30.987,30.987,0,0,0-1.875-4.779Z" transform="translate(-3834.693 -281.026)" fill="#4671f0"/>
        <path id="Path_1003554" data-name="Path 1003554" d="M3877.3,306.76a15.952,15.952,0,0,1,5.46-10.735c2.886-2.608,7.408-4.283,12.519-4.455,5.475-.184,8.988.527,11.014,1.483.115.054.25.121.374.181-1.021-.594-2.015-1.09-2.79-1.456-2.027-.956-5.621-1.581-11.1-1.6s-9.081,2.486-12.206,4.8-4.806,7.2-5.478,10.515.7,12.586.7,12.586l2.078.241a33.635,33.635,0,0,1-.57-11.558Z" transform="translate(-3834.693 -281.025)" fill="#fff"/>
        <path id="Path_1003555" data-name="Path 1003555" d="M3764.8,1548.571l-.063,0a.713.713,0,0,1-.648-.773l1.869-21.255a.713.713,0,1,1,1.421.125l-1.869,21.255A.713.713,0,0,1,3764.8,1548.571Z" transform="translate(-3737.04 -1369.879)" fill="#2e2e2e"/>
        <path id="Path_1003556" data-name="Path 1003556" d="M3754.86,1296.9l37.1,6.929,9.333-46.758-37.1-6.929Z" transform="translate(-3728.912 -1126.901)" fill="#fff"/>
        <path id="Path_1003557" data-name="Path 1003557" d="M3786.287,1298.5l-38.506-7.191,9.613-48.158,38.505,7.191Zm-36.824-8.328,35.7,6.667,9.054-45.36-35.7-6.667Z" transform="translate(-3722.674 -1120.742)" fill="#2e2e2e"/>
        <path id="Path_1003558" data-name="Path 1003558" d="M4310.83,1548.785a.713.713,0,0,1-.709-.65l-1.92-21.473a.713.713,0,1,1,1.42-.127l1.92,21.473a.713.713,0,0,1-.646.774Z" transform="translate(-4216.486 -1369.875)" fill="#2e2e2e"/>
        <path id="Path_1003559" data-name="Path 1003559" d="M3570.2,1180.319l-5.318,16.078s22.928,10.246,24.436,10.393,4.8-1.882,5.956-2.132,7.9-3.641,9.59-3.641,3.549-1.492,4.3.087.083-.453-1.241.98a57.38,57.38,0,0,1-5.294,4.375l-.552,1.875s.478,3.272,1.985,3.9-4.8,1.642-4.8,1.642l5.643,10.785s1.618,2.243,1.323,3.309-5.94,2.481-7.511,1.939-13.05-6.631-13.05-6.631l-2.785-.822s-22.243-6.066-23.419-6.471-8.771-4.38-11.3-5.5-6.849-6.266-7.114-8.655,2.211-12.071,2.211-12.071l6.961-18.579,19.976,9.142Z" transform="translate(-3540.502 -1057.322)" fill="#fff"/>
        <path id="Path_1003560" data-name="Path 1003560" d="M4345.022,1057.263a17.207,17.207,0,0,1-11.457-3.735c-3.126-2.55-5.607-6.365-8.371-11.308a.713.713,0,1,1,1.245-.7c5.475,9.793,9.559,14.314,18.541,14.314q.543,0,1.11-.022a9.222,9.222,0,0,0,7.533-3.919c1.812-2.477,3.084-6.217,3.891-11.434,2.38-15.4,1.612-37.851,1.6-38.076a.713.713,0,1,1,1.425-.051c.008.226.781,22.814-1.62,38.345-.842,5.448-2.2,9.393-4.149,12.058a10.569,10.569,0,0,1-8.629,4.5q-.571.022-1.123.022Z" transform="translate(-4231.384 -907.942)" fill="#2e2e2e"/>
        <path id="Path_1003561" data-name="Path 1003561" d="M4438.407,1033.355h-.046a.713.713,0,0,1-.666-.757l1.7-26.435a.713.713,0,0,1,1.423.091l-1.7,26.435A.713.713,0,0,1,4438.407,1033.355Z" transform="translate(-4330.592 -911.331)" fill="#2e2e2e"/>
        <path id="Path_1003562" data-name="Path 1003562" d="M4149.143,1115.908h-26.05a.713.713,0,0,1,0-1.426h24.583c-.287-8.161-2.219-33.124-3.271-46.73-.234-3.022-.431-5.562-.566-7.352a.713.713,0,0,1,1.422-.107c.135,1.79.332,4.328.565,7.349,1.164,15.041,3.112,40.215,3.3,47.535l.019.731Z" transform="translate(-4052.753 -959.035)" fill="#2e2e2e"/>
        <path id="Path_1003563" data-name="Path 1003563" d="M4023.979,621.427a4.2,4.2,0,0,0,2.512-3.712c.04-1.162-.141-1.72-.683-1.837-.685-.148-1.934.8-3.931,1.976-1.458.859-3.794,1.54-3.551,2.756.209,1.047,2.906,2.3,5.653.818Z" transform="translate(-3961.05 -568.006)" fill="#2e2e2e"/>
        <path id="Path_1003564" data-name="Path 1003564" d="M4056.3,635.885c-1.5-.636-4.543.566-3.9,3.167C4054.407,638.668,4056.149,636.794,4056.3,635.885Z" transform="translate(-3991.016 -585.501)" fill="#fff"/>
        <path id="Path_1003565" data-name="Path 1003565" d="M3921.64,615.3H3919.5a15.419,15.419,0,0,1-15.4-15.4.713.713,0,0,1,1.426,0,13.991,13.991,0,0,0,13.975,13.975h2.144a13.991,13.991,0,0,0,13.975-13.975.713.713,0,1,1,1.426,0A15.419,15.419,0,0,1,3921.64,615.3Z" transform="translate(-3860.411 -553.307)" fill="#2e2e2e"/>
        <path id="Path_1003566" data-name="Path 1003566" d="M3851.572,532.98a5.542,5.542,0,1,1,2.2-10.628.713.713,0,0,1-.568,1.308,4.116,4.116,0,1,0,.129,7.5.713.713,0,0,1,.613,1.288A5.493,5.493,0,0,1,3851.572,532.98Z" transform="translate(-3809.247 -485.207)" fill="#2e2e2e"/>
        <path id="Path_1003567" data-name="Path 1003567" d="M3865.651,543.742a.713.713,0,0,1-.713-.7,3.09,3.09,0,0,1,.929-2.393,3.394,3.394,0,0,1,2.746-.758.713.713,0,0,1-.137,1.42,2.092,2.092,0,0,0-1.644.388,1.756,1.756,0,0,0-.468,1.326.713.713,0,0,1-.7.721Z" transform="translate(-3825.908 -501.038)" fill="#2e2e2e"/>
        <path id="Path_1003568" data-name="Path 1003568" d="M4172.087,532.98a5.5,5.5,0,0,1-2.379-.535.713.713,0,0,1,.613-1.288,4.116,4.116,0,1,0,.129-7.5.713.713,0,0,1-.568-1.308,5.542,5.542,0,1,1,2.2,10.628Z" transform="translate(-4094.098 -485.207)" fill="#2e2e2e"/>
        <path id="Path_1003569" data-name="Path 1003569" d="M4187.709,543.743h-.008a.713.713,0,0,1-.705-.721,1.756,1.756,0,0,0-.468-1.326,2.093,2.093,0,0,0-1.644-.388.713.713,0,0,1-.136-1.42,3.4,3.4,0,0,1,2.746.758,3.089,3.089,0,0,1,.929,2.393.714.714,0,0,1-.713.7Z" transform="translate(-4107.14 -501.039)" fill="#2e2e2e"/>
        <ellipse id="Ellipse_13852" data-name="Ellipse 13852" cx="1.078" cy="1.838" rx="1.078" ry="1.838" transform="translate(50.646 36.692)" fill="#2e2e2e"/>
        <path id="Path_1003570" data-name="Path 1003570" d="M3930.585,477.91a.713.713,0,0,1-.531-1.189,8.857,8.857,0,0,1,7.866-2.529.713.713,0,1,1-.259,1.4,7.366,7.366,0,0,0-6.546,2.079.711.711,0,0,1-.531.237Z" transform="translate(-3883.124 -443.054)" fill="#2e2e2e"/>
        <ellipse id="Ellipse_13853" data-name="Ellipse 13853" cx="1.078" cy="1.838" rx="1.078" ry="1.838" transform="translate(66.824 36.692)" fill="#2e2e2e"/>
        <path id="Path_1003571" data-name="Path 1003571" d="M4085.035,477.911a.711.711,0,0,1-.531-.237,7.366,7.366,0,0,0-6.546-2.079.713.713,0,0,1-.258-1.4,8.858,8.858,0,0,1,7.866,2.529.713.713,0,0,1-.531,1.189Z" transform="translate(-4012.868 -443.055)" fill="#2e2e2e"/>
        <path id="Path_1003572" data-name="Path 1003572" d="M4015.578,615.986a5.2,5.2,0,0,1-2.214-.479,2.491,2.491,0,0,1-1.513-1.6c-.29-1.449,1.31-2.224,2.72-2.908.424-.205.824-.4,1.168-.6.466-.274.9-.541,1.28-.777,1.472-.908,2.358-1.456,3.164-1.282,1.323.286,1.268,1.879,1.244,2.559a4.932,4.932,0,0,1-2.885,4.315h0A6.269,6.269,0,0,1,4015.578,615.986Zm2.627-1.4h0Zm1.658-4.853a8.5,8.5,0,0,0-2.093,1.1c-.388.239-.827.51-1.3.792-.394.232-.839.448-1.27.657-.7.342-2.017.977-1.944,1.345.017.086.222.352.72.586a4.407,4.407,0,0,0,3.895-.256h0a3.51,3.51,0,0,0,2.138-3.109c.029-.851-.083-1.071-.113-1.114l-.008,0Z" transform="translate(-3955.331 -561.35)" fill="#2e2e2e"/>
        <path id="Path_1003573" data-name="Path 1003573" d="M3997.481,531.061a3.057,3.057,0,0,1-2.142-.689,2.31,2.31,0,0,1-.712-1.742,3.7,3.7,0,0,1,2.577-3.18c.515-.187,1.01-1.4.855-4.242a.713.713,0,1,1,1.424-.078c.178,3.259-.425,5.163-1.792,5.66a2.338,2.338,0,0,0-1.639,1.82.885.885,0,0,0,.253.714,1.962,1.962,0,0,0,1.487.3.713.713,0,1,1,.095,1.423Q3997.678,531.061,3997.481,531.061Z" transform="translate(-3940.183 -483.938)" fill="#2e2e2e"/>
        <path id="Path_1003574" data-name="Path 1003574" d="M3907.272,314.008a.714.714,0,0,1-.7-.861c.977-4.61,2.314-10.922-.311-16.891-4.728-10.753-16.306-10.835-19.741-10.605-6.4.429-14.078,3.444-16.455,10.616-2.682,8.093-.218,16.36-.193,16.442a.713.713,0,0,1-1.364.418,31.378,31.378,0,0,1,.2-17.309c2.6-7.843,10.854-11.13,17.713-11.59a25.852,25.852,0,0,1,10.718,1.545,18.1,18.1,0,0,1,10.424,9.909c2.809,6.389,1.417,12.962.4,17.761a.714.714,0,0,1-.7.565Z" transform="translate(-3828.055 -275.736)" fill="#2e2e2e"/>
        <path id="Path_1003575" data-name="Path 1003575" d="M4045.411,633.871a.713.713,0,0,1-.656-.434,3.138,3.138,0,0,1,.786-3.712,3.794,3.794,0,0,1,4.191-.631.713.713,0,0,1-.7,1.242,2.387,2.387,0,0,0-2.539.452,1.7,1.7,0,0,0-.425,2.09.713.713,0,0,1-.656.993Z" transform="translate(-3984.094 -579.331)" fill="#2e2e2e"/>
        <path id="Path_1003576" data-name="Path 1003576" d="M4320.049,1180.074a.713.713,0,0,1-.421-1.289l14.524-10.6a.713.713,0,1,1,.841,1.152l-14.524,10.6A.709.709,0,0,1,4320.049,1180.074Z" transform="translate(-4226.301 -1054.562)" fill="#2e2e2e"/>
        <path id="Path_1003577" data-name="Path 1003577" d="M4159.8,750.532a.714.714,0,0,1-.651-.421c-1.617-3.6-3.419-7.609-4.33-9.589-5.13-11.161-9.054-18.364-24.411-25.508-1.056-.491-4.31-1.7-6.155-2.383a4.139,4.139,0,0,1-2.628-2.9,50.99,50.99,0,0,1-.777-10.814.713.713,0,1,1,1.425.047c0,.065-.2,6.518.739,10.435a2.718,2.718,0,0,0,1.733,1.9c2.28.839,5.218,1.941,6.265,2.428,7.467,3.473,12.545,7.034,16.465,11.544,3.732,4.294,6.121,9.18,8.64,14.661.913,1.986,2.716,6,4.335,9.6a.713.713,0,0,1-.65,1.005Z" transform="translate(-4051.386 -640.58)" fill="#2e2e2e"/>
        <path id="Path_1003578" data-name="Path 1003578" d="M3619.923,1172.648a.713.713,0,0,1-.277-.056l-22.1-9.345a.713.713,0,1,1,.555-1.313l22.1,9.345a.713.713,0,0,1-.278,1.37Z" transform="translate(-3589.911 -1049.127)" fill="#2e2e2e"/>
        <path id="Path_1003579" data-name="Path 1003579" d="M3596.994,755.688a.713.713,0,0,1-.654-1l1.091-2.528q.412-.852.817-1.7a146.027,146.027,0,0,1,9.274-17.1c5.639-8.789,9.659-12.711,22.345-18.613,1.052-.489,4.092-1.6,6.458-2.439a2.711,2.711,0,0,0,1.761-1.906,49.644,49.644,0,0,0,.738-10.276.713.713,0,0,1,1.426-.047,50.087,50.087,0,0,1-.776,10.652,4.131,4.131,0,0,1-2.67,2.919c-3.3,1.177-5.553,2.025-6.335,2.389-12.365,5.752-16.275,9.562-21.747,18.09a144.854,144.854,0,0,0-9.189,16.953q-.4.839-.811,1.684l-1.073,2.486a.713.713,0,0,1-.655.431Z" transform="translate(-3589.18 -641.61)" fill="#2e2e2e"/>
        <path id="Path_1003580" data-name="Path 1003580" d="M3936.328,415.147h0a.713.713,0,0,1-.71-.717c.007-1.4-.124-5.264-.784-6.949-2.941-1.75-10.807-2.646-14.831-2.4a1.09,1.09,0,0,1-1.128-.832,39.111,39.111,0,0,0-1.136-3.776,8.952,8.952,0,0,0-.841,2.566,9.354,9.354,0,0,1-.321,1.243,1.065,1.065,0,0,1-.955.686c-3.78.181-8.585,1.652-10.1,2.608v6.6a.713.713,0,0,1-1.426,0v-7.295l.257-.214c1.453-1.211,6.737-2.853,10.959-3.108.065-.228.124-.506.19-.815a8.432,8.432,0,0,1,1.607-3.858.963.963,0,0,1,.9-.328.993.993,0,0,1,.76.614,39.888,39.888,0,0,1,1.419,4.473c4.331-.208,12.537.751,15.6,2.751l.171.112.086.185c1.011,2.177,1,7.517,1,7.743A.713.713,0,0,1,3936.328,415.147Z" transform="translate(-3860.411 -376.517)" fill="#2e2e2e"/>
        <path id="Path_1003581" data-name="Path 1003581" d="M3845.225,628c-6.092,0-10.774-1.547-12.363-4.129a3.808,3.808,0,0,1-.018-4,40.288,40.288,0,0,0,4.53-14.751.713.713,0,0,1,1.415.183,41.659,41.659,0,0,1-4.692,15.25,2.394,2.394,0,0,0-.02,2.573c1.4,2.274,6.212,3.621,12.264,3.432a.713.713,0,1,1,.044,1.426q-.588.018-1.16.018Z" transform="translate(-3797.135 -557.989)" fill="#2e2e2e"/>
        <path id="Path_1003582" data-name="Path 1003582" d="M4132.307,628q-.573,0-1.16-.018a.713.713,0,0,1,.044-1.426q.565.018,1.116.018c5.522,0,9.835-1.317,11.148-3.45a2.4,2.4,0,0,0-.02-2.573,41.652,41.652,0,0,1-4.692-15.25.713.713,0,0,1,1.415-.183,40.3,40.3,0,0,0,4.53,14.751,3.809,3.809,0,0,1-.018,4C4143.082,626.45,4138.4,628,4132.307,628Z" transform="translate(-4059.869 -557.989)" fill="#2e2e2e"/>
        <path id="Path_1003583" data-name="Path 1003583" d="M3961.747,224.164a.712.712,0,0,1-.56-.272c-2.231-2.828-1.921-5.03-1.268-6.38,1.265-2.616,5.032-4.312,9.6-4.321h.052c5.824,0,8.08,1.943,8.947,3.576,1.03,1.938.636,4.421-1.108,6.991a.713.713,0,0,1-1.18-.8c1.433-2.111,1.8-4.072,1.029-5.521-.966-1.819-3.7-2.819-7.689-2.819h-.048c-4.022.008-7.286,1.388-8.315,3.516-.682,1.41-.3,3.1,1.1,4.876a.713.713,0,0,1-.559,1.155Z" transform="translate(-3909.178 -213.192)" fill="#2e2e2e"/>
        <path id="Path_1003584" data-name="Path 1003584" d="M3580.891,1221.227a.716.716,0,0,1-.174-.021c-.318-.08-7.828-1.957-10.643-2.8-1.318-.4-2.859-.818-4.49-1.263a107.634,107.634,0,0,1-16.522-5.531c-6.438-2.975-10.4-6.456-12.1-10.642-1.1-2.691-.086-8.745,3-17.993l4.86-14.012a.713.713,0,0,1,1.348.467l-4.858,14c-3.707,11.1-3.7,15.368-3.033,17,3.565,8.749,18.077,12.712,27.68,15.335,1.64.448,3.19.871,4.525,1.274,2.783.838,10.5,2.767,10.578,2.787a.713.713,0,0,1-.172,1.405Z" transform="translate(-3536.531 -1054.945)" fill="#2e2e2e"/>
        <path id="Path_1003585" data-name="Path 1003585" d="M3898.822,834.524c-7.215,0-14.217-1.588-19.325-4.743a.713.713,0,0,1,.75-1.213c9.557,5.9,26.049,6.082,37.545.408a.713.713,0,0,1,.631,1.279A45.162,45.162,0,0,1,3898.822,834.524Z" transform="translate(-3838.438 -755.338)" fill="#2e2e2e"/>
        <g id="Group_1180397" data-name="Group 1180397" transform="translate(23.351 122.095)">
          <path id="Path_1003586" data-name="Path 1003586" d="M4002.625,1429.417s7.373,1.064,8.055,3.386,1.3,2.378.032,3.425a3.127,3.127,0,0,1-2.459.8s2.106,1.9,1.4,3.522-1.571,2.677-2.357,2.663-1.269-.041-1.269-.041a2.716,2.716,0,0,1,1.346,2.536c-.261,1.6-.705,2.82-1.369,2.943a21.511,21.511,0,0,1-2.467.12s1.2,1.793.27,2.649-1.867,2.087-3.883,1.4a19.943,19.943,0,0,1-4.717-2.493c-.425-.36,1.415-13.715,1.911-14.287.2-.236,1.182-1.409,2.258-2.7.14-.168-3.339-7.911-2.183-8.9,3.227-2.767,12.2-5.119,12.623-3.113,1.107,5.275-7.187,8.1-7.187,8.1Z" transform="translate(-3963.988 -1399.171)" fill="#fff"/>
          <path id="Path_1003587" data-name="Path 1003587" d="M3771.649,1271.467a.712.712,0,0,1-.528-1.191,17.3,17.3,0,0,1,4.656-3.181c1.7-.87,2.668-1.769,2.812-2.6a2.186,2.186,0,0,0-.785-1.813c-.271-.29-1.35-.8-5.5.753a103.319,103.319,0,0,0-10.111,4.71,7.534,7.534,0,0,1-3.035.842,7.415,7.415,0,0,1-1.342-.265c-4.842-1.168-23.438-10.279-24.228-10.667l-.571-.28,5.989-16.794a.713.713,0,1,1,1.343.479l-5.561,15.594c3.229,1.572,19.158,9.274,23.372,10.284l.021.005a7.632,7.632,0,0,0,1,.218,6.2,6.2,0,0,0,2.364-.685c9.475-4.861,15.345-7.265,17.308-5.169a3.528,3.528,0,0,1,1.149,3.032c-.23,1.324-1.4,2.509-3.566,3.623a16.468,16.468,0,0,0-4.253,2.873.714.714,0,0,1-.526.23Z" transform="translate(-3733.011 -1240.509)" fill="#2e2e2e"/>
          <path id="Path_1003588" data-name="Path 1003588" d="M3921.771,1612.345c-1.855,0-4.136-1.321-6.343-2.708-3.075-1.932-10.376-7.718-10.685-7.963a.713.713,0,0,1,.886-1.117c.075.06,7.549,5.983,10.558,7.873,1.607,1.01,4.6,2.889,6.128,2.414a1.494,1.494,0,0,0,.927-.933c.407-.94.507-1.7-1.934-2.936a.713.713,0,1,1,.644-1.272c1.893.958,3.682,2.274,2.6,4.776a2.891,2.891,0,0,1-1.814,1.729,3.245,3.245,0,0,1-.966.139Z" transform="translate(-3884.095 -1557.63)" fill="#2e2e2e"/>
          <path id="Path_1003589" data-name="Path 1003589" d="M4057.755,1498.71a12.428,12.428,0,0,1-3.074-.543.713.713,0,1,1,.371-1.377c1.753.472,3.061.7,3.746.252a2.195,2.195,0,0,0,.774-1.584c.294-1.832-1.926-2.554-5.874-3.672-.849-.24-1.726-.489-2.634-.773a.713.713,0,1,1,.427-1.361c.888.279,1.757.524,2.6.762a23.767,23.767,0,0,1,4.948,1.755,3.275,3.275,0,0,1,1.946,3.514,3.487,3.487,0,0,1-1.407,2.555,3.271,3.271,0,0,1-1.817.47Z" transform="translate(-4012.824 -1460.014)" fill="#2e2e2e"/>
          <path id="Path_1003590" data-name="Path 1003590" d="M4071.372,1559.44a5.563,5.563,0,0,1-2.491-.653.713.713,0,1,1,.637-1.276,3.365,3.365,0,0,0,2.747.337,1.851,1.851,0,0,0,1.047-1.021,3.1,3.1,0,0,0,.084-2.38,3.411,3.411,0,0,0-2.129-1.525.713.713,0,0,1,.448-1.354,4.744,4.744,0,0,1,2.961,2.25,4.5,4.5,0,0,1-.018,3.481,3.251,3.251,0,0,1-1.857,1.871,3.782,3.782,0,0,1-1.429.27Z" transform="translate(-4028.615 -1514.568)" fill="#2e2e2e"/>
          <path id="Path_1003591" data-name="Path 1003591" d="M4054.665,1610.021a5.29,5.29,0,0,1-2.7-.871.713.713,0,1,1,.733-1.223,3.05,3.05,0,0,0,2.594.555,1.945,1.945,0,0,0,1.046-1.376c.379-1.427.465-2.287-2.166-3.382a.713.713,0,0,1,.549-1.317c3.255,1.355,3.56,2.943,3,5.065a3.307,3.307,0,0,1-1.888,2.332,3.067,3.067,0,0,1-1.16.218Z" transform="translate(-4013.75 -1559.348)" fill="#2e2e2e"/>
        </g>
        <path id="Path_1003592" data-name="Path 1003592" d="M4562.567,855.042a.713.713,0,0,1-.625-1.055A39.419,39.419,0,0,0,4566.9,838.7c.16-2.034-.461-3.24-1.846-3.585a1.456,1.456,0,0,0-1.123.212,1.85,1.85,0,0,0-.825,1.076l-.678,3.792a5.458,5.458,0,0,1-2.3,3.639,3.026,3.026,0,0,1-2.4.409c-1.946-.536-2.761-1.939-2.493-4.291a.713.713,0,1,1,1.417.162c-.217,1.9.4,2.463,1.454,2.755a1.625,1.625,0,0,0,1.271-.248,4.043,4.043,0,0,0,1.649-2.7l.681-3.808a3.244,3.244,0,0,1,1.467-2,2.87,2.87,0,0,1,2.222-.385c1.217.3,3.216,1.367,2.923,5.081a40.9,40.9,0,0,1-5.126,15.86.713.713,0,0,1-.626.372Z" transform="translate(-4434.12 -759.909)" fill="#2e2e2e"/>
        <path id="Path_1003593" data-name="Path 1003593" d="M4374.2,761.841a.712.712,0,0,1-.61-.343c-.046-.076-4.658-7.657-7.636-10.833-2.354-2.512-3.423-5.151-2.79-6.887a2.839,2.839,0,0,1,2.595-1.8c2.794-.328,5.736,2.792,8.1,5.3.212-3.333.15-6.155.095-8.653a45.642,45.642,0,0,1,.128-6.335,5.92,5.92,0,0,1,1.935-4.174,3.205,3.205,0,0,1,2.432-.626c2.748.417,2.946,2.679,3.221,5.811a50.353,50.353,0,0,1,.114,5.976,3.736,3.736,0,0,1,2.743-1.02,3.559,3.559,0,0,1,3.142,1.907,3.492,3.492,0,0,1,2.929-1.137c1.572.184,2.738,1.477,3.117,3.458a.713.713,0,0,1-1.4.268c-.26-1.358-.946-2.2-1.882-2.31a2.324,2.324,0,0,0-2.271,1.521.779.779,0,0,1-1.485-.208,2.148,2.148,0,0,0-2.258-2.076,2.751,2.751,0,0,0-2.546,2.03.758.758,0,0,1-.76.631.767.767,0,0,1-.725-.692,15.486,15.486,0,0,1-.03-2.361,49.48,49.48,0,0,0-.108-5.862c-.3-3.467-.526-4.3-2.014-4.526a1.786,1.786,0,0,0-1.356.352,4.687,4.687,0,0,0-1.381,3.212,44.778,44.778,0,0,0-.118,6.129c.058,2.6.123,5.543-.116,9.064a1.23,1.23,0,0,1-2.244.809l-.19-.2c-2.036-2.161-4.824-5.12-6.908-4.874-1.153.136-1.355.689-1.421.871-.428,1.171.6,3.4,2.491,5.422,3.079,3.285,7.622,10.752,7.814,11.069a.713.713,0,0,1-.609,1.083Zm-.384-14.119Z" transform="translate(-4264.762 -666.341)" fill="#2e2e2e"/>
        <path id="Path_1003594" data-name="Path 1003594" d="M4511.551,850.156a2.352,2.352,0,0,1-1.746-.853c-1.3-1.43-1.861-4.505-1.473-8.025a.713.713,0,1,1,1.417.157c-.413,3.74.34,6.06,1.112,6.91a.961.961,0,0,0,.7.384c.917-.011,1.944-.326,2.553-3.93.146-.868.589-3.47.589-3.47l1.406.239s-.443,2.6-.589,3.468c-.424,2.512-1.224,5.085-3.941,5.118h-.026Z" transform="translate(-4392.729 -766.073)" fill="#2e2e2e"/>
        <path id="Path_1003595" data-name="Path 1003595" d="M4608.086,876.74a3.19,3.19,0,0,1-1.663-.494c-1.3-.8-1.739-2.758-1.293-5.829a.713.713,0,0,1,1.412.205c-.5,3.43.352,4.24.625,4.407a1.591,1.591,0,0,0,1.408.194c.749-.287,1.409-1.271,1.857-2.77a.713.713,0,1,1,1.366.409c-.6,1.989-1.508,3.231-2.714,3.693a2.783,2.783,0,0,1-1,.185Z" transform="translate(-4477.979 -791.769)" fill="#2e2e2e"/>
      </g>
      <g id="table" transform="translate(9.699 186.071)">
        <path id="Path_1003596" data-name="Path 1003596" d="M2800.948,1712.118c-38.839,0-77.67-.008-116.223-.024a.713.713,0,0,1,0-1.426h0c77.1.032,155.325.032,232.488,0a.713.713,0,1,1,0,1.426c-38.582.016-77.427.024-116.266.024Z" transform="translate(-2684.013 -1710.668)" fill="#2e2e2e"/>
      </g>
    </g>
  </g>
</svg>
