<svg xmlns="http://www.w3.org/2000/svg" width="70" height="70" viewBox="0 0 70 70">
  <g id="img44" transform="translate(-843 -9288.168)">
    <rect id="Rectangle_455619" data-name="Rectangle 455619" width="70" height="70" transform="translate(843 9288.168)" fill="#ff9a1a"/>
    <g id="Group_1181370" data-name="Group 1181370" transform="translate(853.908 9299.068)">
      <path id="Path_1008314" data-name="Path 1008314" d="M344.9,151.116a1.778,1.778,0,0,0,1.752-1.478.254.254,0,0,0-.249-.3H343.4a.254.254,0,0,0-.249.3A1.778,1.778,0,0,0,344.9,151.116Z" transform="translate(-310.854 -135.277)" fill="#593609"/>
      <path id="Path_1008315" data-name="Path 1008315" d="M125.875,158.5H122.9a.252.252,0,0,0-.247.3,1.76,1.76,0,0,0,3.469,0A.252.252,0,0,0,125.875,158.5Z" transform="translate(-111.107 -143.579)" fill="#593609"/>
      <path id="Path_1008316" data-name="Path 1008316" d="M218.524,246.009a7.069,7.069,0,1,0,7.07,7.069A7.077,7.077,0,0,0,218.524,246.009Zm0,12.257a5.187,5.187,0,1,1,5.187-5.187A5.193,5.193,0,0,1,218.524,258.266Z" transform="translate(-191.555 -222.849)" fill="#593609"/>
      <path id="Path_1008317" data-name="Path 1008317" d="M258.873,296.93l-1.56,1.56-.561-.561a1.129,1.129,0,0,0-1.6,1.6l1.359,1.359a1.129,1.129,0,0,0,1.6,0l2.358-2.358a1.129,1.129,0,1,0-1.6-1.6Z" transform="translate(-230.844 -268.679)" fill="#593609"/>
      <path id="Path_1008318" data-name="Path 1008318" d="M40.862,20.066l-.38-.039-2.616-1.244v-.516A6.586,6.586,0,0,0,40.64,12.9V11.393a5.574,5.574,0,0,0-3.565-9.867,5.637,5.637,0,0,0-.591.032,6.738,6.738,0,0,0-9.026,9.99V12.9a6.586,6.586,0,0,0,2.794,5.382v1.6a10.864,10.864,0,0,0-6.4-.049c-.074-.122-.151-.243-.236-.358a2.268,2.268,0,0,1-.188-2.4l.6-1.162a4.844,4.844,0,0,0-.347-5.042L22.653,9.42a5.741,5.741,0,0,1-.965-2.354,8.525,8.525,0,0,0-16.8,0A5.74,5.74,0,0,1,3.928,9.42L2.9,10.867a4.844,4.844,0,0,0-.348,5.042l.6,1.162a2.268,2.268,0,0,1-.189,2.4,4.587,4.587,0,0,0-.735,3.956A8.394,8.394,0,0,0,0,29.133V33.2a.941.941,0,0,0,.941.941h15.9a10.812,10.812,0,0,0,.576,1.246l-7.5,7.5a3.106,3.106,0,0,0,4.392,4.393l7.5-7.5A10.852,10.852,0,0,0,37.1,34.14H47.242a.941.941,0,0,0,.941-.941v-5.03a8.122,8.122,0,0,0-7.321-8.1ZM27.828,8.9A4.859,4.859,0,1,1,36.64,4.809a.941.941,0,1,0,1.725-.754c-.074-.169-.155-.334-.241-.495a3.689,3.689,0,0,1,2.142,5.413A3.01,3.01,0,0,0,36.2,7.792h0a4.413,4.413,0,0,1-4.232-.051A3.047,3.047,0,0,0,27.828,8.9Zm1.512,4V10.338a1.08,1.08,0,0,1,.548-.942,1.174,1.174,0,0,1,.594-.163,1.154,1.154,0,0,1,.566.149,6.31,6.31,0,0,0,6.052.063,1.121,1.121,0,0,1,1.656.985V12.9a4.709,4.709,0,1,1-9.418,0Zm6.524,6.335-1.9,2.594-1.832-1.933v-.689a6.571,6.571,0,0,0,3.73.028ZM4.441,11.954l1.023-1.447A7.6,7.6,0,0,0,6.747,7.388a6.643,6.643,0,0,1,13.087,0,7.607,7.607,0,0,0,1.283,3.119l1.023,1.447a2.969,2.969,0,0,1,.213,3.09l-.6,1.162a4.137,4.137,0,0,0,.314,4.339,10.885,10.885,0,0,0-1.705,1.078.928.928,0,0,0-.026-.124.941.941,0,0,0-.5-.591l-2.764-1.314V19.03a6.4,6.4,0,0,0,2.612-5.154V12.617a3.6,3.6,0,0,0-3.6-3.6h-.415a1.45,1.45,0,0,1-1.447-1.45.943.943,0,0,0-1.886,0,1.45,1.45,0,0,1-1.447,1.45h-.415a3.6,3.6,0,0,0-3.6,3.6v1.258a6.394,6.394,0,0,0,2.631,5.168v.55L6.793,20.886A8.352,8.352,0,0,0,3.96,22a2.73,2.73,0,0,1,.527-1.413,4.138,4.138,0,0,0,.344-4.383l-.6-1.162a2.969,2.969,0,0,1,.213-3.09ZM11.5,20.02a6.374,6.374,0,0,0,3.594-.007l-1.8,2.458ZM12,23.9l-1.555,1.259L8.52,22.149l1.633-.777Zm1.279-5.5a4.523,4.523,0,0,1-4.518-4.518V12.617A1.715,1.715,0,0,1,10.475,10.9h.415a3.318,3.318,0,0,0,2.39-1.015,3.318,3.318,0,0,0,2.39,1.015h.415A1.715,1.715,0,0,1,17.8,12.617v1.258a4.523,4.523,0,0,1-4.518,4.518ZM16.3,32.258H6.4V28.116a.941.941,0,0,0-1.882,0v4.142H1.882V29.133a6.524,6.524,0,0,1,4.841-6.3l2.706,4.224a.941.941,0,0,0,1.385.224l2.477-2,2.477,2a.926.926,0,0,0,.7.2,10.875,10.875,0,0,0-.161,4.774Zm-.169-7.1L14.579,23.9l1.848-2.525,1.633.777Zm-3.157,20.8a1.224,1.224,0,1,1-1.731-1.731L15,40.469,16.729,42.2Zm5.683-5.683-1.731-1.731,1.55-1.55a10.95,10.95,0,0,0,1.731,1.731ZM26.969,39.2a8.974,8.974,0,1,1,8.974-8.974A8.984,8.984,0,0,1,26.969,39.2ZM36.933,24.41l-1.586-1.284,1.877-2.564,1.666.792ZM46.3,32.258H37.634a10.871,10.871,0,0,0-.384-5.519l.059-.007a.941.941,0,0,0,.642-.422l2.795-4.363A6.244,6.244,0,0,1,46.3,28.169Z" fill="#593609"/>
    </g>
  </g>
</svg>
