<svg xmlns="http://www.w3.org/2000/svg" width="292" height="203.746" viewBox="0 0 292 203.746">
  <g id="img4" transform="translate(-1121.711 -1594.254)">
    <path id="Rectangle_455404" data-name="Rectangle 455404" d="M20,0H272a20,20,0,0,1,20,20V163a0,0,0,0,1,0,0H0a0,0,0,0,1,0,0V20A20,20,0,0,1,20,0Z" transform="translate(1121.711 1635)" fill="#faf2df"/>
    <g id="_Business_Consultant" transform="translate(636.86 1244.254)">
      <g id="Group_1179153" data-name="Group 1179153" transform="translate(522.85 350)">
        <g id="Group_1179060" data-name="Group 1179060" transform="translate(20.36 93.315)">
          <g id="Group_1179059" data-name="Group 1179059">
            <path id="Path_1002459" data-name="Path 1002459" d="M940.037,2162.1a53.952,53.952,0,0,0-17.05-8.108c-3.665-1.081-8.859-2.682-11.021-5.986-.623-.951-.968-3.453-.043-4.609a2.817,2.817,0,0,1-.036-4.77,5.778,5.778,0,0,1-1.941-2.556,2.952,2.952,0,0,1,2.424-3.372,3.848,3.848,0,0,1,1.753.125c-.8-2.279,1.373-3.838,3.534-3a8.445,8.445,0,0,1,2.627,1.974A19.539,19.539,0,0,0,931,2136.735a11.506,11.506,0,0,0,3.055.137c-.769-3.31-1-6.2.191-9.351a6.423,6.423,0,0,1,1.824-2.809,3.207,3.207,0,0,1,5.3,1.4c.969,2.67-.6,6.939.7,10.4,1.753,4.694,3.695,7.408,7.58,13.207a.606.606,0,0,1-1.007.675c-3.737-5.577-5.877-8.554-7.709-13.457-1.373-3.675.12-8.148-.7-10.416a2,2,0,0,0-3.389-.876,5.3,5.3,0,0,0-1.463,2.3c-1.142,3.023-.834,5.851-.02,9.167a.6.6,0,0,1-.3.675c-1,.547-2.636.342-3.834.192a21.116,21.116,0,0,1-11.765-5.294,7.832,7.832,0,0,0-2.242-1.733,1.585,1.585,0,0,0-1.945.46,1.483,1.483,0,0,0,.166,1.373,5.657,5.657,0,0,0,1.292,1.317.606.606,0,0,1-.732.964,5.445,5.445,0,0,0-3.4-1.18,1.767,1.767,0,0,0-1.481,1.891,5.758,5.758,0,0,0,2.323,2.465.606.606,0,0,1-.182,1.111,1.66,1.66,0,0,0-1.464,1.655,1.955,1.955,0,0,0,1.7,1.739h0a.606.606,0,0,1-.1,1.207h0c-1.212-.1-.865,2.707-.42,3.386.951,1.453,2.846,2.771,5.632,3.918,4.957,2.042,12.125,2.7,22.129,9.853a.606.606,0,0,1-.7.986Z" transform="translate(-909.878 -2123.83)"/>
          </g>
        </g>
        <g id="Group_1179062" data-name="Group 1179062" transform="translate(112.324 112.657)">
          <g id="Group_1179061" data-name="Group 1179061">
            <path id="Path_1002460" data-name="Path 1002460" d="M2694.618,2566.815c-4.576-.1-25.064-.61-36.595-.888.063-2.82,1.473-55.841,1.583-60.508.095-3.4-.253-6.041,1.26-8.895,2.752-5,7.395-4.162,11.172-4.6,1.479-.162,2.957-.307,4.436-.42-.124,1.672.955-12.964-5.477,74.355C2673.412,2565.959,2662.248,2565.509,2694.618,2566.815Z" transform="translate(-2658.023 -2491.499)" fill="#047aff"/>
          </g>
        </g>
        <g id="Group_1179064" data-name="Group 1179064" transform="translate(151.093 111.866)">
          <g id="Group_1179063" data-name="Group 1179063">
            <path id="Path_1002461" data-name="Path 1002461" d="M3424.187,2551.509c-.732,2.107-1.172,1.79-3.328,1.746-3.782-.082-25.053-.612-25.875-.622,1.974-82,1.825-75.82,1.833-76.164a36.118,36.118,0,0,1,13.532,2.262,22.81,22.81,0,0,1,8.264,5.615,10.734,10.734,0,0,1,1.591,1.987c.613,1.1.887,4.934,1.349,7.658a227.671,227.671,0,0,1,3.353,43.107C3424.833,2541.363,3425.568,2547.47,3424.187,2551.509Z" transform="translate(-3394.983 -2476.468)" fill="#ff9a1a"/>
          </g>
        </g>
        <g id="Group_1179066" data-name="Group 1179066" transform="translate(156.897 111.975)">
          <g id="Group_1179065" data-name="Group 1179065">
            <path id="Path_1002462" data-name="Path 1002462" d="M3505.32,2479.372a26.013,26.013,0,0,1,7.139,1.373,49.745,49.745,0,0,1,6.844,3.318c3.591,1.864,2.744-.069,8.105,7.808a105.47,105.47,0,0,1,18.216,57.721c.016,1.4-.047,2.935-.985,3.973-1.1,1.22-2.964,1.279-4.608,1.249l-19.2-.349a395.552,395.552,0,0,0-.2-60.312c-.3-3.7-.669-7.543-2.1-10.994a3.121,3.121,0,0,0-.68-1.2,9.41,9.41,0,0,0-1-.674,12.165,12.165,0,0,0-2.543-1.134c-2.725-1.029-5.694-1.2-8.864-1.611Z" transform="translate(-3505.32 -2478.54)" fill="#ff9a1a"/>
          </g>
        </g>
        <g id="Group_1179068" data-name="Group 1179068" transform="translate(44.545 112.302)">
          <g id="Group_1179067" data-name="Group 1179067">
            <path id="Path_1002463" data-name="Path 1002463" d="M1455.848,2484.76c-.006.082-3.881,52.791-3.635,49.448-5.987,3.721-14.734,9.175-20.729,12.942a.541.541,0,0,0,0-.113,8.654,8.654,0,0,0-8.062-8.127c-6.4-.292-9.59,6.943-5.574,12.182a23.844,23.844,0,0,1-19.825-8.854c-6.662-8.953-25.457-34.238-25.673-34.528-.614-.824-2.779-2.892-2.747-3.9.024-.986,1.971-2.973,2.5-3.757,2.792-4.156,7.333-10.906,10.155-15.082,35.73,33.333,33.652,31.422,33.865,31.586,1.05.808,1.308.485,2.011-.654,4.411-7.085,9.169-13.976,13.8-20.94a35.1,35.1,0,0,1,3.11-4.2,15.072,15.072,0,0,1,9.856-4.9Z" transform="translate(-1369.601 -2484.76)" fill="#ff9a1a"/>
          </g>
        </g>
        <g id="Group_1179070" data-name="Group 1179070" transform="translate(142.133 152.609)">
          <g id="Group_1179069" data-name="Group 1179069">
            <path id="Path_1002464" data-name="Path 1002464" d="M3224.684,3250.972l-.007-.017C3224.7,3250.948,3224.708,3250.948,3224.684,3250.972Z" transform="translate(-3224.677 -3250.951)" fill="#047aff"/>
          </g>
        </g>
        <g id="Group_1179072" data-name="Group 1179072" transform="translate(169.341 69.047)">
          <g id="Group_1179071" data-name="Group 1179071">
            <path id="Path_1002465" data-name="Path 1002465" d="M3746.161,1695.486a5.832,5.832,0,0,1-.007-2.885c.352-1.9.768-3.878,1.237-5.882-3.159-2.944-5.038-6.22-5.439-9.491-.635-5.212,2.627-10.736,7.758-13.136,5.263-2.464,11.859-2.024,18.1,1.208,3.25,1.685,10.767,6.425,10.355,14.038a10.179,10.179,0,0,1-.738,3.327c-1.182,2.887-3.3,4.558-5.754,6.293-4.184,2.965-10.344,4.274-17.9,2.019l-.15-.045c-.664-.2-.665-.2-1.166.194-1.814,1.421-3.595,2.969-5.3,4.6A.606.606,0,0,1,3746.161,1695.486Zm4.062-30.3h0c-4.67,2.184-7.642,7.185-7.068,11.891.474,3.876,3.151,7.025,5.313,8.983a.606.606,0,0,1,.183.588c-.291,1.226-1.405,6.124-1.464,7.379,1.516-1.406,3.013-2.679,4.518-3.859,1.04-.815,1.339-.641,2.41-.357,7.117,2.124,12.914.945,16.855-1.846,3.225-2.284,5.76-4.566,5.982-8.7.374-6.908-6.661-11.32-9.7-12.9C3761.906,1663.609,3755.584,1662.68,3750.223,1665.189Z" transform="translate(-3741.873 -1662.515)"/>
          </g>
        </g>
        <g id="Group_1179074" data-name="Group 1179074" transform="translate(174.502 77.638)">
          <g id="Group_1179073" data-name="Group 1179073">
            <path id="Path_1002466" data-name="Path 1002466" d="M3854.976,1834.581a3.266,3.266,0,0,1-2.657.959,6.8,6.8,0,0,1-3.078-1.258,11.332,11.332,0,0,1-1.149-.834c-1.844,2.061-4.3,2.276-5.869,1.3-2.276-1.412-3.187-5.633-1.053-8.671a.606.606,0,0,1,.992.7c-1.75,2.491-.959,5.915.7,6.945,1.063.66,2.909.552,4.385-1.15-1.6-2.11-.462-4.413,1-4.423a1.651,1.651,0,0,1,1.574,1.539,4.787,4.787,0,0,1-1,2.793,10.031,10.031,0,0,0,1.074.782,5.749,5.749,0,0,0,2.518,1.066,1.916,1.916,0,0,0,1.917-.958.607.607,0,0,1,1.042-.142,3.72,3.72,0,0,0,5.815.1.606.606,0,0,1,.936.77A4.933,4.933,0,0,1,3854.976,1834.581Zm-6.715-5.219h0c-.381,0-.917,1-.261,2.156a3.465,3.465,0,0,0,.623-1.692C3848.6,1829.6,3848.413,1829.362,3848.26,1829.362Z" transform="translate(-3839.962 -1825.824)" fill="#ff9a1a"/>
          </g>
        </g>
        <g id="Group_1179076" data-name="Group 1179076" transform="translate(26.156 103.339)">
          <g id="Group_1179075" data-name="Group 1179075">
            <path id="Path_1002467" data-name="Path 1002467" d="M1028.242,2319.583a21.54,21.54,0,0,1-7.978-4.133.606.606,0,1,1,.771-.935,20.328,20.328,0,0,0,7.526,3.9.606.606,0,1,1-.319,1.169Z" transform="translate(-1020.044 -2314.376)"/>
          </g>
        </g>
        <g id="Group_1179078" data-name="Group 1179078" transform="translate(23.148 107.552)">
          <g id="Group_1179077" data-name="Group 1179077">
            <path id="Path_1002468" data-name="Path 1002468" d="M971.215,2398.886a29.143,29.143,0,0,1-8.047-3.289.606.606,0,1,1,.62-1.04,27.968,27.968,0,0,0,7.714,3.152.606.606,0,0,1-.286,1.178Z" transform="translate(-962.872 -2394.471)"/>
          </g>
        </g>
        <g id="Group_1179080" data-name="Group 1179080" transform="translate(23.531 112.197)">
          <g id="Group_1179079" data-name="Group 1179079">
            <path id="Path_1002469" data-name="Path 1002469" d="M976.694,2486.18a30.334,30.334,0,0,1-6.208-2.277.606.606,0,1,1,.539-1.086,29.157,29.157,0,0,0,5.96,2.187.606.606,0,1,1-.291,1.176Z" transform="translate(-970.15 -2482.753)"/>
          </g>
        </g>
        <g id="Group_1179082" data-name="Group 1179082" transform="translate(172.201 163.911)">
          <g id="Group_1179081" data-name="Group 1179081">
            <path id="Path_1002470" data-name="Path 1002470" d="M3796.883,3490.613a.605.605,0,0,1-.531-.673,95.274,95.274,0,0,0-.122-23.465.606.606,0,0,1,1.2-.155,96.535,96.535,0,0,1,.123,23.763A.607.607,0,0,1,3796.883,3490.613Z" transform="translate(-3796.225 -3465.792)"/>
          </g>
        </g>
        <g id="Group_1179084" data-name="Group 1179084" transform="translate(132.214 98.513)">
          <g id="Group_1179083" data-name="Group 1179083">
            <path id="Path_1002471" data-name="Path 1002471" d="M3040.02,2242.384a7.566,7.566,0,0,1-3.42-3.406,6.363,6.363,0,0,1-.359-3.888c.37-3.164.078-4.069.815-8.56a.606.606,0,0,1,1.2.2,63,63,0,0,0-.708,7.547c-.118,1.491-.5,2.961.126,4.136a6.443,6.443,0,0,0,2.849,2.871,13.376,13.376,0,0,0,14.065-2.289c1.19-18.649.891-14.215,1-15.789a.606.606,0,1,1,1.208.083c-.1,1.455-.189,3.159-.283,4.629-.816,11.762-.584,11.5-.93,11.815A14.615,14.615,0,0,1,3040.02,2242.384Z" transform="translate(-3036.109 -2222.637)"/>
          </g>
        </g>
        <g id="Group_1179086" data-name="Group 1179086" transform="translate(151.681 79.555)">
          <g id="Group_1179085" data-name="Group 1179085">
            <path id="Path_1002472" data-name="Path 1002472" d="M3406.292,1882.275a.606.606,0,0,1,.117-.849,18.039,18.039,0,0,0,5.839-8.209.606.606,0,0,1,1.005-.215,4.553,4.553,0,0,0,3.414,1.167,4.25,4.25,0,0,0,3.09-1.634,7.446,7.446,0,0,0,.266-7.361c-1.31-2.076-3.988-2.14-5.98-.743a.606.606,0,1,1-.7-.992c2.569-1.8,6.016-1.583,7.7,1.089a8.616,8.616,0,0,1-.33,8.745,5.71,5.71,0,0,1-7.639,1.152,18.321,18.321,0,0,1-5.938,7.965A.607.607,0,0,1,3406.292,1882.275Z" transform="translate(-3406.168 -1862.27)"/>
          </g>
        </g>
        <g id="Group_1179088" data-name="Group 1179088" transform="translate(123.048 57.677)">
          <g id="Group_1179087" data-name="Group 1179087">
            <path id="Path_1002473" data-name="Path 1002473" d="M2872.626,1446.5a.606.606,0,1,1,.68,1c-5.736,3.888-9.092,11.561-9.873,17.44-.957,7.2.151,15.915,4.487,21.521a13.826,13.826,0,0,0,9.375,5.53,16.227,16.227,0,0,0,5.872-.635.606.606,0,0,1,.33,1.166C2860.258,1499.1,2854.4,1458.852,2872.626,1446.5Z" transform="translate(-2861.885 -1446.394)"/>
          </g>
        </g>
        <g id="Group_1179090" data-name="Group 1179090" transform="translate(123.368 74.687)">
          <g id="Group_1179089" data-name="Group 1179089">
            <path id="Path_1002474" data-name="Path 1002474" d="M2868.088,1771.4a.606.606,0,0,1,.1-.852,3.805,3.805,0,0,1,1.982-.68,12.882,12.882,0,0,1,4.515.117.606.606,0,1,1-.271,1.181,11.7,11.7,0,0,0-4.1-.1,2.8,2.8,0,0,0-1.373.424A.607.607,0,0,1,2868.088,1771.4Z" transform="translate(-2867.956 -1769.733)"/>
          </g>
        </g>
        <g id="Group_1179092" data-name="Group 1179092" transform="translate(159.533 82.655)">
          <g id="Group_1179091" data-name="Group 1179091">
            <path id="Path_1002475" data-name="Path 1002475" d="M3558.679,1925.6a.605.605,0,0,1-.546-.66,4.322,4.322,0,0,0-.058-1.533,1.407,1.407,0,0,0-.718-.942.7.7,0,0,0-.814.174.605.605,0,0,1-.835.19c-.926-.583.581-2.15,2.131-1.476a2.586,2.586,0,0,1,1.4,1.73,5.377,5.377,0,0,1,.1,1.971A.605.605,0,0,1,3558.679,1925.6Z" transform="translate(-3555.425 -1921.192)"/>
          </g>
        </g>
        <g id="Group_1179094" data-name="Group 1179094" transform="translate(131.907 77.199)">
          <g id="Group_1179093" data-name="Group 1179093">
            <path id="Path_1002476" data-name="Path 1002476" d="M3034.081,1828.351c-.762-.047-3.079-.191-3.674-1.923-.5-1.451.57-2.66,1.288-3.829a5.909,5.909,0,0,0,.662-4.376.606.606,0,0,1,1.181-.27,7.134,7.134,0,0,1-.81,5.28c-.6.968-1.462,1.965-1.175,2.8.223.65,1.074,1.012,2.6,1.107a.606.606,0,1,1-.074,1.209Z" transform="translate(-3030.28 -1817.481)"/>
          </g>
        </g>
        <g id="Group_1179096" data-name="Group 1179096" transform="translate(141.891 78.339)">
          <g id="Group_1179095" data-name="Group 1179095" transform="translate(0 0)">
            <ellipse id="Ellipse_13825" data-name="Ellipse 13825" cx="1.291" cy="2.53" rx="1.291" ry="2.53" transform="translate(0 0.016) rotate(-0.349)"/>
          </g>
        </g>
        <g id="Group_1179098" data-name="Group 1179098" transform="translate(126.727 78.432)">
          <g id="Group_1179097" data-name="Group 1179097" transform="translate(0 0)">
            <ellipse id="Ellipse_13826" data-name="Ellipse 13826" cx="1.291" cy="2.53" rx="1.291" ry="2.53" transform="translate(0 0.016) rotate(-0.349)"/>
          </g>
        </g>
        <g id="Group_1179100" data-name="Group 1179100" transform="translate(139.932 75.187)">
          <g id="Group_1179099" data-name="Group 1179099">
            <path id="Path_1002477" data-name="Path 1002477" d="M3191.593,1782.372a8.826,8.826,0,0,0-7.992-1.569.606.606,0,1,1-.347-1.161,10.067,10.067,0,0,1,9.115,1.8.606.606,0,0,1-.775.931Z" transform="translate(-3182.821 -1779.238)"/>
          </g>
        </g>
        <g id="Group_1179102" data-name="Group 1179102" transform="translate(121.804 45.554)">
          <g id="Group_1179101" data-name="Group 1179101">
            <path id="Path_1002478" data-name="Path 1002478" d="M2881.913,1243.434a44.245,44.245,0,0,1-6.221,7.885,16.312,16.312,0,0,0-1.866-7.4c-1.417-2.726-2.935-3.584-5.986-4.071-6.088-1.024-9.622.227-14.065-.081-2.8-.186-5.727-1.131-7.505-3.3-.153-.194-3.352,3.9-3.6,4.3a26.477,26.477,0,0,0-1.834,4.338c-.638,1.551-.832,1.075-1.446-.444-2.612-6.465-.464-11.71,3.021-13.814-1.8-2,.259-5.918,1.939-8.022a16.727,16.727,0,0,0,2.011.6,5.257,5.257,0,0,1,2.1,1.793c.662-.719,1.341-1.438,2-2.157q1.006,1.539,2.028,3.062c2-1.495,4.758-1.495,7.165-.848,3.134.813,4.384,2.349,6.3,5.073.23-4-3.244-7.916-8.879-8.2a4.007,4.007,0,0,0-2.666.614,13.181,13.181,0,0,1-1.252-3.506,8.8,8.8,0,0,0-3.021,1.664,16.133,16.133,0,0,0-1.891-1.7c5.687-3.832,12.9-4.044,19.437-1.963,4.89,1.556,7.135,3.7,8.879,7.8.367.881.578,1,1.526,1.276a9.221,9.221,0,0,1,5.978,7.457A15.074,15.074,0,0,1,2881.913,1243.434Z" transform="translate(-2838.229 -1215.94)"/>
          </g>
        </g>
        <g id="Group_1179104" data-name="Group 1179104" transform="translate(41.531 187.771)">
          <g id="Group_1179103" data-name="Group 1179103" transform="translate(0 0)">
            <path id="Path_1002479" data-name="Path 1002479" d="M1478.207,3928.062c-.313,0,.417.306-12.841-7.489H1312.929a.606.606,0,0,1,0-1.211h152.6a.6.6,0,0,1,.308.084l12.676,7.489A.606.606,0,0,1,1478.207,3928.062Z" transform="translate(-1312.323 -3919.361)"/>
          </g>
        </g>
        <g id="Group_1179106" data-name="Group 1179106" transform="translate(0 189.622)">
          <g id="Group_1179105" data-name="Group 1179105">
            <path id="Path_1002480" data-name="Path 1002480" d="M522.976,3965.532a.606.606,0,0,1,.111-.85l13.047-10.025a.606.606,0,0,1,.738.961l-13.047,10.025A.606.606,0,0,1,522.976,3965.532Z" transform="translate(-522.85 -3954.532)"/>
          </g>
        </g>
        <g id="Group_1179108" data-name="Group 1179108" transform="translate(61.931 149.875)">
          <g id="Group_1179107" data-name="Group 1179107">
            <path id="Path_1002481" data-name="Path 1002481" d="M1797.462,3236.923l-19.542-.4a3.468,3.468,0,0,1-3.3-2.641c-1.438-5.865-5.009-20.261-7.271-27.911l-1.123-4.37a3.471,3.471,0,0,0-3.4-2.609c-10.211.1-46.306.468-59.272.6a3.485,3.485,0,0,0-3.288,4.524c13.545,43.128,10.6,33.746,11.585,36.886a3.483,3.483,0,0,0,3.247,2.44l82.2,1.689a3.469,3.469,0,0,0,3.546-3.4l.032-1.252A3.481,3.481,0,0,0,1797.462,3236.923Zm-60.21-5.8a8.5,8.5,0,0,1-6.293-3.376c-4.009-5.232-.834-12.475,5.574-12.183a8.654,8.654,0,0,1,8.063,8.127.538.538,0,0,1,0,.113A6.934,6.934,0,0,1,1737.253,3231.122Z" transform="translate(-1700.101 -3198.986)"/>
          </g>
        </g>
        <g id="Group_1179110" data-name="Group 1179110" transform="translate(69.507 82.524)">
          <g id="Group_1179109" data-name="Group 1179109">
            <path id="Path_1002482" data-name="Path 1002482" d="M1874.276,1958.106c-7.678-2.571-13.4-8.9-14.89-13.866-5.269.459-12.612-4.335-14.7-12.259a17.414,17.414,0,0,1,1.7-12.971.606.606,0,1,1,1.052.6,16.2,16.2,0,0,0-1.579,12.062c1.912,7.238,8.543,11.644,13.241,11.374-.417-2.2-.256-4.925,1.371-6.469a3.308,3.308,0,0,1,4.279-.329c2.287,1.948.63,6.651-4.151,7.8,1.44,4.587,6.887,10.509,14.068,12.912a.606.606,0,0,1-.385,1.15Zm-12.977-20.65c-1.307,1.24-1.348,3.653-1,5.415,3.792-.894,5.158-4.427,3.664-5.7A2.1,2.1,0,0,0,1861.3,1937.456Z" transform="translate(-1844.119 -1918.703)" fill="#ff9a1a"/>
          </g>
        </g>
        <g id="Group_1179112" data-name="Group 1179112" transform="translate(136.38 93.3)">
          <g id="Group_1179111" data-name="Group 1179111">
            <path id="Path_1002483" data-name="Path 1002483" d="M3115.914,2126.649a.606.606,0,0,1-.011-1.211,5.492,5.492,0,0,0,3.823-1.694.606.606,0,1,1,.883.831A6.505,6.505,0,0,1,3115.914,2126.649Z" transform="translate(-3115.308 -2123.553)"/>
          </g>
        </g>
        <g id="Group_1179114" data-name="Group 1179114" transform="translate(7.054 0)">
          <g id="Group_1179113" data-name="Group 1179113">
            <path id="Path_1002484" data-name="Path 1002484" d="M665.806,424.865c-3.75-.384-4.9-1.548-5.74-4.328-1.924-6.356-2.056-13.732-2.183-20.867-.208-11.659-1.633-24.065-.53-39.58.344-4.829,1.707-8.126,7.244-8.517,7.7-.543,61.669-1.036,82.762-1.546,3.4-.082,10.483-.254,13.16,4.169,1.283,2.121,1.824,4.806,1.7,8.45h0c-.069,2.031-.327,4.033-.577,5.97-.44,3.411-.114.876-2.358,22.4-.88,8.528-.914,17.756-3.651,26.02a9.515,9.515,0,0,1-2.227,4.05c-1.889,1.8-4.688,2.044-6.233,2.045l-53.612,1.629C684.478,425.036,674.946,425.8,665.806,424.865Zm81.582-73.626c-18.287.442-75.289,1.019-82.705,1.543-4.2.3-5.748,2.163-6.12,7.394-1.095,15.4.326,27.865.533,39.472.126,7.051.256,14.343,2.132,20.537.708,2.338,1.472,3.144,4.7,3.474,9.047.926,18.527.164,27.595-.111l53.634-1.629c1.39,0,3.831-.205,5.413-1.711a8.5,8.5,0,0,0,1.913-3.554c2.681-8.1,2.718-17.257,3.6-25.764,2.238-21.458,1.922-19.025,2.362-22.429.246-1.909.5-3.883.568-5.856h0C761.337,352.887,757.014,351,747.387,351.239Z" transform="translate(-656.939 -350)" fill="#ff9a1a"/>
          </g>
        </g>
        <g id="Group_1179116" data-name="Group 1179116" transform="translate(11.323 9.083)">
          <g id="Group_1179115" data-name="Group 1179115" transform="translate(0 0)">
            <circle id="Ellipse_13827" data-name="Ellipse 13827" cx="2.18" cy="2.18" r="2.18" transform="translate(0 4.244) rotate(-76.721)"/>
          </g>
        </g>
        <g id="Group_1179118" data-name="Group 1179118" transform="translate(21.101 8.362)">
          <g id="Group_1179117" data-name="Group 1179117" transform="translate(0 0)">
            <circle id="Ellipse_13828" data-name="Ellipse 13828" cx="2.18" cy="2.18" r="2.18" transform="translate(0 0.495) rotate(-6.523)"/>
          </g>
        </g>
        <g id="Group_1179120" data-name="Group 1179120" transform="translate(29.959 8.708)">
          <g id="Group_1179119" data-name="Group 1179119">
            <circle id="Ellipse_13829" data-name="Ellipse 13829" cx="2.18" cy="2.18" r="2.18"/>
          </g>
        </g>
        <g id="Group_1179122" data-name="Group 1179122" transform="translate(10.97 15.297)">
          <g id="Group_1179121" data-name="Group 1179121">
            <path id="Path_1002485" data-name="Path 1002485" d="M731.525,643.51c.584-.677,37.158-1.451,86.612-2.723a.606.606,0,0,1,.029,1.212c-28.8.694-83.629,2.1-85.981,2.479A.607.607,0,0,1,731.525,643.51Z" transform="translate(-731.376 -640.787)" fill="#ff9a1a"/>
          </g>
        </g>
        <g id="Group_1179124" data-name="Group 1179124" transform="translate(32.384 31.447)">
          <g id="Group_1179123" data-name="Group 1179123">
            <path id="Path_1002486" data-name="Path 1002486" d="M1138.652,971.285c0,1.032.093,2.368,1.07,2.971.676.417,1.288.333,4.529.268,1.979-.04,2.955-.507,3.206-3.45.637-7.442.257-14.844.075-22.292a1.038,1.038,0,0,0-.289-.849c-.343-.25-1-.129-1.4-.133a45.509,45.509,0,0,0-5.2.251c-1.626.172-2.27.686-2.19,2.67.273,6.8.371-2.314.264,15.847C1138.7,968.14,1138.657,969.716,1138.652,971.285Z" transform="translate(-1138.443 -947.774)"/>
          </g>
        </g>
        <g id="Group_1179126" data-name="Group 1179126" transform="translate(67.674 33.406)">
          <g id="Group_1179125" data-name="Group 1179125">
            <path id="Path_1002487" data-name="Path 1002487" d="M1809.379,1006.087c-.008.924.081,2.119,1.056,2.654.673.37,1.283.292,4.526.219,2.01-.045,2.958-.488,3.221-3.1.672-6.664.326-13.287.178-19.953-.024-1.094-.671-.867-1.685-.87a50.813,50.813,0,0,0-5.2.249c-1.629.162-2.272.628-2.2,2.4.068,1.708.338,3.373.3,5.088C1809.4,1006.957,1809.4,1004.108,1809.379,1006.087Z" transform="translate(-1809.267 -985.017)"/>
          </g>
        </g>
        <g id="Group_1179128" data-name="Group 1179128" transform="translate(51.13 39.967)">
          <g id="Group_1179127" data-name="Group 1179127">
            <path id="Path_1002488" data-name="Path 1002488" d="M1495.034,1124.926c0,1.86,1.143,2.049,2.94,1.945,3.14-.182,3.836-.171,4.546-.473a2.23,2.23,0,0,0,1.305-2c.622-4.724.228-9.377.032-14.067-.034-.806-.817-.577-1.689-.543-1.709.067-3.444.2-5.193.393-1.389.156-2.274.4-2.182,1.783.08,1.2.362,2.363.334,3.573C1495.053,1127.321,1495.04,1122.513,1495.034,1124.926Z" transform="translate(-1494.786 -1109.73)"/>
          </g>
        </g>
        <g id="Group_1179130" data-name="Group 1179130" transform="translate(22.311 29.884)">
          <g id="Group_1179129" data-name="Group 1179129">
            <path id="Path_1002489" data-name="Path 1002489" d="M948.4,952.323a.606.606,0,0,1-.606-.594c-.222-10.917-.618-22.073-.841-33.039a.606.606,0,0,1,.594-.618h.013a.606.606,0,0,1,.606.594c.218,10.728.6,21.615.828,32.422,19.45-.738,39.216-.2,58.53-2.571a.606.606,0,1,1,.147,1.2c-19.593,2.405-39.625,1.83-59.247,2.6Z" transform="translate(-946.954 -918.072)" fill="#ff9a1a"/>
          </g>
        </g>
        <g id="Group_1179132" data-name="Group 1179132" transform="translate(17.486 22.302)">
          <g id="Group_1179131" data-name="Group 1179131">
            <path id="Path_1002490" data-name="Path 1002490" d="M855.526,781.155a.606.606,0,0,1-.2-.833,69.8,69.8,0,0,1,4.217-6.145.607.607,0,0,1,.874-.091,26.107,26.107,0,0,1,4.651,5.827.606.606,0,0,1-1.015.661,27.836,27.836,0,0,0-3.946-5.138c-1.334,1.772-2.592,3.625-3.747,5.516A.606.606,0,0,1,855.526,781.155Z" transform="translate(-855.235 -773.941)" fill="#ff9a1a"/>
          </g>
        </g>
        <g id="Group_1179134" data-name="Group 1179134" transform="translate(29.527 156.468)">
          <g id="Group_1179133" data-name="Group 1179133">
            <path id="Path_1002491" data-name="Path 1002491" d="M1089.461,3340.094a.605.605,0,0,1,.107-.85c5.174-4.017,8.947-4.052,11.746-6.154,1.469-1.091,2.748-3.124,2.094-5.013a4.246,4.246,0,0,0-3.683-2.536,9.641,9.641,0,0,0-4.913,1.173,23.594,23.594,0,0,0-9.576,8.365.606.606,0,0,1-1.013-.666,24.806,24.806,0,0,1,10.07-8.793,11.117,11.117,0,0,1,5.538-1.284,5.431,5.431,0,0,1,4.723,3.346c.854,2.465-.7,5.034-2.514,6.38-3.109,2.335-6.545,2.118-11.728,6.14A.606.606,0,0,1,1089.461,3340.094Z" transform="translate(-1084.123 -3324.31)"/>
          </g>
        </g>
        <g id="Group_1179136" data-name="Group 1179136" transform="translate(3.324 140.303)">
          <g id="Group_1179135" data-name="Group 1179135">
            <path id="Path_1002492" data-name="Path 1002492" d="M607.842,3048.8a37.371,37.371,0,0,0-16.923-21.628c-2.416-1.377-5.724-3.262-4.685-6.967,1.308-4.673,8.307-3.334,12.691-1.291a25.575,25.575,0,0,1,12.75,13.9,43.939,43.939,0,0,1,1.67,15.857.606.606,0,1,1-1.208-.1,42.77,42.77,0,0,0-1.554-15.229c-.026-.066-.122-.306-.159-.385a24.3,24.3,0,0,0-12.01-12.943c-3.393-1.581-9.968-3.213-11.013.519-.854,3.046,2.127,4.405,4.895,6.036,7.4,4.36,13.623,12.067,16.7,21.869a.606.606,0,0,1-1.156.363Z" transform="translate(-586.038 -3017.039)"/>
          </g>
        </g>
        <g id="Group_1179138" data-name="Group 1179138" transform="translate(12.033 177.294)">
          <g id="Group_1179137" data-name="Group 1179137">
            <path id="Path_1002493" data-name="Path 1002493" d="M759.678,3739.5a12.617,12.617,0,0,1-6.365-4.908c-1.632-2.432-1.435-4.884-1.644-7.808a32.055,32.055,0,0,1,.123-6.018.606.606,0,1,1,1.2.139,30.806,30.806,0,0,0-.119,5.792c.2,2.849,0,5.078,1.442,7.22a11.381,11.381,0,0,0,5.737,4.432c6.652,2.18,14.238.714,18.281-2.508,2.336-1.849,2.667-3.626,3.028-6.521a53.745,53.745,0,0,0,.784-8.485.6.6,0,0,1,.575-.635.612.612,0,0,1,.635.574,55.487,55.487,0,0,1-.791,8.7,16.124,16.124,0,0,1-.824,3.888C779.692,3738.7,769.146,3742.6,759.678,3739.5Z" transform="translate(-751.583 -3720.196)"/>
          </g>
        </g>
        <g id="Group_1179140" data-name="Group 1179140" transform="translate(12.727 177.952)">
          <g id="Group_1179139" data-name="Group 1179139">
            <path id="Path_1002494" data-name="Path 1002494" d="M781.682,3732.779l-16.91,2.419.145-2.5Z" transform="translate(-764.772 -3732.7)"/>
          </g>
        </g>
        <g id="Group_1179142" data-name="Group 1179142" transform="translate(19.657 153.067)">
          <g id="Group_1179141" data-name="Group 1179141">
            <path id="Path_1002495" data-name="Path 1002495" d="M904.057,3276.392a.4.4,0,0,1-.4-.38,24.48,24.48,0,0,0-7.034-15.66.4.4,0,0,1,.571-.572,25.3,25.3,0,0,1,7.269,16.184.4.4,0,0,1-.379.426Z" transform="translate(-896.503 -3259.662)"/>
          </g>
        </g>
        <g id="Group_1179145" data-name="Group 1179145" transform="translate(28.259 145.426)">
          <g id="Group_1179144" data-name="Group 1179144">
            <g id="Group_1179143" data-name="Group 1179143">
              <path id="Path_1002496" data-name="Path 1002496" d="M1075.3,3114.68c-4.355-1.4-12.821,2.847-15.276,10.268.073.154.129.315.194.476a43.133,43.133,0,0,1,1.672,13.637,25.978,25.978,0,0,1,11.431-14.953c2.262-1.35,5.073-2.86,5.138-5.485A4.347,4.347,0,0,0,1075.3,3114.68Zm-3.813,6.673a20.819,20.819,0,0,0-8.407,8.267.606.606,0,0,1-1.061-.585,22.045,22.045,0,0,1,8.9-8.753.606.606,0,0,1,.567,1.072Z" transform="translate(-1060.02 -3114.416)"/>
            </g>
          </g>
        </g>
        <g id="Group_1179147" data-name="Group 1179147" transform="translate(31.267 162.562)">
          <g id="Group_1179146" data-name="Group 1179146">
            <path id="Path_1002497" data-name="Path 1002497" d="M1117.376,3448.315a.4.4,0,0,1-.1-.562,21.728,21.728,0,0,1,9.242-7.572.4.4,0,0,1,.318.743,20.91,20.91,0,0,0-8.894,7.287A.4.4,0,0,1,1117.376,3448.315Z" transform="translate(-1117.201 -3440.149)"/>
          </g>
        </g>
        <g id="Group_1179150" data-name="Group 1179150" transform="translate(6.487 162.339)">
          <g id="Group_1179149" data-name="Group 1179149">
            <g id="Group_1179148" data-name="Group 1179148">
              <path id="Path_1002498" data-name="Path 1002498" d="M664.008,3441.716a20.7,20.7,0,0,0-13.782-5.809c-1.6-.032-3.571.4-4,1.939a2.77,2.77,0,0,0,1.034,2.714c1.5,1.272,4.131,1.457,10.93,4.887h7.182C664.978,3444.188,664.525,3442.936,664.008,3441.716Zm-2.39,1.862a.606.606,0,0,1-.347-.109,17.837,17.837,0,0,0-8.688-3.15.606.606,0,1,1,.1-1.207,19.047,19.047,0,0,1,9.279,3.363A.607.607,0,0,1,661.618,3443.578Z" transform="translate(-646.154 -3435.906)"/>
            </g>
          </g>
        </g>
        <g id="Group_1179152" data-name="Group 1179152" transform="translate(9.516 171.275)">
          <g id="Group_1179151" data-name="Group 1179151">
            <path id="Path_1002499" data-name="Path 1002499" d="M736.935,3613.063H707.392a3.64,3.64,0,1,1,0-7.279h29.543a3.64,3.64,0,1,1,0,7.279ZM707.392,3607a2.428,2.428,0,1,0,0,4.856h29.543a2.428,2.428,0,1,0,0-4.856Z" transform="translate(-703.748 -3605.784)"/>
          </g>
        </g>
      </g>
    </g>
  </g>
</svg>
