<svg xmlns="http://www.w3.org/2000/svg" width="96" height="96" viewBox="0 0 96 96">
  <g id="img49" transform="translate(-794.039 -2920.081)">
    <path id="Elipse_5729" data-name="Elipse 5729" d="M48,0A48,48,0,1,1,0,48,48,48,0,0,1,48,0Z" transform="translate(794.039 2920.081)" fill="#ff9a1a"/>
    <g id="Group_1180464" data-name="Group 1180464" transform="translate(805.294 2939.024)">
      <path id="Path_1004041" data-name="Path 1004041" d="M284.775,7.659A25.98,25.98,0,0,0,266.283,0a.851.851,0,0,0-.851.851V17.316a.851.851,0,1,0,1.7,0V1.717A24.449,24.449,0,0,1,290.717,25.3H267.135V21.323a.851.851,0,1,0-1.7,0v4.828a.851.851,0,0,0,.851.851h25.3a.851.851,0,0,0,.851-.851,25.98,25.98,0,0,0-7.659-18.492Z" transform="translate(-227.616 0)" fill="#4c4740"/>
      <path id="Path_1004042" data-name="Path 1004042" d="M331.648,75.637a2.389,2.389,0,0,0-3.135,1.261l0,.012-4.253,10.4a2.4,2.4,0,0,0,2.169,3.329h.036a2.387,2.387,0,0,0,2.19-1.453l0-.011,4.257-10.4a2.389,2.389,0,0,0-1.263-3.128Zm-.306,2.467,0,.012-4.256,10.4a.687.687,0,0,1-.631.413h-.016a.7.7,0,0,1-.623-.939l.012-.029,4.256-10.4a.687.687,0,0,1,1.262.543Z" transform="translate(-279.588 -66.881)" fill="#4c4740"/>
      <path id="Path_1004043" data-name="Path 1004043" d="M385.925,166.542a2.571,2.571,0,1,0,2.571-2.571A2.574,2.574,0,0,0,385.925,166.542Zm2.571-.868a.868.868,0,1,1-.868.868A.869.869,0,0,1,388.5,165.674Z" transform="translate(-334.432 -145.36)" fill="#4c4740"/>
      <path id="Path_1004044" data-name="Path 1004044" d="M298.2,78.929a2.571,2.571,0,1,0,2.571,2.571A2.574,2.574,0,0,0,298.2,78.929Zm0,3.439a.868.868,0,1,1,.868-.868A.869.869,0,0,1,298.2,82.368Z" transform="translate(-254.387 -69.97)" fill="#4c4740"/>
      <path id="Path_1004045" data-name="Path 1004045" d="M64.165,335.764a3.1,3.1,0,0,0,1.211.5v.066a.875.875,0,0,0,.825.887.851.851,0,0,0,.878-.851v-.2a2.6,2.6,0,0,0,1.672-2,2.3,2.3,0,0,0-1.563-2.608,6.016,6.016,0,0,1-1.5-.694.352.352,0,0,1-.041-.29.505.505,0,0,1,.323-.4,1.044,1.044,0,0,1,.965.143l.159.139a.846.846,0,1,0,1.086-1.3,2.911,2.911,0,0,0-1.1-.635v-.054a.875.875,0,0,0-.825-.887.851.851,0,0,0-.877.851v.142a2.2,2.2,0,0,0-1.408,1.681,1.977,1.977,0,0,0,.664,1.945,7.205,7.205,0,0,0,1.988.96.6.6,0,0,1,.451.72.856.856,0,0,1-.85.722,1.562,1.562,0,0,1-1.157-.3.851.851,0,0,0-1.229.334.873.873,0,0,0,.329,1.112Z" transform="translate(-48.826 -290.412)" fill="#4c4740"/>
      <path id="Path_1004046" data-name="Path 1004046" d="M60.124,59.157H35.675V34.708a.851.851,0,0,0-.851-.851,26.166,26.166,0,0,0-24.78,34.524,8.226,8.226,0,0,0,2.389,10.167H12.02A2.819,2.819,0,0,0,10,83.338a2.819,2.819,0,0,0,2.017,4.79H22.861a2.819,2.819,0,0,0,2.017-4.79,2.819,2.819,0,0,0-2.017-4.79h-.412A8.236,8.236,0,1,0,11.265,66.562,24.455,24.455,0,0,1,33.973,35.574V60.008a.863.863,0,0,0,.228.58L50.858,78.462A24.487,24.487,0,0,1,28.2,83.548a.851.851,0,0,0-.461,1.639A26.16,26.16,0,0,0,60.975,60.008a.851.851,0,0,0-.851-.851ZM22.861,86.425H12.02a1.118,1.118,0,1,1,0-2.236H22.861a1.118,1.118,0,1,1,0,2.236Zm1.118-5.057a1.119,1.119,0,0,1-1.118,1.118H12.02a1.118,1.118,0,1,1,0-2.236H22.861A1.119,1.119,0,0,1,23.979,81.369Zm-6.538-15.9A6.538,6.538,0,1,1,10.9,72.01,6.546,6.546,0,0,1,17.44,65.471Zm39.737,4.454A24.37,24.37,0,0,1,52.1,77.3L36.781,60.859H59.258a24.229,24.229,0,0,1-2.081,9.066Z" transform="translate(0 -30.014)" fill="#4c4740"/>
    </g>
  </g>
</svg>
