<svg xmlns="http://www.w3.org/2000/svg" width="70" height="70" viewBox="0 0 70 70">
  <g id="img41" transform="translate(-324 -8937.832)">
    <rect id="Rectangle_455614" data-name="Rectangle 455614" width="70" height="70" transform="translate(324 8937.832)" fill="#ff9a1a"/>
    <path id="Path_1008301" data-name="Path 1008301" d="M84.082,43.877a6.609,6.609,0,0,0-1.338-1.026,4.376,4.376,0,1,0-6.606.012A6.7,6.7,0,0,0,74.83,43.87,9.509,9.509,0,0,0,69.8,38.1a6.06,6.06,0,1,0-8,.013,9.6,9.6,0,0,0-5.014,5.755,6.611,6.611,0,0,0-1.329-1.017,4.376,4.376,0,1,0-6.606.012,6.687,6.687,0,0,0-3.3,5.762V49.9a3.423,3.423,0,0,0,2.321,3.237V54.66a3.456,3.456,0,0,0,3.452,3.452h1.54a13.712,13.712,0,0,0,.545,1.314l-1.089,1.09a3.454,3.454,0,0,0,0,4.881l1.6,1.6a3.45,3.45,0,0,0,4.881,0l1.09-1.089a13.858,13.858,0,0,0,1.314.545v1.54a3.456,3.456,0,0,0,3.452,3.452h2.26a3.456,3.456,0,0,0,3.452-3.452v-1.54a13.854,13.854,0,0,0,1.314-.545L72.782,67a3.45,3.45,0,0,0,4.881,0l1.6-1.6a3.454,3.454,0,0,0,0-4.881l-1.089-1.09a13.606,13.606,0,0,0,.545-1.314h1.54a3.456,3.456,0,0,0,3.452-3.452V53.133A3.423,3.423,0,0,0,86.031,49.9V48.557a6.549,6.549,0,0,0-1.949-4.68ZM83.628,49.9a1.015,1.015,0,0,1-1.014,1.014H76.262A1.015,1.015,0,0,1,75.247,49.9V48.854c0-.044,0-.088,0-.133v-.23a4.233,4.233,0,0,1,4.155-4.122h.034a4.191,4.191,0,0,1,4.189,4.191V49.9ZM79.437,38.02a1.972,1.972,0,0,1,0,3.944h0a1.972,1.972,0,0,1,0-3.944ZM65.8,29.9a3.656,3.656,0,1,1-3.656,3.656A3.661,3.661,0,0,1,65.8,29.9Zm-.054,9.717H65.8a7.05,7.05,0,0,1,7.05,7.05V48.49c0,.045,0,.089,0,.135v.214a2.194,2.194,0,0,1-2.187,2.071H60.934a2.192,2.192,0,0,1-2.187-2.071v-.282c0-.046,0-.092,0-.138V46.775a7.121,7.121,0,0,1,7-7.154Zm3.709,13.9a3.655,3.655,0,1,1-7.31,0c0-.07,0-.139.007-.208h7.3c0,.069.007.138.007.208Zm-17.3-15.5a1.972,1.972,0,0,1,0,3.944h0a1.972,1.972,0,0,1,0-3.944ZM47.963,48.625a4.236,4.236,0,0,1,4.158-4.258h.034a4.188,4.188,0,0,1,4.185,4.052v.3c0,.044,0,.088,0,.133v1.042a1.015,1.015,0,0,1-1.014,1.014H48.977a1.015,1.015,0,0,1-1.014-1.014V48.624Zm32.293,7.083H77.837a1.2,1.2,0,0,0-1.158.877,11.262,11.262,0,0,1-1.028,2.48,1.2,1.2,0,0,0,.2,1.439l1.713,1.712a1.05,1.05,0,0,1,0,1.482l-1.6,1.6a1.045,1.045,0,0,1-1.481,0l-1.713-1.712a1.2,1.2,0,0,0-1.439-.2,11.231,11.231,0,0,1-2.479,1.029,1.2,1.2,0,0,0-.878,1.157v2.42a1.049,1.049,0,0,1-1.048,1.048h-2.26a1.049,1.049,0,0,1-1.048-1.048v-2.42a1.2,1.2,0,0,0-.878-1.157,11.273,11.273,0,0,1-2.479-1.028,1.2,1.2,0,0,0-1.439.2L57.107,65.3a1.046,1.046,0,0,1-1.481,0l-1.6-1.6a1.05,1.05,0,0,1,0-1.482L55.74,60.5a1.2,1.2,0,0,0,.2-1.439,11.292,11.292,0,0,1-1.028-2.479,1.2,1.2,0,0,0-1.158-.878H51.332a1.049,1.049,0,0,1-1.048-1.048V53.314h5.044a3.409,3.409,0,0,0,2.561-1.158,4.581,4.581,0,0,0,1.858,1c-.008.12-.012.242-.012.364a6.059,6.059,0,1,0,12.118,0c0-.122,0-.243-.012-.364a4.587,4.587,0,0,0,1.858-1,3.413,3.413,0,0,0,2.561,1.158H81.3V54.66A1.049,1.049,0,0,1,80.256,55.708Z" transform="translate(293.205 8923.36)" fill="#593609"/>
  </g>
</svg>
