<svg xmlns="http://www.w3.org/2000/svg" width="60" height="60" viewBox="0 0 60 60">
  <g id="img58" transform="translate(-215.711 -14909)">
    <rect id="Image_Place_Holder" data-name="Image Place Holder" width="60" height="60" transform="translate(215.711 14909)" fill="#ff9a1a"/>
    <g id="Group_1181994" data-name="Group 1181994" transform="translate(223.711 14917)">
      <path id="Path_1009699" data-name="Path 1009699" d="M40.522,13.277H35.143l-1.1,18.759-1.664-1.513V18.734a2.731,2.731,0,0,0-2.728-2.728h-.682v-.682a3.414,3.414,0,0,0-3.41-3.41H21.462a3.414,3.414,0,0,0-3.41,3.41v.682H17.37a2.731,2.731,0,0,0-2.728,2.728v9.549H13.277V18.734H11.913V8.614l1.364-4.092V1H1V4.521L2.364,8.613V18.734H1V43.289H43.289V36.468h-1.4Zm-4.092,1.364h2.806L40.52,36.468H37.832v-.984l-2.5-2.269ZM32.376,41.925H26.919V36.468h5.457ZM25.555,35.1v6.821H22.827V36.088l6.821-6.2,6.821,6.2v5.837H33.74V35.1ZM12.842,29.647H27.883l-6,5.457H6.294Zm8.62-5.457H16.006V21.462h5.457Zm4.092-2.728h5.457v2.728H25.555ZM5.092,36.468h16.37v5.457H5.092Zm24.819-8.185H25.555V25.555h5.457v3.729Zm1.1-9.549V20.1H25.555V18.734a1.366,1.366,0,0,1,1.364-1.364h2.728A1.366,1.366,0,0,1,31.012,18.734Zm-11.6-3.41a2.049,2.049,0,0,1,2.046-2.046h4.092A2.049,2.049,0,0,1,27.6,15.324v.682h-.682a2.731,2.731,0,0,0-2.728,2.728v9.549H22.827V18.734A2.731,2.731,0,0,0,20.1,16.006h-.682ZM17.37,17.37H20.1a1.366,1.366,0,0,1,1.364,1.364V20.1H16.006V18.734A1.366,1.366,0,0,1,17.37,17.37Zm-1.364,8.185h5.457v2.728H16.006ZM3.538,7.821l-.91-2.728h9.021l-.909,2.728Zm8.375-5.457V3.728H2.364V2.364ZM3.728,9.185h6.821v9.549H3.728ZM2.364,20.1h9.549v8.548l-8.185,6.82v6.459H2.364ZM41.925,41.925H37.832V37.832h4.092Z" fill="#593609"/>
      <path id="Path_1009700" data-name="Path 1009700" d="M53.046,5.728V7.092h3.41a1.364,1.364,0,1,1,0,2.728,2.049,2.049,0,0,0-2.046,2.046v.682h1.364v-.682a.683.683,0,0,1,.682-.682,2.728,2.728,0,0,0,0-5.457H54.41A2.731,2.731,0,0,0,51.682,3H51V4.364h.682A1.366,1.366,0,0,1,53.046,5.728Z" transform="translate(-15.896 -0.636)" fill="#593609"/>
      <path id="Path_1009701" data-name="Path 1009701" d="M40.046,11.185h6.821a.683.683,0,0,1,.682.682v.682h1.364v-.682a2.049,2.049,0,0,0-2.046-2.046H40.046a.682.682,0,1,1,0-1.364h4.775V7.092H42.092a1.364,1.364,0,1,1,0-2.728h.682V3h-.682a2.731,2.731,0,0,0-2.728,2.728,2.7,2.7,0,0,0,.4,1.393,2.042,2.042,0,0,0,.286,4.064Z" transform="translate(-11.763 -0.636)" fill="#593609"/>
      <path id="Path_1009702" data-name="Path 1009702" d="M47,3h1.364V4.364H47Z" transform="translate(-14.624 -0.636)" fill="#593609"/>
      <path id="Path_1009703" data-name="Path 1009703" d="M7,15v6.821h4.092V15Zm2.728,5.457H8.364V16.364H9.728Z" transform="translate(-1.908 -4.451)" fill="#593609"/>
      <path id="Path_1009704" data-name="Path 1009704" d="M13,31h1.364v1.364H13Z" transform="translate(-3.815 -9.538)" fill="#593609"/>
      <path id="Path_1009705" data-name="Path 1009705" d="M5,31H6.364v1.364H5Z" transform="translate(-1.272 -9.538)" fill="#593609"/>
      <path id="Path_1009706" data-name="Path 1009706" d="M9,31h1.364v1.364H9Z" transform="translate(-2.543 -9.538)" fill="#593609"/>
      <path id="Path_1009707" data-name="Path 1009707" d="M13,35h1.364v1.364H13Z" transform="translate(-3.815 -10.809)" fill="#593609"/>
      <path id="Path_1009708" data-name="Path 1009708" d="M5,35H6.364v1.364H5Z" transform="translate(-1.272 -10.809)" fill="#593609"/>
      <path id="Path_1009709" data-name="Path 1009709" d="M9,35h1.364v1.364H9Z" transform="translate(-2.543 -10.809)" fill="#593609"/>
      <path id="Path_1009710" data-name="Path 1009710" d="M13,39h1.364v1.364H13Z" transform="translate(-3.815 -12.081)" fill="#593609"/>
      <path id="Path_1009711" data-name="Path 1009711" d="M5,39H6.364v1.364H5Z" transform="translate(-1.272 -12.081)" fill="#593609"/>
      <path id="Path_1009712" data-name="Path 1009712" d="M9,39h1.364v1.364H9Z" transform="translate(-2.543 -12.081)" fill="#593609"/>
      <path id="Path_1009713" data-name="Path 1009713" d="M9,43h1.364v1.364H9Z" transform="translate(-2.543 -13.353)" fill="#593609"/>
      <path id="Path_1009714" data-name="Path 1009714" d="M5,43H6.364v1.364H5Z" transform="translate(-1.272 -13.353)" fill="#593609"/>
    </g>
  </g>
</svg>
