<svg xmlns="http://www.w3.org/2000/svg" width="96" height="96" viewBox="0 0 96 96">
  <g id="img50" transform="translate(-794.039 -2920.081)">
    <path id="Elipse_5729" data-name="Elipse 5729" d="M48,0A48,48,0,1,1,0,48,48,48,0,0,1,48,0Z" transform="translate(794.039 2920.081)" fill="#ff9a1a"/>
    <g id="Group_1180465" data-name="Group 1180465" transform="translate(813.375 2939.375)">
      <path id="Path_1004047" data-name="Path 1004047" d="M28.294,48.447,19.512,47.4a.84.84,0,0,0-.846,1.219l.711,1.376A12.79,12.79,0,0,1,10.09,27.562a13.964,13.964,0,0,0,3.892.551c.134,0,.268,0,.4-.006V30.2a.84.84,0,0,0,1.679,0V27.958A13.887,13.887,0,0,0,20.106,26.7H37.9a.84.84,0,0,0,0-1.679H22.746A14.048,14.048,0,0,0,26.482,20.4H37.9a.84.84,0,0,0,0-1.679H27.193a13.869,13.869,0,0,0,.769-4.563c0-.038,0-.075,0-.113h3.585a.84.84,0,0,0,0-1.679h-3.7A13.978,13.978,0,1,0,4.879,24.74,18.456,18.456,0,0,0,3.165,47.576,18.69,18.69,0,0,0,4.3,49.082a.84.84,0,0,0,1.289-1.076,17.011,17.011,0,0,1-1.03-1.37A16.776,16.776,0,0,1,6.224,25.761a13.977,13.977,0,0,0,2.091,1.153,14.47,14.47,0,0,0,12.5,24.6.84.84,0,0,0,.609-1.214l-.54-1.045,5.93.709-2.955,4.986-.53-1.006a.84.84,0,0,0-.941-.425A16.792,16.792,0,0,1,8.282,50.585a.84.84,0,1,0-1.017,1.336,18.469,18.469,0,0,0,14.879,3.371l.93,1.766a.84.84,0,0,0,.722.448h.021a.84.84,0,0,0,.722-.412l4.377-7.386a.839.839,0,0,0-.623-1.262ZM7.047,24.291a2.33,2.33,0,0,1,1.775-1.969l1.953-.465.492.434a4.114,4.114,0,0,0,5.431,0l.492-.434,1.953.465a2.33,2.33,0,0,1,1.775,1.969,12.3,12.3,0,0,1-13.87,0ZM8.054,12.263A2.595,2.595,0,0,1,9.431,7.707a.84.84,0,0,0,.734-.723,1.891,1.891,0,0,1,3.218-1.072.84.84,0,0,0,1.2,0A1.891,1.891,0,0,1,17.8,6.983a.84.84,0,0,0,.734.723,2.595,2.595,0,0,1,1.377,4.557.839.839,0,0,0-.282.791,2.281,2.281,0,0,1,.037.409,2.338,2.338,0,0,1-1.3,2.088c0-.067.006-3.478.006-3.478a2.149,2.149,0,0,0-2.83-2.036l-.8.268a2.407,2.407,0,0,1-1.517,0l-.8-.268a2.148,2.148,0,0,0-2.83,2.036s0,3.41.006,3.478a2.338,2.338,0,0,1-1.3-2.088,2.273,2.273,0,0,1,.037-.409.839.839,0,0,0-.282-.791Zm8.64,3.085a2.481,2.481,0,0,1-.964,1.97l-.865.673a1.438,1.438,0,0,1-1.767,0l-.865-.673a2.481,2.481,0,0,1-.964-1.97V12.073a.458.458,0,0,1,.194-.379.477.477,0,0,1,.424-.064l.8.268a4.1,4.1,0,0,0,2.581,0l.8-.268a.469.469,0,0,1,.619.443ZM12.92,20.215v-.429a3.085,3.085,0,0,0,2.125,0v.429a1.428,1.428,0,0,0,.367.958,2.434,2.434,0,0,1-2.858,0A1.429,1.429,0,0,0,12.92,20.215ZM1.682,14.159a12.3,12.3,0,1,1,20.665,8.99,4,4,0,0,0-2.815-2.461l-2.808-.668V18.674a4.2,4.2,0,0,0,1.085-1.224,4.025,4.025,0,0,0,3.535-3.987q0-.121-.007-.241a4.274,4.274,0,0,0-2.01-7.07,3.582,3.582,0,0,0-3.4-2.482,3.543,3.543,0,0,0-1.943.573,3.543,3.543,0,0,0-1.943-.573,3.581,3.581,0,0,0-3.4,2.482,4.274,4.274,0,0,0-2.01,7.07q-.007.12-.007.241a4.025,4.025,0,0,0,3.535,3.987,4.2,4.2,0,0,0,1.085,1.224V20.02l-2.808.668a4,4,0,0,0-2.815,2.461,12.23,12.23,0,0,1-3.936-8.99Z" transform="translate(0 -0.142)" fill="#4c4740"/>
      <path id="Path_1004048" data-name="Path 1004048" d="M166.463,32.9a18.431,18.431,0,0,0-17.2-30.64L148.326.493A.84.84,0,0,0,147.6.046h-.02a.839.839,0,0,0-.723.413l-4.367,7.392a.84.84,0,0,0,.624,1.261L151.9,10.15a.84.84,0,0,0,.844-1.221l-.714-1.375a12.824,12.824,0,0,1,11.53,5.576,12.632,12.632,0,0,1,2.114,5.67.84.84,0,1,0,1.668-.2A14.466,14.466,0,0,0,150.59,6.038a.84.84,0,0,0-.607,1.215l.542,1.043-5.93-.7L147.543,2.6l.532,1.006a.838.838,0,0,0,.941.423,16.753,16.753,0,0,1,16.092,27.85A13.863,13.863,0,0,0,163,30.743a14.467,14.467,0,0,0,4.232-7.98.84.84,0,0,0-1.655-.286,12.783,12.783,0,0,1-4.381,7.629,13.864,13.864,0,0,0-4.151-.493V15.352a3.13,3.13,0,0,0-3.126-3.127h-4.35a.84.84,0,1,0,0,1.679h4.35a1.449,1.449,0,0,1,1.446,1.447V29.768a13.781,13.781,0,0,0-4.284,1.409H133.524a.84.84,0,1,0,0,1.679h15.05a13.933,13.933,0,0,0-3.592,4.619h-.934a1.986,1.986,0,0,0-1.28.468L136.19,43.5a.185.185,0,0,1-.119.044.188.188,0,0,1-.188-.187v-3.9a1.985,1.985,0,0,0-1.983-1.983h-2.286a1.449,1.449,0,0,1-1.446-1.447V33.975a.84.84,0,1,0-1.679,0v2.052a3.13,3.13,0,0,0,3.126,3.127H133.9a.3.3,0,0,1,.3.3v3.9a1.866,1.866,0,0,0,3.07,1.426l6.577-5.554a.305.305,0,0,1,.2-.072h.259A13.877,13.877,0,1,0,166.463,32.9Zm-15.97,20.512a2.4,2.4,0,0,1,1.843-2.312l2-.476.508.449a4.172,4.172,0,0,0,5.516,0l.508-.449,2,.476a2.4,2.4,0,0,1,1.836,2.165,12.189,12.189,0,0,1-14.206.146ZM157.6,38.764l1.547.746a2.195,2.195,0,0,1,1.235,1.966v2.516a2.553,2.553,0,0,1-.99,2.027h0l-.882.687a1.478,1.478,0,0,1-1.819,0l-.882-.687a2.554,2.554,0,0,1-.99-2.027V41.477a2.195,2.195,0,0,1,1.234-1.966Zm-1.1,10.2V48.5a3.117,3.117,0,0,0,2.2,0v.463a1.442,1.442,0,0,0,.382.981,2.491,2.491,0,0,1-2.962,0,1.442,1.442,0,0,0,.382-.981ZM159.876,38l-1.437-.693V35.017a6.975,6.975,0,0,1,2.67.871,5.822,5.822,0,0,1,2.333,2.416,8.212,8.212,0,0,1,.583,5.915l-.6,2.145c-.6-.175-1.207-.323-1.822-.443a4.24,4.24,0,0,0,.46-1.928V41.477A3.884,3.884,0,0,0,159.876,38ZM156.76,37.3,155.323,38a3.883,3.883,0,0,0-2.184,3.479v2.516a4.241,4.241,0,0,0,.46,1.927c-.616.121-1.226.268-1.822.443l-.6-2.144a8.213,8.213,0,0,1,.583-5.916,5.82,5.82,0,0,1,2.333-2.415,6.979,6.979,0,0,1,2.67-.872Zm9.375,14.725a4.07,4.07,0,0,0-2.882-2.566l-2.875-.685V47.414a18.784,18.784,0,0,1,2.97.682,1.28,1.28,0,0,0,.378.058,1.22,1.22,0,0,0,1.182-.871l.734-2.609a9.888,9.888,0,0,0-.7-7.122,7.493,7.493,0,0,0-3-3.119,8.821,8.821,0,0,0-8.694,0,7.494,7.494,0,0,0-3,3.118,9.888,9.888,0,0,0-.7,7.123l.734,2.609a1.231,1.231,0,0,0,1.567.812,18.756,18.756,0,0,1,2.963-.68v1.364l-2.875.685a4.069,4.069,0,0,0-2.935,2.721,12.194,12.194,0,1,1,17.123-.155Z" transform="translate(-114.104)" fill="#4c4740"/>
    </g>
  </g>
</svg>
