<svg xmlns="http://www.w3.org/2000/svg" width="80" height="80" viewBox="0 0 80 80">
  <g id="img57" transform="translate(-175.889 -5521)">
    <rect id="Rectangle_402006" data-name="Rectangle 402006" width="80" height="80" rx="5" transform="translate(175.889 5521)" fill="#ff9a1a"/>
    <g id="Group_1181992" data-name="Group 1181992" transform="translate(185.178 5525.014)">
      <g id="Group_1181991" data-name="Group 1181991" transform="translate(0 5.995)">
        <path id="Path_1009688" data-name="Path 1009688" d="M369.572,17.121a.9.9,0,0,0-1.1.646,7.97,7.97,0,1,1-7.716-9.972,7.875,7.875,0,0,1,5,1.768,8,8,0,0,1,2.765,4.43.9.9,0,0,0,1.755-.4,9.763,9.763,0,1,0-.066,4.623.9.9,0,0,0-.646-1.1Z" transform="translate(-308.885 -5.995)" fill="#593609"/>
        <path id="Path_1009689" data-name="Path 1009689" d="M391.146,38.732a.9.9,0,0,0-.827,0l-4.783,2.477a.9.9,0,0,0-.486.8v4.954a.9.9,0,0,0,.486.8l4.783,2.477a.9.9,0,0,0,.828,0l4.783-2.477a.9.9,0,0,0,.486-.8V42.008a.9.9,0,0,0-.486-.8Zm-1.313,9.228-2.984-1.545V43.488l2.984,1.545Zm.9-4.488-2.827-1.464,2.827-1.464,2.827,1.464Zm3.884,2.943-2.984,1.545V45.033l2.984-1.545Z" transform="translate(-338.857 -34.717)" fill="#593609"/>
        <path id="Path_1009690" data-name="Path 1009690" d="M44.939,378.353l-4.783-2.477a.9.9,0,0,0-.827,0l-4.783,2.477a.9.9,0,0,0-.486.8v4.954a.9.9,0,0,0,.486.8l4.783,2.477a.9.9,0,0,0,.828,0l4.783-2.477a.9.9,0,0,0,.486-.8v-4.954A.9.9,0,0,0,44.939,378.353Zm-6.1,6.751-2.984-1.545v-2.928l2.984,1.545Zm.9-4.488-2.827-1.464,2.827-1.464,2.827,1.464Zm3.884,2.943L40.642,385.1v-2.928l2.984-1.545Z" transform="translate(-29.973 -331.414)" fill="#593609"/>
        <path id="Path_1009691" data-name="Path 1009691" d="M200.771,188.947a8.066,8.066,0,0,0-7.748,5.883.9.9,0,1,0,1.733.483,6.245,6.245,0,1,1,.1,3.671.9.9,0,1,0-1.705.574,8.044,8.044,0,1,0,7.623-10.61Z" transform="translate(-169.838 -166.999)" fill="#593609"/>
        <path id="Path_1009692" data-name="Path 1009692" d="M225.154,227.759A4.457,4.457,0,1,0,220.7,223.3,4.463,4.463,0,0,0,225.154,227.759Zm0-7.115A2.658,2.658,0,1,1,222.5,223.3,2.661,2.661,0,0,1,225.154,220.643Z" transform="translate(-194.221 -193.31)" fill="#593609"/>
        <path id="Path_1009693" data-name="Path 1009693" d="M54.937,81.5a24.238,24.238,0,0,0-.787-9.4.9.9,0,1,0-1.729.5,22.392,22.392,0,0,1,.869,6.192c0,.514-.02,1.024-.055,1.53a10.775,10.775,0,0,0-5.274-1.383c-.144,0-.288,0-.431.009V76.812a1.559,1.559,0,0,0-1.557-1.557H42.809a12.34,12.34,0,0,0-.974-2.352l2.237-2.237a1.557,1.557,0,0,0,0-2.2l-2.807-2.807a1.557,1.557,0,0,0-2.2,0l-2.237,2.237a12.328,12.328,0,0,0-2.352-.974V63.757A1.559,1.559,0,0,0,32.918,62.2h-3.97a1.559,1.559,0,0,0-1.557,1.557v3.164a12.34,12.34,0,0,0-2.352.974L22.8,65.658a1.557,1.557,0,0,0-2.2,0l-2.807,2.807a1.557,1.557,0,0,0,0,2.2L20.031,72.9a12.341,12.341,0,0,0-.974,2.352H15.893a1.559,1.559,0,0,0-1.557,1.557v3.97a1.559,1.559,0,0,0,1.557,1.557h3.164a12.34,12.34,0,0,0,.974,2.352l-2.237,2.237a1.557,1.557,0,0,0,0,2.2L20.6,91.936a1.557,1.557,0,0,0,2.2,0L25.039,89.7a12.328,12.328,0,0,0,2.352.974v3.164a1.559,1.559,0,0,0,1.557,1.557h3.97a1.559,1.559,0,0,0,1.557-1.557V90.673a12.34,12.34,0,0,0,2.352-.974l.273.273a10.855,10.855,0,0,0,4.364,8.538,22.305,22.305,0,0,1-21.98-.517,9.788,9.788,0,0,0-8.249-8.631,22.315,22.315,0,0,1,1.108-22.966,4.364,4.364,0,0,0,6.037-6.087A22.357,22.357,0,0,1,37.872,57.54a.9.9,0,1,0,.558-1.711,24.15,24.15,0,0,0-21.384,3.215,4.364,4.364,0,0,0-5.979,6.026,24.1,24.1,0,0,0-1.9,24.2,9.768,9.768,0,1,0,10.309,10.788,24.1,24.1,0,0,0,23.742-.476,10.8,10.8,0,0,0,4.737,1.089A10.923,10.923,0,0,0,58.39,92.845a.9.9,0,1,0-1.727-.5,9.063,9.063,0,1,1,.27-3.82.9.9,0,1,0,1.781-.254A10.837,10.837,0,0,0,54.937,81.5Zm-40.158-21.3a2.567,2.567,0,1,1-2.567,2.567A2.57,2.57,0,0,1,14.779,60.206Zm-5.01,46.782a7.969,7.969,0,1,1,7.969-7.969A7.978,7.978,0,0,1,9.769,106.989ZM37.265,87.9a1.569,1.569,0,0,0-1.163.147,10.545,10.545,0,0,1-2.287.947,1.566,1.566,0,0,0-1.14,1.5v3.1H29.191v-3.1a1.566,1.566,0,0,0-1.14-1.5,10.527,10.527,0,0,1-2.287-.947A1.567,1.567,0,0,0,23.9,88.3L21.7,90.492l-2.464-2.464,2.195-2.195a1.567,1.567,0,0,0,.254-1.867,10.541,10.541,0,0,1-.947-2.287,1.566,1.566,0,0,0-1.5-1.14h-3.1V77.055h3.1a1.566,1.566,0,0,0,1.5-1.14,10.536,10.536,0,0,1,.947-2.287,1.567,1.567,0,0,0-.254-1.867l-2.195-2.195L21.7,67.1,23.9,69.3a1.567,1.567,0,0,0,1.867.254,10.545,10.545,0,0,1,2.287-.947,1.566,1.566,0,0,0,1.14-1.5V64h3.485v3.1a1.566,1.566,0,0,0,1.14,1.5,10.527,10.527,0,0,1,2.287.947A1.566,1.566,0,0,0,37.97,69.3L40.164,67.1l2.464,2.464L40.434,71.76a1.567,1.567,0,0,0-.254,1.867,10.541,10.541,0,0,1,.947,2.287,1.566,1.566,0,0,0,1.5,1.14h3.1v2.12A10.9,10.9,0,0,0,37.265,87.9Z" transform="translate(0 -48.805)" fill="#593609"/>
        <path id="Path_1009694" data-name="Path 1009694" d="M393.195,287.979a.9.9,0,0,0-.9.9v6.275a.9.9,0,0,0,.9.9h4.956a.9.9,0,0,0,0-1.8h-4.057v-5.375A.9.9,0,0,0,393.195,287.979Z" transform="translate(-345.234 -254.151)" fill="#593609"/>
      </g>
    </g>
  </g>
</svg>
