<svg xmlns="http://www.w3.org/2000/svg" width="70" height="70" viewBox="0 0 70 70">
  <g id="img50" transform="translate(-319.711 -11156)">
    <rect id="Rectangle_455626" data-name="Rectangle 455626" width="70" height="70" transform="translate(319.711 11156)" fill="#faf2df"/>
    <g id="Group_1181509" data-name="Group 1181509" transform="translate(268.304 11165)">
      <path id="Path_1008636" data-name="Path 1008636" d="M216.095,61.718a2.994,2.994,0,0,1-1.643-.489v2.7h3.286v-2.7A3,3,0,0,1,216.095,61.718Z" transform="translate(-131.913 -54.928)" fill="#e8b800"/>
      <g id="Group_1181499" data-name="Group 1181499" transform="translate(68.179 10.211)">
        <path id="Path_1008637" data-name="Path 1008637" d="M105.84,124.832a.309.309,0,0,0-.379,0L103,126.751a.309.309,0,0,1-.5-.244v-8.549a6.688,6.688,0,0,1,4.415-12.467V99.747a.515.515,0,0,0-.515-.515H98.876V103a.412.412,0,0,1-.412.412H83.355a.412.412,0,0,1-.412-.412V99.232H75.422a.515.515,0,0,0-.515.515v40.675a.515.515,0,0,0,.515.515H106.4a.515.515,0,0,0,.515-.515V125.668Z" transform="translate(-74.907 -99.232)" fill="#f6a96c"/>
      </g>
      <path id="Path_1008638" data-name="Path 1008638" d="M79.317,140.423v-2.158H77.888a.309.309,0,0,1-.309-.309V102.214a.309.309,0,0,1,.309-.309h1.429V99.748a.515.515,0,0,1,.515-.515h-4.41a.515.515,0,0,0-.515.515v40.675a.515.515,0,0,0,.515.515h4.41a.515.515,0,0,1-.515-.515Z" transform="translate(-6.728 -89.021)" fill="#ea9b58"/>
      <path id="Path_1008639" data-name="Path 1008639" d="M126.293,150.049a.309.309,0,0,1-.5-.244v-8.551a6.687,6.687,0,0,1,1.742-12.435v-3.308a.309.309,0,0,0-.309-.309h-5.055V126.3a.412.412,0,0,1-.412.412h-15.11a.412.412,0,0,1-.412-.412V125.2h-5.055a.309.309,0,0,0-.309.309v35.742a.309.309,0,0,0,.309.309h26.043a.309.309,0,0,0,.309-.309V149.08Z" transform="translate(-30.025 -112.318)" fill="#dff6fd"/>
      <g id="Group_1181500" data-name="Group 1181500" transform="translate(70.851 12.884)">
        <path id="Path_1008640" data-name="Path 1008640" d="M103.963,161.253V125.511a.309.309,0,0,1,.309-.309h-3.087a.309.309,0,0,0-.309.309v35.742a.309.309,0,0,0,.309.309h3.087A.309.309,0,0,1,103.963,161.253Z" transform="translate(-100.876 -125.202)" fill="#c8effe"/>
      </g>
      <g id="Group_1181501" data-name="Group 1181501" transform="translate(76.112 8.996)">
        <path id="Path_1008641" data-name="Path 1008641" d="M167.626,92.914h-15.11A.515.515,0,0,1,152,92.4V87.933a.515.515,0,0,1,.515-.515h15.11a.515.515,0,0,1,.515.515V92.4A.515.515,0,0,1,167.626,92.914Z" transform="translate(-152.002 -87.418)" fill="#fac600"/>
      </g>
      <g id="Group_1181502" data-name="Group 1181502" transform="translate(76.112 8.996)">
        <path id="Path_1008642" data-name="Path 1008642" d="M154.654,92.4V87.933a.515.515,0,0,1,.515-.515h-2.652a.515.515,0,0,0-.515.515V92.4a.515.515,0,0,0,.515.515h2.652A.515.515,0,0,1,154.654,92.4Z" transform="translate(-152.002 -87.418)" fill="#e8b800"/>
      </g>
      <path id="Path_1008643" data-name="Path 1008643" d="M346.177,282a6.656,6.656,0,0,1-3.152-.789v8.549a.309.309,0,0,0,.5.244l2.464-1.919a.309.309,0,0,1,.379,0L348.831,290a.309.309,0,0,0,.5-.244v-8.549A6.658,6.658,0,0,1,346.177,282Z" transform="translate(-247.255 -252.269)" fill="#fb2b3a"/>
      <path id="Path_1008644" data-name="Path 1008644" d="M343.025,281.207v8.549a.309.309,0,0,0,.5.244l2.125-1.655v-6.372A6.646,6.646,0,0,1,343.025,281.207Z" transform="translate(-247.255 -252.269)" fill="#e41f2d"/>
      <g id="Group_1181505" data-name="Group 1181505" transform="translate(92.234 16.351)">
        <g id="Group_1181503" data-name="Group 1181503" transform="translate(0 0)">
          <circle id="Ellipse_13926" data-name="Ellipse 13926" cx="6.688" cy="6.688" r="6.688" fill="#4fc123"/>
        </g>
        <g id="Group_1181504" data-name="Group 1181504" transform="translate(0)">
          <path id="Path_1008645" data-name="Path 1008645" d="M312.072,165.577a6.69,6.69,0,0,1,4.983-6.468,6.688,6.688,0,1,0,0,12.936A6.69,6.69,0,0,1,312.072,165.577Z" transform="translate(-308.663 -158.889)" fill="#47a920"/>
        </g>
      </g>
      <g id="Group_1181506" data-name="Group 1181506" transform="translate(81.173 0.772)">
        <circle id="Ellipse_13927" data-name="Ellipse 13927" cx="3.009" cy="3.009" r="3.009" fill="#fac600"/>
      </g>
      <g id="Group_1181507" data-name="Group 1181507" transform="translate(81.173 0.772)">
        <path id="Path_1008646" data-name="Path 1008646" d="M203.764,10.509a3.009,3.009,0,0,1,1.716-2.717,3.009,3.009,0,1,0,0,5.435A3.009,3.009,0,0,1,203.764,10.509Z" transform="translate(-201.179 -7.5)" fill="#e8b800"/>
      </g>
      <g id="Group_1181508" data-name="Group 1181508" transform="translate(67.407 0)">
        <path id="Path_1008647" data-name="Path 1008647" d="M140.194,185.381l-1.749,1.749-.935-.935a.772.772,0,0,0-1.091,1.091l1.48,1.48a.772.772,0,0,0,1.091,0l2.295-2.295a.772.772,0,1,0-1.092-1.091Z" transform="translate(-129.115 -166.102)"/>
        <path id="Path_1008648" data-name="Path 1008648" d="M140.194,254.825l-1.749,1.749-.935-.935a.772.772,0,0,0-1.091,1.091l1.48,1.48a.772.772,0,0,0,1.091,0l2.295-2.295a.772.772,0,0,0-1.092-1.092Z" transform="translate(-129.115 -228.399)"/>
        <path id="Path_1008649" data-name="Path 1008649" d="M203.022,279.684h11.051a.772.772,0,1,0,0-1.544H203.022a.772.772,0,1,0,0,1.544Z" transform="translate(-188.374 -249.518)"/>
        <path id="Path_1008650" data-name="Path 1008650" d="M140.194,324.268l-1.749,1.749-.935-.935a.772.772,0,0,0-1.091,1.091l1.48,1.48a.772.772,0,0,0,1.091,0l2.295-2.295a.772.772,0,0,0-1.092-1.092Z" transform="translate(-129.115 -290.696)"/>
        <path id="Path_1008651" data-name="Path 1008651" d="M214.073,322.8H203.022a.772.772,0,0,0,0,1.544h11.051a.772.772,0,1,0,0-1.544Z" transform="translate(-188.374 -289.582)"/>
        <path id="Path_1008652" data-name="Path 1008652" d="M214.073,347.583H203.022a.772.772,0,1,0,0,1.544h11.051a.772.772,0,1,0,0-1.544Z" transform="translate(-188.374 -311.815)"/>
        <path id="Path_1008653" data-name="Path 1008653" d="M140.194,393.71l-1.749,1.749-.935-.935a.772.772,0,0,0-1.091,1.091l1.48,1.48a.772.772,0,0,0,1.091,0l2.295-2.295a.772.772,0,0,0-1.092-1.092Z" transform="translate(-129.115 -352.993)"/>
        <path id="Path_1008654" data-name="Path 1008654" d="M214.073,392.243H203.022a.772.772,0,0,0,0,1.544h11.051a.772.772,0,0,0,0-1.544Z" transform="translate(-188.374 -351.879)"/>
        <path id="Path_1008655" data-name="Path 1008655" d="M214.845,417.8a.772.772,0,0,0-.772-.772H203.022a.772.772,0,0,0,0,1.544h11.051A.772.772,0,0,0,214.845,417.8Z" transform="translate(-188.374 -374.111)"/>
        <path id="Path_1008656" data-name="Path 1008656" d="M105.617,23.738a.771.771,0,0,0-.92.586,5.916,5.916,0,1,1-.172-3.187.772.772,0,0,0,1.462-.5,7.457,7.457,0,0,0-5.03-4.781V10.726A1.288,1.288,0,0,0,99.67,9.44H93.019a1.287,1.287,0,0,0-1.283-1.216H86.6V6.687a3.781,3.781,0,1,0-4.829,0V8.224h-5.14A1.287,1.287,0,0,0,75.344,9.44H68.693a1.288,1.288,0,0,0-1.286,1.286V51.4a1.288,1.288,0,0,0,1.286,1.286H99.67a1.288,1.288,0,0,0,1.286-1.286V38.226l.145.113a1.081,1.081,0,0,0,1.744-.852v-8.1a7.405,7.405,0,0,0,.776-.551,7.489,7.489,0,0,0,2.582-4.173.772.772,0,0,0-.586-.92Zm-6.2-8.142c-.163-.011-.326-.017-.491-.017-.215,0-.427.011-.638.029V13.193A1.082,1.082,0,0,0,97.2,12.112H93.023V10.983h6.39ZM84.182,1.544a2.237,2.237,0,1,1-2.237,2.237,2.24,2.24,0,0,1,2.237-2.237ZM83.31,7.459a3.757,3.757,0,0,0,1.742,0v.765H83.31V7.459Zm16.1,43.685H68.951V10.983h6.39v1.129H71.16a1.082,1.082,0,0,0-1.081,1.081V48.935a1.082,1.082,0,0,0,1.081,1.081H89.981a.772.772,0,0,0,0-1.544H71.623V13.656H75.34v.321a1.288,1.288,0,0,0,1.286,1.286h2.755a.772.772,0,0,0,0-1.544h-2.5V9.768H91.479V13.72h-8.5a.772.772,0,0,0,0,1.544h8.753a1.288,1.288,0,0,0,1.286-1.286v-.321H96.74V15.9A7.491,7.491,0,0,0,92.7,18.926H82.055a.772.772,0,0,0,0,1.544h9.863a7.4,7.4,0,0,0-.29,1.007H82.055a.772.772,0,0,0,0,1.544h9.407c0,.006,0,.013,0,.019a7.413,7.413,0,0,0,.647,3.033H82.055a.772.772,0,0,0,0,1.544H93.037A7.515,7.515,0,0,0,95,29.379v8.108a1.079,1.079,0,0,0,1.742.854V48.472H93.583a.772.772,0,0,0,0,1.544H97.2a1.082,1.082,0,0,0,1.081-1.081v-11.8l.638-.5.491.382v14.12Zm1.889-14.6L99.586,35.2a1.079,1.079,0,0,0-1.328,0l-1.716,1.337V30.107a7.419,7.419,0,0,0,4.76,0Z" transform="translate(-67.407 0)"/>
        <path id="Path_1008657" data-name="Path 1008657" d="M347.262,202.144l-2.862,2.862-1.653-1.653a.772.772,0,1,0-1.091,1.091l2.2,2.2a.772.772,0,0,0,1.091,0l3.408-3.408a.772.772,0,0,0-1.092-1.091Z" transform="translate(-313.231 -181.14)"/>
        <path id="Path_1008658" data-name="Path 1008658" d="M196.079,107.394a.772.772,0,0,0-.772-.772h-7.355a.772.772,0,1,0,0,1.544h7.355A.772.772,0,0,0,196.079,107.394Z" transform="translate(-174.856 -95.65)"/>
      </g>
    </g>
  </g>
</svg>
