<svg xmlns="http://www.w3.org/2000/svg" width="60" height="60" viewBox="0 0 60 60">
  <g id="img59" transform="translate(-527.711 -14909)">
    <rect id="Image_Place_Holder" data-name="Image Place Holder" width="60" height="60" transform="translate(527.711 14909)" fill="#ff9a1a"/>
    <g id="Group_1181993" data-name="Group 1181993" transform="translate(532.711 14914)">
      <path id="Path_1009695" data-name="Path 1009695" d="M49.46,20.624,45.3,18.961a21.13,21.13,0,0,0-1.718-4.137L45.349,10.7a.731.731,0,0,0-.155-.805L40.024,4.725a.731.731,0,0,0-.805-.155L35.1,6.337a21.131,21.131,0,0,0-4.137-1.718L29.295.459A.732.732,0,0,0,28.616,0H21.3a.732.732,0,0,0-.679.46L18.961,4.619a21.117,21.117,0,0,0-4.137,1.718L10.7,4.57a.731.731,0,0,0-.805.155L4.725,9.9a.731.731,0,0,0-.155.806l1.767,4.123a21.14,21.14,0,0,0-1.718,4.137L.459,20.624A.732.732,0,0,0,0,21.3v7.313a.732.732,0,0,0,.46.679l4.159,1.664A21.094,21.094,0,0,0,6.337,35.1L4.57,39.219a.731.731,0,0,0,.155.805L9.9,45.194a.731.731,0,0,0,.805.155l4.124-1.767A21.107,21.107,0,0,0,18.961,45.3l1.664,4.159a.732.732,0,0,0,.679.46h7.313a.731.731,0,0,0,.679-.46L30.959,45.3A21.117,21.117,0,0,0,35.1,43.582l4.123,1.767a.732.732,0,0,0,.806-.155l5.171-5.171a.732.732,0,0,0,.155-.805L43.582,35.1A21.13,21.13,0,0,0,45.3,30.959L49.46,29.3a.732.732,0,0,0,.46-.679V21.3A.732.732,0,0,0,49.46,20.624Zm-1,7.5-4.033,1.613a.732.732,0,0,0-.433.484,19.64,19.64,0,0,1-1.858,4.474.731.731,0,0,0-.037.65l1.714,4L39.339,43.81l-4-1.714a.732.732,0,0,0-.65.037,19.647,19.647,0,0,1-4.474,1.858.732.732,0,0,0-.484.433l-1.613,4.033H21.8l-1.613-4.033a.73.73,0,0,0-.484-.433,19.64,19.64,0,0,1-4.474-1.858.732.732,0,0,0-.65-.037l-4,1.714L6.109,39.339l1.713-4a.73.73,0,0,0-.037-.65,19.664,19.664,0,0,1-1.858-4.474.732.732,0,0,0-.433-.484L1.462,28.121V21.8l4.033-1.613a.73.73,0,0,0,.433-.484,19.637,19.637,0,0,1,1.858-4.473.731.731,0,0,0,.037-.65l-1.714-4,4.471-4.471,4,1.714a.731.731,0,0,0,.65-.037A19.637,19.637,0,0,1,19.7,5.928a.73.73,0,0,0,.484-.433L21.8,1.462h6.322l1.613,4.033a.73.73,0,0,0,.484.433,19.637,19.637,0,0,1,4.473,1.858.731.731,0,0,0,.65.037l4-1.714L43.81,10.58l-1.714,4a.731.731,0,0,0,.037.65A19.63,19.63,0,0,1,43.991,19.7a.73.73,0,0,0,.433.484L48.457,21.8Zm0,0" fill="#593609"/>
      <path id="Path_1009696" data-name="Path 1009696" d="M107.088,91a16.088,16.088,0,1,0,16.088,16.088A16.106,16.106,0,0,0,107.088,91Zm0,30.713a14.625,14.625,0,1,1,14.625-14.625A14.641,14.641,0,0,1,107.088,121.713Zm0,0" transform="translate(-82.128 -82.128)" fill="#593609"/>
      <path id="Path_1009697" data-name="Path 1009697" d="M134.162,121a13.026,13.026,0,0,0-8.148,2.825.731.731,0,1,0,.906,1.148,11.576,11.576,0,0,1,7.242-2.511,11.7,11.7,0,1,1-11.7,11.7,11.576,11.576,0,0,1,2.511-7.242.731.731,0,0,0-1.148-.906A13.028,13.028,0,0,0,121,134.163,13.163,13.163,0,1,0,134.162,121Zm0,0" transform="translate(-109.203 -109.203)" fill="#593609"/>
      <path id="Path_1009698" data-name="Path 1009698" d="M164.429,166.623l8.233,4.753a.732.732,0,0,0,.731,0l8.233-4.753a.731.731,0,0,0,.366-.633v-9.506a.731.731,0,0,0-.366-.633l-8.233-4.753a.731.731,0,0,0-.731,0l-8.233,4.753a.731.731,0,0,0-.366.633v9.506A.731.731,0,0,0,164.429,166.623Zm1.1-8.873,6.77,3.909v7.818l-6.77-3.909Zm8.233,11.727v-7.818l6.77-3.909v7.818Zm-.731-16.9,6.77,3.909-6.77,3.909-6.77-3.909Zm0,0" transform="translate(-148.067 -136.277)" fill="#593609"/>
    </g>
  </g>
</svg>
