<svg xmlns="http://www.w3.org/2000/svg" width="96" height="96" viewBox="0 0 96 96">
  <g id="img51" transform="translate(-794.039 -2920.081)">
    <path id="Elipse_5729" data-name="Elipse 5729" d="M48,0A48,48,0,1,1,0,48,48,48,0,0,1,48,0Z" transform="translate(794.039 2920.081)" fill="#ff9a1a"/>
    <g id="Group_1180460" data-name="Group 1180460" transform="translate(815.912 2935.183)">
      <g id="Group_1180459" data-name="Group 1180459" transform="translate(0 7.54)">
        <path id="Path_1004016" data-name="Path 1004016" d="M98.222,72.043H111.9a.765.765,0,1,0,0-1.531H98.222a.765.765,0,1,0,0,1.531Z" transform="translate(-87.511 -64.085)" fill="#4c4740"/>
        <path id="Path_1004017" data-name="Path 1004017" d="M141.512,128.784a.765.765,0,0,0,.765.765h13.64a.765.765,0,0,0,0-1.531h-13.64A.765.765,0,0,0,141.512,128.784Z" transform="translate(-127.069 -115.723)" fill="#4c4740"/>
        <path id="Path_1004018" data-name="Path 1004018" d="M54.505,129.55h6.343a.765.765,0,0,0,0-1.531H54.505a.765.765,0,1,0,0,1.531Z" transform="translate(-48.255 -115.723)" fill="#4c4740"/>
        <path id="Path_1004019" data-name="Path 1004019" d="M54.505,165.981H68.919a.765.765,0,1,0,0-1.531H54.505a.765.765,0,1,0,0,1.531Z" transform="translate(-48.255 -148.436)" fill="#4c4740"/>
        <path id="Path_1004020" data-name="Path 1004020" d="M54.505,360.095h9.185a.765.765,0,1,0,0-1.531H54.505a.765.765,0,1,0,0,1.531Z" transform="translate(-48.255 -322.739)" fill="#4c4740"/>
        <path id="Path_1004021" data-name="Path 1004021" d="M51.864,53.308l-1.947-1.947a.765.765,0,1,0-1.082,1.082l1.808,1.808-2.392,2.392L41.5,49.888,43.887,47.5l2.422,2.422a.765.765,0,0,0,1.083-1.082L44.83,46.274A1.335,1.335,0,0,0,43.345,46l-2.127-2.127a12.8,12.8,0,0,0,.548-13.515c.16-.059.331-.118.512-.176a1.065,1.065,0,0,0,0-2.027,4.127,4.127,0,0,1-3.32-3.32,1.061,1.061,0,0,0-.927-.733V11.8A1.335,1.335,0,0,0,36.7,10.471H35.1v-1.6A1.335,1.335,0,0,0,33.765,7.54H1.334A1.335,1.335,0,0,0,0,8.874v43.88a1.335,1.335,0,0,0,1.334,1.334h1.6v1.6a1.335,1.335,0,0,0,1.334,1.334h7.064a.765.765,0,1,0,0-1.531H4.462v-1.4h29.3A1.335,1.335,0,0,0,35.1,52.754V48.646a12.7,12.7,0,0,0,1.4-.613v7.455H14.9a.765.765,0,1,0,0,1.531H36.7a1.335,1.335,0,0,0,1.334-1.334v-8.31L40,49.345a1.335,1.335,0,0,0,.274,1.486l7.034,7.034a1.335,1.335,0,0,0,1.886,0l2.671-2.671A1.335,1.335,0,0,0,51.864,53.308ZM40.638,29.168a4.933,4.933,0,0,0-2.694,2.694,4.934,4.934,0,0,0-2.694-2.694,4.933,4.933,0,0,0,2.694-2.694A4.932,4.932,0,0,0,40.638,29.168ZM33.61,30.181a4.128,4.128,0,0,1,3.32,3.32,1.062,1.062,0,0,0,1.013.737h0a1.065,1.065,0,0,0,.572-.166,8.247,8.247,0,1,1-5.55-5.339,1.065,1.065,0,0,0,.645,1.448Zm-.042,22.376H1.531V9.071H33.568v6.987a.765.765,0,1,0,1.531,0V12h1.4V25.314a12.62,12.62,0,0,0-1.4-.616V19.63a.765.765,0,1,0-1.531,0v4.612a12.849,12.849,0,0,0-2.892-.329c-.386,0-.77.018-1.15.052a.765.765,0,0,0-.678-.41H23.392a.765.765,0,0,0,0,1.531h1.925a12.735,12.735,0,0,0-3.271,2.187H6.25a.765.765,0,0,0,0,1.531H20.629a12.657,12.657,0,0,0-1.91,3.408H6.25a.765.765,0,0,0,0,1.531H18.258a12.844,12.844,0,0,0-.317,2.187H6.25a.765.765,0,0,0,0,1.531H17.942a12.831,12.831,0,0,0,.324,2.187H6.25a.765.765,0,0,0,0,1.531H18.732A12.661,12.661,0,0,0,19.8,43.365H18.05a.765.765,0,0,0,0,1.531h2.861q.35.415.739.806a12.8,12.8,0,0,0,1.634,1.381H6.25a.765.765,0,0,0,0,1.531H26.159a12.829,12.829,0,0,0,7.409.49ZM22.733,44.62A11.237,11.237,0,0,1,36,26.778a3.459,3.459,0,0,1-1.3.962,9.807,9.807,0,1,0,4.731,4.549,3.323,3.323,0,0,1,.971-1.23A11.232,11.232,0,0,1,22.733,44.62Zm16.359,1.653q.312-.274.61-.57c.2-.2.386-.4.569-.611L42.2,47.019l-1.18,1.18Z" transform="translate(0 -7.54)" fill="#4c4740"/>
        <path id="Path_1004022" data-name="Path 1004022" d="M257.457,247.5a.765.765,0,0,0,.765.765h7.253a.765.765,0,1,0,0-1.531h-7.253A.765.765,0,0,0,257.457,247.5Z" transform="translate(-231.181 -222.323)" fill="#4c4740"/>
        <path id="Path_1004023" data-name="Path 1004023" d="M247.911,275.433a.765.765,0,0,0,.765.765h9.2a.765.765,0,1,0,0-1.531h-9.2a.765.765,0,0,0-.765.765Z" transform="translate(-222.609 -247.405)" fill="#4c4740"/>
        <path id="Path_1004024" data-name="Path 1004024" d="M257.879,302.6h-9.2a.765.765,0,1,0,0,1.531h9.2a.765.765,0,1,0,0-1.531Z" transform="translate(-222.609 -272.488)" fill="#4c4740"/>
        <path id="Path_1004025" data-name="Path 1004025" d="M275.608,330.535h-4.655a.765.765,0,0,0,0,1.531h4.655a.765.765,0,1,0,0-1.531Z" transform="translate(-242.612 -297.57)" fill="#4c4740"/>
        <path id="Path_1004026" data-name="Path 1004026" d="M401.238,149.808h.712v.712a.765.765,0,1,0,1.531,0v-.712h.712a.765.765,0,0,0,0-1.531h-.712v-.712a.765.765,0,1,0-1.531,0v.712h-.712a.765.765,0,1,0,0,1.531Z" transform="translate(-359.601 -132.587)" fill="#4c4740"/>
      </g>
    </g>
  </g>
</svg>
