<svg xmlns="http://www.w3.org/2000/svg" width="96" height="96" viewBox="0 0 96 96">
  <g id="img6" transform="translate(-383.746 -8400.001)">
    <path id="Path_997400" data-name="Path 997400" d="M48,0A48,48,0,1,1,0,48,48,48,0,0,1,48,0Z" transform="translate(383.746 8400.001)" fill="#ff9a1a"/>
    <g id="Group_1181198" data-name="Group 1181198" transform="translate(398.517 8414.792)">
      <path id="Path_1007654" data-name="Path 1007654" d="M19.918,26.365a2.817,2.817,0,0,0-.881.141V25.493a2.827,2.827,0,0,0-3.79-2.658,2.826,2.826,0,0,0-5.489,0,2.827,2.827,0,0,0-3.79,2.65L5.89,35.806l-1.367-1.3A2.667,2.667,0,0,0,.644,38.157c.25.3,7.3,8.722,7.549,8.97A3.438,3.438,0,0,0,6.642,50V65.444a.973.973,0,1,0,1.946,0V53.95H20.8V65.444a.973.973,0,1,0,1.946,0V50a3.436,3.436,0,0,0-1.44-2.8,4.658,4.658,0,0,0,1.44-3.369V29.192A2.829,2.829,0,0,0,19.918,26.365ZM20.8,52H8.588V50a1.5,1.5,0,0,1,1.493-1.493h9.225A1.5,1.5,0,0,1,20.8,50Zm0-8.169a2.729,2.729,0,0,1-2.726,2.726H11.506a2.72,2.72,0,0,1-2.089-.974l-7.282-8.68a.721.721,0,0,1,1.049-.986l2.342,2.223a1.362,1.362,0,0,0,2.3-.978l.088-11.673a.881.881,0,0,1,1.762,0v7.885a.973.973,0,0,0,1.946,0V23.512a.881.881,0,0,1,1.762,0v9.866a.973.973,0,0,0,1.946,0V25.493a.881.881,0,1,1,1.762,0v7.885a.973.973,0,0,0,1.946,0V29.192a.881.881,0,0,1,1.762,0V43.835ZM40.016,27.777c.31-.3,7.687-9.125,7.983-9.478a2.755,2.755,0,0,0-4.007-3.769L42.47,15.975,42.387,5.007A2.922,2.922,0,0,0,38.414,2.28a2.923,2.923,0,0,0-5.7,0,2.922,2.922,0,0,0-3.973,2.728V6.144a2.923,2.923,0,0,0-3.9,2.755V24.3a4.851,4.851,0,0,0,1.544,3.55,3.565,3.565,0,0,0-1.544,2.936V65.444a.973.973,0,0,0,1.946,0V34.9H39.731V65.444a.973.973,0,1,0,1.946,0V30.791a3.567,3.567,0,0,0-1.661-3.013ZM26.783,8.9a.978.978,0,1,1,1.955,0v4.4a.973.973,0,0,0,1.946,0v-8.3a.978.978,0,1,1,1.955,0v8.3a.973.973,0,1,0,1.946,0V2.923a.978.978,0,0,1,1.955,0V13.3a.973.973,0,1,0,1.946,0v-8.3a.978.978,0,1,1,1.955.007l.093,12.32a1.362,1.362,0,0,0,2.3.978l2.5-2.371a.809.809,0,0,1,1.177,1.107L38.848,26.18a2.912,2.912,0,0,1-2.236,1.043H29.7A2.922,2.922,0,0,1,26.783,24.3V8.9ZM39.731,32.95H26.783V30.791A1.623,1.623,0,0,1,28.4,29.169H38.11a1.623,1.623,0,0,1,1.622,1.622Zm26.083,5.207a2.667,2.667,0,0,0-3.879-3.648l-1.367,1.3-.078-10.313a2.827,2.827,0,0,0-3.79-2.658,2.826,2.826,0,0,0-5.489,0,2.827,2.827,0,0,0-3.79,2.658v1.014a2.826,2.826,0,0,0-3.708,2.686V43.835a4.658,4.658,0,0,0,1.44,3.369,3.436,3.436,0,0,0-1.44,2.8V65.444a.973.973,0,1,0,1.946,0V53.95h9.292a.973.973,0,1,0,0-1.946H45.66V50a1.5,1.5,0,0,1,1.493-1.493h9.225A1.5,1.5,0,0,1,57.87,50V65.444a.973.973,0,1,0,1.946,0V50a3.438,3.438,0,0,0-1.551-2.872C58.521,46.877,65.566,38.453,65.814,38.157Zm-8.772,7.429a2.72,2.72,0,0,1-2.089.974H48.386a2.729,2.729,0,0,1-2.726-2.726V29.192a.881.881,0,0,1,1.762,0v4.186a.973.973,0,0,0,1.946,0V25.493a.881.881,0,1,1,1.762,0v7.885a.973.973,0,0,0,1.946,0V23.512a.881.881,0,0,1,1.762,0v9.866a.973.973,0,1,0,1.946,0V25.493a.881.881,0,1,1,1.762.007l.088,11.666a1.362,1.362,0,0,0,2.3.977l2.342-2.223a.721.721,0,0,1,1.049.986Z" transform="translate(0 0)" fill="#593609"/>
    </g>
  </g>
</svg>
