<svg xmlns="http://www.w3.org/2000/svg" width="70" height="70" viewBox="0 0 70 70">
  <g id="img62" transform="translate(-319.711 -15167)">
    <rect id="Rectangle_455654" data-name="Rectangle 455654" width="70" height="70" transform="translate(319.711 15167)" fill="#faf2df"/>
    <g id="Group_1182019" data-name="Group 1182019" transform="translate(326.711 15174)">
      <g id="Group_1182017" data-name="Group 1182017" transform="translate(1.885 1.885)">
        <g id="Group_1182002" data-name="Group 1182002" transform="translate(3.54 29.202)">
          <path id="Path_1009722" data-name="Path 1009722" d="M22.494,46.5H19.273l-.283-2a15.041,15.041,0,0,0-2.841-6.849h-.274a17.7,17.7,0,0,1-2.982-.257l-.018.009A3.514,3.514,0,0,0,9.54,35a3.122,3.122,0,0,0-.425.027,2.643,2.643,0,0,0-.46.088,3.542,3.542,0,0,0-2.168,1.611A3.619,3.619,0,0,0,6,38.54V58.892H19.273V53.583H23.7a.887.887,0,0,0,.885-.885V46.5Z" transform="translate(-6 -35)" fill="#ff826e"/>
        </g>
        <g id="Group_1182003" data-name="Group 1182003" transform="translate(19.494 31.856)">
          <path id="Path_1009723" data-name="Path 1009723" d="M31.968,39.451V38h3.54v1.451a1.952,1.952,0,0,0,1.257,1.8c.009.009.018.009.035.018a1.976,1.976,0,0,0,2.177-.381l1.018-1.026,2.5,2.5L41.471,43.38a1.976,1.976,0,0,0-.381,2.177c.009.018.009.027.018.035a1.952,1.952,0,0,0,1.8,1.257h1.451v3.54H42.9a1.952,1.952,0,0,0-1.8,1.257c-.009.009-.009.018-.018.035a1.976,1.976,0,0,0,.381,2.177L42.5,54.875l-2.5,2.5-1.018-1.026a1.976,1.976,0,0,0-2.177-.381c-.018.009-.027.009-.035.018a1.952,1.952,0,0,0-1.257,1.8v1.451h-3.54V57.786a1.952,1.952,0,0,0-1.257-1.8c-.009-.009-.018-.009-.035-.018a1.976,1.976,0,0,0-2.177.381l-1.018,1.026L24.03,53.928h1.743a.888.888,0,0,0,.885-.885v-.885h3.124a5.312,5.312,0,1,0-.08-6.982,1.731,1.731,0,0,0-.566-.1,1.693,1.693,0,0,0-1.212.5l-1.265,1.265H24.57a1.952,1.952,0,0,0,1.8-1.257c.009-.009.009-.018.018-.035A1.976,1.976,0,0,0,26,43.38l-1.026-1.018,2.5-2.5L28.5,40.885a1.976,1.976,0,0,0,2.177.381c.018-.009.027-.009.035-.018A1.952,1.952,0,0,0,31.968,39.451Z" transform="translate(-24.03 -38)" fill="#fcd770"/>
        </g>
        <g id="Group_1182004" data-name="Group 1182004" transform="translate(37.166)">
          <path id="Path_1009724" data-name="Path 1009724" d="M44,2H58.158V14.389H44V2Z" transform="translate(-44 -2)" fill="#b4dd7f"/>
        </g>
        <g id="Group_1182005" data-name="Group 1182005" transform="translate(42.475 17.698)">
          <path id="Path_1009725" data-name="Path 1009725" d="M60.619,22.885v9.734H50V22H60.619Z" transform="translate(-50 -22)" fill="#b4dd7f"/>
        </g>
        <g id="Group_1182006" data-name="Group 1182006" transform="translate(23.007 15.928)">
          <path id="Path_1009726" data-name="Path 1009726" d="M28,28.849V20h8.849v8.849H28Z" transform="translate(-28 -20)" fill="#b4dd7f"/>
        </g>
        <g id="Group_1182007" data-name="Group 1182007" transform="translate(24.777 5.309)">
          <ellipse id="Ellipse_13937" data-name="Ellipse 13937" cx="1.5" cy="2" rx="1.5" ry="2" transform="translate(0.338 -0.194)" fill="#ff826e"/>
        </g>
        <g id="Group_1182008" data-name="Group 1182008" transform="translate(47.784 40.705)">
          <circle id="Ellipse_13938" data-name="Ellipse 13938" cx="1.5" cy="1.5" r="1.5" transform="translate(0.331 0.41)" fill="#ff826e"/>
        </g>
        <g id="Group_1182009" data-name="Group 1182009" transform="translate(0 8.849)">
          <path id="Path_1009727" data-name="Path 1009727" d="M21.468,12.885v1.77a.887.887,0,0,1-.885.885H2.885a.758.758,0,0,1-.319-.062A.888.888,0,0,1,2,14.655V12H20.583A.887.887,0,0,1,21.468,12.885Z" transform="translate(-2 -12)" fill="#fcd770"/>
        </g>
        <g id="Group_1182010" data-name="Group 1182010" transform="translate(0.752 0)">
          <path id="Path_1009728" data-name="Path 1009728" d="M18.893,7.309H17.141a.887.887,0,0,0-.885.885v2.655h-3.54V6.424a.887.887,0,0,0-.885-.885h-1.77a.887.887,0,0,0-.885.885v4.424H5.637V8.194a.887.887,0,0,0-.885-.885H2.983a.67.67,0,0,0-.133.009,8.711,8.711,0,0,1,16.043-.009Z" transform="translate(-2.85 -2)" fill="#ffeaa7"/>
        </g>
        <g id="Group_1182011" data-name="Group 1182011" transform="translate(14.158 5.309)">
          <path id="Path_1009729" data-name="Path 1009729" d="M21.168,9.7l.372,1.841H18V8.885A.887.887,0,0,1,18.885,8h1.752A7.9,7.9,0,0,1,21.168,9.7Z" transform="translate(-18 -8)" fill="#fcd770"/>
        </g>
        <g id="Group_1182012" data-name="Group 1182012" transform="translate(7.079 3.54)">
          <path id="Path_1009730" data-name="Path 1009730" d="M13.54,6.885v4.424H10V6.885A.887.887,0,0,1,10.885,6h1.77A.887.887,0,0,1,13.54,6.885Z" transform="translate(-10 -6)" fill="#fcd770"/>
        </g>
        <g id="Group_1182013" data-name="Group 1182013" transform="translate(0 5.309)">
          <path id="Path_1009731" data-name="Path 1009731" d="M4.655,8a.887.887,0,0,1,.885.885V11.54H2l.1-.991a8.654,8.654,0,0,1,.655-2.54A.67.67,0,0,1,2.885,8Z" transform="translate(-2 -8)" fill="#fcd770"/>
        </g>
        <g id="Group_1182014" data-name="Group 1182014" transform="translate(0 12.327)">
          <path id="Path_1009732" data-name="Path 1009732" d="M8.194,18.647v.885a1.783,1.783,0,0,0-1.77,1.77,2.129,2.129,0,0,0,.628,1.513l.885.885a.893.893,0,0,1,.257.619V27.5l-2.77-1.982A8.162,8.162,0,0,1,2,18.859V18.5a6.068,6.068,0,0,1,.566-2.566.758.758,0,0,0,.319.062h7.964A2.651,2.651,0,0,0,8.194,18.647Z" transform="translate(-2 -15.93)" fill="#656d78"/>
        </g>
        <g id="Group_1182015" data-name="Group 1182015" transform="translate(4.424 12.389)">
          <path id="Path_1009733" data-name="Path 1009733" d="M17.619,26.619v.522A3.021,3.021,0,0,1,14.6,30.158h-.522A7.421,7.421,0,0,0,15.8,34.866c.159.195.319.4.469.6h-.274a17.7,17.7,0,0,1-2.982-.257l-.018.009a3.514,3.514,0,0,0-3.336-2.407,3.122,3.122,0,0,0-.425.027,2.643,2.643,0,0,0-.46.088v-8.6a.893.893,0,0,0-.257-.619l-.885-.885A2.129,2.129,0,0,1,7,21.309a1.783,1.783,0,0,1,1.77-1.77v-.885A2.651,2.651,0,0,1,11.424,16h6.194a14.775,14.775,0,0,1,2.655,7.964l-2.655.885Z" transform="translate(-7 -16)" fill="#f0d0b4"/>
        </g>
        <g id="Group_1182016" data-name="Group 1182016" transform="translate(22.122 38.935)">
          <path id="Path_1009734" data-name="Path 1009734" d="M34.079,47.77a1.775,1.775,0,0,1,1.77,1.77,3.535,3.535,0,0,1-3.54,3.54H27V47.77L28.265,46.5a1.693,1.693,0,0,1,1.212-.5,1.73,1.73,0,0,1,.566.1,1.685,1.685,0,0,1,.965.849l.416.823Z" transform="translate(-27 -46)" fill="#f0d0b4"/>
        </g>
      </g>
      <g id="Group_1182018" data-name="Group 1182018" transform="translate(1 1)">
        <path id="Path_1009735" data-name="Path 1009735" d="M55.864,31.086V18.7H50.554v-3.54h3.54V1H38.166V8.079H30.924a2.648,2.648,0,1,0-3.377,3.377v5.472h-3.54V27.547H30.2v5.309h-1.77v2.336a1.1,1.1,0,0,1-.746,1,1.084,1.084,0,0,1-1.21-.19l-1.644-1.653L21.073,38.1l1.652,1.646A1.114,1.114,0,0,1,22.9,41a1.089,1.089,0,0,1-.982.708H19.464l-.178-1.243a15.806,15.806,0,0,0-3.505-7.885,6.511,6.511,0,0,1-1.433-3.3,3.926,3.926,0,0,0,2.32-1.1,3.878,3.878,0,0,0,1.144-2.762V23.761l2.655-.885v-.638a15.048,15.048,0,0,0-1.947-7.08h1.947a1.772,1.772,0,0,0,1.77-1.77v-1.77a1.772,1.772,0,0,0-1.77-1.77h-.159l-.226-1.126A9.607,9.607,0,0,0,1.1,9.651L1,10.734v2.655a1.755,1.755,0,0,0,.393,1.1A6.97,6.97,0,0,0,1,16.776v.368a9.081,9.081,0,0,0,3.8,7.375l2.4,1.713v4.342A4.338,4.338,0,0,0,4.55,34.626H4.54V55.864H19.583V50.555h1.43l3.819,3.819,1.644-1.653a1.1,1.1,0,0,1,1.248-.174,1.074,1.074,0,0,1,.708.981v2.335h5.309V53.527a1.1,1.1,0,0,1,.746-1,1.083,1.083,0,0,1,1.21.19l1.644,1.653L41.1,50.615,39.448,48.97a1.1,1.1,0,0,1-.175-1.248,1.089,1.089,0,0,1,.982-.708H42.59v-1.77h6.357a2.648,2.648,0,1,0,3.377-3.377V31.086Zm-10.619-1.77V20.468h8.568L49.619,25.36l-1.094-1.094-1.251,1.251,2.446,2.446,4.374-5.1v6.457ZM39.935,2.77H52.324V13.389H39.935Zm-11.5,5.309a.885.885,0,1,1-.885.885A.886.886,0,0,1,28.432,8.079ZM25.777,18.7h6.288l-2.787,3.135-1.106-1.106-1.251,1.251,2.433,2.433,3.5-3.94v5.3H25.777ZM17.536,40.713l.133.93a4.405,4.405,0,0,1-3.663-3.632l-.586-3.494c.563.059,1.128.095,1.694.1a14.04,14.04,0,0,1,2.423,6.1Zm1.142-19.107-2.635.879v1.522H14.482a2.3,2.3,0,0,1-2.072-1.28l-1.583.792a4.066,4.066,0,0,0,3.655,2.259h1.526a2.119,2.119,0,0,1-.59,1.145,2.154,2.154,0,0,1-1.511.626l-3.173,0v1.77H12.56a8.293,8.293,0,0,0,1.2,3.462c-.283-.027-.565-.07-.845-.111A4.414,4.414,0,0,0,8.964,30.2V22.6a1.779,1.779,0,0,0-.519-1.251l-.885-.885a1.244,1.244,0,0,1-.366-.885.886.886,0,0,1,.885-.885h.885v-1.77a1.772,1.772,0,0,1,1.77-1.77h5.727a14.051,14.051,0,0,1,2.218,6.448Zm1.789-9.988v1.77H2.77l0-1.77ZM4.54,9.849H2.863l0-.021A7.891,7.891,0,0,1,3.25,8.079H4.54Zm7.079,0H9.849V6.309h1.77Zm6.729-.78.156.78H16.928V8.079h1.145A7.78,7.78,0,0,1,18.347,9.069Zm-7.684-6.3A7.853,7.853,0,0,1,17.2,6.309h-.276a1.772,1.772,0,0,0-1.77,1.77v1.77h-1.77V6.309a1.772,1.772,0,0,0-1.77-1.77H9.849a1.772,1.772,0,0,0-1.77,1.77v3.54H6.309V8.079a1.772,1.772,0,0,0-1.77-1.77H4.106a7.807,7.807,0,0,1,6.557-3.54ZM5.824,23.079A7.308,7.308,0,0,1,2.77,17.144v-.368a5.191,5.191,0,0,1,.264-1.618H7.687a3.5,3.5,0,0,0-.493,1.77v.151a2.66,2.66,0,0,0-1.77,2.5,3,3,0,0,0,.885,2.136l.885.885v1.454ZM6.67,33.271A2.663,2.663,0,0,1,8.658,31.99a2.391,2.391,0,0,1,.3-.019A2.666,2.666,0,0,1,11.6,34.361l.66,3.943a6.178,6.178,0,0,0,6.112,5.172h4.747v5.309h-6.36a9.792,9.792,0,0,1-9.637-8.324l-.788-5.385a2.857,2.857,0,0,1,.336-1.805ZM17.813,54.094H6.309V43.843a11.583,11.583,0,0,0,10.45,6.712h1.054ZM40.82,45.245h-.565A2.96,2.96,0,0,0,38.2,50.223l.4.394-1.25,1.25-.394-.395a2.959,2.959,0,0,0-4.978,2.055v.566H30.2v-.566a2.96,2.96,0,0,0-4.979-2.056l-.393.395-1.35-1.35a1.773,1.773,0,0,0,1.411-1.733h1.878a6.193,6.193,0,1,0-.021-8.831,2.517,2.517,0,0,0-.259-.018,2.575,2.575,0,0,0-1.708.654,2.775,2.775,0,0,0-.8-2.093l-.4-.394,1.25-1.25.394.395A2.958,2.958,0,0,0,30.2,35.192v-.566h1.77v.566a2.96,2.96,0,0,0,4.979,2.056l.393-.395,1.25,1.25L38.2,38.5a2.959,2.959,0,0,0,2.056,4.978h.565Zm-9.735-3.54H28.977l-.166-.333a2.635,2.635,0,0,0-.374-.552,4.428,4.428,0,1,1,1.772,7.873,4.432,4.432,0,0,0,3.533-4.333A2.658,2.658,0,0,0,31.086,41.705Zm-3.858.459.656,1.311h3.2a.886.886,0,0,1,.886.885,2.659,2.659,0,0,1-2.656,2.655H24.889V42.956L25.9,41.949A.86.86,0,0,1,27.227,42.164Zm24.212,3.08a.885.885,0,1,1,.885-.885A.886.886,0,0,1,51.439,45.245Zm-.885-3.377a2.652,2.652,0,0,0-1.607,1.607H42.59v-1.77H40.255a1.107,1.107,0,0,1-1-.745,1.1,1.1,0,0,1,.191-1.211L41.1,38.1l-3.759-3.758L35.7,36a1.1,1.1,0,0,1-1.248.174,1.074,1.074,0,0,1-.708-.981V32.856h-1.77V27.547h2.655V18.481l2.432-2.735-1.323-1.175-2.1,2.357H29.317V11.456a2.652,2.652,0,0,0,1.607-1.607h7.242v5.309H48.784V18.7H43.475V31.086h7.079Z" transform="translate(-1 -1)"/>
        <path id="Path_1009736" data-name="Path 1009736" d="M49.638,9.818,48.544,8.724,47.293,9.975l2.446,2.446L55.669,5.5,54.326,4.35Z" transform="translate(-6.329 -1.386)"/>
      </g>
    </g>
  </g>
</svg>
