<svg xmlns="http://www.w3.org/2000/svg" xmlns:xlink="http://www.w3.org/1999/xlink" width="96" height="96" viewBox="0 0 96 96">
  <defs>
    <clipPath id="clip-path">
      <rect id="Rectángulo_47325" data-name="Rectángulo 47325" width="54.989" height="58.92" fill="#593609"/>
    </clipPath>
  </defs>
  <g id="img66" transform="translate(-383.746 -8400.001)">
    <path id="Path_997400" data-name="Path 997400" d="M48,0A48,48,0,1,1,0,48,48,48,0,0,1,48,0Z" transform="translate(383.746 8400.001)" fill="#ff9a1a"/>
    <g id="Group_1099776" data-name="Group 1099776" transform="translate(401.746 8418)">
      <g id="Group_1099618" data-name="Group 1099618" transform="translate(0 0)">
        <rect id="Rectangle_401104" data-name="Rectangle 401104" width="59.378" height="60.093" transform="translate(0)" fill="none"/>
      </g>
      <g id="Grupo_156261" data-name="Grupo 156261" transform="translate(1.19 0.351)">
        <rect id="Rectángulo_47312" data-name="Rectángulo 47312" width="7.853" height="3.926" transform="translate(4.928 18.673)" fill="#593609"/>
        <path id="Trazado_198297" data-name="Trazado 198297" d="M10.008,59.838h7.848l-3.926,4.908Z" transform="translate(-5.078 -30.362)" fill="#593609"/>
        <g id="Grupo_156260" data-name="Grupo 156260" transform="translate(0 0)">
          <g id="Grupo_156259" data-name="Grupo 156259" clip-path="url(#clip-path)">
            <path id="Trazado_198298" data-name="Trazado 198298" d="M25.947,71.674a7.848,7.848,0,1,0,7.848-7.848,7.848,7.848,0,0,0-7.848,7.848m7.85,5.89a5.855,5.855,0,0,1-2.859-.744l3.332-4.164H39.6a5.893,5.893,0,0,1-5.8,4.906ZM39.6,70.693H34.781V65.873a5.9,5.9,0,0,1,4.82,4.819ZM32.82,65.873v5.456l-3.407,4.259a5.875,5.875,0,0,1,3.407-9.716" transform="translate(-13.166 -32.385)" fill="#593609"/>
            <rect id="Rectángulo_47313" data-name="Rectángulo 47313" width="1.963" height="1.963" transform="translate(12.781 49.102)" fill="#593609"/>
            <rect id="Rectángulo_47314" data-name="Rectángulo 47314" width="11.779" height="1.963" transform="translate(16.708 49.102)" fill="#593609"/>
            <rect id="Rectángulo_47315" data-name="Rectángulo 47315" width="15.705" height="1.963" transform="translate(12.781 53.029)" fill="#593609"/>
            <rect id="Rectángulo_47316" data-name="Rectángulo 47316" width="1.963" height="1.963" transform="translate(34.376 49.102)" fill="#593609"/>
            <rect id="Rectángulo_47317" data-name="Rectángulo 47317" width="11.779" height="1.963" transform="translate(38.303 49.102)" fill="#593609"/>
            <rect id="Rectángulo_47318" data-name="Rectángulo 47318" width="15.705" height="1.963" transform="translate(34.376 53.029)" fill="#593609"/>
            <rect id="Rectángulo_47319" data-name="Rectángulo 47319" width="1.963" height="1.963" transform="translate(36.339 9.837)" fill="#593609"/>
            <rect id="Rectángulo_47320" data-name="Rectángulo 47320" width="9.816" height="1.963" transform="translate(40.266 9.837)" fill="#593609"/>
            <rect id="Rectángulo_47321" data-name="Rectángulo 47321" width="13.742" height="1.963" transform="translate(36.339 13.763)" fill="#593609"/>
            <rect id="Rectángulo_47322" data-name="Rectángulo 47322" width="1.963" height="1.963" transform="translate(36.339 20.635)" fill="#593609"/>
            <rect id="Rectángulo_47323" data-name="Rectángulo 47323" width="9.816" height="1.963" transform="translate(40.266 20.635)" fill="#593609"/>
            <rect id="Rectángulo_47324" data-name="Rectángulo 47324" width="13.742" height="1.963" transform="translate(36.339 24.561)" fill="#593609"/>
            <path id="Trazado_198299" data-name="Trazado 198299" d="M72.762,79.526H84.543a.981.981,0,0,0,.981-.982V70.7a.981.981,0,0,0-.981-.982H81.6V64.807a.981.981,0,0,0-.981-.982H76.689a.981.981,0,0,0-.982.982v2.942H72.763a.981.981,0,0,0-.981.982v9.82a.981.981,0,0,0,.98.976m10.8-1.958H81.6V71.677H83.56ZM77.672,65.788h1.963V77.569H77.672Zm-3.926,3.926h1.962v7.848H73.745Z" transform="translate(-36.422 -32.385)" fill="#593609"/>
            <path id="Trazado_198300" data-name="Trazado 198300" d="M42.872,25.835H54.651a.981.981,0,0,0,.981-.981v-5.89a.981.981,0,0,0-.981-.981H42.872a.981.981,0,0,0-.982.981v5.89a.981.981,0,0,0,.98.982Zm.981-5.89h9.82v3.928h-9.82Z" transform="translate(-21.255 -9.124)" fill="#593609"/>
            <path id="Trazado_198301" data-name="Trazado 198301" d="M42.872,47.759H54.651a.981.981,0,0,0,.981-.981V40.889a.981.981,0,0,0-.981-.982H42.872a.981.981,0,0,0-.982.982v5.889a.981.981,0,0,0,.982.981m.981-5.889h9.82V45.8h-9.82Z" transform="translate(-21.255 -20.248)" fill="#593609"/>
            <path id="Trazado_198302" data-name="Trazado 198302" d="M3.947,16.2V29.474a.983.983,0,0,0,.215.614l3.71,4.64V57.942a.982.982,0,0,0,.982.981H54.01a.981.981,0,0,0,.981-.981V4.935a.981.981,0,0,0-.981-.982H16.2A8.835,8.835,0,1,0,3.947,16.2M11.8,21.626H5.914V19.659H11.8ZM8.858,32.815,6.974,30.457h3.772ZM5.914,23.588H7.877V28.5H5.914ZM11.8,28.5H9.84V23.588H11.8ZM53.03,5.917V56.961H9.84V34.729l3.711-4.639a.983.983,0,0,0,.215-.614V16.2A8.783,8.783,0,0,0,17.177,5.917ZM8.859,1.989A6.872,6.872,0,0,1,12.3,14.805a.981.981,0,0,0-.492.849V17.7H9.84V12.215L12.5,9.555,11.111,8.167,8.859,10.418,6.607,8.167,5.219,9.554l2.657,2.657v5.483H5.914V15.653a.979.979,0,0,0-.491-.849A6.872,6.872,0,0,1,8.864,1.988Z" transform="translate(-0.002 -0.003)" fill="#593609"/>
          </g>
        </g>
      </g>
    </g>
  </g>
</svg>
