<svg xmlns="http://www.w3.org/2000/svg" width="60" height="60" viewBox="0 0 60 60">
  <g id="img61" transform="translate(-1151.711 -14909)">
    <rect id="Image_Place_Holder" data-name="Image Place Holder" width="60" height="60" transform="translate(1151.711 14909)" fill="#ff9a1a"/>
    <g id="Group_1181995" data-name="Group 1181995" transform="translate(1152.534 14914.999)">
      <path id="Path_1009715" data-name="Path 1009715" d="M208.116,38.228a.744.744,0,0,0,.744-.744V36.74a2.234,2.234,0,0,0-2.232-2.232h-1.116V33.392a.744.744,0,1,0-1.488,0v1.116h-1.116a2.234,2.234,0,0,0-2.232,2.232V38.6a2.607,2.607,0,0,0,2.6,2.6h2.976a1.117,1.117,0,0,1,1.116,1.116v1.86a.745.745,0,0,1-.744.744h-3.72a.745.745,0,0,1-.744-.744v-.744a.744.744,0,0,0-1.488,0v.744a2.234,2.234,0,0,0,2.232,2.232h1.116v1.116a.744.744,0,1,0,1.488,0V46.411h1.116a2.234,2.234,0,0,0,2.232-2.232v-1.86a2.607,2.607,0,0,0-2.6-2.6h-2.976a1.117,1.117,0,0,1-1.116-1.116V36.74a.745.745,0,0,1,.744-.744h3.72a.745.745,0,0,1,.744.744v.744A.744.744,0,0,0,208.116,38.228Z" transform="translate(-176.583 -29.64)" fill="#593609"/>
      <path id="Path_1009716" data-name="Path 1009716" d="M111.518,8.538a1.019,1.019,0,0,0-.191-.484,13.277,13.277,0,0,0-1.18-1.161l-2.541-2.541L105.355,2.1A16.763,16.763,0,0,0,103.447.209C103-.11,102.058.033,101.509.033H81.775a2.234,2.234,0,0,0-2.232,2.232V13.051a.744.744,0,0,0,1.488,0V2.264a.745.745,0,0,1,.744-.744h20.458V7.386a1.948,1.948,0,0,0,1.946,1.946h5.866v2.976a.744.744,0,1,0,1.488,0c0-.559.027-3.492-.014-3.769Zm-7.339-.694a.458.458,0,0,1-.458-.458V2.572l5.271,5.271Z" transform="translate(-66.608 0)" fill="#593609"/>
      <path id="Path_1009717" data-name="Path 1009717" d="M6.612,152.443l3.793,3.793a1.488,1.488,0,0,0,2.1,0l.886-.886,1.4,1.4a1.5,1.5,0,0,1,.421,1.265,3.948,3.948,0,0,0,.042,1.7L13.8,161.165a2.752,2.752,0,0,0,1.337,4.632,2.753,2.753,0,0,0,3.251,3.737,2.749,2.749,0,0,0,2.722,2.341,2.774,2.774,0,0,0,.648-.077,2.753,2.753,0,0,0,4.676,1.581l.752-.752.059.059a2.866,2.866,0,0,0,4.815-1.357,2.866,2.866,0,0,0,4.214-2.154c-.01.079.777.123.858.128a2.411,2.411,0,0,0,1.511-.453,3.8,3.8,0,0,0,1.249-2.095.216.216,0,0,0,0-.138c.173-.007.359.045.537.045a2.868,2.868,0,0,0,2.028-4.9l-.226-.226a4.684,4.684,0,0,0,.937-3.529,1.494,1.494,0,0,1,.421-1.265l1.4-1.4.886.886a1.488,1.488,0,0,0,2.1,0l3.793-3.793a1.488,1.488,0,0,0,0-2.1l-9.994-9.994a1.488,1.488,0,0,0-2.1,0l-3.793,3.793a1.49,1.49,0,0,0,0,2.1l.886.886-.809.809a1.479,1.479,0,0,1-1.379.4l-2.279-.513a5.921,5.921,0,0,0-4.058.526,5.915,5.915,0,0,0-3.193-.235l-1.25.252a1.485,1.485,0,0,1-1.346-.406l-.832-.832.886-.886a1.488,1.488,0,0,0,0-2.1l-3.793-3.793a1.488,1.488,0,0,0-2.1,0l-9.994,9.994a1.49,1.49,0,0,0,0,2.1Zm8.237,9.773,1.987-1.986a1.266,1.266,0,0,1,1.793,1.789l-1.99,1.99a1.266,1.266,0,0,1-1.79-1.792Zm1.923,5.554a1.268,1.268,0,0,1,0-1.791l.919-.919,0,0,1.986-1.986h0l.532-.532A1.266,1.266,0,1,1,22,164.331l-.887.887h0l-1.955,1.955,0,0-.594.594a1.268,1.268,0,0,1-1.791,0Zm3.44,2.246a1.268,1.268,0,0,1,0-1.79l1.957-1.957a1.266,1.266,0,0,1,1.789,1.792l-.864.864-.558.558,0,0-.531.531A1.268,1.268,0,0,1,20.212,170.017Zm6.055,1.422-.888.888a1.266,1.266,0,0,1-1.792-1.789l.89-.89a1.266,1.266,0,0,1,1.791,1.791ZM40.722,141.4l9.994,9.994-3.793,3.793-9.994-9.994Zm-8.752,7.877,2.279.513a2.961,2.961,0,0,0,2.758-.8l.809-.809,6.118,6.118-1.4,1.4a2.989,2.989,0,0,0-.841,2.529,3.19,3.19,0,0,1-.528,2.252l-8.836-8.836a.744.744,0,0,0-.989-.056l-2.512,2a.744.744,0,0,0-.231.85l.2.518a2.4,2.4,0,0,1-1.143,3l-.168.087-2.063-4.07a1.113,1.113,0,0,1,.206-1.294l2.2-2.2a4.441,4.441,0,0,1,4.136-1.2ZM21.4,149.011a2.969,2.969,0,0,0,2.693.813l1.25-.252a4.454,4.454,0,0,1,1.352-.062l-2.112,2.112a2.6,2.6,0,0,0-.481,3.018l2.063,4.07a1.478,1.478,0,0,0,.868.743c1.156.375,2.382-.788,2.907-1.706a3.914,3.914,0,0,0,.253-3.326l0-.006,0-.009,1.565-1.245,9.656,9.656a1.38,1.38,0,0,1-.976,2.356,1.969,1.969,0,0,1-1.381-.809L35.22,160.56a.744.744,0,0,0-1.049,1.055l3.827,3.8a1.387,1.387,0,0,1,.4,1.076,1.757,1.757,0,0,1-.486,1,.972.972,0,0,1-.828.317,1.549,1.549,0,0,1-1.035-.44l-4.173-4.206a.744.744,0,1,0-1.056,1.048l3.538,3.566c.015.018.03.035.047.052a1.38,1.38,0,1,1-1.952,1.952l-3.695-3.695a.744.744,0,1,0-1.052,1.052l2.54,2.54a1.38,1.38,0,1,1-1.952,1.952l-.289-.289a2.753,2.753,0,0,0-2.268-3.532,2.75,2.75,0,0,0-2.082-3.334,2.753,2.753,0,0,0-3.2-3.72,2.756,2.756,0,0,0-3.822-2.163c.01-.111.025-.234.045-.372a2.989,2.989,0,0,0-.841-2.529l-1.4-1.4,6.118-6.118ZM17.658,141.4l3.794,3.792h0l-9.994,9.994-3.793-3.793Z" transform="translate(0 -127.02)" fill="#593609"/>
    </g>
  </g>
</svg>
