<svg xmlns="http://www.w3.org/2000/svg" width="100" height="100" viewBox="0 0 100 100">
  <g id="img6" transform="translate(-383.746 -8400)">
    <circle id="Ellipse_13609" data-name="Ellipse 13609" cx="50" cy="50" r="50" transform="translate(383.746 8400)" fill="#beb1a1"/>
    <g id="Group_1179279" data-name="Group 1179279" transform="translate(404.191 8418.889)">
      <path id="Path_1002900" data-name="Path 1002900" d="M21.174,38.7H17.526a2.063,2.063,0,0,1-2.061-2.061V34.605a.273.273,0,0,0-.211-.259,15.449,15.449,0,0,1-3.626-1.506.249.249,0,0,0-.3.03L9.872,34.323a2.062,2.062,0,0,1-2.915,0l-2.58-2.58a2.061,2.061,0,0,1,0-2.915l1.452-1.453a.247.247,0,0,0,.03-.3,15.467,15.467,0,0,1-1.506-3.626.273.273,0,0,0-.259-.211H2.061A2.064,2.064,0,0,1,0,21.174V17.526a2.064,2.064,0,0,1,2.061-2.061H4.095a.273.273,0,0,0,.259-.211A15.465,15.465,0,0,1,5.86,11.628a.249.249,0,0,0-.03-.3L4.377,9.872a2.061,2.061,0,0,1,0-2.915l2.58-2.58a2.062,2.062,0,0,1,2.915,0L11.325,5.83a.248.248,0,0,0,.3.03,15.465,15.465,0,0,1,3.625-1.506.273.273,0,0,0,.211-.259V2.061A2.064,2.064,0,0,1,17.526,0h3.649a2.064,2.064,0,0,1,2.061,2.061V4.095a.272.272,0,0,0,.211.258A15.475,15.475,0,0,1,27.072,5.86a.249.249,0,0,0,.3-.03l1.452-1.453a2.06,2.06,0,0,1,2.915,0l.273.273A.911.911,0,0,1,30.727,5.94c-.168-.145-.384-.5-.61-.273L28.664,7.119a2.077,2.077,0,0,1-2.5.322,13.66,13.66,0,0,0-3.2-1.329,2.1,2.1,0,0,1-1.555-2.018V2.061a.238.238,0,0,0-.238-.238H17.525a.238.238,0,0,0-.238.238V4.095a2.1,2.1,0,0,1-1.555,2.018,13.654,13.654,0,0,0-3.2,1.328,2.077,2.077,0,0,1-2.5-.322L8.583,5.667a.238.238,0,0,0-.337,0L5.666,8.247a.238.238,0,0,0,0,.337l1.453,1.453a2.076,2.076,0,0,1,.322,2.5,13.664,13.664,0,0,0-1.329,3.2,2.1,2.1,0,0,1-2.017,1.554H2.061a.239.239,0,0,0-.238.238v3.649a.238.238,0,0,0,.238.238H4.095a2.1,2.1,0,0,1,2.018,1.554,13.625,13.625,0,0,0,1.328,3.2,2.076,2.076,0,0,1-.322,2.5L5.666,30.117a.232.232,0,0,0-.07.169.236.236,0,0,0,.07.169l2.58,2.58a.238.238,0,0,0,.337,0l1.452-1.452a2.077,2.077,0,0,1,2.5-.322,13.652,13.652,0,0,0,3.2,1.329,2.1,2.1,0,0,1,1.555,2.018v2.033a.238.238,0,0,0,.238.238h3.649a.238.238,0,0,0,.238-.238V34.606a2.1,2.1,0,0,1,1.555-2.018.911.911,0,0,1,.479,1.758.273.273,0,0,0-.211.259v2.033A2.064,2.064,0,0,1,21.174,38.7Zm0,0" fill="#593609"/>
      <path id="Path_1002901" data-name="Path 1002901" d="M88.535,97.08a8.6,8.6,0,0,1,11.645-8.031.912.912,0,0,1-.649,1.7,6.768,6.768,0,1,0-2,13.083.912.912,0,0,1,.107,1.82,8.6,8.6,0,0,1-9.1-8.576Zm0,0" transform="translate(-77.776 -77.73)" fill="#593609"/>
      <path id="Path_1002902" data-name="Path 1002902" d="M132.477,95.668l-9.235-1.8V91.591a9.64,9.64,0,0,0,4.3-7.089,2.621,2.621,0,0,0,2.409-2.609V80.019a2.485,2.485,0,0,0-.423-4.7V74.6a11.77,11.77,0,0,0-11.77-11.77h-.987A11.77,11.77,0,0,0,105,74.6v.723a2.485,2.485,0,0,0-.423,4.7v1.873a2.621,2.621,0,0,0,2.409,2.609,9.614,9.614,0,0,0,3.233,6.265,11.981,11.981,0,0,0,1.071.824v2.282l-9.235,1.8c-4.873.948-8.67,3.694-8.67,8.762V113.7a3.714,3.714,0,0,0,3.714,3.714h40.332a3.714,3.714,0,0,0,3.714-3.714v-9.271c0-5.052-3.775-7.811-8.67-8.762Zm-7.587.382c-.662.962-1.673,2.431-2.766,4.013a1.326,1.326,0,0,1-1.557.54l-1.44-.864c1.4-.829,3.347-2.254,3.937-4.045Zm-7.624,2.627c-1.384-.7-4.144-2.419-4.151-4.046V92.6a10.467,10.467,0,0,0,8.3,0v2.027c0,1.63-2.766,3.356-4.152,4.053ZM106.826,74.6a9.954,9.954,0,0,1,5.131-8.7V67.04a.912.912,0,0,0,1.823,0V65.111a9.883,9.883,0,0,1,2.574-.451v4.507a.912.912,0,0,0,1.823,0V64.66a9.886,9.886,0,0,1,2.575.451V67.04a.912.912,0,0,0,1.823,0V65.9a9.954,9.954,0,0,1,5.131,8.7v.659H106.827Zm-1.26,2.482h23.4a.66.66,0,0,1,0,1.32h-23.4A.66.66,0,0,1,105.567,77.08Zm3.187,6.5a.911.911,0,0,0-.911-.892c-.152-.038-1.44.237-1.44-.794V80.224h21.728v1.669c0,1.029-1.322.765-1.44.794a.912.912,0,0,0-.911.892,7.86,7.86,0,0,1-2.657,5.807,8.751,8.751,0,0,1-11.712,0,7.859,7.859,0,0,1-2.657-5.807Zm2.715,12.116c.59,1.791,2.533,3.215,3.937,4.045-1.443.773-1.341,1-2,.927a1.437,1.437,0,0,1-1.007-.614c-1.09-1.578-2.1-3.043-2.759-4Zm-10.517,19.9H97.1a1.891,1.891,0,0,1-1.891-1.891v-9.271c0-2.732,1.241-4.62,3.963-5.925a37.489,37.489,0,0,1,1.78,11.353Zm15.4,0h-13.58v-5.734a38.248,38.248,0,0,0-1.9-12.03c1.064-.354.274-.081,6.82-1.4,1.881,2.734,5.392,7.835,7.462,10.777a6.56,6.56,0,0,1,1.2,3.795Zm.911-8.4a8.58,8.58,0,0,0-.621-1.032c-.7-.994-1.608-2.3-2.555-3.666a2.732,2.732,0,0,0,.814-.325l2.363-1.417,2.363,1.417a2.727,2.727,0,0,0,.814.325c-.948,1.367-1.856,2.671-2.555,3.666a8.523,8.523,0,0,0-.622,1.032Zm22.058,6.513a1.891,1.891,0,0,1-1.891,1.891h-3.852v-3.439a.912.912,0,0,0-1.823,0v3.439h-13.58V111a6.561,6.561,0,0,1,1.2-3.794c1.177-1.673,6.025-8.668,7.463-10.777,6.543,1.317,5.754,1.045,6.819,1.4a39.75,39.75,0,0,0-1.878,10.642.911.911,0,0,0,1.822.066,36.453,36.453,0,0,1,1.756-10.03c2.722,1.3,3.963,3.193,3.963,5.924Zm0,0" transform="translate(-82.038 -55.193)" fill="#593609"/>
    </g>
  </g>
</svg>
