<svg xmlns="http://www.w3.org/2000/svg" width="96" height="96" viewBox="0 0 96 96">
  <g id="img7" transform="translate(-383.746 -8399.832)">
    <path id="Path_997400" data-name="Path 997400" d="M48,0A48,48,0,1,1,0,48,48,48,0,0,1,48,0Z" transform="translate(383.746 8399.832)" fill="#ff9a1a"/>
    <path id="Path_1007655" data-name="Path 1007655" d="M52.519,79.13H46.127a9.518,9.518,0,0,0-6.477-13.063V46.185a9.549,9.549,0,0,0,4.721-3.193.754.754,0,0,0,.194-.259,9.458,9.458,0,0,0,1.87-5.244h6.222a2.811,2.811,0,1,0,0-1.521H46.39a9.527,9.527,0,0,0-18.931,0H21.445a2.822,2.822,0,1,0,0,1.521h5.967a9.453,9.453,0,0,0,1.912,5.3.751.751,0,0,0,.134.18,9.558,9.558,0,0,0,4.8,3.233V66.33a9.517,9.517,0,0,0-5.589,12.8H21.39a2.865,2.865,0,0,0-2.869,2.854v2.108a.76.76,0,0,0,.761.761H54.613a.76.76,0,0,0,.761-.761V81.985a2.858,2.858,0,0,0-2.854-2.854ZM55.35,35.441a1.3,1.3,0,1,1-1.288,1.287A1.289,1.289,0,0,1,55.35,35.441Zm-36.6,2.59a1.3,1.3,0,1,1,1.287-1.3A1.3,1.3,0,0,1,18.754,38.031ZM36.932,29.04A8.005,8.005,0,0,1,43.9,40.987a10.5,10.5,0,0,0-4.55-2.548.474.474,0,0,1-.051-.155c1.1-1.256,1.488-3.039,1.27-5.71a3.5,3.5,0,0,0-3.641-3.268h-.009A3.479,3.479,0,0,0,33.3,32.566c-.236,2.714.143,4.454,1.263,5.717a.871.871,0,0,1-.044.156A10.465,10.465,0,0,0,29.957,41a7.935,7.935,0,0,1-1.045-3.937,8.028,8.028,0,0,1,8.019-8.02ZM30.885,42.3c.268-.512,1.176-1.423,4.182-2.443l.059-.023a1.8,1.8,0,0,0,.984-1.807.758.758,0,0,0-.23-.565c-.958-.931-1.277-2.356-1.067-4.778a1.985,1.985,0,0,1,2.106-1.857h.006a2,2,0,0,1,2.124,1.866c.2,2.412-.123,3.839-1.071,4.773a.759.759,0,0,0-.227.542,1.786,1.786,0,0,0,.985,1.827l.059.023c2.993,1.014,3.905,1.922,4.178,2.435a7.986,7.986,0,0,1-12.089.007Zm4.895,4.208a8.657,8.657,0,0,0,2.349-.007V65.824c-.242-.018-.484-.037-.73-.037a9.515,9.515,0,0,0-1.619.148V46.509Zm1.619,20.8a8.012,8.012,0,1,1-8,8.02A8.021,8.021,0,0,1,37.4,67.308ZM20.042,83.332V81.984a1.358,1.358,0,0,1,1.348-1.333H29.5a9.587,9.587,0,0,0,2.751,2.681Zm33.81,0H42.543a9.59,9.59,0,0,0,2.751-2.681h7.225a1.35,1.35,0,0,1,1.333,1.333Zm-23.7-21.1H31.4a.761.761,0,1,0,0-1.521h-5.08c.091-.105.18-.212.266-.321a.807.807,0,0,0,.1-.123,9.526,9.526,0,1,0-15.17,0,.773.773,0,0,0,.1.123q.129.163.266.321H6.8a.761.761,0,0,0,0,1.521H8.05a5.115,5.115,0,0,0,5.1,4.895h11.9A5.115,5.115,0,0,0,30.151,62.232ZM19.1,46.48a8.007,8.007,0,0,1,6.968,11.947,10.487,10.487,0,0,0-4.544-2.546.56.56,0,0,1-.052-.16c1.105-1.256,1.5-3.04,1.264-5.706A3.5,3.5,0,0,0,19.1,46.747a3.492,3.492,0,0,0-3.634,3.259c-.233,2.675.158,4.46,1.264,5.716a.856.856,0,0,1-.044.157,10.5,10.5,0,0,0-4.553,2.549A8.007,8.007,0,0,1,19.1,46.48ZM13.055,59.739c.269-.513,1.179-1.423,4.181-2.441.021-.007.04-.015.06-.023a1.806,1.806,0,0,0,.983-1.808.76.76,0,0,0-.23-.565c-.958-.931-1.277-2.356-1.067-4.774a2,2,0,0,1,2.119-1.86,2,2,0,0,1,2.119,1.869c.209,2.409-.111,3.834-1.068,4.765a.761.761,0,0,0-.23.565,1.806,1.806,0,0,0,.983,1.808c.02.008.04.016.06.023,3,1.017,3.912,1.928,4.181,2.441a8.106,8.106,0,0,1-1.009.972H14.064a8.044,8.044,0,0,1-1.009-.972ZM9.571,62.232H28.63a3.594,3.594,0,0,1-3.581,3.374h-11.9a3.594,3.594,0,0,1-3.581-3.374ZM68,60.711h-5.08q.136-.158.265-.321a.777.777,0,0,0,.1-.123,9.54,9.54,0,1,0-14.812.444H43.393a.761.761,0,1,0,0,1.521h1.253a5.115,5.115,0,0,0,5.1,4.895h11.9a5.116,5.116,0,0,0,5.1-4.895H68a.761.761,0,0,0,0-1.521ZM55.7,46.48a8.007,8.007,0,0,1,6.968,11.947,10.489,10.489,0,0,0-4.544-2.546.56.56,0,0,1-.052-.16c1.106-1.251,1.486-2.989,1.264-5.707a3.656,3.656,0,0,0-7.269-.009c-.233,2.675.158,4.46,1.264,5.716a.875.875,0,0,1-.044.157,10.466,10.466,0,0,0-4.557,2.555A7.933,7.933,0,0,1,47.677,54.5,8.029,8.029,0,0,1,55.7,46.48ZM49.65,59.74c.268-.512,1.177-1.424,4.182-2.442.021-.007.041-.015.06-.023a1.806,1.806,0,0,0,.983-1.808.759.759,0,0,0-.23-.565c-.958-.931-1.277-2.356-1.067-4.774a2.136,2.136,0,0,1,4.237.005c.2,2.424-.122,3.85-1.068,4.769a.759.759,0,0,0-.23.565,1.806,1.806,0,0,0,.983,1.808c.02.008.039.016.06.023,3,1.017,3.912,1.928,4.181,2.441a8.079,8.079,0,0,1-1.009.972H50.66a8.213,8.213,0,0,1-1.01-.971Zm12,5.866h-11.9a3.594,3.594,0,0,1-3.581-3.374H65.226A3.594,3.594,0,0,1,61.645,65.606ZM33.722,73.921a2.946,2.946,0,0,1-.075-2.5,3.625,3.625,0,0,1,2.41-1.932,4.873,4.873,0,0,1,.582-.126v-.485a.761.761,0,0,1,1.521,0v.475a4.134,4.134,0,0,1,2.635,1.431.76.76,0,1,1-1.189.948,3.063,3.063,0,0,0-3.123-.783,2.149,2.149,0,0,0-1.443,1.084,1.411,1.411,0,0,0,.045,1.208c.445.891,1.124,1.017,2.285,1.166a4.427,4.427,0,0,1,3.4,1.628,3.093,3.093,0,0,1,.464,2.845,3.688,3.688,0,0,1-2.61,2.265c-.153.045-.308.069-.463.1v.511a.761.761,0,1,1-1.521,0v-.431a4.4,4.4,0,0,1-2.994-1.517.76.76,0,0,1,1.184-.955,3.314,3.314,0,0,0,3.367.832,2.225,2.225,0,0,0,1.6-1.3,1.588,1.588,0,0,0-.253-1.457c-.551-.751-1.257-.876-2.363-1.017-1.168-.149-2.623-.334-3.454-2Z" transform="translate(394.71 8392.313)" fill="#593609"/>
  </g>
</svg>
