<svg xmlns="http://www.w3.org/2000/svg" width="100" height="100" viewBox="0 0 100 100">
  <g id="img7" transform="translate(-383.746 -8400)">
    <circle id="Ellipse_13609" data-name="Ellipse 13609" cx="50" cy="50" r="50" transform="translate(383.746 8400)" fill="#beb1a1"/>
    <g id="Group_1179280" data-name="Group 1179280" transform="translate(406.156 8422.438)">
      <g id="Page-1_15_" transform="translate(0.032 0)">
        <g id="_x30_16---Team-Organisation" transform="translate(0)">
          <path id="Shape_112_" d="M50.923,42.742A6.42,6.42,0,0,0,47.8,31.394V30.4a2.756,2.756,0,0,0-2.756-2.756H28.509V25.809H33.1a2.756,2.756,0,0,0,2.756-2.756V18.46a6.437,6.437,0,0,0-4.226-6.032,6.43,6.43,0,1,0-8.091,0,6.437,6.437,0,0,0-4.218,6.032v4.593a2.756,2.756,0,0,0,2.756,2.756h4.593v1.837H10.137A2.756,2.756,0,0,0,7.381,30.4v.992A6.42,6.42,0,0,0,4.258,42.742,6.437,6.437,0,0,0,.032,48.774v4.593a2.756,2.756,0,0,0,2.756,2.756H13.811a2.756,2.756,0,0,0,2.756-2.756V48.774a6.437,6.437,0,0,0-4.226-6.032A6.42,6.42,0,0,0,9.218,31.394V30.4a.919.919,0,0,1,.919-.919H26.672v1.911a6.42,6.42,0,0,0-3.123,11.348,6.437,6.437,0,0,0-4.226,6.032v4.593a2.756,2.756,0,0,0,2.756,2.756H33.1a2.756,2.756,0,0,0,2.756-2.756V48.774a6.437,6.437,0,0,0-4.226-6.032,6.42,6.42,0,0,0-3.123-11.348V29.483H45.044a.919.919,0,0,1,.919.919v.992a6.42,6.42,0,0,0-3.123,11.348,6.437,6.437,0,0,0-4.226,6.032v4.593a2.756,2.756,0,0,0,2.756,2.756H52.393a2.756,2.756,0,0,0,2.756-2.756V48.774a6.438,6.438,0,0,0-4.226-6.032ZM23,7.437A4.593,4.593,0,1,1,27.59,12.03,4.593,4.593,0,0,1,23,7.437ZM21.16,18.46a4.6,4.6,0,0,1,4.593-4.593h3.674A4.6,4.6,0,0,1,34.02,18.46v4.593a.919.919,0,1,1-1.837,0V18.46a.919.919,0,1,0-1.837,0v4.593a2.723,2.723,0,0,0,.169.919h-5.85a2.723,2.723,0,0,0,.169-.919V18.46a.919.919,0,1,0-1.837,0v4.593a.919.919,0,1,1-1.837,0V18.46ZM10.136,44.181a4.6,4.6,0,0,1,4.593,4.593v4.593a.919.919,0,1,1-1.837,0V48.774a.919.919,0,0,0-1.837,0v4.593a2.722,2.722,0,0,0,.169.919H5.374a2.723,2.723,0,0,0,.169-.919V48.774a.919.919,0,0,0-1.837,0v4.593a.919.919,0,1,1-1.837,0V48.774a4.6,4.6,0,0,1,4.593-4.593Zm2.756-6.43A4.593,4.593,0,1,1,8.3,33.158,4.593,4.593,0,0,1,12.892,37.751Zm16.535,6.43a4.6,4.6,0,0,1,4.593,4.593v4.593a.919.919,0,1,1-1.837,0V48.774a.919.919,0,0,0-1.837,0v4.593a2.722,2.722,0,0,0,.169.919h-5.85a2.723,2.723,0,0,0,.169-.919V48.774a.919.919,0,0,0-1.837,0v4.593a.919.919,0,1,1-1.837,0V48.774a4.6,4.6,0,0,1,4.593-4.593Zm2.756-6.43a4.593,4.593,0,1,1-4.593-4.593A4.593,4.593,0,0,1,32.183,37.751Zm10.1,0a4.593,4.593,0,1,1,4.593,4.593A4.593,4.593,0,0,1,42.288,37.751ZM53.311,53.367a.919.919,0,1,1-1.837,0V48.774a.919.919,0,1,0-1.837,0v4.593a2.722,2.722,0,0,0,.169.919h-5.85a2.723,2.723,0,0,0,.169-.919V48.774a.919.919,0,0,0-1.837,0v4.593a.919.919,0,1,1-1.837,0V48.774a4.6,4.6,0,0,1,4.593-4.593h3.674a4.6,4.6,0,0,1,4.593,4.593v4.593Z" transform="translate(-0.032 -1)" fill="#593609"/>
        </g>
      </g>
    </g>
  </g>
</svg>
