<svg xmlns="http://www.w3.org/2000/svg" width="100" height="100" viewBox="0 0 100 100">
  <g id="img8" transform="translate(-383.746 -8400)">
    <circle id="Ellipse_13609" data-name="Ellipse 13609" cx="50" cy="50" r="50" transform="translate(383.746 8400)" fill="#beb1a1"/>
    <path id="Target" d="M59.327,42.268a19.179,19.179,0,0,1-17.013,17.1.659.659,0,0,0-.667.667V74.309a1.334,1.334,0,0,1-2.668,0V69.13a.722.722,0,0,0-.667-.667A28.125,28.125,0,0,1,13.2,46.859a1.334,1.334,0,1,1,2.582-.667A25.363,25.363,0,0,0,38.226,65.708c.173.086.337,0,.5-.165a.5.5,0,0,0,.251-.5V60.035a.659.659,0,0,0-.667-.667,19.414,19.414,0,0,1-11.5-5.493,19.21,19.21,0,0,1-5.493-11.6.7.7,0,0,0-.667-.589H6.373a1.373,1.373,0,0,1,0-2.747H11.8a.706.706,0,0,0,.667-.589A28.431,28.431,0,0,1,33.305,12.645a1.381,1.381,0,0,1,.667,2.676A25.457,25.457,0,0,0,15.2,38.18a.643.643,0,0,0,.667.785h4.748a.7.7,0,0,0,.667-.589A19.179,19.179,0,0,1,38.312,21.245a.659.659,0,0,0,.667-.667V6.3a1.334,1.334,0,0,1,2.668,0V22.493a1.358,1.358,0,0,1-1.42,1.42c-14.51,0-21.761,17.766-11.5,28.031s27.764,2.919,28.015-11.638a1.318,1.318,0,0,1,1.334-1.334H74.253a1.373,1.373,0,1,1,0,2.747H68.916a.643.643,0,0,0-.667.589A28.36,28.36,0,0,1,46.818,67.772,1.366,1.366,0,0,1,46.23,65.1,25.5,25.5,0,0,0,65.5,42.433a.643.643,0,0,0-.667-.785H59.994a.7.7,0,0,0-.667.589ZM70.133,20.076l-9.644,9.589a1.318,1.318,0,0,1-.91.424H53.151a1.122,1.122,0,0,0-.494.165L41.231,41.766a1.358,1.358,0,0,1-1.923-1.915l11.426-11.52a.455.455,0,0,0,.251-.416V21.473a1.373,1.373,0,0,1,.416-1l9.589-9.582a1.358,1.358,0,0,1,2.354.918v5.258a.714.714,0,0,0,.667.667h5.171a1.373,1.373,0,0,1,1,2.354ZM59.147,27.139l5.587-5.587a.675.675,0,0,0-.416-1.169H61.964a1.389,1.389,0,0,1-1.42-1.334V16.765a.691.691,0,0,0-1.169-.494l-5.493,5.587a.738.738,0,0,0-.251.5V26.7a.659.659,0,0,0,.667.667h4.418c.173,0,.337,0,.416-.173Zm-7.5,13.184A11.339,11.339,0,1,1,40.313,29a1.342,1.342,0,0,1,0,2.676,8.632,8.632,0,0,0,0,17.264c5.007,0,8.342-3.751,8.585-8.632a1.381,1.381,0,1,1,2.754.078Z" transform="translate(393.433 8409.693)" fill="#593609"/>
  </g>
</svg>
