<svg xmlns="http://www.w3.org/2000/svg" width="100" height="100" viewBox="0 0 100 100">
  <g id="img8" transform="translate(-383.746 -8400)">
    <circle id="Ellipse_13609" data-name="Ellipse 13609" cx="50" cy="50" r="50" transform="translate(383.746 8400)" fill="#beb1a1"/>
    <g id="Group_1179281" data-name="Group 1179281" transform="translate(403.746 8420)">
      <path id="Path_1002903" data-name="Path 1002903" d="M50,60a4,4,0,0,0,4-4V8a4,4,0,0,0-4-4H42.722A1.993,1.993,0,0,0,41,3H38.721L38.4,2.051A3,3,0,0,0,35.559,0H24.441A3,3,0,0,0,21.6,2.051L21.279,3H19a1.993,1.993,0,0,0-1.722,1H10A4,4,0,0,0,6,8V56a4,4,0,0,0,4,4ZM19,5h3a1,1,0,0,0,.949-.684l.544-1.632A1,1,0,0,1,24.441,2H35.559a1,1,0,0,1,.948.684l.544,1.632A1,1,0,0,0,38,5h3V9H19Zm22,6a1.993,1.993,0,0,0,1.722-1H48V54H12V10h5.278A1.993,1.993,0,0,0,19,11ZM8,56V8a2,2,0,0,1,2-2h7V8H12a2,2,0,0,0-2,2V54a2,2,0,0,0,2,2H48a2,2,0,0,0,2-2V10a2,2,0,0,0-2-2H43V6h7a2,2,0,0,1,2,2V56a2,2,0,0,1-2,2H10A2,2,0,0,1,8,56Z" fill="#593609"/>
      <circle id="Ellipse_13836" data-name="Ellipse 13836" cx="1" cy="1" r="1" transform="translate(29 4)" fill="#593609"/>
      <path id="Path_1002904" data-name="Path 1002904" d="M41,21a4,4,0,1,0-4-4A4,4,0,0,0,41,21Zm0-6a2,2,0,1,1-2,2A2,2,0,0,1,41,15Z" fill="#593609"/>
      <path id="Path_1002905" data-name="Path 1002905" d="M18,40v3.142a4,4,0,1,0,2,0V40a4,4,0,0,1,4-4H36a6.006,6.006,0,0,0,6-6V26.414l1.293,1.293a1,1,0,1,0,1.414-1.414l-3-3a1,1,0,0,0-1.414,0l-3,3a1,1,0,1,0,1.414,1.414L40,26.414V30a4,4,0,0,1-4,4H24a6.006,6.006,0,0,0-6,6Zm3,7a2,2,0,1,1-2-2A2,2,0,0,1,21,47Z" fill="#593609"/>
      <path id="Path_1002906" data-name="Path 1002906" d="M26.293,28.707a1,1,0,0,0,1.414,0L29,27.414l1.293,1.293a1,1,0,1,0,1.414-1.414L30.414,26l1.293-1.293a1,1,0,1,0-1.414-1.414L29,24.586l-1.293-1.293a1,1,0,1,0-1.414,1.414L27.586,26l-1.293,1.293a1,1,0,0,0,0,1.414Z" fill="#593609"/>
      <path id="Path_1002907" data-name="Path 1002907" d="M16.293,17.293a1,1,0,0,0,0,1.414L17.586,20l-1.293,1.293a1,1,0,1,0,1.414,1.414L19,21.414l1.293,1.293a1,1,0,1,0,1.414-1.414L20.414,20l1.293-1.293a1,1,0,1,0-1.414-1.414L19,18.586l-1.293-1.293a1,1,0,0,0-1.414,0Z" fill="#593609"/>
      <path id="Path_1002908" data-name="Path 1002908" d="M32.707,41.293a1,1,0,0,0-1.414,0L30,42.586l-1.293-1.293a1,1,0,1,0-1.414,1.414L28.586,44l-1.293,1.293a1,1,0,1,0,1.414,1.414L30,45.414l1.293,1.293a1,1,0,1,0,1.414-1.414L31.414,44l1.293-1.293A1,1,0,0,0,32.707,41.293Z" fill="#593609"/>
      <path id="Path_1002909" data-name="Path 1002909" d="M43.707,43.293a1,1,0,0,0-1.414,0L41,44.586l-1.293-1.293a1,1,0,1,0-1.414,1.414L39.586,46l-1.293,1.293a1,1,0,1,0,1.414,1.414L41,47.414l1.293,1.293a1,1,0,1,0,1.414-1.414L42.414,46l1.293-1.293A1,1,0,0,0,43.707,43.293Z" fill="#593609"/>
    </g>
  </g>
</svg>
