<svg xmlns="http://www.w3.org/2000/svg" width="96" height="96" viewBox="0 0 96 96">
  <g id="img8" transform="translate(-383.746 -8400.001)">
    <path id="Path_997400" data-name="Path 997400" d="M48,0A48,48,0,1,1,0,48,48,48,0,0,1,48,0Z" transform="translate(383.746 8400.001)" fill="#ff9a1a"/>
    <path id="XMLID_286_" d="M56.284,26.671a7.806,7.806,0,0,0-2.418-2.8.086.086,0,0,1-.034-.071V16.828a2.779,2.779,0,0,0,.72-1.759,2.82,2.82,0,0,0-.271-1.319,2.877,2.877,0,0,0,2.864-2.728A2.835,2.835,0,0,0,55.2,8.231a2.813,2.813,0,0,0,.343-1.459,2.843,2.843,0,0,0-2.876-2.726H50.23A2.832,2.832,0,0,0,47.625,0h-7.9a.806.806,0,0,0,0,1.612h7.9A1.253,1.253,0,0,1,48.89,2.783a1.217,1.217,0,0,1-1.216,1.263H41.736a.806.806,0,1,0,0,1.612H52.664a1.253,1.253,0,0,1,1.265,1.172,1.217,1.217,0,0,1-1.215,1.262H41.957a.806.806,0,0,0,0,1.612H54.317a1.217,1.217,0,0,1,1.216,1.262,1.253,1.253,0,0,1-1.265,1.172H41.957a.806.806,0,0,0,0,1.612h9.767a1.217,1.217,0,0,1,1.216,1.262,1.181,1.181,0,0,1-.337.777.8.8,0,0,0-.19.162,1.288,1.288,0,0,1-.738.234h-9.94a.806.806,0,1,0,0,1.612h2.6c0,.034,0,.068,0,.1a1.774,1.774,0,0,1-1.844,1.64H35.437a2.815,2.815,0,0,1-.3-.016l-.048,0c-4.708-.217-6.6-2.262-7.194-3.131a1.685,1.685,0,0,0-1.392-.732H24.582V15.22a3.362,3.362,0,0,0-3.252-3.456h-.1V6.038a2.861,2.861,0,0,0-.052-.544H26.5a1.7,1.7,0,0,0,1.4-.734c.649-.946,2.729-3.148,8.028-3.148a.806.806,0,0,0,0-1.612,13.8,13.8,0,0,0-6.56,1.43,7.806,7.806,0,0,0-2.8,2.418.086.086,0,0,1-.071.034H20.265a2.779,2.779,0,0,0-1.76-.72,2.811,2.811,0,0,0-1.319.271A2.877,2.877,0,0,0,14.458.57a2.834,2.834,0,0,0-2.792,1.946,2.812,2.812,0,0,0-1.459-.343A2.843,2.843,0,0,0,7.482,5.05V7.484a2.832,2.832,0,0,0-4.046,2.6v11.7a13.8,13.8,0,0,0,1.43,6.56,7.805,7.805,0,0,0,2.418,2.8.086.086,0,0,1,.034.071v6.974a2.779,2.779,0,0,0-.72,1.759,2.82,2.82,0,0,0,.271,1.319,2.877,2.877,0,0,0-2.864,2.728,2.834,2.834,0,0,0,1.946,2.792,2.814,2.814,0,0,0-.343,1.459,2.843,2.843,0,0,0,2.876,2.726H10.92a2.832,2.832,0,0,0,2.6,4.046h11.7a13.8,13.8,0,0,0,6.56-1.43,7.806,7.806,0,0,0,2.8-2.418.086.086,0,0,1,.071-.034h6.236a2.779,2.779,0,0,0,1.759.72,2.821,2.821,0,0,0,1.319-.271,2.877,2.877,0,0,0,2.728,2.864l.1,0A2.835,2.835,0,0,0,49.483,52.5a2.832,2.832,0,0,0,4.185-2.533V47.532a2.811,2.811,0,0,0,1.32.271,2.844,2.844,0,0,0,2.726-2.876V33.23A13.8,13.8,0,0,0,56.284,26.671ZM33.25,50.257C32.6,51.2,30.521,53.4,25.222,53.4h-11.7a1.253,1.253,0,0,1-1.265-1.172,1.217,1.217,0,0,1,1.216-1.263h5.938a.806.806,0,0,0,0-1.612H8.486a1.253,1.253,0,0,1-1.265-1.172,1.217,1.217,0,0,1,1.215-1.262H19.193a.806.806,0,0,0,0-1.612H6.833a1.217,1.217,0,0,1-1.216-1.262,1.253,1.253,0,0,1,1.265-1.172H19.193a.806.806,0,1,0,0-1.612H9.425A1.217,1.217,0,0,1,8.209,40a1.252,1.252,0,0,1,1.265-1.172h9.94a.806.806,0,1,0,0-1.612h-2.6c0-.034,0-.068,0-.1a1.774,1.774,0,0,1,1.844-1.64h7.057a2.814,2.814,0,0,1,.3.016l.048,0c4.708.217,6.6,2.262,7.194,3.131a1.685,1.685,0,0,0,1.392.732h1.925V39.8a3.362,3.362,0,0,0,3.252,3.456h.1v5.726a2.861,2.861,0,0,0,.052.544H34.65A1.7,1.7,0,0,0,33.25,50.257ZM56.1,44.928a1.253,1.253,0,0,1-1.172,1.265,1.217,1.217,0,0,1-1.263-1.216V39.039a.806.806,0,1,0-1.612,0V49.967a1.253,1.253,0,0,1-1.172,1.265,1.217,1.217,0,0,1-1.262-1.215h0V39.26a.806.806,0,1,0-1.612,0V51.619a1.217,1.217,0,0,1-1.262,1.216,1.253,1.253,0,0,1-1.172-1.265V39.26a.806.806,0,1,0-1.612,0v9.767A1.217,1.217,0,0,1,42.7,50.243a1.252,1.252,0,0,1-1.172-1.265v-9.94a.806.806,0,1,0-1.612,0v2.6h-.1A1.774,1.774,0,0,1,38.18,39.8V34.413a.806.806,0,0,0-1.612,0v3.339H34.643a.074.074,0,0,1-.062-.03,7.706,7.706,0,0,0-2.563-2.289,12.937,12.937,0,0,0-5.864-1.54c-.148-.015-.3-.022-.441-.022H20.7V31.207a.074.074,0,0,1,.03-.062c1.134-.776,3.123-2.71,3.695-6.939a.806.806,0,1,0-1.6-.216c-.169,1.248-.8,4.314-3.008,5.826a1.685,1.685,0,0,0-.732,1.392V33.87h-.432A3.362,3.362,0,0,0,15.2,37.122c0,.031,0,.064,0,.1H9.474a2.861,2.861,0,0,0-.544.052V31.214a1.7,1.7,0,0,0-.734-1.4c-.946-.649-3.148-2.729-3.148-8.028v-11.7A1.253,1.253,0,0,1,6.219,8.824,1.217,1.217,0,0,1,7.482,10.04v5.938a.806.806,0,1,0,1.612,0V5.05a1.253,1.253,0,0,1,1.172-1.265A1.217,1.217,0,0,1,11.528,5h0V15.757a.806.806,0,1,0,1.612,0V3.4A1.217,1.217,0,0,1,14.4,2.181a1.253,1.253,0,0,1,1.172,1.265V15.757a.806.806,0,1,0,1.612,0V5.99a1.217,1.217,0,0,1,1.262-1.216A1.252,1.252,0,0,1,19.62,6.038v9.94a.806.806,0,1,0,1.612,0v-2.6h.1a1.774,1.774,0,0,1,1.64,1.844v5.168a.806.806,0,0,0,1.612,0V17.264h1.925a.074.074,0,0,1,.062.03,7.706,7.706,0,0,0,2.563,2.289A12.937,12.937,0,0,0,35,21.124c.148.015.3.022.441.022H40.45v2.663a.074.074,0,0,1-.03.062c-1.1.756-3.049,2.633-3.662,6.713a.806.806,0,1,0,1.594.24c.181-1.2.832-4.153,2.979-5.622a1.685,1.685,0,0,0,.732-1.392V21.146h.432a3.362,3.362,0,0,0,3.456-3.252c0-.031,0-.064,0-.1h5.726a2.861,2.861,0,0,0,.544-.052V23.8a1.7,1.7,0,0,0,.734,1.4c.946.649,3.148,2.729,3.148,8.028v11.7Z" transform="translate(401.171 8420.492)" fill="#593609"/>
  </g>
</svg>
