<svg xmlns="http://www.w3.org/2000/svg" width="96" height="96" viewBox="0 0 96 96">
  <g id="img9" transform="translate(-383.746 -8400.001)">
    <path id="Path_997400" data-name="Path 997400" d="M48,0A48,48,0,1,1,0,48,48,48,0,0,1,48,0Z" transform="translate(383.746 8400.001)" fill="#ff9a1a"/>
    <g id="Group_1181199" data-name="Group 1181199" transform="translate(365.867 8416.094)">
      <path id="Path_1007656" data-name="Path 1007656" d="M320.626,154.694a.935.935,0,0,0,.935-.935v-1.227a.935.935,0,1,0-1.87,0v1.227A.935.935,0,0,0,320.626,154.694Z" transform="translate(-245.87 -132.701)" fill="#593609"/>
      <path id="Path_1007657" data-name="Path 1007657" d="M256.008,154.694a.935.935,0,0,0,.935-.935v-1.227a.935.935,0,0,0-1.87,0v1.227A.935.935,0,0,0,256.008,154.694Z" transform="translate(-189.307 -132.701)" fill="#593609"/>
      <path id="Path_1007658" data-name="Path 1007658" d="M271.779,206.437a3.283,3.283,0,0,0,3.279-3.279.935.935,0,1,0-1.87,0,1.41,1.41,0,1,1-2.819,0,.935.935,0,1,0-1.87,0A3.283,3.283,0,0,0,271.779,206.437Z" transform="translate(-201.06 -177.017)" fill="#593609"/>
      <path id="Path_1007659" data-name="Path 1007659" d="M92.014,50.129a.935.935,0,0,0,.935-.935v-2.9a6.157,6.157,0,0,0-4.265-5.867l-11.56-3.642V33.066a10.08,10.08,0,0,0,3.91-8.548c2.145.165,4.482-1.107,4.482-3.54V19.027a3.526,3.526,0,0,0-.959-2.419c.012-.06.019-2.667.019-2.667a.935.935,0,1,0-1.87,0v1.546H69.618a2.808,2.808,0,0,1-2.8-2.8V4.674a2.808,2.808,0,0,1,2.8-2.8h6.346a6.748,6.748,0,0,1,6.741,6.741V9.867a.935.935,0,0,0,1.87,0V8.611A8.62,8.62,0,0,0,75.964,0H69.619a4.681,4.681,0,0,0-4.6,3.872H63.447A6.551,6.551,0,0,0,56.9,10.416s.005,6.107.013,6.156a3.527,3.527,0,0,0-.994,2.455v1.952c0,2.4,2.326,3.723,4.482,3.54a9.938,9.938,0,0,0,3.91,8.548v3.756L55.9,39.966a4.678,4.678,0,0,0-2.065,1.526l-5.416,7.031V45.394a2.8,2.8,0,0,0-.968-2.117V39.406a2.871,2.871,0,1,0-5.741,0V42.59a2.58,2.58,0,0,0-2.9,2.8V53.27a2.809,2.809,0,0,0,1.936,2.666v3.208a4.721,4.721,0,0,0,8.6,2.635L54.3,55.8v7.079a.935.935,0,0,0,.935.935H92.014a.935.935,0,0,0,.935-.935v-9.61a.935.935,0,1,0-1.87,0v8.675H85.205V49.54a.935.935,0,0,0-1.87,0V50.3H56.167v-.965a.935.935,0,1,0-1.87,0v3.535l-6.419,7.755c-1.53,1.847-5.263,1.9-5.263-1.478v-3.07h2.97v1a.935.935,0,1,0,1.87,0V55.387a2.8,2.8,0,0,0,.969-2.117V51.586l6.9-8.953a2.81,2.81,0,0,1,1.239-.916L65.1,38.526l5.059,3.809a.979.979,0,0,0,1.184-.045l5.024-3.783,11.747,3.7a4.289,4.289,0,0,1,2.966,4.087v2.9a.935.935,0,0,0,.935.935Zm-8.678,2.038v5.911H67.287a.935.935,0,0,0,0,1.87H83.335v2H56.167v-2h7.046a.935.935,0,1,0,0-1.87H56.167V52.167ZM43.583,39.406a1,1,0,1,1,2,0V42.59h-2Zm-2.9,5.988a.936.936,0,0,1,.935-.935h4a.936.936,0,0,1,.935.935v1.067H43.617a.935.935,0,1,0,0,1.87h2.937v2H43.617a.935.935,0,0,0,0,1.87h2.937v1.067c0,.623-.378.892-.934.934h-4a.936.936,0,0,1-.935-.935ZM83.646,20.979a1.672,1.672,0,0,1-1.67,1.67h-.942V17.357h.942a1.672,1.672,0,0,1,1.67,1.67ZM58.773,10.416a4.679,4.679,0,0,1,4.674-4.674h1.5v6.941h0a2.808,2.808,0,0,1-2.8,2.8H58.773Zm.689,12.233a1.672,1.672,0,0,1-1.67-1.67V19.027a1.672,1.672,0,0,1,1.67-1.67H60.4v5.292h-.942Zm2.812,2.692V17.354a4.67,4.67,0,0,0,3.6-1.87,4.67,4.67,0,0,0,3.739,1.873h9.545v7.984c0,10.273-16.889,10.261-16.889,0Zm12.979,8.8V37l-4.534,3.417L66.185,37V34.145c2.229,1.337,6.675,1.254,9.069,0Z" transform="translate(0 0)" fill="#593609"/>
      <path id="Path_1007660" data-name="Path 1007660" d="M64.317,175.957a.935.935,0,0,0,1.322,0l3.872-3.872a.935.935,0,0,0-1.322-1.322l-3.211,3.211L63.7,172.7a.935.935,0,1,0-1.322,1.322Z" transform="translate(-20.393 -149.238)" fill="#593609"/>
      <path id="Path_1007661" data-name="Path 1007661" d="M41.616,140.987h7.876a2.808,2.808,0,0,0,2.8-2.8v-1.067h2.937c.987-.008,1.423-.761.665-1.592l-3.6-3.643v-5.534a2.808,2.808,0,0,0-2.8-2.8H41.616a2.808,2.808,0,0,0-2.8,2.8v11.836A2.808,2.808,0,0,0,41.616,140.987Zm-.935-14.641a.936.936,0,0,1,.935-.935h7.876a.936.936,0,0,1,.935.935v5.918a.934.934,0,0,0,.27.657l2.3,2.324H51.361a.935.935,0,0,0-.935.935v2a.936.936,0,0,1-.935.935H41.616a.936.936,0,0,1-.935-.935Z" transform="translate(-0.001 -108.143)" fill="#593609"/>
    </g>
  </g>
</svg>
