<svg xmlns="http://www.w3.org/2000/svg" width="100" height="100" viewBox="0 0 100 100">
  <g id="img9" transform="translate(-383.746 -8400)">
    <circle id="Ellipse_13609" data-name="Ellipse 13609" cx="50" cy="50" r="50" transform="translate(383.746 8400)" fill="#beb1a1"/>
    <g id="b" transform="translate(406.936 8423.189)">
      <path id="Path_1002910" data-name="Path 1002910" d="M50.94,0H2.681A2.684,2.684,0,0,0,0,2.681V38.428A2.684,2.684,0,0,0,2.681,41.11H7.752L5.154,50.2a2.681,2.681,0,0,0,2.577,3.417h.751a2.693,2.693,0,0,0,2.578-1.945l1.487-5.2H24.129V50.94a2.681,2.681,0,0,0,5.362,0V46.472H41.074l1.487,5.2a2.693,2.693,0,0,0,2.578,1.945h.751A2.681,2.681,0,0,0,48.467,50.2l-2.6-9.094H50.94a2.684,2.684,0,0,0,2.681-2.681V2.681A2.684,2.684,0,0,0,50.94,0ZM9.342,51.185a.9.9,0,0,1-.86.649H7.731A.893.893,0,0,1,6.872,50.7L9.611,41.11h2.61Zm3.716-6.5,1.021-3.575h10.05v3.575ZM27.7,50.94a.894.894,0,0,1-1.787,0V41.11H27.7Zm1.787-6.256V41.11h10.05l1.021,3.575ZM46.749,50.7a.893.893,0,0,1-.859,1.139h-.751a.9.9,0,0,1-.86-.649L41.4,41.11h2.61Zm5.085-12.267a.9.9,0,0,1-.894.894H2.681a.9.9,0,0,1-.894-.894V2.681a.9.9,0,0,1,.894-.894H50.94a.9.9,0,0,1,.894.894Z" fill="#593609"/>
      <path id="Path_1002911" data-name="Path 1002911" d="M47.791,4H6.681A2.684,2.684,0,0,0,4,6.681V9.362a1.789,1.789,0,0,0,1.787,1.787h42.9a1.789,1.789,0,0,0,1.787-1.787V6.681A2.684,2.684,0,0,0,47.791,4ZM38.854,5.787V9.362H15.618V5.787ZM5.787,6.681a.9.9,0,0,1,.894-.894h7.149V9.362H5.787ZM40.641,9.362V5.787h7.149a.9.9,0,0,1,.894.894V9.362Z" transform="translate(-0.425 -0.425)" fill="#593609"/>
      <path id="Path_1002912" data-name="Path 1002912" d="M48.684,14H5.787A1.789,1.789,0,0,0,4,15.787V37.236a1.789,1.789,0,0,0,1.787,1.787h42.9a1.789,1.789,0,0,0,1.787-1.787V15.787A1.789,1.789,0,0,0,48.684,14ZM5.787,37.236V15.787h42.9V37.236Z" transform="translate(-0.425 -1.488)" fill="#593609"/>
      <path id="Path_1002913" data-name="Path 1002913" d="M11.575,32H9.787A1.789,1.789,0,0,0,8,33.787v1.787a1.789,1.789,0,0,0,1.787,1.787h1.787a1.789,1.789,0,0,0,1.787-1.787V33.787A1.789,1.789,0,0,0,11.575,32Zm0,3.575H9.787V33.787h1.787Z" transform="translate(-0.851 -3.402)" fill="#593609"/>
      <path id="Path_1002914" data-name="Path 1002914" d="M26.575,18H24.787A1.789,1.789,0,0,0,23,19.787v1.787a1.789,1.789,0,0,0,1.787,1.787h1.787a1.789,1.789,0,0,0,1.787-1.787V19.787A1.789,1.789,0,0,0,26.575,18Zm0,3.575H24.787V19.787h1.787Z" transform="translate(-2.445 -1.914)" fill="#593609"/>
      <path id="Path_1002915" data-name="Path 1002915" d="M19.632,24.262l-4.871,4.871A.894.894,0,1,0,16.025,30.4L20.9,25.525a.894.894,0,1,0-1.264-1.264Z" transform="translate(-1.542 -2.552)" fill="#593609"/>
      <path id="Path_1002916" data-name="Path 1002916" d="M31.525,24.262a.894.894,0,0,0-1.264,1.264l4.915,4.915a.894.894,0,0,0,1.264-1.264Z" transform="translate(-3.189 -2.552)" fill="#593609"/>
      <path id="Path_1002917" data-name="Path 1002917" d="M41.575,32H39.787A1.789,1.789,0,0,0,38,33.787v1.787a1.789,1.789,0,0,0,1.787,1.787h1.787a1.789,1.789,0,0,0,1.787-1.787V33.787A1.789,1.789,0,0,0,41.575,32Zm0,3.575H39.787V33.787h1.787Z" transform="translate(-4.04 -3.402)" fill="#593609"/>
      <path id="Path_1002918" data-name="Path 1002918" d="M46.744,27.262l-2.483,2.483a.894.894,0,1,0,1.264,1.264l2.483-2.483a.894.894,0,0,0-1.264-1.264Z" transform="translate(-4.678 -2.87)" fill="#593609"/>
      <ellipse id="Ellipse_13837" data-name="Ellipse 13837" cx="1" cy="0.5" rx="1" ry="0.5" transform="translate(44.811 21.811)" fill="#593609"/>
    </g>
  </g>
</svg>
